<svg width="14" height="8" viewBox="0 0 14 8" fill="none" xmlns="http://www.w3.org/2000/svg">
<path d="M13.0002 7.99999C12.8686 8.00075 12.7381 7.97552 12.6163 7.92576C12.4944 7.87599 12.3836 7.80267 12.2902 7.70999L7.71019 3.12C7.61722 3.02627 7.50662 2.95187 7.38476 2.90111C7.2629 2.85034 7.1322 2.8242 7.00019 2.8242C6.86817 2.8242 6.73747 2.85034 6.61561 2.90111C6.49375 2.95187 6.38315 3.02627 6.29019 3.12L1.71019 7.70999C1.52188 7.89829 1.26649 8.00408 1.00019 8.00408C0.733884 8.00408 0.478489 7.89829 0.290185 7.70999C0.101882 7.52168 -0.00390625 7.26629 -0.00390625 6.99999C-0.00390625 6.86813 0.0220657 6.73756 0.072526 6.61574C0.122986 6.49392 0.196947 6.38323 0.290185 6.28999L4.88019 1.71C5.45013 1.16243 6.20983 0.856628 7.00019 0.856628C7.79054 0.856628 8.55024 1.16243 9.12019 1.71L13.7102 6.28999C13.8039 6.38295 13.8783 6.49355 13.9291 6.61541C13.9798 6.73727 14.006 6.86798 14.006 6.99999C14.006 7.132 13.9798 7.26271 13.9291 7.38457C13.8783 7.50642 13.8039 7.61703 13.7102 7.70999C13.6167 7.80267 13.5059 7.87599 13.3841 7.92576C13.2623 7.97552 13.1318 8.00075 13.0002 7.99999Z" fill="#1A1A1A"/>
</svg>
