<svg width="24" height="25" viewBox="0 0 24 25" fill="none" xmlns="http://www.w3.org/2000/svg">
<g clip-path="url(#clip0_283_7080)">
<path d="M19 3.50031H12.472C12.3173 3.50133 12.1645 3.46713 12.025 3.40031L8.869 1.81631C8.45239 1.60885 7.9934 1.50069 7.528 1.50031H5C3.67441 1.50189 2.40356 2.02919 1.46622 2.96653C0.528882 3.90386 0.00158786 5.17471 0 6.50031L0 18.5003C0.00158786 19.8259 0.528882 21.0967 1.46622 22.0341C2.40356 22.9714 3.67441 23.4987 5 23.5003H19C20.3256 23.4987 21.5964 22.9714 22.5338 22.0341C23.4711 21.0967 23.9984 19.8259 24 18.5003V8.50031C23.9984 7.17471 23.4711 5.90386 22.5338 4.96653C21.5964 4.02919 20.3256 3.50189 19 3.50031ZM5 3.50031H7.528C7.68266 3.49928 7.83552 3.53348 7.975 3.60031L11.131 5.17931C11.5472 5.38849 12.0062 5.49837 12.472 5.50031H19C19.598 5.50128 20.1821 5.68097 20.6773 6.01632C21.1725 6.35166 21.5561 6.82734 21.779 7.38231L2 7.49431V6.50031C2 5.70466 2.31607 4.94159 2.87868 4.37898C3.44129 3.81638 4.20435 3.50031 5 3.50031ZM19 21.5003H5C4.20435 21.5003 3.44129 21.1842 2.87868 20.6216C2.31607 20.059 2 19.296 2 18.5003V9.49431L22 9.3813V18.5003C22 19.296 21.6839 20.059 21.1213 20.6216C20.5587 21.1842 19.7956 21.5003 19 21.5003Z" fill="white"/>
</g>
<defs>
<clipPath id="clip0_283_7080">
<rect width="24" height="24" fill="white" transform="translate(0 0.5)"/>
</clipPath>
</defs>
</svg>
