<svg width="653" height="278" viewBox="0 0 653 278" fill="none" xmlns="http://www.w3.org/2000/svg">
<g opacity="0.3" clip-path="url(#clip0_76_5012)">
<path d="M209.612 221.782H179.828V274.065H107.616V221.782H0V168.374L112.392 3.93555H179.828V167.25H209.612V221.782ZM107.616 167.25V135.768C107.616 129.865 107.897 121.994 108.178 111.875C108.74 101.756 109.021 96.6959 109.302 96.1337H107.335C103.12 105.691 98.3434 114.405 93.0047 122.837L63.2207 167.25H107.616Z" fill="#777777"/>
<path d="M423.72 139.422C423.72 187.207 415.571 222.344 399.836 244.55C383.82 266.756 359.375 278 326.219 278C293.906 278 269.742 266.475 253.164 243.145C236.867 219.814 228.719 185.24 228.719 139.422C228.719 91.3549 236.586 56.2184 252.883 33.731C268.899 11.2437 293.344 0 326.5 0C358.532 0 382.977 11.8059 399.274 35.1365C415.571 58.4671 423.72 93.0415 423.72 139.422ZM301.212 139.422C301.212 170.061 303.179 191.143 306.831 202.386C310.765 213.911 316.947 219.533 325.938 219.533C334.93 219.533 341.392 213.63 345.326 201.824C348.979 190.018 350.946 169.217 350.946 139.422C350.946 109.345 348.979 88.544 345.326 76.457C341.392 64.3701 335.211 58.4671 326.219 58.4671C317.228 58.4671 310.765 64.3701 307.112 75.8948C303.179 87.4196 301.212 108.502 301.212 139.422Z" fill="#777777"/>
<path d="M653 221.782H623.216V274.065H551.004V221.782H443.388V168.374L555.781 3.93555H623.216V167.25H653V221.782ZM551.285 167.25V135.768C551.285 129.865 551.566 121.994 551.847 111.875C552.409 101.756 552.69 96.6959 552.971 96.1337H551.004C546.789 105.691 542.013 114.405 536.674 122.837L506.609 167.531H551.285V167.25Z" fill="#777777"/>
</g>
<defs>
<clipPath id="clip0_76_5012">
<rect width="653" height="278" fill="white"/>
</clipPath>
</defs>
</svg>
