<svg width="359" height="181" viewBox="0 0 359 181" fill="none" xmlns="http://www.w3.org/2000/svg">
<path d="M66.1316 163.54C64.2116 163.54 63.0116 161.74 62.5316 158.14C62.5316 156.94 62.4716 156.16 62.3516 155.8C62.2316 155.44 62.1716 154.66 62.1716 153.46C62.1716 152.26 62.1716 151.54 62.1716 151.3C62.1716 150.94 62.1116 150.7 61.9916 150.58L61.6316 143.92H49.9316C44.4116 143.92 39.5516 143.98 35.3516 144.1C31.1516 144.1 27.6116 144.1 24.7316 144.1C23.4116 144.1 21.3116 144.16 18.4316 144.28C15.5516 144.28 12.5516 144.34 9.43164 144.46C6.31164 144.34 4.09164 143.74 2.77164 142.66C1.81164 142.3 1.33164 141.7 1.33164 140.86V131.32C1.33164 129.04 1.39164 126.94 1.51164 125.02C1.75164 123.1 1.99164 121.3 2.23164 119.62C2.35164 118.66 2.53164 117.1 2.77164 114.94C3.01164 112.78 3.79164 110.2 5.11164 107.2L9.79164 96.76L10.8716 94.06C11.1116 93.46 11.3516 92.5 11.5916 91.18C11.8316 89.74 12.3716 87.88 13.2116 85.6L16.0916 76.96L24.0116 59.5C25.3316 56.98 26.4116 55 27.2516 53.56C28.2116 52.12 28.8716 51.1 29.2316 50.5C29.3516 50.38 29.4716 50.26 29.5916 50.14C29.8316 49.9 30.1916 49.66 30.6716 49.42C30.7916 49.3 30.9116 49.18 31.0316 49.06C31.2716 48.94 31.4516 48.82 31.5716 48.7L32.2916 48.16H43.6316C46.2716 48.16 49.7516 48.34 54.0716 48.7C55.0316 48.1 57.0716 47.8 60.1916 47.8C62.9516 47.8 64.6916 47.8 65.4116 47.8C66.2516 47.8 66.9116 47.86 67.3916 47.98C68.2316 48.1 70.6916 48.16 74.7716 48.16H75.1316L75.4916 47.98H82.3316C82.4516 48.1 82.8116 48.16 83.4116 48.16H84.6716C85.6316 47.92 86.4716 47.92 87.1916 48.16H95.8316C96.4316 48.28 96.8516 48.4 97.0916 48.52C97.4516 48.52 97.6916 48.52 97.8116 48.52C98.6516 48.52 99.1916 48.94 99.4316 49.78C99.7916 50.5 99.9716 51.88 99.9716 53.92L99.7916 60.04C99.7916 60.76 99.7316 62.92 99.6116 66.52C99.6116 70.12 99.5516 74.2 99.4316 78.76C99.4316 83.32 99.4316 87.52 99.4316 91.36C99.3116 94 99.1916 96.76 99.0716 99.64C99.0716 102.52 99.0716 105.34 99.0716 108.1V111.16H110.232C114.432 111.16 116.532 117.28 116.532 129.52C116.532 130.48 116.412 131.26 116.172 131.86C116.172 133.18 116.112 134.62 115.992 136.18C115.992 137.62 115.932 138.76 115.812 139.6C115.812 140.68 115.752 141.34 115.632 141.58C115.512 141.82 115.092 142.06 114.372 142.3C113.652 142.42 112.872 142.54 112.032 142.66C111.312 142.66 110.592 142.66 109.872 142.66C109.392 142.78 108.972 142.9 108.612 143.02C108.252 143.02 107.952 143.02 107.712 143.02H104.112C102.192 143.02 100.872 143.02 100.152 143.02C99.5516 143.02 99.0716 143.08 98.7116 143.2L98.5316 146.08C98.4116 147.16 98.2916 148.24 98.1716 149.32C98.1716 150.28 98.1716 151.3 98.1716 152.38C98.1716 156.7 97.7516 159.52 96.9116 160.84C96.3116 161.44 95.3516 161.74 94.0316 161.74C94.1516 161.74 93.9716 161.62 93.4916 161.38C93.2516 161.38 93.0116 161.5 92.7716 161.74H92.2316C91.7516 161.74 91.4516 161.8 91.3316 161.92L87.7316 161.74H86.8316C86.5916 161.5 86.1716 161.38 85.5716 161.38C85.2116 161.38 84.8516 161.56 84.4916 161.92H74.5916L73.3316 162.1C72.3716 162.34 71.4116 162.58 70.4516 162.82C69.6116 163.06 68.7716 163.3 67.9316 163.54H66.1316ZM52.8116 111.16H59.8316V68.32C59.8316 67.48 59.6516 66.94 59.2916 66.7C58.9316 66.46 58.6316 66.7 58.3916 67.42V70.3C58.3916 71.5 57.9116 72.7 56.9516 73.9C56.1116 74.98 55.5716 75.88 55.3316 76.6L53.8916 80.38C53.7716 81.34 53.5316 82.6 53.1716 84.16C52.9316 85.6 52.7516 87.34 52.6316 89.38C51.7916 91.3 50.8916 93.46 49.9316 95.86C49.0916 98.26 47.9516 101.38 46.5116 105.22C46.0316 106.78 45.6116 108.04 45.2516 109C44.8916 109.84 44.6516 110.5 44.5316 110.98C47.5316 110.98 49.4516 110.98 50.2916 110.98C51.2516 110.98 52.0916 111.04 52.8116 111.16Z" fill="white"/>
<path d="M168.764 158.649C168.524 158.649 168.164 158.589 167.684 158.469C167.324 158.469 166.844 158.409 166.244 158.289L162.104 157.749L152.384 155.769C151.424 155.289 150.764 154.989 150.404 154.869C149.204 154.509 148.244 154.149 147.524 153.789C147.044 153.669 146.804 153.369 146.804 152.889C146.204 152.649 145.544 152.409 144.824 152.169C144.224 151.809 143.564 151.449 142.844 151.089C141.524 150.609 140.204 150.009 138.884 149.289L136.364 147.489C135.884 147.129 135.404 146.829 134.924 146.589C134.444 146.229 134.084 145.929 133.844 145.689C130.844 143.049 128.384 139.449 126.464 134.889C124.544 130.209 123.104 124.209 122.144 116.889C121.784 113.289 121.604 108.609 121.604 102.849C121.604 98.4091 121.724 94.6291 121.964 91.5091C122.204 88.3891 122.684 85.2691 123.404 82.1491C124.124 78.9091 125.144 75.1291 126.464 70.8091C126.944 70.4491 128.324 68.1091 130.604 63.7891C131.084 63.3091 131.444 62.6491 131.684 61.8091C131.804 61.5691 131.924 61.3291 132.044 61.0891C132.164 60.8491 132.344 60.5491 132.584 60.1891L133.304 59.1091C133.424 58.6291 133.724 58.3891 134.204 58.3891C135.164 58.3891 136.544 57.4891 138.344 55.6891C138.824 55.3291 139.244 54.9691 139.604 54.6091C140.084 54.2491 140.504 53.8891 140.864 53.5291C141.704 52.6891 142.484 52.0891 143.204 51.7291C146.684 49.6891 150.884 48.2491 155.804 47.4091C156.644 47.2891 157.724 47.1691 159.044 47.0491C160.484 46.8091 161.624 46.6891 162.464 46.6891C164.024 46.6891 165.344 46.6291 166.424 46.5091C167.504 46.3891 168.464 46.2691 169.304 46.1491C174.344 46.2691 178.664 46.5091 182.264 46.8691C185.984 47.2291 189.584 47.6491 193.064 48.1291C196.544 48.6091 200.504 49.3291 204.944 50.2891C205.304 50.2891 205.904 50.4691 206.744 50.8291C210.224 51.9091 213.224 53.1091 215.744 54.4291C217.184 55.1491 217.904 55.8691 217.904 56.5891V58.2091C220.784 58.2091 223.484 60.3091 226.004 64.5091C227.204 66.0691 228.164 67.8091 228.884 69.7291C229.724 71.6491 230.144 73.2691 230.144 74.5891C231.224 74.5891 231.824 74.6491 231.944 74.7691C232.184 74.8891 232.304 75.4291 232.304 76.3891C232.544 77.9491 232.844 79.3291 233.204 80.5291C233.564 81.6091 233.864 82.6291 234.104 83.5891C234.344 84.0691 234.524 84.5491 234.644 85.0291C234.764 85.5091 234.884 86.0491 235.004 86.6491C235.124 87.2491 235.244 87.9091 235.364 88.6291C235.604 89.2291 235.784 89.9491 235.904 90.7891L236.084 92.2291L236.444 98.8891V103.389C236.444 113.949 235.544 122.169 233.744 128.049C232.064 133.929 229.064 138.789 224.744 142.629C222.944 144.189 220.964 145.629 218.804 146.949L212.504 151.089C210.704 151.689 209.144 152.229 207.824 152.709C206.504 153.189 205.424 153.669 204.584 154.149L196.844 156.849C194.684 156.849 192.464 156.909 190.184 157.029C188.024 157.269 185.624 157.509 182.984 157.749C180.704 157.989 178.364 158.169 175.964 158.289C173.564 158.529 171.164 158.649 168.764 158.649ZM179.204 132.549C183.044 132.549 185.744 130.929 187.304 127.689C187.664 126.849 187.964 125.649 188.204 124.089C188.444 122.529 188.564 121.029 188.564 119.589L188.744 114.549C189.104 110.949 189.284 107.469 189.284 104.109C189.404 103.629 189.464 102.189 189.464 99.7891C189.464 95.9491 188.504 90.6091 186.584 83.7691L185.144 79.0891C184.664 74.5291 182.804 72.2491 179.564 72.2491C176.084 72.2491 173.684 74.1691 172.364 78.0091C171.644 79.8091 171.224 81.4891 171.104 83.0491C171.104 83.7691 170.924 85.3891 170.564 87.9091L169.304 96.7291C168.464 98.8891 168.044 101.829 168.044 105.549C168.044 110.229 168.464 114.009 169.304 116.889C169.424 118.569 169.964 120.429 170.924 122.469C171.284 123.429 171.584 124.269 171.824 124.989C172.064 125.709 172.244 126.309 172.364 126.789C172.484 127.989 173.564 129.189 175.604 130.389C177.284 131.829 178.484 132.549 179.204 132.549Z" fill="white"/>
<mask id="mask0_90_168" style="mask-type:alpha" maskUnits="userSpaceOnUse" x="121" y="45" width="116" height="114">
<path d="M168.764 158.32C168.524 158.32 168.164 158.26 167.684 158.14C167.324 158.14 166.844 158.08 166.244 157.96L162.104 157.42L152.384 155.44C151.424 154.96 150.764 154.66 150.404 154.54C149.204 154.18 148.244 153.82 147.524 153.46C147.044 153.34 146.804 153.04 146.804 152.56C146.204 152.32 145.544 152.08 144.824 151.84C144.224 151.48 143.564 151.12 142.844 150.76C141.524 150.28 140.204 149.68 138.884 148.96L136.364 147.16C135.884 146.8 135.404 146.5 134.924 146.26C134.444 145.9 134.084 145.6 133.844 145.36C130.844 142.72 128.384 139.12 126.464 134.56C124.544 129.88 123.104 123.88 122.144 116.56C121.784 112.96 121.604 108.28 121.604 102.52C121.604 98.08 121.724 94.3 121.964 91.18C122.204 88.06 122.684 84.94 123.404 81.82C124.124 78.58 125.144 74.8 126.464 70.48C126.944 70.12 128.324 67.78 130.604 63.46C131.084 62.98 131.444 62.32 131.684 61.48C131.804 61.24 131.924 61 132.044 60.76C132.164 60.52 132.344 60.22 132.584 59.86L133.304 58.78C133.424 58.3 133.724 58.06 134.204 58.06C135.164 58.06 136.544 57.16 138.344 55.36C138.824 55 139.244 54.64 139.604 54.28C140.084 53.92 140.504 53.56 140.864 53.2C141.704 52.36 142.484 51.76 143.204 51.4C146.684 49.36 150.884 47.92 155.804 47.08C156.644 46.96 157.724 46.84 159.044 46.72C160.484 46.48 161.624 46.36 162.464 46.36C164.024 46.36 165.344 46.3 166.424 46.18C167.504 46.06 168.464 45.94 169.304 45.82C174.344 45.94 178.664 46.18 182.264 46.54C185.984 46.9 189.584 47.32 193.064 47.8C196.544 48.28 200.504 49 204.944 49.96C205.304 49.96 205.904 50.14 206.744 50.5C210.224 51.58 213.224 52.78 215.744 54.1C217.184 54.82 217.904 55.54 217.904 56.26V57.88C220.784 57.88 223.484 59.98 226.004 64.18C227.204 65.74 228.164 67.48 228.884 69.4C229.724 71.32 230.144 72.94 230.144 74.26C231.224 74.26 231.824 74.32 231.944 74.44C232.184 74.56 232.304 75.1 232.304 76.06C232.544 77.62 232.844 79 233.204 80.2C233.564 81.28 233.864 82.3 234.104 83.26C234.344 83.74 234.524 84.22 234.644 84.7C234.764 85.18 234.884 85.72 235.004 86.32C235.124 86.92 235.244 87.58 235.364 88.3C235.604 88.9 235.784 89.62 235.904 90.46L236.084 91.9L236.444 98.56V103.06C236.444 113.62 235.544 121.84 233.744 127.72C232.064 133.6 229.064 138.46 224.744 142.3C222.944 143.86 220.964 145.3 218.804 146.62L212.504 150.76C210.704 151.36 209.144 151.9 207.824 152.38C206.504 152.86 205.424 153.34 204.584 153.82L196.844 156.52C194.684 156.52 192.464 156.58 190.184 156.7C188.024 156.94 185.624 157.18 182.984 157.42C180.704 157.66 178.364 157.84 175.964 157.96C173.564 158.2 171.164 158.32 168.764 158.32ZM179.204 132.22C183.044 132.22 185.744 130.6 187.304 127.36C187.664 126.52 187.964 125.32 188.204 123.76C188.444 122.2 188.564 120.7 188.564 119.26L188.744 114.22C189.104 110.62 189.284 107.14 189.284 103.78C189.404 103.3 189.464 101.86 189.464 99.46C189.464 95.62 188.504 90.28 186.584 83.44L185.144 78.76C184.664 74.2 182.804 71.92 179.564 71.92C176.084 71.92 173.684 73.84 172.364 77.68C171.644 79.48 171.224 81.16 171.104 82.72C171.104 83.44 170.924 85.06 170.564 87.58L169.304 96.4C168.464 98.56 168.044 101.5 168.044 105.22C168.044 109.9 168.464 113.68 169.304 116.56C169.424 118.24 169.964 120.1 170.924 122.14C171.284 123.1 171.584 123.94 171.824 124.66C172.064 125.38 172.244 125.98 172.364 126.46C172.484 127.66 173.564 128.86 175.604 130.06C177.284 131.5 178.484 132.22 179.204 132.22Z" fill="white"/>
</mask>
<g mask="url(#mask0_90_168)">
<path d="M125.591 77.0963C125.9 78.9507 125.868 79.0756 124.123 81.1744C122.029 83.7228 121.75 84.9951 123.103 85.889C124.241 86.6418 125.775 85.7139 128.262 82.6486L130.119 80.3808L129.794 77.9327C129.448 75.1306 128.653 73.7799 127.286 73.6044C125.933 73.4863 125.262 74.8877 125.591 77.0963Z" fill="#D70000"/>
<path d="M136.716 79.7347L136.565 81.8196L134.692 83.1059C132.306 84.7813 131.555 86.2268 132.569 87.0912C132.987 87.4646 133.681 87.7294 134.122 87.6811C135.156 87.5876 139.503 85.2665 139.972 84.5571C140.441 83.8476 140.964 78.0278 140.645 77.0403C140.517 76.6156 140.001 76.0806 139.494 75.8423C138.231 75.2011 136.931 77.0122 136.716 79.7347Z" fill="#D70000"/>
<path d="M140.323 93.7719C141.604 94.6188 142.513 94.6369 145.436 93.8506L148.048 93.1495L149.292 90.185C151.095 85.9879 151.099 85.7484 149.694 85.0131L148.523 84.3852L146.737 87.0879C145.039 89.6555 144.812 89.845 142.882 90.3657C140.226 91.1344 138.936 92.8544 140.323 93.7719Z" fill="#D70000"/>
<path d="M183.33 51.7344C183.535 52.7742 184.981 53.1084 186.78 52.5466C188.03 52.1863 189.305 52.2382 190.688 52.757C192.413 53.3888 192.859 53.3445 193.379 52.5581C194.133 51.4179 193.543 50.6891 190.633 49.33C189.012 48.541 188.266 48.4996 186.388 49.1793C184.147 49.9581 183.088 50.84 183.33 51.7344Z" fill="#D70000"/>
<path d="M144.825 103.593C145.229 104.297 145.852 104.515 148.19 104.847C149.78 105.072 151.823 105.307 152.745 105.382L154.424 105.473L156.342 102.031C158.491 98.1601 158.685 97.1713 157.546 96.4185C156.194 95.5245 155.449 95.9547 153.752 98.5223L152.166 100.921L148.803 100.98C145.138 101.032 143.858 101.885 144.825 103.593Z" fill="#D70000"/>
<path d="M187.244 61.8375C187.386 63.5134 189.05 63.4269 191.138 61.5297C192.103 60.6991 193.017 59.9471 193.261 59.9387C193.463 59.9028 194.852 60.1429 196.297 60.477C198.328 60.9157 199.235 60.8939 199.76 60.2802C200.799 59.1589 200.007 58.466 196.091 57.0072L192.533 55.7282L190.933 57.1571C187.641 60.0661 187.158 60.7071 187.244 61.8375Z" fill="#D70000"/>
<path d="M148.352 115.586C148.555 116.206 149.183 116.572 151.595 117.487C157.114 119.582 156.904 119.589 159.993 116.388C163.456 112.851 163.755 112.321 163.191 111.317C162.335 109.828 161.167 110.124 158.245 112.611L155.586 114.931L153.788 114.325C150.027 113.052 147.714 113.611 148.352 115.586Z" fill="#D70000"/>
<path d="M193.133 72.2852C193.126 73.4668 194.316 74.3669 195.405 74.0698C195.836 73.9589 196.843 73.1556 197.632 72.3215C199.617 70.1301 200.353 69.826 203.178 70.0548C204.536 70.1614 205.982 70.0441 206.34 69.7723C207.285 69.1537 206.961 67.7531 205.76 66.9591C204.642 66.2198 199.439 65.2667 198.283 65.5757C197.126 65.8847 193.115 71.1429 193.133 72.2852Z" fill="#D70000"/>
<path d="M149.523 127.042C149.887 127.574 151.47 128.814 153 129.826L155.811 131.685L158.61 130.622C161.904 129.353 163.167 128.294 162.826 126.952C162.729 126.403 162.494 125.907 162.352 125.813C161.925 125.531 159.853 125.957 158.208 126.666C156.563 127.375 156.176 127.265 153.383 125.224C151.577 123.933 150.295 123.862 149.468 125.112C148.977 125.856 148.967 126.335 149.523 127.042Z" fill="#D70000"/>
<path d="M147.91 136.365C148.149 137.397 149.677 139.184 151.789 141.018C153.279 142.245 153.315 142.269 155.935 141.476C157.437 141.061 158.966 140.373 159.363 140.004C161.397 138.242 159.739 136.806 156.415 137.424L154.076 137.868L151.813 136.032C150.003 134.593 149.375 134.227 148.881 134.434C147.971 134.804 147.685 135.391 147.91 136.365Z" fill="#D70000"/>
<path d="M199.071 86.438C199.21 87.0382 200.727 87.9846 201.624 88.0688C202.043 88.0638 203.352 86.8948 204.713 85.1956L207.057 82.2811L210.348 82.2535C212.95 82.2786 213.77 82.0293 214.316 81.2036C215.459 79.4736 213.601 78.4142 208.972 78.1231C205.116 77.8341 205.09 77.8734 203.449 79.7263C201.324 82.2203 198.906 85.877 199.071 86.438Z" fill="#D70000"/>
<path d="M146.946 147.184C147.847 148.605 148.767 149.844 148.98 149.986C149.407 150.268 154.093 150.064 154.828 149.725C155.528 149.363 155.767 148.306 155.282 147.646C155.065 147.357 153.943 147.198 152.767 147.197C150.58 147.256 150.544 147.233 149.443 145.728C148.825 144.883 147.878 143.917 147.345 143.564C146.562 143.046 146.294 143.064 145.825 143.773C145.334 144.517 145.511 145.022 146.946 147.184Z" fill="#D70000"/>
<path d="M143.468 151.052C143.506 152 144.51 153.343 145.863 154.237C147.393 155.249 150.479 155.299 151.105 154.353C151.708 153.441 151.085 152.835 149.127 152.317C148.165 152.07 146.714 151.402 145.931 150.884C144.472 149.92 143.461 149.98 143.468 151.052Z" fill="#D70000"/>
<path d="M207.432 97.5592C207.383 98.7135 208.961 99.9266 210.035 99.5629C210.44 99.4912 211.639 98.3067 212.647 97.052C214.44 94.7905 214.694 94.676 217.463 94.3592C220.703 93.9588 222.027 92.8564 221.087 91.2178C220.333 89.9281 217.773 89.4789 214.527 90.158C212.276 90.5913 211.918 90.8631 209.746 93.6084C208.307 95.4255 207.402 96.9744 207.432 97.5592Z" fill="#D70000"/>
<path d="M217.793 105.652C216.929 107.68 216.641 109.015 216.904 109.698C217.43 111.062 217.679 111.227 219.053 110.949C219.971 110.821 220.443 110.286 221.521 108.116C222.806 105.632 222.977 105.463 224.294 105.542C225.066 105.544 226.196 105.275 226.809 104.888C229.673 103.166 227.335 100.942 223.218 101.497C221.746 101.654 220.237 101.956 219.837 102.2C219.437 102.445 218.491 103.966 217.793 105.652Z" fill="#D70000"/>
<path d="M224.625 116.835C223.552 119.629 223.58 121.117 224.657 121.829C225.982 122.705 227.02 122.035 228.368 119.366C229.419 117.236 229.813 116.819 231.157 116.407C232.931 115.885 233.507 115.193 233.245 114.059C232.921 112.658 231.678 112.288 228.977 112.593C226.141 112.922 226.063 113.04 224.625 116.835Z" fill="#D70000"/>
<path d="M229.673 124.862C228.88 127.502 228.901 127.742 230.06 128.508C231.22 129.275 231.355 129.251 232.13 127.899C233.498 125.469 235.443 121.896 235.61 121.554C235.839 121.028 234.327 120.254 232.932 120.293C231.388 120.289 230.868 121.075 229.673 124.862Z" fill="#D70000"/>
</g>
<path d="M308.132 163.54C306.212 163.54 305.012 161.74 304.532 158.14C304.532 156.94 304.472 156.16 304.352 155.8C304.232 155.44 304.172 154.66 304.172 153.46C304.172 152.26 304.172 151.54 304.172 151.3C304.172 150.94 304.112 150.7 303.992 150.58L303.632 143.92H291.932C286.412 143.92 281.552 143.98 277.352 144.1C273.152 144.1 269.612 144.1 266.732 144.1C265.412 144.1 263.312 144.16 260.432 144.28C257.552 144.28 254.552 144.34 251.432 144.46C248.312 144.34 246.092 143.74 244.772 142.66C243.812 142.3 243.332 141.7 243.332 140.86V131.32C243.332 129.04 243.392 126.94 243.512 125.02C243.752 123.1 243.992 121.3 244.232 119.62C244.352 118.66 244.532 117.1 244.772 114.94C245.012 112.78 245.792 110.2 247.112 107.2L251.792 96.76L252.872 94.06C253.112 93.46 253.352 92.5 253.592 91.18C253.832 89.74 254.372 87.88 255.212 85.6L258.092 76.96L266.012 59.5C267.332 56.98 268.412 55 269.252 53.56C270.212 52.12 270.872 51.1 271.232 50.5C271.352 50.38 271.472 50.26 271.592 50.14C271.832 49.9 272.192 49.66 272.672 49.42C272.792 49.3 272.912 49.18 273.032 49.06C273.272 48.94 273.452 48.82 273.572 48.7L274.292 48.16H285.632C288.272 48.16 291.752 48.34 296.072 48.7C297.032 48.1 299.072 47.8 302.192 47.8C304.952 47.8 306.692 47.8 307.412 47.8C308.252 47.8 308.912 47.86 309.392 47.98C310.232 48.1 312.692 48.16 316.772 48.16H317.132L317.492 47.98H324.332C324.452 48.1 324.812 48.16 325.412 48.16H326.672C327.632 47.92 328.472 47.92 329.192 48.16H337.832C338.432 48.28 338.852 48.4 339.092 48.52C339.452 48.52 339.692 48.52 339.812 48.52C340.652 48.52 341.192 48.94 341.432 49.78C341.792 50.5 341.972 51.88 341.972 53.92L341.792 60.04C341.792 60.76 341.732 62.92 341.612 66.52C341.612 70.12 341.552 74.2 341.432 78.76C341.432 83.32 341.432 87.52 341.432 91.36C341.312 94 341.192 96.76 341.072 99.64C341.072 102.52 341.072 105.34 341.072 108.1V111.16H352.232C356.432 111.16 358.532 117.28 358.532 129.52C358.532 130.48 358.412 131.26 358.172 131.86C358.172 133.18 358.112 134.62 357.992 136.18C357.992 137.62 357.932 138.76 357.812 139.6C357.812 140.68 357.752 141.34 357.632 141.58C357.512 141.82 357.092 142.06 356.372 142.3C355.652 142.42 354.872 142.54 354.032 142.66C353.312 142.66 352.592 142.66 351.872 142.66C351.392 142.78 350.972 142.9 350.612 143.02C350.252 143.02 349.952 143.02 349.712 143.02H346.112C344.192 143.02 342.872 143.02 342.152 143.02C341.552 143.02 341.072 143.08 340.712 143.2L340.532 146.08C340.412 147.16 340.292 148.24 340.172 149.32C340.172 150.28 340.172 151.3 340.172 152.38C340.172 156.7 339.752 159.52 338.912 160.84C338.312 161.44 337.352 161.74 336.032 161.74C336.152 161.74 335.972 161.62 335.492 161.38C335.252 161.38 335.012 161.5 334.772 161.74H334.232C333.752 161.74 333.452 161.8 333.332 161.92L329.732 161.74H328.832C328.592 161.5 328.172 161.38 327.572 161.38C327.212 161.38 326.852 161.56 326.492 161.92H316.592L315.332 162.1C314.372 162.34 313.412 162.58 312.452 162.82C311.612 163.06 310.772 163.3 309.932 163.54H308.132ZM294.812 111.16H301.832V68.32C301.832 67.48 301.652 66.94 301.292 66.7C300.932 66.46 300.632 66.7 300.392 67.42V70.3C300.392 71.5 299.912 72.7 298.952 73.9C298.112 74.98 297.572 75.88 297.332 76.6L295.892 80.38C295.772 81.34 295.532 82.6 295.172 84.16C294.932 85.6 294.752 87.34 294.632 89.38C293.792 91.3 292.892 93.46 291.932 95.86C291.092 98.26 289.952 101.38 288.512 105.22C288.032 106.78 287.612 108.04 287.252 109C286.892 109.84 286.652 110.5 286.532 110.98C289.532 110.98 291.452 110.98 292.292 110.98C293.252 110.98 294.092 111.04 294.812 111.16Z" fill="white"/>
</svg>
