<svg width="20" height="18" viewBox="0 0 20 18" fill="none" xmlns="http://www.w3.org/2000/svg">
<path d="M2.22222 1.125C0.996528 1.125 0 2.13398 0 3.375V14.625C0 15.866 0.996528 16.875 2.22222 16.875H17.7778C19.0035 16.875 20 15.866 20 14.625V3.375C20 2.13398 19.0035 1.125 17.7778 1.125H2.22222ZM5 10.125H7.22222C8.75694 10.125 10 11.3836 10 12.9375C10 13.2469 9.75 13.5 9.44444 13.5H2.77778C2.47222 13.5 2.22222 13.2469 2.22222 12.9375C2.22222 11.3836 3.46528 10.125 5 10.125ZM3.88889 6.75C3.88889 6.15326 4.12302 5.58097 4.53976 5.15901C4.95651 4.73705 5.52174 4.5 6.11111 4.5C6.70048 4.5 7.26571 4.73705 7.68246 5.15901C8.09921 5.58097 8.33333 6.15326 8.33333 6.75C8.33333 7.34674 8.09921 7.91903 7.68246 8.34099C7.26571 8.76295 6.70048 9 6.11111 9C5.52174 9 4.95651 8.76295 4.53976 8.34099C4.12302 7.91903 3.88889 7.34674 3.88889 6.75ZM12.7778 5.625H17.2222C17.5278 5.625 17.7778 5.87812 17.7778 6.1875C17.7778 6.49688 17.5278 6.75 17.2222 6.75H12.7778C12.4722 6.75 12.2222 6.49688 12.2222 6.1875C12.2222 5.87812 12.4722 5.625 12.7778 5.625ZM12.7778 7.875H17.2222C17.5278 7.875 17.7778 8.12812 17.7778 8.4375C17.7778 8.74688 17.5278 9 17.2222 9H12.7778C12.4722 9 12.2222 8.74688 12.2222 8.4375C12.2222 8.12812 12.4722 7.875 12.7778 7.875ZM12.7778 10.125H17.2222C17.5278 10.125 17.7778 10.3781 17.7778 10.6875C17.7778 10.9969 17.5278 11.25 17.2222 11.25H12.7778C12.4722 11.25 12.2222 10.9969 12.2222 10.6875C12.2222 10.3781 12.4722 10.125 12.7778 10.125Z" fill="black"/>
</svg>
