<svg width="25" height="25" viewBox="0 0 25 25" fill="none" xmlns="http://www.w3.org/2000/svg">
<g clip-path="url(#clip0_66_1293)">
<path d="M12.5 25C15.8152 25 18.9946 23.683 21.3388 21.3388C23.683 18.9946 25 15.8152 25 12.5C25 9.18479 23.683 6.00537 21.3388 3.66117C18.9946 1.31696 15.8152 0 12.5 0C9.18479 0 6.00537 1.31696 3.66117 3.66117C1.31696 6.00537 0 9.18479 0 12.5C0 15.8152 1.31696 18.9946 3.66117 21.3388C6.00537 23.683 9.18479 25 12.5 25ZM18.4082 13.2324C18.8672 13.6914 18.8672 14.4336 18.4082 14.8877C17.9492 15.3418 17.207 15.3467 16.7529 14.8877L12.5049 10.6396L8.25684 14.8877C7.79785 15.3467 7.05566 15.3467 6.60156 14.8877C6.14746 14.4287 6.14258 13.6865 6.60156 13.2324L11.6699 8.1543C12.1289 7.69531 12.8711 7.69531 13.3252 8.1543L18.4082 13.2324Z" fill="#BBBBBB"/>
</g>
<defs>
<clipPath id="clip0_66_1293">
<rect width="25" height="25" fill="white"/>
</clipPath>
</defs>
</svg>
