<svg width="25" height="25" viewBox="0 0 25 25" fill="none" xmlns="http://www.w3.org/2000/svg">
<g clip-path="url(#clip0_66_1302)">
<path d="M12.5 0C9.18479 0 6.00537 1.31696 3.66117 3.66117C1.31696 6.00537 0 9.18479 0 12.5C0 15.8152 1.31696 18.9946 3.66117 21.3388C6.00537 23.683 9.18479 25 12.5 25C15.8152 25 18.9946 23.683 21.3388 21.3388C23.683 18.9946 25 15.8152 25 12.5C25 9.18479 23.683 6.00537 21.3388 3.66117C18.9946 1.31696 15.8152 0 12.5 0ZM6.5918 11.7676C6.13281 11.3086 6.13281 10.5664 6.5918 10.1123C7.05078 9.6582 7.79297 9.65332 8.24707 10.1123L12.4951 14.3604L16.7432 10.1123C17.2021 9.65332 17.9443 9.65332 18.3984 10.1123C18.8525 10.5713 18.8574 11.3135 18.3984 11.7676L13.3301 16.8457C12.8711 17.3047 12.1289 17.3047 11.6748 16.8457L6.5918 11.7676Z" fill="#BBBBBB"/>
</g>
<defs>
<clipPath id="clip0_66_1302">
<rect width="25" height="25" fill="white"/>
</clipPath>
</defs>
</svg>
