<svg width="55" height="55" viewBox="0 0 55 55" fill="none" xmlns="http://www.w3.org/2000/svg">
<g clip-path="url(#clip0_90_271)">
<path d="M19.4434 1.61133V3.22266L16.1992 3.24414L12.9443 3.27637L12.9121 4.85547L12.8799 6.43457L11.3008 6.4668L9.72168 6.49902L9.68945 8.07812L9.65723 9.65723L8.07812 9.68945L6.49902 9.72168L6.4668 11.3008L6.43457 12.8799L4.85547 12.9121L3.27637 12.9443L3.24414 16.1885L3.22266 19.4434H1.61133H0V27.5V35.5566H1.61133H3.22266L3.24414 38.8008L3.27637 42.0557L4.85547 42.0879L6.43457 42.1201L6.4668 43.6992L6.49902 45.2783L8.07812 45.3105L9.65723 45.3428L9.68945 46.9219L9.72168 48.501L11.3008 48.5332L12.8799 48.5654L12.9121 50.1445L12.9443 51.7236L16.1992 51.7559L19.4434 51.7773V53.3887V55H27.5H35.5566V53.3887V51.7773L38.8115 51.7559L42.0557 51.7236L42.0879 50.1445L42.1201 48.5654L43.6992 48.5332L45.2783 48.501L45.3105 46.9219L45.3428 45.3428L46.9219 45.3105L48.501 45.2783L48.5332 43.6992L48.5654 42.1201L50.1445 42.0879L51.7236 42.0557L51.7559 38.8008L51.7773 35.5566H53.3887H55V27.5V19.4434H53.3887H51.7773L51.7559 16.1885L51.7236 12.9443L50.1445 12.9121L48.5654 12.8799L48.5332 11.3008L48.501 9.72168L46.9219 9.68945L45.3428 9.65723L45.3105 8.07812L45.2783 6.49902L43.6992 6.4668L42.1201 6.43457L42.0879 4.85547L42.0557 3.27637L38.8115 3.24414L35.5566 3.22266V1.61133V0H27.5H19.4434V1.61133ZM29.1113 4.94141V6.55273H32.334H35.5566V8.16406V9.77539H38.7793H42.002V11.3867V12.998H43.6133H45.2246V16.2207V19.4434H46.8359H48.4473V21.001V22.5586H46.8359H45.2246V24.1699V25.7812H43.6133H42.002V27.4463V29.1113H40.3906H38.7793V30.7227V32.334H37.168H35.5566V35.6104V38.8867H37.168H38.7793V40.498V42.1094H40.3906H42.002V43.667V45.2246H38.7793H35.5566V46.8359V48.4473H33.9453H32.334V50.0586V51.6699H25.8887H19.4434V50.1123V48.5547H21.0547H22.666V46.9434V45.332H24.2773H25.8887V43.667V42.002H24.2773H22.666V40.3906V38.7793H21.0547H19.4434V37.168V35.5566H16.167H12.8906V37.168V38.7793H11.2793H9.66797V40.3906V42.002H8.11035H6.55273V38.7793V35.5566H4.94141H3.33008V27.5V19.4434H4.8877H6.44531V21.0547V22.666H12.9443H19.4434V21.0547V19.4434H21.0547H22.666V17.832V16.2207H24.2773H25.8887V12.9443V9.66797H24.2773H22.666V8.05664V6.44531H21.0547H19.4434V4.8877V3.33008H24.2773H29.1113V4.94141Z" fill="url(#paint0_linear_90_271)"/>
<path d="M35.5566 14.502V16.1133H33.9453H32.334V17.7783V19.4434H33.9453H35.5566V21.0547V22.666H37.2217H38.8867V21.0547V19.4434H40.498H42.1094V17.7783V16.1133H40.498H38.8867V14.502V12.8906H37.2217H35.5566V14.502Z" fill="url(#paint1_linear_90_271)"/>
<path d="M25.7812 24.1699V25.7812H24.1699H22.5586V27.5V29.2188H24.1699H25.7812V30.8301V32.4414H27.5H29.2188V30.8301V29.2188H30.8301H32.4414V27.5V25.7812H30.8301H29.2188V24.1699V22.5586H27.5H25.7812V24.1699Z" fill="url(#paint2_linear_90_271)"/>
</g>
<defs>
<linearGradient id="paint0_linear_90_271" x1="0" y1="27.5" x2="55" y2="27.5" gradientUnits="userSpaceOnUse">
<stop stop-color="#FFAA00"/>
<stop offset="1" stop-color="#11AD72"/>
</linearGradient>
<linearGradient id="paint1_linear_90_271" x1="32.334" y1="17.7783" x2="42.1094" y2="17.7783" gradientUnits="userSpaceOnUse">
<stop stop-color="#FFAA00"/>
<stop offset="1" stop-color="#11AD72"/>
</linearGradient>
<linearGradient id="paint2_linear_90_271" x1="22.5586" y1="27.5" x2="32.4414" y2="27.5" gradientUnits="userSpaceOnUse">
<stop stop-color="#FFAA00"/>
<stop offset="1" stop-color="#11AD72"/>
</linearGradient>
<clipPath id="clip0_90_271">
<rect width="55" height="55" fill="white"/>
</clipPath>
</defs>
</svg>
