<svg width="56" height="55" viewBox="0 0 56 55" fill="none" xmlns="http://www.w3.org/2000/svg">
<path d="M19.9434 1.61133V3.22266L16.6992 3.24414L13.4443 3.27637L13.4121 4.85547L13.3799 6.43457L11.8008 6.4668L10.2217 6.49902L10.1895 8.07812L10.1572 9.65723L8.57812 9.68945L6.99902 9.72168L6.9668 11.3008L6.93457 12.8799L5.35547 12.9121L3.77637 12.9443L3.74414 16.1885L3.72266 19.4434H2.11133H0.5V27.5V35.5566H2.11133H3.72266L3.74414 38.8008L3.77637 42.0557L5.35547 42.0879L6.93457 42.1201L6.9668 43.6992L6.99902 45.2783L8.57812 45.3105L10.1572 45.3428L10.1895 46.9219L10.2217 48.501L11.8008 48.5332L13.3799 48.5654L13.4121 50.1445L13.4443 51.7236L16.6992 51.7559L19.9434 51.7773V53.3887V55H28H36.0566V53.3887V51.7773L39.3115 51.7559L42.5557 51.7236L42.5879 50.1445L42.6201 48.5654L44.1992 48.5332L45.7783 48.501L45.8105 46.9219L45.8428 45.3428L47.4219 45.3105L49.001 45.2783L49.0332 43.6992L49.0654 42.1201L50.6445 42.0879L52.2236 42.0557L52.2559 38.8008L52.2773 35.5566H53.8887H55.5V27.5V19.4434H53.8887H52.2773L52.2559 16.1885L52.2236 12.9443L50.6445 12.9121L49.0654 12.8799L49.0332 11.3008L49.001 9.72168L47.4219 9.68945L45.8428 9.65723L45.8105 8.07812L45.7783 6.49902L44.1992 6.4668L42.6201 6.43457L42.5879 4.85547L42.5557 3.27637L39.3115 3.24414L36.0566 3.22266V1.61133V0H28H19.9434V1.61133ZM36.0566 4.83398V6.44531H39.333H42.6094V8.05664V9.66797H44.2207H45.832V11.2793V12.8906H47.4434H49.0547V16.167V19.4434H50.666H52.2773V22.666V25.8887H49.0547H45.832V27.5V29.1113H49.0547H52.2773V32.334V35.5566H50.666H49.0547V38.833V42.1094H47.4434H45.832V43.7207V45.332H44.2207H42.6094V46.9434V48.5547H39.333H36.0566V50.166V51.7773H28H19.9434V50.166V48.5547H16.667H13.3906V46.9434V45.332H11.7793H10.168V43.7207V42.1094H8.55664H6.94531V38.833V35.5566H5.33398H3.72266V27.5V19.4434H5.33398H6.94531V16.167V12.8906H8.55664H10.168V11.2793V9.66797H11.7793H13.3906V8.05664V6.44531H16.667H19.9434V4.83398V3.22266H28H36.0566V4.83398Z" fill="#FAFAFA"/>
<path d="M19.9434 8.05664V9.66797H21.5547H23.166V12.9443V16.2207H21.5547H19.9434V17.832V19.4434H13.4443H6.94531V21.0547V22.666H13.4443H19.9434V21.0547V19.4434H21.5547H23.166V17.832V16.2207H24.7773H26.3887V12.9443V9.66797H24.7773H23.166V8.05664V6.44531H21.5547H19.9434V8.05664Z" fill="#FAFAFA"/>
<path d="M36.1318 12.9658C36.0889 12.998 36.0566 13.75 36.0566 14.6309V16.2207H34.4453H32.834V17.832V19.4434H34.4453H36.0566V21.0547V22.666H37.668H39.2793V21.0547V19.4541L40.9229 19.4219L42.5557 19.3896L42.5879 17.8105L42.6201 16.2314L40.9766 16.1992L39.333 16.167L39.3008 14.5234L39.2686 12.8906H37.7324C36.8945 12.8906 36.1641 12.9229 36.1318 12.9658Z" fill="#FAFAFA"/>
<path d="M26.3887 24.2773V25.8887H24.7773H23.166V27.5V29.1113H24.7773H26.3887V30.7227V32.334H28H29.6113V30.7227V29.1113H31.2227H32.834V27.5V25.8887H31.2227H29.6113V24.2773V22.666H28H26.3887V24.2773ZM29.6113 27.5V29.1113H28H26.3887V27.5V25.8887H28H29.6113V27.5Z" fill="#FAFAFA"/>
<path d="M42.6094 30.7227V32.334H44.2207H45.832V30.7227V29.1113H44.2207H42.6094V30.7227Z" fill="#FAFAFA"/>
<path d="M39.3545 32.3983C39.3115 32.4413 39.2793 33.8915 39.2793 35.6317V38.7792H40.9443H42.6094V40.4442V42.12L44.1992 42.0878L45.7783 42.0555V40.4442V38.8329L44.1992 38.8007L42.6094 38.7684L42.5879 35.578L42.5557 32.3876L40.9873 32.3553C40.1279 32.3446 39.3975 32.3661 39.3545 32.3983Z" fill="#FAFAFA"/>
<path d="M13.4658 35.6317C13.4229 35.6639 13.3906 36.3944 13.3906 37.2323V38.7684L11.8115 38.8007L10.2217 38.8329V40.4442V42.0555L11.8115 42.0878L13.3906 42.12V40.4442V38.7792H16.667H19.9434V40.4442V42.12L21.5332 42.0878L23.1123 42.0555V40.4442V38.8329L21.5332 38.8007L19.9434 38.7684V37.1678V35.5565H16.7422C14.9805 35.5565 13.498 35.5887 13.4658 35.6317Z" fill="#FAFAFA"/>
<path d="M23.166 43.7207V45.332H21.5547H19.9434V46.9434V48.5547H21.5547H23.166V46.9434V45.332H24.7773H26.3887V43.7207V42.1094H24.7773H23.166V43.7207Z" fill="#FAFAFA"/>
</svg>
