<svg width="37" height="37" viewBox="0 0 37 37" fill="none" xmlns="http://www.w3.org/2000/svg">
<path d="M18.5 37C28.7173 37 37 28.7173 37 18.5C37 8.28273 28.7173 0 18.5 0C8.28273 0 0 8.28273 0 18.5C0 28.7173 8.28273 37 18.5 37Z" fill="#919191"/>
<path d="M32.6852 30.3666C29.5916 29.0048 27.7498 24.7159 27.7498 18.4999C27.7498 12.2839 29.5916 7.99499 32.6852 6.63318C32.2259 6.09032 31.7359 5.57421 31.2176 5.0874C28.1671 6.78837 25.6943 10.8717 25.6943 18.4999C25.6943 26.127 28.1671 30.2114 31.2176 31.9124C31.7335 31.4221 32.2289 30.9124 32.6852 30.3666ZM11.3054 18.4999C11.3054 10.8728 8.83256 6.78837 5.78212 5.08843C5.26353 5.57462 4.77349 6.0904 4.31445 6.63318C7.40806 7.99601 9.24984 12.2839 9.24984 18.4999C9.24984 24.7159 7.40806 29.0038 4.31445 30.3666C4.77181 30.9124 5.26618 31.4221 5.78212 31.9124C8.83154 30.2114 11.3054 26.127 11.3054 18.4999Z" fill="white"/>
<path d="M5.23341 10.4464C4.98983 10.4464 4.76372 10.4258 4.56433 10.3888C4.29638 10.3386 4.05933 10.1841 3.90532 9.95917C3.82907 9.8478 3.7755 9.72249 3.74767 9.59041C3.71984 9.45833 3.7183 9.32206 3.74313 9.18939C3.76797 9.05671 3.81869 8.93023 3.89241 8.81716C3.96612 8.70408 4.06139 8.60664 4.17277 8.53038C4.3977 8.37638 4.6746 8.31804 4.94255 8.36819C5.38449 8.44733 7.7083 8.37436 8.17799 6.02897C8.23156 5.7617 8.3891 5.52666 8.61596 5.37555C8.72829 5.30072 8.85426 5.24876 8.98667 5.22262C9.11908 5.19648 9.25535 5.19667 9.38769 5.22319C9.52003 5.24972 9.64584 5.30204 9.75796 5.37719C9.87007 5.45234 9.96629 5.54883 10.0411 5.66116C10.1159 5.77349 10.1679 5.89946 10.194 6.03187C10.2202 6.16428 10.22 6.30055 10.1935 6.43289C9.59427 9.42578 6.96727 10.4464 5.23341 10.4464ZM6.98063 14.5174C6.43591 14.5174 6.00219 14.1854 5.97547 13.6345C5.94874 13.0682 6.38658 12.6982 6.95391 12.6715C6.95391 12.6715 9.58913 12.6355 10.9304 10.3138C10.9984 10.1975 11.0887 10.0959 11.1962 10.0147C11.3036 9.93351 11.4261 9.8744 11.5565 9.84077C11.6869 9.80714 11.8227 9.79965 11.956 9.81874C12.0893 9.83783 12.2176 9.88312 12.3333 9.952C12.8246 10.2357 12.9931 10.8708 12.7084 11.3631C10.806 14.6582 6.99708 14.5174 6.98063 14.5174ZM9.24997 19.8176C8.49558 19.8176 7.79669 19.6789 7.26841 19.4291C7.02199 19.3125 6.83202 19.1027 6.74027 18.846C6.64852 18.5892 6.66252 18.3066 6.77919 18.0601C6.89585 17.8137 7.10563 17.6237 7.36237 17.532C7.6191 17.4403 7.90177 17.4542 8.14819 17.5709C9.00124 17.9748 11.1555 17.8166 11.9818 16.5308C12.0548 16.4172 12.1494 16.3191 12.2602 16.2421C12.3711 16.1651 12.496 16.1107 12.6279 16.082C12.7598 16.0532 12.8961 16.0508 13.0289 16.0747C13.1618 16.0986 13.2886 16.1485 13.4022 16.2214C13.5158 16.2944 13.6139 16.389 13.6909 16.4999C13.7679 16.6107 13.8223 16.7357 13.851 16.8676C13.8798 16.9995 13.8822 17.1357 13.8583 17.2686C13.8344 17.4014 13.7845 17.5283 13.7115 17.6418C12.7208 19.1845 10.8584 19.8176 9.24997 19.8176ZM10.4432 25.4961C8.84605 25.4961 7.36502 24.7777 6.40816 23.9791C6.30444 23.8927 6.21874 23.7868 6.15597 23.6673C6.0932 23.5478 6.05458 23.4171 6.04231 23.2826C6.03005 23.1482 6.04438 23.0127 6.08449 22.8838C6.12461 22.7549 6.18971 22.6352 6.27609 22.5315C6.36247 22.4278 6.46844 22.3421 6.58794 22.2793C6.70743 22.2165 6.83813 22.1779 6.97255 22.1656C7.10698 22.1534 7.2425 22.1677 7.37138 22.2078C7.50027 22.2479 7.61999 22.313 7.72372 22.3994C7.9231 22.5669 9.72994 24.0089 11.6108 23.2062C11.7351 23.1535 11.8685 23.1258 12.0036 23.1247C12.1386 23.1236 12.2725 23.149 12.3977 23.1997C12.5228 23.2503 12.6368 23.3251 12.7331 23.4198C12.8293 23.5144 12.906 23.6272 12.9587 23.7515C13.0114 23.8758 13.0391 24.0092 13.0402 24.1442C13.0414 24.2793 13.0159 24.4132 12.9652 24.5383C12.9146 24.6635 12.8398 24.7775 12.7452 24.8737C12.6505 24.97 12.5378 25.0467 12.4135 25.0994C11.7902 25.3632 11.12 25.4982 10.4432 25.4961ZM10.0208 30.8334H9.99202C7.41847 30.8334 5.18305 29.2197 4.3043 27.639C4.02783 27.1436 4.20769 26.566 4.70308 26.2906C5.19949 26.0141 5.82541 26.2186 6.10085 26.714C6.5983 27.6092 8.1523 28.9073 10.0485 28.9597C10.6159 28.9762 11.063 29.3585 11.0475 29.9248C11.0321 30.4819 10.5758 30.8334 10.0208 30.8334ZM27.9432 31.0266C27.791 31.0267 27.6407 30.993 27.5031 30.9279C27.3655 30.8628 27.2441 30.768 27.1477 30.6503C27.0512 30.5326 26.9821 30.3949 26.9453 30.2472C26.9085 30.0995 26.905 29.9455 26.9349 29.7963C27.6174 26.3821 30.9371 25.5311 32.5651 25.8404C32.8329 25.8908 33.0697 26.0454 33.2235 26.2703C33.3773 26.4952 33.4355 26.772 33.3853 27.0398C33.3611 27.1728 33.3108 27.2996 33.2372 27.413C33.1637 27.5264 33.0684 27.6241 32.9568 27.7003C32.8452 27.7766 32.7197 27.83 32.5873 27.8574C32.455 27.8848 32.3185 27.8857 32.1859 27.86C31.749 27.7778 29.4211 27.8528 28.9514 30.1992C28.9045 30.4322 28.7785 30.6419 28.5948 30.7926C28.4111 30.9434 28.1809 31.026 27.9432 31.0266ZM25.308 26.4016C25.1275 26.4017 24.9502 26.3543 24.7939 26.2641C24.6377 26.1739 24.5079 26.0441 24.4178 25.8877C24.3276 25.7314 24.2803 25.5541 24.2805 25.3737C24.2807 25.1932 24.3284 25.016 24.4189 24.8599C26.3224 21.5649 28.5136 21.4641 29.9628 21.3973L30.0769 21.3922C30.3492 21.3791 30.6155 21.4747 30.8173 21.658C31.0191 21.8413 31.1399 22.0973 31.1529 22.3696C31.166 22.6419 31.0704 22.9083 30.8871 23.1101C30.7038 23.3119 30.4478 23.4326 30.1755 23.4457L30.0573 23.4508C28.8199 23.5084 27.5403 23.5659 26.199 25.8877C26.1089 26.0442 25.9791 26.1742 25.8226 26.2644C25.6661 26.3546 25.4886 26.402 25.308 26.4016ZM24.2802 20.1702C24.0957 20.1702 23.9146 20.1205 23.756 20.0264C23.5973 19.9322 23.467 19.797 23.3786 19.6351C23.2903 19.4731 23.2472 19.2903 23.2539 19.106C23.2607 18.9216 23.3169 18.7425 23.4169 18.5874C24.8712 16.3232 28.2022 16.0169 29.859 16.8011C30.1039 16.9185 30.2924 17.1282 30.3833 17.3842C30.4741 17.6402 30.46 17.9217 30.3438 18.1673C30.2277 18.4129 30.0191 18.6025 29.7635 18.6947C29.508 18.7869 29.2264 18.7742 28.9802 18.6593C28.1282 18.2554 25.9729 18.4137 25.1445 19.6994C25.0516 19.8441 24.9236 19.9631 24.7726 20.0454C24.6215 20.1276 24.4522 20.1706 24.2802 20.1702ZM30.0614 14.0682C29.821 14.0684 29.5882 13.984 29.4037 13.8298C29.2043 13.6633 27.3974 12.2275 25.5176 13.023C25.2693 13.1163 24.9945 13.11 24.7506 13.0055C24.5068 12.901 24.3127 12.7063 24.209 12.4621C24.1053 12.2179 24.0999 11.9431 24.194 11.695C24.2881 11.447 24.4743 11.2448 24.7139 11.1309C26.9945 10.1627 29.3749 11.1298 30.7202 12.2511C30.8825 12.3864 30.9991 12.5684 31.0542 12.7723C31.1093 12.9763 31.1002 13.1922 31.0282 13.3908C30.9562 13.5894 30.8248 13.761 30.6518 13.8822C30.4788 14.0034 30.2727 14.0684 30.0614 14.0682ZM31.9258 10.0209C31.7424 10.0211 31.5623 9.97216 31.4042 9.87927C31.246 9.78638 31.1157 9.65287 31.0265 9.49258C30.5291 8.59636 28.9751 7.31061 27.0788 7.25819C26.5105 7.24278 26.0644 6.73814 26.0788 6.16978C26.0963 5.61272 26.5526 5.13892 27.1066 5.13892H27.1354C29.7099 5.13892 31.9454 6.87997 32.8231 8.46069C32.956 8.7016 32.9885 8.98518 32.9137 9.24993C32.8388 9.51468 32.6626 9.73925 32.4233 9.87492C32.2727 9.96527 32.1014 10.0155 31.9258 10.0209Z" fill="white"/>
</svg>
