<svg width="93" height="80" viewBox="0 0 93 80" fill="none" xmlns="http://www.w3.org/2000/svg">
<path fill-rule="evenodd" clip-rule="evenodd" d="M50.5263 0H42.1053H29.4737C13.1958 0 0 13.1958 0 29.4737V66.8576C0 74.1159 5.88407 80 13.1424 80C16.628 80 19.9708 78.6156 22.4355 76.1505L39.639 58.9474H52.9926L70.1962 76.1505C72.6608 78.6156 76.0034 80 79.4891 80C86.7475 80 92.6316 74.1159 92.6316 66.8576V29.4737C92.6316 13.1958 79.4358 0 63.1579 0H50.5263ZM84.2105 29.4737C84.2105 17.8466 74.7851 8.42105 63.1579 8.42105H29.4737C17.8466 8.42105 8.42105 17.8466 8.42105 29.4737V66.8576C8.42105 69.4653 10.5348 71.5789 13.1424 71.5789C14.3946 71.5789 15.5955 71.0816 16.4809 70.1962L36.1505 50.5263H56.4811L76.1505 70.1962C77.0364 71.0816 78.2372 71.5789 79.4891 71.5789C82.0968 71.5789 84.2105 69.4653 84.2105 66.8576V29.4737ZM16.8421 37.8947V29.4737H25.2632V21.0526H33.6842V29.4737H42.1053V37.8947H33.6842V46.3158H25.2632V37.8947H16.8421ZM63.1579 27.3684C63.1579 30.8564 60.3301 33.6842 56.8421 33.6842C53.3541 33.6842 50.5263 30.8564 50.5263 27.3684C50.5263 23.8804 53.3541 21.0526 56.8421 21.0526C60.3301 21.0526 63.1579 23.8804 63.1579 27.3684ZM69.4737 46.3158C72.9617 46.3158 75.7895 43.488 75.7895 40C75.7895 36.512 72.9617 33.6842 69.4737 33.6842C65.9857 33.6842 63.1579 36.512 63.1579 40C63.1579 43.488 65.9857 46.3158 69.4737 46.3158Z" fill="#FAFAFA"/>
</svg>
