<svg width="21" height="18" viewBox="0 0 21 18" fill="none" xmlns="http://www.w3.org/2000/svg">
<path fill-rule="evenodd" clip-rule="evenodd" d="M11.3684 0H9.47368H6.63158C2.96906 0 0 2.96905 0 6.63158V15.0429C0 16.6761 1.32392 18 2.95704 18C3.7413 18 4.49343 17.6885 5.04798 17.1339L8.91878 13.2632H11.9233L15.7941 17.1339C16.3487 17.6885 17.1008 18 17.8851 18C19.5182 18 20.8421 16.6761 20.8421 15.0429V6.63158C20.8421 2.96905 17.8731 0 14.2105 0H11.3684ZM18.9474 6.63158C18.9474 4.01549 16.8267 1.89474 14.2105 1.89474H6.63158C4.01549 1.89474 1.89474 4.01549 1.89474 6.63158V15.0429C1.89474 15.6297 2.37034 16.1053 2.95704 16.1053C3.23877 16.1053 3.50898 15.9933 3.7082 15.7941L8.13385 11.3684H12.7083L17.1339 15.7941C17.3332 15.9933 17.6034 16.1053 17.8851 16.1053C18.4718 16.1053 18.9474 15.6297 18.9474 15.0429V6.63158ZM3.78947 8.52632V6.63158H5.68421V4.73684H7.57895V6.63158H9.47368V8.52632H7.57895V10.4211H5.68421V8.52632H3.78947ZM14.2105 6.15789C14.2105 6.94269 13.5743 7.57895 12.7895 7.57895C12.0047 7.57895 11.3684 6.94269 11.3684 6.15789C11.3684 5.37309 12.0047 4.73684 12.7895 4.73684C13.5743 4.73684 14.2105 5.37309 14.2105 6.15789ZM15.6316 10.4211C16.4164 10.4211 17.0526 9.7848 17.0526 9C17.0526 8.2152 16.4164 7.57895 15.6316 7.57895C14.8468 7.57895 14.2105 8.2152 14.2105 9C14.2105 9.7848 14.8468 10.4211 15.6316 10.4211Z" fill="#0A0A0A"/>
</svg>
