<svg width="20" height="20" viewBox="0 0 20 20" fill="none" xmlns="http://www.w3.org/2000/svg">
<path d="M13.3334 10.7498V14.2498C13.3334 17.1665 12.1667 18.3332 9.25002 18.3332H5.75002C2.83335 18.3332 1.66669 17.1665 1.66669 14.2498V10.7498C1.66669 7.83317 2.83335 6.6665 5.75002 6.6665H9.25002C12.1667 6.6665 13.3334 7.83317 13.3334 10.7498Z" fill="#292D32"/>
<path d="M14.25 1.6665H10.75C8.24654 1.6665 7.0384 2.53215 6.74594 4.61558C6.66852 5.16709 7.12998 5.62484 7.68689 5.62484H9.24999C12.75 5.62484 14.375 7.24984 14.375 10.7498V12.3129C14.375 12.8698 14.8327 13.3313 15.3842 13.2539C17.4677 12.9614 18.3333 11.7533 18.3333 9.24984V5.74984C18.3333 2.83317 17.1667 1.6665 14.25 1.6665Z" fill="#292D32"/>
</svg>
