<svg width="20" height="20" viewBox="0 0 20 20" fill="none" xmlns="http://www.w3.org/2000/svg">
<circle cx="10" cy="10" r="10" fill="white"/>
<g clip-path="url(#clip0_398_192)">
<path d="M8.5558 4.12633C8.72991 3.95524 9 3.95758 9.17411 4.12867C9.79018 4.73571 10.3683 5.38961 10.9085 6.09742C11.154 5.75992 11.433 5.39196 11.7344 5.09196C11.9107 4.91852 12.183 4.91852 12.3594 5.0943C13.1317 5.86774 13.7857 6.88961 14.2455 7.85992C14.6987 8.81617 15 9.79352 15 10.4826C15 13.4732 12.7723 15.9998 10 15.9998C7.19643 15.9998 5 13.4709 5 10.4802C5 9.58024 5.39732 8.48102 6.01339 7.39352C6.63616 6.28961 7.51563 5.13883 8.5558 4.12633ZM10.0379 13.7498C10.6027 13.7498 11.1027 13.5857 11.5737 13.2576C12.5134 12.5685 12.7656 11.1904 12.2009 10.1076C12.1004 9.89664 11.8438 9.88258 11.6987 10.0607L11.1362 10.7474C10.9888 10.9255 10.7232 10.9209 10.5848 10.7357C10.2165 10.2435 9.55804 9.36461 9.18304 8.86539C9.04241 8.67789 8.77455 8.67555 8.6317 8.86305C7.87723 9.85914 7.49777 10.4873 7.49777 11.1927C7.5 12.7982 8.62946 13.7498 10.0379 13.7498Z" fill="#3498D0"/>
</g>
<defs>
<clipPath id="clip0_398_192">
<rect width="10" height="12" fill="white" transform="translate(5 4)"/>
</clipPath>
</defs>
</svg>
