<svg width="20" height="20" viewBox="0 0 20 20" fill="none" xmlns="http://www.w3.org/2000/svg">
<g clip-path="url(#clip0_348_197)">
<circle cx="10" cy="10" r="10" fill="#3498D0"/>
<g clip-path="url(#clip1_348_197)">
<path d="M8.5558 4.12642C8.72991 3.95533 9 3.95767 9.17411 4.12877C9.79018 4.7358 10.3683 5.3897 10.9085 6.09752C11.154 5.76002 11.433 5.39205 11.7344 5.09205C11.9107 4.91861 12.183 4.91861 12.3594 5.09439C13.1317 5.86783 13.7857 6.8897 14.2455 7.86002C14.6987 8.81627 15 9.79361 15 10.4827C15 13.4733 12.7723 15.9999 10 15.9999C7.19643 15.9999 5 13.471 5 10.4803C5 9.58033 5.39732 8.48111 6.01339 7.39361C6.63616 6.2897 7.51563 5.13892 8.5558 4.12642ZM10.0379 13.7499C10.6027 13.7499 11.1027 13.5858 11.5737 13.2577C12.5134 12.5686 12.7656 11.1905 12.2009 10.1077C12.1004 9.89673 11.8438 9.88267 11.6987 10.0608L11.1362 10.7475C10.9888 10.9256 10.7232 10.921 10.5848 10.7358C10.2165 10.2436 9.55804 9.3647 9.18304 8.86548C9.04241 8.67798 8.77455 8.67564 8.6317 8.86314C7.87723 9.85923 7.49777 10.4874 7.49777 11.1928C7.5 12.7983 8.62946 13.7499 10.0379 13.7499Z" fill="white"/>
</g>
</g>
<defs>
<clipPath id="clip0_348_197">
<rect width="20" height="20" fill="white"/>
</clipPath>
<clipPath id="clip1_348_197">
<rect width="10" height="12" fill="white" transform="translate(5 4)"/>
</clipPath>
</defs>
</svg>
