<svg width="24" height="24" viewBox="0 0 24 24" fill="none" xmlns="http://www.w3.org/2000/svg">
<g clip-path="url(#clip0_371_280)">
<path d="M16.1156 18.0422C16.8188 17.7891 17.6016 17.8969 18.2063 18.3422C18.5906 18.6234 19.2516 19.0359 20.0531 19.4062C19.7906 18.7172 19.5891 17.9391 19.5234 17.0906C19.4766 16.4859 19.6781 15.8859 20.0766 15.4266C21.1688 14.1938 21.75 12.75 21.75 11.25C21.75 7.52344 17.8453 3.75 12 3.75C6.15469 3.75 2.25 7.52344 2.25 11.25C2.25 14.9766 6.15469 18.75 12 18.75C13.4812 18.75 14.8734 18.4922 16.1156 18.0422ZM22.7672 19.8656C22.8422 19.9922 22.9219 20.1187 23.0062 20.2453L23.0203 20.2687C23.0953 20.3766 23.1703 20.4844 23.2453 20.5922C23.4094 20.8125 23.5875 21.0281 23.775 21.225C23.9906 21.4406 24.0516 21.7594 23.9344 22.0406C23.8172 22.3219 23.5453 22.5047 23.2406 22.5047C23.0016 22.5047 22.7625 22.4906 22.5234 22.4672L22.4906 22.4625C22.2844 22.4391 22.0781 22.4109 21.8719 22.3734C21.8344 22.3687 21.7969 22.3594 21.7594 22.35C20.925 22.1859 20.1234 21.9047 19.4109 21.5953C18.3375 21.1266 17.4234 20.5688 16.8656 20.1609C15.375 20.7 13.725 21 11.9859 21C5.35781 21 -0.014061 16.6359 -0.014061 11.25C-0.014061 5.86406 5.37188 1.5 12 1.5C18.6281 1.5 24 5.86406 24 11.25C24 13.3641 23.1703 15.3187 21.7641 16.9172C21.8531 18.0656 22.2984 19.0875 22.7672 19.8656ZM17.25 12.75C16.8522 12.75 16.4706 12.592 16.1893 12.3107C15.908 12.0294 15.75 11.6478 15.75 11.25C15.75 10.8522 15.908 10.4706 16.1893 10.1893C16.4706 9.90804 16.8522 9.75 17.25 9.75C17.6478 9.75 18.0294 9.90804 18.3107 10.1893C18.592 10.4706 18.75 10.8522 18.75 11.25C18.75 11.6478 18.592 12.0294 18.3107 12.3107C18.0294 12.592 17.6478 12.75 17.25 12.75ZM10.5 11.25C10.5 10.8522 10.658 10.4706 10.9393 10.1893C11.2206 9.90804 11.6022 9.75 12 9.75C12.3978 9.75 12.7794 9.90804 13.0607 10.1893C13.342 10.4706 13.5 10.8522 13.5 11.25C13.5 11.6478 13.342 12.0294 13.0607 12.3107C12.7794 12.592 12.3978 12.75 12 12.75C11.6022 12.75 11.2206 12.592 10.9393 12.3107C10.658 12.0294 10.5 11.6478 10.5 11.25ZM6.75 12.75C6.35217 12.75 5.97065 12.592 5.68934 12.3107C5.40804 12.0294 5.25 11.6478 5.25 11.25C5.25 10.8522 5.40804 10.4706 5.68934 10.1893C5.97065 9.90804 6.35217 9.75 6.75 9.75C7.14783 9.75 7.52935 9.90804 7.81066 10.1893C8.09196 10.4706 8.25 10.8522 8.25 11.25C8.25 11.6478 8.09196 12.0294 7.81066 12.3107C7.52935 12.592 7.14783 12.75 6.75 12.75Z" fill="black"/>
</g>
<defs>
<clipPath id="clip0_371_280">
<rect width="24" height="24" fill="white" transform="matrix(-1 0 0 1 24 0)"/>
</clipPath>
</defs>
</svg>
