<svg width="25" height="25" viewBox="0 0 25 25" fill="none" xmlns="http://www.w3.org/2000/svg">
<g clip-path="url(#clip0_66_1181)">
<path d="M12.5 25C15.8152 25 18.9946 23.683 21.3388 21.3388C23.683 18.9946 25 15.8152 25 12.5C25 9.18479 23.683 6.00537 21.3388 3.66117C18.9946 1.31696 15.8152 0 12.5 0C9.18479 0 6.00537 1.31696 3.66117 3.66117C1.31696 6.00537 0 9.18479 0 12.5C0 15.8152 1.31696 18.9946 3.66117 21.3388C6.00537 23.683 9.18479 25 12.5 25ZM18.0176 10.2051L11.7676 16.4551C11.3086 16.9141 10.5664 16.9141 10.1123 16.4551L6.98731 13.3301C6.52832 12.8711 6.52832 12.1289 6.98731 11.6748C7.44629 11.2207 8.18848 11.2158 8.64258 11.6748L10.9375 13.9697L16.3574 8.54492C16.8164 8.08594 17.5586 8.08594 18.0127 8.54492C18.4668 9.00391 18.4717 9.74609 18.0127 10.2002L18.0176 10.2051Z" fill="#F43630"/>
</g>
<defs>
<clipPath id="clip0_66_1181">
<rect width="25" height="25" fill="white"/>
</clipPath>
</defs>
</svg>
