<svg width="25" height="25" viewBox="0 0 25 25" fill="none" xmlns="http://www.w3.org/2000/svg">
<g clip-path="url(#clip0_720_179)">
<path d="M22.6562 12.5C22.6562 9.80639 21.5862 7.22311 19.6816 5.31845C17.7769 3.41378 15.1936 2.34375 12.5 2.34375C9.80639 2.34375 7.22311 3.41378 5.31845 5.31845C3.41378 7.22311 2.34375 9.80639 2.34375 12.5C2.34375 15.1936 3.41378 17.7769 5.31845 19.6816C7.22311 21.5862 9.80639 22.6562 12.5 22.6562C15.1936 22.6562 17.7769 21.5862 19.6816 19.6816C21.5862 17.7769 22.6562 15.1936 22.6562 12.5ZM0 12.5C0 9.18479 1.31696 6.00537 3.66117 3.66117C6.00537 1.31696 9.18479 0 12.5 0C15.8152 0 18.9946 1.31696 21.3388 3.66117C23.683 6.00537 25 9.18479 25 12.5C25 15.8152 23.683 18.9946 21.3388 21.3388C18.9946 23.683 15.8152 25 12.5 25C9.18479 25 6.00537 23.683 3.66117 21.3388C1.31696 18.9946 0 15.8152 0 12.5Z" fill="#F43630"/>
<g clip-path="url(#clip1_720_179)">
<path d="M12.5 19C14.2239 19 15.8772 18.3152 17.0962 17.0962C18.3152 15.8772 19 14.2239 19 12.5C19 10.7761 18.3152 9.12279 17.0962 7.90381C15.8772 6.68482 14.2239 6 12.5 6C10.7761 6 9.12279 6.68482 7.90381 7.90381C6.68482 9.12279 6 10.7761 6 12.5C6 14.2239 6.68482 15.8772 7.90381 17.0962C9.12279 18.3152 10.7761 19 12.5 19Z" fill="#F43630"/>
</g>
</g>
<defs>
<clipPath id="clip0_720_179">
<rect width="25" height="25" fill="white"/>
</clipPath>
<clipPath id="clip1_720_179">
<rect width="13" height="13" fill="white" transform="translate(6 6)"/>
</clipPath>
</defs>
</svg>
