<svg width="20" height="20" viewBox="0 0 20 20" fill="none" xmlns="http://www.w3.org/2000/svg">
<circle cx="10" cy="10" r="10" fill="#F43630"/>
<g clip-path="url(#clip0_398_193)">
<path d="M10.7025 4.42188C10.5737 4.16406 10.3015 4 10.0025 4C9.70356 4 9.43377 4.16406 9.30252 4.42188L7.73967 7.52266L4.2494 8.01953C3.95773 8.06172 3.71467 8.25859 3.62474 8.52813C3.53481 8.79766 3.60773 9.09531 3.81676 9.29453L6.3494 11.7109L5.75148 15.1258C5.70287 15.407 5.8244 15.693 6.06502 15.8594C6.30565 16.0258 6.62405 16.0469 6.88655 15.9133L10.005 14.3078L13.1234 15.9133C13.3859 16.0469 13.7043 16.0281 13.9449 15.8594C14.1855 15.6906 14.307 15.407 14.2584 15.1258L13.6581 11.7109L16.1907 9.29453C16.3997 9.09531 16.4751 8.79766 16.3827 8.52813C16.2904 8.25859 16.0497 8.06172 15.7581 8.01953L12.2654 7.52266L10.7025 4.42188Z" fill="white"/>
</g>
<defs>
<clipPath id="clip0_398_193">
<rect width="14" height="12" fill="white" transform="translate(3 4)"/>
</clipPath>
</defs>
</svg>
