<svg width="28" height="28" viewBox="0 0 28 28" fill="none" xmlns="http://www.w3.org/2000/svg">
<path d="M3.99669 21.9984V24.0007H5.99643V26.0004H7.99645H9.99619V28.0004H11.9985H13.9985H15.9982H17.9982H19.998V26.0004H22.0002H24.0003V24.0007H26V21.9984V19.9984H28V17.9986V15.9986V13.9989V11.9989V9.99659H26V7.99685V5.99683H24.0003V3.99709H22.0002H19.998V1.99707H17.9982H15.9982H13.9985H11.9985H9.99619V3.99709H7.99645H5.99643V5.99683H3.99669V7.99685V9.99659H1.99695V11.9989V13.9989V15.9986V17.9986V19.9984H3.99669V21.9984Z" fill="#CFD1D2"/>
<path d="M24.003 7.99952V5.99978V3.99976H22.0033V2.00002H20.0033H18.001V0H16.0013H14.0013H12.0015H10.0015H7.99924V2.00002H5.9995H3.99948V3.99976H1.99974V5.99978V7.99952H0V10.0018V12.0018V14.0015V16.0016V18.0013H1.99974V20.0013V22.0036H3.99948V24.0033H5.9995H7.99924V26.0034H10.0015H12.0015H14.0013H16.0013H18.001V24.0033H20.0033H22.0033V22.0036H24.003V20.0013V18.0013H26.0031V16.0016V14.0015V12.0018V10.0018V7.99952H24.003Z" fill="#2E2C2B"/>
<path d="M22.0033 12.002V14.0017V16.0017V18.0015H24.003V16.0017V14.0017V12.002H22.0033Z" fill="#E18917"/>
<path d="M20.0033 20.0015H18.001V22.0037H20.0033H22.0033V20.0015V18.0015H20.0033V20.0015Z" fill="#E18917"/>
<path d="M14.0013 22.0037V24.0034H16.0013H18.001V22.0037H16.0013H14.0013Z" fill="#E18917"/>
<path d="M7.99927 22.0037V24.0034H10.0015H12.0016V22.0037H10.0015H7.99927Z" fill="#E18917"/>
<path d="M20.0033 10.0017V12.0017H18.001H16.0013V14.0015H18.001H20.0033V16.0015H22.0033V14.0015V12.0017V10.0017H20.0033Z" fill="#B2640F"/>
<path d="M20.0033 16.0015H18.001V18.0012H20.0033V16.0015Z" fill="#B2640F"/>
<path d="M20.0033 7.99951H18.001V10.0018H20.0033V7.99951Z" fill="#B2640F"/>
<path d="M18.001 18.0012H16.0013V20.001H18.001V18.0012Z" fill="#B2640F"/>
<path d="M18.001 5.99976H16.0013V7.9995H18.001V5.99976Z" fill="#B2640F"/>
<path d="M14.0013 18.0012V16.0015H12.0015V18.0012V20.0012H10.0015V22.0035H12.0015H14.0013H16.0013V20.0012H14.0013V18.0012Z" fill="#B2640F"/>
<path d="M12.0015 7.99952V10.0018H14.0013V7.99952V5.99978H16.0013V3.99976H14.0013H12.0015H10.0015V5.99978H12.0015V7.99952Z" fill="#B2640F"/>
<path d="M10.0015 18.0012H7.99927V20.001H10.0015V18.0012Z" fill="#B2640F"/>
<path d="M10.0015 5.99976H7.99927V7.9995H10.0015V5.99976Z" fill="#B2640F"/>
<path d="M7.99925 16.0015H5.99951V18.0012H7.99925V16.0015Z" fill="#B2640F"/>
<path d="M7.99921 14.0015H10.0015V12.0017H7.99921H5.99947V10.0017H3.99945V12.0017V14.0015V16.0015H5.99947V14.0015H7.99921Z" fill="#B2640F"/>
<path d="M7.99925 7.99951H5.99951V10.0018H7.99925V7.99951Z" fill="#B2640F"/>
<path d="M22.0033 7.99952V5.99978V3.99976H20.0033H18.001H16.0013V5.99978H18.001V7.99952H20.0033V10.0018H22.0033V12.0018H24.003V10.0018V7.99952H22.0033Z" fill="#EFA63B"/>
<path d="M22.003 16.0015H20.0032V18.0012H22.003V16.0015Z" fill="#EFA63B"/>
<path d="M20.0033 18.0012H18.001V20.001H20.0033V18.0012Z" fill="#EFA63B"/>
<path d="M18.001 20.0015H16.0013V22.0037H18.001V20.0015Z" fill="#EFA63B"/>
<path d="M16.0013 10.0018V7.99951H14.0013V10.0018H12.0015V7.99951H10.0015V10.0018H7.99925V12.0018H10.0015V14.0015H7.99925H5.99951V16.0016H7.99925V18.0013H10.0015V20.0013H12.0015V18.0013V16.0016H14.0013V18.0013V20.0013H16.0013V18.0013H18.001V16.0016H20.0033V14.0015H18.001H16.0013V12.0018H18.001H20.0033V10.0018H18.001H16.0013Z" fill="#EFA63B"/>
<path d="M16.001 2H14.0013V3.99974H16.001V2Z" fill="#EFA63B"/>
<path d="M14.0013 22.0034H12.0015V24.0032H14.0013V22.0034Z" fill="#EFA63B"/>
<path d="M10.0015 3.99976H7.99927V5.9995H10.0015V3.99976Z" fill="#EFA63B"/>
<path d="M7.99921 18.0012H5.99947V16.0015H3.99945V18.0012V20.0012V22.0035H5.99947H7.99921H10.0015V20.0012H7.99921V18.0012Z" fill="#EFA63B"/>
<path d="M7.99925 5.99976H5.99951V7.9995H7.99925V5.99976Z" fill="#EFA63B"/>
<path d="M5.99919 7.99951H3.99945V10.0018H5.99919V7.99951Z" fill="#EFA63B"/>
<path d="M3.99949 12.002H1.99976V14.0017H3.99949V12.002Z" fill="#EFA63B"/>
<path d="M18.001 7.99951H16.0013V10.0018H18.001V7.99951Z" fill="#FEE382"/>
<path d="M18.001 2H16.0013V3.99974H18.001V2Z" fill="#FEE382"/>
<path d="M16.001 5.99976H14.0013V7.9995H16.001V5.99976Z" fill="#FEE382"/>
<path d="M14.0013 2H12.0015H10.0015H7.99927V3.99974H10.0015H12.0015H14.0013V2Z" fill="#FEE382"/>
<path d="M12.0012 5.99976H10.0015V7.9995H12.0012V5.99976Z" fill="#FEE382"/>
<path d="M10.0015 7.99951H7.99927V10.0018H10.0015V7.99951Z" fill="#FEE382"/>
<path d="M7.99925 10.0017H5.99951V12.0014H7.99925V10.0017Z" fill="#FEE382"/>
<path d="M3.99945 3.99976V5.99978V7.99952H5.99947V5.99978H7.99921V3.99976H5.99947H3.99945Z" fill="#FEE382"/>
<path d="M1.99976 16.0017V18.0015H3.99949V16.0017V14.0017H1.99976V16.0017Z" fill="#FEE382"/>
<path d="M1.99976 10.0018V12.0018H3.99949V10.0018V7.99951H1.99976V10.0018Z" fill="#FEE382"/>
<path d="M24.0031 7.99951V10.0018V12.0018V14.0015V16.0016V18.0013H26.0031V16.0016V14.0015V12.0018V10.0018V7.99951H24.0031Z" fill="#2E2C2B"/>
<path d="M22.0033 20.0012V22.0035H24.003V20.0012V18.0012H22.0033V20.0012Z" fill="#2E2C2B"/>
<path d="M22.0033 7.99952H24.003V5.99978V3.99976H22.0033V5.99978V7.99952Z" fill="#2E2C2B"/>
<path d="M18.001 22.0034V24.0032H20.0033H22.0033V22.0034H20.0033H18.001Z" fill="#2E2C2B"/>
<path d="M20.0033 3.99974H22.0033V2H20.0033H18.001V3.99974H20.0033Z" fill="#2E2C2B"/>
<path d="M14.0013 24.0032H12.0015H10.0015H7.99927V26.0032H10.0015H12.0015H14.0013H16.0013H18.001V24.0032H16.0013H14.0013Z" fill="#2E2C2B"/>
<path d="M12.0015 2.00002H14.0013H16.0013H18.001V0H16.0013H14.0013H12.0015H10.0015H7.99927V2.00002H10.0015H12.0015Z" fill="#2E2C2B"/>
<path d="M5.99947 22.0034H3.99945V24.0032H5.99947H7.99921V22.0034H5.99947Z" fill="#2E2C2B"/>
<path d="M7.99921 3.99974V2H5.99947H3.99945V3.99974H5.99947H7.99921Z" fill="#2E2C2B"/>
<path d="M3.99949 18.0012H1.99976V20.0012V22.0035H3.99949V20.0012V18.0012Z" fill="#2E2C2B"/>
<path d="M3.99949 5.99978V3.99976H1.99976V5.99978V7.99952H3.99949V5.99978Z" fill="#2E2C2B"/>
<path d="M1.99974 14.0015V12.0018V10.0018V7.99951H0V10.0018V12.0018V14.0015V16.0016V18.0013H1.99974V16.0016V14.0015Z" fill="#2E2C2B"/>
</svg>
