<svg width="150" height="150" viewBox="0 0 150 150" fill="none" xmlns="http://www.w3.org/2000/svg">
<rect x="0.5" y="0.5" width="149" height="149" rx="9.5" fill="#FAFAFA"/>
<rect x="0.5" y="0.5" width="149" height="149" rx="9.5" stroke="#EEEEEE"/>
<g clip-path="url(#clip0_478_152)">
<path d="M109.049 92.0359L95.6431 106.382C95.6431 106.382 99.9181 111.517 106.745 111.208C111.442 110.995 114.259 109.244 116.566 106.595C119.383 103.359 120.018 98.6102 119.854 96.4328C119.641 93.6156 117.719 89.943 116.224 88.832C114.728 87.7211 109.049 92.0359 109.049 92.0359Z" fill="#D7CCC6" fill-opacity="0.9"/>
<path d="M96.8805 87.468C92.4368 91.4219 89.5001 100.398 95.643 106.382C98.9313 109.584 109.689 109.745 114.813 103.042C117.22 99.8945 119.151 94.9703 117.845 91.0539C117.332 89.5164 115.954 88.4125 114.728 87.3813C108.836 82.4289 102.304 82.6422 96.8805 87.468Z" fill="#F1EDEC" fill-opacity="0.9"/>
<path d="M107.329 111.646L106.417 111.571C106.436 111.484 108.335 102.953 102.785 97.3609C100.319 94.8765 98.0479 93.7281 96.0322 93.9508C93.9322 94.1805 92.5354 96.1258 92.526 96.1445L92.0947 95.2703C92.1486 95.1859 93.3861 93.2992 95.9314 93.0203C98.2471 92.7695 100.776 94.007 103.453 96.7023C109.368 102.667 107.413 111.276 107.329 111.646Z" fill="#979892" fill-opacity="0.9"/>
<path d="M119.594 96.8148C119.53 96.7727 113.369 92.4109 110.188 89.6969C107.329 87.2594 103.539 83.8539 103.504 83.8188L104.163 83.4062C104.198 83.4391 107.847 86.6758 110.697 89.1062C113.849 91.7945 119.758 96.0297 119.821 96.0719L119.594 96.8148Z" fill="#979892" fill-opacity="0.9"/>
<path d="M107.019 86.3711C106.902 86.4953 106.6 87.4 106.483 87.9039C106.415 88.1922 106.457 88.6398 106.818 88.6984C107.221 88.7664 107.373 88.5344 107.497 88.1898C107.622 87.8453 107.842 87.2219 107.842 87.2219C107.842 87.2219 108.484 87.0086 108.801 86.9148C109.222 86.7906 109.347 86.6172 109.356 86.3969C109.365 86.1766 109.136 85.7641 108.426 85.9281C107.987 86.0312 107.19 86.1883 107.019 86.3711Z" fill="#ED520A" fill-opacity="0.9"/>
<path d="M104.947 84.6227C104.847 84.7047 104.364 85.8789 104.287 86.0266C104.207 86.1742 104.158 86.5516 104.434 86.7109C104.711 86.8703 105.013 86.5961 105.119 86.3617C105.222 86.1273 105.524 85.4313 105.524 85.4313C105.524 85.4313 106.262 85.3914 106.527 85.3539C106.851 85.3094 107.097 85.2203 107.078 84.8477C107.059 84.475 106.457 84.5031 105.836 84.543C105.444 84.5664 105.015 84.5664 104.947 84.6227Z" fill="#ED520A" fill-opacity="0.9"/>
<path d="M103.502 83.268C103.333 83.3453 102.677 84.0156 102.59 84.1305C102.503 84.2453 102.438 84.4937 102.658 84.6672C102.878 84.8406 103.185 84.6953 103.347 84.5805C103.511 84.4656 103.816 84.0906 103.816 84.0906C103.816 84.0906 104.449 84.1 104.631 84.1094C104.814 84.1187 105.053 83.9758 105.053 83.6875C105.053 83.3992 104.718 83.2844 104.439 83.275C104.163 83.268 103.607 83.2187 103.502 83.268Z" fill="#ED520A" fill-opacity="0.9"/>
<path d="M109.67 88.5766C109.515 88.6984 109.136 90.0602 109.056 90.3344C108.976 90.6086 108.848 91.1945 109.253 91.3211C109.68 91.4547 109.965 91.2648 110.092 90.782C110.209 90.3367 110.476 89.4063 110.476 89.4063C110.476 89.4063 111.501 89.0289 111.726 88.9422C111.951 88.8555 112.211 88.5695 112.054 88.218C111.897 87.8664 111.449 87.9109 111.229 87.9906C111.231 87.993 109.82 88.4594 109.67 88.5766Z" fill="#ED520A" fill-opacity="0.9"/>
<path d="M112.314 90.8453C112.206 90.9859 111.845 92.2445 111.787 92.5047C111.728 92.7625 111.73 93.175 112.14 93.2805C112.476 93.3672 112.745 93.1937 112.82 92.8773C112.947 92.3523 113.223 91.593 113.223 91.593C113.223 91.593 113.952 91.1805 114.229 91.0375C114.508 90.8945 114.632 90.5008 114.458 90.2219C114.285 89.943 113.894 89.9828 113.509 90.1164C113.127 90.2523 112.41 90.7211 112.314 90.8453Z" fill="#ED520A" fill-opacity="0.9"/>
<path d="M114.937 92.8234C114.801 93.0273 114.763 94.232 114.763 94.4148C114.763 94.5976 114.897 95.0758 115.328 95.0758C115.712 95.0758 115.874 94.6633 115.874 94.4523C115.874 94.2414 115.921 93.4258 115.921 93.4258C115.921 93.4258 116.416 93.1633 116.591 93.0414C116.83 92.8773 117.1 92.5726 116.926 92.2469C116.753 91.9211 116.294 92.0172 115.996 92.1414C115.787 92.2328 115.033 92.6805 114.937 92.8234Z" fill="#ED520A" fill-opacity="0.9"/>
<path d="M117.337 94.7711C117.252 94.975 117.248 96.1117 117.266 96.4188C117.285 96.7258 117.545 96.993 117.88 96.9836C118.216 96.9742 118.37 96.6578 118.359 96.4094C118.347 96.1609 118.377 95.3453 118.377 95.3453C118.377 95.3453 118.823 95.0359 118.942 94.9516C119.125 94.8273 119.162 94.5297 119.001 94.3C118.837 94.0703 118.502 94.0023 118.185 94.1852C117.869 94.368 117.369 94.6891 117.337 94.7711Z" fill="#ED520A" fill-opacity="0.9"/>
<path d="M119.116 96.0437C118.963 96.3062 119.106 97.5016 119.106 97.6164C119.106 97.7312 119.144 98.125 119.538 98.125C119.882 98.125 119.997 97.9141 120.006 97.7219C120.016 97.5297 119.988 96.4469 119.988 96.4469C119.988 96.4469 120.323 96.3414 120.18 95.9008C120.037 95.4625 119.275 95.7719 119.116 96.0437Z" fill="#ED520A" fill-opacity="0.9"/>
<path d="M105.681 111.018C105.55 111.25 105.578 111.555 106.073 111.803C106.57 112.052 106.67 112.066 106.776 112.073C106.961 112.082 107.385 111.939 107.664 111.784C107.887 111.66 108.161 111.475 107.964 111.114C107.781 110.777 106.788 111.175 106.788 111.175C106.788 111.175 105.909 110.617 105.681 111.018Z" fill="#ED520A" fill-opacity="0.9"/>
<path d="M105.618 108.902C105.344 109.155 105.524 109.532 106.082 109.893C106.579 110.214 106.858 110.451 107.073 110.451C107.289 110.451 108.102 110.041 108.313 109.923C108.634 109.748 108.737 109.396 108.489 109.148C108.241 108.899 107.889 109.157 107.713 109.251C107.537 109.345 107.134 109.539 107.134 109.539C107.134 109.539 106.607 109.157 106.431 109.033C106.255 108.909 105.887 108.653 105.618 108.902Z" fill="#ED520A" fill-opacity="0.9"/>
<path d="M105.351 106.305C105.126 106.642 105.257 106.996 105.794 107.296C106.33 107.596 107.003 107.863 107.219 107.896C107.434 107.929 108.283 107.193 108.447 107.038C108.611 106.884 109.066 106.398 108.777 106.068C108.433 105.674 108.065 105.974 107.734 106.202C107.481 106.375 107.186 106.593 107.186 106.593C107.186 106.593 106.619 106.438 106.288 106.284C105.96 106.129 105.557 105.995 105.351 106.305Z" fill="#ED520A" fill-opacity="0.9"/>
<path d="M106.689 103.551C106.689 103.551 107.277 102.941 107.495 102.735C107.713 102.529 108.083 102.323 108.362 102.653C108.641 102.984 108.353 103.48 108.093 103.717C107.833 103.954 107.174 104.73 106.987 104.76C106.799 104.791 105.428 104.542 105.034 104.336C104.802 104.214 104.434 103.984 104.643 103.52C104.814 103.136 105.201 103.18 105.489 103.241C105.777 103.302 106.689 103.551 106.689 103.551Z" fill="#ED520A" fill-opacity="0.9"/>
<path d="M105.287 100.237C105.287 100.237 105.784 99.2242 105.948 98.8633C106.115 98.5023 106.321 98.1719 106.785 98.3359C107.249 98.5 107.108 98.9383 106.951 99.3578C106.766 99.8547 106.248 101.165 106.021 101.28C105.744 101.418 104.286 101.465 103.78 101.455C103.553 101.451 103.295 101.289 103.304 100.98C103.314 100.67 103.506 100.455 104.008 100.37C104.317 100.319 105.287 100.237 105.287 100.237Z" fill="#ED520A" fill-opacity="0.9"/>
<path d="M102.995 96.8899C102.944 96.9203 101.877 97.3492 101.61 97.4266C101.219 97.5391 101.083 97.9328 101.167 98.2117C101.251 98.4906 101.631 98.6359 102.076 98.5C102.519 98.3664 103.862 98.0242 103.987 97.8297C104.111 97.6352 104.317 96.25 104.359 95.8891C104.401 95.5281 104.411 95.0734 103.935 95.0008C103.459 94.9281 103.265 95.2492 103.223 95.5891C103.197 95.7977 102.995 96.8899 102.995 96.8899Z" fill="#ED520A" fill-opacity="0.9"/>
<path d="M100.122 94.5719C100.122 94.5719 100.204 93.632 100.234 93.3531C100.265 93.0742 100.368 92.7016 100.853 92.7344C101.338 92.7672 101.287 93.3953 101.287 93.7984C101.287 94.2016 101.193 95.2539 101.132 95.3055C101.071 95.357 100.42 95.8633 100.08 96.0906C99.7399 96.318 99.1915 96.4703 98.9852 96.1609C98.779 95.8516 99.079 95.3688 99.4095 95.1203C99.7399 94.8719 100.122 94.5719 100.122 94.5719Z" fill="#ED520A" fill-opacity="0.9"/>
<path d="M97.1525 91.4102C96.6744 91.5297 96.6978 92.0289 96.8432 92.5352C96.9885 93.0414 97.0705 93.4539 97.0705 93.4539C97.0705 93.4539 96.7307 93.9812 96.5853 94.1664C96.44 94.3516 95.9853 94.9 96.4611 95.2914C96.9369 95.6828 97.401 94.9914 97.5767 94.7852C97.7478 94.5859 98.3103 93.8359 98.3103 93.7328C98.3103 93.4328 98.001 92.3289 97.9283 92.0898C97.8557 91.8508 97.6892 91.2766 97.1525 91.4102Z" fill="#ED520A" fill-opacity="0.9"/>
<path d="M93.7209 92.2C93.5076 92.3453 93.3998 92.7883 93.6693 93.1703C93.8897 93.4844 94.0514 93.8102 94.0514 93.8102C94.0514 93.8102 93.7631 94.6469 93.6482 94.9164C93.5334 95.1859 93.3998 95.7742 93.8756 95.9594C94.3514 96.1445 94.6818 95.6289 94.8061 95.2469C94.9303 94.8648 95.2607 94.007 95.2701 93.7492C95.2772 93.5781 94.8272 92.7367 94.6303 92.4484C94.4334 92.1602 94.042 91.9844 93.7209 92.2Z" fill="#ED520A" fill-opacity="0.9"/>
<path d="M92.9357 95.1438C92.9896 95.3898 92.8537 96.0836 92.7178 96.6719C92.6779 96.8453 92.6193 97.2344 92.1295 97.1148C91.7053 97.0117 91.881 96.475 91.9326 96.2055C91.9631 96.0461 92.0873 95.5352 92.0873 95.5352C92.0873 95.5352 91.8623 95.4133 91.8693 95.1531C91.8787 94.8133 92.0545 94.6984 92.3334 94.6773C92.6123 94.6563 92.8935 94.9586 92.9357 95.1438Z" fill="#ED520A" fill-opacity="0.9"/>
</g>
<path d="M42.88 71.4775L31.48 71.3975C31.0267 71.3975 30.7333 71.1042 30.6 70.5175C30.4667 70.0375 30.4 69.5042 30.4 68.9175C30.4 68.0108 30.3867 67.0642 30.36 66.0775C30.36 65.0908 30.3467 63.9708 30.32 62.7175C30.2933 61.4108 30.2667 60.0775 30.24 58.7175C30.2133 57.3308 30.2 55.9042 30.2 54.4375V45.6375C30.2 45.3975 30.3067 45.1708 30.52 44.9575C30.76 44.7175 31 44.5975 31.24 44.5975L35.88 44.6375C36.1733 44.6642 36.52 44.6775 36.92 44.6775C37.32 44.6775 38.08 44.6775 39.2 44.6775C40.2133 44.6775 41.1067 44.6775 41.88 44.6775C42.6533 44.6775 43.32 44.6642 43.88 44.6375L45.36 44.5975C46.1867 44.5708 46.92 44.5575 47.56 44.5575C48.2267 44.5308 48.8 44.5175 49.28 44.5175C51.2533 44.5175 53.04 44.9175 54.64 45.7175C56.24 46.4908 57.5067 47.5975 58.44 49.0375C59.7467 51.0642 60.4 53.5575 60.4 56.5175C60.4 59.3175 60.08 61.6642 59.44 63.5575C58.8 65.4242 57.8133 66.9442 56.48 68.1175C55.12 69.2908 53.3467 70.1575 51.16 70.7175C48.9733 71.2508 46.2133 71.5042 42.88 71.4775ZM43.24 59.9975L42.96 66.8375C43.0933 66.8642 43.3067 66.8775 43.6 66.8775C43.76 66.8775 43.9333 66.8775 44.12 66.8775C44.3333 66.8508 44.5733 66.8242 44.84 66.7975C44.92 66.7708 44.9867 66.7575 45.04 66.7575C45.12 66.7308 45.2 66.7042 45.28 66.6775C45.3067 66.6508 45.3467 66.6375 45.4 66.6375C45.48 66.6375 45.5333 66.6242 45.56 66.5975C45.9867 66.2242 46.3733 65.5575 46.72 64.5975C47.0667 63.6375 47.4267 62.2375 47.8 60.3975C47.9067 59.7308 47.9733 59.0642 48 58.3975C48.0533 57.7308 48.08 57.0642 48.08 56.3975V55.6375C48.08 54.8642 48.0133 54.0642 47.88 53.2375C47.7467 52.4108 47.5733 51.6642 47.36 50.9975C47.1467 50.3308 46.92 49.8642 46.68 49.5975C46.2533 49.2242 45.88 49.0375 45.56 49.0375C45.2133 49.0375 44.9067 49.0642 44.64 49.1175C44.3733 49.1708 44.1867 49.2108 44.08 49.2375C44.0533 49.2642 43.8933 49.3308 43.6 49.4375L43.56 54.2375C43.56 54.4508 43.5333 54.7175 43.48 55.0375C43.4533 55.3575 43.4267 55.7308 43.4 56.1575L43.36 57.1175C43.3333 58.4242 43.2933 59.3842 43.24 59.9975ZM87.1875 48.9575C87.2675 48.9575 87.3075 49.0242 87.3075 49.1575C87.3075 51.9842 87.2942 54.4508 87.2675 56.5575C87.2675 58.6642 87.2542 60.5175 87.2275 62.1175C87.2008 63.6908 87.1608 65.1308 87.1075 66.4375C87.0542 67.7175 86.9875 68.9842 86.9075 70.2375C86.9075 70.5842 86.8275 70.8508 86.6675 71.0375C86.5075 71.2242 86.4008 71.3708 86.3475 71.4775C86.3208 71.5042 86.3075 71.5175 86.3075 71.5175C86.3075 71.5442 86.2808 71.5842 86.2275 71.6375L86.1075 71.7175C86.0808 71.6908 85.9742 71.6508 85.7875 71.5975C85.6275 71.5708 85.5075 71.5575 85.4275 71.5575L85.3475 71.6375C85.2942 71.6908 85.2408 71.7175 85.1875 71.7175C84.7342 71.8242 84.2008 71.8908 83.5875 71.9175C82.9742 71.9442 82.0142 71.9575 80.7075 71.9575H79.0275C78.3875 71.9575 77.8275 71.9175 77.3475 71.8375C77.1875 71.7042 76.9875 71.3842 76.7475 70.8775C76.7208 70.7708 76.6942 70.6108 76.6675 70.3975C76.6675 70.1842 76.6408 70.0508 76.5875 69.9975C76.5608 69.8642 76.5075 69.7975 76.4275 69.7975C76.4275 69.7975 76.3475 69.7708 76.1875 69.7175V69.9175H76.1475C74.5742 71.7842 72.2542 72.7175 69.1875 72.7175C67.3475 72.7175 65.8675 72.2242 64.7475 71.2375C63.6275 70.2508 62.9475 68.8642 62.7075 67.0775C62.6008 66.1708 62.5208 65.2242 62.4675 64.2375C62.4142 63.2508 62.3875 62.2242 62.3875 61.1575C62.3875 60.2775 62.4008 59.3842 62.4275 58.4775C62.4808 57.5442 62.5208 56.5708 62.5475 55.5575C62.5475 55.4242 62.5742 55.2375 62.6275 54.9975C62.6808 54.7308 62.7075 54.4642 62.7075 54.1975C62.7075 53.7175 62.7075 53.0908 62.7075 52.3175C62.7342 51.5442 62.7475 50.8242 62.7475 50.1575C62.7475 49.8642 62.7475 49.6775 62.7475 49.5975C62.7475 49.5175 62.7342 49.4642 62.7075 49.4375C62.7075 49.3042 62.6942 49.1708 62.6675 49.0375C62.6675 48.9042 62.6675 48.7842 62.6675 48.6775C62.6675 48.4908 62.7342 48.3708 62.8675 48.3175C63.0275 48.2375 63.3208 48.1975 63.7475 48.1975H65.7075C66.3742 48.1975 67.0275 48.2108 67.6675 48.2375C68.3342 48.2375 69.0008 48.2508 69.6675 48.2775C71.4008 48.3308 72.4808 48.6642 72.9075 49.2775C72.9875 49.5175 73.0275 50.1042 73.0275 51.0375C73.0275 52.0508 73.0142 52.9308 72.9875 53.6775C72.9875 54.4242 72.9875 55.1308 72.9875 55.7975V56.5575C72.9875 57.1442 72.9875 57.6108 72.9875 57.9575C72.9875 58.3042 72.9742 58.6375 72.9475 58.9575C72.9208 59.9442 72.9208 60.8908 72.9475 61.7975C73.0008 62.7042 72.9875 63.5175 72.9075 64.2375C72.8008 65.3042 72.9742 66.0642 73.4275 66.5175C73.9075 66.9708 74.5342 66.9842 75.3075 66.5575C75.7342 66.3175 76.0008 66.0508 76.1075 65.7575V52.1575C76.0275 51.6242 75.9875 51.1975 75.9875 50.8775C75.9608 50.8242 75.9475 50.6375 75.9475 50.3175V49.3175C75.9475 48.8375 76.1342 48.5975 76.5075 48.5975C76.6675 48.5975 76.7475 48.6642 76.7475 48.7975V48.8375C77.0408 48.7308 77.5875 48.6508 78.3875 48.5975C79.1875 48.5175 79.9608 48.4775 80.7075 48.4775H81.6675L86.6675 48.5975C86.8008 48.5975 86.8675 48.6375 86.8675 48.7175C86.8942 48.7175 86.9075 48.7308 86.9075 48.7575V48.9575C86.8808 48.9575 86.8675 48.9975 86.8675 49.0775L87.0675 49.0375C87.1208 48.9842 87.1608 48.9575 87.1875 48.9575ZM101.332 81.5175C100.479 81.5175 99.8255 81.4908 99.3722 81.4375C98.9455 81.4108 98.5855 81.3575 98.2922 81.2775C97.9989 81.2242 97.6122 81.1842 97.1322 81.1575C96.0389 80.9175 95.2255 80.6775 94.6922 80.4375C94.1855 80.1975 93.7055 79.8642 93.2522 79.4375H92.8122L92.7722 79.1575H92.4522L92.1722 78.7975C91.7722 78.3708 91.4255 78.0108 91.1322 77.7175C90.8655 77.4242 90.6522 77.0375 90.4922 76.5575C90.3589 76.0775 90.2922 75.3708 90.2922 74.4375C90.2922 73.9042 90.5189 73.2775 90.9722 72.5575C91.4522 71.8375 92.0255 71.2508 92.6922 70.7975C90.7989 70.1308 89.8922 68.9042 89.9722 67.1175C90.0255 66.3442 90.3855 65.6375 91.0522 64.9975C91.7189 64.3308 92.6255 63.6908 93.7722 63.0775L94.8122 62.5175H94.9722C94.3589 62.3842 93.7055 62.1442 93.0122 61.7975C92.3189 61.4508 91.8655 61.1442 91.6522 60.8775H91.2922V60.5575C91.2655 60.5575 91.2389 60.5575 91.2122 60.5575C91.1855 60.5308 91.1455 60.5175 91.0922 60.5175L90.7322 60.0375C90.2522 59.4242 89.8789 58.6375 89.6122 57.6775C89.3722 56.7175 89.2655 55.7442 89.2922 54.7575C89.3722 53.2642 89.8655 51.9975 90.7722 50.9575C91.7055 49.9175 93.1722 48.9975 95.1722 48.1975C95.6789 47.9042 96.1855 47.7175 96.6922 47.6375C97.2255 47.5575 97.7455 47.4908 98.2522 47.4375C98.9189 47.4375 99.6389 47.4508 100.412 47.4775C101.186 47.5042 101.946 47.5175 102.692 47.5175H102.892C102.999 47.5175 103.052 47.5308 103.052 47.5575C103.292 47.5308 103.732 47.5308 104.372 47.5575C104.746 47.5842 105.052 47.6242 105.292 47.6775C105.532 47.7042 105.786 47.7575 106.052 47.8375L106.812 48.0775C107.106 48.1575 107.279 48.1175 107.332 47.9575C107.386 47.7708 107.399 47.5442 107.372 47.2775C107.372 47.0108 107.412 46.7842 107.492 46.5975C107.706 46.1442 107.946 45.6375 108.212 45.0775C108.506 44.4908 108.826 43.8375 109.172 43.1175L109.452 43.0775L110.652 43.4375C110.839 43.4375 110.959 43.4642 111.012 43.5175C111.092 43.6242 111.159 43.6908 111.212 43.7175C111.266 43.7442 111.306 43.7842 111.332 43.8375L112.132 44.1575C112.239 44.1042 112.386 44.1308 112.572 44.2375L113.092 44.4375L113.212 44.5575C113.319 44.5575 113.386 44.5708 113.412 44.5975C113.492 44.6775 113.532 44.7175 113.532 44.7175C113.586 44.6642 113.612 44.6775 113.612 44.7575C113.666 44.7575 113.706 44.7708 113.732 44.7975L113.852 44.8775L114.732 45.2775L114.852 45.4375C114.959 45.4375 115.012 45.4508 115.012 45.4775C115.092 45.5575 115.159 45.5975 115.212 45.5975L115.412 45.7175C115.572 45.8775 115.599 46.0108 115.492 46.1175C115.306 46.3308 115.132 46.5442 114.972 46.7575C114.812 46.9442 114.399 47.3442 113.732 47.9575C113.679 48.0375 113.599 48.1175 113.492 48.1975C113.412 48.2508 113.346 48.3042 113.292 48.3575L112.692 48.7975C112.559 48.9042 112.492 48.9842 112.492 49.0375L112.132 49.3975C112.052 49.4775 111.946 49.5842 111.812 49.7175C111.679 49.8508 111.559 49.9842 111.452 50.1175C112.892 51.3708 113.546 53.1575 113.412 55.4775C113.359 56.3042 113.212 57.1575 112.972 58.0375C112.759 58.9175 112.519 59.5708 112.252 59.9975C111.906 60.5842 111.426 61.1308 110.812 61.6375C110.199 62.1175 109.572 62.4642 108.932 62.6775L108.132 62.9575C108.052 62.9842 107.972 63.0242 107.892 63.0775H107.652C107.599 63.1042 107.452 63.1575 107.212 63.2375C106.999 63.2908 106.612 63.3842 106.052 63.5175C105.892 63.5442 105.719 63.5575 105.532 63.5575C105.346 63.5308 105.226 63.5175 105.172 63.5175C104.826 63.5175 104.546 63.5175 104.332 63.5175C104.146 63.4908 104.026 63.4908 103.972 63.5175C103.839 63.5442 103.666 63.5442 103.452 63.5175C103.266 63.4642 103.106 63.4508 102.972 63.4775C102.172 63.3975 101.586 63.4508 101.212 63.6375C100.839 63.7975 100.639 64.0108 100.612 64.2775C100.612 64.5442 100.746 64.7975 101.012 65.0375C101.279 65.2508 101.639 65.3708 102.092 65.3975C103.292 65.5308 104.159 65.6508 104.692 65.7575C105.252 65.8375 105.652 65.9175 105.892 65.9975C106.159 66.0508 106.412 66.1175 106.652 66.1975C106.892 66.2508 107.279 66.3175 107.812 66.3975C112.666 67.1175 115.079 69.4508 115.052 73.3975C114.999 77.1842 112.852 79.6775 108.612 80.8775C108.559 80.8775 108.519 80.8508 108.492 80.7975C108.466 80.7442 108.386 80.7708 108.252 80.8775C108.226 80.9042 108.159 80.9175 108.052 80.9175C107.892 80.9975 107.652 81.0375 107.332 81.0375H107.052C106.306 81.0375 105.612 81.1308 104.972 81.3175C104.332 81.5308 103.746 81.5975 103.212 81.5175C103.079 81.4908 102.892 81.4775 102.652 81.4775C102.412 81.5042 102.252 81.5175 102.172 81.5175H101.332ZM101.692 58.7175L102.492 58.6775L103.212 58.0375L103.412 57.9175L103.652 57.3575V56.9975C103.706 56.8642 103.746 56.7442 103.772 56.6375C103.826 56.5042 103.906 56.3442 104.012 56.1575V55.9975L104.052 55.7175L103.012 53.1575C102.906 52.7042 102.706 52.4375 102.412 52.3575C102.012 52.2775 101.772 52.2108 101.692 52.1575C101.612 52.1042 101.452 52.0775 101.212 52.0775C101.159 52.0775 101.066 52.1042 100.932 52.1575C100.799 52.1842 100.639 52.2242 100.452 52.2775C99.7055 52.7575 99.3322 53.4375 99.3322 54.3175V54.6375C99.3322 55.0908 99.3589 55.5308 99.4122 55.9575C99.4922 56.3575 99.5855 56.6242 99.6922 56.7575C99.8255 56.9442 99.8789 57.0908 99.8522 57.1975C99.8255 57.3042 99.8122 57.3842 99.8122 57.4375C99.8122 57.7042 99.9322 57.9175 100.172 58.0775C100.439 58.2375 100.706 58.3975 100.972 58.5575C101.026 58.6108 101.106 58.6642 101.212 58.7175C101.319 58.7442 101.479 58.7442 101.692 58.7175ZM103.812 75.6775C104.719 75.4908 105.426 75.2108 105.932 74.8375C106.439 74.4908 106.679 74.1442 106.652 73.7975C106.626 73.4775 106.266 73.2642 105.572 73.1575C105.306 73.1042 105.172 73.0642 105.172 73.0375C105.199 73.0108 105.146 72.9975 105.012 72.9975H103.972C103.946 72.9708 103.826 72.9442 103.612 72.9175C103.399 72.8908 103.172 72.8642 102.932 72.8375C102.639 72.7842 102.532 72.7442 102.612 72.7175C102.692 72.7175 102.626 72.7308 102.412 72.7575C102.066 72.7308 101.812 72.7042 101.652 72.6775C101.519 72.6508 101.386 72.6242 101.252 72.5975C101.146 72.5708 100.946 72.5442 100.652 72.5175C100.306 72.4908 99.9055 72.4642 99.4522 72.4375C99.0255 72.4108 98.7455 72.3975 98.6122 72.3975C98.3989 72.3975 98.2922 72.4108 98.2922 72.4375C98.2922 72.4642 98.2655 72.5175 98.2122 72.5975L98.0522 72.9175C97.8922 73.2375 97.8922 73.6375 98.0522 74.1175C98.2122 74.6242 98.4655 75.0108 98.8122 75.2775C99.2655 75.6242 99.8655 75.8242 100.612 75.8775C101.386 75.9308 102.452 75.8642 103.812 75.6775Z" fill="#515151"/>
<path d="M42.184 97.2695C39.752 97.2695 37.5867 97.0028 35.688 96.4695C33.8107 95.9362 32.392 94.9548 31.432 93.5255C30.8347 92.6295 30.3867 91.5842 30.088 90.3895C29.7893 89.1948 29.64 87.8188 29.64 86.2615C29.64 82.2508 30.6 79.2535 32.52 77.2695C33.5227 76.2455 34.888 75.4988 36.616 75.0295C38.344 74.5388 40.3067 74.2935 42.504 74.2935C43.656 74.2935 44.8507 74.4428 46.088 74.7415C47.3467 75.0402 48.52 75.4988 49.608 76.1175C50.7173 76.7148 51.624 77.4828 52.328 78.4215C52.9893 79.2748 53.4693 80.2668 53.768 81.3975C54.088 82.5282 54.248 83.6908 54.248 84.8855C54.248 86.5282 54.1307 88.0002 53.896 89.3015C53.6827 90.6028 53.3307 91.7122 52.84 92.6295C51.9227 94.3148 50.5573 95.5095 48.744 96.2135C46.952 96.9175 44.7653 97.2695 42.184 97.2695ZM42.312 93.1095C42.5253 93.1095 42.7067 92.9922 42.856 92.7575C43.0267 92.5228 43.2613 92.2668 43.56 91.9895C43.8373 91.7122 44.0507 91.2855 44.2 90.7095C44.3493 90.1122 44.456 89.4402 44.52 88.6935C44.584 87.9468 44.616 87.2322 44.616 86.5495V84.7575C44.616 84.3095 44.5947 83.7548 44.552 83.0935C44.5093 82.4108 44.4133 81.7388 44.264 81.0775C44.1147 80.4162 43.88 79.8615 43.56 79.4135C43.2613 78.9655 42.8453 78.7415 42.312 78.7415C41.928 78.7415 41.608 78.8482 41.352 79.0615C41.1173 79.2535 40.9253 79.5308 40.776 79.8935C40.52 80.4268 40.3493 80.9708 40.264 81.5255C40.2 82.0588 40.168 82.5388 40.168 82.9655C40.1253 83.3495 40.0933 83.7655 40.072 84.2135C40.072 84.6402 40.072 85.2375 40.072 86.0055C40.072 86.5388 40.072 87.0188 40.072 87.4455C40.0933 87.8508 40.1253 88.2348 40.168 88.5975C40.168 88.9815 40.2213 89.4615 40.328 90.0375C40.456 90.6135 40.6053 91.1788 40.776 91.7335C41.0747 92.6508 41.5867 93.1095 42.312 93.1095ZM75.675 78.4535C75.739 78.4535 75.771 78.5068 75.771 78.6135C75.771 80.8748 75.7603 82.8482 75.739 84.5335C75.739 86.2188 75.7283 87.7015 75.707 88.9815C75.6857 90.2402 75.6537 91.3922 75.611 92.4375C75.5683 93.4615 75.515 94.4748 75.451 95.4775C75.451 95.7548 75.387 95.9682 75.259 96.1175C75.131 96.2668 75.0457 96.3842 75.003 96.4695C74.9817 96.4908 74.971 96.5015 74.971 96.5015C74.971 96.5228 74.9497 96.5548 74.907 96.5975L74.811 96.6615C74.7897 96.6402 74.7043 96.6082 74.555 96.5655C74.427 96.5442 74.331 96.5335 74.267 96.5335L74.203 96.5975C74.1603 96.6402 74.1177 96.6615 74.075 96.6615C73.7123 96.7468 73.2857 96.8002 72.795 96.8215C72.3043 96.8428 71.5363 96.8535 70.491 96.8535H69.147C68.635 96.8535 68.187 96.8215 67.803 96.7575C67.675 96.6508 67.515 96.3948 67.323 95.9895C67.3017 95.9042 67.2803 95.7762 67.259 95.6055C67.259 95.4348 67.2377 95.3282 67.195 95.2855C67.1737 95.1788 67.131 95.1255 67.067 95.1255C67.067 95.1255 67.003 95.1042 66.875 95.0615V95.2215H66.843C65.5843 96.7148 63.7283 97.4615 61.275 97.4615C59.803 97.4615 58.619 97.0668 57.723 96.2775C56.827 95.4882 56.283 94.3788 56.091 92.9495C56.0057 92.2242 55.9417 91.4668 55.899 90.6775C55.8563 89.8882 55.835 89.0668 55.835 88.2135C55.835 87.5095 55.8457 86.7948 55.867 86.0695C55.9097 85.3228 55.9417 84.5442 55.963 83.7335C55.963 83.6268 55.9843 83.4775 56.027 83.2855C56.0697 83.0722 56.091 82.8588 56.091 82.6455C56.091 82.2615 56.091 81.7602 56.091 81.1415C56.1123 80.5228 56.123 79.9468 56.123 79.4135C56.123 79.1788 56.123 79.0295 56.123 78.9655C56.123 78.9015 56.1123 78.8588 56.091 78.8375C56.091 78.7308 56.0803 78.6242 56.059 78.5175C56.059 78.4108 56.059 78.3148 56.059 78.2295C56.059 78.0802 56.1123 77.9842 56.219 77.9415C56.347 77.8775 56.5817 77.8455 56.923 77.8455H58.491C59.0243 77.8455 59.547 77.8562 60.059 77.8775C60.5923 77.8775 61.1257 77.8882 61.659 77.9095C63.0457 77.9522 63.9097 78.2188 64.251 78.7095C64.315 78.9015 64.347 79.3708 64.347 80.1175C64.347 80.9282 64.3363 81.6322 64.315 82.2295C64.315 82.8268 64.315 83.3922 64.315 83.9255V84.5335C64.315 85.0028 64.315 85.3762 64.315 85.6535C64.315 85.9308 64.3043 86.1975 64.283 86.4535C64.2617 87.2428 64.2617 88.0002 64.283 88.7255C64.3257 89.4508 64.315 90.1015 64.251 90.6775C64.1657 91.5308 64.3043 92.1388 64.667 92.5015C65.051 92.8642 65.5523 92.8748 66.171 92.5335C66.5123 92.3415 66.7257 92.1282 66.811 91.8935V81.0135C66.747 80.5868 66.715 80.2455 66.715 79.9895C66.6937 79.9468 66.683 79.7975 66.683 79.5415V78.7415C66.683 78.3575 66.8323 78.1655 67.131 78.1655C67.259 78.1655 67.323 78.2188 67.323 78.3255V78.3575C67.5577 78.2722 67.995 78.2082 68.635 78.1655C69.275 78.1015 69.8937 78.0695 70.491 78.0695H71.259L75.259 78.1655C75.3657 78.1655 75.419 78.1975 75.419 78.2615C75.4403 78.2615 75.451 78.2722 75.451 78.2935V78.4535C75.4297 78.4535 75.419 78.4855 75.419 78.5495L75.579 78.5175C75.6217 78.4748 75.6537 78.4535 75.675 78.4535ZM87.6308 97.1095C86.8414 97.1522 86.1588 97.1842 85.5828 97.2055C85.0281 97.2482 84.4948 97.2268 83.9828 97.1415C83.4921 97.0775 82.9588 96.9282 82.3828 96.6935C81.0388 96.1175 80.0574 95.3282 79.4388 94.3255C78.8414 93.3228 78.5214 91.9468 78.4788 90.1975H78.5108C78.5321 89.4508 78.5428 88.6828 78.5428 87.8935C78.5641 87.0828 78.5854 86.3468 78.6068 85.6855C78.6281 85.0028 78.6388 84.5228 78.6388 84.2455H77.5508C77.2308 84.2455 77.0174 84.0642 76.9108 83.7015C76.8254 83.3175 76.7828 82.8268 76.7828 82.2295C76.8041 81.6322 76.8148 81.0028 76.8148 80.3415V79.9255C76.8574 79.7548 76.8788 79.6162 76.8788 79.5095C76.8788 79.4028 76.8788 79.3068 76.8788 79.2215V78.5815L76.9108 78.3255L77.0388 78.1975L77.2948 78.2295H78.1588C78.4788 78.2295 78.6281 78.2295 78.6068 78.2295C78.5854 78.2295 78.5001 78.2295 78.3508 78.2295C78.2228 78.2082 78.1268 78.1975 78.0628 78.1975H78.6068L78.7028 74.3575C78.7454 74.2508 78.7454 74.1228 78.7028 73.9735C78.6601 73.8242 78.6708 73.6962 78.7348 73.5895C78.8201 73.4615 79.0441 73.3975 79.4068 73.3975H83.1188C83.2681 73.4188 83.4388 73.4295 83.6308 73.4295C83.8228 73.4295 84.0468 73.4295 84.3028 73.4295H85.1028C85.2094 73.3868 85.2841 73.3655 85.3268 73.3655C85.3908 73.3655 85.4548 73.3655 85.5188 73.3655C85.6041 73.3442 85.6788 73.3335 85.7428 73.3335C85.8068 73.3122 85.8708 73.3015 85.9348 73.3015C86.5748 73.2802 86.8948 73.7495 86.8948 74.7095C86.8948 75.3282 86.8734 75.9362 86.8308 76.5335C86.7881 77.1095 86.7454 77.6428 86.7028 78.1335H87.8228C87.9294 78.1335 88.0468 78.1335 88.1748 78.1335C88.3028 78.1335 88.4094 78.1442 88.4948 78.1655L89.2628 78.1975L89.3588 78.2615C89.4014 78.2828 89.4228 78.3148 89.4228 78.3575V83.5735C89.4228 83.7228 89.3268 83.8722 89.1348 84.0215C88.9641 84.1495 88.7508 84.2348 88.4948 84.2775C88.1534 84.1922 87.9508 84.1388 87.8868 84.1175C87.8228 84.0748 87.7374 84.0535 87.6308 84.0535H86.5428V85.0775C86.5428 86.3362 86.5428 87.2108 86.5428 87.7015C86.5428 88.1922 86.5534 88.4588 86.5748 88.5015V89.3975H86.6068C86.6921 90.3148 86.8841 90.8908 87.1828 91.1255C87.5028 91.3388 88.1321 91.3708 89.0708 91.2215C89.3694 91.3282 89.5188 91.7442 89.5188 92.4695C89.5188 92.5762 89.5188 92.7042 89.5188 92.8535C89.5188 93.0028 89.5188 93.2695 89.5188 93.6535C89.5401 94.0375 89.5614 94.6668 89.5828 95.5415C89.5401 95.6695 89.5294 95.8615 89.5508 96.1175L89.5188 96.5975C89.4334 96.5975 89.3694 96.6188 89.3268 96.6615L89.1668 96.8535C89.1241 96.8962 89.0921 96.9175 89.0708 96.9175C88.9854 96.9175 88.8681 96.9282 88.7188 96.9495C88.5694 96.9922 88.3774 97.0348 88.1428 97.0775L87.6308 97.1095Z" fill="#515151"/>
<defs>
<clipPath id="clip0_478_152">
<rect width="30" height="30" fill="white" transform="translate(91 82.5625)"/>
</clipPath>
</defs>
</svg>
