<svg width="26" height="24" viewBox="0 0 26 24" fill="none" xmlns="http://www.w3.org/2000/svg">
<path d="M24.997 11.8702L24.9913 11.9232V11.9766C24.9913 12.2875 24.7427 12.4813 24.5469 12.4813H23.1025H22.0982L22.1025 13.4855L22.1341 20.9906C22.1341 20.9912 22.1341 20.9918 22.1341 20.9924C22.134 21.0719 22.1282 21.1604 22.1172 21.2639L22.1115 21.317V21.3703V22.1297C22.1115 22.6492 21.716 23.0047 21.3059 23.0047H20.5837C20.5569 23.0047 20.5439 23.0046 20.5328 23.0044C20.5293 23.0043 20.5271 23.0042 20.5259 23.0042L20.4448 22.9965L20.3608 23.0027C20.3408 23.0042 20.3148 23.0047 20.2465 23.0047C20.2461 23.0047 20.2456 23.0047 20.2452 23.0047L18.7813 23H18.7781H17.6948C17.2848 23 16.8893 22.6446 16.8893 22.125V21V18C16.8893 16.6539 15.8313 15.5 14.4448 15.5H11.5559C10.1694 15.5 9.11148 16.6539 9.11148 18V21V22.125C9.11148 22.6446 8.71597 23 8.30592 23H7.22259H5.78266C5.75531 23 5.72215 22.9981 5.6486 22.993L5.57091 22.9876L5.49332 22.9943C5.46443 22.9968 5.44807 22.9982 5.43351 22.9992C5.42607 22.9997 5.42144 22.9999 5.41901 22.9999C5.41761 23 5.41693 23 5.41686 23H4.69481C4.28476 23 3.88926 22.6446 3.88926 22.125V16.875L3.88931 16.849L3.88947 16.8373L3.89377 16.7971V16.7438V13.4766V12.4766H2.89377H1.44933C1.22635 12.4766 1.00488 12.306 1.00488 11.9719C1.00488 11.8029 1.04564 11.6846 1.15743 11.561L12.6964 1.11639L12.7219 1.09336L12.7457 1.06864C12.766 1.04757 12.7804 1.03761 12.7884 1.03273C12.7967 1.02774 12.806 1.02335 12.8193 1.01919C12.8504 1.00952 12.9052 1 13.0184 1C13.0807 1 13.1458 1.00966 13.2026 1.02796C13.2535 1.04437 13.2866 1.06394 13.3064 1.07966L24.8206 11.5901L24.8223 11.5917C24.9257 11.6856 24.9677 11.7543 24.984 11.7903C24.997 11.8191 25.0003 11.8399 24.997 11.8702Z" fill="white" stroke="#ABABAB" stroke-width="2"/>
</svg>
