<svg width="26" height="24" viewBox="0 0 26 24" fill="none" xmlns="http://www.w3.org/2000/svg">
<g clip-path="url(#clip0_371_278)">
<path d="M25.4942 11.9234L25.4913 11.9499V11.9766C25.4913 12.5539 25.0285 12.9813 24.5469 12.9813H23.1025H22.6003L22.6025 13.4834L22.6341 20.9906C22.6341 20.991 22.6341 20.9914 22.6341 20.9918C22.634 21.0947 22.6266 21.2021 22.6143 21.3171L22.6115 21.3436V21.3703V22.1297C22.6115 22.9074 22.0097 23.5047 21.3059 23.5047H20.5837C20.5302 23.5047 20.5041 23.5043 20.4817 23.5022L20.4398 23.4983L20.3978 23.5014C20.3563 23.5044 20.3119 23.5047 20.2462 23.5047C20.2458 23.5047 20.2455 23.5047 20.2452 23.5047L18.7797 23.5H18.7781H17.6948C16.991 23.5 16.3893 22.9028 16.3893 22.125V21V18C16.3893 16.9121 15.5375 16 14.4448 16H11.5559C10.4632 16 9.61148 16.9121 9.61148 18V21V22.125C9.61148 22.9028 9.00973 23.5 8.30592 23.5H7.22259H5.78266C5.73513 23.5 5.6847 23.4967 5.61407 23.4918L5.57522 23.4891L5.53642 23.4925C5.47859 23.4975 5.44598 23.5 5.41704 23.5H4.69481C3.991 23.5 3.38926 22.9028 3.38926 22.125V16.875C3.38926 16.827 3.38978 16.8078 3.39093 16.7969L3.39377 16.7704V16.7438V13.4766V12.9766H2.89377H1.44933C0.931591 12.9766 0.504883 12.5632 0.504883 11.9719C0.504883 11.6768 0.592295 11.4316 0.805497 11.2052L12.3609 0.745695L12.3736 0.73418L12.3855 0.721821C12.5629 0.537589 12.7574 0.5 13.0184 0.5C13.246 0.5 13.4776 0.568841 13.6348 0.70251L25.1577 11.2208L25.1586 11.2216C25.4371 11.4747 25.5178 11.7026 25.4942 11.9234Z" fill="black" stroke="black"/>
</g>
<defs>
<clipPath id="clip0_371_278">
<rect width="26" height="24" fill="white"/>
</clipPath>
</defs>
</svg>
