<svg width="131" height="19" viewBox="0 0 131 19" fill="none" xmlns="http://www.w3.org/2000/svg">
<path d="M7.63898 2.36H9.25899C9.25899 7.58 7.49898 12.38 1.01898 15.6L0.118984 14.32C5.83898 11.5 7.63898 7.46 7.63898 2.54V2.36ZM1.09898 2.36H8.61898V3.7H1.09898V2.36ZM7.37899 6.84V8.12L0.458984 8.8L0.198984 7.32L7.37899 6.84ZM12.179 0.46H13.859V18.56H12.179V0.46ZM13.399 7.8H16.739V9.18H13.399V7.8ZM26.0374 2.36H27.6574C27.6574 7.58 25.8974 12.38 19.4174 15.6L18.5174 14.32C24.2374 11.5 26.0374 7.46 26.0374 2.54V2.36ZM19.4974 2.36H27.0174V3.7H19.4974V2.36ZM25.7774 6.84V8.12L18.8574 8.8L18.5974 7.32L25.7774 6.84ZM30.5774 0.46H32.2574V18.56H30.5774V0.46ZM31.7974 7.8H35.1374V9.18H31.7974V7.8ZM44.0759 10.7H45.7359V15.2H44.0759V10.7ZM44.9159 1.66C48.7359 1.66 51.4759 3.52 51.4759 6.4C51.4759 9.28 48.7359 11.14 44.9159 11.14C41.0959 11.14 38.3359 9.28 38.3359 6.4C38.3359 3.52 41.0959 1.66 44.9159 1.66ZM44.9159 2.98C42.0359 2.98 39.9359 4.34 39.9359 6.4C39.9359 8.46 42.0359 9.82 44.9159 9.82C47.7759 9.82 49.8759 8.46 49.8759 6.4C49.8759 4.34 47.7759 2.98 44.9159 2.98ZM36.7559 14.88H53.1359V16.26H36.7559V14.88ZM55.1543 14.96H71.5343V16.34H55.1543V14.96ZM62.4743 11.08H64.1343V15.54H62.4743V11.08ZM57.1343 1.82H69.5143V7.3H58.8343V10.92H57.1943V5.96H67.8743V3.16H57.1343V1.82ZM57.1943 10.22H69.9343V11.58H57.1943V10.22ZM78.8457 14.96H95.2257V16.34H78.8457V14.96ZM86.1657 11.08H87.8257V15.54H86.1657V11.08ZM80.8257 1.82H93.2057V7.3H82.5257V10.92H80.8857V5.96H91.5657V3.16H80.8257V1.82ZM80.8857 10.22H93.6257V11.58H80.8857V10.22ZM99.0041 2.4H110.644V3.74H99.0041V2.4ZM97.2441 14.54H113.584V15.92H97.2441V14.54ZM109.764 2.4H111.384V4.2C111.384 6.52 111.384 9.1 110.704 13L109.044 12.84C109.764 9.14 109.764 6.44 109.764 4.2V2.4ZM128.783 0.499999H130.463V13.7H128.783V0.499999ZM118.843 16.8H131.003V18.16H118.843V16.8ZM118.843 12.34H120.483V17.26H118.843V12.34ZM120.763 1.74C123.463 1.74 125.463 3.58 125.463 6.2C125.463 8.8 123.463 10.66 120.763 10.66C118.063 10.66 116.043 8.8 116.043 6.2C116.043 3.58 118.063 1.74 120.763 1.74ZM120.763 3.18C119.003 3.18 117.663 4.42 117.663 6.2C117.663 7.96 119.003 9.2 120.763 9.2C122.523 9.2 123.863 7.96 123.863 6.2C123.863 4.42 122.523 3.18 120.763 3.18Z" fill="black"/>
</svg>
