<svg width="80" height="80" viewBox="0 0 80 80" fill="none" xmlns="http://www.w3.org/2000/svg">
<rect width="80" height="80" fill="#D9D9D9"/>
<rect y="52" width="80" height="8" fill="white"/>
<rect x="18" width="8" height="52" fill="white"/>
<rect x="57" y="60" width="8" height="20" fill="white"/>
<g clip-path="url(#clip0_699_186)">
<path d="M41.6727 48.375C44.2109 45.2402 50 37.6426 50 33.375C50 28.1992 45.7448 24 40.5 24C35.2552 24 31 28.1992 31 33.375C31 37.6426 36.7891 45.2402 39.3273 48.375C39.9359 49.1221 41.0641 49.1221 41.6727 48.375ZM40.5 30.25C41.3399 30.25 42.1453 30.5792 42.7392 31.1653C43.333 31.7513 43.6667 32.5462 43.6667 33.375C43.6667 34.2038 43.333 34.9987 42.7392 35.5847C42.1453 36.1708 41.3399 36.5 40.5 36.5C39.6601 36.5 38.8547 36.1708 38.2608 35.5847C37.667 34.9987 37.3333 34.2038 37.3333 33.375C37.3333 32.5462 37.667 31.7513 38.2608 31.1653C38.8547 30.5792 39.6601 30.25 40.5 30.25Z" fill="black"/>
</g>
<defs>
<clipPath id="clip0_699_186">
<rect width="19" height="25" fill="white" transform="translate(31 24)"/>
</clipPath>
</defs>
</svg>
