<svg width="49" height="30" viewBox="0 0 49 30" fill="none" xmlns="http://www.w3.org/2000/svg">
<path d="M41.1622 14.9999C41.1622 23.2839 34.4471 30 26.1625 30C17.8782 30 11.1631 23.2839 11.1631 14.9999C11.1631 6.71587 17.8782 0 26.1625 0C34.447 0 41.1622 6.71576 41.1622 14.9999Z" fill="#F58220"/>
<path d="M40.2369 14.9998C40.2369 22.7719 33.9362 29.0731 26.1635 29.0731C18.3913 29.0731 12.0903 22.7719 12.0903 14.9998C12.0903 7.22713 18.3913 0.92627 26.1635 0.92627C33.9362 0.926162 40.2369 7.22702 40.2369 14.9998Z" fill="#231916"/>
<path d="M35.2936 15.5817C34.9725 20.6217 30.6264 24.4479 25.5863 24.1271C20.5455 23.8059 16.7195 19.4597 17.0405 14.4194C17.3615 9.37875 21.7072 5.55284 26.7482 5.87378C31.7888 6.19451 35.6143 10.5408 35.2936 15.5817Z" fill="white"/>
<path d="M18.9859 20.1443C18.9859 20.1443 18.9646 20.3093 18.9568 20.422C18.9987 20.4768 19.0395 20.5295 19.0812 20.581C19.0686 20.5182 19.0264 20.2784 19.0568 20.2255L18.9859 20.1443Z" fill="#FCBC86"/>
<path d="M19.3131 20.4324C19.3131 20.4324 19.2832 20.6162 19.2926 20.8453C19.346 20.9082 19.4 20.9675 19.4556 21.0292C19.411 20.879 19.4152 20.7154 19.4 20.5492L19.3131 20.4324Z" fill="#FCBC86"/>
<path d="M19.9137 20.9967L19.7192 20.8298C19.7192 20.8298 19.752 21.1786 19.8096 21.2779C19.8161 21.3427 19.8127 21.3804 19.8298 21.4228C19.9106 21.5019 19.9907 21.5788 20.0722 21.6544C20.0467 21.5891 19.9945 21.4505 20.0189 21.3733C19.9114 21.2503 19.921 21.1114 19.9137 20.9967Z" fill="#FCBC86"/>
<path d="M20.4785 21.3825L20.2785 21.2204C20.2533 21.2665 20.3033 21.6053 20.3913 21.7585C20.3813 21.8392 20.4038 21.9057 20.4225 21.9599C20.5 22.0248 20.5752 22.0849 20.6526 22.1482C20.643 22.1171 20.5889 21.9498 20.6054 21.8426C20.4908 21.7132 20.4777 21.526 20.4785 21.3825Z" fill="#FCBC86"/>
<path d="M21.044 22.433C21.0099 22.357 20.8991 22.2701 20.945 22.1692C20.8624 22.049 20.8154 21.7773 20.8487 21.5933L21.0432 21.7804C21.0387 21.919 21.0481 22.1442 21.1556 22.2903C21.1065 22.3603 21.3157 22.5954 21.3369 22.6304L21.044 22.433Z" fill="#FCBC86"/>
<path d="M21.6641 22.7394C21.6289 22.6615 21.6535 22.6587 21.6364 22.5822C21.5572 22.4621 21.4552 22.1976 21.4441 21.9951L21.7122 22.0984C21.7115 22.2342 21.7605 22.4349 21.8679 22.5822C21.8199 22.6533 21.9535 22.882 21.9718 22.9163L21.6641 22.7394Z" fill="#FCBC86"/>
<path d="M22.7595 23.2435C22.7322 23.1409 22.7891 23.064 22.8314 22.9622C22.6886 22.8016 22.4532 22.5822 22.3526 22.2872L22.061 22.1986C22.1876 22.5218 22.3927 22.8239 22.5297 22.9551C22.4951 23.0296 22.4887 23.1553 22.4887 23.1553L22.7595 23.2435Z" fill="#FCBC86"/>
<path d="M23.6357 23.4239C23.6102 23.3197 23.6919 23.229 23.7344 23.1278C23.5661 23.0236 23.3134 22.726 23.1554 22.3655L22.8291 22.3275C23.1012 22.8554 23.2929 23.0233 23.4647 23.1336C23.4072 23.244 23.4012 23.3567 23.4012 23.3567L23.6357 23.4239Z" fill="#FCBC86"/>
<path d="M24.5431 23.4766C24.5376 23.3256 24.615 23.2926 24.6583 23.1936C24.4906 23.0888 24.1597 22.8684 24.0009 22.5059L23.6763 22.4699C24.0062 22.9867 24.2274 23.2474 24.3723 23.2111C24.3131 23.3184 24.2791 23.4698 24.2791 23.4698L24.5431 23.4766Z" fill="#FCBC86"/>
<path d="M25.3762 23.4937C25.3877 23.3758 25.5066 23.2363 25.5478 23.134C25.3778 23.03 25.1134 22.9273 24.9592 22.5641L24.6035 22.5647C24.8628 22.9896 25.1167 23.2097 25.2641 23.1734C25.1701 23.3022 25.1024 23.5364 25.1024 23.5364L25.3762 23.4937Z" fill="#FCBC86"/>
<path d="M26.2139 23.4417C26.2095 23.2925 26.3439 23.1824 26.3846 23.0835C26.2195 22.9784 25.9408 22.8382 25.7811 22.4758L25.4414 22.4921C25.6901 22.901 25.9514 23.1289 26.0958 23.091C25.97 23.2602 25.9172 23.4992 25.9172 23.4992L26.2139 23.4417Z" fill="#FCBC86"/>
<path d="M27.1644 23.2949C27.156 23.1467 27.2746 23.0046 27.3183 22.902C27.1487 22.7995 26.9131 22.691 26.7546 22.3292L26.446 22.368C26.7896 22.8572 26.9116 22.9645 27.0553 22.9273C26.9512 23.0944 26.8677 23.3733 26.8677 23.3733L27.1644 23.2949Z" fill="#FCBC86"/>
<path d="M28.0434 23.1462C28.036 22.993 28.1545 22.8524 28.1968 22.7505C28.0293 22.6478 27.7373 22.4812 27.5794 22.1202L27.2773 22.1886C27.6077 22.6619 27.7865 22.8472 27.9334 22.8104C27.8752 22.9202 27.7613 23.2481 27.7613 23.2481L28.0434 23.1462Z" fill="#FCBC86"/>
<path d="M28.9389 22.9058C28.9753 22.7321 29.1147 22.5328 29.1599 22.4317C28.9899 22.3285 28.6382 22.2197 28.4841 21.8605L28.2295 21.9439C28.5602 22.4077 28.6611 22.4504 28.878 22.4813C28.8188 22.5921 28.64 23.0191 28.64 23.0191L28.9389 22.9058Z" fill="#FCBC86"/>
<path d="M29.8852 22.6081C29.9353 22.3053 30.0479 22.126 30.0818 22.0262C29.9138 22.038 29.6429 21.8672 29.4645 21.5176L29.197 21.6232C29.4614 22.0066 29.6383 22.1462 29.7844 22.1276C29.7267 22.2433 29.6014 22.7273 29.6014 22.7273L29.8852 22.6081Z" fill="#FCBC86"/>
<path d="M30.8216 22.1877C30.8048 22.0634 30.9983 21.696 31.0405 21.5938C31.0175 21.5904 30.9627 21.6027 30.9019 21.5941C30.7936 21.5792 30.5875 21.4691 30.3767 21.0906L30.135 21.2102C30.4013 21.6313 30.5885 21.7044 30.6512 21.7153C30.7026 21.7311 30.767 21.7098 30.8051 21.6993C30.6696 21.8716 30.5627 22.3225 30.5627 22.3225L30.8216 22.1877Z" fill="#FCBC86"/>
<path d="M32.4315 21.2416C32.3806 21.0912 32.3643 20.8837 32.4058 20.7821C32.2362 20.6808 32.1152 20.4624 32.094 20.1118L31.8538 20.2674C31.9073 20.6777 32.0343 20.8248 32.1748 20.9007C32.1152 21.0114 32.1934 21.4062 32.1934 21.4062L32.4315 21.2416Z" fill="#FCBC86"/>
<path d="M31.6531 21.7308C31.6497 21.5799 31.7176 21.3024 31.7646 21.2047C31.6073 21.2047 31.4991 21.1641 31.2988 20.6024L31.0583 20.7449C31.3909 21.351 31.4386 21.3078 31.5247 21.2799C31.4621 21.39 31.3809 21.9024 31.3809 21.9024L31.6531 21.7308Z" fill="#FCBC86"/>
<path d="M33.0492 20.7185C32.9972 20.5513 33.0085 20.4137 33.0526 20.3109C32.9575 20.3304 32.9411 20.2119 32.922 20.0577C32.9067 19.9175 32.9141 19.8036 32.905 19.6384L32.6651 19.7936C32.6559 20.172 32.6861 20.5176 32.8292 20.4802C32.7691 20.5909 32.8139 20.9501 32.8139 20.9501L33.0492 20.7185Z" fill="#FCBC86"/>
<path d="M33.5935 20.2537C33.5689 20.1067 33.5801 19.975 33.6312 19.8682C33.5374 19.749 33.517 19.6086 33.546 19.2136L33.3268 19.3753C33.2636 19.798 33.3581 19.9279 33.4192 20.0275C33.3531 20.1417 33.3682 20.4388 33.3682 20.4388L33.5935 20.2537Z" fill="#FCBC86"/>
<path d="M34.1371 19.5013C34.2132 19.1267 34.1477 18.9455 34.1256 18.7157L33.9075 18.9218C33.9528 19.1074 34.0142 19.5094 33.914 19.8747L34.1371 19.5013Z" fill="#FCBC86"/>
<path d="M34.5544 18.2458C34.5544 18.2458 34.5421 18.5265 34.512 18.7644C34.5612 18.6557 34.6078 18.5466 34.6533 18.4358C34.6518 18.3278 34.6463 18.1976 34.6256 18.1061L34.5544 18.2458Z" fill="#FCBC86"/>
<path d="M25.6588 9.99407C25.7207 10.1041 25.625 10.8889 25.5576 11.1531L25.2334 10.9681C25.2334 10.9681 25.429 10.3837 25.4528 10.2294C25.4778 10.0749 25.435 9.94235 25.351 9.87225L25.6588 9.99407Z" fill="#FCBC86"/>
<path d="M24.6143 10.5808L24.3661 10.4521C24.4986 9.98949 24.4944 9.788 24.501 9.66188C24.5044 9.58221 24.2855 9.53372 24.2992 9.53673C24.484 9.47975 25.1752 9.0701 25.3335 8.96484L25.6122 9.1015C25.3129 9.30557 24.6879 9.60404 24.5327 9.60242C24.3799 9.60059 24.5235 9.60812 24.5235 9.60812L24.6626 9.58178C24.8548 9.7323 24.6271 10.447 24.6143 10.5808Z" fill="#FCBC86"/>
<path d="M23.6928 10.1959L23.4895 10.1117C23.4979 9.94062 23.5498 9.71397 23.7326 9.31433L23.9501 9.38809C23.7388 9.84816 23.6731 10.1201 23.6928 10.1959Z" fill="#FCBC86"/>
<path d="M24.6947 8.72633L24.4535 8.63354C24.1411 8.77805 23.8091 8.9919 23.5281 9.2221L23.736 9.32381C24.1231 9.05899 24.4829 8.7931 24.6947 8.72633Z" fill="#FCBC86"/>
<path d="M34.9773 14.2377L34.7793 14.2834C34.7192 14.0573 34.6852 13.7199 34.4421 13.4839C34.5442 13.261 34.6143 13.0802 34.4873 12.8054L34.6674 12.8118C34.7241 13.1094 34.6944 13.2542 34.6054 13.4579C34.7673 13.6316 34.9516 13.8798 34.9773 14.2377Z" fill="#FCBC86"/>
<path d="M34.4908 14.355L34.256 14.3886C34.1957 14.1584 34.1153 13.7984 33.8721 13.561C34.0757 13.3455 34.0692 13.0926 34.0284 12.8408L34.2437 12.8322C34.3003 13.1298 34.208 13.3373 34.1029 13.541C34.2657 13.7153 34.4129 13.9996 34.4908 14.355Z" fill="#FCBC86"/>
<path d="M34.9451 13.442C35.1894 13.6801 35.1545 13.9098 35.2146 14.1393L35.2891 14.1215C35.2747 13.9526 35.2574 13.7879 35.2333 13.6208C35.1947 13.5431 35.1464 13.4784 35.0814 13.4124C35.1295 13.2484 35.1348 13.1347 35.1266 13.0106C35.1094 12.9235 35.0867 12.8364 35.0686 12.7498L34.9417 12.7454C35.0007 12.9406 34.9905 13.2431 34.9451 13.442Z" fill="#FCBC86"/>
<path d="M33.4064 13.5959C33.6254 13.8767 33.7575 14.1216 33.8389 14.443L33.6024 14.4505C33.54 14.2224 33.3922 13.8456 33.1494 13.6079L33.4064 13.5959Z" fill="#FCBC86"/>
<path d="M33.0862 13.6055C33.2418 13.4516 33.3945 13.0606 33.3583 12.8369L33.6003 12.8775C33.6082 13.2651 33.5031 13.3647 33.3687 13.6017L33.0862 13.6055Z" fill="#FCBC86"/>
<path d="M32.835 13.564C32.98 13.802 33.1317 14.074 33.1549 14.4324L32.921 14.4232C32.858 14.1943 32.8045 13.786 32.5845 13.5477L32.835 13.564Z" fill="#FCBC86"/>
<path d="M32.5527 13.5491C32.7105 13.395 32.8724 12.9786 32.8345 12.757L33.0766 12.7975C33.1328 13.0941 32.9619 13.3291 32.8023 13.5638L32.5527 13.5491Z" fill="#FCBC86"/>
<path d="M32.0832 13.4952C32.2105 13.4894 32.317 14.039 32.352 14.3764L32.0903 14.3237C32.0139 13.8296 32.1575 13.8742 31.8525 13.4031L32.0832 13.4952Z" fill="#FCBC86"/>
<path d="M31.7722 13.3738C32.133 13.0285 32.2637 12.8326 32.213 12.6584L32.4547 12.714C32.516 12.936 32.1671 13.264 32.001 13.4668L31.7722 13.3738Z" fill="#FCBC86"/>
<path d="M30.95 13.238C31.1642 13.0743 31.4621 12.6255 31.4871 12.3927L31.7171 12.4985C31.7003 12.8154 31.3244 13.2016 31.2206 13.3277L30.95 13.238Z" fill="#FCBC86"/>
<path d="M30.5002 12.8998C30.6295 13.0926 30.6301 13.5367 30.5963 13.9032L30.3239 13.7689C30.3802 13.5162 30.3949 13.0692 30.2283 12.8106L30.5002 12.8998Z" fill="#FCBC86"/>
<path d="M31.2744 13.3387C31.4039 13.5306 31.407 13.9768 31.3716 14.3406L31.0981 14.2054C31.1567 13.9547 31.1706 13.508 31.0066 13.2477L31.2744 13.3387Z" fill="#FCBC86"/>
<path d="M30.1504 12.7901C30.3649 12.6261 30.7469 12.304 30.7676 12.0717L31.0405 12.2062C30.9085 12.5208 30.7214 12.6133 30.4186 12.8799L30.1504 12.7901Z" fill="#FCBC86"/>
<path d="M29.6435 12.4463C29.7614 12.6591 29.7175 13.1307 29.645 13.5128L29.3718 13.3427C29.4571 13.0836 29.5156 12.6123 29.3682 12.3225L29.6435 12.4463Z" fill="#FCBC86"/>
<path d="M29.2886 12.2927C29.5296 12.1409 29.9657 11.8381 30.0104 11.5958L30.2833 11.7656C30.1156 12.0836 29.9072 12.1637 29.5634 12.4117L29.2886 12.2927Z" fill="#FCBC86"/>
<path d="M28.7095 11.9094C28.8123 12.131 28.7336 12.5956 28.6378 12.9718L28.3738 12.7836C28.478 12.5309 28.5709 12.0662 28.4436 11.7657L28.7095 11.9094Z" fill="#FCBC86"/>
<path d="M28.3647 11.7291C28.6183 11.5957 29.0719 11.3274 29.1366 11.0882L29.3964 11.2758C29.2036 11.5814 28.9904 11.6464 28.6305 11.8728L28.3647 11.7291Z" fill="#FCBC86"/>
<path d="M27.783 11.3511C27.8864 11.5729 27.8084 12.0378 27.7095 12.4149L27.4492 12.226C27.552 11.9738 27.6441 11.5071 27.518 11.2072L27.783 11.3511Z" fill="#FCBC86"/>
<path d="M27.4399 11.1729C27.6935 11.0385 28.1457 10.7687 28.2111 10.5306L28.4701 10.7173C28.2777 11.0234 28.0669 11.0869 27.7045 11.3142L27.4399 11.1729Z" fill="#FCBC86"/>
<path d="M26.7545 10.6985C26.8563 10.9186 26.7796 11.3852 26.6811 11.7623L26.4197 11.5726C26.5235 11.3212 26.6159 10.8552 26.4895 10.5555L26.7545 10.6985Z" fill="#FCBC86"/>
<path d="M26.4109 10.52C26.6651 10.3855 27.1196 10.1153 27.1807 9.87494L27.4422 10.0648C27.2487 10.3707 27.0392 10.4362 26.675 10.66L26.4109 10.52Z" fill="#FCBC86"/>
<path d="M25.3579 9.85454C25.6107 9.71972 26.0666 9.45006 26.1305 9.21008L26.3899 9.40103C26.1979 9.70477 25.9854 9.76939 25.6243 9.99475L25.3579 9.85454Z" fill="#FCBC86"/>
<path d="M24.0363 8.47496L23.7841 8.38379C23.4555 8.54496 23.1087 8.78375 22.8787 8.99943L23.0479 9.06825C23.3883 8.81429 23.8182 8.55109 24.0363 8.47496Z" fill="#FCBC86"/>
<path d="M23.3536 8.20769L23.0913 8.13361C22.5659 8.44906 22.4381 8.5654 22.2095 8.7828L22.4247 8.83516C22.5145 8.72044 22.6336 8.59959 23.3536 8.20769Z" fill="#FCBC86"/>
<path d="M22.6435 8.00316L22.3401 7.97284C22.027 8.12573 21.7168 8.44387 21.4863 8.65977L21.7204 8.68299C21.9354 8.44355 22.3554 8.11971 22.6435 8.00316Z" fill="#FCBC86"/>
<path d="M21.8182 7.90057L21.5581 7.89337C21.217 8.1069 20.907 8.61041 21.0364 8.64707L21.1799 8.64363C21.2935 8.33925 21.4999 8.12271 21.8182 7.90057Z" fill="#FCBC86"/>
<path d="M21.1705 7.91492L20.9374 7.95663C20.4792 8.34682 20.4304 8.70012 20.5559 8.65206L20.6522 8.66389C20.6706 8.54497 20.6844 8.33886 21.1705 7.91492Z" fill="#FCBC86"/>
<path d="M20.5924 7.99695L20.3374 8.07705C20.0673 8.27101 19.9163 8.72377 20.0374 8.70173L20.1556 8.67818C20.1788 8.51733 20.2473 8.30853 20.5924 7.99695Z" fill="#FCBC86"/>
<path d="M22.3678 9.77635L22.1497 9.71098C22.1644 9.46197 22.295 9.05157 22.4216 8.84998L22.6231 8.8918C22.4583 9.11264 22.364 9.58131 22.3678 9.77635Z" fill="#FCBC86"/>
<path d="M23.0223 9.93881L22.8074 9.87322C22.8212 9.62389 22.9505 9.21403 23.0765 9.01233L23.2763 9.05179C23.115 9.2751 23.0205 9.74259 23.0223 9.93881Z" fill="#FCBC86"/>
<path d="M21.6646 9.59689L21.468 9.5284C21.4801 9.27068 21.5719 8.89728 21.7028 8.69299L21.9112 8.70912C21.7478 8.93254 21.668 9.45744 21.6646 9.59689Z" fill="#FCBC86"/>
<path d="M21.0422 9.43953L20.8418 9.39824C20.8562 9.1488 20.9977 8.85184 21.127 8.65002L21.3094 8.65755C21.1469 8.88205 21.0438 9.24266 21.0422 9.43953Z" fill="#FCBC86"/>
<path d="M20.4717 9.36026L20.2891 9.34316C20.3033 9.09458 20.4337 8.86234 20.5602 8.65881L20.7586 8.65935C20.5971 8.88159 20.4729 9.16339 20.4717 9.36026Z" fill="#FCBC86"/>
<path d="M19.9694 9.34523L19.8142 9.34405C19.8774 9.02418 19.9643 8.88968 20.0927 8.68636L20.2601 8.66895C20.0655 8.90903 20.0243 9.05074 19.9694 9.34523Z" fill="#FCBC86"/>
<path d="M19.5266 9.36423L19.3911 9.39455C19.472 9.06597 19.4922 8.98727 19.6224 8.78266L19.7665 8.76965C19.6045 8.99103 19.5634 9.14693 19.5266 9.36423Z" fill="#FCBC86"/>
<path d="M19.686 8.76449C19.6925 8.67278 19.7191 8.57107 19.7827 8.44226C19.7127 8.51247 19.6432 8.5815 19.5746 8.65525L19.5349 8.78481L19.686 8.76449Z" fill="#FCBC86"/>
<path d="M19.1327 9.4191C19.1845 9.24094 19.2422 9.06451 19.3779 8.86829C19.2705 8.98881 19.1697 9.11117 19.0692 9.23686C19.0501 9.28847 19.0321 9.35577 19.0078 9.45221L19.1327 9.4191Z" fill="#FCBC86"/>
<path d="M21.3573 8.06612C20.2431 8.53403 18.7179 8.89422 16.3672 8.80842C16.3672 8.80842 12.7255 8.54285 10.7635 8.70918V8.7109C9.99658 8.72971 6.74589 9.05958 3.76722 10.1655C3.43628 10.2884 3.27812 10.3989 3.12846 10.5521C3.06363 10.6372 2.92407 10.876 2.85397 11.0218C2.85397 11.0218 1.94404 11.13 1.38968 11.3586C0.601041 11.6839 0.305475 12.1083 0.520941 12.8515C1.02574 14.5871 3.08825 14.9279 3.08825 14.9279C3.08825 14.9279 2.59216 13.7043 3.05255 13.6952C3.26017 13.6911 3.8599 13.8374 4.29954 14.0424C4.54221 14.1473 5.64803 14.6787 6.74535 15.6139L5.45116 19.7046H20.3696C20.8635 19.6971 21.3374 19.6011 21.7674 19.4329C21.68 19.5374 21.6165 19.5995 21.5474 19.7201L20.4464 21.6488H26.5128C28.0314 21.6271 29.3347 20.8586 29.8714 19.7046H43.6098C45.3184 19.7046 46.6281 18.9506 47.1209 17.8048C47.7112 16.4772 47.032 15.7606 47.032 15.7606C47.7057 15.3465 48.028 14.7888 48.1488 14.3988L48.8356 12.272H35.5109L36.2331 9.9709H34.4594C32.7984 9.98606 31.5452 10.9555 31.1228 12.2679H19.4309C20.5439 11.7848 22.337 10.6476 23.2406 7.10663C23.2406 7.10663 22.4551 7.65465 21.3573 8.06612Z" fill="#231916"/>
<path d="M14.4326 16.3723C15.2924 16.3557 15.9364 15.9936 16.2225 15.7496C16.2225 15.7496 15.7829 18.3577 12.7017 18.3727H6.51098L7.56745 15.0053C7.56745 15.0053 6.32637 13.5556 4.03689 12.9954C3.229 12.7639 2.05319 12.6935 1.96825 13.081C1.9346 13.199 2.00072 13.5837 2.07738 13.8916C2.07738 13.8916 1.71365 13.7232 1.49184 13.4523C1.41926 13.3798 1.07026 12.9489 1.04166 12.4764C1.02586 12.2197 1.14714 12.0379 1.34164 11.9051C1.83417 11.5857 3.21793 11.4401 3.21793 11.4401L3.34437 11.1597C3.47135 10.8764 3.58779 10.7473 3.76508 10.677C6.91954 9.42186 10.648 9.20521 10.6805 9.20521L10.6587 9.20575C10.9257 9.18919 11.2739 9.17747 11.6666 9.17092C13.3523 9.06114 15.6446 9.27854 15.8115 9.29488C17.4665 9.39961 18.5434 9.35047 19.2586 9.24199C20.3472 9.1249 21.3327 8.45496 21.3327 8.45496C21.3327 8.45496 20.4 10.557 18.1755 11.1464C17.2432 11.4085 16.286 11.4212 15.3995 11.4232H13.7173C12.8775 11.4232 12.6575 11.7412 12.5626 12.0167L12.3415 12.7511C13.0491 12.7511 15.1527 12.7511 15.1527 12.7511C16.1934 12.7872 16.9074 12.3594 17.2274 12.0873C17.2274 12.0873 16.7941 14.6649 13.7173 14.7099C13.7173 14.7099 12.1505 14.7102 11.7426 14.7102L11.218 16.3724H14.4326V16.3723Z" fill="white"/>
<path d="M13.6039 10.9175C12.672 10.9175 12.2784 11.2827 12.1114 11.765L11.7458 12.9628H15.0349C15.5973 12.957 16.1687 12.9531 16.5883 12.5963C16.2639 13.3817 15.3367 14.2508 13.6042 14.2123L11.3657 14.213L10.6306 16.5863H14.0644C14.6264 16.5806 15.1602 16.5531 15.6069 16.2425C15.2975 17.0227 14.2996 17.8938 12.6025 17.8516H6.91763L7.89465 14.7207C7.89465 14.7207 5.83676 12.5749 2.86787 12.4238C2.31867 12.4154 1.95881 12.4649 1.73776 12.5819C1.47713 12.7203 1.63303 13.1666 1.63303 13.1666C1.63303 13.1666 1.32306 12.8596 1.2635 12.4775C1.20415 12.0989 1.68421 11.881 2.38706 11.746C2.90809 11.6532 3.34482 11.6153 3.34482 11.6153L3.53567 11.2024C3.58943 11.0919 3.64964 11.003 3.72253 10.9383C3.84102 10.8305 4.04089 10.7622 4.04089 10.7622C7.03719 9.70148 10.5669 9.41666 10.5669 9.41666H10.5674C10.8262 9.40075 11.173 9.38882 11.5627 9.38237C13.2676 9.26947 15.6739 9.50558 15.6739 9.50558C19.6656 9.7947 20.4249 9.12884 20.8067 8.85736C20.8125 8.85155 20.8059 8.86348 20.8119 8.85736C19.3833 10.7028 17.6334 10.9279 15.2865 10.9175H13.6039Z" fill="#F58220"/>
<path d="M8.25884 13.5489L8.5986 12.4647C8.82503 11.7044 9.02114 11.4624 9.72162 11.1644C10.4219 10.8664 11.7707 10.7123 11.7707 10.7123C9.80935 10.4289 5.75131 10.6055 4.27456 11.0978C3.95889 11.2032 3.84632 11.4879 3.84632 11.4879L5.91603 11.3136L5.1347 11.795C4.36703 11.5288 3.78439 11.651 3.78439 11.651C3.2911 11.8686 3.21143 12.2901 3.21143 12.2901C5.79572 12.3047 8.25884 13.5489 8.25884 13.5489Z" fill="white"/>
<path d="M34.4683 10.4661C33.1975 10.4717 32.0849 11.2126 31.8039 12.1218L29.8684 18.3708H32.5187L34.9781 10.4661H34.4683Z" fill="white"/>
<path d="M39.8734 15.7116C40.229 15.4483 40.4899 15.1107 40.6128 14.7151C40.6136 14.7133 41.2049 12.7912 41.2049 12.7912H36.9812C35.4008 12.8238 34.7005 13.5803 34.4722 14.2226L34.4695 14.2291L33.1733 18.3701H37.4802C38.6478 18.3681 39.6457 17.8182 39.9911 16.7127C39.9926 16.7074 40.2984 15.7116 40.2984 15.7116H39.8734ZM36.9573 14.7548L37.0979 14.3133H38.0932L37.952 14.7548H36.9573ZM37.3371 16.8205C37.0817 16.8205 36.7232 16.8205 36.3153 16.8205C36.3924 16.5733 36.4363 16.4452 36.4896 16.2738C36.8158 16.2738 37.441 16.2738 37.7415 16.2738C37.545 16.437 37.4376 16.5757 37.3371 16.8205Z" fill="white"/>
<path d="M26.444 18.7745C26.0333 18.7745 24.7123 18.7745 24.7123 18.7745C23.4374 18.7745 22.6583 19.0894 22.2734 19.7624L21.9583 20.3157H26.4724C27.7493 20.297 28.8135 19.6334 29.126 18.6638C29.1276 18.6587 30.9513 12.7912 30.9513 12.7912H26.759C26.759 12.7912 24.7318 12.7506 24.1971 14.4269L22.972 18.37H25.7746C26.1205 18.3672 26.3897 18.3179 26.6125 18.2247L26.444 18.7745ZM27.828 14.2921C27.6322 14.9208 27.1487 16.4498 27.0346 16.8179C26.7862 16.8179 26.4981 16.8179 26.1138 16.8179C26.3094 16.1888 26.7931 14.6602 26.9074 14.2921C27.1559 14.2921 27.444 14.2921 27.828 14.2921Z" fill="white"/>
<path d="M15.9678 18.3708H20.3287C21.5108 18.3538 22.5217 17.7003 22.8023 16.7815C22.8027 16.7813 24.0443 12.7912 24.0443 12.7912H19.7502C18.5303 12.7843 17.5031 13.4303 17.2042 14.3957C17.2023 14.4034 16.8719 15.466 16.8719 15.466H17.2929C16.9407 15.7121 16.6696 16.0993 16.5468 16.5027L15.9678 18.3708ZM19.1119 16.8178L19.2529 16.361H20.2877L20.1468 16.8178H19.1119ZM20.929 14.3133L20.7636 14.849H19.4309C19.6842 14.6959 19.7983 14.4884 19.8768 14.3133H20.929Z" fill="white"/>
<path d="M39.8679 18.3685H43.5927C45.0625 18.3685 45.8505 17.5141 46.0982 16.7146C46.0982 16.7146 46.2368 16.2704 46.0696 15.887C45.9722 15.6502 45.8219 15.4682 45.5424 15.3234C45.3952 15.2522 45.1062 15.1139 44.8503 14.9908C46.3463 14.8829 46.8652 14.2462 47.0316 13.7097C47.0314 13.7103 47.17 13.2655 47.17 13.2655L47.3201 12.7859H46.8172H43.5581C42.3172 12.7986 41.3974 13.4164 41.0929 14.4388C40.8527 15.3762 41.5693 15.7067 41.5693 15.7067L42.4112 16.1155C40.8811 16.1734 40.3432 16.8623 40.1747 17.4066L39.8679 18.3685ZM43.7495 14.4633L43.8002 14.3133H44.2049L44.1018 14.6322L43.7495 14.4633ZM43.0155 16.8176C43.0481 16.7145 43.0896 16.5837 43.0896 16.5837C43.0896 16.5837 43.1134 16.5081 43.1276 16.463C43.2549 16.5248 43.4311 16.6101 43.4769 16.6322C43.4601 16.6863 43.4396 16.7511 43.4191 16.8176C43.2761 16.8176 43.2129 16.8176 43.0155 16.8176Z" fill="white"/>
<path d="M30.2676 17.8553L32.0372 12.1546C32.3184 11.3401 33.3148 10.7137 34.3552 10.699L32.1281 17.8553H30.2676Z" fill="#F58220"/>
<path d="M37.9898 15.7823C39.0807 15.7346 39.9139 15.1952 40.1411 14.465L40.5857 13.0039H36.8625C35.8226 13.0298 34.9735 13.5019 34.6779 14.3338L33.5742 17.8543H37.362C38.4753 17.8507 39.2086 17.3546 39.5133 16.4677L39.6781 15.9452C38.6722 15.9425 37.7257 16.2161 37.4827 16.9822L37.4655 17.0501H35.6936L36.0886 15.7847L37.9898 15.7823ZM38.4662 13.8245L38.1061 14.9842H36.3369L36.6963 13.8245H38.4662Z" fill="#F58220"/>
<path d="M27.188 17.0471H25.4931L26.4946 13.8245H28.1901L27.188 17.0471ZM22.4985 19.8048H26.3539C27.3949 19.7901 28.3793 19.2675 28.6559 18.4098L30.3324 13.0038H26.6408C25.5991 13.0297 24.7543 13.5956 24.4444 14.4071L23.3718 17.8546H25.6557C26.6666 17.8546 27.0693 17.4311 27.0693 17.4311L26.6047 18.9917H24.598C23.6993 18.9918 22.866 19.1627 22.4985 19.8048Z" fill="#F58220"/>
<path d="M20.3004 17.0471H18.4911L18.8564 15.8722H20.6657L20.3004 17.0471ZM19.6316 13.0042C18.5994 13.0026 17.6916 13.5879 17.4506 14.3633L17.2685 14.9515C18.2385 14.9819 19.2304 14.667 19.4624 13.9071L19.4886 13.8244H21.3035L20.9132 15.078H18.9797C17.8746 15.0866 17.0303 15.7102 16.798 16.47L16.3669 17.8553H20.2051C21.2458 17.8405 22.089 17.2917 22.3207 16.5327L23.4131 13.0043H19.6316V13.0042Z" fill="#F58220"/>
<path d="M45.6265 16.4647C45.3913 17.2244 44.6567 17.8529 43.4796 17.8529H40.2771L40.4251 17.3755C40.6609 16.6161 41.5782 16.3471 42.6183 16.3322L42.3923 17.0467H43.5731L43.7463 16.4902C43.7799 16.3811 43.7463 16.2918 43.6659 16.2305L41.6416 15.2457C41.4124 15.1314 41.2384 14.751 41.345 14.4064V14.4042C41.591 13.5781 42.3252 13.0267 43.4559 13.004H46.6988L46.5602 13.4598C46.3242 14.2195 45.46 14.4904 44.3685 14.497L44.5793 13.8246H43.3987L43.2433 14.3257C43.2091 14.4351 43.2433 14.5243 43.3237 14.5857L45.311 15.5386C45.8107 15.8385 45.6265 16.4647 45.6265 16.4647Z" fill="#F58220"/>
<path d="M25.815 26.6949L26.2351 26.6849C26.3255 26.6829 26.392 26.6711 26.4356 26.65C26.5075 26.6146 26.5426 26.5497 26.5404 26.4547C26.5375 26.3652 26.5013 26.3073 26.4325 26.2801C26.3929 26.2638 26.3247 26.2568 26.2283 26.2596L25.8794 26.2675C25.7594 26.2706 25.6726 26.2916 25.6226 26.3314C25.5757 26.3693 25.5531 26.4283 25.5549 26.5083C25.5641 26.6381 25.6507 26.7 25.815 26.6949ZM26.6675 27.3965L25.8814 27.4151C25.6597 27.4205 25.5007 27.357 25.4033 27.226C25.349 27.1534 25.3235 27.0689 25.3117 26.9794C25.2952 26.8605 25.3005 26.5685 25.2988 26.5017C25.2949 26.3303 25.3514 26.2251 25.4098 26.1581C25.4708 26.0891 25.5778 26.0267 25.6718 26.0242C25.7539 26.0212 25.7544 26.0219 25.8354 26.0204L26.2373 26.0108C26.422 26.0068 26.5511 26.0275 26.6273 26.0757C26.7312 26.1405 26.7853 26.2698 26.7903 26.4655C26.7915 26.6487 26.7373 26.7747 26.6346 26.8432C26.5601 26.8935 26.4344 26.9201 26.2577 26.9241C26.2577 26.9241 25.5723 26.9352 25.5728 26.9396C25.5741 27.0092 25.5946 27.0906 25.6659 27.1281C25.735 27.1655 25.8196 27.1701 25.8961 27.1685L26.6682 27.1504L26.6675 27.3965Z" fill="white"/>
<path d="M24.8268 26.6007C24.758 26.5437 24.6522 26.5086 24.5399 26.4879L24.0436 26.396C23.9775 26.3837 23.8309 26.3436 23.8533 26.2205L23.8733 26.1113C23.8893 26.0255 23.9307 25.9881 24.1001 26.0196C24.1001 26.0196 24.9384 26.1743 24.9696 26.1803C24.975 26.149 25.0018 26.0053 25.0076 25.9741C24.9775 25.9687 24.1655 25.8187 24.1655 25.8187C24.0251 25.7924 23.9161 25.7899 23.8419 25.8114C23.7241 25.8442 23.6524 25.9338 23.6243 26.0867L23.6039 26.1969C23.5826 26.3118 23.6113 26.4056 23.6897 26.4829C23.7529 26.5439 23.8335 26.5845 23.9299 26.6019L24.5041 26.7081C24.6653 26.7383 24.6857 26.7878 24.6693 26.8758L24.652 26.9697C24.6373 27.0511 24.607 27.1038 24.464 27.077C24.464 27.077 23.5479 26.9074 23.5098 26.9004C23.5042 26.9316 23.4762 27.0819 23.4705 27.1135C23.5085 27.1203 24.3906 27.2838 24.3906 27.2838C24.6205 27.3263 24.7703 27.2949 24.837 27.1915C24.8636 27.1502 24.8847 27.0844 24.9008 26.9966L24.9185 26.9004C24.9423 26.7722 24.9199 26.6794 24.8268 26.6007Z" fill="white"/>
<path d="M22.7104 26.2068L22.3097 26.0769C22.2228 26.0492 22.1561 26.0376 22.1075 26.0434C22.0274 26.0529 21.9729 26.103 21.9435 26.1938C21.9167 26.2797 21.9314 26.3467 21.9881 26.3947C22.0204 26.4235 22.0823 26.4528 22.1737 26.4825L22.5073 26.5903C22.6226 26.6277 22.7113 26.6358 22.7727 26.6149C22.8293 26.5956 22.8697 26.5472 22.8949 26.4703C22.9296 26.3445 22.8679 26.257 22.7104 26.2068ZM22.1367 25.259L22.8866 25.5023C23.0992 25.5713 23.2286 25.6839 23.2768 25.8415C23.3407 26.0429 23.234 26.2596 23.1732 26.4477C23.1522 26.5123 23.1317 26.5759 23.1104 26.6403C23.0786 26.7386 23.0209 26.822 22.9479 26.8741C22.8771 26.9238 22.7913 26.9444 22.702 26.9157C22.6235 26.8906 22.5456 26.8651 22.4674 26.8397L22.0826 26.7146C21.9063 26.6579 21.7913 26.5946 21.7356 26.5245C21.6584 26.4286 21.6504 26.2873 21.7109 26.1008C21.7697 25.9268 21.8628 25.8252 21.9839 25.7945C22.0708 25.7719 22.1986 25.7885 22.3673 25.8432C22.3673 25.8432 23.0198 26.0591 23.0213 26.0554C23.0426 25.989 23.0512 25.9059 22.9962 25.846C22.9432 25.7879 22.8645 25.7551 22.7907 25.7315L22.0538 25.4925L22.1367 25.259Z" fill="white"/>
<path d="M29.9299 26.1086L29.5276 26.2359C29.4413 26.2635 29.3798 26.293 29.3439 26.3258C29.2845 26.3806 29.2688 26.4532 29.2976 26.5437C29.3255 26.6293 29.3769 26.675 29.451 26.6816C29.494 26.6862 29.5612 26.6737 29.6533 26.6445L29.987 26.5392C30.1026 26.5027 30.1794 26.4576 30.217 26.405C30.2522 26.356 30.257 26.2933 30.2328 26.2164C30.188 26.0937 30.0867 26.058 29.9299 26.1086ZM28.9119 25.6708L29.6638 25.4329C29.8764 25.3656 30.0476 25.3818 30.1783 25.4819C30.347 25.6092 30.3867 25.8471 30.4459 26.0361C30.4665 26.1004 30.4866 26.1651 30.5069 26.2289C30.5384 26.3272 30.5397 26.4296 30.5103 26.5134C30.4823 26.5957 30.4241 26.6621 30.3346 26.6907C30.2562 26.7157 30.1775 26.7406 30.0995 26.7648L29.7139 26.8871C29.5375 26.9429 29.4069 26.9583 29.3209 26.9338C29.2024 26.9 29.1135 26.7904 29.0536 26.6034C29.0012 26.4275 29.0179 26.2899 29.0984 26.1952C29.1563 26.1258 29.2698 26.0655 29.4393 26.012C29.4393 26.012 30.0958 25.8086 30.0945 25.8051C30.0735 25.7385 30.032 25.6655 29.9524 25.649C29.8753 25.6323 29.7927 25.6519 29.7188 25.6753L28.9795 25.9085L28.9119 25.6708Z" fill="white"/>
<path d="M30.5966 24.6005L30.3655 24.6889L31.0268 26.4178L31.258 26.3293L30.5966 24.6005Z" fill="white"/>
<path d="M31.8812 26.0358L31.6518 26.1308L30.9429 24.4208L31.1712 24.3259L31.8812 26.0358Z" fill="white"/>
<path d="M21.329 25.4464L21.318 25.4349C21.4209 25.4407 21.4993 25.4391 21.5745 25.3588C21.612 25.3189 21.659 25.2481 21.7144 25.1475C21.7688 25.0486 21.7902 24.948 21.7784 24.8471C21.7668 24.752 21.7278 24.6682 21.6617 24.5992C21.6158 24.5512 21.5422 24.4993 21.4433 24.444C21.4433 24.444 20.583 23.9681 20.5387 23.9435L19.6482 25.5537C19.6923 25.5781 20.5802 26.0692 20.5802 26.0692C20.708 26.1404 20.8326 26.1702 20.9489 26.1579C21.0977 26.1406 21.2116 26.0562 21.2981 25.8999C21.3398 25.8252 21.3691 25.7499 21.3862 25.6755C21.4086 25.579 21.3957 25.5181 21.329 25.4464ZM21.0522 25.8248C20.987 25.9126 20.8648 25.9074 20.6963 25.8142L19.9947 25.4263L20.2341 24.9936L20.2621 25.0088L20.9574 25.3937C21.1194 25.483 21.1789 25.5771 21.134 25.6759L21.0522 25.8248ZM21.4248 25.1502C21.374 25.2424 21.2678 25.2455 21.1112 25.1585L20.3739 24.7507L20.6198 24.3064L20.6477 24.3219L21.3308 24.6997C21.5051 24.7962 21.5652 24.8968 21.5091 24.998L21.4248 25.1502Z" fill="white"/>
<path d="M28.674 26.612L28.6359 26.3457C28.6115 26.1703 28.5397 26.0406 28.4202 25.9579C28.3002 25.8746 28.1873 25.841 27.9855 25.8692L27.8124 25.894L27.3153 25.9639L27.2539 25.5323L27.0056 25.5673L27.067 25.999L27.1002 26.2382L27.1569 26.6406L27.183 26.8224C27.2075 26.9982 27.28 27.1274 27.3995 27.2109C27.5194 27.294 27.632 27.3282 27.8333 27.2994L28.042 27.2698L28.1808 27.2505C28.3822 27.2215 28.4818 27.1581 28.5734 27.0452C28.6662 26.9321 28.6987 26.7877 28.674 26.612ZM28.4223 26.6235C28.4368 26.7269 28.4157 26.8139 28.359 26.8854C28.3029 26.9571 28.264 26.9941 28.1481 27.0101L28.0085 27.03L27.9733 27.0352L27.799 27.0596C27.6831 27.0762 27.6347 27.051 27.5613 26.9978C27.4873 26.9444 27.4427 26.8666 27.4279 26.7638L27.4059 26.6054L27.3489 26.2032L27.8809 26.1281L28.0211 26.1084C28.137 26.092 28.1848 26.1172 28.2584 26.1705C28.3322 26.2234 28.3767 26.3016 28.3912 26.4041L28.4223 26.6235Z" fill="white"/>
<path d="M33.3086 22.7944L34.5361 24.1678C34.5545 24.1516 34.6907 24.0296 34.7217 24.0023C34.6885 23.9657 33.5278 22.667 33.494 22.6292C33.4564 22.6626 33.3178 22.7859 33.3086 22.7944Z" fill="white"/>
<path d="M32.2917 24.1294C32.3084 24.0028 32.3295 23.9173 32.4708 23.8036C32.4708 23.8036 33.1443 23.2656 33.2054 23.2163C33.1708 23.1729 33.0836 23.064 33.0492 23.0214C32.9882 23.0706 32.3161 23.6079 32.3161 23.6079C32.0939 23.7853 32.0354 23.9236 32.0081 24.1022C31.9803 24.2871 32.0398 24.4734 32.1842 24.6537L32.4165 24.945C32.5618 25.126 32.7304 25.2244 32.9176 25.2386C33.0974 25.251 33.2446 25.224 33.4664 25.0463C33.4664 25.0463 34.1386 24.5093 34.2 24.4597C34.1654 24.4167 34.079 24.3086 34.0446 24.2656C33.9829 24.3143 33.3101 24.8531 33.3101 24.8531C33.1684 24.9662 33.0806 24.9673 32.9529 24.956C32.817 24.9441 32.6983 24.8763 32.6015 24.7551L32.4101 24.516C32.3135 24.3953 32.2735 24.2648 32.2917 24.1294Z" fill="white"/>
<path d="M36.717 20.5108L36.4918 20.363C36.3436 20.2658 36.1681 20.2821 36.027 20.3169C35.8861 20.3518 35.7854 20.415 35.6743 20.5849L35.5785 20.7316L35.3029 21.152L34.9384 20.9131L34.8008 21.1229L35.1656 21.3619L35.3679 21.4942L35.7079 21.7164L35.8613 21.8174C36.0096 21.9144 36.1548 21.945 36.2962 21.9104C36.4375 21.875 36.5372 21.8124 36.6489 21.6422L36.7642 21.4657L36.8407 21.3487C36.9524 21.1786 36.9698 21.0615 36.9457 20.9183C36.9212 20.7744 36.8655 20.6073 36.717 20.5108ZM36.5297 20.7541C36.6168 20.8112 36.6679 20.8841 36.6845 20.9742C36.7015 21.0638 36.7036 21.1175 36.639 21.2158L36.5621 21.3329L36.5428 21.3628L36.4463 21.5099C36.3816 21.6086 36.3312 21.6284 36.2427 21.6487C36.1542 21.669 36.0658 21.6509 35.9795 21.5944L35.8451 21.5066L35.5058 21.2843L35.7997 20.834L35.8768 20.7165C35.9412 20.6182 35.9919 20.599 36.0803 20.5787C36.1691 20.558 36.2572 20.5763 36.3436 20.633L36.5297 20.7541Z" fill="white"/>
<path d="M35.4833 23.2064C35.3687 23.3362 35.2387 23.4041 35.0956 23.4077C34.9526 23.4109 34.8421 23.3777 34.6923 23.245L34.0928 22.7166L34.2631 22.5238L34.8626 23.0528C34.9494 23.1293 35.0019 23.1346 35.0912 23.131C35.1808 23.1272 35.2586 23.0869 35.3265 23.0101L35.4447 22.8761C35.5123 22.7997 35.5431 22.7164 35.5351 22.6272C35.5278 22.5382 35.5154 22.4865 35.4294 22.4099L34.8297 21.8813L34.9996 21.689L35.5987 22.217C35.7483 22.3492 35.795 22.4557 35.8099 22.5979C35.8247 22.7399 35.774 22.8769 35.6588 23.0076L35.4833 23.2064Z" fill="white"/>
<path d="M17.5602 21.3065C17.5531 21.1905 17.5127 21.0715 17.4391 20.9525C17.4391 20.9525 16.9219 20.1106 16.8898 20.059C16.8368 20.0886 15.3372 20.9298 15.2849 20.9594C15.3086 20.9988 15.3925 21.1353 15.4169 21.1749C15.467 21.1466 15.989 20.8538 15.989 20.8538L16.4001 21.5237C16.4838 21.6596 16.5796 21.756 16.6857 21.8102C16.8266 21.8831 16.974 21.8743 17.1359 21.7836L17.3801 21.6467C17.5105 21.5737 17.5697 21.4621 17.5602 21.3065ZM17.0148 21.5674C16.9326 21.613 16.8053 21.6202 16.6654 21.3917L16.246 20.7096L16.7651 20.4188L16.7819 20.4457L17.1847 21.1003C17.2155 21.1506 17.237 21.2088 17.2496 21.2722C17.2687 21.3697 17.249 21.4358 17.1895 21.4689L17.0148 21.5674Z" fill="white"/>
<path d="M16.4678 22.7144C16.5045 22.683 17.2007 22.0853 17.2007 22.0853C17.4227 21.8944 17.6364 21.9275 17.8522 22.1888C17.8522 22.1888 18.1676 22.5714 18.1926 22.6015C18.162 22.6277 18.0354 22.7367 18.0054 22.7621C17.9797 22.7307 17.6657 22.3506 17.6657 22.3506C17.5388 22.1966 17.4186 22.2439 17.3655 22.2893C17.3655 22.2893 16.6718 22.8851 16.6349 22.9167C16.6111 22.8872 16.4927 22.7439 16.4678 22.7144Z" fill="white"/>
<path d="M19.2775 23.7573C19.2612 23.611 19.2122 23.5028 19.0581 23.3685L18.9251 23.2525L18.6842 23.0433C18.5304 22.9091 18.416 22.8753 18.269 22.8801C18.1228 22.885 17.9911 22.9546 17.8743 23.089L17.6962 23.2935C17.5791 23.4278 17.529 23.5676 17.5441 23.7135C17.5599 23.8595 17.609 23.9679 17.7633 24.1018L17.9774 24.2884V24.2888L18.1368 24.4278C18.2912 24.562 18.4056 24.595 18.5525 24.5908C18.6987 24.5855 18.8303 24.5165 18.947 24.3819L19.1252 24.1779C19.2423 24.0425 19.2927 23.9027 19.2775 23.7573ZM18.7725 24.1978C18.7038 24.2768 18.6232 24.3181 18.5319 24.3226C18.4405 24.327 18.3862 24.3217 18.2973 24.2442L18.1634 24.1277L18.1369 24.1045L17.9223 23.9179C17.8327 23.8404 17.8205 23.7875 17.8121 23.6964C17.8039 23.6051 17.8341 23.5203 17.9028 23.4411L18.049 23.2731C18.1177 23.1941 18.1979 23.1527 18.2895 23.148C18.3808 23.1439 18.4348 23.149 18.5238 23.2266L18.7386 23.4129L18.7653 23.4365L18.8992 23.5528C18.9882 23.6303 19.0011 23.6832 19.0086 23.7743C19.0173 23.8658 18.9879 23.9505 18.9186 24.0295L18.7725 24.1978Z" fill="white"/>
<path d="M18.892 6.76819L18.7235 6.94162L18.0338 6.27124L17.2294 7.09848L17.9185 7.76907L17.7498 7.94228L16.4238 6.65304L16.5924 6.4794L17.0292 6.90377L17.8333 6.0761L17.3973 5.65216L17.5658 5.47852L18.892 6.76819Z" fill="white"/>
<path d="M27.3579 3.42837L26.9379 3.3945C26.8475 3.3874 26.7794 3.39192 26.7341 3.40869C26.6583 3.43675 26.6168 3.49804 26.609 3.59319C26.603 3.68297 26.633 3.74425 26.6989 3.77823C26.737 3.79887 26.8044 3.81274 26.9004 3.82016L27.2493 3.84822C27.37 3.85801 27.458 3.8451 27.5127 3.8107C27.5631 3.77877 27.5917 3.72221 27.5983 3.64168C27.6027 3.51148 27.5225 3.44041 27.3579 3.42837ZM26.5805 2.63983L27.3657 2.70262C27.5881 2.72015 27.7403 2.7996 27.8235 2.94153C27.9319 3.12237 27.8792 3.35773 27.8632 3.55513C27.8579 3.62244 27.8524 3.68953 27.8465 3.75662C27.8387 3.85919 27.8021 3.95413 27.743 4.02143C27.686 4.08637 27.6073 4.12562 27.5141 4.11874C27.4317 4.11229 27.3501 4.10573 27.2677 4.09906L26.8651 4.06702C26.6809 4.05251 26.5544 4.01799 26.4839 3.96251C26.3865 3.88704 26.346 3.75178 26.3621 3.55631C26.3788 3.37364 26.4461 3.25333 26.556 3.19527C26.6357 3.15323 26.7634 3.13979 26.9403 3.15398C26.9403 3.15398 27.625 3.21269 27.625 3.20882C27.631 3.13947 27.6196 3.05603 27.5521 3.01131C27.4873 2.96701 27.4033 2.95325 27.3264 2.94723L26.554 2.8854L26.5805 2.63983Z" fill="white"/>
<path d="M20.6641 3.94101C20.8214 3.85843 20.9684 3.84155 21.1053 3.88961C21.2434 3.93843 21.3368 4.01046 21.4318 4.19099L21.8101 4.91082L21.5959 5.0235L21.2163 4.30216C21.1623 4.19873 21.1138 4.1741 21.0274 4.14508C20.9414 4.11637 20.8519 4.12594 20.76 4.17411L20.5635 4.27732C20.4714 4.32592 20.4128 4.39409 20.3881 4.48128C20.3623 4.5687 20.3553 4.62256 20.4099 4.72642L20.7888 5.44722L20.5745 5.56001L20.1962 4.83996C20.1018 4.65923 20.0953 4.54171 20.1333 4.40021C20.1714 4.2599 20.2689 4.14852 20.4262 4.06616L20.6641 3.94101Z" fill="white"/>
<path d="M23.7567 2.86016L23.9774 3.61891C24.0107 3.7318 23.9927 3.78266 23.9504 3.8634C23.9085 3.94426 23.8381 3.99887 23.7379 4.02812L23.5929 4.07016C23.4933 4.09919 23.404 4.09113 23.3255 4.04532C23.2465 3.99963 23.2037 3.9663 23.1711 3.85373L22.9504 3.09487L22.7069 3.16583L22.9273 3.92447C22.9604 4.03704 22.9428 4.08811 22.9003 4.16908C22.8581 4.24982 22.7872 4.30422 22.6872 4.33379L22.5429 4.37583C22.4435 4.40465 22.3537 4.39626 22.275 4.351C22.196 4.30552 22.1537 4.27186 22.1204 4.15908L21.9 3.40054L21.6677 3.46795L21.8945 4.24885C21.9515 4.44432 22.0289 4.53356 22.154 4.60839C22.279 4.68365 22.4265 4.69634 22.5973 4.64656L22.7873 4.5913C22.9576 4.54195 23.0755 4.45163 23.1408 4.32186C23.1485 4.30648 23.1556 4.29089 23.1616 4.27552C23.1752 4.28509 23.19 4.29412 23.2044 4.30315C23.3293 4.37787 23.4774 4.39056 23.6474 4.34121L23.8382 4.28541C24.0081 4.23617 24.1256 4.14617 24.1912 4.01619C24.2565 3.88566 24.2736 3.76868 24.217 3.57321L23.9899 2.79242L23.7567 2.86016Z" fill="white"/>
<path d="M25.8021 2.80768C25.6947 2.70984 25.5525 2.66759 25.3762 2.68178L25.1073 2.70361C24.9789 2.71393 24.874 2.75102 24.7906 2.81413L24.7457 2.26074L24.5034 2.28042L24.6531 4.13606L24.8995 4.11607L24.8339 3.30431C24.8245 3.18733 24.8525 3.14099 24.9095 3.07003C24.9672 3.00014 25.0479 2.96014 25.1514 2.95208L25.3725 2.93434C25.4759 2.92552 25.5623 2.95208 25.6303 3.01197C25.6979 3.0725 25.7331 3.11422 25.7427 3.23119L25.8077 4.04317L26.0496 4.02349L25.9841 3.2127C25.9677 3.00982 25.9092 2.90671 25.8021 2.80768Z" fill="white"/>
<path d="M19.5019 5.46067L19.1639 5.71301C19.0912 5.76709 19.0428 5.81548 19.0195 5.85838C18.9817 5.92891 18.9907 6.00245 19.0475 6.07911C19.1024 6.15029 19.1654 6.17663 19.2373 6.15878C19.2793 6.14932 19.3386 6.11502 19.4169 6.05771L19.6969 5.84827C19.794 5.77591 19.8515 5.70871 19.8705 5.64635C19.887 5.58894 19.8712 5.52776 19.8229 5.46293C19.741 5.3624 19.6331 5.36164 19.5019 5.46067ZM18.3967 5.38207L19.0293 4.91039C19.2074 4.77718 19.3746 4.73621 19.5302 4.78814C19.7312 4.85287 19.8467 5.06436 19.9648 5.22327C20.005 5.27767 20.0458 5.33154 20.0855 5.3853C20.1472 5.46798 20.1826 5.56324 20.1817 5.65302C20.1823 5.73968 20.1493 5.82118 20.0746 5.87762C20.0085 5.92686 19.9428 5.97589 19.8768 6.02481L19.5526 6.26619C19.4048 6.37715 19.2862 6.43435 19.197 6.4394C19.0739 6.44682 18.9542 6.37209 18.8369 6.2149C18.7293 6.06642 18.7007 5.93159 18.7448 5.81558C18.7772 5.73161 18.8641 5.63689 19.0064 5.53066C19.0064 5.53066 19.5602 5.12328 19.5571 5.12005C19.5161 5.06447 19.4526 5.0092 19.3719 5.01974C19.2935 5.02941 19.2224 5.07457 19.1604 5.1207L18.5387 5.58431L18.3967 5.38207Z" fill="white"/>
<path d="M35.0833 5.69849L33.7832 7.13589C33.803 7.1532 33.9444 7.2819 33.9775 7.31103C34.0121 7.27244 35.2411 5.91352 35.2772 5.87385C35.2377 5.83858 35.0932 5.7072 35.0833 5.69849Z" fill="white"/>
<path d="M35.0948 7.43165L35.3882 7.76194C35.4512 7.83301 35.5064 7.87839 35.553 7.89892C35.6301 7.9329 35.7057 7.91634 35.7805 7.84968C35.8508 7.78721 35.8723 7.71829 35.8474 7.64443C35.8333 7.60185 35.7925 7.54229 35.7248 7.46649L35.4813 7.1921C35.3979 7.09813 35.3215 7.04308 35.2556 7.02996C35.1934 7.01803 35.1301 7.0391 35.0673 7.09577C34.9693 7.19124 34.9787 7.30306 35.0948 7.43165ZM35.111 8.59252L34.562 7.97451C34.4072 7.80065 34.3491 7.62981 34.3888 7.46262C34.4101 7.36983 34.4607 7.29155 34.5239 7.22135C34.6083 7.12673 34.8459 6.93223 34.8984 6.88546C35.0334 6.76569 35.1563 6.73967 35.249 6.74128C35.3465 6.74322 35.4689 6.78655 35.535 6.86019C35.5931 6.92438 35.5925 6.92492 35.6495 6.98911L35.9305 7.30521C36.0596 7.45047 36.1308 7.56831 36.1437 7.66174C36.1626 7.78882 36.0953 7.92129 35.9423 8.05751C35.7957 8.18341 35.658 8.22567 35.5332 8.18976C35.4418 8.16395 35.3353 8.08117 35.2116 7.94257C35.2116 7.94257 34.7368 7.40047 34.7332 7.40359C34.6782 7.45219 34.6266 7.5239 34.6452 7.60647C34.6622 7.68679 34.7158 7.7584 34.7698 7.81861L35.3098 8.42597L35.111 8.59252Z" fill="white"/>
<path d="M36.6458 9.58211C36.6406 9.48847 36.5925 9.3817 36.5279 9.27988L36.2446 8.83078C36.2071 8.77068 36.1334 8.62843 36.2446 8.55833L36.3437 8.49586C36.4208 8.44726 36.48 8.452 36.5762 8.60532C36.5762 8.60532 37.0548 9.36385 37.0723 9.39213C37.1007 9.37428 37.2305 9.29246 37.2586 9.2744C37.2413 9.24698 36.7785 8.51296 36.7785 8.51296C36.6983 8.38566 36.6224 8.29986 36.5532 8.2576C36.443 8.18933 36.3232 8.19858 36.185 8.28556L36.085 8.34878C35.9805 8.41447 35.9287 8.50285 35.9255 8.61908C35.9228 8.71165 35.9493 8.80293 36.0042 8.88949L36.3321 9.40976C36.4239 9.55534 36.3999 9.6062 36.3209 9.6563L36.2359 9.70974C36.1618 9.75662 36.1 9.77038 36.0183 9.64125C36.0183 9.64125 35.4955 8.81239 35.4745 8.77831C35.4464 8.79584 35.31 8.88196 35.2812 8.89992C35.3031 8.93389 35.8065 9.73189 35.8065 9.73189C35.9376 9.93993 36.0687 10.0338 36.1959 10.0111C36.2465 10.0019 36.3127 9.97133 36.3924 9.92176L36.4791 9.86671C36.5958 9.79371 36.6512 9.71027 36.6458 9.58211Z" fill="white"/>
<path d="M31.9482 4.85653L31.557 4.64687C31.4727 4.60193 31.4053 4.57774 31.3544 4.57483C31.2694 4.56978 31.2037 4.61128 31.1565 4.69988C31.1124 4.78385 31.1155 4.85545 31.1652 4.91609C31.1929 4.95222 31.2523 4.99361 31.3412 5.04157L31.6661 5.21553C31.7782 5.27553 31.8687 5.30079 31.9361 5.29079C31.9981 5.28122 32.0492 5.23843 32.0896 5.16349C32.1488 5.03974 32.1013 4.93749 31.9482 4.85653ZM31.5302 3.76813L32.2616 4.15981C32.4683 4.27088 32.5819 4.41151 32.6024 4.58343C32.6304 4.80385 32.48 5.00813 32.3818 5.19177C32.3479 5.25477 32.3146 5.31692 32.2814 5.37971C32.2299 5.47497 32.1545 5.55077 32.069 5.59109C31.9868 5.6298 31.8939 5.63463 31.8072 5.5884C31.7304 5.54765 31.6541 5.5068 31.5783 5.46594L31.2032 5.26499C31.0318 5.17317 30.9239 5.08619 30.8795 5.00308C30.8179 4.88943 30.8352 4.74192 30.9328 4.55978C31.0264 4.39076 31.1417 4.30303 31.2728 4.29357C31.3667 4.28636 31.4961 4.32754 31.6604 4.41549C31.6604 4.41549 32.2958 4.76084 32.298 4.75718C32.3329 4.69256 32.3569 4.60784 32.3109 4.5358C32.2673 4.4657 32.1916 4.41732 32.1204 4.37872L31.4014 3.99381L31.5302 3.76813Z" fill="white"/>
<path d="M34.2663 5.74452L34.2686 5.74172L34.265 5.7385C34.2586 5.71097 34.2534 5.6827 34.2417 5.65442C34.198 5.54067 34.1218 5.44121 34.0151 5.35799L33.6543 5.07565C33.364 4.8489 33.1409 4.84352 32.9719 5.05931L32.5948 5.54174C32.4089 5.77957 32.4593 6.00493 32.7475 6.23061L33.1703 6.5609C33.2288 6.5952 33.3107 6.64735 33.4055 6.63111L33.3275 6.72938C33.2853 6.77658 33.2313 6.82013 33.1544 6.81798C33.0728 6.8155 32.9791 6.76712 32.9157 6.71777L32.2688 6.21179L32.1326 6.38629L32.8122 6.91775C32.9135 6.99646 33.0045 7.04323 33.093 7.0614C33.1655 7.07666 33.236 7.07376 33.3099 7.05129C33.3949 7.02559 33.4597 6.97011 33.5195 6.90636C33.5392 6.8812 33.5592 6.85561 33.5794 6.82959C33.8487 6.48532 34.1841 6.05589 34.1841 6.05589C34.2599 5.95869 34.2856 5.85569 34.2663 5.74452ZM33.666 6.29447C33.5026 6.50359 33.3056 6.32038 33.3056 6.32038L33.3043 6.32232L32.919 6.02127C32.9135 6.01697 32.909 6.01256 32.9033 6.00837L32.9047 6.00675C32.9047 6.00675 32.6758 5.85817 32.8453 5.64765L32.8439 5.64646L33.107 5.31036L33.1083 5.31144C33.2721 5.0949 33.472 5.28198 33.472 5.28198L33.4744 5.27822C33.5544 5.34144 33.8147 5.54497 33.8147 5.54497C33.8294 5.55636 33.8502 5.57335 33.8731 5.594L33.8723 5.59518C33.8723 5.59518 33.8796 5.60023 33.8898 5.60862C33.9085 5.62528 33.9269 5.64399 33.9436 5.66496C33.9919 5.7271 34.0306 5.82806 33.9341 5.95106L33.666 6.29447Z" fill="white"/>
<path d="M29.5904 3.09956C29.6246 3.00043 29.717 2.93377 29.9046 2.96915C29.9689 2.97818 30.8846 3.29901 31.0263 3.34686C31.0404 3.30568 31.1079 3.10967 31.1221 3.06806C31.0788 3.05333 30.0791 2.70981 30.0791 2.70981C30.0119 2.6868 29.9429 2.6725 29.8725 2.66831C29.6584 2.65648 29.4458 2.73605 29.3718 2.95184C29.3718 2.95184 29.3476 3.02161 29.3154 3.11601C29.2485 3.30998 29.1453 3.61124 29.1331 3.64575C29.0827 3.79338 29.0408 3.91487 29.0406 3.91487C29.0154 3.98874 29.0078 4.06787 29.0277 4.14453C29.0773 4.33774 29.271 4.47891 29.4497 4.54052C29.4497 4.54052 30.4494 4.88382 30.4932 4.89877C30.5072 4.85748 30.5748 4.66104 30.5891 4.62019C30.4477 4.57116 29.5283 4.26065 29.4718 4.22968C29.302 4.14152 29.27 4.03196 29.3037 3.93326C29.3037 3.93326 29.339 3.82993 29.3771 3.71854C29.3942 3.66919 29.3895 3.68349 29.3895 3.68349C29.3895 3.68349 30.5629 4.08636 30.6135 4.10389C30.6278 4.06239 30.6944 3.86778 30.709 3.82585C30.6584 3.80843 29.4854 3.40535 29.4854 3.40535L29.5562 3.19848L29.5904 3.09956Z" fill="white"/>
<path d="M19.7642 24.5542L19.6231 24.7575L19.2859 24.5335L19.4271 24.3302L19.7642 24.5542Z" fill="white"/>
</svg>
