<svg width="42" height="30" viewBox="0 0 42 30" fill="none" xmlns="http://www.w3.org/2000/svg">
<path d="M20.8068 0C12.5228 0 5.80713 6.71569 5.80713 15.0003C5.80713 23.2843 12.5228 30 20.8068 30C29.0908 30 35.8065 23.2843 35.8065 15.0003C35.8065 6.71569 29.0908 0 20.8068 0Z" fill="#570514"/>
<path d="M20.8068 29.4506C12.8258 29.4506 6.35596 22.982 6.35596 14.9997C6.35596 7.01926 12.8258 0.548828 20.8068 0.548828C28.7885 0.548828 35.2583 7.01926 35.2583 14.9997C35.2583 22.982 28.7885 29.4506 20.8068 29.4506Z" fill="#7D0521"/>
<path d="M11.1746 8.42706L9.71631 7.3222L9.97599 6.98017L10.5591 7.42199L10.5621 7.4178L10.1702 6.72351L10.4353 6.37366L10.8429 7.17255L11.908 7.45868L11.6339 7.82055L10.9835 7.62458L11.0737 7.81213L11.4332 8.08444L11.1746 8.42706Z" fill="white"/>
<path d="M12.3655 6.97294L11.0635 5.68835L11.3646 5.38239L12.6667 6.66697L12.3655 6.97294Z" fill="white"/>
<path d="M13.8363 4.98688L13.8407 4.98448L13.1825 3.87482L13.5089 3.63257L14.3564 5.28144L13.9693 5.56937L13.0947 4.6154L13.0912 4.61841L13.7464 5.73528L13.3647 6.01961L12.0266 4.73562L12.359 4.48857L13.2301 5.44194L13.2305 5.43472L12.6047 4.30522L12.9377 4.05696L13.8363 4.98688Z" fill="white"/>
<path d="M15.2218 3.31878C15.2098 3.29413 15.1959 3.26889 15.1809 3.24424C15.1659 3.2184 15.1485 3.19736 15.1292 3.18113C15.1106 3.16369 15.0883 3.15287 15.0631 3.14867C15.0378 3.14325 15.0096 3.14928 14.9777 3.1643C14.9465 3.17933 14.9254 3.19916 14.9146 3.2214C14.9032 3.24424 14.8978 3.26889 14.899 3.29474C14.8994 3.32059 14.905 3.34704 14.9152 3.37529C14.9254 3.40174 14.9363 3.42879 14.9489 3.45404L15.2813 4.12729C15.2921 4.15013 15.3066 4.17478 15.3234 4.20122C15.3396 4.22767 15.3583 4.24992 15.3793 4.26855C15.4004 4.28718 15.4238 4.29981 15.4509 4.30522C15.4773 4.31123 15.5056 4.30701 15.5362 4.292C15.5669 4.27696 15.5873 4.25653 15.5981 4.23249C15.6089 4.20784 15.6126 4.1826 15.6101 4.15494C15.6079 4.12729 15.5999 4.09904 15.5891 4.07019C15.5771 4.04073 15.5657 4.01548 15.5542 3.99144L15.2218 3.31878ZM15.9227 3.76902C15.9684 3.86099 15.9996 3.94695 16.0171 4.0257C16.0345 4.10504 16.0339 4.17838 16.0166 4.2451C15.9986 4.31183 15.9631 4.37314 15.909 4.42965C15.8555 4.48675 15.7798 4.53905 15.6824 4.58714C15.5844 4.63523 15.4967 4.66348 15.4185 4.6719C15.3404 4.68091 15.2688 4.6719 15.2045 4.64665C15.1396 4.6202 15.0807 4.57632 15.0278 4.5144C14.9749 4.45309 14.9256 4.37554 14.8799 4.28417L14.5511 3.61754C14.4724 3.45824 14.4579 3.31457 14.5066 3.18593C14.5559 3.0579 14.6653 2.9521 14.8336 2.86854C15.0025 2.78499 15.1522 2.76395 15.2821 2.80362C15.4119 2.8445 15.5153 2.94368 15.5934 3.10238L15.9227 3.76902Z" fill="white"/>
<path d="M17.1383 2.58239C17.1299 2.55654 17.1208 2.52889 17.1095 2.50184C17.0986 2.47479 17.0854 2.45135 17.0692 2.43211C17.0523 2.41227 17.0325 2.39785 17.0085 2.38883C16.9844 2.37981 16.9556 2.38101 16.9213 2.39184C16.8889 2.40206 16.8648 2.41709 16.8498 2.43753C16.8353 2.45856 16.8264 2.48201 16.8233 2.50725C16.8199 2.5331 16.8212 2.56015 16.8264 2.58901C16.8318 2.61846 16.839 2.64551 16.8469 2.67196L17.0681 3.3897C17.0759 3.41494 17.0861 3.44139 17.0981 3.47025C17.1101 3.4985 17.1252 3.52375 17.1426 3.54478C17.1606 3.56703 17.1823 3.58325 17.2075 3.59348C17.2328 3.60369 17.2616 3.60369 17.2941 3.59348C17.3272 3.58386 17.35 3.56703 17.365 3.54478C17.3788 3.52254 17.3873 3.4979 17.3891 3.47025C17.3904 3.44199 17.3877 3.41314 17.3812 3.38248C17.3746 3.35243 17.3674 3.32477 17.3596 3.30013L17.1383 2.58239ZM17.7586 3.13903C17.7893 3.23641 17.8061 3.32657 17.8109 3.40712C17.8153 3.48888 17.8031 3.56041 17.7755 3.62353C17.7472 3.68664 17.7021 3.74195 17.6402 3.78884C17.5783 3.83572 17.4953 3.8754 17.3908 3.90786C17.2868 3.93972 17.1954 3.95414 17.1172 3.94993C17.0385 3.94574 16.9694 3.92589 16.9099 3.89042C16.8504 3.85435 16.7987 3.80146 16.7566 3.73173C16.7139 3.6626 16.6772 3.57904 16.6472 3.48166L16.4284 2.77054C16.3761 2.60102 16.3845 2.45736 16.453 2.33834C16.5221 2.21931 16.6466 2.13155 16.8263 2.07625C17.0066 2.02095 17.1575 2.02335 17.2789 2.08346C17.401 2.14417 17.4875 2.25899 17.5398 2.4285L17.7586 3.13903Z" fill="white"/>
<path d="M18.6139 3.52915L18.4011 1.71257L19.0016 1.64224L19.3479 2.68999L19.3527 2.68877L19.4549 1.58932L20.0506 1.51959L20.2634 3.33557L19.8564 3.38366L19.7332 1.9542L19.7284 1.95481L19.5949 3.41433L19.2775 3.4516L18.8177 2.06181H18.8129L19.0185 3.48165L18.6139 3.52915Z" fill="white"/>
<path d="M22.0957 3.40952L22.3854 1.60376L22.8092 1.67169L22.698 2.36477L22.992 2.41226L23.1032 1.71857L23.527 1.7865L23.2372 3.59226L22.8134 3.52433L22.9337 2.77293L22.6403 2.72605L22.5195 3.47744L22.0957 3.40952Z" fill="white"/>
<path d="M23.9255 3.76357L24.4888 2.02454L25.4235 2.3269L25.3105 2.67495L24.7839 2.50423L24.6805 2.82462L25.1909 2.98993L25.0779 3.33738L24.5675 3.17207L24.4461 3.54777L25.0003 3.7275L24.8885 4.07555L23.9255 3.76357Z" fill="white"/>
<path d="M26.3894 3.5911L26.5193 3.65662C26.5469 3.67104 26.5728 3.67646 26.5974 3.67405C26.6208 3.67165 26.6425 3.66323 26.6623 3.6494C26.6822 3.63619 26.7002 3.61754 26.7164 3.5947C26.732 3.57246 26.7465 3.54842 26.7585 3.52377C26.7832 3.47568 26.797 3.43541 26.8006 3.40295C26.805 3.37049 26.7989 3.34163 26.7832 3.31759C26.7681 3.29294 26.7441 3.2719 26.711 3.25267C26.6786 3.23343 26.6383 3.21299 26.5914 3.19015L26.3894 3.5911ZM25.9151 4.52944L25.5322 4.33588L26.3564 2.70325L26.9154 2.98517C27.0741 3.06512 27.1745 3.15889 27.2172 3.2671C27.2604 3.3759 27.2406 3.51115 27.1589 3.67345C27.1144 3.76061 27.0627 3.82854 27.0044 3.87663C26.9449 3.92532 26.8667 3.94696 26.7681 3.94335L26.7664 3.94815C26.8139 3.98662 26.8463 4.03291 26.8632 4.08641C26.8788 4.14051 26.8746 4.19642 26.8493 4.25473C26.8349 4.28959 26.8169 4.33107 26.7952 4.38036C26.773 4.42905 26.7508 4.47894 26.7279 4.52944C26.7051 4.58053 26.684 4.62802 26.6642 4.67491C26.6443 4.72119 26.6311 4.75906 26.6233 4.78792C26.6216 4.81797 26.6246 4.84322 26.6323 4.86366L26.6209 4.8853L26.2025 4.6743C26.2056 4.65567 26.2079 4.63764 26.2121 4.62021C26.2165 4.60338 26.2217 4.58654 26.229 4.56971C26.262 4.49578 26.2963 4.42664 26.33 4.36293C26.3636 4.29921 26.3913 4.2403 26.4105 4.1862C26.431 4.1327 26.4388 4.08581 26.4369 4.04614C26.4339 4.00707 26.4105 3.974 26.3672 3.94876L26.241 3.88504L25.9151 4.52944Z" fill="white"/>
<path d="M28.5083 4.59435C28.5246 4.57151 28.5402 4.54807 28.5552 4.52282C28.5708 4.49757 28.5811 4.47293 28.5871 4.44828C28.5925 4.42303 28.5925 4.39839 28.5849 4.37374C28.5777 4.3497 28.559 4.32685 28.5302 4.30582C28.5025 4.28598 28.4761 4.27636 28.4509 4.27636C28.425 4.27758 28.401 4.28418 28.3781 4.2968C28.3565 4.31002 28.3355 4.32746 28.3156 4.3491C28.2958 4.37074 28.2777 4.39298 28.2615 4.41522L27.8215 5.02415C27.8064 5.04519 27.7908 5.06924 27.7752 5.09629C27.7596 5.12274 27.7488 5.14979 27.7421 5.17744C27.7355 5.20509 27.7361 5.23154 27.7434 5.25799C27.7501 5.28384 27.7681 5.30728 27.7957 5.32711C27.8228 5.34695 27.8498 5.35597 27.8763 5.35416C27.9027 5.35176 27.9274 5.34335 27.9508 5.32772C27.9742 5.3133 27.9953 5.29345 28.0157 5.27001C28.0356 5.24596 28.0536 5.22432 28.0686 5.20268L28.5083 4.59435ZM28.4374 5.42449C28.3773 5.50745 28.316 5.57538 28.2541 5.62828C28.1922 5.67997 28.1284 5.71424 28.0605 5.72986C27.9926 5.74549 27.9217 5.74248 27.8471 5.72085C27.772 5.70041 27.6902 5.65713 27.6019 5.59401C27.5135 5.52969 27.4474 5.46477 27.4029 5.40045C27.359 5.33493 27.3332 5.26821 27.3265 5.19848C27.3193 5.12995 27.3309 5.05721 27.3596 4.98147C27.3897 4.90513 27.4354 4.82578 27.4949 4.74283L27.9307 4.13991C28.0347 3.99624 28.1543 3.91629 28.2907 3.90006C28.4278 3.88323 28.5721 3.93012 28.7248 4.04072C28.878 4.15133 28.9664 4.27336 28.9916 4.4062C29.0169 4.53965 28.9772 4.67851 28.8732 4.82218L28.4374 5.42449Z" fill="white"/>
<path d="M28.6311 6.35865L29.9151 5.05603L30.6148 5.74611L30.3581 6.0064L29.9638 5.61747L29.7275 5.85732L30.1099 6.23362L29.8526 6.49451L29.4709 6.11761L29.1931 6.39893L29.6079 6.80829L29.3518 7.06917L28.6311 6.35865Z" fill="white"/>
<path d="M30.5006 7.49353L30.3978 7.57107C30.3773 7.5867 30.3587 7.60353 30.3431 7.62217C30.3269 7.6396 30.3154 7.65944 30.3082 7.68108C30.301 7.70272 30.2998 7.72616 30.3052 7.7496C30.3095 7.77305 30.322 7.79889 30.343 7.82655C30.3731 7.86622 30.4098 7.88425 30.4536 7.88005C30.4975 7.87586 30.5378 7.85961 30.5751 7.83075C30.6069 7.80731 30.6286 7.78206 30.6418 7.75321C30.655 7.72556 30.664 7.6955 30.667 7.66485C30.6701 7.63419 30.6697 7.60173 30.6649 7.56987C30.6614 7.53741 30.6582 7.50435 30.6558 7.47129C30.6456 7.39615 30.639 7.32461 30.636 7.25909C30.6329 7.19297 30.6382 7.12925 30.6516 7.06914C30.666 7.00903 30.6895 6.95312 30.7219 6.90082C30.755 6.84853 30.8037 6.79803 30.8692 6.74934C31.0069 6.64595 31.1385 6.60567 31.2665 6.63032C31.3934 6.65436 31.5076 6.73371 31.608 6.86716C31.6639 6.9411 31.7012 7.01564 31.7204 7.08958C31.7396 7.16351 31.7414 7.23445 31.7264 7.30237C31.712 7.3709 31.6825 7.43522 31.6375 7.49593C31.5918 7.55604 31.5335 7.61014 31.4613 7.65823L31.2245 7.34265C31.2437 7.32581 31.2653 7.30778 31.2882 7.28795C31.3116 7.26871 31.3315 7.24827 31.3465 7.22603C31.3627 7.20439 31.3712 7.17974 31.3742 7.1545C31.3763 7.12925 31.3681 7.1022 31.3495 7.07154C31.3255 7.03427 31.2972 7.01203 31.2648 7.00542C31.2317 6.9982 31.198 7.00542 31.1626 7.02586C31.1145 7.05351 31.085 7.08777 31.0742 7.12745C31.0634 7.16712 31.0592 7.2128 31.061 7.2633C31.0682 7.36008 31.0784 7.44604 31.0893 7.52238C31.1007 7.59872 31.1025 7.67025 31.0953 7.73878C31.0881 7.80731 31.0658 7.87283 31.0304 7.93475C30.9943 7.99606 30.9312 8.06038 30.8422 8.12831C30.7003 8.2347 30.5639 8.27859 30.4328 8.25995C30.3012 8.24012 30.1816 8.15896 30.0746 8.0159C30.0157 7.93835 29.9754 7.86382 29.9525 7.79228C29.9297 7.72075 29.9219 7.65342 29.9291 7.59091C29.9363 7.52839 29.9556 7.47249 29.9868 7.42259C30.0187 7.3727 30.0584 7.32942 30.1065 7.29335L30.2621 7.17553L30.5006 7.49353Z" fill="white"/>
<path d="M10.0969 21.2261C10.2003 21.1683 10.2958 21.1022 10.2285 20.9856C10.1882 20.9141 10.1329 20.8846 10.0554 20.9279C9.96822 20.9778 9.96582 21.0517 9.96161 21.1431C9.95725 21.2387 9.94599 21.4172 9.92135 21.5092C9.89129 21.6234 9.83538 21.6859 9.7368 21.7424C9.5198 21.8656 9.32564 21.7863 9.20662 21.5765C9.06114 21.3204 9.15252 21.1473 9.3569 21.0313L9.44046 20.9832L9.56188 21.1972L9.49456 21.2351C9.38095 21.294 9.31903 21.3733 9.37914 21.4791C9.43023 21.5687 9.50177 21.5843 9.58833 21.5356C9.65626 21.4966 9.68391 21.4407 9.69112 21.3637C9.71455 21.2026 9.69832 21.0283 9.76325 20.8768C9.79509 20.8113 9.84621 20.756 9.90753 20.7217C10.1029 20.6111 10.2718 20.6598 10.4004 20.8858C10.594 21.2261 10.3265 21.3661 10.2141 21.4316L10.0969 21.2261Z" fill="white"/>
<path d="M9.65845 22.266L10.7423 21.52L11.1342 22.0887L10.9755 22.1993L10.7224 21.832L10.4495 22.0196L10.6822 22.358L10.5235 22.4674L10.2908 22.1284L9.9566 22.3592L10.2097 22.7259L10.051 22.8347L9.65845 22.266Z" fill="white"/>
<path d="M10.8036 23.0655C10.7195 23.1358 10.589 23.2554 10.696 23.3847C10.8084 23.5199 10.9485 23.4063 11.0459 23.3258L11.3056 23.11C11.3861 23.0433 11.5695 22.8984 11.4528 22.7577C11.3296 22.6092 11.1631 22.7685 11.0844 22.8329L10.8036 23.0655ZM10.8812 22.6736C11.1457 22.4674 11.3549 22.3285 11.6055 22.6309C11.8568 22.9333 11.6813 23.113 11.43 23.3354L11.2857 23.455C11.0152 23.6786 10.8012 23.8223 10.544 23.5115C10.2861 23.2013 10.4664 23.0168 10.7363 22.7932L10.8812 22.6736Z" fill="white"/>
<path d="M12.4941 23.6341L12.669 23.8079L12.0228 24.4595C11.8178 24.6669 11.6531 24.6987 11.4247 24.4721C11.1939 24.2443 11.2239 24.0802 11.4295 23.8722L12.0751 23.22L12.25 23.3925L11.6188 24.0297C11.5299 24.1198 11.4469 24.2148 11.5659 24.3332C11.679 24.4456 11.7745 24.3615 11.8635 24.2719L12.4941 23.6341Z" fill="white"/>
<path d="M12.0876 25.0504L12.9268 24.0363L13.1156 24.1932L12.4002 25.0582L12.7513 25.3492L12.6287 25.4976L12.0876 25.0504Z" fill="white"/>
<path d="M13.4714 26.1048L14.1627 24.9855L14.3713 25.1141L14.0978 25.5577L14.3905 25.7381L14.6641 25.2951L14.8732 25.4237L14.182 26.5442L13.9728 26.4143L14.289 25.9028L13.9962 25.7224L13.68 26.234L13.4714 26.1048Z" fill="white"/>
<path d="M14.5798 26.7605L15.1683 25.5836L15.7869 25.8925L15.7009 26.0657L15.3024 25.8661L15.1533 26.1624L15.5212 26.3464L15.4346 26.5195L15.0673 26.3356L14.8864 26.6986L15.2849 26.8976L15.1984 27.0701L14.5798 26.7605Z" fill="white"/>
<path d="M16.0797 26.6211L16.26 26.6914C16.3369 26.7161 16.4151 26.6897 16.4626 26.567C16.5161 26.4294 16.468 26.3843 16.382 26.3494L16.2119 26.2833L16.0797 26.6211ZM16.0093 26.8008L15.8037 27.3292L15.5747 27.2391L16.0532 26.014L16.4866 26.1835C16.6844 26.2598 16.8082 26.3873 16.7198 26.6133C16.6675 26.7467 16.578 26.8742 16.4163 26.8357L16.415 26.8387C16.543 26.9096 16.5508 27.0124 16.5045 27.1297C16.4847 27.1808 16.3609 27.4789 16.4023 27.5366L16.3933 27.5589L16.1414 27.4609C16.1445 27.3713 16.2082 27.2228 16.2382 27.1411C16.2665 27.0647 16.308 26.9625 16.2382 26.9084C16.1829 26.867 16.1156 26.8423 16.0501 26.8171L16.0093 26.8008Z" fill="white"/>
<path d="M17.154 27.3232C17.1239 27.4278 17.0842 27.6009 17.2465 27.646C17.4161 27.6935 17.4659 27.5204 17.5002 27.399L17.5916 27.0744C17.6204 26.9734 17.6884 26.7498 17.5128 26.7011C17.3271 26.6482 17.2802 26.8736 17.2525 26.9716L17.154 27.3232ZM16.9947 26.9559C17.0957 26.6355 17.1882 26.4029 17.5669 26.5105C17.945 26.6163 17.903 26.8634 17.8218 27.1886L17.7713 27.3689C17.6763 27.7067 17.5814 27.9466 17.193 27.8372C16.8041 27.7278 16.8486 27.4741 16.9436 27.1363L16.9947 26.9559Z" fill="white"/>
<path d="M18.0471 28.0187L18.2864 26.7245L18.9668 26.8501L18.9314 27.0395L18.4932 26.9583L18.4324 27.2847L18.8364 27.3599L18.8015 27.5492L18.3982 27.4747L18.3243 27.8732L18.7625 27.9544L18.7276 28.1437L18.0471 28.0187Z" fill="white"/>
<path d="M19.7254 27.3389C19.7386 27.2229 19.7392 27.1063 19.6045 27.093C19.5228 27.0858 19.4669 27.1135 19.4585 27.2024C19.4489 27.3016 19.5078 27.3467 19.5799 27.4026C19.6556 27.4609 19.7939 27.5733 19.8558 27.6461C19.9315 27.7362 19.9508 27.8168 19.9394 27.9316C19.9153 28.1792 19.7386 28.2923 19.4999 28.2694C19.206 28.2406 19.117 28.0668 19.1399 27.8324L19.1495 27.7362L19.3935 27.7597L19.3863 27.8372C19.3689 27.9634 19.3984 28.0608 19.5186 28.0716C19.6214 28.0819 19.6761 28.0326 19.6857 27.9328C19.6929 27.8564 19.6628 27.7999 19.6045 27.7506C19.4867 27.6382 19.3346 27.5517 19.2475 27.411C19.2132 27.3479 19.1976 27.2734 19.2042 27.2042C19.2258 26.98 19.3635 26.8706 19.622 26.8953C20.0115 26.9337 19.9718 27.2331 19.961 27.3617L19.7254 27.3389Z" fill="white"/>
<path d="M21.2572 28.1005C21.3083 28.0987 21.3606 28.1017 21.4039 28.0806C21.4694 28.0488 21.4748 27.9622 21.4718 27.8949C21.4664 27.753 21.4363 27.6941 21.2837 27.7007L21.1887 27.7043L21.2043 28.1029L21.2572 28.1005ZM21.2265 27.5096C21.286 27.5078 21.363 27.5078 21.4003 27.4573C21.4219 27.423 21.4231 27.3767 21.4207 27.3136C21.4172 27.215 21.3943 27.1675 21.2819 27.1687L21.1683 27.1729L21.1809 27.5114L21.2265 27.5096ZM20.9663 28.3048L20.9146 26.9896L21.3107 26.974C21.4165 26.9691 21.5199 26.9727 21.5938 27.0593C21.6527 27.1296 21.6641 27.2042 21.6678 27.2937C21.6721 27.4074 21.6527 27.521 21.5211 27.5751V27.5787C21.6599 27.5925 21.7177 27.7061 21.7243 27.8762C21.726 27.9315 21.7256 27.985 21.7128 28.0379C21.6671 28.2069 21.5746 28.2808 21.3996 28.288L20.9663 28.3048Z" fill="white"/>
<path d="M22.3637 27.6809L22.5723 27.6539L22.4587 27.292C22.4389 27.2325 22.4256 27.1742 22.4106 27.1141C22.4046 27.0846 22.398 27.0557 22.3902 27.0281L22.3871 27.0287C22.3871 27.0569 22.3871 27.087 22.3897 27.117C22.3902 27.1783 22.3928 27.2384 22.3884 27.301L22.3637 27.6809ZM22.0674 28.2508L22.2098 26.9049L22.5386 26.8622L23.0039 28.1293L22.7424 28.1624L22.6354 27.8408L22.3499 27.8775L22.3289 28.2165L22.0674 28.2508Z" fill="white"/>
<path d="M23.6472 27.0588C23.6238 26.9439 23.5877 26.8333 23.4561 26.8622C23.3755 26.8802 23.3317 26.9241 23.3509 27.0113C23.3725 27.1092 23.4429 27.1333 23.5288 27.1645C23.6184 27.1964 23.7861 27.2601 23.8672 27.31C23.967 27.3725 24.0103 27.4441 24.035 27.5553C24.0891 27.7987 23.9562 27.961 23.7218 28.0133C23.4332 28.0776 23.295 27.9394 23.2439 27.7098L23.2229 27.6148L23.4627 27.5625L23.4795 27.6376C23.5024 27.7633 23.5601 27.8456 23.6785 27.8198C23.7795 27.7969 23.8156 27.7338 23.7939 27.6352C23.7777 27.5607 23.7314 27.5162 23.6605 27.4873C23.5132 27.4176 23.3419 27.3828 23.2151 27.2752C23.1628 27.2259 23.1255 27.1603 23.1099 27.0924C23.0618 26.873 23.158 26.7257 23.411 26.6692C23.7933 26.5839 23.8486 26.8808 23.8787 27.0071L23.6472 27.0588Z" fill="white"/>
<path d="M24.5133 27.7819L24.116 26.5268L24.7742 26.3182L24.8331 26.5027L24.4081 26.6374L24.5079 26.9536L24.8998 26.8285L24.9581 27.0137L24.5662 27.1375L24.6888 27.524L25.1144 27.3894L25.1721 27.5733L24.5133 27.7819Z" fill="white"/>
<path d="M25.76 27.1405C25.8069 27.1206 25.8574 27.1056 25.8905 27.0708C25.9404 27.0179 25.9157 26.9343 25.8905 26.8736C25.8358 26.7419 25.7871 26.6981 25.6458 26.7564L25.558 26.7924L25.7113 27.1603L25.76 27.1405ZM25.5268 26.5965C25.5821 26.5742 25.6542 26.5484 25.671 26.4877C25.6795 26.448 25.6656 26.4041 25.641 26.3458C25.6037 26.2544 25.5653 26.2178 25.4601 26.2574L25.3549 26.3019L25.4847 26.6145L25.5268 26.5965ZM25.5581 27.4332L25.0537 26.2178L25.4198 26.0657C25.5172 26.0248 25.6158 25.9917 25.715 26.0476C25.7937 26.0933 25.831 26.1589 25.8658 26.2412C25.9097 26.3464 25.9301 26.4606 25.8256 26.5562L25.8269 26.5592C25.9627 26.5243 26.0547 26.6115 26.1208 26.7678C26.1419 26.8183 26.1593 26.8706 26.1665 26.9235C26.1821 27.0984 26.1214 27.1994 25.9591 27.2673L25.5581 27.4332Z" fill="white"/>
<path d="M26.6504 26.3639L26.8367 26.2653L26.6035 25.9665C26.5644 25.9178 26.5326 25.8667 26.4971 25.8162C26.4821 25.791 26.4646 25.7657 26.449 25.7429L26.4455 25.7441C26.4551 25.7706 26.4666 25.7988 26.4786 25.8259C26.5008 25.8836 26.5243 25.9389 26.5423 25.9984L26.6504 26.3639ZM26.571 27.0004L26.2368 25.6894L26.5302 25.5349L27.406 26.5616L27.1728 26.683L26.9606 26.4186L26.7057 26.5532L26.8031 26.8778L26.571 27.0004Z" fill="white"/>
<path d="M27.7132 26.3741L27.0015 25.2674L27.2083 25.134L27.8148 26.0795L28.1989 25.8331L28.3035 25.9954L27.7132 26.3741Z" fill="white"/>
<path d="M28.6263 25.7657L27.8274 24.7204L28.0221 24.5707L28.7038 25.4639L29.0669 25.1862L29.1835 25.3395L28.6263 25.7657Z" fill="white"/>
<path d="M30.1808 23.7736C30.1964 23.7928 30.2145 23.8121 30.2301 23.8307C30.3918 24.0086 30.4658 24.1968 30.2722 24.3898C29.9867 24.6765 29.7865 24.5142 29.5389 24.2659L29.4054 24.1331C29.1758 23.889 29.0177 23.6943 29.2948 23.4159C29.4529 23.2627 29.6194 23.2554 29.7907 23.4015C29.8166 23.4226 29.8424 23.4436 29.8653 23.4689L29.6939 23.6402C29.6272 23.5879 29.5214 23.4701 29.4355 23.5566C29.2996 23.6931 29.4733 23.8446 29.5449 23.9161L29.8039 24.174C29.8803 24.2503 30.0125 24.3693 30.1315 24.2497C30.2271 24.1541 30.0618 24.0123 30.0059 23.9485L30.1808 23.7736Z" fill="white"/>
<path d="M30.7915 23.7946L29.7834 22.9483L29.9415 22.7595L30.8017 23.4821L31.0951 23.1334L31.243 23.2572L30.7915 23.7946Z" fill="white"/>
<path d="M30.7446 21.7028L30.8852 21.5014L31.6384 22.0274C31.8771 22.1939 31.9366 22.3502 31.7533 22.6147C31.5675 22.8804 31.3998 22.8798 31.1605 22.7127L30.4067 22.1873L30.548 21.9859L31.2838 22.4987C31.3872 22.5708 31.496 22.6363 31.5915 22.4992C31.6829 22.3682 31.5843 22.2894 31.4803 22.2161L30.7446 21.7028Z" fill="white"/>
<path d="M32.1861 21.5116C32.2114 21.4672 32.2414 21.4245 32.2474 21.3764C32.2534 21.3037 32.1831 21.2532 32.1254 21.2207C32.001 21.1504 31.9354 21.1462 31.8603 21.2784L31.814 21.3614L32.1609 21.5573L32.1861 21.5116ZM31.6679 21.2261C31.698 21.1744 31.7389 21.1095 31.7148 21.0518C31.6968 21.0145 31.6589 20.9899 31.6042 20.9586C31.5189 20.9099 31.4654 20.9033 31.4076 21.0007L31.3512 21.0993L31.6457 21.2664L31.6679 21.2261ZM32.2077 21.8663L31.062 21.2189L31.2574 20.8733C31.3091 20.7819 31.3668 20.6947 31.4786 20.6785C31.5694 20.6647 31.6391 20.6941 31.7166 20.7374C31.8164 20.7939 31.9018 20.8702 31.8783 21.0109L31.8818 21.0127C31.9666 20.9009 32.0934 20.9129 32.2413 20.9965C32.2894 21.0235 32.3351 21.053 32.3735 21.0914C32.4926 21.2189 32.5076 21.3367 32.4204 21.4894L32.2077 21.8663Z" fill="white"/>
<path d="M20.8069 25.7892C14.8481 25.7892 10.0181 20.9586 10.0181 14.9997C10.0181 9.0414 14.8481 4.21082 20.8069 4.21082C26.7658 4.21082 31.5964 9.0414 31.5964 14.9997C31.5964 20.9586 26.7658 25.7892 20.8069 25.7892Z" fill="#570514"/>
<path d="M24.7244 24.4517C19.5013 26.6145 13.5141 24.1349 11.3507 18.9118C9.18789 13.6899 11.6675 7.70212 16.89 5.5387C22.1125 3.37647 28.1003 5.85548 30.2625 11.078C32.4265 16.3011 29.9469 22.2883 24.7244 24.4517Z" fill="white"/>
<path d="M12.01 10.6482C12.0334 10.5617 12.1026 10.4811 12.1627 10.4661C12.2054 10.4559 12.2324 10.4817 12.2372 10.5274C12.2385 10.5478 12.2359 10.5719 12.23 10.5989C12.1603 10.8418 12.0184 11.6076 12.0184 11.6076C12.0184 11.6076 11.6109 12.0344 11.4179 12.228C11.368 12.2779 11.3139 12.2622 11.2977 12.1937C11.2821 12.1246 11.3109 12.0266 11.3608 11.9749C11.5129 11.8198 11.668 11.6611 11.8279 11.4898C11.8712 11.2049 11.9325 10.9235 12.01 10.6482Z" fill="#7D0521"/>
<path d="M12.3985 10.8279C12.4136 10.7378 12.4851 10.6452 12.556 10.6218C12.6125 10.6031 12.6522 10.6308 12.6606 10.6855C12.6628 10.7029 12.6624 10.7221 12.6589 10.7426C12.6132 11.0011 12.5567 11.7957 12.5567 11.7957C12.5567 11.7957 12.1179 12.3067 11.9069 12.5357C11.851 12.5958 11.7819 12.5898 11.7542 12.5207C11.7259 12.451 11.747 12.3464 11.8029 12.285C11.9664 12.1047 12.1347 11.9099 12.3066 11.708C12.3168 11.4128 12.3468 11.1207 12.3985 10.8279Z" fill="#7D0521"/>
<path d="M12.9472 10.9656C12.952 10.8748 13.0218 10.7738 13.1035 10.7378C13.1751 10.7089 13.231 10.736 13.2436 10.8003C13.2462 10.8129 13.2471 10.8255 13.2466 10.84C13.234 11.0972 13.2821 11.9003 13.2821 11.9003C13.2821 11.9003 12.8253 12.484 12.6016 12.7587C12.5433 12.8309 12.4598 12.8369 12.4141 12.7725C12.3708 12.7082 12.3816 12.5976 12.44 12.5249C12.6167 12.3043 12.7916 12.0855 12.9683 11.8546C12.9395 11.5565 12.9334 11.2577 12.9472 10.9656Z" fill="#7D0521"/>
<path d="M13.6246 11.0119C13.6174 10.9211 13.6847 10.8099 13.7761 10.7648C13.8608 10.7227 13.9366 10.7504 13.9552 10.8255C13.9569 10.8327 13.9583 10.8399 13.96 10.8472C13.9834 11.1075 14.1536 11.8997 14.1536 11.8997C14.1536 11.8997 13.6919 12.5616 13.4587 12.8717C13.398 12.9547 13.2982 12.9721 13.2381 12.9126C13.1786 12.8537 13.1798 12.7383 13.2398 12.6559C13.4183 12.4137 13.5981 12.1576 13.7766 11.8979C13.7027 11.604 13.651 11.3088 13.6246 11.0119Z" fill="#7D0521"/>
<path d="M14.4619 11.0882C14.4499 11.0479 14.4391 11.0071 14.4289 10.9656C14.4048 10.8784 14.4661 10.7594 14.5665 10.7035C14.6669 10.644 14.7691 10.6698 14.7926 10.7582C14.8034 10.7991 14.8148 10.8387 14.8268 10.8778C14.8893 11.087 15.1713 11.7729 15.1713 11.7729C15.1713 11.7729 14.7204 12.5008 14.4896 12.8561C14.4289 12.9499 14.3153 12.9841 14.2347 12.9342C14.1566 12.8837 14.1416 12.7671 14.2017 12.6721C14.3832 12.3884 14.5599 12.1113 14.7331 11.8246C14.6243 11.5805 14.5341 11.3329 14.4619 11.0882Z" fill="#7D0521"/>
<path d="M15.8237 11.6238C15.6403 11.3576 15.4816 11.0865 15.3518 10.8099C15.3115 10.7252 15.3662 10.6032 15.4708 10.5352C15.579 10.4685 15.6974 10.4799 15.7389 10.5641C15.8543 10.8033 16.3142 11.5223 16.3142 11.5223C16.3142 11.5223 15.903 12.3097 15.6782 12.6944C15.6181 12.7972 15.4907 12.8465 15.3939 12.805C15.2977 12.763 15.267 12.6457 15.3266 12.5424C15.4997 12.2424 15.665 11.9328 15.8237 11.6238Z" fill="#7D0521"/>
<path d="M17.0227 11.2974C16.7811 11.0509 16.5659 10.8045 16.3771 10.5508C16.32 10.4739 16.3597 10.3476 16.4679 10.2707C16.5773 10.1931 16.7132 10.1925 16.7715 10.2701C16.9374 10.4871 17.5481 11.1429 17.5481 11.1429C17.5481 11.1429 17.2001 11.964 17.0023 12.3788C16.9476 12.4906 16.8129 12.5567 16.6993 12.5273C16.5857 12.4978 16.537 12.3842 16.5881 12.2736C16.7438 11.9436 16.8887 11.6202 17.0227 11.2974Z" fill="#7D0521"/>
<path d="M17.9475 11.8529C18.0743 11.5132 18.1873 11.1796 18.2853 10.8496C17.9919 10.6368 17.719 10.4114 17.4756 10.189C17.4004 10.1186 17.4245 9.99361 17.5303 9.90825C17.6349 9.82289 17.7846 9.80966 17.8603 9.87939C18.0749 10.0717 18.8209 10.5454 18.8209 10.5454C18.8209 10.5454 18.5696 11.4892 18.4079 11.9166C18.3646 12.0326 18.2264 12.1113 18.0989 12.0945C17.9733 12.0771 17.9042 11.9689 17.9475 11.8529Z" fill="#7D0521"/>
<path d="M19.5302 11.5294C19.3962 11.5222 19.3114 11.4224 19.3427 11.3052C19.431 10.9716 19.5001 10.632 19.5548 10.3056C19.2182 10.121 18.902 9.93828 18.6027 9.73691C18.5125 9.6762 18.5179 9.55477 18.6183 9.46641C18.7181 9.37744 18.8714 9.3534 18.9621 9.41351C19.2212 9.58302 20.0754 9.99539 20.0754 9.99539C20.0754 9.99539 19.945 10.9031 19.832 11.3299C19.7995 11.4471 19.6661 11.5349 19.5302 11.5294Z" fill="#7D0521"/>
<path d="M20.706 10.6644C20.7432 10.3212 20.7697 10.0032 20.7733 9.69059C20.4036 9.54151 20.0466 9.38162 19.7141 9.22473C19.6101 9.17423 19.5951 9.05942 19.6811 8.96805C19.7658 8.87668 19.9215 8.84302 20.0261 8.89231C20.3141 9.02696 21.2512 9.37981 21.2512 9.37981C21.2512 9.37981 21.2468 10.2232 21.2019 10.644C21.1887 10.7582 21.0679 10.855 20.9314 10.8604C20.7949 10.867 20.6934 10.7786 20.706 10.6644Z" fill="#7D0521"/>
<path d="M21.9647 9.94308C21.9562 9.6287 21.9232 9.32273 21.8751 9.02998C21.491 8.91397 21.1147 8.79194 20.7492 8.6609C20.635 8.62062 20.6013 8.51422 20.6735 8.42345C20.745 8.33449 20.8929 8.29421 21.0059 8.33449C21.3179 8.4457 22.3001 8.73363 22.3001 8.73363C22.3001 8.73363 22.4293 9.50366 22.4419 9.898C22.4437 10.0068 22.3409 10.1042 22.2087 10.1168C22.0765 10.13 21.9671 10.0519 21.9647 9.94308Z" fill="#7D0521"/>
<path d="M23.0617 9.19654C22.998 8.90019 22.921 8.62127 22.8243 8.35678C22.4365 8.26781 22.053 8.17584 21.6785 8.07966C21.5601 8.0484 21.5042 7.95343 21.5583 7.86627C21.6094 7.78031 21.7471 7.73402 21.8637 7.76528C22.1841 7.84643 23.1825 8.08026 23.1825 8.08026C23.1825 8.08026 23.4224 8.75833 23.5023 9.12441C23.5246 9.22479 23.444 9.32217 23.3232 9.34261C23.2012 9.36185 23.0834 9.29753 23.0617 9.19654Z" fill="#7D0521"/>
<path d="M23.9567 8.44212C23.8978 8.29064 23.8311 8.14156 23.7584 7.99789C23.7055 7.8921 23.6489 7.7893 23.5894 7.68772C23.2149 7.62821 22.8392 7.56328 22.4611 7.49355C22.3409 7.47131 22.2712 7.38655 22.3049 7.3042C22.3385 7.22365 22.4605 7.17496 22.5778 7.19841C22.9006 7.25912 23.8774 7.43044 23.8774 7.43044C23.8774 7.43044 24.0619 7.73821 24.1443 7.90111C24.2194 8.04839 24.2879 8.20107 24.3499 8.35796C24.3865 8.44753 24.3276 8.5407 24.22 8.56415C24.1118 8.58759 23.9934 8.53409 23.9567 8.44212Z" fill="#7D0521"/>
<path d="M24.6457 7.71533C24.4978 7.47609 24.3415 7.25608 24.1702 7.04809C23.8137 7.00962 23.453 6.96814 23.0912 6.92366C22.9752 6.90862 22.891 6.8365 22.9054 6.76076C22.9186 6.68622 23.0232 6.63813 23.1374 6.65136C23.4476 6.69043 24.38 6.80224 24.38 6.80224C24.38 6.80224 24.8002 7.32581 24.9817 7.61855C24.9847 7.62217 24.986 7.62517 24.9877 7.62937C25.028 7.70632 24.9925 7.78566 24.9054 7.81211C24.8122 7.83976 24.6949 7.79648 24.6457 7.71533Z" fill="#7D0521"/>
<path d="M25.1222 7.02229C24.9527 6.8173 24.7646 6.62435 24.5674 6.44401C24.2398 6.42658 23.9032 6.40494 23.5563 6.37969C23.4463 6.37187 23.3531 6.30936 23.3507 6.24023C23.3464 6.1723 23.4343 6.12361 23.5431 6.13323C23.84 6.15487 24.7075 6.21618 24.7075 6.21618C24.7075 6.21618 25.192 6.66883 25.4048 6.9243C25.4114 6.93212 25.4174 6.93993 25.4216 6.94775C25.4588 7.01086 25.4396 7.07699 25.3711 7.10103C25.2918 7.12748 25.1817 7.09382 25.1222 7.02229Z" fill="#7D0521"/>
<path d="M25.4157 6.38267C25.215 6.20174 25.013 6.03823 24.799 5.88615C24.5008 5.88314 24.19 5.87773 23.8745 5.87111C23.7699 5.86989 23.6701 5.81761 23.6508 5.7557C23.6328 5.69499 23.7007 5.6487 23.8035 5.6505C24.0746 5.65712 24.8729 5.67455 24.8729 5.67455C24.8729 5.67455 25.3983 6.05866 25.6423 6.27987C25.6544 6.29129 25.6658 6.30392 25.6736 6.31594C25.7067 6.36583 25.7013 6.41693 25.6508 6.44097C25.5876 6.46982 25.4825 6.44338 25.4157 6.38267Z" fill="#7D0521"/>
<path d="M29.6043 19.3428C29.5802 19.4287 29.5117 19.5099 29.451 19.5249C29.4089 19.5345 29.3818 19.5093 29.377 19.4636C29.3757 19.4432 29.3784 19.4191 29.3842 19.3921C29.4534 19.1498 29.5958 18.3828 29.5958 18.3828C29.5958 18.3828 30.0034 17.956 30.1963 17.7636C30.2456 17.7119 30.3003 17.7282 30.3166 17.7979C30.3322 17.8664 30.304 17.9644 30.2534 18.0155C30.1008 18.1712 29.9463 18.3299 29.7858 18.5012C29.7425 18.7849 29.6812 19.0675 29.6043 19.3428Z" fill="#7D0521"/>
<path d="M29.2158 19.163C29.2008 19.2526 29.1293 19.3458 29.0577 19.3686C29.0018 19.3872 28.9622 19.3602 28.9531 19.3055C28.9514 19.2881 28.9518 19.2694 28.9553 19.2478C29.0004 18.9893 29.0569 18.1946 29.0569 18.1946C29.0569 18.1946 29.4963 17.6837 29.7073 17.4546C29.7638 17.3939 29.8318 17.4011 29.86 17.4703C29.8877 17.5394 29.8672 17.6446 29.8107 17.7059C29.6478 17.8856 29.4795 18.0804 29.3076 18.2824C29.2974 18.5775 29.2675 18.8703 29.2158 19.163Z" fill="#7D0521"/>
<path d="M28.6671 19.0254C28.6623 19.1156 28.5926 19.2172 28.5109 19.2532C28.4393 19.2821 28.3834 19.255 28.3708 19.1901C28.3677 19.1781 28.3673 19.1649 28.3677 19.1504C28.3803 18.8932 28.3323 18.0895 28.3323 18.0895C28.3323 18.0895 28.7891 17.5064 29.0127 17.2323C29.0711 17.1595 29.154 17.1535 29.2003 17.2184C29.243 17.2822 29.2328 17.3928 29.1744 17.4655C28.9977 17.6855 28.8222 17.9049 28.6454 18.1364C28.6749 18.4339 28.681 18.7339 28.6671 19.0254Z" fill="#7D0521"/>
<path d="M27.9897 18.9785C27.9963 19.0699 27.9296 19.1805 27.8376 19.2261C27.7535 19.2682 27.6771 19.24 27.6585 19.166C27.6572 19.1582 27.6563 19.1504 27.6541 19.1432C27.6307 18.8829 27.46 18.0906 27.46 18.0906C27.46 18.0906 27.9222 17.4288 28.1549 17.1186C28.2162 17.0357 28.316 17.0182 28.3755 17.0783C28.4356 17.1373 28.4338 17.2521 28.3737 17.335C28.1958 17.5773 28.0161 17.8327 27.8369 18.0924C27.9115 18.3864 27.9633 18.6815 27.9897 18.9785Z" fill="#7D0521"/>
<path d="M27.1522 18.9021C27.1642 18.943 27.1751 18.9839 27.1853 19.0254C27.2087 19.1125 27.148 19.2316 27.0476 19.2875C26.9466 19.3458 26.845 19.3205 26.8216 19.2322C26.8102 19.1925 26.7993 19.1522 26.7873 19.1125C26.7242 18.9039 26.4429 18.2175 26.4429 18.2175C26.4429 18.2175 26.8931 17.4895 27.1245 17.1349C27.1853 17.0411 27.2983 17.0062 27.3794 17.0567C27.457 17.1066 27.472 17.2238 27.4119 17.3182C27.2303 17.6019 27.0542 17.8796 26.8805 18.1658C26.9893 18.4092 27.0801 18.6575 27.1522 18.9021Z" fill="#7D0521"/>
<path d="M25.7901 18.3671C25.974 18.6334 26.1327 18.9039 26.262 19.181C26.3022 19.2652 26.2475 19.3872 26.1429 19.4558C26.0347 19.5231 25.9163 19.5099 25.8755 19.4263C25.7594 19.1871 25.3008 18.4681 25.3008 18.4681C25.3008 18.4681 25.7108 17.6813 25.9362 17.2959C25.9963 17.1932 26.1231 17.1433 26.2205 17.1859C26.3161 17.2274 26.3473 17.3452 26.2878 17.448C26.1147 17.7486 25.95 18.0576 25.7901 18.3671Z" fill="#7D0521"/>
<path d="M24.5922 18.693C24.8326 18.9394 25.0478 19.1865 25.2372 19.4396C25.2937 19.5171 25.2546 19.6422 25.1458 19.7197C25.037 19.7978 24.9011 19.799 24.8428 19.7209C24.6769 19.5033 24.0662 18.8481 24.0662 18.8481C24.0662 18.8481 24.4136 18.0276 24.612 17.611C24.6661 17.4998 24.8013 17.4337 24.9149 17.4631C25.0286 17.4926 25.0767 17.6068 25.0256 17.7168C24.8699 18.0468 24.7256 18.3708 24.5922 18.693Z" fill="#7D0521"/>
<path d="M23.6663 18.1369C23.54 18.4778 23.427 18.8114 23.3285 19.1408C23.6224 19.3536 23.8953 19.579 24.1388 19.802C24.2133 19.8717 24.1905 19.9962 24.0841 20.0815C23.9795 20.1675 23.8298 20.1807 23.7535 20.111C23.5389 19.9186 22.7935 19.4462 22.7935 19.4462C22.7935 19.4462 23.0441 18.5018 23.2058 18.0738C23.2491 17.9572 23.3874 17.879 23.5154 17.8965C23.6404 17.9145 23.7096 18.0215 23.6663 18.1369Z" fill="#7D0521"/>
<path d="M22.0836 18.4621C22.2183 18.4682 22.3031 18.5685 22.2712 18.6846C22.1828 19.0194 22.1137 19.359 22.059 19.6854C22.3968 19.8694 22.7124 20.0521 23.0112 20.2535C23.1019 20.3142 23.0965 20.4356 22.9956 20.5246C22.8964 20.6129 22.7425 20.6364 22.6517 20.5769C22.3926 20.4074 21.5391 19.9956 21.5391 19.9956C21.5391 19.9956 21.6689 19.0879 21.7825 18.6605C21.815 18.5439 21.9484 18.4555 22.0836 18.4621Z" fill="#7D0521"/>
<path d="M20.9077 19.3266C20.8705 19.6692 20.844 19.9878 20.841 20.2998C21.2113 20.4489 21.5678 20.6093 21.9002 20.7662C22.0036 20.8161 22.0186 20.9303 21.9333 21.0229C21.8485 21.1137 21.6928 21.148 21.5876 21.0987C21.3003 20.9628 20.3625 20.6112 20.3625 20.6112C20.3625 20.6112 20.3673 19.7678 20.413 19.3464C20.4256 19.2334 20.5459 19.136 20.6823 19.1306C20.82 19.1234 20.921 19.2118 20.9077 19.3266Z" fill="#7D0521"/>
<path d="M19.6498 20.0479C19.6588 20.3617 19.6907 20.6683 19.7388 20.9598C20.1235 21.0764 20.4992 21.1991 20.8646 21.3295C20.9789 21.3698 21.0131 21.4774 20.9416 21.5663C20.8695 21.6571 20.7216 21.6968 20.6086 21.6571C20.2966 21.5453 19.315 21.2574 19.315 21.2574C19.315 21.2574 19.1851 20.4873 19.1719 20.0918C19.1702 19.9836 19.2735 19.8862 19.4051 19.873C19.5374 19.861 19.6474 19.9385 19.6498 20.0479Z" fill="#7D0521"/>
<path d="M18.5521 20.7939C18.6158 21.0914 18.6933 21.3691 18.7901 21.6342C19.1772 21.7238 19.5607 21.8152 19.9358 21.9107C20.0542 21.942 20.1101 22.0376 20.056 22.1241C20.0044 22.2107 19.8679 22.2564 19.7501 22.2257C19.4297 22.144 18.4312 21.9107 18.4312 21.9107C18.4312 21.9107 18.192 21.2327 18.112 20.8666C18.0892 20.7662 18.1697 20.6688 18.2912 20.649C18.4132 20.6285 18.531 20.6929 18.5521 20.7939Z" fill="#7D0521"/>
<path d="M17.657 21.5489C17.7165 21.7004 17.7832 21.8489 17.8554 21.9931C17.9088 22.0989 17.9654 22.2017 18.0243 22.3027C18.3988 22.3628 18.775 22.4271 19.1532 22.4975C19.2728 22.5191 19.3425 22.6039 19.3095 22.6868C19.2758 22.7668 19.1538 22.8155 19.0359 22.792C18.7131 22.7325 17.7369 22.56 17.7369 22.56C17.7369 22.56 17.5524 22.2528 17.47 22.0893C17.3949 21.942 17.3258 21.7894 17.2639 21.6331C17.2278 21.5429 17.2861 21.4497 17.3937 21.4263C17.5025 21.4034 17.6209 21.4569 17.657 21.5489Z" fill="#7D0521"/>
<path d="M16.9688 22.2751C17.1167 22.5143 17.273 22.7337 17.4443 22.9429C17.8007 22.9808 18.1614 23.0222 18.5227 23.0667C18.6387 23.0811 18.7228 23.1539 18.709 23.2296C18.6958 23.3048 18.5912 23.3535 18.4764 23.3396C18.1668 23.3 17.2339 23.1888 17.2339 23.1888C17.2339 23.1888 16.8137 22.6652 16.6322 22.3718C16.6291 22.3682 16.6278 22.3652 16.6268 22.361C16.5865 22.2847 16.6214 22.2047 16.7085 22.1783C16.8023 22.1512 16.9195 22.1945 16.9688 22.2751Z" fill="#7D0521"/>
<path d="M16.4921 22.9681C16.6616 23.1731 16.8498 23.3667 17.0463 23.5464C17.3739 23.5644 17.7106 23.5855 18.058 23.6107C18.1686 23.6185 18.2612 23.6811 18.2642 23.7502C18.2672 23.8187 18.18 23.8668 18.0718 23.8578C17.7743 23.8349 16.9063 23.7742 16.9063 23.7742C16.9063 23.7742 16.4224 23.3216 16.2096 23.0661C16.2029 23.0583 16.197 23.0511 16.1921 23.0427C16.1549 22.9802 16.1747 22.914 16.2432 22.8894C16.3226 22.8635 16.4326 22.8978 16.4921 22.9681Z" fill="#7D0521"/>
<path d="M16.1988 23.6083C16.399 23.7892 16.6015 23.9527 16.8149 24.1036C17.1131 24.1072 17.4245 24.1126 17.7401 24.1198C17.8447 24.1211 17.9438 24.1733 17.9631 24.2353C17.9811 24.2954 17.9138 24.3423 17.8116 24.3399C17.5399 24.3332 16.7416 24.3158 16.7416 24.3158C16.7416 24.3158 16.2162 23.9323 15.9722 23.7105C15.9596 23.6985 15.9487 23.6864 15.9403 23.6756C15.9073 23.6245 15.9139 23.5734 15.9638 23.55C16.0263 23.5217 16.1321 23.547 16.1988 23.6083Z" fill="#7D0521"/>
<path d="M36.8531 9.90343L36.8261 9.90583L35.5216 11.3527L35.2986 10.0453L32.0388 10.3452L31.8632 10.7083C31.5933 10.5448 31.2621 10.4589 30.9009 10.4589C30.8287 10.4589 30.7554 10.463 30.6832 10.4691L28.631 10.6572C27.9698 10.7185 27.2232 11.0588 26.6209 11.5697C26.2843 11.1441 25.7036 10.9259 25.0484 10.9866L22.9955 11.1748L22.996 11.1742L11.5657 12.2249L12.8371 10.8165L7.11024 11.3431L6.77782 12.029L3.49632 12.3295L2.0296 15.3459L2.71006 15.284L0.311035 20.2006L4.02895 19.8597L4.78275 18.3149L5.69104 20.9958L9.18294 20.6754L8.76034 19.4257L10.0515 19.3073L11.6667 15.9975L11.5087 19.1727L14.4956 18.8985L14.5275 18.8955L14.9957 18.2036L14.9639 18.8547L17.9496 18.5806L17.9815 18.5782L18.7016 17.5148C18.7233 17.5593 18.7467 17.6019 18.7726 17.6434C19.096 18.1604 19.6899 18.4201 20.4334 18.3521L22.4712 18.1664C23.1397 18.1045 23.8911 17.763 24.494 17.2491C24.7946 17.6356 25.2694 17.8466 25.8435 17.8466C25.9162 17.8466 25.9914 17.843 26.0683 17.8358L28.1061 17.6488C28.5125 17.6116 28.9399 17.4781 29.3516 17.2623L29.2128 17.5478L32.9307 17.2064L33.1357 16.788L33.3563 18.0804L34.2538 17.0856L37.5647 16.7808L41.1119 9.5127L36.8531 9.90343Z" fill="#570514"/>
<path d="M6.45107 13.6772L6.88388 13.6369L5.9792 14.6396L6.45107 13.6772ZM7.72965 17.7588L7.20609 16.2127L9.99046 13.1266L7.72965 17.7588ZM23.6551 13.3875L22.5598 15.632L21.8271 15.6994L22.9217 13.4548L23.6551 13.3875ZM29.29 12.8705L28.1941 15.1157L27.462 15.1824L28.5566 12.9378L29.29 12.8705ZM37.0841 10.2394L37.0582 10.2424L35.214 12.2856L34.899 10.4396L32.3538 10.674L31.9938 11.417C31.9769 11.3791 31.9571 11.3425 31.9349 11.3076C31.7365 10.9896 31.371 10.8141 30.907 10.8141C30.8492 10.8141 30.7879 10.8171 30.7272 10.8225L28.675 11.0113C27.8887 11.0828 27.0033 11.6064 26.4515 12.3073C26.44 12.1293 26.3895 11.9682 26.3 11.8246C26.1016 11.5066 25.7361 11.3317 25.2709 11.3317C25.2132 11.3317 25.1524 11.3347 25.0923 11.3395L23.0395 11.5288C22.6428 11.5649 22.1992 11.7242 21.7856 11.9755L22.0254 11.6214L19.3511 11.8673L18.0454 13.795L18.1362 11.9779L15.8964 12.1846L14.5914 14.1112L14.6816 12.2953L10.383 12.6914L11.6543 11.283L7.42547 11.6719L7.09186 12.3572L3.81035 12.6577L2.83593 14.6631L3.51821 14.6011L1.11914 19.5171L3.71537 19.279L4.86351 16.9257L6.02487 20.3562L8.53153 20.1254L8.10773 18.8757L9.73737 18.7266L11.8124 14.4761L12.22 14.4376L12.0174 18.5162L14.2566 18.3106L15.561 16.3847L15.472 18.1982L17.7106 17.9933L19.5602 15.2618L19.2164 15.9675C18.9778 16.4568 18.9651 16.9167 19.1815 17.2623C19.3805 17.5803 19.7454 17.7564 20.2083 17.7564C20.2672 17.7564 20.3279 17.7528 20.3892 17.7474L22.4276 17.5605C23.2247 17.4877 24.1167 16.9611 24.6655 16.256C24.6758 16.4364 24.7263 16.6005 24.817 16.7453C25.0406 17.1036 25.4747 17.2809 26.0247 17.2304L28.0625 17.0435C29.0441 16.9533 30.161 16.1683 30.6052 15.2564L31.8856 12.6331L32.0954 12.6138L30.0209 16.8638L32.6171 16.6263L33.3589 15.1091L33.6637 16.8944L35.3372 15.04L34.6549 16.4394L37.2512 16.2007L40.3042 9.94489L37.0841 10.2394Z" fill="#EB008A"/>
<path d="M10.8662 11.6773L7.6346 11.9749L6.98779 13.3057L7.67126 13.2438L4.96924 16.238L6.24782 20.013L8.09745 19.8435L6.84171 16.1376L10.8662 11.6773Z" fill="white"/>
<path d="M37.212 10.5502L35.0095 12.9914L34.6332 10.7859L32.563 10.9764L31.9198 12.3079L32.6333 12.2406L30.5588 16.4929L32.4079 16.3228L33.5085 14.0752L33.8686 16.1887L36.6235 13.1362L35.1929 16.0673L37.0419 15.8978L39.7662 10.3158L37.212 10.5502Z" fill="white"/>
<path d="M10.4034 13.0112L7.67969 18.5932L9.52873 18.4236L12.2536 12.8411L10.4034 13.0112Z" fill="white"/>
<path d="M4.01937 12.9613L3.37257 14.2922L4.05605 14.2303L1.65698 19.1456L3.50602 18.9767L6.55489 12.7287L4.01937 12.9613Z" fill="white"/>
<path d="M22.7689 15.9351L21.289 16.0709L22.713 13.1519L24.1924 13.0166L22.7689 15.9351ZM25.1217 11.6593L23.0689 11.8475C22.2502 11.9226 21.3004 12.57 20.8634 13.3214L19.5042 16.1082C19.1099 16.9167 19.4934 17.5082 20.3596 17.4282L22.398 17.2413C23.2654 17.1613 24.2879 16.4418 24.6823 15.6333L25.9771 12.9794C26.372 12.1703 25.9891 11.58 25.1217 11.6593Z" fill="white"/>
<path d="M28.4033 15.4181L26.9234 15.5539L28.348 12.6355L29.8274 12.4997L28.4033 15.4181ZM30.7567 11.1417L28.7039 11.3305C27.8858 11.4056 26.9354 12.0524 26.4984 12.8044L25.1392 15.5918C24.7449 16.3997 25.1284 16.99 25.9952 16.9113L28.033 16.7243C28.8998 16.6444 29.9229 15.9248 30.3173 15.1163L31.6121 12.4618C32.007 11.6533 31.6241 11.0624 30.7567 11.1417Z" fill="white"/>
<path d="M19.5313 12.1726L17.6684 14.9233L17.7977 12.3313L16.0767 12.4894L14.2144 15.2401L14.3431 12.6487L12.4892 12.8206L11.8418 14.1515L12.5589 14.0848L12.3564 18.1628L14.0762 18.0053L15.9372 15.2564L15.8104 17.8466L17.5308 17.6879L21.3803 12.0025L19.5313 12.1726Z" fill="white"/>
<path d="M4.05603 14.2303L5.30575 13.4795L3.69655 13.6268L3.37256 14.2922L4.05603 14.2303Z" fill="#D1D1D1"/>
<path d="M7.67127 13.2438L9.31172 12.46L7.3112 12.6403L6.98779 13.3057L7.67127 13.2438Z" fill="#D1D1D1"/>
<path d="M10.8662 11.6773L9.31176 12.46L5.91724 16.2224L7.17297 19.9289L6.24786 20.013L8.09749 19.8435L6.84175 16.1376L10.8662 11.6773Z" fill="#D1D1D1"/>
<path d="M33.2795 12.7377L31.808 15.7433L30.5588 16.4929L32.4079 16.3227L33.5085 14.0752L33.2795 12.7377Z" fill="#D1D1D1"/>
<path d="M34.2197 13.8672L35.0096 12.9914L34.6333 10.7859L33.7971 11.3942L34.2197 13.8672Z" fill="#D1D1D1"/>
<path d="M38.5165 11.0666L36.4426 15.3177L35.1929 16.0679L37.0419 15.8978L39.7662 10.3158L38.5165 11.0666Z" fill="#D1D1D1"/>
<path d="M37.622 11.0894L34.4247 14.6306L33.8687 16.1887L36.6236 13.1362L37.622 11.0894Z" fill="#D1D1D1"/>
<path d="M10.9997 13.6003L8.92761 17.8454L7.67969 18.5932L9.52873 18.4236L12.2536 12.8411L10.9997 13.6003Z" fill="#D1D1D1"/>
<path d="M5.30577 13.4795L2.9067 18.3942L1.65698 19.1456L3.50602 18.9767L6.55489 12.7287L5.30577 13.4795Z" fill="#D1D1D1"/>
<path d="M16.6748 16.3907L17.6685 14.9234L17.7977 12.3314L16.8401 13.0569L16.6748 16.3907Z" fill="#D1D1D1"/>
<path d="M16.0046 13.8756L13.6092 17.4138L12.3564 18.1628L14.0763 18.0053L15.9373 15.2564L16.0046 13.8756Z" fill="#D1D1D1"/>
<path d="M19.9959 12.7665L17.0636 17.097L15.8103 17.846L17.5307 17.6879L21.3803 12.0025L19.9959 12.7665Z" fill="#D1D1D1"/>
<path d="M12.5589 14.0848L13.3867 13.3737L12.1658 13.4849L11.8418 14.1515L12.5589 14.0848Z" fill="#D1D1D1"/>
<path d="M32.6331 12.2406L33.7969 11.3942L32.2857 11.5331L31.916 12.3079L32.6331 12.2406Z" fill="#D1D1D1"/>
<path d="M13.2202 16.7075L14.2145 15.2402L14.3431 12.6487L13.3867 13.3737L13.2202 16.7075Z" fill="#D1D1D1"/>
<path d="M23.0371 12.4876L21.7879 13.2366L20.0381 16.8235L21.289 16.0715L22.7131 13.1519L24.1924 13.0166L25.4415 12.267L23.0371 12.4876Z" fill="#D1D1D1"/>
<path d="M25.9884 11.9388L25.4414 12.267L23.6903 15.8551L22.4484 16.6029L20.0379 16.8235L19.4951 17.1511C19.6598 17.3573 19.9574 17.4655 20.3595 17.4282L22.3979 17.2412C22.44 17.2376 22.4839 17.2304 22.5272 17.2238C23.3639 17.0892 24.3071 16.4021 24.6822 15.6333L25.977 12.9793C26.188 12.5465 26.1765 12.1774 25.9884 11.9388Z" fill="#D1D1D1"/>
<path d="M28.6726 11.9707L27.4234 12.7197L25.6736 16.3065L26.9233 15.5539L28.348 12.6355L29.8273 12.4996L31.077 11.7495L28.6726 11.9707Z" fill="#D1D1D1"/>
<path d="M31.6239 11.4218L31.0769 11.75L29.3252 15.3381L28.0839 16.0859L25.6734 16.3065L25.1306 16.6341C25.2953 16.8403 25.5929 16.9473 25.995 16.9112L28.0328 16.7243C28.0755 16.7207 28.1188 16.7135 28.162 16.7068C28.9988 16.5728 29.942 15.8851 30.3171 15.1163L31.6119 12.4617C31.8235 12.0295 31.8114 11.6599 31.6239 11.4218Z" fill="#D1D1D1"/>
</svg>
