<svg width="40" height="30" viewBox="0 0 40 30" fill="none" xmlns="http://www.w3.org/2000/svg">
<path d="M19.624 27.5955L8.66943 21.3748V22.198L19.624 30L30.5782 22.198V21.3748L19.624 27.5955Z" fill="#06141F"/>
<path d="M17.7057 22.7065H21.5455L22.4678 24.634L30.5788 20.456V15.722C23.3621 14.1443 15.8866 14.1443 8.67004 15.7228V20.456L16.781 24.634L17.7057 22.7065Z" fill="#06141F"/>
<path d="M9.99328 5.54613V1.32323H13.0469L14.9848 5.54613H24.264L26.202 1.32323H29.2556V5.54613H30.5789V0H8.67004V5.54613H9.99328Z" fill="#06141F"/>
<path d="M16.7343 7.00623H11.3286C11.4133 7.04371 12.1008 7.28135 12.1008 7.97275L12.0965 12.6688C12.0859 13.3393 12.5804 13.6617 13.5352 13.564C15.0925 13.4102 16.6263 13.3173 18.1915 13.2843V9.89578C17.1711 9.9056 16.2942 9.92757 15.2746 9.9626V11.1008C15.6048 11.0854 15.7809 11.0729 16.1121 11.06V12.2384C15.5341 12.2644 15.0473 12.2983 14.4677 12.3382C14.3163 12.3481 14.2468 12.2983 14.2468 12.1782V8.30586C14.2468 8.2047 14.3194 8.15392 14.4685 8.15221C14.9437 8.14431 15.3728 8.13832 15.8478 8.13312C15.9961 8.13199 16.0567 8.18552 16.0567 8.29934V8.97724C16.7722 8.96439 17.4904 8.95512 18.2054 8.95026L18.2088 8.00027C18.2101 7.37903 17.6773 7.00623 16.7343 7.00623Z" fill="#EA0029"/>
<path d="M31.3674 10.6551V8.18882C31.3532 7.44802 30.7429 7.00678 29.8 7.00629H24.5667C24.6582 7.04465 25.3658 7.27268 25.3658 7.94764L25.3681 13.5625C26.0622 13.6296 26.7965 13.711 27.4875 13.8022V11.3554C27.8351 11.3845 28.2033 11.4162 28.551 11.45C28.9198 12.3184 29.1945 13.1774 29.5624 14.0923C30.2597 14.2107 31.0189 14.371 31.7125 14.5144C31.3261 13.5257 30.9394 12.5654 30.5513 11.6341C31.0806 11.536 31.3759 11.1834 31.3674 10.6551ZM29.2173 8.47125V10.1274C29.2173 10.2501 29.1487 10.3211 29.0006 10.3098C28.4607 10.2695 28.0293 10.2324 27.4875 10.1969V8.21408C28.0285 8.22728 28.454 8.24273 28.994 8.25623C29.1436 8.26187 29.2173 8.32761 29.2173 8.47125Z" fill="#EA0029"/>
<path d="M1.23978 8.63152C2.08071 8.58526 2.88082 8.54081 3.72416 8.50117V15.3811C4.41639 15.1935 5.1748 15.0178 5.87248 14.8537V8.40531C6.37695 8.38406 6.96523 8.36424 7.46887 8.34639V7.00623H0C0.415044 7.57169 0.827978 8.1133 1.23978 8.63152Z" fill="#EA0029"/>
<path d="M37.1085 10.8224C36.4635 10.5334 34.9836 9.86041 34.5268 9.64838C34.3596 9.56959 34.2975 9.43536 34.2975 9.34357V8.6666C34.2952 8.5229 34.3693 8.4526 34.5166 8.46006C35.6145 8.50956 36.8981 8.56495 37.9918 8.62573L39.2477 7.00623H31.3884C31.4965 7.06456 32.2025 7.30706 32.2025 8.10413C32.2025 8.10413 32.2084 8.95904 32.2084 9.41495C32.2084 9.87214 32.4444 10.2395 33.0155 10.5008C33.5849 10.7618 35.4379 11.5568 35.5796 11.6336C35.7644 11.7316 35.7954 11.8277 35.7954 12.1001V13.781C35.7962 14.0094 35.6315 13.9725 35.5779 13.9603C35.2014 13.875 34.8887 13.811 34.5099 13.7311C34.4563 13.7198 34.3217 13.6834 34.319 13.4664V12.3545C33.6362 12.2405 32.9405 12.1337 32.255 12.0366V13.3172C32.2682 14.1397 32.8629 14.7505 33.8039 14.9849C34.6883 15.2013 35.5383 15.437 36.4126 15.6942C37.3434 15.9757 37.8851 15.5915 37.8833 14.5942C37.8899 14.5691 37.8817 12.0844 37.8817 12.0844C37.8799 11.5044 37.7536 11.1141 37.1085 10.8224Z" fill="#EA0029"/>
<path d="M8.58534 8.05178V14.2796C9.29631 14.1494 10.0192 14.0296 10.7348 13.9237V7.00623H7.81702C8.0107 7.06299 8.58534 7.38384 8.58534 8.05178Z" fill="#EA0029"/>
<path d="M18.4319 7.00623C18.5387 7.05519 19.2488 7.28047 19.2488 7.90647C19.2469 9.69562 19.2469 11.4838 19.2459 13.2719C20.9218 13.2634 22.5689 13.3272 24.2397 13.4579V12.3136C23.268 12.2499 22.3089 12.2061 21.335 12.1833V10.747C22.1984 10.7642 23.0588 10.7833 23.9208 10.8207V9.64308C23.0604 9.61698 22.1953 9.59726 21.335 9.58793C21.3373 8.16006 21.335 8.16006 21.335 8.12405C22.2991 8.13096 23.2038 8.13975 24.1669 8.15309V7.00623H18.4319Z" fill="#EA0029"/>
<path d="M12.4011 16.8175C12.4828 16.8065 12.5503 16.8052 12.6075 16.814C12.6648 16.8228 12.7096 16.841 12.7467 16.8691C12.7816 16.8984 12.8093 16.9362 12.824 16.9843C12.8393 17.0321 12.8481 17.091 12.8481 17.1608C12.8481 17.2222 12.8383 17.2771 12.8206 17.3236C12.8023 17.3689 12.7741 17.4093 12.737 17.4458C12.7835 17.4646 12.8206 17.4969 12.8471 17.543C12.8731 17.5891 12.8862 17.6567 12.8862 17.7461C12.8862 17.8213 12.8766 17.8844 12.8545 17.939C12.8348 17.9931 12.8024 18.0387 12.7633 18.0762C12.7229 18.1138 12.674 18.1441 12.6164 18.1659C12.5596 18.1882 12.4942 18.2045 12.4222 18.214C12.2425 18.2373 12.0629 18.2623 11.8832 18.2868V16.8884C12.055 16.8644 12.2285 16.8406 12.4011 16.8175ZM12.3956 17.4013C12.4645 17.3918 12.5136 17.369 12.542 17.3332C12.5712 17.2976 12.5856 17.2518 12.5856 17.1957C12.5846 17.1298 12.5692 17.0853 12.5365 17.062C12.5036 17.0384 12.4567 17.0312 12.3955 17.0395C12.3089 17.0505 12.2241 17.062 12.1365 17.0745V17.4367C12.2241 17.4249 12.3089 17.4123 12.3956 17.4013ZM12.4339 17.9911C12.503 17.9821 12.5524 17.9588 12.5812 17.921C12.6094 17.8845 12.6237 17.8366 12.6237 17.779C12.6237 17.7134 12.6075 17.6668 12.5721 17.6423C12.5386 17.6188 12.4928 17.61 12.4339 17.617C12.3351 17.6308 12.2358 17.6443 12.1365 17.6578V18.0302C12.2359 18.0169 12.3351 18.0039 12.4339 17.9911Z" fill="white"/>
<path d="M13.9511 17.6966C13.7901 17.7134 13.6286 17.7309 13.4688 17.7492C13.433 17.8649 13.3979 17.9806 13.3632 18.0971C13.2727 18.1076 13.1837 18.1184 13.0941 18.1286C13.2443 17.6443 13.3968 17.1609 13.5464 16.6773C13.6553 16.6653 13.7654 16.6537 13.874 16.642C14.0241 17.0917 14.175 17.5441 14.3252 17.9951C14.2358 18.0039 14.1466 18.0127 14.0574 18.0227C14.0204 17.9134 13.9864 17.8048 13.9511 17.6966ZM13.5399 17.5197C13.6521 17.5072 13.7662 17.4945 13.8786 17.4822C13.8227 17.3089 13.7674 17.1353 13.7105 16.962C13.6543 17.1473 13.595 17.3332 13.5399 17.5197Z" fill="white"/>
<path d="M15.4164 16.7612C15.3423 16.7479 15.2708 16.7406 15.204 16.7394C15.1373 16.7367 15.0755 16.7394 15.0173 16.7429C14.9848 16.7464 14.9534 16.7499 14.9239 16.7567C14.8936 16.7617 14.8687 16.772 14.8454 16.7862C14.8224 16.7987 14.8051 16.817 14.7921 16.8378C14.7777 16.8598 14.7717 16.8879 14.7717 16.9227C14.7704 16.9553 14.776 16.9806 14.7865 17.0006C14.7956 17.0204 14.8117 17.0362 14.8338 17.0485C14.8565 17.062 14.8846 17.072 14.9209 17.0798C14.9556 17.0883 14.9991 17.0953 15.05 17.1041C15.1212 17.1168 15.1833 17.1311 15.2375 17.1471C15.293 17.1624 15.3381 17.185 15.3749 17.213C15.4109 17.241 15.4391 17.2753 15.4586 17.3167C15.477 17.3588 15.4881 17.4101 15.4881 17.4712C15.4881 17.6187 15.4425 17.731 15.3522 17.8106C15.2627 17.8902 15.1372 17.9343 14.9789 17.9458C14.9098 17.9496 14.8365 17.9496 14.7585 17.9443C14.6812 17.9393 14.6049 17.9298 14.5308 17.9142V17.7084C14.6165 17.7177 14.6953 17.7234 14.7672 17.7257C14.8378 17.7299 14.9074 17.7284 14.9774 17.7229C15.0621 17.7154 15.1256 17.6936 15.1635 17.6588C15.2039 17.6237 15.2223 17.5693 15.2223 17.4965C15.2223 17.4695 15.2157 17.4476 15.2045 17.4301C15.1942 17.4118 15.1776 17.3973 15.1547 17.3853C15.1331 17.3735 15.1034 17.3645 15.0699 17.358C15.0365 17.351 14.9935 17.3437 14.9488 17.3367C14.878 17.3254 14.8159 17.3114 14.7598 17.2929C14.7039 17.2751 14.6581 17.2506 14.6201 17.221C14.5817 17.1917 14.555 17.1546 14.534 17.1106C14.516 17.0675 14.504 17.0132 14.504 16.9485C14.504 16.8286 14.5429 16.7309 14.6224 16.6561C14.7008 16.5809 14.8248 16.5373 14.9991 16.5221C15.0601 16.5166 15.1276 16.5163 15.1982 16.5203C15.2707 16.5243 15.3435 16.5373 15.4163 16.5539V16.7612H15.4164Z" fill="white"/>
<path d="M15.7819 16.4748C16.0971 16.4528 16.413 16.4338 16.7286 16.416C16.7278 16.4906 16.7278 16.565 16.7286 16.6391C16.5022 16.6516 16.2745 16.6644 16.0481 16.6796V17.0373C16.2671 17.0238 16.4858 17.0105 16.705 16.9987C16.6766 17.0746 16.6469 17.151 16.6178 17.2267C16.4284 17.2377 16.2378 17.248 16.0481 17.2612V17.6318C16.2745 17.6171 16.5022 17.604 16.7286 17.5923C16.7278 17.6661 16.7278 17.741 16.7286 17.8157C16.413 17.8315 16.0971 17.8515 15.7819 17.8735V16.4748H15.7819Z" fill="white"/>
<path d="M17.5656 16.378C17.6458 16.3752 17.7144 16.3815 17.7723 16.395C17.8288 16.4085 17.8768 16.4323 17.9127 16.4639C17.9476 16.4952 17.9747 16.5355 17.9903 16.5851C18.0064 16.6352 18.0137 16.6943 18.0137 16.7637C18.0137 16.8263 18.0053 16.8801 17.9867 16.9244C17.9683 16.9685 17.9397 17.0063 17.9029 17.0384C17.9507 17.0619 17.9867 17.0992 18.0128 17.1471C18.0394 17.1949 18.0529 17.2638 18.0529 17.353C18.0529 17.4284 18.0423 17.4902 18.0214 17.5431C17.9999 17.5954 17.9691 17.6375 17.9289 17.6713C17.8876 17.7058 17.8387 17.7309 17.7804 17.7484C17.7228 17.7647 17.6579 17.7745 17.5868 17.7767C17.4051 17.7838 17.2231 17.7915 17.0425 17.7998V16.4008C17.2169 16.3915 17.3902 16.385 17.5656 16.378ZM17.5585 16.9623C17.6283 16.9595 17.6773 16.9415 17.7067 16.9074C17.7349 16.8754 17.7493 16.8298 17.7493 16.7744C17.7493 16.7093 17.7343 16.6627 17.7002 16.6366C17.6677 16.6096 17.6209 16.5978 17.5585 16.5998C17.4716 16.6033 17.3857 16.6064 17.2982 16.6103V16.972C17.3857 16.9685 17.4716 16.9648 17.5585 16.9623ZM17.598 17.555C17.6677 17.5533 17.7166 17.5337 17.7448 17.4999C17.7736 17.4646 17.7887 17.4201 17.7887 17.3614C17.7887 17.2948 17.7723 17.2475 17.7369 17.2197C17.7036 17.1929 17.6556 17.1796 17.598 17.1824C17.4976 17.1862 17.3986 17.1899 17.2982 17.1931V17.5666C17.3986 17.5628 17.4976 17.5588 17.598 17.555Z" fill="white"/>
<path d="M19.1215 17.4037C18.9606 17.4055 18.7995 17.4085 18.637 17.41C18.6019 17.5235 18.5665 17.6369 18.5314 17.7496C18.441 17.7511 18.3505 17.7534 18.2614 17.7551C18.4124 17.2858 18.5654 16.8169 18.7165 16.3466C18.8256 16.3453 18.9356 16.3441 19.0442 16.3426C19.1958 16.8077 19.3457 17.2728 19.4984 17.7391C19.4082 17.7391 19.3178 17.7391 19.2273 17.7401C19.1925 17.6277 19.1578 17.5159 19.1215 17.4037ZM18.7098 17.1886C18.8231 17.1866 18.9363 17.1848 19.0509 17.1831C18.9932 17.0043 18.9379 16.8257 18.88 16.6464C18.8231 16.8272 18.7654 17.0075 18.7098 17.1886Z" fill="white"/>
<path d="M19.7173 17.7391V16.3386C19.8059 16.3386 19.8949 16.3406 19.9845 16.3406V17.5165C20.1969 17.5175 20.4081 17.521 20.6215 17.5248C20.5917 17.5979 20.5629 17.6723 20.5343 17.7462C20.2621 17.7419 19.9903 17.7391 19.7173 17.7391Z" fill="white"/>
<path d="M20.8567 17.7512V16.3522C20.9451 16.3552 21.0326 16.3572 21.1219 16.3602V17.535C21.3349 17.5408 21.5468 17.5483 21.7584 17.5561C21.7301 17.6302 21.7017 17.7029 21.6724 17.776C21.4004 17.7669 21.1275 17.7579 20.8567 17.7512Z" fill="white"/>
<path d="M23.5685 17.8175C23.4962 17.8346 23.4228 17.8463 23.3526 17.8541C23.2811 17.8629 23.2114 17.8641 23.145 17.8604C23.0438 17.8533 22.9591 17.8313 22.888 17.7915C22.817 17.7509 22.7604 17.6988 22.716 17.6332C22.6722 17.5666 22.6397 17.4902 22.6198 17.4025C22.5996 17.3154 22.5892 17.2199 22.5892 17.1152C22.5892 17.0063 22.5996 16.9074 22.6198 16.8212C22.6397 16.7341 22.6714 16.6619 22.716 16.6021C22.7604 16.5437 22.817 16.4992 22.888 16.4711C22.9591 16.4425 23.046 16.4313 23.145 16.4375C23.2193 16.4425 23.29 16.4531 23.3565 16.4681C23.4219 16.4831 23.494 16.5059 23.5685 16.5355V16.7366C23.5272 16.7261 23.4905 16.7155 23.4568 16.7062C23.4228 16.6985 23.3904 16.6904 23.3599 16.6842C23.3301 16.679 23.2998 16.6747 23.2702 16.6709C23.2405 16.6682 23.2085 16.6644 23.1756 16.6626C23.063 16.6559 22.9808 16.6932 22.9329 16.7743C22.8838 16.8572 22.8598 16.9754 22.8598 17.1305C22.8598 17.2048 22.8643 17.2727 22.8773 17.3331C22.888 17.3942 22.9063 17.4475 22.9329 17.4901C22.959 17.5349 22.9924 17.5692 23.0328 17.5953C23.0721 17.6209 23.1199 17.6356 23.1772 17.6386C23.2084 17.6409 23.2391 17.6409 23.2667 17.6409C23.2968 17.6409 23.3259 17.6409 23.3576 17.6386C23.3877 17.6356 23.4194 17.6326 23.4545 17.6286C23.4882 17.6248 23.5271 17.6198 23.5685 17.6116L23.5685 17.8175Z" fill="white"/>
<path d="M23.847 17.8999V16.5007C23.934 16.5072 24.0216 16.5145 24.1124 16.522V17.6976C24.3233 17.7153 24.5354 17.7336 24.7477 17.7527C24.7175 17.8243 24.6892 17.8967 24.6607 17.9678C24.3887 17.9425 24.1164 17.9204 23.847 17.8999Z" fill="white"/>
<path d="M25.2572 17.5683C25.2572 17.6567 25.281 17.7211 25.3282 17.7614C25.3756 17.8035 25.4359 17.8278 25.5132 17.8348C25.5937 17.8441 25.6568 17.8333 25.7036 17.8025C25.7505 17.7717 25.7737 17.7121 25.7737 17.6235V16.6826C25.8629 16.6921 25.9517 16.7029 26.0428 16.7139V17.6563C26.0428 17.7402 26.029 17.8113 26.0077 17.8679C25.9839 17.9243 25.9497 17.9681 25.9051 18.0004C25.8595 18.033 25.803 18.0528 25.7384 18.0621C25.6732 18.0726 25.598 18.0726 25.5131 18.0626C25.4292 18.054 25.3538 18.0378 25.2889 18.0147C25.2258 17.9912 25.1699 17.9588 25.1264 17.917C25.083 17.875 25.0478 17.8234 25.0264 17.7615C25.0047 17.7014 24.9923 17.6278 24.9923 17.5432V16.6008C25.0806 16.6096 25.1699 16.6179 25.2571 16.6266V17.5683H25.2572Z" fill="white"/>
<path d="M26.909 16.8212C26.9901 16.833 27.0575 16.85 27.1153 16.8738C27.1718 16.8971 27.219 16.9289 27.2536 16.9655C27.2883 17.0031 27.3155 17.0484 27.3312 17.1004C27.3473 17.1533 27.3547 17.2144 27.3558 17.283C27.3558 17.3461 27.3449 17.3979 27.3279 17.439C27.3085 17.4801 27.2816 17.5139 27.2441 17.5382C27.2919 17.5717 27.3279 17.6136 27.3547 17.6662C27.3797 17.719 27.3925 17.7894 27.3925 17.8798C27.3925 17.9539 27.3825 18.0148 27.3622 18.0634C27.3408 18.1117 27.3101 18.1488 27.2703 18.1766C27.2295 18.2044 27.1804 18.2217 27.1227 18.2274C27.0662 18.2344 27.0008 18.2332 26.93 18.2231C26.7502 18.1993 26.5699 18.1758 26.3884 18.1538V16.7548C26.5621 16.7761 26.736 16.7986 26.909 16.8212ZM26.9031 17.4037C26.9713 17.4132 27.0213 17.4037 27.0491 17.3749C27.0781 17.3477 27.0924 17.3058 27.0924 17.248C27.0935 17.1831 27.077 17.1345 27.0444 17.102C27.0115 17.0709 26.9649 17.0504 26.903 17.0426C26.8159 17.0306 26.7299 17.0193 26.6433 17.0088V17.3707C26.73 17.3817 26.8159 17.3929 26.9031 17.4037ZM26.942 18.0038C27.0104 18.0126 27.0597 18.0028 27.0879 17.9732C27.1168 17.9442 27.1317 17.9001 27.1317 17.8427C27.1317 17.7758 27.1146 17.7255 27.0804 17.6924C27.0452 17.6591 26.9995 17.6386 26.942 17.6306C26.8428 17.6168 26.7426 17.604 26.6433 17.5912V17.9644C26.7426 17.9767 26.8428 17.991 26.942 18.0038Z" fill="white"/>
<path d="M20.5362 4.50063L21.3033 2.21313C21.3068 2.20253 21.3093 2.19321 21.3093 2.18654C21.3093 2.15828 21.288 2.14057 21.2599 2.14057H21.1883C21.1799 2.14057 21.1752 2.13336 21.1752 2.1285V1.99815C21.1752 1.99035 21.1798 1.98456 21.1883 1.98456H22.1402C22.1692 1.98456 22.2012 1.98976 22.2118 2.01968L23.0428 4.50067C23.048 4.51147 23.0455 4.53256 23.0329 4.54846C23.0284 4.55572 23.0154 4.5647 22.9951 4.5647H22.3977C22.3693 4.5647 22.337 4.54301 22.3251 4.51196L21.8113 2.91173C21.8113 2.91173 21.8036 2.88789 21.7886 2.88789C21.768 2.88789 21.7621 2.91173 21.7621 2.91173L21.2557 4.51196C21.241 4.54301 21.2123 4.5647 21.1839 4.5647H20.5854C20.5854 4.5647 20.5787 4.5647 20.5745 4.56308H20.5733C20.5631 4.56028 20.5527 4.55572 20.5462 4.54517C20.5362 4.53251 20.5313 4.51745 20.5362 4.50063Z" fill="white"/>
<path d="M19.2076 1.9981C19.2076 1.99329 19.2076 1.98456 19.2172 1.98456H20.0098C20.0395 1.98456 20.0652 2.00953 20.0652 2.03646V4.51137C20.0652 4.54144 20.0405 4.5646 20.0098 4.5646H19.4007C19.3736 4.5646 19.3481 4.54144 19.3481 4.51137V2.19105C19.3481 2.16323 19.3262 2.14052 19.2975 2.14052H19.2172C19.2076 2.14052 19.2076 2.13331 19.2076 2.12845V1.9981Z" fill="white"/>
<path d="M16.4313 1.9981C16.4313 1.9903 16.4385 1.98456 16.4456 1.98456H17.2226C17.2522 1.98456 17.275 2.00953 17.275 2.03646V2.8639C17.275 2.87985 17.2855 2.88882 17.3063 2.88882C17.3063 2.88882 17.3254 2.88882 17.3437 2.86189L17.9219 2.04294C17.9441 2.01012 17.9856 1.98456 18.0172 1.98456H18.6835C18.7012 1.98456 18.7178 1.99388 18.7254 2.01012C18.7359 2.02695 18.7359 2.04745 18.7254 2.06551L17.9823 3.16292V3.16532C17.9788 3.17563 17.9724 3.18612 17.9724 3.19589C17.9724 3.20766 17.9745 3.21311 17.9823 3.22606C17.9931 3.23788 18.8703 4.4783 18.873 4.4812C18.8847 4.50072 18.8881 4.51951 18.8788 4.53722C18.8702 4.55327 18.85 4.56465 18.8368 4.56465H18.1334C18.1001 4.56465 18.0614 4.54149 18.0409 4.50705L17.3437 3.53091L17.3396 3.52822C17.3318 3.51732 17.3242 3.50084 17.3046 3.50084C17.2855 3.50084 17.2751 3.51536 17.2751 3.53499V4.51142C17.2751 4.54149 17.2522 4.56465 17.2226 4.56465H16.6308C16.6004 4.56465 16.5765 4.54149 16.5765 4.51142V2.1911C16.5765 2.16328 16.5566 2.14057 16.5288 2.14057H16.4456C16.4385 2.14057 16.4313 2.13336 16.4313 2.1285V1.9981Z" fill="white"/>
</svg>
