<svg width="39" height="32" viewBox="0 0 39 32" fill="none" xmlns="http://www.w3.org/2000/svg">
<path d="M17.342 23.5665L21.7689 23.4833L19.5424 26.7083C18.8134 25.6564 18.1535 24.557 17.342 23.5665Z" fill="white"/>
<path d="M20.5615 1.96841C20.5141 1.96824 20.4679 1.96908 20.4233 1.97095C17.9896 2.07542 12.964 3.27106 11.1665 4.40964C8.48514 6.10799 10.5648 4.89111 3.74841 10.0634L4.81013 11.5902L4.1227 11.5911L11.5113 21.4426L27.377 21.4291L33.8646 12.1565L34.3738 11.454L35.4162 9.94598C35.4688 9.92492 34.1882 9.57713 33.313 8.14223C32.0779 6.11699 23.5529 1.98021 20.5615 1.96841Z" fill="white"/>
<path d="M4.39482 10.0738H7.00336L6.31687 9.20428C6.31687 9.20428 10.8931 3.07215 19.542 3.07215V1.01276C19.542 1.01276 10.2067 0.326357 3.66272 9.02125L4.39482 10.0738Z" fill="#C30452" stroke="white" stroke-miterlimit="3.7795"/>
<path d="M34.6893 10.0738H32.0807L32.7674 9.20428C32.7674 9.20428 28.1912 3.07215 19.5419 3.07215V1.01276C19.5419 1.01276 28.8774 0.326357 35.4214 9.02125L34.6893 10.0738Z" fill="#231815" stroke="white" stroke-miterlimit="3.7795"/>
<path d="M7.59832 11.3552H4.6154H0.642456V13.0483H3.06781V19.3636H5.12719V13.0483H7.59832V11.3552Z" fill="#C30452" stroke="white" stroke-miterlimit="3.7795"/>
<path d="M21.7844 19.3636H19.7253V11.3552H21.7844V19.3636Z" fill="#C30452"/>
<path d="M16.1099 11.3552V16.2518L15.2864 17.3957L14.4168 16.2518V11.3552H12.3575V16.2518L11.3967 17.3957L10.6184 16.2518V11.3552H8.5592V16.6178L10.6184 19.3636H12.3575L13.3871 17.9906L14.3938 19.3636H16.1099L18.1691 16.6178V11.3552H16.1099Z" stroke="white" stroke-miterlimit="3.7795"/>
<path d="M28.5115 11.3552V15.6616L25.171 11.3552H22.7915L23.432 12.2018V19.3636H25.4912V14.9099L28.8774 19.3636H30.5706V18.5169V18.3109V11.3552H28.5115Z" fill="black" stroke="white" stroke-miterlimit="3.7795"/>
<path d="M37.9843 13.0483V11.3552H32.0353V12.5906V13.0483V14.4668L35.8335 17.0296V17.7848H32.0353V19.478H37.9843V17.7848V16.2518L34.1402 13.689V13.0483H37.9843Z" fill="#241C1C" stroke="white" stroke-miterlimit="3.7795"/>
<path d="M14.4169 23.299L19.5423 30.1175V26.7082L17.2083 23.299H14.4169Z" fill="#C30452" stroke="white" stroke-miterlimit="3.7795"/>
<path d="M24.6675 23.299L19.542 30.1175V26.7082L21.876 23.299H24.6675Z" fill="#231815" stroke="white" stroke-miterlimit="3.7795"/>
<path d="M12.0373 23.5736L9.65759 20.7362H29.427L27.1388 23.5736H12.0373Z" fill="#7D7D7D" stroke="white" stroke-miterlimit="3.7795"/>
<path d="M4.39482 10.0738H7.00336L6.31687 9.20428C6.31687 9.20428 10.8931 3.07215 19.542 3.07215V1.01276C19.542 1.01276 10.2067 0.326357 3.66272 9.02125L4.39482 10.0738Z" fill="#BE0737"/>
<path d="M34.6893 10.0738H32.0807L32.7674 9.20428C32.7674 9.20428 28.1912 3.07215 19.5419 3.07215V1.01276C19.5419 1.01276 28.8774 0.326357 35.4214 9.02125L34.6893 10.0738Z" fill="#1D1D1B"/>
<path d="M7.59824 11.3552H0.642456V13.0483H3.06781V19.3636H5.12719V13.0483H7.59832V11.3552H7.59824Z" fill="#BE0737"/>
<path d="M21.7843 19.3636H19.7252V11.3552H21.7843V19.3636Z" fill="#BE0737"/>
<path d="M16.1099 11.3552V16.2518L15.2864 17.3957L14.4168 16.2518V11.3552H12.3575V16.2518L11.3967 17.3957L10.6184 16.2518V11.3552H8.5592V16.6178L10.6184 19.3636H12.3575L13.3871 17.9906L14.3938 19.3636H16.1099L18.1691 16.6178V11.3552H16.1099Z" fill="#BE0737"/>
<path d="M28.5114 11.3552V15.6616L25.1709 11.3552H22.7914L23.4318 12.2018V19.3636H25.4911V14.9099L28.8773 19.3636H30.5705V18.5169V18.3109V11.3552H28.5114Z" fill="#BE0737"/>
<path d="M37.9843 13.0483V11.3552H32.0353V12.5906V13.0483V14.4668L35.8335 17.0296V17.7848H32.0353V19.478H37.9843V17.7848V16.2518L34.1402 13.689V13.0483H37.9843Z" fill="#BE0737"/>
<path d="M24.6675 23.299L19.542 30.1175V26.7082L21.876 23.299H24.6675Z" fill="#1D1D1B"/>
<path d="M27.9417 20.0039L28.4172 19.4111L28.8774 19.3634H30.5706L30.8681 14.5458L32.0351 14.4668L32.185 14.9117L35.4407 17.1065L35.5139 17.3992L32.0351 17.7848L31.7094 19.1551L32.1628 20.004" fill="white"/>
<path d="M37.9707 10.8295H38.5067V13.572H37.9796L38.2443 13.0888L38.1891 11.2801L37.9707 10.8295Z" fill="white"/>
<path d="M38.2271 15.7873L38.5067 15.9789V16.3195L38.2271 15.7873Z" fill="white"/>
<path d="M37.8914 19.9962L38.5067 20.0039V19.3707L37.8914 19.9962Z" fill="white"/>
<path d="M19.0724 30.3657L19.5158 30.2264L19.9931 30.3881L19.5311 31L19.0724 30.3657Z" fill="white"/>
<path d="M27.5591 23.8881L27.1161 24.099L27.3865 24.095L27.5591 23.8881Z" fill="white"/>
<path d="M11.5766 23.8383L11.7931 24.0977H12.2474L11.5724 23.8333" fill="white"/>
<path d="M9.75053 20.211H8.53748L9.30491 21.1305L9.75053 20.211Z" fill="white"/>
<path d="M29.3656 20.2104H30.519L29.8184 21.088L29.3656 20.2104Z" fill="white"/>
<path d="M3.27708 8.65887L3.01184 9.0093L3.28999 9.4038L3.27708 8.65887Z" fill="white"/>
<path d="M35.8187 8.67859L36.0827 8.98638L35.8232 9.35718L35.8187 8.67859Z" fill="white"/>
<path d="M0.80724 10.8309H0.118286V13.5723H0.839258L0.118286 13.0196V11.3831L0.80724 10.8309Z" fill="white"/>
<path d="M2.54309 19.3381L3.09828 19.8881H2.54309V19.3381Z" fill="white"/>
<path d="M5.10059 19.8881L5.65136 19.35V19.8881H5.10059Z" fill="white"/>
<path d="M29.5111 21.456L30.8942 19.7329L27.6807 19.6983L28.021 20.4597L29.3657 20.2104C29.3618 20.5242 29.3167 20.8438 29.8185 21.088" fill="white"/>
<path d="M15.0983 23.4404L14.0453 23.4744L16.6949 27.109H17.5441L15.0983 23.4404Z" fill="white"/>
<path d="M14.4169 23.299L19.5423 30.1175V26.7082L17.2083 23.299H14.4169Z" fill="#BE0737"/>
<path d="M12.0373 23.5736L9.65759 20.7362H29.427L27.1388 23.5736H12.0373Z" fill="#706E6F"/>
<path d="M15.8236 22.7118C15.922 22.7118 15.9935 22.6944 16.0377 22.6596C16.0819 22.6245 16.1042 22.5805 16.1042 22.5277V22.5043C16.1042 22.4414 16.0809 22.3946 16.0346 22.364C15.9882 22.3332 15.9208 22.308 15.8322 22.2877C15.7679 22.2735 15.7033 22.2586 15.6384 22.2429C15.5733 22.2272 15.5148 22.2037 15.4627 22.1721C15.4107 22.1409 15.3682 22.0984 15.3353 22.0448C15.3025 21.9912 15.2862 21.9194 15.2862 21.8296V21.8017C15.2862 21.7544 15.2953 21.7057 15.3139 21.6549C15.3324 21.6043 15.3632 21.5576 15.406 21.5146C15.4489 21.4717 15.5056 21.4363 15.5763 21.4087C15.6469 21.3809 15.7345 21.3669 15.8386 21.3669C15.9244 21.3669 16.0065 21.3758 16.085 21.3936C16.1635 21.4115 16.242 21.4454 16.3206 21.4954L16.192 21.7074C16.1292 21.6674 16.0707 21.6413 16.0164 21.6291C15.9622 21.6172 15.9044 21.611 15.843 21.611C15.7944 21.611 15.7523 21.6167 15.7166 21.6281C15.6808 21.6397 15.6513 21.6546 15.6277 21.6731C15.6041 21.6916 15.5866 21.7116 15.5752 21.7331C15.5637 21.7544 15.558 21.776 15.558 21.7974V21.8231C15.558 21.8601 15.5669 21.8902 15.5848 21.913C15.6026 21.9357 15.6266 21.9546 15.6565 21.9696C15.6865 21.9847 15.7218 21.9968 15.7625 22.0061C15.8032 22.0155 15.8464 22.025 15.8922 22.035C15.9836 22.0549 16.0603 22.0798 16.1225 22.1089C16.1845 22.1381 16.2346 22.1714 16.2723 22.2085C16.3101 22.2457 16.3373 22.2868 16.3538 22.3317C16.3702 22.3766 16.3784 22.4255 16.3784 22.4784V22.5061C16.3784 22.5919 16.3631 22.6636 16.3324 22.7215C16.3018 22.7794 16.26 22.8257 16.2071 22.8608C16.1542 22.8958 16.0936 22.9208 16.0251 22.9355C15.9566 22.9507 15.8851 22.9581 15.8109 22.9581C15.7551 22.9581 15.7006 22.9536 15.6469 22.9444C15.5934 22.9351 15.5431 22.9225 15.4959 22.9067C15.4489 22.8911 15.4051 22.8723 15.3643 22.85C15.3235 22.8279 15.2882 22.8048 15.2583 22.7805L15.391 22.562C15.4382 22.6022 15.4989 22.6371 15.5731 22.667C15.6472 22.6971 15.7308 22.7118 15.8236 22.7118Z" fill="white"/>
<path d="M18.366 21.3906V21.6176H17.6441V22.033H18.3209V22.2557H17.6441V22.7076H18.381V22.9348H17.3722V21.3906H18.366Z" fill="white"/>
<path d="M19.9787 22.7076C20.0316 22.7076 20.0808 22.7009 20.1265 22.6874C20.1722 22.6736 20.2123 22.6498 20.2463 22.6157C20.2807 22.5815 20.3074 22.5351 20.3267 22.4764C20.346 22.4178 20.3556 22.3442 20.3556 22.2557V22.0695C20.3556 21.9809 20.346 21.9075 20.3267 21.8488C20.3073 21.7904 20.2806 21.7439 20.2463 21.7096C20.2123 21.6754 20.1721 21.6515 20.1265 21.6378C20.0808 21.6244 20.0316 21.6175 19.9787 21.6175C19.9273 21.6175 19.8788 21.6244 19.8331 21.6378C19.7873 21.6515 19.7473 21.6754 19.7131 21.7096C19.6787 21.7439 19.6517 21.7904 19.6316 21.8488C19.6116 21.9075 19.6018 21.981 19.6018 22.0695V22.2557C19.6018 22.3442 19.6117 22.4178 19.6316 22.4764C19.6517 22.535 19.6787 22.5814 19.7131 22.6157C19.7473 22.6498 19.7873 22.6737 19.8331 22.6874C19.8788 22.7009 19.9273 22.7076 19.9787 22.7076ZM19.9787 21.3669C20.0658 21.3669 20.1489 21.3794 20.2284 21.4043C20.3075 21.4295 20.3771 21.4686 20.4372 21.5221C20.4971 21.5758 20.5446 21.6447 20.5796 21.7288C20.6145 21.8133 20.632 21.9151 20.632 22.0351V22.29C20.632 22.4114 20.6145 22.5143 20.5796 22.5994C20.5445 22.6845 20.4976 22.7535 20.4381 22.8061C20.3789 22.8588 20.3096 22.8974 20.2304 22.922C20.1511 22.9461 20.0672 22.9581 19.9787 22.9581C19.8902 22.9581 19.8064 22.9462 19.7271 22.922C19.6477 22.8974 19.5785 22.8588 19.5193 22.8061C19.46 22.7534 19.4129 22.6845 19.3779 22.5994C19.3429 22.5143 19.3254 22.4114 19.3254 22.29V22.0351C19.3254 21.915 19.3428 21.8133 19.3779 21.7288C19.413 21.6446 19.4605 21.5758 19.5204 21.5221C19.5802 21.4686 19.65 21.4295 19.7292 21.4043C19.8084 21.3794 19.8917 21.3669 19.9787 21.3669Z" fill="white"/>
<path d="M22.2019 22.7099C22.2575 22.7099 22.3061 22.7031 22.3475 22.6895C22.3888 22.676 22.4229 22.6531 22.4493 22.6209C22.4757 22.5888 22.4952 22.5467 22.5082 22.4946C22.5211 22.4424 22.5275 22.3785 22.5275 22.3029V21.3906H22.8016V22.2987C22.8016 22.4257 22.7885 22.5313 22.762 22.6156C22.7356 22.6997 22.6971 22.7673 22.6462 22.818C22.5956 22.8687 22.5331 22.9048 22.4589 22.9261C22.3845 22.9477 22.2988 22.9582 22.2019 22.9582C22.1048 22.9582 22.019 22.9477 21.9449 22.9261C21.8704 22.9048 21.808 22.8687 21.7575 22.818C21.7066 22.7673 21.6682 22.6997 21.6419 22.6156C21.6155 22.5313 21.6022 22.4257 21.6022 22.2987V21.3906H21.8763V22.3029C21.8763 22.3786 21.8826 22.4424 21.8955 22.4946C21.9085 22.5467 21.9281 22.5888 21.9545 22.6209C21.981 22.6531 22.0148 22.676 22.0561 22.6895C22.0977 22.7031 22.1461 22.7099 22.2019 22.7099Z" fill="white"/>
<path d="M24.1017 21.3906V22.7035H24.8063V22.9348H23.8275V21.3906L24.1017 21.3906Z" fill="white"/>
<path d="M19.2312 9.42662V8.7166H17.4861V5.7804H16.6437V9.42662H19.2312Z" fill="#706E6F"/>
<path d="M21.0844 8.03685H21.7701V8.67434C21.6438 8.72266 21.3974 8.77082 21.1627 8.77082C20.4044 8.77082 20.1516 8.38541 20.1516 7.60337C20.1516 6.85726 20.3922 6.41792 21.1504 6.41792C21.5718 6.41792 21.8122 6.55032 22.0107 6.80307L22.5345 6.32169C22.2153 5.8646 21.6557 5.72607 21.1322 5.72607C19.953 5.72607 19.3331 6.36976 19.3331 7.59726C19.3331 8.81889 19.8927 9.48075 21.1263 9.48075C21.6919 9.48075 22.2456 9.33629 22.5463 9.12583V7.35673H21.0843L21.0844 8.03685Z" fill="#706E6F"/>
</svg>
