<svg width="46" height="30" viewBox="0 0 46 30" fill="none" xmlns="http://www.w3.org/2000/svg">
<path d="M34.4854 14.9996C34.4854 20.7404 29.8316 25.3948 24.0906 25.3948C18.3498 25.3948 13.6956 20.7405 13.6956 14.9996C13.6956 9.25832 18.3498 4.60437 24.0906 4.60437C29.8316 4.60437 34.4854 9.25832 34.4854 14.9996Z" fill="white"/>
<path d="M24.026 10.4456L24.2779 7.97316C24.303 7.73022 24.5158 7.5026 24.7535 7.47147L28.2846 7.03007C28.3318 7.02632 28.368 7.05982 28.3624 7.11003L28.3114 7.61359C28.3056 7.6639 28.2634 7.70699 28.2157 7.71273L25.7305 8.02257C25.7252 8.02416 25.5914 8.03849 25.4839 8.1479C25.4167 8.21688 25.3764 8.30663 25.3659 8.41653L25.232 9.72382C25.204 9.99601 25.3827 10.044 25.4821 10.0312L28.0115 9.71611C28.0957 9.70544 28.0909 9.77324 28.0888 9.79409L28.0373 10.2956C28.0318 10.3407 27.9882 10.3893 27.9427 10.3986L24.405 10.8411C24.1718 10.8667 24.0003 10.6912 24.026 10.4456Z" fill="#002C69"/>
<path d="M23.2652 7.65671C23.4746 7.63091 23.6255 7.78401 23.6038 7.99591L23.2989 10.9773L22.1514 11.1196L22.4019 8.67688C22.4215 8.43246 22.2115 8.46271 22.2115 8.46271L20.3686 8.6925L20.0958 11.3768L18.915 11.5246L19.2591 8.1575L23.2652 7.65671Z" fill="#002C69"/>
<path d="M28.9651 10.8378C28.9651 10.8378 29.5316 10.6497 29.7872 10.7116L29.8641 10.51C29.6447 10.4035 29.0941 10.5317 29.0941 10.5317C29.0941 10.5317 28.8322 10.0536 28.6443 10.0114L28.5518 10.2395C28.8141 10.3902 28.9651 10.8378 28.9651 10.8378Z" fill="#C7B183"/>
<path d="M26.8218 24.2621C26.8218 24.2621 26.5907 23.9427 26.4458 23.913L26.3779 24.0814C26.581 24.2087 26.7104 24.475 26.7104 24.475C26.7104 24.475 27.2201 24.3693 27.4222 24.4293L27.495 24.2643C27.3223 24.1717 26.8218 24.2621 26.8218 24.2621Z" fill="#C7B183"/>
<path d="M27.8565 21.7305C27.8565 21.7305 27.4117 21.2948 27.226 21.304L27.2007 21.5371C27.4897 21.6256 27.7907 22.0354 27.7907 22.0354C27.7907 22.0354 28.3186 21.6656 28.5804 21.67L28.6185 21.4388C28.3803 21.384 27.8565 21.7305 27.8565 21.7305Z" fill="#C7B183"/>
<path d="M29.3516 10.0957C29.3516 10.0957 29.9159 10.0065 30.1752 10.0413L30.2923 9.80716C30.0629 9.72454 29.4779 9.81675 29.4779 9.81675C29.4779 9.81675 29.2283 9.35944 29.0379 9.3374L28.9453 9.56383C29.2206 9.68718 29.3516 10.0957 29.3516 10.0957Z" fill="#C7B183"/>
<path d="M29.8067 9.36342C29.8067 9.36342 30.2521 9.34108 30.5068 9.39119L30.6394 9.16338C30.4179 9.06632 29.9583 9.08065 29.9583 9.08065C29.9583 9.08065 29.6618 8.71032 29.4888 8.64044L29.3826 8.84374C29.6477 8.98142 29.8067 9.36342 29.8067 9.36342Z" fill="#C7B183"/>
<path d="M30.2118 8.69598C30.2118 8.69598 30.6379 8.65111 30.8873 8.71881L31.0391 8.4827C30.8262 8.37348 30.3823 8.42379 30.3823 8.42379C30.3823 8.42379 30.1457 8.01837 29.9618 7.97241L29.8508 8.15822C30.1042 8.3132 30.2118 8.69598 30.2118 8.69598Z" fill="#C7B183"/>
<path d="M30.6365 8.07019C30.6365 8.07019 31.0122 8.10073 31.2553 8.18365L31.3926 8.0017C31.1874 7.87706 30.7768 7.85581 30.7768 7.85581C30.7768 7.85581 30.5657 7.46235 30.3858 7.40424L30.2703 7.57433C30.5123 7.74413 30.6365 8.07019 30.6365 8.07019Z" fill="#C7B183"/>
<path d="M26.546 24.7557C26.546 24.7557 26.3118 24.441 26.1779 24.4113L26.1155 24.5789C26.3036 24.7062 26.4428 24.9695 26.4428 24.9695C26.4428 24.9695 26.8971 24.8672 27.0852 24.9272L27.152 24.7617C26.9929 24.6692 26.546 24.7557 26.546 24.7557Z" fill="#C7B183"/>
<path d="M27.0956 23.7172C27.0956 23.7172 26.7773 23.3139 26.6088 23.29L26.5466 23.5019C26.7914 23.6379 26.9885 23.9875 26.9885 23.9875C26.9885 23.9875 27.5377 23.7884 27.7748 23.8439L27.8429 23.6349C27.6374 23.5385 27.0956 23.7172 27.0956 23.7172Z" fill="#C7B183"/>
<path d="M27.3898 23.151C27.3898 23.151 26.9932 22.6863 26.8084 22.6808L26.7654 22.9124C27.0438 23.0296 27.3037 23.4518 27.3037 23.4518C27.3037 23.4518 27.8622 23.1165 28.1224 23.1456L28.1746 22.9171C27.9427 22.8393 27.3898 23.151 27.3898 23.151Z" fill="#C7B183"/>
<path d="M27.6433 22.4228C27.6433 22.4228 27.2248 21.9694 27.04 21.9709L27.0042 22.2029C27.2872 22.3068 27.5671 22.7248 27.5671 22.7248C27.5671 22.7248 28.1124 22.3742 28.3735 22.3924L28.4186 22.1614C28.1842 22.0941 27.6433 22.4228 27.6433 22.4228Z" fill="#C7B183"/>
<path d="M19.4993 7.50789L19.6915 7.34333C19.5304 7.25141 19.3598 6.71879 19.3598 6.71879C19.3598 6.71879 18.9872 6.70772 18.8169 6.65533L18.5715 6.83126L19.159 6.90025C19.159 6.90025 19.2958 7.4049 19.4993 7.50789Z" fill="#C7B183"/>
<path d="M20.1627 7.03807L20.3645 6.88517C20.1601 6.78219 20.0223 6.27249 20.0223 6.27249C20.0223 6.27249 19.6393 6.23464 19.4965 6.15112L19.2983 6.30363C19.4285 6.40513 19.8287 6.44664 19.8287 6.44664C19.8287 6.44664 19.9511 6.94922 20.1627 7.03807Z" fill="#C7B183"/>
<path d="M18.8636 8.04117C18.9164 7.988 18.9784 7.92909 19.039 7.87621C18.8528 7.64375 18.7877 7.20394 18.7877 7.20394C18.7877 7.20394 18.3526 7.18516 18.144 7.17261C18.0799 7.23003 17.9893 7.34211 17.9893 7.34211L18.562 7.40932C18.562 7.40932 18.6767 7.82946 18.8636 8.04117Z" fill="#C7B183"/>
<path d="M18.3343 8.6321C18.3864 8.57932 18.4469 8.51181 18.5087 8.45864C18.3218 8.22489 18.2303 7.7495 18.2303 7.7495C18.2303 7.7495 17.8122 7.73122 17.6054 7.71777C17.5394 7.77559 17.4833 7.82323 17.4502 7.88836L18.0113 7.95003C18.0113 7.95003 18.1467 8.42148 18.3343 8.6321Z" fill="#C7B183"/>
<path d="M20.8048 6.56543L21.02 6.4237C20.7687 6.37221 20.6421 5.82199 20.6421 5.82199C20.6421 5.82199 20.3048 5.81814 20.1922 5.74371C20.1054 5.79056 20.0144 5.82308 19.9275 5.87941C20.0554 5.94089 20.4328 5.97005 20.4328 5.97005C20.4328 5.97005 20.6122 6.47994 20.8048 6.56543Z" fill="#C7B183"/>
<path d="M17.9285 9.07434C17.7526 8.8825 17.5977 8.39178 17.5977 8.39178C17.5977 8.39178 17.2025 8.41125 16.9936 8.40621L16.8101 8.60092C17.0173 8.63522 17.3948 8.61663 17.3948 8.61663C17.3948 8.61663 17.5236 9.04271 17.7636 9.28881L17.9285 9.07434Z" fill="#C7B183"/>
<path d="M21.4215 6.0614C21.4764 6.02097 21.6203 5.94319 21.6203 5.94319C21.39 5.85355 21.3745 5.45297 21.3745 5.45297C21.3745 5.45297 20.8684 5.44477 20.7504 5.38922C20.6784 5.43696 20.6014 5.46266 20.5325 5.52117C20.6288 5.6029 21.1412 5.62593 21.1412 5.62593C21.1412 5.62593 21.1948 6.01346 21.4215 6.0614Z" fill="#C7B183"/>
<path d="M16.5093 9.09274C16.45 9.17348 16.4055 9.22429 16.3486 9.30424L16.8862 9.33034C16.8862 9.33034 17.0001 9.82461 17.1815 10.0005L17.3325 9.77677C17.1789 9.59581 17.0808 9.09076 17.0808 9.09076C17.0808 9.09076 16.6899 9.10707 16.5093 9.09274Z" fill="#C7B183"/>
<path d="M16.5033 9.84271C16.5033 9.84271 16.1613 9.88995 15.9832 9.84686L15.8306 10.0352C15.9715 10.0862 16.3471 10.0871 16.3471 10.0871C16.3471 10.0871 16.5421 10.734 16.6955 10.8134L16.835 10.5706C16.6379 10.4084 16.5033 9.84271 16.5033 9.84271Z" fill="#C7B183"/>
<path d="M15.5211 10.6563L15.3811 10.8761L15.8846 10.8756C15.8846 10.8756 16.0059 11.405 16.2248 11.573L16.3569 11.3391C16.2115 11.1843 16.0604 10.6435 16.0604 10.6435L15.5211 10.6563Z" fill="#C7B183"/>
<path d="M15.0768 11.5112L14.9727 11.7455L15.4644 11.7194C15.4644 11.7194 15.6601 12.2039 15.8421 12.3734C15.8909 12.293 15.9152 12.1831 15.9589 12.1041C15.7439 11.8953 15.6067 11.4863 15.6067 11.4863L15.0768 11.5112Z" fill="#C7B183"/>
<path d="M21.7494 5.24896C21.7732 5.4571 21.9853 5.67177 21.9853 5.67177L22.1657 5.5509C22.0028 5.41382 21.9371 5.12472 21.9371 5.12472L21.6096 5.08815C21.4453 5.07886 21.0967 5.20043 21.0967 5.20043C21.2602 5.1948 21.7494 5.24896 21.7494 5.24896Z" fill="#C7B183"/>
<path d="M45.2672 9.52191C45.2151 9.52775 39.6109 10.1181 39.6109 10.1181C38.9954 10.1828 38.4071 10.4171 37.8902 10.7678C36.0818 4.86194 30.5883 0.567261 24.0891 0.567261C17.7066 0.567261 12.2953 4.7126 10.3915 10.4571C8.82992 10.6148 4.8776 11.0287 4.8776 11.0287C2.00121 11.3317 1.18641 13.5684 0.957806 14.876C0.760235 15.9968 0.858477 16.7878 0.870041 17.0095C0.871424 17.0471 0.885953 17.093 0.910859 17.1007C0.944859 17.1117 0.991015 17.0938 1.05012 17.0261C1.11387 16.9527 2.18633 15.6249 2.34466 15.4494C2.5027 15.2743 3.18812 14.4548 4.52545 14.3146L9.05724 13.8368C9.04815 13.9327 8.46235 19.0528 8.46235 19.0528C8.36085 19.7274 7.91599 20.1454 7.08597 20.2943C7.08597 20.2943 7.79749 14.0963 7.79828 14.0861C7.80115 14.0759 7.79828 14.0632 7.78128 14.0663C7.76319 14.0698 6.75517 14.2417 6.75517 14.2417C5.1667 14.5837 3.81977 16.0638 3.62359 17.6816L3.27786 20.691C2.32262 20.7884 1.69689 20.7006 1.30472 20.67C1.17208 20.6611 1.04755 20.6446 0.9413 20.632C0.89722 20.6263 0.86332 20.668 0.88793 20.7047C1.04952 20.9557 1.43548 21.6383 1.93499 22.1656C2.60914 22.8807 3.59324 23.2356 4.81445 23.2356L7.85195 22.961C9.66685 22.7695 10.7531 22.3958 11.4178 21.9095C13.8667 26.3914 18.6228 29.4317 24.0891 29.4317C30.4756 29.4317 35.8887 25.2824 37.7907 19.534C39.6274 19.3411 41.3723 19.1567 41.3723 19.1567C44.1707 18.8619 44.2776 17.5426 44.3355 16.8342C44.3413 16.7675 44.4731 15.6146 44.4901 15.2911C44.5453 14.4331 43.9164 13.6618 42.9993 13.4589C42.6276 13.3763 41.1159 13.1135 40.1468 12.947C40.17 12.9295 40.1925 12.9214 40.2053 12.9184L42.9309 12.6274C43.8789 12.5277 44.6164 11.8316 44.9576 10.7169L45.3107 9.56333C45.3109 9.56323 45.3179 9.51529 45.2672 9.52191ZM24.0901 25.6374C20.8937 25.6373 18.0288 24.2256 16.0786 21.9936C16.1956 21.982 16.2827 21.9723 16.3278 21.9678C16.3528 21.9657 16.367 21.9472 16.3711 21.9135C16.4614 21.1738 17.5079 12.5952 17.51 12.5785C17.5104 12.5603 17.4888 12.5533 17.4728 12.5562C17.4572 12.5586 16.9035 12.6591 16.3857 12.7573C16.0916 12.8138 15.8013 12.9173 15.5225 13.0573C15.5254 13.0452 15.5281 13.0335 15.5308 13.0247C15.3151 12.8191 15.2757 12.3562 15.2757 12.3562L14.6829 12.4416L14.612 12.67L15.0838 12.6014C15.0838 12.6014 15.1119 12.9215 15.2984 13.1803C14.4984 13.651 13.8175 14.4284 13.46 15.3063C13.4572 15.2036 13.4523 15.1017 13.4523 14.9989C13.4523 9.12302 18.2151 4.36124 24.0902 4.36045C28.4722 4.36045 32.2337 7.00973 33.8638 10.7935C32.2074 10.9683 30.2119 11.1794 30.2119 11.1794C29.9615 11.2054 29.7161 11.2625 29.4776 11.3403L29.506 11.2566C29.2823 11.1652 28.7395 11.3315 28.7395 11.3315C28.7395 11.3315 28.4353 10.8625 28.2469 10.8334L28.1632 11.0627C28.4321 11.1954 28.624 11.6377 28.624 11.6377C28.624 11.6377 28.8497 11.5497 29.0795 11.4971C28.8129 11.6196 28.5592 11.771 28.3225 11.9489C28.2053 11.8179 28.0469 11.664 27.939 11.6545L27.8658 11.8859C27.9634 11.9267 28.0553 12.0091 28.1344 12.0976C27.3574 12.7549 26.8044 13.6948 26.6803 14.715C26.6803 14.715 25.9486 20.7269 25.9445 20.7705C25.9396 20.8138 25.9369 20.8508 25.9975 20.8473C26.0155 20.8459 26.5976 20.7847 27.3864 20.7015L27.3834 20.7652C27.6771 20.834 28.0093 21.2286 28.0093 21.2286C28.0093 21.2286 28.5124 20.8328 28.7733 20.8183L28.7995 20.5871C28.5591 20.5476 28.0562 20.922 28.0562 20.922C28.0562 20.922 27.891 20.7795 27.7172 20.6666C29.4321 20.4862 31.8112 20.2336 31.8112 20.2336C32.5229 20.159 33.198 19.859 33.7672 19.4121C33.7243 19.4994 33.6898 19.5775 33.6623 19.6442C31.9375 23.1918 28.2998 25.6373 24.0901 25.6374ZM31.8429 13.8673L31.466 16.9644C31.4353 17.1541 31.3686 17.3912 31.2069 17.4377L30.1822 17.5456L30.5591 14.4495C30.5877 14.2563 30.6567 14.0208 30.8166 13.9745L31.8429 13.8673ZM40.5326 15.9168L40.5093 16.0437C40.4912 16.1364 39.4655 16.3189 38.4402 16.5317C38.4726 16.2231 38.4939 15.9116 38.5068 15.5979C39.5582 15.7633 40.5326 15.9168 40.5326 15.9168Z" fill="#C7B183"/>
<path d="M26.7428 11.6101C26.6994 11.6144 20.9317 12.2213 20.9317 12.2213C19.1689 12.4086 17.6178 13.962 17.398 15.7594C17.398 15.7594 16.6575 21.8476 16.6554 21.8614C16.6538 21.8753 16.6679 21.8894 16.6874 21.8866C16.7031 21.8852 20.1043 21.5327 20.5101 21.4922C20.5351 21.4896 20.5502 21.4616 20.554 21.4447C20.5567 21.4273 21.2893 15.3906 21.2893 15.3906C21.3237 15.2464 21.3908 15.0631 21.5189 15.0225L22.5619 14.9127C22.5619 14.9127 21.7991 21.1804 21.7873 21.2724C21.7804 21.3233 21.8061 21.3542 21.8572 21.3499C22.4077 21.2916 25.6042 20.9547 25.6203 20.9524C25.6366 20.9514 25.6746 20.9331 25.6765 20.9042C25.7598 20.2306 26.7971 11.7185 26.7997 11.6708C26.8067 11.6215 26.7905 11.6044 26.7428 11.6101Z" fill="#C7B183"/>
<path d="M12.4201 11.3346C11.9999 10.9012 11.4115 10.6993 10.7319 10.7718L4.89252 11.389C2.85513 11.6021 1.74304 13.011 1.40898 14.1525C1.20162 14.8667 1.16169 15.3025 1.13748 15.5934C1.13748 15.5934 1.09715 16.2598 1.10634 16.4675C1.10634 16.4968 1.10486 16.5095 1.12176 16.5179C1.13155 16.5223 1.14558 16.5191 1.16574 16.4975C1.27436 16.3767 1.54774 15.9973 1.61317 15.9143C1.83664 15.637 2.24818 15.1128 2.51968 14.8788C2.85859 14.5871 3.56546 14.0818 4.51418 13.9821L9.2294 13.486C9.31341 13.4754 9.36757 13.4918 9.3736 13.5021C9.44614 13.5763 9.40473 13.7172 9.40473 13.7172L8.80391 19.0831C8.67395 19.9642 8.00483 20.4924 6.74212 20.6546C6.74212 20.6546 7.42477 14.5294 7.42734 14.5053C7.42961 14.4757 7.41311 14.4593 7.38118 14.4656C7.34867 14.4717 6.80646 14.5842 6.80646 14.5842C5.36524 14.8938 4.14532 16.2335 3.96564 17.6988L3.66548 20.3229L3.5789 20.9856L3.40782 21.005C3.06179 21.0413 2.62307 21.0665 1.74709 21.005C1.59488 20.9943 1.51839 20.9766 1.50079 20.9994C1.48804 21.0221 1.49526 21.0493 1.53885 21.123C1.55673 21.1542 1.90226 21.8075 2.65133 22.3576C3.11754 22.6985 3.85534 22.8893 4.78795 22.8893C5.30011 22.8893 5.84282 22.8402 6.35518 22.7853L7.13864 22.7025C10.7848 22.3178 11.8958 21.8338 12.2151 19.3611L12.9565 13.095C13.0418 12.4013 12.8514 11.7769 12.4201 11.3346Z" fill="#002C69"/>
<path d="M10.75 11.1127L4.90965 11.729C1.93066 12.0424 1.56477 14.8555 1.5456 14.9692C1.52425 15.0829 1.47602 15.5377 1.47295 15.5716C1.46673 15.604 1.48007 15.6173 1.50557 15.584C1.53235 15.5483 1.87244 15.1015 1.87244 15.1015C1.88005 15.089 2.8435 13.8408 4.49592 13.6671L9.21292 13.17C9.39261 13.1508 9.52989 13.1862 9.61785 13.2795C9.79388 13.4651 9.73813 13.8318 9.68328 14.2199C9.66895 14.314 9.1304 19.1262 9.1304 19.1262C8.90387 20.7014 7.1622 20.8856 6.58816 20.9452L6.42311 20.9633C6.42311 20.9633 7.0855 14.8745 7.08678 14.848C7.08827 14.8213 7.06257 14.811 7.03697 14.8166C7.01295 14.8224 6.85077 14.8569 6.85077 14.8569C5.52628 15.143 4.4046 16.3719 4.24142 17.7156L3.79953 21.2388C3.47505 21.2692 3.11737 21.298 2.81108 21.298C2.62547 21.298 2.0456 21.258 2.00142 21.2537C1.96011 21.2498 1.94874 21.2725 1.97424 21.3021C1.99984 21.3331 2.18348 21.5637 2.18348 21.5637C2.78598 22.2788 3.67796 22.6486 4.72977 22.5964C5.78068 22.5461 6.54912 22.4383 7.30145 22.3726C9.48907 22.1784 11.5528 21.9584 11.8933 19.3549L12.6329 13.0831C12.7053 12.4907 12.5436 11.957 12.1818 11.5853C11.8326 11.2251 11.3129 11.0522 10.75 11.1127Z" fill="#1F478F"/>
<path d="M40.1612 12.5882L42.9185 12.2959C43.6105 12.2224 44.244 11.6446 44.5036 10.9955C44.6032 10.7448 44.7852 10.096 44.8271 9.94638C44.832 9.92582 44.8164 9.91742 44.7924 9.91871C44.7683 9.92385 39.6244 10.4775 39.6244 10.4775C38.0538 10.6433 36.6159 12.0819 36.4222 13.6834C36.4222 13.6834 36.2878 14.8658 36.2862 14.8778C36.2862 14.8888 36.291 14.8953 36.2989 14.8963C36.3042 14.8977 40.9167 15.68 40.9167 15.68C40.9167 15.68 40.8825 15.8736 40.8386 16.1706C40.7919 16.4662 38.7992 16.7042 37.9938 16.935C36.7762 17.283 35.5526 17.5855 34.418 18.9388C34.2453 19.1466 34.1131 19.4389 34.0422 19.5499C34.0277 19.5739 34.037 19.6035 34.072 19.6008C34.1101 19.5978 41.4781 18.8128 41.4781 18.8128C42.991 18.6536 43.8231 18.079 43.9504 17.1064L43.9652 16.988C44.0211 16.5813 44.1207 15.8231 44.1489 15.3071C44.191 14.6228 43.6568 13.979 42.9064 13.8112C42.4527 13.7119 40.2925 13.3406 39.6434 13.2306C39.7248 12.868 39.903 12.6515 40.1612 12.5882Z" fill="#002C69"/>
<path d="M40.1303 12.2765L42.902 11.9814C43.7891 11.887 44.1692 11.0623 44.3187 10.5808C44.3187 10.5808 44.3819 10.3673 44.3849 10.347C44.3891 10.3264 44.3743 10.32 44.3458 10.3225C44.3181 10.3248 39.6434 10.8185 39.6434 10.8185C38.2215 10.9676 36.9247 12.2713 36.7471 13.7252C36.7471 13.7252 36.6401 14.6348 36.6396 14.6454C36.6396 14.6559 36.6445 14.6636 36.6537 14.6656C36.6638 14.6663 41.2693 15.4832 41.2693 15.4832C41.2675 15.511 41.2628 15.5491 41.26 15.5741L41.2055 16.0213C41.1032 16.6504 40.6541 16.7356 38.7868 17.0836C38.3472 17.1658 35.7621 17.7504 34.8626 18.8937C34.767 19.0194 34.6985 19.1158 34.6621 19.1751C34.6372 19.2153 34.6475 19.2342 34.6887 19.2309C35.1683 19.1769 40.3187 18.6224 41.0164 18.5488C42.6428 18.3775 43.4485 18.1013 43.6286 16.9868C43.7307 16.3441 43.7965 15.782 43.8233 15.3168C43.8555 14.7834 43.4257 14.2827 42.8209 14.1474C42.3012 14.0325 39.3887 13.5358 39.3605 13.5323C39.3354 13.5288 39.2775 13.4982 39.2821 13.4408C39.374 12.6148 39.791 12.3509 40.1303 12.2765Z" fill="#1F478F"/>
<path d="M39.8717 11.2171L44.0553 10.775C44.091 10.6857 44.1215 10.6005 44.1435 10.5276L39.6655 11.0005C38.3221 11.1412 37.0954 12.3739 36.9303 13.7454L36.8416 14.5125L37.0699 14.5536L37.138 13.9606C37.3168 12.5115 38.5303 11.3584 39.8717 11.2171Z" fill="white"/>
<path d="M39.5387 13.9306C39.8411 13.9806 42.5081 14.436 42.9908 14.5433C43.1765 14.584 43.3433 14.6653 43.4782 14.7729C43.3246 14.5579 43.08 14.3834 42.7829 14.3254C42.2748 14.2277 39.6325 13.7652 39.3294 13.7119C39.3236 13.7119 39.3181 13.7095 39.3149 13.709C39.3342 13.8267 39.4335 13.9119 39.5387 13.9306Z" fill="white"/>
<path d="M41.594 16.2674L41.6456 15.8536C41.663 15.7146 41.6983 15.5569 41.5635 15.5307L41.4512 15.5104C41.4481 15.5521 41.3858 16.0501 41.3858 16.0501C41.2524 16.8635 40.9182 16.8843 38.82 17.2629C38.0161 17.4098 35.5448 18.1803 35.0193 18.9924C35.1705 18.9761 35.3191 18.9622 35.4645 18.9468C36.2726 18.2346 38.3113 17.6098 39.0289 17.4804C41.1289 17.1027 41.4617 17.0787 41.594 16.2674Z" fill="white"/>
<path d="M16.11 13.2C14.8708 13.5656 13.719 14.9249 13.5552 16.2704C13.5552 16.2704 12.8708 21.8908 12.8668 21.9383C12.8647 21.986 12.8965 21.9971 12.9263 21.9957C12.9536 21.9914 15.776 21.6944 16.0418 21.6665C16.0538 21.6641 16.062 21.6556 16.0642 21.6419C16.1257 21.1465 17.1157 12.996 17.1167 12.9765C17.1173 12.9618 17.1002 12.9425 17.0766 12.9496C17.0545 12.9542 16.6021 13.0543 16.11 13.2Z" fill="#002C69"/>
<path d="M16.4882 13.4465C15.1656 13.7318 14.0453 14.96 13.8812 16.3057C13.8812 16.3057 13.243 21.5639 13.2392 21.5946C13.2319 21.6272 13.2419 21.6445 13.2904 21.6406C13.3342 21.6339 15.5302 21.4026 15.7517 21.3802C15.7645 21.3781 15.7697 21.3709 15.7712 21.3589C15.8247 20.9236 16.7343 13.442 16.7354 13.4258C16.7391 13.41 16.7263 13.3951 16.7058 13.3991C16.6852 13.4042 16.4882 13.4465 16.4882 13.4465Z" fill="#1F478F"/>
<path d="M16.4949 13.907L16.5296 13.6241C15.2896 13.894 14.2188 15.0589 14.0646 16.328L13.4419 21.4406L13.6803 21.4155L14.2717 16.5433C14.4128 15.2634 15.3619 14.2638 16.4949 13.907Z" fill="white"/>
<path d="M20.9449 12.5816C19.3723 12.7478 17.9348 14.1874 17.7386 15.7917C17.7386 15.7917 17.0476 21.4717 17.0462 21.4883C17.0434 21.5081 17.0515 21.5222 17.0738 21.5196C17.0956 21.5174 19.8706 21.2258 20.2108 21.1874C20.2337 21.1873 20.247 21.1635 20.2496 21.1456C20.2512 21.1302 20.9524 15.3677 20.9524 15.3677C21.0387 14.983 21.2189 14.756 21.474 14.6928L22.9549 14.5354C22.9549 14.5354 22.1911 20.8463 22.1785 20.9002C22.1671 20.9519 22.1935 20.981 22.2405 20.9755C22.7096 20.9264 25.3182 20.6493 25.3358 20.6479C25.353 20.6479 25.371 20.6339 25.3721 20.6127C25.4435 20.0405 26.4099 12.1307 26.4099 12.0799C26.413 12.0262 26.3675 12.0093 26.3339 12.013C26.2997 12.0183 20.9449 12.5816 20.9449 12.5816Z" fill="#002C69"/>
<path d="M20.9609 12.9228C19.5414 13.0733 18.2416 14.3765 18.0659 15.8279C18.0659 15.8279 17.4231 21.1066 17.4205 21.1325C17.4182 21.1567 17.4222 21.1676 17.4433 21.1653C17.4642 21.1627 19.6196 20.935 19.918 20.9035C19.942 20.9009 19.9551 20.8839 19.9593 20.8625C19.9601 20.8498 20.6285 15.3405 20.6285 15.3405C20.7829 14.632 21.2002 14.4345 21.4409 14.3804L23.2301 14.1901C23.248 14.1901 23.2723 14.1901 23.2959 14.2114C23.3133 14.2293 23.319 14.2527 23.3142 14.2804C23.3142 14.2804 22.5526 20.5055 22.5526 20.5525C22.549 20.5981 22.5696 20.6247 22.6201 20.6189C23.041 20.5749 25.0159 20.3656 25.0349 20.3649C25.0684 20.363 25.0813 20.3308 25.0835 20.3127C25.1435 19.8199 26.0382 12.4474 26.0454 12.4244C26.0459 12.4015 26.0275 12.3894 26.0077 12.3911C25.9855 12.3937 20.9609 12.9228 20.9609 12.9228Z" fill="#1F478F"/>
<path d="M21.1901 13.3208L25.8107 12.8348L25.838 12.5936L20.981 13.1046C19.6372 13.2467 18.4133 14.4764 18.2461 15.8499L17.6257 20.9624L17.8636 20.9368L18.457 16.067C18.6222 14.6944 19.8484 13.4625 21.1901 13.3208Z" fill="white"/>
<path d="M23.6343 14.3011C23.5992 14.262 23.5483 14.2374 23.4953 14.2292C23.4986 14.2522 23.4993 14.2776 23.4966 14.3022L22.7502 20.4215L22.9886 20.3964L23.7046 14.5208C23.7155 14.4365 23.6889 14.3581 23.6343 14.3011Z" fill="white"/>
<path d="M4.17215 21.623L4.63114 17.9559C4.77712 16.7659 5.72445 15.6703 6.86363 15.316C6.88369 15.1255 6.89001 15.0361 6.89001 15.0361C5.64884 15.3032 4.57816 16.4696 4.42151 17.7384L3.9641 21.406C3.34668 21.4687 2.69694 21.4798 2.32324 21.4462C2.40004 21.5376 2.51992 21.6511 2.53129 21.6633C2.92228 21.7323 3.557 21.6838 4.17215 21.623Z" fill="white"/>
<path d="M5.13755 12.1266L10.9786 11.5113C11.4368 11.4629 11.849 11.5778 12.1568 11.8351C12.1249 11.7931 12.089 11.7514 12.051 11.7123C11.7364 11.3897 11.281 11.2407 10.7714 11.2943L4.92842 11.911C2.06092 12.2136 1.72705 14.99 1.72705 14.99C1.72705 14.99 1.84822 14.8302 2.07979 14.6143C2.35564 13.7785 3.11746 12.3398 5.13755 12.1266Z" fill="white"/>
<path d="M6.81675 21.3435C7.40976 21.2805 9.27092 21.0857 9.5192 19.3691C9.5192 19.3691 10.057 14.5555 10.0723 14.4651C10.136 14.0311 10.1939 13.6193 9.95911 13.3709C9.92205 13.3326 9.88073 13.301 9.83527 13.2756C9.9682 13.5274 9.9172 13.8775 9.86492 14.2465C9.84842 14.3396 9.31065 19.1527 9.31065 19.1527C9.06347 20.8702 7.20329 21.0647 6.60712 21.1265L6.42793 21.1424L6.39917 21.3851L6.81675 21.3435Z" fill="white"/>
<path d="M30.2256 11.5378C28.655 11.7031 27.2162 13.1426 27.0214 14.7475C27.0214 14.7475 26.3343 20.4022 26.3325 20.4271C26.3296 20.4516 26.3392 20.479 26.3734 20.4743C26.4071 20.471 31.8035 19.9021 31.8035 19.9021C33.3711 19.7359 34.8096 18.2962 35.0058 16.6921C35.0058 16.6921 35.6919 11.0477 35.696 11.0152C35.6985 10.9799 35.6645 10.9634 35.6368 10.9677C35.605 10.9698 30.2256 11.5378 30.2256 11.5378ZM31.2589 17.792L29.794 17.9465L30.2196 14.4394C30.2674 14.1268 30.4013 13.7344 30.7677 13.6478L32.2345 13.493L31.8052 16.9971C31.7598 17.3121 31.624 17.7048 31.2589 17.792Z" fill="#002C69"/>
<path d="M35.2875 11.3469C35.2693 11.3492 30.2424 11.8787 30.2424 11.8787C28.8235 12.0289 27.5213 13.3328 27.3484 14.7842C27.3484 14.7842 26.7067 20.0418 26.7046 20.0692C26.7012 20.0985 26.7313 20.1204 26.7565 20.1178C26.7805 20.1161 31.7828 19.5888 31.7828 19.5888C33.2031 19.438 34.5044 18.1355 34.6826 16.6824C34.6826 16.6824 35.3196 11.4016 35.325 11.3777C35.3278 11.3536 35.3062 11.3443 35.2875 11.3469ZM32.1347 17.0174L32.1294 17.0455C32.0187 17.8125 31.617 18.0607 31.297 18.1323L29.5192 18.3198C29.5005 18.3221 29.4779 18.3215 29.4539 18.2972C29.4365 18.2809 29.4303 18.2569 29.434 18.2286L29.8964 14.4236C30.0097 13.649 30.4155 13.4035 30.7308 13.3351L30.7551 13.3322L32.5065 13.1468C32.5332 13.1445 32.5561 13.1525 32.5736 13.1682C32.5901 13.1859 32.597 13.2104 32.5931 13.2389L32.1347 17.0174Z" fill="#1F478F"/>
<path d="M32.7762 13.2595L32.3126 17.071C32.1767 17.9958 31.6359 18.246 31.3248 18.3123L29.537 18.5018C29.5121 18.5046 29.4865 18.5027 29.4624 18.4965C29.4712 18.5517 29.4937 18.6027 29.5322 18.6425C29.5869 18.6991 29.6668 18.7272 29.7485 18.719L31.5348 18.5304C31.8445 18.4645 32.3844 18.2127 32.5207 17.2885L32.9843 13.4755C32.9971 13.3948 32.9698 13.3148 32.9123 13.2572C32.876 13.2194 32.8277 13.1947 32.7747 13.1848C32.7762 13.2099 32.779 13.2354 32.7762 13.2595Z" fill="white"/>
<path d="M30.4708 12.278L35.0896 11.7911L35.1191 11.5502L30.2621 12.0606C28.92 12.2012 27.6943 13.4327 27.5287 14.8066L26.907 19.9181L27.1453 19.8928L27.737 15.022C27.9028 13.6504 29.1308 12.4187 30.4708 12.278Z" fill="white"/>
<path d="M39.0748 15.6874C38.8915 15.6586 38.7006 15.6286 38.5067 15.5983V15.5984C38.502 15.716 38.4947 15.8322 38.4874 15.9485C38.4803 16.0591 38.4716 16.1689 38.4622 16.2788C38.4551 16.3631 38.449 16.4481 38.4402 16.5321C38.6371 16.4909 38.8341 16.4516 39.0241 16.4129C39.0462 16.172 39.0637 15.9305 39.0748 15.6874Z" fill="#002C69"/>
<path d="M10.3917 10.4574C10.6285 9.74298 10.9194 9.05341 11.26 8.39359C11.2631 8.38776 11.2659 8.38183 11.269 8.3762C11.3529 8.2145 11.4397 8.0538 11.5294 7.89507C11.5312 7.89161 11.5335 7.88845 11.5351 7.88528C11.8934 7.25422 12.2975 6.6535 12.7436 6.08658C12.7611 6.06444 12.7782 6.04201 12.7958 6.01987C12.897 5.89316 13 5.76784 13.1052 5.64439C13.1263 5.61929 13.1481 5.59448 13.1694 5.57007C13.5058 5.18036 13.8619 4.81003 14.2375 4.45798C14.2538 4.44276 14.2696 4.42734 14.2861 4.41182C14.391 4.31437 14.4983 4.22018 14.6063 4.12589C14.6547 4.08339 14.7029 4.04129 14.7518 3.99968C14.8536 3.9131 14.9566 3.828 15.0609 3.74419C15.1175 3.69863 15.1754 3.65366 15.2332 3.60938C15.3361 3.52893 15.4391 3.44808 15.5442 3.37109C15.6003 3.32978 15.6578 3.28985 15.7146 3.24982C15.8998 3.11778 16.0887 2.98949 16.2802 2.86594C16.3594 2.81465 16.4381 2.76296 16.5181 2.71354C16.6115 2.65562 16.7065 2.60087 16.8014 2.54493C16.8899 2.49254 16.9789 2.44125 17.0688 2.39104C17.1611 2.33945 17.2538 2.28914 17.3471 2.23953C17.4462 2.18714 17.5468 2.13634 17.6473 2.08594C17.7341 2.04265 17.8208 1.99817 17.9087 1.95676C18.0515 1.88837 18.1963 1.82402 18.3418 1.76057C18.4303 1.72212 18.519 1.68457 18.6087 1.6479C18.7562 1.58712 18.9044 1.52811 19.0541 1.47237C19.133 1.44282 19.213 1.41544 19.2924 1.38747C19.4184 1.34299 19.5452 1.2998 19.6728 1.25898C19.7552 1.23269 19.8373 1.2066 19.9199 1.18179C20.0543 1.14137 20.1897 1.10352 20.3257 1.06665C20.4001 1.04629 20.4737 1.02603 20.5481 1.00695C20.7505 0.955758 20.9543 0.908318 21.1603 0.865819C21.1802 0.861371 21.2003 0.857813 21.2205 0.853859C21.4212 0.813634 21.6237 0.777855 21.827 0.745536C21.8981 0.734467 21.9694 0.725275 22.0408 0.715095C22.1917 0.69345 22.3433 0.67398 22.4953 0.657474C22.5739 0.648974 22.6525 0.640672 22.7313 0.63316C22.8865 0.618533 23.0422 0.607562 23.1984 0.597777C23.2689 0.593527 23.3391 0.58819 23.4101 0.585324C23.6353 0.574551 23.8617 0.56793 24.0893 0.56793C24.3188 0.56793 24.5462 0.574551 24.7733 0.585324C24.8448 0.588487 24.9158 0.593824 24.9873 0.598371C25.1434 0.607661 25.2987 0.618929 25.4535 0.633754C25.5344 0.641463 25.6151 0.649864 25.6958 0.65866C25.8445 0.675462 25.9925 0.694537 26.1397 0.715095C26.216 0.726165 26.2924 0.736344 26.3683 0.748501C26.5389 0.775681 26.708 0.806023 26.8765 0.839231C26.9252 0.84872 26.9748 0.856626 27.0232 0.866708C27.2377 0.911282 27.4506 0.960404 27.6617 1.01427C27.7201 1.02929 27.7775 1.0458 27.8358 1.06191C27.9895 1.10322 28.142 1.14562 28.2934 1.19158C28.3697 1.215 28.4456 1.23932 28.5211 1.26402C28.6549 1.30731 28.7882 1.35209 28.9202 1.39884C28.9973 1.42621 29.0745 1.45359 29.1511 1.48255C29.2875 1.53365 29.4225 1.58731 29.5568 1.64256C29.623 1.66974 29.6904 1.69593 29.7563 1.7239C29.9503 1.80653 30.1424 1.89331 30.332 1.98414C30.3729 2.00361 30.4129 2.02565 30.4536 2.04551C30.6042 2.12004 30.7538 2.19564 30.9014 2.27491C30.9745 2.31405 31.0463 2.35536 31.1186 2.39539C31.2331 2.45973 31.3468 2.52467 31.4594 2.59138C31.5362 2.63734 31.6125 2.68349 31.6887 2.73064C31.7966 2.79765 31.9036 2.86664 32.0096 2.93671C32.0829 2.98484 32.1565 3.03238 32.229 3.0819C32.3479 3.16363 32.465 3.24764 32.5813 3.33254C32.6365 3.37277 32.6929 3.41122 32.7474 3.45253C32.9085 3.57311 33.0663 3.69784 33.2215 3.82474C33.2912 3.88207 33.3588 3.94117 33.4277 3.99968C33.5195 4.07786 33.6111 4.15574 33.7007 4.23609C33.7745 4.30211 33.8478 4.36962 33.92 4.43703C34.002 4.51342 34.0829 4.59081 34.1631 4.66889C34.2358 4.73936 34.3079 4.81072 34.3794 4.88257C34.4585 4.96303 34.5355 5.04545 34.6127 5.12749C34.6803 5.19944 34.7489 5.2709 34.815 5.34433C34.9316 5.4741 35.0455 5.60575 35.1572 5.73928C35.2348 5.83267 35.3104 5.92716 35.3857 6.02214C35.4529 6.10665 35.5208 6.19075 35.586 6.27714C35.6526 6.36441 35.7167 6.45296 35.7811 6.54201C35.84 6.62286 35.8983 6.7047 35.9553 6.78732C36.0193 6.87924 36.0821 6.97195 36.1437 7.06535C36.1978 7.14689 36.2503 7.22981 36.3028 7.31293C36.3632 7.4088 36.4239 7.50457 36.4823 7.60182C36.5322 7.68583 36.5798 7.77113 36.6283 7.85593C36.7318 8.03699 36.8313 8.22063 36.927 8.40693C36.9705 8.49075 37.015 8.57426 37.0564 8.65975C37.1083 8.76501 37.1569 8.87215 37.206 8.97889C37.2454 9.06438 37.2847 9.15017 37.3224 9.23675C37.3697 9.34498 37.4153 9.45439 37.46 9.5639C37.4954 9.65127 37.5297 9.73824 37.5635 9.8265C37.6061 9.93779 37.6482 10.0486 37.6885 10.1607C37.7196 10.2492 37.7487 10.3386 37.7785 10.4278C37.8167 10.5414 37.8554 10.6539 37.8905 10.7683C38.0524 10.6589 38.2214 10.5619 38.3956 10.4766C38.2551 10.0327 38.0951 9.59345 37.9124 9.16095C37.1565 7.37401 36.0758 5.76962 34.6982 4.39294C33.32 3.01538 31.7161 1.93264 29.9299 1.17784C28.0797 0.395858 26.1137 0.00012207 24.0894 0.00012207C22.0653 0.00012207 20.1012 0.395957 18.251 1.17784C16.4654 1.93264 14.8605 3.01538 13.4828 4.39294C12.1056 5.76962 11.0242 7.37411 10.2682 9.16095C10.0793 9.60798 9.91417 10.0617 9.77026 10.5214C10.002 10.4971 10.2129 10.4756 10.3917 10.4574Z" fill="#002C69"/>
<path d="M37.7906 19.534C37.5542 20.2479 37.2642 20.9364 36.9246 21.5957C36.9204 21.6039 36.9164 21.6118 36.9125 21.6202C36.8292 21.7816 36.7428 21.9403 36.6536 22.098C36.6516 22.1016 36.6492 22.1058 36.6469 22.1093C36.2893 22.7399 35.886 23.34 35.4407 23.9069C35.4224 23.9298 35.404 23.9534 35.3854 23.9766C35.285 24.1034 35.1823 24.2285 35.0779 24.351C35.0561 24.3763 35.034 24.4014 35.0122 24.4268C34.6789 24.8122 34.3264 25.1806 33.9546 25.5288C33.9343 25.5478 33.9148 25.5676 33.8945 25.5862C33.7904 25.6825 33.6843 25.7765 33.5776 25.8697C33.5281 25.9127 33.4789 25.9562 33.4291 25.9983C33.3277 26.0843 33.2255 26.1691 33.1218 26.2522C33.0642 26.299 33.0055 26.3442 32.9471 26.3896C32.8449 26.4694 32.7427 26.5493 32.638 26.6262C32.5804 26.6686 32.5212 26.7086 32.463 26.7504C32.2804 26.8808 32.0948 27.007 31.9059 27.1292C31.8246 27.1815 31.7443 27.2343 31.6621 27.285C31.5691 27.3422 31.4749 27.3977 31.381 27.4522C31.2911 27.5052 31.2016 27.5571 31.1109 27.608C31.019 27.6589 30.9271 27.7094 30.834 27.7584C30.7343 27.8115 30.6332 27.8627 30.5318 27.9131C30.4454 27.9566 30.3598 28 30.2723 28.042C30.1255 28.1117 29.9767 28.1785 29.8273 28.2426C29.7423 28.2798 29.6571 28.3158 29.5711 28.351C29.4239 28.4115 29.2755 28.4712 29.1258 28.5268C29.0468 28.5559 28.967 28.583 28.8879 28.6111C28.7614 28.6562 28.6346 28.6997 28.5069 28.7404C28.4245 28.7668 28.3428 28.7923 28.2604 28.8171C28.1256 28.8575 27.9895 28.896 27.8529 28.9326C27.7792 28.9524 27.7059 28.9735 27.6316 28.9919C27.4281 29.044 27.223 29.0911 27.0159 29.1341C26.9955 29.1387 26.9747 29.1418 26.9544 29.1461C26.7551 29.186 26.5546 29.2218 26.3527 29.2535C26.2816 29.2649 26.2097 29.2743 26.1385 29.2841C25.9878 29.3059 25.8366 29.3254 25.6842 29.3419C25.6056 29.3506 25.5268 29.3585 25.4477 29.3661C25.2927 29.3802 25.1372 29.3919 24.9813 29.4013C24.9106 29.4056 24.8401 29.411 24.7689 29.4143C24.5437 29.4245 24.3175 29.4318 24.0892 29.4318C23.8677 29.4318 23.6475 29.4245 23.4284 29.4148C23.3706 29.4119 23.3131 29.4092 23.2552 29.4061C23.0612 29.3948 22.8684 29.3802 22.6765 29.3619C22.6501 29.3593 22.6233 29.3576 22.5969 29.3551C22.3833 29.3332 22.1708 29.3054 21.9602 29.2741C21.905 29.2656 21.8499 29.2565 21.795 29.2481C21.6187 29.2197 21.4436 29.1886 21.2701 29.1543C21.2293 29.1461 21.1887 29.139 21.148 29.1305C20.9428 29.0882 20.7396 29.041 20.5377 28.9895C20.4863 28.9772 20.4359 28.9629 20.385 28.9496C20.2206 28.906 20.0575 28.8598 19.8956 28.8105C19.847 28.796 19.7985 28.7818 19.7507 28.7669C19.5547 28.7054 19.3602 28.6395 19.1681 28.5698C19.1229 28.5531 19.0785 28.5355 19.0335 28.519C18.8773 28.4606 18.7225 28.3997 18.5691 28.3361C18.5165 28.3143 18.4636 28.2928 18.4117 28.27C18.2256 28.1906 18.0415 28.1078 17.8598 28.0207C17.8224 28.0027 17.7863 27.9839 17.7492 27.9653C17.5988 27.8921 17.4496 27.8152 17.302 27.7366C17.2475 27.7074 17.1927 27.6784 17.1387 27.6485C16.9639 27.5523 16.7907 27.4532 16.6201 27.3502C16.595 27.3348 16.5707 27.3188 16.5457 27.3037C16.3965 27.2113 16.2486 27.1164 16.103 27.0194C16.0483 26.983 15.994 26.946 15.9397 26.9088C15.8005 26.8137 15.6625 26.7154 15.5268 26.6157C15.4976 26.5937 15.4677 26.5737 15.439 26.552C15.2831 26.4349 15.1313 26.3143 14.9805 26.1914C14.9274 26.1484 14.875 26.1045 14.8228 26.0606C14.7067 25.9632 14.592 25.8635 14.4789 25.7624C14.4384 25.7263 14.3973 25.6912 14.357 25.6541C14.2159 25.5251 14.0779 25.393 13.9423 25.2588C13.8931 25.2101 13.845 25.1609 13.7962 25.1113C13.6961 25.0096 13.5981 24.9063 13.5008 24.8012C13.4565 24.7534 13.4117 24.7065 13.3682 24.6573C13.2419 24.5179 13.118 24.3752 12.9974 24.2295C12.9533 24.1772 12.9108 24.1233 12.8676 24.0699C12.7802 23.962 12.6943 23.8524 12.6103 23.7424C12.5667 23.685 12.5229 23.6286 12.48 23.5704C12.3682 23.419 12.259 23.2663 12.153 23.1109C12.1164 23.0569 12.0814 23.0014 12.0455 22.9474C11.9683 22.8307 11.8927 22.7127 11.8187 22.594C11.7787 22.5295 11.7388 22.465 11.7 22.4C11.6032 22.2382 11.5086 22.075 11.418 21.9096C11.2763 22.0135 11.1137 22.1115 10.9304 22.2045C11.6127 23.45 12.4665 24.5902 13.4827 25.6075C14.8604 26.9852 16.4652 28.0663 18.2509 28.8212C20.1011 29.6036 22.0653 29.9998 24.0893 29.9998C26.1137 29.9998 28.0796 29.6036 29.9299 28.8212C31.716 28.0665 33.3199 26.9852 34.6982 25.6075C36.0757 24.2293 37.1564 22.6249 37.9123 20.8389C38.1027 20.3888 38.2691 19.9311 38.4137 19.4686C38.2084 19.49 38.0002 19.5119 37.7906 19.534Z" fill="#002C69"/>
<path d="M15.5331 5.5327L15.4477 5.4396C15.3912 5.37872 15.3389 5.34077 15.2906 5.32663C15.2412 5.31191 15.1995 5.3208 15.1657 5.35105C15.116 5.39859 15.0926 5.44128 15.096 5.48319C15.1007 5.52539 15.1255 5.57224 15.1731 5.62462L15.8338 6.34473C15.8727 6.38654 15.9128 6.41115 15.9521 6.41461C15.9918 6.41965 16.0331 6.40137 16.0754 6.36203C16.1028 6.33762 16.1194 6.31123 16.1252 6.28138C16.1302 6.25193 16.1277 6.22366 16.1174 6.19688C16.1075 6.16821 16.0936 6.14192 16.0745 6.11603C16.0553 6.09043 16.0342 6.06345 16.0093 6.03825L15.887 5.90452L16.2286 5.59112L16.3929 5.76872C16.5143 5.90067 16.5693 6.042 16.5595 6.19095C16.5494 6.34058 16.4596 6.49348 16.292 6.64737C16.1388 6.78771 15.992 6.85047 15.8511 6.83584C15.7099 6.82122 15.5689 6.7382 15.4279 6.58569L14.879 5.98804C14.7332 5.8305 14.6641 5.67987 14.6681 5.53577C14.6738 5.39196 14.7537 5.24658 14.9095 5.10416C15.0593 4.96519 15.2066 4.89374 15.3486 4.88731C15.4915 4.88197 15.6294 4.95086 15.7622 5.09684L15.8751 5.21772L15.5331 5.5327Z" fill="#002C69"/>
<path d="M17.4224 5.64689L16.3687 3.97479L16.7608 3.72751L17.1658 4.36964L17.4385 4.19846L17.0328 3.55652L17.426 3.30835L18.479 4.98192L18.087 5.22763L17.6474 4.53232L17.3758 4.70321L17.8147 5.3994L17.4224 5.64689Z" fill="#002C69"/>
<path d="M19.1571 4.62804L18.8279 2.63108L19.3472 2.4256L20.4778 4.10243L20.0412 4.2753L19.8383 3.94291L19.5002 4.07743L19.5908 4.45518L19.1571 4.62804ZM19.2203 2.86047L19.2155 2.86245L19.4173 3.73546L19.668 3.63514L19.2203 2.86047Z" fill="#002C69"/>
<path d="M21.3986 2.72768L21.3947 2.73361L21.6493 3.80627L21.2181 3.89137L20.8359 1.95193L21.3037 1.8604L21.8683 2.87445L21.877 2.87337L21.6194 1.79814L22.0499 1.71265L22.4326 3.65179L21.9671 3.74391L21.3986 2.72768Z" fill="#002C69"/>
<path d="M24.2084 3.55488L24.1866 3.38014H24.1805C24.1333 3.46297 24.0814 3.52079 24.0231 3.55419C23.9646 3.5871 23.8843 3.60391 23.7826 3.60499C23.6887 3.60529 23.6066 3.59234 23.5395 3.5623C23.4727 3.53245 23.4189 3.48847 23.3768 3.43243C23.3344 3.3756 23.3043 3.31047 23.2848 3.23476C23.2668 3.15806 23.2575 3.07544 23.2561 2.98105L23.2464 2.17021C23.2441 1.95554 23.2919 1.7974 23.3922 1.69254C23.4926 1.58866 23.6483 1.53568 23.8613 1.53311C24.0653 1.52995 24.2211 1.57502 24.3307 1.66545C24.4401 1.75658 24.4956 1.90098 24.4985 2.09736L24.5 2.24473L24.0354 2.25076L24.0335 2.14135C24.0335 2.05111 24.0231 1.98568 24.0032 1.94625C23.9831 1.90938 23.9445 1.8904 23.8868 1.88793C23.818 1.8904 23.7708 1.90651 23.7462 1.94012C23.7216 1.97352 23.7089 2.0263 23.7106 2.09618L23.7216 3.07356C23.7226 3.13177 23.7368 3.17476 23.7641 3.20442C23.7936 3.23515 23.8367 3.24978 23.8946 3.2486C23.9314 3.2478 23.9609 3.24079 23.9849 3.22655C24.0069 3.21242 24.0232 3.19305 24.0336 3.1716C24.0436 3.14699 24.0504 3.12159 24.0526 3.0951C24.0545 3.06723 24.0557 3.03383 24.0557 2.99321L24.0542 2.83744L23.888 2.83981L23.8826 2.48391L24.5128 2.47679L24.525 3.55162L24.2084 3.55488Z" fill="#002C69"/>
<path d="M26.7989 3.27207L26.805 3.27335L27.2156 1.94313L27.646 2.02754L26.9418 3.90313L26.4296 3.80133L26.5586 2.40993L26.554 2.40825L26.1341 3.74391L25.6309 3.64428L25.6862 1.64178L26.1263 1.72787L25.9951 3.11749L26.0012 3.11205L26.4521 1.79122L26.8912 1.8784L26.7989 3.27207Z" fill="#002C69"/>
<path d="M29.3913 4.14497C29.3002 4.35806 29.1895 4.49633 29.0591 4.55959C28.929 4.62502 28.7594 4.61128 28.5502 4.52203C28.3417 4.4315 28.2123 4.31744 28.1676 4.17729C28.1228 4.03784 28.1454 3.86171 28.2355 3.6502L28.5513 2.91201C28.6259 2.73677 28.7345 2.62538 28.8754 2.57448C29.0163 2.52309 29.1789 2.53762 29.3647 2.61807C29.5512 2.69674 29.6736 2.80437 29.731 2.94077C29.7895 3.07627 29.7816 3.23154 29.7079 3.40638L29.3913 4.14497ZM29.2682 3.2519C29.2837 3.21691 29.2965 3.18558 29.304 3.15712C29.3122 3.12855 29.3155 3.10167 29.3155 3.07508C29.3155 3.0481 29.3089 3.0231 29.2948 2.99908C29.28 2.97635 29.2572 2.95905 29.2226 2.94383C29.1902 2.9292 29.1616 2.92594 29.1335 2.93118C29.1063 2.9378 29.0835 2.94867 29.0636 2.96814C29.0439 2.9885 29.0261 3.01035 29.0105 3.03624C28.9948 3.06184 28.9798 3.0909 28.9652 3.12312L28.647 3.86962C28.6348 3.89937 28.623 3.9305 28.6135 3.96094C28.6061 3.99287 28.6013 4.024 28.6004 4.05325C28.6004 4.0836 28.6074 4.11058 28.6214 4.13647C28.6358 4.16197 28.659 4.18105 28.6902 4.19498C28.7231 4.20823 28.7533 4.21198 28.7813 4.20536C28.8091 4.19795 28.8334 4.18352 28.8517 4.16207C28.8717 4.14062 28.8899 4.11592 28.9044 4.09022C28.9197 4.06353 28.9348 4.03309 28.9495 3.99919L29.2682 3.2519Z" fill="#002C69"/>
<path d="M30.841 4.43302L30.8338 4.43411L30.2586 5.37413L29.8916 5.13119L30.9877 3.48608L31.3842 3.74968L31.0707 4.8673L31.0768 4.87264L31.6522 3.92847L32.0187 4.17328L30.9224 5.8177L30.5283 5.55381L30.841 4.43302Z" fill="#002C69"/>
<path d="M14.2281 6.64044L14.3876 7.10309L14.7962 6.83554L14.6209 7.29176L15.1066 7.34988L14.6781 7.58659L15.0131 7.94269L14.5332 7.8491L14.5601 8.33774L14.2525 7.95653L13.9594 8.34792L13.9688 7.85868L13.4929 7.97155L13.8136 7.6023L13.377 7.38101L13.8604 7.30521L13.6681 6.8562L14.0874 7.10833L14.2281 6.64044Z" fill="#002C69"/>
<path d="M32.6503 5.19458L32.8089 5.65713L33.2185 5.39017L33.0429 5.84561L33.5285 5.90382L33.1 6.14122L33.4351 6.49693L32.9546 6.40353L32.9824 6.89158L32.6742 6.51067L32.3819 6.90235L32.3908 6.41391L31.9149 6.52529L32.2357 6.15644L31.7998 5.93584L32.2829 5.85875L32.0899 5.41004L32.5084 5.66266L32.6503 5.19458Z" fill="#002C69"/>
<path d="M17.527 25.6167L17.956 25.3791L17.4695 25.3207L17.6453 24.8646L17.2367 25.133L17.0781 24.6709L16.936 25.1374L16.5175 24.8853L16.7101 25.3356L16.2268 25.4121L16.6628 25.632L16.3422 26.0013L16.8179 25.8894L16.809 26.3785L17.1014 25.9867L17.4093 26.3669L17.3822 25.879L17.8622 25.9723L17.527 25.6167Z" fill="#002C69"/>
<path d="M33.2995 23.6928L33.4766 23.2376L33.0664 23.505L32.9071 23.0422L32.766 23.5101L32.3482 23.2571L32.5404 23.7077L32.0566 23.7841L32.4927 24.0044L32.1719 24.3727L32.6474 24.2609L32.639 24.7497L32.9318 24.3583L33.2393 24.7388L33.2126 24.2504L33.6919 24.3444L33.3575 23.9881L33.7856 23.7511L33.2995 23.6928Z" fill="#002C69"/>
<path d="M18.9702 25.4018L20.0196 25.8506L19.8585 26.2275L19.2707 25.9766L19.1414 26.279L19.6923 26.5144L19.5375 26.8765L18.9866 26.6413L18.8363 26.9935L19.4464 27.2543L19.2856 27.6312L18.2139 27.1733L18.9702 25.4018Z" fill="#002C69"/>
<path d="M21.199 26.7683L21.21 26.7235C21.2373 26.6139 21.2157 26.5112 21.1216 26.4874C21.0168 26.4612 20.9497 26.5308 20.9285 26.6143C20.8361 26.9837 21.6772 27.0021 21.5062 27.6857C21.4068 28.084 21.1289 28.2031 20.6996 28.096C20.2964 27.9949 20.1059 27.7998 20.2029 27.4119L20.2195 27.3469L20.6906 27.4649L20.6796 27.5089C20.6396 27.6687 20.6906 27.7431 20.7851 27.7667C20.8845 27.7916 20.9617 27.7276 20.9873 27.6254C21.0796 27.2561 20.2691 27.248 20.4349 26.5855C20.5295 26.2086 20.7828 26.0517 21.1939 26.1546C21.6182 26.2613 21.7548 26.4812 21.6544 26.8824L21.199 26.7683Z" fill="#002C69"/>
<path d="M22.6379 26.8907L22.262 26.8557L22.301 26.4313L23.5531 26.5468L23.5144 26.9714L23.1377 26.9367L22.9998 28.4308L22.4999 28.3847L22.6379 26.8907Z" fill="#002C69"/>
<path d="M23.8726 27.9345L24.3265 27.9271L24.3352 28.4616L23.8816 28.4686L23.8726 27.9345Z" fill="#002C69"/>
<path d="M25.5607 27.1224C25.5283 26.928 25.5238 26.7673 25.594 26.6393C25.6643 26.5115 25.8065 26.4199 26.0617 26.3741C26.5552 26.285 26.7081 26.4956 26.7592 26.7773C26.8051 27.0321 26.7416 27.2107 26.6263 27.3769L26.3854 27.7135C26.3503 27.7636 26.2995 27.8301 26.291 27.8895L26.9388 27.7725L27.0059 28.1444L25.7687 28.3673C25.7221 28.1071 25.7454 27.8564 25.9204 27.5971L26.1894 27.2031C26.2675 27.0906 26.2921 27.0126 26.2663 26.8717C26.2374 26.7124 26.1781 26.6711 26.1014 26.6849C26.0321 26.6972 25.9699 26.7467 26.008 26.9595L26.0225 27.0388L25.5607 27.1224Z" fill="#002C69"/>
<path d="M27.8181 25.9113C28.2405 25.7629 28.4984 25.8872 28.7536 26.6156C29.0087 27.3442 28.8847 27.6018 28.4618 27.7503C28.0392 27.898 27.7814 27.7736 27.526 27.0455C27.2712 26.3171 27.3954 26.0593 27.8181 25.9113ZM28.1041 27.1777C28.1943 27.4352 28.2591 27.4893 28.3583 27.4547C28.4579 27.4199 28.4744 27.3368 28.3845 27.0796L28.1757 26.4837C28.0854 26.2265 28.0208 26.1718 27.9213 26.2064C27.822 26.2414 27.8055 26.3244 27.8954 26.5815L28.1041 27.1777Z" fill="#002C69"/>
<path d="M30.1991 26.9601L29.5816 25.8151L29.2632 25.9871L29.1147 25.7112C29.3845 25.5628 29.4692 25.4467 29.4158 25.2114L29.7338 25.0403L30.6412 26.7224L30.1991 26.9601Z" fill="#002C69"/>
<path d="M31.7542 26.0146L30.9885 24.9632L30.6963 25.1761L30.5117 24.923C30.7587 24.74 30.8272 24.6132 30.7429 24.3877L31.0352 24.1746L32.1604 25.719L31.7542 26.0146Z" fill="#002C69"/>
<path d="M33.7665 19.4127C33.6389 19.5122 33.5058 19.604 33.3686 19.6881C32.9464 20.5227 32.4149 21.2925 31.7927 21.9791C31.6779 22.1055 31.5605 22.2295 31.4396 22.3508C31.3321 22.4571 31.222 22.5612 31.1107 22.6636C31.0999 22.6738 31.0898 22.684 31.0786 22.694C31.0443 22.7259 31.0077 22.755 30.9725 22.7857C29.139 24.4083 26.7299 25.3949 24.0898 25.3949C24.0893 25.3949 24.0893 25.3949 24.0893 25.3949C21.2179 25.3949 18.6209 24.2313 16.7384 22.3508C16.6078 22.2201 16.4819 22.0846 16.3584 21.9473C16.3509 21.9588 16.3413 21.9671 16.327 21.9683C16.2817 21.9728 16.1948 21.9825 16.0781 21.9941C16.0782 21.9949 16.0787 21.9954 16.0789 21.996C16.9294 22.9687 17.9541 23.7857 19.1044 24.398C19.1186 24.4054 19.1331 24.4126 19.1474 24.4195C19.2914 24.4958 19.4369 24.5683 19.5848 24.6377C19.6196 24.6539 19.6551 24.6689 19.6898 24.6847C19.8178 24.7431 19.9472 24.7994 20.0783 24.8528C20.126 24.8723 20.1743 24.8906 20.2226 24.91C20.3426 24.9564 20.4631 25.0016 20.5848 25.0441C20.6413 25.0638 20.6984 25.0828 20.7554 25.1017C20.8709 25.14 20.9872 25.1755 21.1042 25.21C21.1672 25.2284 21.2301 25.247 21.2938 25.264C21.407 25.2947 21.5211 25.3229 21.6356 25.35C21.7031 25.3659 21.7707 25.382 21.8389 25.3968C21.9521 25.4215 22.0661 25.4428 22.1805 25.4638C22.2504 25.4761 22.3202 25.4898 22.3908 25.5011C22.5074 25.5196 22.6249 25.5348 22.7424 25.5496C22.8118 25.5585 22.8806 25.5689 22.95 25.5764C23.0771 25.5898 23.2056 25.5993 23.3342 25.6079C23.3949 25.6125 23.455 25.6188 23.5165 25.6222C23.7059 25.6322 23.8969 25.6379 24.0891 25.6379C24.2531 25.6379 24.416 25.6323 24.5781 25.6252C24.6239 25.6234 24.6695 25.6205 24.7151 25.6177C24.8434 25.6103 24.9713 25.6006 25.0981 25.5884C25.1353 25.5853 25.1723 25.5826 25.209 25.5787C25.3671 25.5622 25.524 25.5421 25.68 25.5187C25.7157 25.5134 25.7511 25.5069 25.7867 25.5016C25.9112 25.4813 26.0343 25.4591 26.1573 25.4353C26.2029 25.426 26.2481 25.4172 26.293 25.4078C26.4364 25.3773 26.5788 25.3451 26.72 25.3094C26.731 25.3066 26.7422 25.3044 26.7532 25.3011C26.9029 25.2628 27.0506 25.22 27.1981 25.1752C27.2428 25.1615 27.2868 25.1472 27.3318 25.1327C27.4433 25.0971 27.5543 25.0595 27.6644 25.0203C27.7043 25.0061 27.7442 24.9925 27.7834 24.9779C27.9243 24.9257 28.0641 24.8708 28.202 24.8125C28.2384 24.7977 28.2739 24.7811 28.31 24.7657C28.4164 24.7195 28.5215 24.6719 28.6258 24.6226C28.672 24.6008 28.718 24.5789 28.7639 24.5569C28.877 24.5011 28.989 24.4444 29.0998 24.3844C29.1242 24.3717 29.1486 24.3597 29.1727 24.3463C29.301 24.2766 29.4268 24.2037 29.5517 24.1287C29.5973 24.1014 29.6422 24.0732 29.6869 24.0456C29.7755 23.9907 29.8631 23.9343 29.9501 23.8767C29.9927 23.8486 30.0358 23.8209 30.0777 23.7922C30.1956 23.712 30.312 23.6294 30.4261 23.5448C30.4648 23.5162 30.5024 23.4857 30.5405 23.4563C30.6221 23.3941 30.7032 23.3309 30.7826 23.2659C30.8288 23.2291 30.8747 23.1918 30.9201 23.1533C31.0007 23.0857 31.0806 23.0161 31.1592 22.9457C31.1972 22.9123 31.2361 22.8787 31.2737 22.8443C31.3717 22.7548 31.4671 22.663 31.5616 22.5697C31.6052 22.5264 31.6482 22.4826 31.6915 22.4389C31.7552 22.3736 31.8178 22.3072 31.8802 22.241C31.9218 22.1956 31.9641 22.1512 32.0049 22.1054C32.0962 22.0041 32.1853 21.9005 32.2728 21.7957C32.3097 21.7518 32.3447 21.7069 32.3808 21.6618C32.4383 21.5903 32.4952 21.518 32.5512 21.4451C32.5914 21.392 32.6314 21.3386 32.6708 21.2849C32.7253 21.2106 32.7786 21.1355 32.831 21.0601C32.8705 21.0032 32.9096 20.9471 32.9481 20.8897C33.0165 20.7872 33.0832 20.683 33.1484 20.5777C33.1835 20.5204 33.2176 20.4625 33.2519 20.4046C33.295 20.3317 33.3371 20.2583 33.3787 20.1843C33.4116 20.125 33.4448 20.0664 33.4763 20.0072C33.5366 19.8943 33.5948 19.7806 33.6513 19.6655C33.6548 19.6584 33.6583 19.6519 33.6618 19.6445C33.6892 19.578 33.7237 19.4999 33.7665 19.4127Z" fill="#002C69"/>
<path d="M13.9622 12.6625C14.4057 10.7307 15.384 9.00399 16.7387 7.64876C17.6799 6.70775 18.8 5.94712 20.0436 5.42132C21.2874 4.89532 22.6545 4.60425 24.09 4.60425C28.344 4.60425 31.999 7.16111 33.6076 10.8205C33.6936 10.8114 33.7791 10.8028 33.8631 10.7938C33.7767 10.5942 33.684 10.3988 33.5867 10.2053C33.5591 10.1522 33.5322 10.0987 33.5046 10.0459C33.4632 9.96743 33.4207 9.88965 33.3777 9.81246C33.3487 9.76037 33.3184 9.70839 33.2879 9.6567C33.1906 9.48966 33.0889 9.32431 32.9825 9.16203C32.971 9.14434 32.96 9.12605 32.9478 9.10836C32.9002 9.03631 32.8505 8.96633 32.8007 8.89527C32.7645 8.84358 32.7282 8.79199 32.6909 8.74099C32.6413 8.6723 32.5903 8.60489 32.5391 8.53749C32.4991 8.48481 32.458 8.43341 32.417 8.38232C32.3455 8.29208 32.273 8.20333 32.1987 8.11576C32.1359 8.04203 32.0728 7.9682 32.008 7.89585C31.9554 7.83764 31.9019 7.78091 31.848 7.72348C31.7988 7.671 31.7492 7.61852 31.6985 7.56693C31.6442 7.51118 31.5893 7.45603 31.5341 7.40187C31.478 7.34692 31.4213 7.29335 31.3644 7.24008C31.3104 7.18908 31.2565 7.13798 31.2016 7.08857C31.1037 7.0009 31.0042 6.91462 30.9035 6.83021C30.8505 6.78643 30.7965 6.74353 30.743 6.70054C30.6773 6.64806 30.6115 6.59587 30.5446 6.54468C30.4901 6.50297 30.4354 6.46156 30.3801 6.42064C30.3034 6.36411 30.2253 6.30925 30.1475 6.25529C30.102 6.22346 30.0572 6.19124 30.0109 6.15981C29.8934 6.08114 29.7744 6.00523 29.6537 5.93101C29.6031 5.89978 29.5515 5.87023 29.5004 5.83969C29.418 5.79047 29.3347 5.74303 29.2508 5.69608C29.1977 5.66663 29.1449 5.63727 29.0916 5.60851C28.9914 5.55524 28.8904 5.50404 28.7888 5.45383C28.7533 5.43624 28.7186 5.41806 28.6832 5.40106C28.5495 5.33671 28.4145 5.27623 28.2784 5.21772C28.2302 5.19755 28.1818 5.17789 28.1335 5.15802C28.0347 5.1176 27.9355 5.07826 27.8357 5.0408C27.7854 5.02183 27.7353 5.00285 27.6846 4.98447C27.561 4.93999 27.4366 4.89809 27.3104 4.85806C27.2878 4.85094 27.2648 4.84274 27.2424 4.83523C27.0949 4.78966 26.9466 4.74835 26.7966 4.70901C26.7506 4.69676 26.704 4.68589 26.6573 4.67442C26.5459 4.64685 26.4339 4.62065 26.3211 4.59664C26.2726 4.58616 26.2246 4.57578 26.1759 4.5658C26.0305 4.53704 25.8845 4.51085 25.7372 4.48792C25.7265 4.48634 25.7161 4.48407 25.705 4.48229C25.5478 4.45827 25.3888 4.4389 25.229 4.4219C25.1818 4.41656 25.1346 4.4129 25.0877 4.40846C24.9678 4.39699 24.8476 4.3878 24.7265 4.38098C24.6786 4.37801 24.6301 4.37515 24.582 4.37268C24.4185 4.36556 24.2546 4.36072 24.0897 4.36072C18.2147 4.36151 13.4519 9.12328 13.4519 14.9991C13.4519 15.102 13.4567 15.2039 13.4596 15.3066C13.5276 15.1396 13.6106 14.9778 13.7006 14.8196C13.7133 14.0792 13.8024 13.3573 13.9622 12.6625Z" fill="#002C69"/>
</svg>
