<svg width="41" height="30" viewBox="0 0 41 30" fill="none" xmlns="http://www.w3.org/2000/svg">
<path d="M36.8612 16.6618C36.8612 15.6296 36.3441 14.755 35.6261 14.4392C35.3269 6.3444 28.5895 -0.100355 20.4404 0.00118349C12.1714 0.115331 5.53121 6.93279 5.63785 15.1985C5.64337 15.6056 5.66571 16.0086 5.7033 16.4071C5.09377 16.7876 4.67261 17.5899 4.67261 18.5212C4.67261 19.819 5.48894 20.8713 6.49603 20.8713C6.60645 20.8713 6.714 20.8566 6.81914 20.8322C9.12779 26.281 14.563 30.0811 20.8335 29.9987C27.6473 29.9065 33.3529 25.2639 35.0916 19.0085C36.0734 18.9715 36.8612 17.9364 36.8612 16.6618ZM5.87155 15.1955C5.76635 7.05859 12.3033 0.347169 20.4434 0.234763C28.4347 0.135206 35.0465 6.43057 35.3884 14.3562C35.2819 14.3295 35.1718 14.315 35.0596 14.3133C34.6965 6.5748 28.2565 0.464138 20.4475 0.561353C12.4716 0.671357 6.09534 7.21855 6.1985 15.1914C6.203 15.5289 6.22 15.8636 6.24732 16.1953C6.13713 16.2148 6.02989 16.2455 5.92697 16.2891C5.89539 15.9282 5.87641 15.5636 5.87155 15.1955ZM20.8304 29.7651C14.666 29.8458 9.32156 26.1153 7.04347 20.763C7.14303 20.7226 7.23832 20.6703 7.32959 20.6096C9.54667 25.8618 14.7768 29.5181 20.826 29.4385C27.3755 29.3498 32.8474 24.9178 34.5368 18.92C34.6385 18.9575 34.743 18.9857 34.8512 18.9998C33.1217 25.1305 27.5185 29.6746 20.8304 29.7651Z" fill="#B1B1B1"/>
<path d="M10.958 12.1874C12.5134 6.86323 18.0928 3.80604 23.4206 5.36268C28.7464 6.91781 31.8021 12.4963 30.2468 17.8223C28.6907 23.1468 23.111 26.2022 17.784 24.6474C12.4591 23.0911 9.40182 17.5138 10.958 12.1874Z" fill="white"/>
<path d="M25.9826 8.20923L26.2788 7.19091L26.5539 7.07099L25.5364 6.53718C25.4433 6.48711 25.3699 6.51845 25.3446 6.56745L25.3143 6.63188C25.2875 6.68418 25.3178 6.76578 25.4005 6.80889L26.1912 7.22591L25.9212 7.34516L25.7005 8.12318C25.673 8.21337 25.7094 8.29053 25.7663 8.30969L25.8313 8.32944C25.8828 8.34475 25.9549 8.31113 25.9826 8.20923Z" fill="#B1B1B1"/>
<path d="M24.9429 8.56691L25.3065 7.57434L25.5879 7.47515L24.6099 6.86814C24.52 6.81206 24.445 6.83782 24.4163 6.88477L24.3817 6.94458C24.352 6.99706 24.3756 7.0795 24.4555 7.12856L25.2161 7.6013L24.9397 7.70062L24.6639 8.4599C24.6317 8.54943 24.6624 8.62941 24.7166 8.65151L24.7814 8.67571C24.8324 8.69516 24.9066 8.66622 24.9429 8.56691Z" fill="#B1B1B1"/>
<path d="M23.879 8.84778L24.3088 7.88506L24.5981 7.80538L23.6624 7.12992C23.5772 7.06819 23.5003 7.0868 23.4687 7.13226L23.4287 7.19146C23.3966 7.23992 23.4147 7.32386 23.4908 7.37869L24.217 7.90529L23.9351 7.98473L23.6083 8.72204C23.5701 8.80875 23.596 8.89041 23.648 8.91701L23.7108 8.94559C23.7611 8.96895 23.8373 8.94523 23.879 8.84778Z" fill="#B1B1B1"/>
<path d="M22.7985 9.0532L23.2933 8.12254L23.5863 8.06394L22.6991 7.32351C22.6198 7.25391 22.5413 7.26928 22.5059 7.31312L22.4626 7.36734C22.4257 7.41309 22.4393 7.49926 22.5117 7.55859L23.2012 8.13599L22.9132 8.19568L22.5371 8.908C22.4932 8.98955 22.5129 9.07415 22.5642 9.10225L22.6249 9.13822C22.6727 9.16362 22.7499 9.14735 22.7985 9.0532Z" fill="#B1B1B1"/>
<path d="M21.7065 9.1783L22.2646 8.28602L22.561 8.25005L21.7242 7.44609C21.6495 7.37176 21.5716 7.3804 21.5334 7.42123L21.4864 7.47281C21.447 7.51701 21.455 7.60233 21.5217 7.6673L22.1707 8.29328L21.8797 8.33189L21.4571 9.01336C21.4071 9.09478 21.4212 9.17999 21.4683 9.21205L21.5279 9.24976C21.5732 9.28026 21.6513 9.26789 21.7065 9.1783Z" fill="#B1B1B1"/>
<path d="M20.6099 9.22317L21.225 8.37436L21.5254 8.36073L20.7454 7.49865C20.6758 7.41969 20.5945 7.42161 20.5556 7.45932L20.5043 7.50753C20.4632 7.54849 20.4642 7.63519 20.527 7.70364L21.1318 8.37634L20.8398 8.39298L20.3702 9.04297C20.3153 9.11845 20.3239 9.20396 20.3702 9.24035L20.4253 9.28322C20.4686 9.31558 20.548 9.31036 20.6099 9.22317Z" fill="#B1B1B1"/>
<path d="M19.5107 9.19067L20.1833 8.38846L20.4832 8.3947L19.7642 7.47918C19.6996 7.39475 19.6192 7.39235 19.5774 7.4267L19.5241 7.47143C19.479 7.50902 19.4743 7.59561 19.5327 7.6685L20.0893 8.38293L19.7958 8.37807L19.2857 8.99258C19.225 9.06337 19.227 9.14972 19.2701 9.18977L19.3229 9.23613C19.3628 9.27252 19.4426 9.27198 19.5107 9.19067Z" fill="#B1B1B1"/>
<path d="M18.4166 9.07766L19.1423 8.32636L19.4411 8.35387L18.7855 7.38916C18.7275 7.30096 18.6486 7.29237 18.6047 7.32323L18.5473 7.36394C18.4989 7.39739 18.4883 7.48458 18.5429 7.56143L19.0488 8.31285L18.7578 8.28799L18.205 8.86276C18.1396 8.92995 18.1363 9.01737 18.1773 9.06085L18.226 9.10828C18.2654 9.1481 18.3438 9.15434 18.4166 9.07766Z" fill="#B1B1B1"/>
<path d="M17.3321 8.8858L18.1075 8.19011L18.4039 8.23905L17.8162 7.22883C17.7637 7.13642 17.6853 7.12177 17.6388 7.15029L17.5785 7.18524C17.5296 7.21724 17.5144 7.30203 17.5617 7.38285L18.0161 8.16963L17.726 8.1228L17.1358 8.65787C17.0669 8.71882 17.0575 8.80474 17.0954 8.84936L17.1409 8.9037C17.1765 8.94537 17.2557 8.95708 17.3321 8.8858Z" fill="#B1B1B1"/>
<path d="M16.2641 8.61601L17.0851 7.97754L17.3762 8.04797L16.8583 6.99909C16.8142 6.90151 16.7356 6.8823 16.6875 6.9068L16.626 6.93862C16.5749 6.96624 16.5536 7.04868 16.5953 7.13371L16.9956 7.95184L16.7089 7.8829L16.0838 8.37366C16.0099 8.43053 15.9959 8.51591 16.0299 8.56299L16.0717 8.61979C16.1042 8.66519 16.1834 8.68206 16.2641 8.61601Z" fill="#B1B1B1"/>
<path d="M15.217 8.27066L16.0793 7.6926L16.3659 7.78501L15.9208 6.69925C15.8813 6.60108 15.8056 6.57538 15.7555 6.59645L15.6919 6.62305C15.6394 6.64665 15.6105 6.72795 15.6481 6.81592L15.991 7.65915L15.712 7.57172L15.0535 8.01576C14.9758 8.06632 14.9538 8.15015 14.9864 8.20137L15.0242 8.25931C15.0534 8.30603 15.131 8.32914 15.217 8.27066Z" fill="#B1B1B1"/>
<path d="M14.1946 7.84899L15.0951 7.33428L15.3737 7.44794L15.0035 6.33445C14.9715 6.23201 14.8983 6.2003 14.8454 6.21814L14.7811 6.2409C14.7266 6.26101 14.6926 6.34021 14.7236 6.42902L15.0086 7.29645L14.7345 7.1874L14.0496 7.58311C13.9688 7.62808 13.9426 7.71023 13.9691 7.76145L14.003 7.82353C14.0298 7.87397 14.1049 7.90129 14.1946 7.84899Z" fill="#B1B1B1"/>
<path d="M14.6361 22.0195L14.4835 22.9926L14.2369 23.1411L15.2666 23.4964C15.3602 23.53 15.4263 23.4921 15.4433 23.4428L15.4653 23.3809C15.4832 23.3294 15.4458 23.2598 15.3618 23.2294L14.5612 22.9503L14.8009 22.8047L14.9158 22.0619C14.9295 21.9747 14.8852 21.908 14.8304 21.8993L14.7655 21.8888C14.7139 21.8813 14.6494 21.9224 14.6361 22.0195Z" fill="#B1B1B1"/>
<path d="M15.5778 21.5539L15.3554 22.515L15.1007 22.644L16.1023 23.0714C16.1938 23.1119 16.2622 23.0786 16.2834 23.0309L16.3086 22.9699C16.3312 22.9195 16.2975 22.8465 16.2162 22.8116L15.4369 22.4767L15.6878 22.3489L15.8522 21.6155C15.8734 21.5303 15.8341 21.4608 15.7781 21.4468L15.7152 21.433C15.6653 21.4215 15.5985 21.4579 15.5778 21.5539Z" fill="#B1B1B1"/>
<path d="M16.5486 21.1555L16.2601 22.0976L15.9974 22.2074L16.9669 22.7054C17.0554 22.7521 17.1253 22.7232 17.1501 22.6779L17.1794 22.6203C17.205 22.5698 17.1774 22.495 17.0987 22.455L16.3449 22.0666L16.6031 21.9568L16.8205 21.2367C16.8464 21.1517 16.8121 21.0798 16.7593 21.0632L16.6964 21.045C16.6462 21.0297 16.5764 21.0614 16.5486 21.1555Z" fill="#B1B1B1"/>
<path d="M17.5462 20.827L17.1938 21.7455L16.9221 21.8383L17.8549 22.4023C17.9393 22.4539 18.0114 22.4316 18.0386 22.3882L18.0733 22.3305C18.1015 22.2834 18.0788 22.2072 18.0034 22.161L17.2797 21.7209L17.5436 21.6289L17.8112 20.926C17.843 20.8433 17.8137 20.7694 17.7627 20.748L17.7005 20.726C17.6519 20.7074 17.5802 20.734 17.5462 20.827Z" fill="#B1B1B1"/>
<path d="M18.5645 20.5673L18.1482 21.4598L17.8721 21.5331L18.7615 22.1603C18.8418 22.2199 18.9159 22.2011 18.9465 22.158L18.9844 22.1052C19.0167 22.0608 18.9989 21.9817 18.9265 21.9315L18.2344 21.4417L18.5056 21.3683L18.8221 20.6842C18.8588 20.6064 18.8358 20.5291 18.7853 20.5063L18.725 20.4774C18.6782 20.4565 18.6051 20.4771 18.5645 20.5673Z" fill="#B1B1B1"/>
<path d="M19.5983 20.3806L19.1193 21.242L18.839 21.2949L19.6834 21.9843C19.7596 22.0483 19.8335 22.0359 19.8673 21.9946L19.9089 21.9441C19.9443 21.9008 19.9316 21.8228 19.8637 21.7661L19.2082 21.2286L19.4835 21.1753L19.8461 20.5172C19.8888 20.439 19.8705 20.361 19.8236 20.3342L19.7648 20.3034C19.7192 20.2779 19.6456 20.2941 19.5983 20.3806Z" fill="#B1B1B1"/>
<path d="M20.642 20.2676L20.1055 21.0932L19.8196 21.1257L20.6145 21.8724C20.6856 21.9413 20.7627 21.9339 20.7981 21.8967L20.8437 21.8491C20.8805 21.8087 20.8747 21.7277 20.8106 21.6688L20.1943 21.0855L20.4711 21.0512L20.8807 20.4202C20.9286 20.3466 20.9156 20.2673 20.8693 20.2373L20.8145 20.2007C20.7704 20.1735 20.6958 20.1842 20.642 20.2676Z" fill="#B1B1B1"/>
<path d="M21.6916 20.227L21.0979 21.013L20.8108 21.0272L21.5515 21.8265C21.6182 21.9008 21.6943 21.8983 21.7323 21.8634L21.7808 21.8184C21.8212 21.7812 21.8201 21.7008 21.7604 21.6368L21.1876 21.0123L21.4678 20.9973L21.9186 20.3963C21.9718 20.3272 21.9644 20.2468 21.9217 20.2123L21.8683 20.1735C21.8276 20.1417 21.752 20.1475 21.6916 20.227Z" fill="#B1B1B1"/>
<path d="M22.7417 20.261L22.0943 21.003L21.8071 20.9973L22.4897 21.8477C22.5504 21.9249 22.6265 21.9282 22.6661 21.8966L22.7191 21.8549C22.7628 21.8213 22.7675 21.7396 22.7113 21.6719L22.1839 21.009L22.4631 21.0141L22.9564 20.4463C23.0145 20.3802 23.0124 20.2986 22.9712 20.2612L22.9215 20.2203C22.882 20.1862 22.8064 20.1854 22.7417 20.261Z" fill="#B1B1B1"/>
<path d="M23.7869 20.3678L23.0896 21.062L22.8044 21.0361L23.4235 21.9328C23.4793 22.0149 23.5546 22.0231 23.5978 21.9935L23.6533 21.9574C23.6983 21.925 23.7075 21.8461 23.6575 21.774L23.1772 21.075L23.4566 21.0999L23.9881 20.567C24.0499 20.5057 24.0539 20.4259 24.0156 20.3868L23.9685 20.34C23.9324 20.3027 23.8563 20.2973 23.7869 20.3678Z" fill="#B1B1B1"/>
<path d="M24.8216 20.5494L24.0764 21.1933L23.7946 21.1461L24.3503 22.0838C24.3984 22.1708 24.4746 22.1836 24.5193 22.1575L24.5758 22.1244C24.6231 22.0958 24.6386 22.018 24.5937 21.9421L24.1637 21.2115L24.4408 21.2561L25.008 20.7619C25.0751 20.705 25.0837 20.625 25.0481 20.5829L25.0052 20.5331C24.9719 20.4933 24.8951 20.4831 24.8216 20.5494Z" fill="#B1B1B1"/>
<path d="M25.8408 20.8014L25.0519 21.3919L24.7737 21.3243L25.2632 22.2999C25.3063 22.3885 25.3807 22.408 25.4266 22.385L25.4856 22.3559C25.5342 22.3304 25.5569 22.2537 25.5165 22.1752L25.1389 21.4168L25.4101 21.4791L26.0116 21.0259C26.0832 20.9745 26.0986 20.8955 26.065 20.8506L26.0255 20.7988C25.995 20.7572 25.9194 20.7412 25.8408 20.8014Z" fill="#B1B1B1"/>
<path d="M26.8402 21.1252L26.0124 21.6593L25.7396 21.572L26.1589 22.5785C26.1958 22.6714 26.2671 22.6952 26.3167 22.6756L26.3761 22.6506C26.4273 22.6282 26.4551 22.5535 26.4202 22.473L26.0972 21.6888L26.3651 21.7715L26.9949 21.3613C27.0687 21.3146 27.0895 21.2367 27.0607 21.191L27.0249 21.1359C26.9966 21.091 26.9226 21.0709 26.8402 21.1252Z" fill="#B1B1B1"/>
<path d="M27.8148 21.5186L26.9515 21.9912L26.6852 21.8867L27.0324 22.9199C27.0629 23.0146 27.1322 23.0444 27.1816 23.0283L27.2448 23.0068C27.2968 22.9896 27.3289 22.9159 27.3008 22.8332L27.0338 22.0289L27.294 22.1302L27.9529 21.7639C28.0298 21.7227 28.056 21.6471 28.0294 21.5988L27.9982 21.541C27.9722 21.4956 27.9003 21.4693 27.8148 21.5186Z" fill="#B1B1B1"/>
<path d="M13.7213 8.29039C12.6908 8.47299 11.8364 9.3352 11.7758 10.2535C11.7733 10.2891 11.7725 10.3245 11.7725 10.3592C11.7725 10.7695 11.9336 11.1382 12.233 11.4067C12.6064 11.7412 13.1532 11.8746 13.7328 11.7717C14.7626 11.5903 15.6177 10.7284 15.6789 9.80902C15.7084 9.35573 15.5466 8.94646 15.2219 8.65553C14.848 8.32048 14.3014 8.18759 13.7213 8.29039Z" fill="#898A8D"/>
<path d="M3.77227 10.8977L3.31478 12.6735C3.31478 12.6735 3.66473 12.5796 3.91044 12.5133C3.60654 13.8678 2.04252 20.85 2.03231 20.8969C1.95137 21.1615 1.60466 21.356 1.30449 21.451L1.04942 21.5316L0.247681 24.1854L1.23604 23.7749C4.47211 22.4316 9.31141 21.1348 9.3601 21.1221L9.61566 21.0538L10.7375 17.9558L9.52757 18.2409C9.36335 18.2793 9.26079 18.3494 9.19408 18.4289C9.04258 18.6145 8.55308 19.1231 8.09283 19.274C8.05848 19.2834 5.98521 19.8545 5.96215 19.8608C5.95843 19.8618 5.95531 19.8624 5.95189 19.8633C5.96215 19.8176 8.38021 9.27332 8.38021 9.27332L3.77227 10.8977Z" fill="#898A8D"/>
<path d="M11.1566 12.543L10.7161 14.2665C10.7161 14.2665 10.9816 14.1973 11.2231 14.1336C10.939 15.2197 10.3166 17.6022 10.3166 17.6022C10.2461 17.89 10.2119 18.169 10.2119 18.4322C10.2119 19.0126 10.3793 19.5163 10.7027 19.8747C11.007 20.2119 11.5947 20.5836 12.6659 20.4362C13.4967 20.3229 14.2683 19.921 14.9603 19.2405L15.4273 18.7815L13.9909 17.9193L13.7113 18.186C13.6909 18.2059 13.6701 18.2226 13.6503 18.2392C13.6583 18.1771 13.6708 18.104 13.6909 18.0195C13.6895 18.0236 15.1736 11.9451 15.1736 11.9451L15.3964 11.0324L11.1566 12.543Z" fill="#898A8D"/>
<path d="M20.5306 9.46324C18.0823 9.76485 16.237 11.2261 15.7167 13.276C15.7159 13.2794 14.9877 16.2256 14.9877 16.2256L14.9906 16.2133C14.7321 17.1552 14.8325 17.8988 15.2893 18.424C15.817 19.0298 16.7387 19.2514 18.0293 19.0829C20.4896 18.7614 22.311 17.4219 22.7842 15.5865C22.7844 15.5845 23.6086 12.3229 23.6086 12.3229C23.84 11.3728 23.7233 10.6319 23.2646 10.1154C22.7367 9.52407 21.8173 9.304 20.5306 9.46324ZM20.2155 11.4334C20.2754 11.4267 20.3398 11.4259 20.4001 11.4292C20.1142 12.585 19.1011 16.6798 19.1011 16.6798C19.0514 16.872 18.7577 17.0384 18.4191 17.0622C18.4048 17.0632 18.39 17.0596 18.3747 17.0558C18.4426 16.7863 19.7181 11.6922 19.7247 11.665C19.7726 11.5917 20.0154 11.4559 20.2155 11.4334Z" fill="#898A8D"/>
<path d="M30.6212 7.36286C30.1136 7.44495 29.5227 7.65187 28.9885 7.91631C29.0346 7.73287 29.0846 7.53598 29.0846 7.53598L24.805 9.12732L24.395 10.8394C24.395 10.8394 24.6597 10.7596 24.9034 10.686C24.5795 12.0122 23.1947 17.6837 23.1947 17.6837L26.8086 16.7993L28.2712 10.7468C28.354 10.3889 28.5323 10.1648 28.8415 10.0296C28.7218 10.5336 27.9747 13.6775 27.9747 13.6775C27.9762 13.6726 27.9269 13.864 27.9269 13.864C27.7343 14.6028 27.4709 15.6151 28.0263 16.24C28.333 16.5855 28.8089 16.717 29.4406 16.6305C30.558 16.477 31.5411 15.8946 32.3634 14.898L32.7293 14.4553C32.7293 14.4553 31.4987 13.675 31.3824 13.6018C31.6563 12.4586 32.332 9.63603 32.332 9.63603C32.4006 9.35604 32.4357 9.09868 32.4357 8.86402C32.4357 8.41547 32.3086 8.05117 32.0566 7.77724C31.727 7.41973 31.204 7.26931 30.6212 7.36286Z" fill="#898A8D"/>
<path d="M3.02669 26.1077L2.802 25.4613L3.56387 25.1154C7.63103 23.3793 13.2402 21.4272 18.9532 19.7591C24.8135 18.0483 30.0198 16.8692 33.2377 16.5245L33.8097 16.463L33.7773 18.0979L33.3749 18.1759C30.5989 18.7115 20.7801 20.9722 10.9881 27.581L10.7151 27.7651L10.4357 27.5901C8.3116 26.261 5.34496 26.0787 3.76586 26.0879C3.53192 26.0843 3.02669 26.1077 3.02669 26.1077Z" fill="#898A8D"/>
<path d="M35.9809 6.41274C33.91 6.84723 32.7474 8.33169 32.7922 10.4872C32.8187 11.7772 33.62 12.8412 34.3952 13.8702C35.0602 14.7526 35.6884 15.5864 35.7093 16.4247C35.7475 17.9821 35.0608 18.2012 34.833 18.2528C34.4318 18.3429 34.1351 18.0999 34.0515 17.998C34.7483 17.673 35.4485 17.0541 35.4485 16.166C35.4485 16.108 35.4455 16.0492 35.4396 15.9891C35.3816 15.4162 35.1044 15.1026 34.8824 14.9396C34.3882 14.5782 33.8026 14.6646 33.6351 14.6995C32.4158 14.9535 31.6406 16.1576 31.8702 17.4411C32.2419 19.5192 34.1844 20.1599 35.8321 19.8748C37.0247 19.6683 38.0212 19.0687 38.6373 18.1853C39.247 17.3101 39.453 16.2157 39.2329 15.021C39.0052 13.7836 38.3434 12.8081 37.7037 11.8639C37.04 10.8847 36.4119 9.95906 36.3658 8.84803C36.3508 8.49358 36.4535 8.22865 36.5616 8.12345C36.6037 8.08262 36.6308 8.08034 36.6566 8.08196C36.6953 8.08472 36.7859 8.09121 36.8825 8.23784C37.0979 8.56581 37.1275 9.24451 36.9492 9.75124L36.8898 9.92021L37.1967 10.7875L40.1184 9.42135L40.0775 9.06053C39.9819 8.19184 39.5482 7.43923 38.8585 6.93886C38.0781 6.37425 37.0565 6.18757 35.9809 6.41274Z" fill="#898A8D"/>
<path d="M13.7844 8.64879C12.9266 8.80052 12.1881 9.53146 12.1391 10.2778C12.137 10.3041 12.1364 10.331 12.1364 10.3575C12.1364 10.6638 12.2551 10.9374 12.4756 11.1352C12.7652 11.395 13.2001 11.4964 13.6691 11.4131C14.5272 11.2619 15.2657 10.5314 15.3154 9.7845C15.3376 9.44602 15.218 9.14128 14.9784 8.9268C14.689 8.66662 14.2539 8.56556 13.7844 8.64879Z" fill="white"/>
<path d="M4.07659 11.1765L3.8232 12.1592C3.8232 12.1592 4.23463 12.0488 4.39724 12.0046C4.29942 12.4424 2.38671 20.9806 2.38335 20.9946C2.2387 21.4892 1.65727 21.7216 1.41409 21.798L1.34215 21.8209L0.81897 23.5537L1.09686 23.4385C4.35551 22.086 9.21733 20.7831 9.2659 20.7704L9.33808 20.7505L10.1658 18.4645L9.73252 18.5661C9.54626 18.61 9.47733 18.6268 9.45559 18.6834C9.34282 18.8155 8.79502 19.4297 8.20098 19.6216L6.04695 20.2147C5.83198 20.2664 5.67448 20.2585 5.60855 20.1918C5.54935 20.1312 5.54298 19.9952 5.59072 19.8074C5.59186 19.8039 7.87739 9.83667 7.87739 9.83667L4.07659 11.1765Z" fill="white"/>
<path d="M11.4611 12.8202L11.2218 13.7575C11.2218 13.7575 11.5955 13.6598 11.7328 13.6237C11.6225 14.0444 10.6709 17.686 10.6709 17.686C10.6067 17.9478 10.5757 18.1993 10.5757 18.4345C10.5757 18.9231 10.711 19.3401 10.9735 19.6309C11.2185 19.9025 11.7035 20.2006 12.6163 20.0757C13.3672 19.9728 14.0704 19.6045 14.7052 18.9807L14.8369 18.8519L14.0412 18.3742L13.9633 18.4495C13.7933 18.611 13.6237 18.7041 13.4578 18.7263C13.3809 18.7375 13.3558 18.7098 13.3447 18.6981C13.2757 18.6226 13.2325 18.3784 13.3367 17.9361L14.8824 11.6019L11.4611 12.8202Z" fill="white"/>
<path d="M20.5756 9.82429C18.2789 10.1076 16.5521 11.4641 16.0694 13.3659C16.0694 13.366 15.3412 16.3131 15.3412 16.3131C15.1174 17.1268 15.1923 17.7572 15.5638 18.1846C16.0003 18.6858 16.8362 18.8714 17.9823 18.7221C20.2919 18.4198 21.9968 17.1845 22.4313 15.4956L23.256 12.2334C23.456 11.4094 23.3677 10.7788 22.9921 10.358C22.5494 9.86038 21.7358 9.68108 20.5756 9.82429ZM19.375 11.5617C19.4371 11.3109 19.8894 11.1042 20.1741 11.0714C20.4138 11.0445 20.7427 11.0812 20.8224 11.172C20.8304 11.1806 20.8347 11.1878 20.8298 11.2093L19.4545 16.7673C19.3636 17.1186 18.9485 17.3896 18.4447 17.4254C18.2925 17.436 18.1264 17.3744 18.0386 17.2755C18.0012 17.233 17.9835 17.1894 17.9835 17.1428C17.9835 17.1309 17.9849 17.1185 17.9874 17.1055C17.9898 17.0952 19.375 11.5617 19.375 11.5617Z" fill="white"/>
<path d="M30.6798 7.72228C29.9636 7.83805 29.041 8.23423 28.4212 8.66963C28.4565 8.53098 28.561 8.11954 28.561 8.11954L25.1139 9.40105L24.8966 10.3079C24.8966 10.3079 25.2718 10.1952 25.4083 10.1537C25.2979 10.6056 23.6908 17.1875 23.6908 17.1875L26.5072 16.4986L27.9178 10.6608C28.0367 10.1439 28.3366 9.8108 28.8336 9.64117C29.0263 9.57584 29.1748 9.60347 29.2365 9.66039C29.2505 9.67312 29.293 9.71251 29.2661 9.81729C29.2655 9.81915 28.3289 13.7615 28.3289 13.7615C28.3298 13.7604 28.2792 13.9555 28.2792 13.9555C28.1076 14.6155 27.8728 15.5189 28.298 15.9981C28.5195 16.2477 28.887 16.3385 29.3912 16.2694C30.415 16.1293 31.3208 15.5899 32.0828 14.6663L32.1858 14.5419L31.3703 14.0247L31.2925 14.1351C31.1085 14.394 30.9016 14.5099 30.8173 14.4984C30.8137 14.4887 30.8108 14.4746 30.8108 14.4529C30.8108 14.429 30.8141 14.3987 30.8247 14.3653L30.8264 14.3604L31.9775 9.55141C32.04 9.29885 32.0707 9.06953 32.0707 8.8652C32.0707 8.50984 31.9773 8.22823 31.789 8.02413C31.5439 7.75849 31.1395 7.64818 30.6798 7.72228Z" fill="white"/>
<path d="M33.2763 16.8866C30.0791 17.2288 24.8962 18.4035 19.0552 20.1088C13.356 21.7726 7.7614 23.7198 3.70709 25.4502L3.55493 25.5161L3.61402 25.7204L3.76353 25.7238C5.3825 25.7137 8.4266 25.9036 10.6291 27.282L10.7079 27.3315L10.7842 27.2794C20.6336 20.6317 30.5123 18.3571 33.3056 17.8185L33.4191 17.7966L33.4373 16.8693L33.2763 16.8866Z" fill="white"/>
<path d="M36.0557 6.76953C34.1448 7.1701 33.1152 8.48769 33.1561 10.48C33.1801 11.6525 33.9459 12.6686 34.6862 13.6509C35.3875 14.5815 36.0497 15.461 36.0727 16.4162C36.1029 17.6414 35.7164 18.3666 34.9239 18.5714C34.6216 18.6491 34.2353 18.5714 33.9397 18.3717C33.726 18.2277 33.585 18.0318 33.5243 17.8133C34.1927 17.607 35.0842 17.0283 35.0842 16.1586C35.0842 16.1146 35.082 16.071 35.0775 16.0263C35.0418 15.6735 34.9033 15.4066 34.6674 15.2335C34.3713 15.017 33.9785 14.9998 33.7097 15.0561C32.6675 15.2731 32.0307 16.2709 32.2287 17.3764C32.5567 19.2103 34.2942 19.7708 35.7698 19.5163C36.8661 19.3269 37.7781 18.7804 38.338 17.977C38.8917 17.1832 39.0774 16.1844 38.8747 15.0869C38.6607 13.9251 38.0211 12.9814 37.402 12.0678C36.708 11.0446 36.0518 10.0784 36.0017 8.86364C35.9841 8.44686 36.1015 8.06328 36.3072 7.86291C36.4153 7.75789 36.5415 7.70979 36.6818 7.71928C36.887 7.73387 37.0567 7.84069 37.1865 8.038C37.4653 8.46331 37.5113 9.25142 37.2923 9.87241L37.276 9.91973L37.4059 10.2877L39.7273 9.20194L39.7159 9.1004C39.6313 8.33523 39.2506 7.6728 38.6443 7.23399C37.9487 6.73014 37.0297 6.56507 36.0557 6.76953Z" fill="white"/>
<path d="M15.173 9.77556C15.127 10.4613 14.4429 11.1324 13.6445 11.2725C12.8457 11.4144 12.2352 10.9725 12.281 10.287C12.3262 9.60017 13.0109 8.92987 13.8095 8.78918C14.608 8.64736 15.2183 9.08924 15.173 9.77556Z" fill="#0060A9"/>
<path d="M9.58872 18.7466L9.94233 18.6633L9.22929 20.6329C9.22929 20.6329 4.34801 21.9347 1.04199 23.3065L1.45703 21.9346C1.90852 21.7919 2.38552 21.4978 2.52081 21.0329L4.58808 11.8056L4.02238 11.9585L4.19502 11.2853L7.68064 10.0566L5.45292 19.7724C5.3225 20.2827 5.54647 20.4811 6.08515 20.3522L8.24507 19.7572C8.95776 19.5267 9.58872 18.7466 9.58872 18.7466Z" fill="#0060A9"/>
<path d="M14.0613 18.5521C13.8783 18.7271 13.6828 18.8401 13.4765 18.8679C13.1158 18.9189 13.0683 18.4563 13.1979 17.9035L14.6815 11.8246L11.5805 12.9296L11.4202 13.5587L11.9324 13.4239L10.8086 17.722C10.5073 18.9587 10.915 20.1649 12.5966 19.9344C13.3632 19.829 14.0323 19.4415 14.6054 18.879L14.0613 18.5521Z" fill="#0060A9"/>
<path d="M18.4549 17.568C18.1452 17.5894 17.7869 17.375 17.8475 17.0766L19.2369 11.5273C19.3178 11.1991 19.8377 10.9661 20.1582 10.9299C20.4379 10.8982 21.0408 10.9356 20.9682 11.2418L19.593 16.8017C19.4776 17.2476 18.9793 17.5305 18.4549 17.568ZM23.1177 12.1986C23.5691 10.3404 22.4511 9.73621 20.5927 9.96553C18.45 10.2303 16.6975 11.472 16.2076 13.4004L15.4797 16.3472C14.9723 18.1932 16.1075 18.8226 17.9637 18.5806C20.092 18.3025 21.8487 17.1872 22.2934 15.4603L23.1177 12.1986Z" fill="#0060A9"/>
<path d="M25.2349 9.50851L25.0929 10.0994L25.6055 9.94516L23.8846 16.9933L26.389 16.3808L27.7791 10.6273C27.9232 10.0057 28.3018 9.67171 28.7874 9.50562C29.1649 9.37736 29.4863 9.52934 29.4043 9.85221L28.4674 13.7944C28.2541 14.6518 27.6836 16.3597 29.3719 16.1284C30.6319 15.9559 31.4696 15.1852 31.9729 14.5753L31.4084 14.2176C31.2022 14.5081 30.9328 14.6849 30.7643 14.6328C30.6644 14.6011 30.6481 14.4528 30.689 14.3226L31.8384 9.51781C32.1986 8.05947 31.3966 7.75048 30.7021 7.86312C29.8409 8.00177 28.7108 8.54819 28.1796 9.04471L28.3566 8.3474L25.2349 9.50851Z" fill="#0060A9"/>
<path d="M35.8595 8.86868C35.8304 8.16536 36.1554 7.53998 36.692 7.57709C37.5459 7.63654 37.7522 8.99658 37.4275 9.91973L37.4878 10.0918L39.5745 9.11673C39.3993 7.54058 37.9284 6.52256 36.0844 6.90872C34.0987 7.32478 33.2628 8.72601 33.2984 10.4765C33.3444 12.6846 36.1652 14.3682 36.2155 16.4121C36.2531 17.9379 35.644 18.5323 34.9597 18.7095C34.3459 18.8679 33.452 18.4669 33.3531 17.7127C34.0647 17.5403 35.0266 16.9327 34.9355 16.0404C34.8461 15.1574 34.0764 15.1248 33.7389 15.1951C32.8821 15.3734 32.2643 16.1726 32.3424 17.1451C25.2148 18.1351 11.7221 22.184 3.76282 25.5816C5.99731 25.5677 8.73188 25.9262 10.7045 27.1611C18.6134 21.8235 27.0563 18.9911 32.5016 17.8372C32.9943 19.1508 34.3987 19.6083 35.746 19.3759C37.7684 19.0266 39.1615 17.4303 38.7347 15.1133C38.2915 12.7047 35.9587 11.2389 35.8595 8.86868Z" fill="#0060A9"/>
<path d="M13.76 6.4317C13.2531 6.82362 12.9276 6.59844 12.6875 6.24285L13.0969 5.92647C13.2416 6.11345 13.3712 6.26471 13.5964 6.09069C13.7346 5.98381 13.7333 5.84192 13.6306 5.7091C13.3582 5.35651 12.517 5.97138 12.0666 5.38845C11.8298 5.0818 11.7877 4.72458 12.2867 4.33915C12.6855 4.03123 13.0217 4.05735 13.3111 4.48776L12.9122 4.79574C12.7991 4.64923 12.6596 4.51881 12.494 4.6467C12.3613 4.74926 12.3392 4.88341 12.4437 5.01893C12.731 5.3905 13.5302 4.72128 14.0057 5.33693C14.3975 5.84444 14.072 6.19103 13.76 6.4317Z" fill="#0060A9"/>
<path d="M14.7111 5.66229L14.2241 3.14143L14.8352 2.83832L16.5372 4.75541L16.0492 4.9977L15.6827 4.56777L15.0504 4.88163L15.1686 5.43507L14.7111 5.66229ZM14.7154 3.42953L14.7093 3.43241L14.9731 4.49535L15.415 4.27588L14.7154 3.42953Z" fill="#0060A9"/>
<path d="M16.9193 4.5949L16.3759 2.1808L17.1885 1.99832L17.9357 3.55484L17.9422 3.55322L17.9743 1.82137L18.76 1.64465L19.3033 4.05875L18.8118 4.16929L18.3926 2.30678L18.3859 2.3084L18.3402 4.27534L17.8588 4.38348L16.9984 2.62064L16.9916 2.62202L17.4108 4.4843L16.9193 4.5949Z" fill="#0060A9"/>
<path d="M20.5777 4.09393C19.9367 4.0899 19.8193 3.71209 19.8492 3.28385L20.3668 3.28733C20.3654 3.52379 20.3745 3.72236 20.6588 3.72446C20.8335 3.72548 20.9198 3.6129 20.9211 3.44483C20.9236 2.99953 19.8821 2.96536 19.8868 2.22865C19.889 1.84136 20.0761 1.5341 20.7066 1.53806C21.2104 1.54119 21.4592 1.76912 21.4218 2.28636L20.9181 2.28287C20.9193 2.09805 20.8895 1.90921 20.6806 1.90819C20.5123 1.90705 20.4125 1.99886 20.4116 2.17023C20.4086 2.63973 21.4507 2.60514 21.4459 3.38304C21.4419 4.02415 20.9718 4.09645 20.5777 4.09393Z" fill="#0060A9"/>
<path d="M24.1214 2.02554L23.7677 3.74406C23.6929 4.1065 23.4094 4.44714 22.7918 4.31996C22.2344 4.20515 22.0255 3.86109 22.1195 3.40468L22.4732 1.68616L22.98 1.79046L22.6333 3.47535C22.5715 3.77426 22.675 3.91801 22.8597 3.95596C23.0811 4.00142 23.2123 3.87466 23.2676 3.60595L23.6144 1.92106L24.1214 2.02554Z" fill="#0060A9"/>
<path d="M24.2002 4.62528L25.2028 2.36334L25.8419 2.64652L25.7494 4.47943L25.7556 4.48243L26.4499 2.91607L26.8916 3.11182L25.8891 5.37388L25.2655 5.09748L25.3816 3.16976L25.3752 3.167L24.6421 4.82121L24.2002 4.62528Z" fill="#0060A9"/>
<path d="M28.3344 4.96691C28.4721 4.78329 28.5608 4.59756 28.3391 4.43622C28.0786 4.24671 27.8225 4.5987 27.54 4.98654C27.0843 5.61264 27.0645 5.76804 27.3031 5.9414C27.3723 5.9919 27.4592 6.0296 27.539 6.05392L27.8616 5.61054L27.6344 5.44517L27.8583 5.13756L28.5039 5.60754L27.766 6.62172C27.6361 6.56101 27.3185 6.39763 27.1521 6.27675C26.4483 5.76438 26.5795 5.41491 27.1323 4.65605C27.4994 4.1516 27.8974 3.65712 28.5816 4.1552C28.9918 4.45369 29.0794 4.86951 28.7498 5.2696L28.3344 4.96691Z" fill="#0060A9"/>
<path d="M16.0018 27.4384L16.5616 25.6786L17.2149 25.8863C17.4952 25.9753 17.7013 26.1296 17.5818 26.5049C17.5175 26.7074 17.3711 26.8217 17.1588 26.7972L17.1573 26.8021C17.4065 26.9216 17.4212 27.1114 17.3445 27.3529C17.2026 27.7989 16.8088 27.6949 16.6528 27.6454L16.0018 27.4384ZM16.4561 27.2849L16.6608 27.3502C16.7388 27.3749 16.9152 27.4283 16.9934 27.1821C17.043 27.0261 17.0147 26.9124 16.8295 26.8534L16.6149 26.7852L16.4561 27.2849ZM16.701 26.5147L16.9472 26.593C17.0278 26.6185 17.1569 26.6007 17.2111 26.43C17.2522 26.3008 17.1946 26.1777 17.0704 26.1382L16.8437 26.0663L16.701 26.5147Z" fill="#0060A9"/>
<path d="M17.4564 27.8913L18.2903 26.166L18.791 26.2571L18.9539 28.1637L18.5536 28.0909L18.5263 27.6699L18.0078 27.5755L17.8315 27.9594L17.4564 27.8913ZM18.4556 26.5574L18.4506 26.5564L18.1341 27.31L18.4965 27.3759L18.4556 26.5574Z" fill="#0060A9"/>
<path d="M19.7371 28.2441C19.2596 28.2166 19.1864 27.9306 19.2253 27.6125L19.6108 27.6347C19.6007 27.8109 19.5998 27.9594 19.8118 27.9718C19.9421 27.9793 20.0108 27.8986 20.018 27.7734C20.0371 27.4416 19.2619 27.3762 19.2937 26.8273C19.3102 26.5385 19.4615 26.3168 19.9313 26.3439C20.3068 26.3655 20.4835 26.5449 20.4357 26.9289L20.0602 26.9073C20.0682 26.7695 20.0533 26.6278 19.8976 26.6187C19.7725 26.6114 19.6944 26.6762 19.687 26.8038C19.6668 27.1536 20.4449 27.1679 20.4115 27.7476C20.384 28.225 20.0308 28.2611 19.7371 28.2441Z" fill="#0060A9"/>
<path d="M20.7622 28.2451L20.6646 26.401L21.671 26.3477L21.6861 26.6313L21.0654 26.664L21.0893 27.1188L21.6615 27.0886L21.6766 27.372L21.1043 27.4024L21.1329 27.9413L21.774 27.9074L21.789 28.1909L20.7622 28.2451Z" fill="#0060A9"/>
<path d="M22.1453 28.1551L21.8385 26.3339L22.5145 26.2201C22.8046 26.1714 23.0583 26.2143 23.1237 26.6027C23.159 26.812 23.081 26.9808 22.8811 27.056L22.8819 27.061C23.1582 27.0535 23.2581 27.2155 23.3001 27.4654C23.378 27.927 22.9802 28.0147 22.8188 28.0418L22.1453 28.1551ZM22.3448 27.014L22.5995 26.9711C22.6829 26.957 22.7895 26.8819 22.7598 26.7055C22.7373 26.5718 22.6299 26.4887 22.5012 26.5104L22.2666 26.5499L22.3448 27.014ZM22.479 27.811L22.691 27.7754C22.7717 27.7618 22.9529 27.7287 22.91 27.4739C22.8828 27.3126 22.8057 27.2244 22.6139 27.2566L22.392 27.2941L22.479 27.811Z" fill="#0060A9"/>
<path d="M23.6444 27.8936L23.6 25.9777L24.0874 25.8306L25.1013 27.4535L24.712 27.5711L24.4956 27.209L23.9911 27.3614L24.0091 27.7835L23.6444 27.8936ZM23.9257 26.2508L23.9208 26.2523L23.9826 27.0673L24.3354 26.9609L23.9257 26.2508Z" fill="#0060A9"/>
<path d="M25.3644 27.3367L24.6375 25.6391L24.9926 25.4871L25.5987 26.9028L26.1303 26.6752L26.2509 26.9574L25.3644 27.3367Z" fill="#0060A9"/>
<path d="M26.4935 26.8313L25.609 25.2102L25.948 25.0252L26.6856 26.377L27.1931 26.1002L27.3401 26.3695L26.4935 26.8313Z" fill="#0060A9"/>
<path d="M27.554 25.1317C27.2557 24.7446 26.9717 24.3759 27.4761 23.9871C27.7883 23.7468 28.0466 23.8222 28.2764 24.1456L27.9765 24.3767C27.8266 24.1821 27.736 24.1359 27.6449 24.2061C27.4725 24.3387 27.5752 24.518 27.8639 24.8928C28.1528 25.2678 28.3001 25.4126 28.4723 25.28C28.6141 25.1707 28.4674 24.9929 28.3825 24.8744L28.6845 24.6416C28.9858 25.0327 28.9266 25.2786 28.6409 25.4988C28.1363 25.8876 27.8492 25.5147 27.554 25.1317Z" fill="#0060A9"/>
<path d="M29.3205 24.8985L28.0464 23.5613L28.326 23.295L29.3884 24.4099L29.8069 24.0109L30.0187 24.2334L29.3205 24.8985Z" fill="#0060A9"/>
<path d="M29.5987 21.892L30.601 22.7351C30.8124 22.9131 30.9352 23.2202 30.6321 23.5803C30.3588 23.9052 30.0588 23.9202 29.7925 23.6962L28.7903 22.8531L29.039 22.5576L30.0216 23.3842C30.1958 23.5307 30.3269 23.5141 30.4175 23.4063C30.5262 23.2772 30.4895 23.1459 30.3329 23.0142L29.3503 22.1875L29.5987 21.892Z" fill="#0060A9"/>
<path d="M31.2624 22.7412L29.7108 21.7389L30.0826 21.1633C30.2423 20.9162 30.4449 20.7577 30.776 20.9717C30.9543 21.0868 31.0264 21.2582 30.947 21.4565L30.9513 21.4593C31.132 21.2502 31.3191 21.2859 31.5319 21.4232C31.9251 21.6771 31.7218 22.03 31.6328 22.1675L31.2624 22.7412ZM30.5543 21.8241L30.6946 21.6072C30.7403 21.5361 30.7568 21.4068 30.6063 21.3097C30.4924 21.2361 30.3587 21.2592 30.288 21.3689L30.1588 21.5687L30.5543 21.8241ZM31.2333 22.2627L31.3499 22.0822C31.3943 22.0135 31.4921 21.8574 31.2751 21.7171C31.1375 21.6283 31.0204 21.6259 30.9149 21.7892L30.7927 21.9782L31.2333 22.2627Z" fill="#0060A9"/>
</svg>
