<svg width="52" height="30" viewBox="0 0 52 30" fill="none" xmlns="http://www.w3.org/2000/svg">
<path d="M48.7229 16.702C48.982 16.3369 49.1705 15.9128 49.2883 15.477L49.5474 14.4994C49.6416 14.1461 49.6888 13.7809 49.6888 13.4276C49.6888 13.192 49.6652 12.9564 49.6181 12.7326L50.0303 12.6973L51.1022 8.69258L49.1705 6.39576L41.7736 7.04358C41.3495 6.52532 40.8784 6.01885 40.3719 5.5477C40.1717 3.36867 38.3342 1.649 36.0963 1.649C35.5663 1.649 35.0716 1.74323 34.6004 1.91991C31.6676 0.694935 28.2753 0 24.6475 0C18.3107 0 12.657 2.13192 9.05272 5.4417L1.95024 6.07774L5.38958 9.18728L0.642822 26.9022L2.73941 29.1873L16.591 26.702C19.0527 27.4912 21.7736 27.927 24.6475 27.927C29.6181 27.927 34.1646 26.6196 37.6393 24.4523L38.6169 30L42.4685 21.331L51.5144 17.338L48.7229 16.702Z" fill="#D5D5D6"/>
<path d="M50.4073 8.85748L48.8996 7.05536L41.4909 7.70319C40.9844 7.04359 40.3955 6.40754 39.7477 5.81861C39.6888 3.85159 38.0751 2.27327 36.0845 2.27327C35.5545 2.27327 35.048 2.39105 34.5887 2.59129C31.6911 1.35454 28.2871 0.636047 24.6475 0.636047C18.3578 0.636047 12.7748 2.76797 9.30008 6.05419L3.43435 6.58422L6.08453 8.98705L1.33777 26.7256L2.97499 28.5041L16.6381 26.0542C19.0763 26.8433 21.7971 27.2909 24.6593 27.2909C29.9008 27.2909 34.6593 25.8068 38.1104 23.404L38.8996 27.8563L42.0091 20.8481L49.5239 17.5265L47.5333 17.0789C48.0751 16.6313 48.4991 16.0071 48.6758 15.3121L48.9349 14.3345C49.0174 14.0283 49.0527 13.722 49.0527 13.4276C49.0527 13.1095 48.9938 12.8033 48.8996 12.5206C48.8643 12.4028 48.8054 12.285 48.7583 12.179L49.5356 12.1084L50.4073 8.85748Z" fill="#CF0022"/>
<path d="M36.8619 21.8492C34.4826 23.4747 31.5144 24.5583 28.2753 25.0295C29.9126 24.4287 31.432 23.6631 32.7865 22.7444C32.869 22.6855 32.9632 22.6266 33.0456 22.5677L30.313 23.0507C27.2859 24.6054 23.5286 25.5242 19.4414 25.5242C19.0527 25.5242 18.664 25.5124 18.2871 25.5006C20.2659 26.0071 22.4096 26.2898 24.6358 26.2898C29.8772 26.2898 34.5886 24.7703 37.8866 22.3439L37.6864 21.2368C37.4391 21.437 37.1564 21.649 36.8619 21.8492Z" fill="white"/>
<path d="M3.02209 26.2897L3.52857 26.8551L38.558 20.6242L38.452 20L3.02209 26.2897ZM40.8548 19.6937L39.0998 23.6396L39.5828 24.1225L41.3378 20.1767L45.1776 18.4805L44.6946 17.9976L40.8548 19.6937ZM48.24 8.63367L47.8395 10.106L45.2836 10.3298C45.1776 10.3416 45.0716 10.4358 45.048 10.5418L44.7653 11.5783C44.7418 11.6843 44.8007 11.7668 44.8949 11.755L45.3778 11.7079L45.5427 11.0954C45.5663 10.9894 45.6487 10.9423 45.7312 10.9305L48.3224 10.7067L48.7229 9.23437L48.24 8.63367ZM32.3036 15.3946L32.7865 15.3474L32.9868 14.5818L36.4143 14.2874L37.015 12.0377C37.0621 11.861 37.0857 11.6961 37.0857 11.543C37.0857 11.3899 37.0621 11.2367 37.015 11.1072C36.9679 10.9776 36.909 10.8598 36.8148 10.7538C36.7323 10.6596 36.4261 10.2944 36.3319 10.1884C36.5674 10.4947 36.6499 10.9423 36.5085 11.4487L35.9078 13.6984L32.4803 13.9929L32.1505 15.2179C32.1387 15.3239 32.1976 15.4063 32.3036 15.3946Z" fill="#970022"/>
<path d="M40.5839 11.3781L42.8337 11.1779L43.1752 9.88224C43.187 9.82335 43.2106 9.77624 43.2341 9.71734L42.7159 9.10486L42.3272 10.5772L40.1364 10.7656C40.0304 10.7774 39.9243 10.8716 39.9008 10.9776L38.4756 16.2898L36.3908 16.4782L36.5792 15.7833L35.9785 16.5254L31.4084 16.9258C30.7135 16.9847 30.2188 16.6314 30.0892 16.0542L29.2176 17.1261L27.9573 17.2321C27.6393 17.2556 27.3802 17.1732 27.2271 16.9965C27.0857 17.185 26.8619 17.3263 26.6499 17.3381L24.6476 17.5148C23.9526 17.5736 23.4579 17.2203 23.3284 16.6431L22.4567 17.715L21.3142 17.821C20.8431 17.8563 20.4662 17.715 20.2306 17.4323C20.3248 17.5501 20.6311 17.9152 20.7135 18.0095C20.796 18.1037 20.8902 18.1861 20.9962 18.2568C21.1022 18.3157 21.2318 18.3746 21.3613 18.3981C21.5027 18.4217 21.644 18.4335 21.8089 18.4217L22.7748 18.3393L23.6582 17.2556C23.7877 17.4087 23.988 17.6443 24.0468 17.715C24.1293 17.8092 24.2235 17.8917 24.3295 17.9623C24.4355 18.0212 24.5651 18.0801 24.6947 18.1037C24.836 18.1272 24.9774 18.139 25.1423 18.1272L27.1446 17.9506C27.3566 17.927 27.5804 17.7974 27.7218 17.609C27.8749 17.7739 28.1222 17.8681 28.452 17.8446L29.5357 17.7503L30.419 16.6667C30.5486 16.8198 30.7488 17.0554 30.8077 17.1261C30.8902 17.2203 30.9844 17.3027 31.0904 17.3734C31.1964 17.4323 31.326 17.4912 31.4556 17.5148C31.5969 17.5383 31.7382 17.5501 31.9031 17.5383L36.4732 17.1378L36.6735 16.8905L36.8855 17.1025L38.9703 16.914L40.4073 11.5548C40.4308 11.4488 40.5133 11.3899 40.5839 11.3781ZM47.2742 12.662C47.1917 12.5678 46.8855 12.2026 46.7912 12.0966C47.0268 12.4029 47.1093 12.8504 46.9679 13.3569L46.591 14.7703C46.4732 15.2297 46.0256 15.642 45.6134 15.6773L41.008 16.0778L41.2082 17.2203L41.8796 17.3734L41.75 16.6549L45.6605 16.3133C46.3437 16.2544 47.0033 15.6537 47.1917 14.9352L47.4508 13.9576C47.498 13.7809 47.5215 13.616 47.5215 13.4629C47.5215 13.3098 47.498 13.1567 47.4508 13.0271C47.4155 12.8858 47.3566 12.768 47.2742 12.662Z" fill="#970022"/>
<path d="M40.7606 14.6525L41.3966 14.6054L41.3495 14.358L40.5721 13.5807L40.7606 14.6525ZM42.9985 12.5913C43.081 12.6973 43.4108 13.0742 43.4932 13.1802C43.5757 13.2744 43.6699 13.3569 43.7759 13.4275C43.8819 13.4864 44.0115 13.5453 44.141 13.5689C44.2824 13.5924 44.4237 13.6042 44.5886 13.5924L44.8831 13.5689L45.0126 13.1095C45.0362 13.0035 44.9773 12.9211 44.8831 12.9328L44.1057 13.0035C43.611 13.0271 43.2341 12.8739 42.9985 12.5913ZM28.9585 15.689L29.4414 15.6419L31.9738 6.18372L31.4791 5.59479L28.8171 15.5123C28.7936 15.6183 28.8525 15.7008 28.9585 15.689ZM33.6346 12.1672C33.6581 12.0612 33.7641 11.967 33.8701 11.9552L34.3413 11.9081L34.4708 11.4487C34.4944 11.3427 34.4355 11.2603 34.3413 11.2721L33.3754 11.3545C33.2694 11.3663 33.1634 11.4605 33.1399 11.5665L32.8101 12.7915L33.4814 12.7326L33.6346 12.1672ZM10.9844 8.06829L10.4897 7.46758L6.89722 20.8716L7.56859 20.8127L10.9844 8.06829ZM13.7052 18.1743C13.5639 18.3628 13.3401 18.5041 13.1281 18.5159L11.1257 18.6925C10.6781 18.7279 10.3012 18.5983 10.0657 18.3274L10.525 18.881C10.6075 18.9752 10.7017 19.0577 10.8077 19.1284C10.9137 19.1872 11.0433 19.2461 11.1728 19.2697C11.3142 19.2933 11.4555 19.305 11.6204 19.2933L13.6228 19.1166C13.8348 19.093 14.0586 18.9635 14.1999 18.775C14.353 18.9399 14.6004 19.0341 14.9302 19.0106L16.1905 18.9046L16.4143 18.6337L16.6028 18.8692L18.6876 18.6808L20.1599 13.1802L20.8195 13.1213L20.949 12.6619C20.9726 12.5559 20.9137 12.4735 20.8195 12.4852L19.677 12.5913L18.1929 18.0683L16.1081 18.2567L16.2965 17.5618L15.6958 18.2921L14.4355 18.3981C14.1057 18.4334 13.8466 18.3392 13.7052 18.1743ZM14.0704 13.6984L14.1999 13.2391C14.2235 13.1331 14.1646 13.0506 14.0704 13.0624L10.8313 13.3451L11.326 13.934L14.0704 13.6984Z" fill="#970022"/>
<path d="M12.0209 17.1732L12.5039 17.126L12.6805 16.49C12.7041 16.384 12.8101 16.2898 12.9161 16.278L13.3873 16.2309L13.5639 15.5831L12.4214 15.6891C12.3154 15.7008 12.2094 15.7951 12.1858 15.9011L11.8914 17.0083C11.856 17.1025 11.9149 17.1849 12.0209 17.1732ZM25.5427 15.9835L26.0257 15.9364L26.8737 12.7562C26.8973 12.6502 27.0033 12.556 27.1093 12.5442L27.5804 12.4971L27.7571 11.8493L26.6146 11.9553C26.5086 11.967 26.4026 12.0613 26.379 12.1673L25.4014 15.8069C25.3778 15.9129 25.4367 15.9953 25.5427 15.9835ZM15.4367 16.8669L15.9196 16.8198L16.7324 13.8045C16.7795 13.6278 16.803 13.4629 16.803 13.3098C16.803 13.1567 16.7795 13.0036 16.7324 12.874C16.6853 12.7444 16.6264 12.6266 16.5321 12.5206C16.4497 12.4264 16.1434 12.0613 16.0492 11.9553C16.2848 12.2615 16.3672 12.7091 16.2259 13.2156L15.2954 16.6902C15.2718 16.7962 15.3307 16.8787 15.4367 16.8669ZM22.1976 16.278L22.6805 16.2309L23.4933 13.2156C23.5404 13.0389 23.5639 12.874 23.5639 12.7209C23.5639 12.5677 23.5404 12.4146 23.4933 12.2851C23.4461 12.1555 23.3873 12.0377 23.293 11.9317C23.2106 11.8375 22.9043 11.4723 22.8101 11.3663C23.0457 11.6726 23.1281 12.1202 22.9868 12.6266L22.0563 16.1013C22.0327 16.2073 22.0916 16.2898 22.1976 16.278Z" fill="#970022"/>
<path d="M45.048 10.5418C45.0716 10.4358 45.1776 10.3416 45.2836 10.3298L47.8395 10.106L48.24 8.63367L44.1646 8.98703C43.7406 9.02236 43.3048 9.43461 43.187 9.89397L42.8101 11.3074C42.5392 12.3204 43.1163 13.0742 44.0939 12.98L44.8713 12.9093C44.9773 12.8975 45.0362 12.98 45.0009 13.086L44.7182 14.1225C44.6947 14.2285 44.5886 14.3227 44.4826 14.3345L40.7488 14.6643L40.5604 13.5807L38.8054 17.5265L37.2388 18.2214L6.89724 20.8716L10.4897 7.46759L6.67345 7.80917L7.72174 8.76323L3.02209 26.2897L38.452 20L39.0998 23.6396L40.8548 19.6937L44.7064 17.9976L41.22 17.2202L41.0197 16.0777L45.6252 15.6772C46.0492 15.6419 46.485 15.2297 46.6028 14.7703L46.9797 13.3569C47.2506 12.3439 46.6735 11.5901 45.6958 11.6725L44.9184 11.7432C44.8124 11.755 44.7535 11.6725 44.7889 11.5665L45.048 10.5418Z" fill="white"/>
<path d="M36.0845 8.96348C37.7563 8.96348 39.1116 7.60821 39.1116 5.93639C39.1116 4.26458 37.7563 2.9093 36.0845 2.9093C34.4126 2.9093 33.0574 4.26458 33.0574 5.93639C33.0574 7.60821 34.4126 8.96348 36.0845 8.96348Z" fill="white"/>
<path d="M34.247 3.52178C31.4673 2.33214 28.181 1.63721 24.6475 1.63721C23.3754 1.63721 22.1386 1.73144 20.949 1.89634C25.7311 2.10835 30.0067 3.59245 33.0574 5.86571C33.0809 4.91165 33.5403 4.06359 34.247 3.52178ZM42.3271 10.5889L42.7158 9.11659L39.0173 9.44639C38.5933 9.48173 38.1575 9.89398 38.0397 10.3533L36.7912 15.0177L32.3035 15.4063C32.1975 15.4181 32.1386 15.3357 32.174 15.2297L32.5038 14.0047L35.9313 13.7102L36.532 11.4605C36.803 10.4476 36.2258 9.69374 35.2482 9.77619L32.2682 10.0353C31.8442 10.0707 31.4084 10.4829 31.2906 10.9423L30.1363 15.2532C30.101 15.371 30.0892 15.4888 30.0774 15.6066L28.982 15.7008C28.876 15.7126 28.8171 15.6301 28.8524 15.5241L31.5144 5.60658L28.0868 5.91283L29.1351 6.86689L28.1928 10.4005L25.5309 10.636C25.1068 10.6714 24.671 11.0836 24.5532 11.543L23.3989 15.8539C23.3636 15.9717 23.3518 16.0895 23.3401 16.2073L22.2446 16.3015C22.1386 16.3133 22.0798 16.2308 22.1151 16.1248L23.0456 12.6502C23.3165 11.6372 22.7394 10.8834 21.7617 10.9658L18.0279 11.2956L16.5556 16.7962L15.4838 16.8904C15.3777 16.9022 15.3189 16.8198 15.3542 16.7138L16.2847 13.2391C16.5556 12.2261 15.9785 11.4723 15.0008 11.5548L11.267 11.8846L10.8666 13.3569L14.1057 13.0742C14.2117 13.0624 14.2706 13.1449 14.2352 13.2509L13.929 14.4052L11.2906 14.6407C10.8666 14.6761 10.419 15.0648 10.3012 15.5124L9.90072 17.0318C9.62981 18.0447 10.207 18.7986 11.1846 18.7161L13.1869 18.5394C13.399 18.5159 13.6227 18.3863 13.7641 18.1979C13.9172 18.3628 14.1646 18.457 14.4944 18.4334L15.7547 18.3274L16.3554 17.5972L16.1669 18.2921L18.2517 18.1036L19.724 12.603L20.8666 12.497C20.9726 12.4853 21.0315 12.5677 20.9961 12.6737L20.0656 16.1484C19.7947 17.1614 20.3719 17.9152 21.3495 17.8327L22.492 17.7267L23.3636 16.6549C23.4932 17.232 23.9879 17.5854 24.6828 17.5265L26.6852 17.3498C26.8972 17.3263 27.121 17.1967 27.2623 17.0082C27.4154 17.1731 27.6628 17.2674 27.9926 17.2438L29.2529 17.1378L30.1245 16.0659C30.2541 16.6431 30.7488 16.9965 31.4437 16.9376L36.0138 16.5371L36.6145 15.795L36.426 16.49L38.5108 16.3015L39.9361 10.9894C39.9596 10.8834 40.0656 10.7892 40.1716 10.7774L42.3271 10.5889ZM33.1398 11.5783C33.1634 11.4723 33.2694 11.3781 33.3754 11.3663L34.3412 11.2839C34.4472 11.2721 34.5061 11.3545 34.4708 11.4605L34.141 12.6855L32.81 12.8033L33.1398 11.5783ZM13.2105 16.8787C13.1869 16.9847 13.0809 17.0789 12.9749 17.0907L12.0091 17.1731C11.9031 17.1849 11.8442 17.1025 11.8795 16.9965L12.174 15.8893C12.1975 15.7833 12.3035 15.689 12.4096 15.6773L13.5521 15.5712L13.2105 16.8787ZM26.7323 15.7008C26.7087 15.8068 26.6027 15.901 26.4967 15.9128L25.5309 15.9953C25.4249 16.0071 25.366 15.9246 25.4013 15.8186L26.3789 12.179C26.4025 12.073 26.5085 11.9788 26.6145 11.967L27.757 11.861L26.7323 15.7008Z" fill="white"/>
<path d="M11.5733 17.927C11.0315 17.9741 10.7134 17.5618 10.8666 16.9965L11.2199 15.689C11.2552 15.5477 11.3495 15.4181 11.4555 15.3239L10.631 14.8999C10.4543 15.053 10.313 15.265 10.2541 15.4888L9.8536 17.0082C9.58269 18.0212 10.1598 18.775 11.1375 18.6926L13.1398 18.5159C13.3518 18.4923 13.5756 18.3628 13.717 18.1743C13.8701 18.3392 14.1174 18.4335 14.4472 18.4099L15.684 18.3039L15.4013 17.609L11.5733 17.927ZM18.8289 11.9199L17.9808 11.2721L16.108 18.2568L18.1928 18.0683L17.3448 17.4205L18.8289 11.9199ZM28.0633 5.90106L29.1115 6.84335L28.1575 10.3887L29.0055 11.0365L30.2305 6.46643L28.0633 5.90106ZM35.0244 13.192L31.6086 13.4865L32.492 13.9929L35.9196 13.6985L35.0244 13.192ZM38.4166 9.72909C38.2399 9.89399 38.0986 10.106 38.0397 10.3416L36.3907 16.4782L38.4755 16.2898L37.6275 15.6419L38.9584 10.6596C38.9938 10.5183 39.088 10.3887 39.194 10.2827L38.4166 9.72909ZM39.5827 10.106C39.4531 10.1178 39.3236 10.1885 39.2058 10.2827L39.9949 10.8363C40.0421 10.8009 40.0892 10.7774 40.1363 10.7656L42.3271 10.5772L41.6675 9.91755L39.5827 10.106ZM22.1622 17.0082L21.7499 17.0436C21.2081 17.0907 20.8901 16.6784 21.0432 16.1131L21.9737 12.6384C22.1269 12.0848 21.8088 11.6608 21.267 11.7079L18.8289 11.9199L19.6769 12.5677L20.8194 12.4617C20.9254 12.4499 20.9843 12.5324 20.949 12.6384L20.0185 16.1131C19.7476 17.126 20.3247 17.8799 21.3024 17.7974L22.4449 17.6914L22.1622 17.0082Z" fill="#D5D5D6"/>
<path d="M14.7653 14.8999L11.8206 15.159C11.6911 15.1708 11.5497 15.2415 11.4437 15.3357L12.2682 15.7597C12.3153 15.7244 12.3624 15.7008 12.4096 15.689L13.5521 15.583L13.2105 16.8787C13.1987 16.9258 13.1634 16.9847 13.1163 17.02L13.7288 17.7385C13.8819 17.7267 14.035 17.5854 14.0703 17.4323L14.7653 14.8999ZM14.5061 12.2968L11.8795 12.5206L11.2199 11.861L10.8195 13.3333L14.0586 13.0507C14.1646 13.0389 14.2235 13.1213 14.1881 13.2273L13.8819 14.3816L14.7653 14.8881L15.2129 13.2156C15.366 12.6737 15.048 12.2497 14.5061 12.2968ZM34.7888 10.53L32.8218 10.7067C32.6923 10.7185 32.5627 10.7892 32.4449 10.8834L33.2341 11.437C33.2812 11.4017 33.3283 11.3781 33.3754 11.3663L34.3412 11.2839C34.4473 11.2721 34.5062 11.3545 34.4708 11.4605L34.141 12.6855L35.0244 13.192L35.4955 11.4488C35.6487 10.8952 35.3306 10.4829 34.7888 10.53ZM47.1799 9.44641L44.7182 9.65843C44.5886 9.6702 44.459 9.74088 44.3413 9.8351L45.1304 10.3887C45.1775 10.3534 45.2246 10.3298 45.2718 10.318L47.8277 10.0942L47.1799 9.44641Z" fill="#D5D5D6"/>
<path d="M43.5638 9.28149L44.353 9.83509C44.247 9.94109 44.1528 10.0707 44.1174 10.212L43.7876 11.437C43.6345 11.9906 43.9525 12.4146 44.4944 12.3675L45.2717 12.2968C45.8136 12.2497 46.1316 12.6619 45.9785 13.2273L45.6487 14.4523C45.6133 14.5936 45.5191 14.7232 45.4131 14.8292L44.6239 14.2756C44.671 14.2403 44.6946 14.1932 44.7181 14.1343L45.0008 13.0977C45.0244 12.9917 44.9655 12.9093 44.8713 12.9211L44.0939 12.9917C43.1163 13.0742 42.5391 12.3321 42.81 11.3192L43.1869 9.89398" fill="#D5D5D6"/>
<path d="M45.425 14.8174C45.319 14.9234 45.1776 14.9823 45.0481 14.9941L41.5498 15.3003L40.7489 14.6525L40.9962 16.0777L45.6017 15.6772C45.8137 15.6537 46.0257 15.5477 46.2024 15.3828L45.425 14.8174ZM28.9232 16.4075L25.0952 16.7373C24.5534 16.7844 24.2353 16.3722 24.3885 15.8068L25.4485 11.8374C25.4839 11.6961 25.5781 11.5665 25.6841 11.4605L24.8949 10.9069C24.7183 11.0718 24.5769 11.2838 24.518 11.5194L23.3637 15.8304C23.0928 16.8433 23.67 17.5971 24.6476 17.5147L26.6499 17.338C26.862 17.3145 27.0858 17.1849 27.2271 16.9964C27.3802 17.1613 27.6276 17.2556 27.9574 17.232L29.2177 17.126L28.9232 16.4075ZM35.6841 15.8186L31.8561 16.1484C31.3143 16.1955 30.9962 15.7832 31.1494 15.2179L32.2094 11.2485C32.2448 11.1072 32.339 10.9776 32.445 10.8716L31.6558 10.318C31.4792 10.4829 31.3378 10.6949 31.2789 10.9305L30.1246 15.2414C29.8537 16.2544 30.4309 17.0082 31.4085 16.9258L35.9786 16.5253L35.6841 15.8186Z" fill="#D5D5D6"/>
<path d="M38.452 20L36.7677 19.6231L4.63576 24.8057L9.01738 8.43347L6.67345 7.8092L7.72174 8.76327L3.02209 26.2898L38.452 20Z" fill="#D5D5D6"/>
<path d="M26.061 11.2956C25.9314 11.3074 25.8019 11.3781 25.6841 11.4723L26.4732 12.0259C26.5204 11.9906 26.5675 11.967 26.6146 11.9552L27.7571 11.8492L26.7324 15.6773C26.7206 15.7244 26.6853 15.7833 26.6381 15.8186L27.2506 16.5371C27.4038 16.5253 27.5569 16.384 27.5922 16.2308L28.9939 11.0129L26.061 11.2956Z" fill="#D5D5D6"/>
<path d="M40.7724 17.6678L40.3365 15.1943L39.1469 17.8681L37.3095 18.6808L6.15515 22.179L7.30945 23.2273L37.0857 19.1519L38.8996 19.5524L39.3354 22.0259L40.525 19.3522L43.1398 18.1979L40.7724 17.6678Z" fill="#FAC109"/>
<path d="M40.0657 17.0082L40.3719 18.0683L41.3849 18.4099L40.2306 19.0342L39.6063 20.212L39.3001 19.1402L38.2871 18.7986L39.4414 18.1861L40.0657 17.0082Z" fill="#004537"/>
<path d="M33.6699 4.09892C32.2093 3.49821 30.631 3.03885 28.9702 2.75616C30.5132 3.35687 31.9384 4.1107 33.1987 5.00587C33.3047 4.67607 33.4696 4.36983 33.6699 4.09892Z" fill="#FAC109"/>
<path d="M36.7441 8.04477C35.2128 8.04477 33.9761 6.80802 33.9761 5.27681C33.9761 4.38164 34.4001 3.5807 35.0597 3.07422C33.8937 3.49825 33.0574 4.61721 33.0574 5.92463C33.0574 7.59719 34.4119 8.95172 36.0845 8.95172C37.3919 8.95172 38.5108 8.11544 38.9349 6.94937C38.4284 7.62074 37.6392 8.04477 36.7441 8.04477Z" fill="#D5D5D6"/>
<path d="M36.8501 6.97291L36.6735 6.57244L36.5439 6.72556L36.697 7.07891L36.5792 7.20848L37.0268 7.38516L37.1446 7.24381L36.7559 7.07891L36.8501 6.97291ZM37.2742 6.56066L37.1917 6.13663L37.0268 6.26619L37.1093 6.63133L36.9679 6.74911L37.3684 7.00824L37.5215 6.89046L37.1682 6.65489L37.2742 6.56066ZM37.7806 6.25441L37.7689 5.81861L37.604 5.90106V6.28975L37.4391 6.3722L37.7806 6.702L37.9573 6.60777L37.6511 6.31331L37.7806 6.25441ZM38.3342 6.0424L38.4167 5.61837L38.2282 5.66549L38.1576 6.0424L37.9809 6.08951L38.24 6.47821L38.4285 6.43109L38.1929 6.07774L38.3342 6.0424ZM38.9232 5.94817L39.0763 5.5477L38.8878 5.55948L38.7465 5.91284L38.558 5.92461L38.7465 6.36042L38.9349 6.34864L38.7818 5.95995L38.9232 5.94817ZM36.5086 7.45583L36.2612 7.10247L36.167 7.27915L36.379 7.58539L36.2965 7.75029L36.7559 7.83274L36.8501 7.65606L36.4379 7.58539L36.5086 7.45583ZM36.273 7.99764L35.955 7.70318L35.8961 7.89163L36.1788 8.15076L36.1199 8.32744L36.591 8.31566L36.6499 8.12721L36.2259 8.13898L36.273 7.99764ZM36.1434 8.57479L35.7783 8.351L35.7547 8.53946L36.0727 8.73969L36.061 8.92815L36.5203 8.82214L36.5439 8.63368L36.1316 8.71613L36.1434 8.57479ZM35.5545 4.5583L35.1187 4.38162L35.0009 4.53474L35.3896 4.69964L35.2954 4.80565L35.472 5.19434L35.6016 5.053L35.4367 4.69964L35.5545 4.5583ZM34.7771 4.77032L34.624 4.8881L34.9773 5.12367L34.8596 5.20612L34.9538 5.63015L35.1069 5.51237L35.0245 5.13545L35.1776 5.02944L34.7771 4.77032ZM34.3649 5.07656L34.1882 5.15901L34.4944 5.46525L34.3649 5.52414V5.95995L34.5415 5.86572V5.48881L34.7064 5.40636L34.3649 5.07656ZM33.9055 5.28857L33.7053 5.34747L33.9408 5.70082L33.8113 5.73616L33.7288 6.16019L33.9173 6.11307L33.9879 5.73616L34.1646 5.68904L33.9055 5.28857ZM33.4344 5.41814L33.2341 5.42992L33.399 5.81861L33.2577 5.83039L33.0928 6.23086L33.293 6.21908L33.4344 5.86572L33.611 5.85394L33.4344 5.41814ZM35.8843 4.67609L35.9785 4.49941L35.7547 4.19317L35.849 4.02827L35.3896 3.94582L35.2836 4.11072L35.7076 4.19317L35.6369 4.32273L35.8843 4.67609ZM35.8607 3.81625L36.1788 4.1225L36.2377 3.93404L35.955 3.66313L36.0139 3.49823H35.5427L35.4838 3.68669H35.9078L35.8607 3.81625ZM36.0021 3.27444L36.3672 3.49823L36.3908 3.30977L36.061 3.10954L36.0845 2.92108L35.6252 3.02709L35.6016 3.21555L36.0139 3.1331L36.0021 3.27444Z" fill="#CF0022"/>
<path d="M12.3861 8.84572L12.8808 8.24502C13.2224 8.5277 13.5875 8.71616 14.0233 8.71616C14.3649 8.71616 14.5769 8.57482 14.5769 8.35102V8.33924C14.5769 8.12723 14.4474 8.02122 13.7995 7.85632C13.0222 7.65609 12.5275 7.44407 12.5275 6.67847V6.66669C12.5275 5.97175 13.081 5.51239 13.8702 5.51239C14.4238 5.51239 14.9067 5.68907 15.2954 5.99531L14.8596 6.63135C14.518 6.39578 14.1882 6.25444 13.8584 6.25444C13.5404 6.25444 13.3637 6.40756 13.3637 6.58424V6.59602C13.3637 6.84337 13.5286 6.92582 14.1882 7.10249C14.9656 7.30273 15.4014 7.58542 15.4014 8.25679V8.26857C15.4014 9.03418 14.8243 9.45821 13.988 9.45821C13.4344 9.45821 12.8455 9.25797 12.3861 8.84572ZM15.6605 8.84572L16.1552 8.24502C16.4968 8.5277 16.862 8.71616 17.2978 8.71616C17.6393 8.71616 17.8514 8.57482 17.8514 8.35102V8.33924C17.8514 8.12723 17.7218 8.02122 17.074 7.85632C16.2966 7.65609 15.8019 7.44407 15.8019 6.67847V6.66669C15.8019 5.97175 16.3555 5.51239 17.1446 5.51239C17.6982 5.51239 18.1812 5.68907 18.5699 5.99531L18.134 6.63135C17.7925 6.39578 17.4627 6.25444 17.1329 6.25444C16.8031 6.25444 16.6382 6.40756 16.6382 6.58424V6.59602C16.6382 6.84337 16.8031 6.92582 17.4627 7.10249C18.2401 7.30273 18.6759 7.58542 18.6759 8.25679V8.26857C18.6759 9.03418 18.0987 9.45821 17.2624 9.45821C16.7088 9.45821 16.1199 9.25797 15.6605 8.84572ZM19.0292 7.49119C19.0292 6.39578 19.8773 5.50061 21.0434 5.50061C21.7383 5.50061 22.1505 5.68907 22.551 6.03065L22.021 6.66669C21.7265 6.41934 21.4674 6.278 21.0198 6.278C20.4073 6.278 19.9244 6.81981 19.9244 7.46763V7.47941C19.9244 8.18612 20.4073 8.6926 21.0905 8.6926C21.3967 8.6926 21.6676 8.61015 21.8796 8.45703V7.90344H21.0198V7.17317H22.6806V8.83394C22.2919 9.16374 21.7383 9.44643 21.0434 9.44643C19.8537 9.46999 19.0292 8.63371 19.0292 7.49119Z" fill="white"/>
</svg>
