<svg width="34" height="30" viewBox="0 0 34 30" fill="none" xmlns="http://www.w3.org/2000/svg">
<path d="M30.4282 17.3597L33.6429 12.008H28.3523C28.7994 10.4595 29.4289 9.00038 30.2755 7.73105C25.5788 7.58194 20.5748 6.45398 17.0748 2.9375C13.5747 6.45398 8.57065 7.58194 3.8743 7.73105C4.72067 9.00038 5.35011 10.4595 5.79716 12.008H0.506714L3.72144 17.3597L1.56052 21.5788H6.51665C6.39928 22.6442 6.22159 23.6559 5.99332 24.5786C5.99332 24.5786 12.4128 25.7702 17.0748 30C21.7367 25.7702 28.1564 24.5786 28.1564 24.5786C27.9282 23.6558 27.7501 22.6442 27.6328 21.5788H32.5888L30.4282 17.3597Z" fill="#E0E0E0"/>
<path d="M29.165 17.3597L31.2771 13.2759H26.1892C26.4742 11.7022 26.9228 10.2384 27.5727 9.05617C24.2876 9.02119 19.2643 7.58581 17.0748 5.20575C14.8853 7.58581 9.86191 9.02119 6.57694 9.05617C7.2267 10.2384 7.67529 11.7023 7.96048 13.2759H2.87231L4.98456 17.3597L3.14086 20.7981H8.23242C8.12977 21.9022 7.9688 22.9222 7.7635 23.7889C7.7635 23.7889 12.3707 24.8294 17.0748 28.9494C21.7788 24.8294 26.3859 23.7889 26.3859 23.7889C26.1807 22.9222 26.0195 21.9022 25.9171 20.7981H31.0087L29.165 17.3597Z" fill="black"/>
<path d="M17.0748 24.0062C15.2897 24.0073 13.7509 25.0589 13.0417 26.5758L17.0748 29.2797L21.1078 26.5758C20.3986 25.0589 18.8598 24.0073 17.0748 24.0062Z" fill="#E0E0E0"/>
<path d="M10.2171 19.7002L8.22095 17.4091L9.93483 15.5158H8.69355L7.33467 16.9915V14.21H5.71277C6.01924 14.4688 6.27954 14.8118 6.27954 15.2741V19.7002H7.33475V17.9291L8.90179 19.7002H10.2171Z" fill="white"/>
<path d="M23.8886 15.5157V19.7002H22.8335V16.5799C22.8335 16.1178 22.573 15.7751 22.2664 15.5157H23.8886Z" fill="white"/>
<path d="M28.319 18.8182L28.8238 19.7002H24.6743L26.807 16.3975H24.8155V15.5157H28.7333L26.4207 18.8182H28.319Z" fill="white"/>
<path d="M12.2126 18.4929V16.3975H12.9534L13.4587 15.5157H12.2126V14.21L11.1576 14.8136V15.5157H10.3805V16.3974H11.1576V18.5504C11.1576 19.1854 11.6723 19.7 12.3072 19.7H13.1437V18.818H12.5377C12.3579 18.8182 12.2126 18.6726 12.2126 18.4929Z" fill="white"/>
<path d="M20.6591 15.5157L19.6125 17.7198L18.3959 15.4059L17.1789 17.7202L16.1325 15.5158H14.4907C14.8635 15.7253 15.2872 16.0781 15.542 16.5955C15.7969 17.113 17.1277 19.8007 17.1277 19.8007L18.3959 17.3784L19.6638 19.8007L21.7928 15.5158H20.6591V15.5157Z" fill="white"/>
<path d="M24.438 10.8567C23.2146 10.2453 22.69 9.66302 22.69 9.66302C21.2143 0.910219 10.7049 -1.22964 6.01074 0.606987C8.99512 1.3739 11.6572 2.47579 13.4648 4.45446C10.9642 3.82178 7.52712 3.67996 5.51428 4.30226C8.03248 4.63016 11.8205 6.33888 14.1219 9.5871C15.9055 12.1052 16.896 13.1795 18.8662 14.2739C20.119 13.7921 21.1914 12.6036 21.5422 11.737C22.5677 11.782 23.8252 11.3483 24.438 10.8567Z" fill="#EBEBEB"/>
<path d="M23.7759 10.8815C18.9212 9.89939 18.6125 4.79193 10.6426 4.79193C15.1062 7.24401 15.1554 11.4884 18.9293 13.6533C18.9293 13.6533 19.3569 13.2047 19.7675 12.2219L20.4717 12.3887C20.6014 11.5178 20.4411 10.6424 20.4411 10.6424C20.9286 10.8385 22.3839 11.3301 23.7759 10.8815Z" fill="#E50013"/>
<path d="M14.846 4.8326C17.8781 5.7772 20.2063 7.3684 21.6104 8.75614C20.4687 3.04789 13.37 -0.504969 7.32788 0.576816C7.32788 0.576816 12.0351 1.24756 14.846 4.8326Z" fill="#231916"/>
<path d="M18.0662 10.7602C17.9707 10.0215 17.4472 9.18098 16.7019 8.56972C17.5053 8.85256 18.2009 8.71648 18.5148 8.21399C18.6103 8.95263 19.1338 9.79311 19.8791 10.4043C19.0759 10.1213 18.3801 10.258 18.0662 10.7602Z" fill="white"/>
<path d="M21.7998 20.9162C21.5761 20.9162 21.3932 21.0016 21.2761 21.1499L21.2185 20.9544H20.6589C20.7755 21.0529 20.8746 21.1835 20.8746 21.3597V22.5468H21.276V21.5897C21.322 21.4411 21.508 21.2619 21.694 21.2619C21.9065 21.2619 22.0105 21.4541 22.0105 21.6832V22.5469H22.4116V21.6374C22.4117 21.1331 22.0914 20.9162 21.7998 20.9162Z" fill="#EBEBEB"/>
<path d="M14.8586 21.8135C14.8586 22.0769 14.7471 22.2461 14.5126 22.2461C14.278 22.2461 14.1665 22.077 14.1665 21.8135V20.9515H13.5491C13.6658 21.0506 13.7648 21.181 13.7648 21.3571V21.8824H13.7672C13.7672 22.4358 14.241 22.585 14.5126 22.585C14.7839 22.585 15.2581 22.4358 15.2581 21.8824V20.9515H14.8586V21.8135Z" fill="#EBEBEB"/>
<path d="M17.9038 20.9544L17.5057 21.8055L17.0427 20.9001L16.5795 21.8057L16.181 20.9543H15.5564C15.6984 21.0345 15.8596 21.1683 15.9565 21.3655C16.0534 21.5623 16.5599 22.6095 16.5599 22.6095L17.0424 21.6507L17.525 22.6095L18.3353 20.9543H17.9038V20.9544Z" fill="#EBEBEB"/>
<path d="M19.4722 20.9084C18.9806 20.9084 18.5908 21.2572 18.5908 21.7508C18.5908 22.2439 18.9806 22.5929 19.4722 22.5929C19.9639 22.5929 20.3535 22.2439 20.3535 21.7508C20.3535 21.2572 19.964 20.9084 19.4722 20.9084ZM19.4722 22.2693C19.2194 22.2693 19.0142 22.0519 19.0142 21.7508C19.0142 21.4501 19.2194 21.2319 19.4722 21.2319C19.7251 21.2319 19.9303 21.4501 19.9303 21.7508C19.9303 22.0519 19.7251 22.2693 19.4722 22.2693Z" fill="#EBEBEB"/>
<path d="M12.4176 22.2697C12.1703 22.2697 11.9538 22.0965 11.9399 21.9747L11.7374 22.3916C11.8724 22.5084 12.1211 22.5861 12.4309 22.5861C12.9129 22.5861 13.1993 22.3757 13.1993 22.0862C13.195 21.8493 13.056 21.7014 12.6593 21.5962C12.3796 21.5235 12.2184 21.4952 12.2184 21.3932C12.2184 21.2801 12.358 21.2206 12.5372 21.2206C12.6879 21.2206 12.8308 21.2566 12.9601 21.3421L13.1167 21.0619C13.0219 20.9834 12.7325 20.915 12.5417 20.915C12.0755 20.915 11.7899 21.1468 11.7899 21.4298C11.7854 21.6175 11.9196 21.7769 12.3479 21.8856C12.6188 21.9547 12.7692 21.9874 12.7692 22.0962C12.7691 22.2143 12.6244 22.2697 12.4176 22.2697Z" fill="#EBEBEB"/>
<path d="M19.2893 26.5888C19.2176 26.5247 19.1877 26.3587 19.2265 26.2275L19.2268 26.2263C19.2268 26.2263 19.2268 26.2264 19.2265 26.2264V26.2267C19.1681 26.2998 19.065 26.3444 18.9955 26.3426C18.9388 26.3412 18.5721 26.3361 18.5721 26.3361C18.5112 26.3356 18.4612 26.3838 18.4602 26.4449C18.4593 26.5059 18.5079 26.5559 18.5687 26.557C18.5687 26.557 18.8932 26.5629 18.9444 26.5626C19.0056 26.5626 19.0856 26.5276 19.1254 26.4789L19.1477 26.4225C19.1328 26.4618 19.1184 26.5013 19.1038 26.5409C19.0824 26.6438 19.107 26.7008 19.1862 26.7681C19.2698 26.8409 19.3966 26.9505 19.3966 26.9505H19.3968C19.4391 26.987 19.503 26.9824 19.5395 26.9399C19.5762 26.8977 19.5717 26.834 19.529 26.7972C19.529 26.797 19.3283 26.6238 19.2893 26.5888Z" fill="#E50013"/>
<path d="M19.5458 25.9907C19.4819 25.9189 19.471 25.7502 19.5241 25.6245L19.525 25.6233C19.525 25.6233 19.5247 25.6236 19.5244 25.6236L19.5243 25.6237C19.458 25.6901 19.3506 25.7223 19.2821 25.7125C19.2257 25.7052 18.8619 25.6585 18.8619 25.6585C18.8015 25.6508 18.7462 25.6935 18.7384 25.7538C18.7308 25.8143 18.773 25.8695 18.8338 25.8773C18.8338 25.8773 19.1551 25.92 19.2063 25.9255C19.2668 25.9323 19.3505 25.9067 19.3953 25.863L19.4242 25.8093C19.4051 25.8457 19.3869 25.8824 19.3688 25.9189C19.3334 26.0158 19.353 26.0806 19.4232 26.1568C19.4983 26.2386 19.6118 26.362 19.6118 26.362H19.6119C19.6497 26.4031 19.7136 26.4057 19.755 26.3678C19.7959 26.3299 19.7984 26.2661 19.7608 26.2247C19.7608 26.2246 19.5808 26.0296 19.5458 25.9907Z" fill="#E50013"/>
<path d="M18.764 28.1821C18.7332 28.2703 18.6507 28.3466 18.5851 28.3682C18.5309 28.3859 18.1834 28.5032 18.1834 28.5032C18.1259 28.5228 18.0948 28.5853 18.1144 28.6429C18.1338 28.7006 18.1963 28.7317 18.254 28.7124C18.254 28.7124 18.5619 28.6099 18.61 28.5927C18.6673 28.572 18.7465 28.5089 18.7526 28.4536L18.7641 28.1829L18.764 28.1818V28.1821Z" fill="#E50013"/>
<path d="M20.0554 25.6818C20.0554 25.6818 19.8987 25.468 19.8683 25.4254C19.813 25.3466 19.821 25.178 19.8884 25.0589L19.889 25.0575L19.8887 25.058L19.8883 25.0583C19.8152 25.1165 19.7048 25.1364 19.6374 25.1192C19.5823 25.1052 19.2261 25.018 19.2261 25.018C19.1675 25.0035 19.1074 25.0396 19.0929 25.0985C19.0784 25.1576 19.1143 25.2176 19.1736 25.232C19.1736 25.232 19.4884 25.3107 19.5384 25.3219C19.5979 25.3355 19.6836 25.3194 19.7332 25.2812L19.7678 25.2317C19.7451 25.2653 19.723 25.299 19.7012 25.3327C19.657 25.4203 19.6666 25.4929 19.7277 25.5764C19.7931 25.666 19.8919 25.8014 19.8919 25.8014C19.925 25.8467 19.9885 25.8565 20.0333 25.8236C20.0786 25.7905 20.0886 25.7272 20.0554 25.6818Z" fill="#E50013"/>
<path d="M19.2671 28.002C19.2671 28.002 19.0321 27.8782 18.9863 27.8528C18.9021 27.8065 18.8353 27.6513 18.844 27.515L18.8442 27.5136L18.844 27.5138V27.5141L18.8437 27.5142C18.8036 27.5987 18.7128 27.665 18.6449 27.6789C18.5893 27.6901 18.2311 27.7677 18.2311 27.7677C18.1715 27.7805 18.1335 27.8392 18.1463 27.8989C18.1592 27.9584 18.2176 27.996 18.2772 27.9833V27.9835C18.2772 27.9835 18.5947 27.9163 18.6445 27.9047C18.7037 27.8908 18.7742 27.8387 18.8016 27.7827L18.8113 27.7219C18.8054 27.7628 18.8005 27.8037 18.7953 27.8445C18.7989 27.9457 18.8345 28.0022 18.926 28.0507C19.0241 28.1028 19.1723 28.181 19.1723 28.181C19.2217 28.207 19.2831 28.1883 19.3092 28.1389C19.3351 28.0896 19.3165 28.0283 19.2671 28.002Z" fill="#E50013"/>
<path d="M19.1023 27.2125C19.0235 27.1567 18.9749 26.9952 18.9988 26.8603L18.9992 26.8589L18.9988 26.8594L18.9987 26.8598C18.949 26.9392 18.8515 26.9947 18.7825 27.0008C18.7258 27.0061 18.3608 27.0425 18.3608 27.0425C18.3002 27.0486 18.2561 27.1024 18.2621 27.1631C18.2681 27.2237 18.322 27.2678 18.3826 27.2618C18.3826 27.2618 18.7055 27.2312 18.7564 27.2252C18.817 27.2181 18.8928 27.1744 18.9266 27.1217L18.943 27.0629C18.9327 27.103 18.9227 27.1438 18.9129 27.184C18.9017 27.2803 18.9342 27.3438 19.0198 27.4019C19.1114 27.4647 19.2497 27.5593 19.2497 27.5593C19.2956 27.591 19.3588 27.579 19.3904 27.5329C19.4217 27.4868 19.41 27.4237 19.364 27.3922C19.3642 27.3921 19.1449 27.2426 19.1023 27.2125Z" fill="#E50013"/>
<path d="M14.8599 26.5888C14.9315 26.5247 14.9618 26.3587 14.9229 26.2275L14.9223 26.2263L14.9227 26.2264L14.923 26.2267C14.9811 26.2998 15.0843 26.3444 15.1536 26.3426C15.2104 26.3412 15.5769 26.3361 15.5769 26.3361C15.6379 26.3356 15.688 26.3838 15.6888 26.4449C15.6899 26.5059 15.6413 26.5559 15.5804 26.557C15.5804 26.557 15.256 26.5629 15.2049 26.5626C15.1438 26.5626 15.0637 26.5276 15.0238 26.4789L15.0013 26.4225C15.0163 26.4618 15.0307 26.5013 15.0452 26.5409C15.0669 26.6438 15.0419 26.7008 14.9628 26.7681C14.8794 26.8409 14.7525 26.9505 14.7525 26.9505H14.7523C14.7101 26.987 14.6459 26.9824 14.6096 26.9399C14.5729 26.8977 14.5775 26.834 14.6199 26.7972C14.62 26.797 14.8208 26.6238 14.8599 26.5888Z" fill="#E50013"/>
<path d="M14.6034 25.9907C14.6675 25.9189 14.6786 25.7502 14.6251 25.6245L14.6245 25.6233C14.6247 25.6233 14.6248 25.6236 14.6248 25.6236L14.625 25.6237C14.6913 25.6901 14.7988 25.7223 14.8675 25.7125C14.9237 25.7052 15.2876 25.6585 15.2876 25.6585C15.3479 25.6508 15.4032 25.6935 15.411 25.7538C15.4185 25.8143 15.376 25.8695 15.3156 25.8773C15.3156 25.8773 14.994 25.92 14.9429 25.9255C14.8826 25.9323 14.7989 25.9067 14.7541 25.863L14.725 25.8093C14.7441 25.8457 14.7624 25.8824 14.7807 25.9189C14.816 26.0158 14.7963 26.0806 14.726 26.1568C14.6512 26.2386 14.5375 26.362 14.5375 26.362C14.4997 26.4031 14.4356 26.4057 14.3942 26.3678C14.3534 26.3299 14.3508 26.2661 14.3885 26.2247C14.3885 26.2246 14.5686 26.0296 14.6034 25.9907Z" fill="#E50013"/>
<path d="M15.3855 28.1821C15.4159 28.2703 15.4987 28.3466 15.5643 28.3682C15.6183 28.3859 15.9657 28.5032 15.9657 28.5032C16.0235 28.5228 16.0545 28.5853 16.0351 28.6429C16.0157 28.7006 15.9531 28.7317 15.8955 28.7124C15.8955 28.7124 15.5875 28.6099 15.5393 28.5927C15.4819 28.572 15.4029 28.5089 15.3967 28.4536L15.3853 28.1829V28.1818L15.3855 28.1821Z" fill="#E50013"/>
<path d="M14.0941 25.6818C14.0941 25.6818 14.2508 25.468 14.2809 25.4254C14.3365 25.3466 14.3284 25.178 14.2613 25.0589L14.2603 25.0575L14.2606 25.058L14.2609 25.0583C14.334 25.1165 14.4444 25.1364 14.5119 25.1192C14.5671 25.1052 14.9231 25.018 14.9231 25.018C14.9823 25.0035 15.0421 25.0396 15.0563 25.0985C15.0711 25.1576 15.035 25.2176 14.9759 25.232C14.9759 25.232 14.6612 25.3107 14.611 25.3219C14.5515 25.3355 14.4659 25.3194 14.4162 25.2812L14.3818 25.2317C14.4043 25.2653 14.4261 25.299 14.4483 25.3327C14.4923 25.4203 14.4827 25.4929 14.4217 25.5764C14.3564 25.666 14.2575 25.8014 14.2575 25.8014C14.2245 25.8467 14.1613 25.8565 14.1159 25.8236C14.0708 25.7905 14.0609 25.7272 14.0941 25.6818Z" fill="#E50013"/>
<path d="M14.8822 28.002C14.8822 28.002 15.1171 27.8782 15.1628 27.8528C15.2472 27.8065 15.3139 27.6513 15.3053 27.515L15.305 27.5136L15.3053 27.5138V27.5141L15.3058 27.5142C15.3456 27.5987 15.4366 27.665 15.5042 27.6789C15.5598 27.6901 15.9184 27.7677 15.9184 27.7677C15.9779 27.7805 16.0161 27.8392 16.003 27.8989C15.9902 27.9584 15.9315 27.996 15.8721 27.9833V27.9835C15.8721 27.9835 15.5546 27.9163 15.5049 27.9047C15.4455 27.8908 15.3752 27.8387 15.3478 27.7827L15.3382 27.7219C15.3439 27.7628 15.3489 27.8037 15.354 27.8445C15.3504 27.9457 15.3152 28.0022 15.2234 28.0507C15.1257 28.1028 14.9772 28.181 14.9772 28.181C14.9278 28.207 14.8665 28.1883 14.8401 28.1389C14.814 28.0896 14.8328 28.0283 14.8822 28.002Z" fill="#E50013"/>
<path d="M15.0474 27.2125C15.1257 27.1567 15.1742 26.9952 15.1506 26.8603L15.1502 26.8589L15.1506 26.8594L15.1508 26.8598C15.2004 26.9392 15.2978 26.9947 15.3671 27.0008C15.4235 27.0061 15.7883 27.0425 15.7883 27.0425C15.8489 27.0486 15.8931 27.1024 15.8873 27.1631C15.8813 27.2237 15.8272 27.2678 15.7668 27.2618H15.7665C15.7665 27.2618 15.4436 27.2312 15.3927 27.2252C15.3325 27.2181 15.2565 27.1744 15.2227 27.1217L15.2063 27.0629C15.2168 27.103 15.2264 27.1438 15.2362 27.184C15.2473 27.2803 15.215 27.3438 15.1295 27.4019C15.0381 27.4647 14.8995 27.5593 14.8995 27.5593C14.8535 27.591 14.7904 27.579 14.7588 27.5329C14.7274 27.4868 14.7391 27.4237 14.7855 27.3922C14.7855 27.3922 15.0046 27.2426 15.0474 27.2125Z" fill="#E50013"/>
</svg>
