<svg width="41" height="30" viewBox="0 0 41 30" fill="none" xmlns="http://www.w3.org/2000/svg">
<g clip-path="url(#clip0_25_1878)">
<path d="M19.7664 0C12.3422 0 6.22912 5.55989 5.33096 12.7418C5.18942 13.3565 5.10051 13.963 5.03909 14.5633H4.33179C4.33179 23.0886 11.2411 30 19.7664 30C28.2917 30 35.2032 23.0886 35.2032 14.5633H34.3297C34.3297 15.1948 34.2756 15.8128 34.1976 16.4231C34.0518 15.7985 33.8125 15.1762 33.4562 14.5633H34.3297C34.3297 6.51936 27.8089 0 19.7664 0Z" fill="#022346"/>
<path d="M19.7673 29.1263C27.8098 29.1263 34.3296 22.6066 34.3296 14.5641H33.457C33.457 22.1237 27.327 28.2523 19.7673 28.2523C12.2077 28.2523 6.07764 22.1237 6.07764 14.5641H5.20508C5.20508 22.6066 11.7248 29.1263 19.7673 29.1263Z" fill="#D00E31"/>
<path d="M19.7673 0.87439C16.1366 0.87439 12.6546 2.31669 10.0872 4.884C7.51994 7.45131 6.07764 10.9333 6.07764 14.5641H6.95172C6.95172 11.1652 8.30192 7.90547 10.7053 5.50207C13.1087 3.09868 16.3684 1.74845 19.7673 1.74843C21.4503 1.74842 23.1168 2.0799 24.6716 2.72394C26.2265 3.36798 27.6393 4.31197 28.8293 5.50202C30.0194 6.69206 30.9634 8.10485 31.6074 9.65971C32.2515 11.2146 32.583 12.8811 32.583 14.5641H33.457C33.457 12.7663 33.1029 10.9862 32.415 9.32524C31.727 7.66433 30.7186 6.15519 29.4474 4.88399C28.1762 3.61278 26.667 2.60441 25.0061 1.91644C23.3452 1.22847 21.5651 0.874384 19.7673 0.87439Z" fill="#60B0E3"/>
<path d="M28.5051 14.5641C28.5051 16.8815 27.5845 19.1039 25.9459 20.7425C24.3072 22.3812 22.0848 23.3017 19.7674 23.3017C17.45 23.3017 15.2276 22.3812 13.589 20.7425C11.9503 19.1039 11.0298 16.8815 11.0298 14.5641C11.0298 12.2467 11.9503 10.0243 13.589 8.38564C15.2276 6.74702 17.45 5.82645 19.7674 5.82645C22.0848 5.82645 24.3072 6.74702 25.9458 8.38564C27.5845 10.0243 28.5051 12.2467 28.5051 14.5641ZM10.7214 7.40436L12.0332 8.55038L12.8622 7.60069L12.6165 7.38547L12.0434 8.03993L10.9789 7.10914L10.7214 7.40436ZM13.5123 7.05678C13.0557 7.43782 12.6935 7.28802 12.3503 6.87646C12.0085 6.46633 11.9242 6.07802 12.3794 5.69844C12.8448 5.31013 13.2055 5.47303 13.5443 5.87877C13.8904 6.29472 13.9762 6.66994 13.5123 7.05678M12.5932 5.95585C12.3067 6.19436 12.4579 6.39361 12.6528 6.62632C12.8637 6.88081 13.0266 7.03062 13.2985 6.80373C13.5457 6.59577 13.5123 6.44888 13.2462 6.12894C13.0062 5.84098 12.8535 5.7377 12.5932 5.95585Z" fill="white"/>
<path d="M14.2933 4.80108L15.0059 6.01691L14.6583 6.22195L13.9457 5.00464L13.5006 5.26504L13.3334 4.97848L14.5725 4.25281L14.7397 4.53929L14.2933 4.80108ZM15.9367 4.04481L16.4428 5.36101L16.0675 5.50642L15.56 4.19027L15.08 4.37494L14.9593 4.06518L16.3002 3.5489L16.4195 3.85866L15.9367 4.04481ZM17.1845 5.11084L16.8296 3.40493L18.0789 3.14605L18.1458 3.47182L17.2834 3.6507L17.359 4.01426L18.1051 3.8601L18.1719 4.18008L17.4259 4.33568L17.503 4.70946L18.3654 4.53054L18.4323 4.85196L17.1845 5.11084ZM20.9424 4.28624C20.9279 4.62655 20.608 4.82436 20.2095 4.80691C19.9637 4.79673 19.7324 4.70798 19.6277 4.57419C19.5056 4.41711 19.4503 4.15536 19.4663 3.89213C19.475 3.67543 19.5187 3.43835 19.619 3.30748C19.7921 3.07915 19.9768 3.02679 20.2706 3.03989C20.624 3.05443 20.9367 3.25656 20.9614 3.66524L20.5644 3.64779C20.5556 3.49071 20.4552 3.38456 20.2589 3.37581C20.1164 3.37002 20.0088 3.40493 19.9666 3.48344C19.8959 3.61387 19.8584 3.75973 19.8575 3.90811C19.8488 4.09717 19.8837 4.27753 19.955 4.36915C20.0001 4.42586 20.1048 4.4666 20.2211 4.46804C20.4116 4.47387 20.528 4.39679 20.5338 4.26443L20.5396 4.13643L20.1891 4.12189L20.2022 3.82376L20.9599 3.85431L20.9424 4.28624ZM21.2711 4.89705L21.6609 4.96686L21.9634 3.25073L21.5736 3.18095L21.2711 4.89705ZM23.1807 5.38717L23.1545 5.00468L22.5553 4.8127L22.3212 5.11232L21.9242 4.98431L23.1181 3.53728L23.4424 3.642L23.5733 5.5123L23.1807 5.38717ZM23.1022 4.1437L22.7691 4.54508L23.14 4.66289L23.1022 4.1437ZM24.7819 6.15797L24.6147 4.86358L24.11 5.79438L23.7624 5.60531L24.5914 4.07389L24.8605 4.21934L25.0291 5.51661L25.5338 4.58438L25.8843 4.77344L25.0539 6.30487L24.7819 6.15797ZM26.882 5.92673L26.005 7.03058L25.6894 6.78041L26.5664 5.6766L26.1621 5.35518L26.3686 5.09486L27.4942 5.98927L27.2878 6.24815L26.882 5.92673ZM26.9344 7.96133C26.7729 7.77666 26.7045 7.55704 26.7206 7.2589L27.0754 7.25164C27.0536 7.47848 27.087 7.60357 27.2005 7.73157C27.3285 7.88134 27.4535 7.91624 27.5496 7.83481C27.6048 7.78828 27.628 7.68065 27.5408 7.55269L27.4317 7.3796C27.2906 7.16146 27.2456 6.86332 27.4768 6.66263C27.7255 6.44884 28.0585 6.49537 28.3203 6.79642C28.4688 6.97355 28.546 7.19957 28.537 7.43052L28.1924 7.44214C28.2039 7.19492 28.1254 7.09308 28.0586 7.016C27.9509 6.891 27.8433 6.87498 27.74 6.96221C27.6688 7.02475 27.679 7.10478 27.7488 7.21821C27.7691 7.25307 27.8331 7.34761 27.8506 7.37237C28.0324 7.63848 28.0411 7.95119 27.8186 8.14169C27.5684 8.35984 27.2078 8.2784 26.9344 7.96133ZM37.6891 14.2601L40.4524 11.4968H30.7738L31.2814 9.60766H28.2767L27.7706 11.4968H8.89187L10.7825 9.60618H4.38631C3.89682 9.60695 3.4212 9.76889 3.03294 10.067C2.64469 10.3651 2.3654 10.7827 2.23824 11.2554L0.577418 17.4552C0.504549 17.7221 0.49473 18.0023 0.548738 18.2736C0.602747 18.545 0.719102 18.8 0.888615 19.0187C1.23184 19.4681 1.75395 19.724 2.31824 19.724H35.5353C36.0247 19.7238 36.5004 19.5623 36.8887 19.2644C37.2771 18.9665 37.5564 18.5489 37.6833 18.0763L38.6752 14.375H37.5742L37.6891 14.2601Z" fill="white"/>
<path d="M9.34698 19.2877L11.3176 11.9331H11.5939L9.62327 19.2877H9.34698ZM15.2966 18.4762H13.7841C13.6737 18.4773 13.5645 18.4527 13.4652 18.4044C13.3659 18.3561 13.2792 18.2853 13.2119 18.1977C13.1447 18.1101 13.0987 18.0081 13.0776 17.8997C13.0565 17.7913 13.0609 17.6795 13.0904 17.5731L14.1841 13.4922C14.2417 13.2778 14.3683 13.0883 14.5445 12.9532C14.7207 12.818 14.9365 12.7448 15.1585 12.7447H18.5849L16.831 19.2877H16.5546L18.2358 13.0108H15.1585C14.9952 13.0111 14.8365 13.0653 14.7072 13.1649C14.5778 13.2646 14.4849 13.4041 14.443 13.562L13.3493 17.6429C13.3308 17.7096 13.3281 17.7796 13.3413 17.8475C13.3546 17.9155 13.3834 17.9794 13.4256 18.0342C13.4677 18.0891 13.5221 18.1334 13.5843 18.1637C13.6465 18.1939 13.7149 18.2093 13.7841 18.2086H15.5628L15.2966 18.4762ZM20.1148 19.2877L21.6492 13.562C21.6915 13.4042 21.7847 13.2648 21.9143 13.1654C22.044 13.066 22.2028 13.0121 22.3662 13.0123H25.4435L23.7608 19.2877H24.0387L25.7911 12.7447H22.3662C22.144 12.7449 21.9281 12.8182 21.7518 12.9533C21.5754 13.0884 21.4484 13.2778 21.3903 13.4922L19.8385 19.2877H20.1148ZM30.3694 18.4762H28.1995C28.0894 18.4768 27.9807 18.4518 27.882 18.4031C27.7833 18.3544 27.6973 18.2833 27.6308 18.1955C27.5631 18.1086 27.5165 18.0071 27.4948 17.8991C27.4731 17.791 27.4769 17.6794 27.5058 17.5731L29.5244 10.0439H29.8008L29.0765 12.7447H32.2208L31.9532 13.0123H29.0052L27.7646 17.6429C27.7462 17.7096 27.7434 17.7796 27.7567 17.8475C27.7699 17.9155 27.7988 17.9794 27.8409 18.0342C27.8831 18.0891 27.9374 18.1334 27.9997 18.1637C28.0619 18.1939 28.1303 18.2093 28.1995 18.2086H30.4406L30.3694 18.4762ZM31.6216 18.2086H35.4392C35.6023 18.2084 35.7608 18.1544 35.8902 18.0551C36.0195 17.9557 36.1125 17.8164 36.1547 17.6589L36.6681 15.7435H33.1937L33.7958 13.4922C33.8536 13.2775 33.9805 13.0878 34.1569 12.9525C34.3333 12.8171 34.5493 12.7435 34.7716 12.7432H38.5864L38.3188 13.0108H34.7716C34.6084 13.0112 34.4498 13.0652 34.3202 13.1645C34.1907 13.2638 34.0974 13.403 34.0547 13.5606L33.5413 15.4759H37.0172L36.4136 17.7272C36.356 17.9418 36.2294 18.1314 36.0533 18.2668C35.8772 18.4022 35.6614 18.4758 35.4392 18.4762H31.5503L31.6216 18.2086ZM4.48365 10.8555C4.26163 10.8556 4.04583 10.9289 3.86967 11.064C3.69351 11.1991 3.56683 11.3886 3.50924 11.603L1.90948 17.5731C1.8806 17.6794 1.87672 17.7909 1.89817 17.8989C1.91962 18.0069 1.9658 18.1084 2.03309 18.1956C2.0997 18.2832 2.18572 18.3541 2.28439 18.4028C2.38307 18.4515 2.49169 18.4767 2.60173 18.4763H6.55751L7.62501 14.4928H5.28065L5.01303 14.7589H7.27743L6.35247 18.2101H2.60173C2.53276 18.2104 2.46467 18.1946 2.40283 18.1641C2.34099 18.1336 2.2871 18.0891 2.2454 18.0341C2.20277 17.9795 2.17347 17.9157 2.15984 17.8478C2.1462 17.7799 2.14862 17.7097 2.16688 17.6429L3.76664 11.6729C3.80893 11.5151 3.90213 11.3756 4.03178 11.2762C4.16143 11.1768 4.32028 11.123 4.48365 11.1231H8.6503L8.91645 10.8555L4.48365 10.8555Z" fill="white"/>
<path d="M35.5803 16.4096L35.3156 17.3986H31.8398L31.623 18.2101H35.4392C35.6028 18.2101 35.7618 18.1561 35.8915 18.0564C36.0211 17.9567 36.1142 17.817 36.1562 17.6589L36.6696 15.745H33.1937L33.7973 13.4937C33.8548 13.2791 33.9814 13.0895 34.1576 12.9541C34.3337 12.8187 34.5495 12.7451 34.7717 12.7447H38.5879L39.3994 11.9332H34.6757C34.2823 11.9335 33.9 12.0634 33.5879 12.3029C33.2758 12.5424 33.0514 12.8781 32.9494 13.2581L32.1044 16.4096H35.5803Z" fill="#D00E31"/>
<path d="M31.3336 19.2877H35.5352C35.9288 19.2877 36.3115 19.1579 36.6238 18.9184C36.9362 18.6789 37.1608 18.343 37.2629 17.9628L38.1064 14.8113H34.632L34.8967 13.8238H37.5087L38.3202 13.0123H34.7717C34.6085 13.0125 34.45 13.0664 34.3207 13.1658C34.1913 13.2652 34.0983 13.4044 34.0561 13.562L33.5428 15.4774H37.0172L36.4136 17.7287C36.356 17.9431 36.2293 18.1325 36.0532 18.2677C35.877 18.4028 35.6612 18.4761 35.4392 18.4762H31.5503L31.3336 19.2877ZM12.5058 11.9317H11.5953L9.62472 19.2863H10.5351L12.5058 11.9317ZM10.4072 11.9317L8.43652 19.2863H9.34843L11.319 11.9317H10.4072ZM15.0625 11.9331C14.6691 11.9334 14.2868 12.0634 13.9747 12.3029C13.6626 12.5424 13.4382 12.8781 13.3362 13.258L12.1815 17.5672C12.1273 17.7696 12.1204 17.9818 12.1612 18.1873C12.2021 18.3928 12.2897 18.5862 12.4171 18.7525C12.5446 18.9187 12.7086 19.0535 12.8965 19.1463C13.0843 19.2391 13.291 19.2875 13.5005 19.2878H14.4851L15.2967 18.4762H13.7841C13.6737 18.4773 13.5645 18.4527 13.4652 18.4044C13.3659 18.3561 13.2792 18.2853 13.2119 18.1977C13.1446 18.1101 13.0986 18.0081 13.0775 17.8997C13.0564 17.7913 13.0608 17.6795 13.0904 17.5731L14.184 13.4922C14.2416 13.2778 14.3683 13.0883 14.5445 12.9532C14.7206 12.818 14.9364 12.7448 15.1585 12.7447H18.5849L16.8309 19.2877H17.7428L19.7134 11.9331H15.0625ZM21.3903 13.4922C21.4479 13.2778 21.5746 13.0883 21.7507 12.9532C21.9269 12.818 22.1427 12.7448 22.3647 12.7447H25.7911L24.0372 19.2877H24.9491L26.9197 11.9331H22.2687C21.8753 11.9334 21.493 12.0634 21.1809 12.3029C20.8689 12.5424 20.6444 12.8781 20.5424 13.258L18.9267 19.2877H19.8371L21.3903 13.4922Z" fill="#D00E31"/>
<path d="M22.4899 13.8223L21.0254 19.2863H20.115L21.6493 13.5606C21.6916 13.403 21.7845 13.2638 21.9139 13.1644C22.0432 13.065 22.2017 13.011 22.3649 13.0108H25.4422L23.761 19.2863H22.8506L24.3152 13.8224L22.4899 13.8223ZM30.7099 10.044H29.7994L29.0751 12.7447H32.218L33.0295 11.9332H30.2037L30.7099 10.044ZM27.7648 17.6429C27.7464 17.7097 27.7436 17.7798 27.7569 17.8478C27.7701 17.9158 27.7989 17.9797 27.8411 18.0347C27.8832 18.0897 27.9376 18.1341 27.9998 18.1646C28.062 18.195 28.1304 18.2106 28.1997 18.2101H30.4408L30.6589 17.3986H28.7421L29.6991 13.8238H31.1418L31.9533 13.0123H29.0054L27.7648 17.6429Z" fill="#D00E31"/>
<path d="M29.5231 10.044H28.6127L26.5956 17.5687C26.5417 17.7712 26.535 17.9833 26.576 18.1887C26.6171 18.3941 26.7049 18.5874 26.8325 18.7535C26.9601 18.9196 27.1242 19.0542 27.3121 19.1468C27.5 19.2395 27.7067 19.2877 27.9161 19.2877H30.1515L30.3681 18.4762H28.1983C28.0883 18.4766 27.9796 18.4515 27.8809 18.4028C27.7822 18.3541 27.6962 18.2831 27.6296 18.1956C27.5623 18.1084 27.5161 18.0068 27.4947 17.8988C27.4732 17.7908 27.4771 17.6793 27.506 17.5731L29.5231 10.044ZM15.1587 13.0123C14.9954 13.0126 14.8368 13.0666 14.7073 13.166C14.5777 13.2653 14.4844 13.4045 14.4417 13.562C14.1697 14.583 13.348 17.6429 13.348 17.6429C13.3299 17.7096 13.3274 17.7797 13.3407 17.8475C13.3541 17.9154 13.3829 17.9792 13.425 18.0341C13.4671 18.089 13.5213 18.1334 13.5833 18.164C13.6454 18.1945 13.7137 18.2103 13.7828 18.2101H15.563L16.0676 17.7054L15.643 19.2878H16.5548L18.236 13.0123L15.1587 13.0123ZM16.149 17.3986H14.3253L15.2837 13.8239H17.1074L16.149 17.3986ZM35.5354 19.2877C35.9287 19.2874 36.3111 19.1575 36.6231 18.918C36.9352 18.6785 37.1596 18.3428 37.2616 17.9628M3.76682 11.6714L2.16711 17.6414C2.14885 17.7082 2.14644 17.7784 2.16007 17.8463C2.1737 17.9142 2.203 17.978 2.24563 18.0326C2.28732 18.0875 2.34122 18.132 2.40306 18.1626C2.46489 18.1931 2.53299 18.2089 2.60195 18.2086H6.35269L7.27766 14.7575H5.01325L4.34425 15.4264H6.18691L5.65897 17.3971H3.14439L4.60892 11.9332H7.83898L8.65052 11.1216H4.48375C4.32039 11.1215 4.16155 11.1753 4.03191 11.2747C3.90227 11.3741 3.80907 11.5136 3.76678 11.6714" fill="#D00E31"/>
<path d="M6.55757 18.4762H2.60179C2.49148 18.4771 2.38247 18.4523 2.28336 18.4039C2.18424 18.3555 2.09773 18.2847 2.03062 18.1971C1.96351 18.1096 1.91765 18.0076 1.89664 17.8994C1.87563 17.7911 1.88005 17.6794 1.90955 17.5731L3.5093 11.603C3.56689 11.3886 3.69357 11.1991 3.86973 11.064C4.04589 10.9289 4.26169 10.8556 4.48371 10.8555H8.91651L9.72805 10.044H4.3877C3.99407 10.0439 3.61142 10.1737 3.29906 10.4133C2.9867 10.6528 2.76207 10.9887 2.65998 11.3689L0.999119 17.5672C0.944913 17.7698 0.938015 17.982 0.978959 18.1877C1.0199 18.3933 1.10759 18.5867 1.23524 18.753C1.36289 18.9194 1.52709 19.0541 1.71513 19.1468C1.90317 19.2395 2.11001 19.2878 2.31967 19.2878H7.25129L8.71582 13.8223H5.94824L5.28067 14.4913H7.62503L6.55757 18.4762ZM15.8479 10.0644C15.8479 10.1239 15.8624 10.1661 15.9381 10.1661H16.7016V10.345H15.589C15.4668 10.345 15.3971 10.2825 15.3971 10.1487V8.86159H15.8479V10.0644ZM17.8389 10.409C17.2382 10.409 16.9052 10.0294 16.9052 9.60332C16.9052 9.17574 17.2222 8.79761 17.8389 8.79761C18.457 8.79761 18.774 9.17574 18.774 9.60332C18.774 10.0295 18.4279 10.409 17.8389 10.409ZM17.3444 9.60332C17.3444 9.95381 17.5582 10.2389 17.8389 10.2389C18.1195 10.2389 18.3333 9.95381 18.3333 9.60332C18.3333 9.25426 18.1195 8.96339 17.8389 8.96339C17.5582 8.96339 17.3444 9.25426 17.3444 9.60332M20.0509 9.03755V10.3435H19.5957V9.03755H19.014V8.86015H20.6341V9.03755H20.0509ZM21.8746 9.03755V10.3435H21.4195V9.03755H20.8378V8.86015H22.4565V9.03755H21.8746ZM24.1216 9.46809V9.64401H23.1807V10.0629C23.1807 10.1225 23.1836 10.1676 23.2854 10.1676H24.1361V10.3465H22.9552C22.8272 10.3465 22.7298 10.3261 22.7298 10.1298V9.07685C22.7298 8.88339 22.8331 8.86159 22.9407 8.86159H24.1361V9.03903H23.297C23.2156 9.03903 23.1807 9.05065 23.1807 9.14519V9.46805L24.1216 9.46809Z" fill="#D00E31"/>
<path d="M10 21.9346L11.3365 20.8177L12.1539 21.7965L11.8993 22.0088L11.335 21.3325L11.0485 21.571L11.5372 22.1557L11.2856 22.3666L10.7984 21.7819L10.5046 22.0277L11.0689 22.7025L10.8173 22.9134L10 21.9346ZM11.5168 23.6231C11.3379 23.4559 11.2478 23.2435 11.2347 22.9454L11.5881 22.9032C11.5881 23.1301 11.6347 23.2523 11.7597 23.3672C11.9008 23.5053 12.0288 23.5271 12.1175 23.437C12.1669 23.3846 12.1786 23.2756 12.0811 23.1563L11.9546 22.9948C11.7917 22.7927 11.719 22.5004 11.9284 22.2779C12.1539 22.0394 12.4913 22.0539 12.7807 22.3273C12.946 22.4889 13.0455 22.706 13.0599 22.9367L12.7167 22.9832C12.705 22.736 12.6163 22.6415 12.5421 22.5716C12.4214 22.4567 12.3138 22.4524 12.2193 22.5498C12.1553 22.6182 12.1727 22.6967 12.2527 22.8029C12.2908 22.8518 12.3301 22.8999 12.3706 22.9469C12.577 23.1941 12.6178 23.5039 12.4156 23.7148C12.1873 23.9562 11.8208 23.9111 11.5168 23.6231ZM13.9049 23.6508L13.1181 24.82L12.7836 24.5946L13.5703 23.4253L13.1428 23.1374L13.3289 22.8625L14.5201 23.6653L14.3339 23.9402L13.9049 23.6508ZM13.5718 25.2636L13.9849 25.492L14.203 25.0935L13.79 24.8651L13.5718 25.2636ZM15.5716 24.4884L15.4232 24.8811L15.858 24.7822L15.4028 25.9907L15.765 26.1275L16.3874 24.4768L16.0922 24.3663L15.5716 24.4884ZM17.2876 24.724C17.6643 24.8157 17.849 25.1342 17.7763 25.4308C17.7301 25.5828 17.6511 25.7228 17.545 25.841L16.9779 26.4736L16.5474 26.3689L17.0608 25.8177C16.9773 25.8187 16.8946 25.8007 16.8191 25.7652C16.7435 25.7296 16.677 25.6774 16.6245 25.6125C16.5721 25.5475 16.535 25.4715 16.5161 25.3902C16.4972 25.3089 16.4969 25.2243 16.5154 25.1429C16.591 24.8346 16.8891 24.6266 17.2876 24.724ZM17.0884 25.5065C17.2731 25.5516 17.3604 25.4658 17.3909 25.3378C17.4214 25.2142 17.3604 25.0906 17.2077 25.0528C17.0448 25.0135 16.9357 25.092 16.9022 25.2316C16.8688 25.3669 16.9372 25.4701 17.0884 25.5065ZM18.4788 26.763C18.0454 26.718 17.8447 26.4474 17.8767 26.1377C17.8863 26.0572 17.9175 25.9809 17.9669 25.9166C18.0163 25.8524 18.0821 25.8026 18.1573 25.7726C18.099 25.7314 18.0529 25.6752 18.024 25.6099C17.9951 25.5446 17.9844 25.4727 17.993 25.4018C18.025 25.0949 18.2897 24.9204 18.6606 24.9597C19.0605 25.0004 19.2626 25.2374 19.2335 25.5269C19.2289 25.5987 19.2044 25.6679 19.1628 25.7267C19.1212 25.7855 19.0641 25.8316 18.9979 25.8599C19.0632 25.9057 19.1156 25.9674 19.1502 26.0392C19.1848 26.111 19.2005 26.1905 19.1957 26.27C19.1652 26.5652 18.9209 26.8096 18.4788 26.763ZM18.5529 25.9922C18.4089 25.9762 18.2926 26.0737 18.2809 26.1798C18.2693 26.2918 18.3333 26.4009 18.5108 26.4184C18.6955 26.4387 18.7783 26.3442 18.79 26.2322C18.8016 26.1246 18.7114 26.0082 18.5529 25.9922ZM18.6256 25.2869C18.4831 25.2723 18.3973 25.3407 18.3857 25.4498C18.3755 25.5501 18.4598 25.6388 18.5878 25.6534C18.7304 25.6679 18.8249 25.5952 18.838 25.492C18.8511 25.3858 18.774 25.3029 18.6257 25.2869M19.5041 26.795L19.4953 26.5115L20.1818 25.7726C20.2603 25.6839 20.3025 25.5952 20.3011 25.5239C20.2981 25.4265 20.2254 25.3465 20.0829 25.3509C19.9157 25.3552 19.8429 25.4818 19.8342 25.6316L19.4488 25.6432C19.4444 25.2578 19.7513 25.0251 20.0712 25.0164C20.4014 25.0077 20.6923 25.1851 20.701 25.5152C20.7053 25.6607 20.6544 25.8075 20.5061 25.969L20.0611 26.4431L20.7417 26.4242L20.7518 26.7601L19.5041 26.795ZM22.7836 26.4067L22.0157 26.5928L21.6041 24.9L22.3284 24.7241C22.705 24.6324 22.9843 24.7764 23.0585 25.0804C23.0758 25.2033 23.0507 25.3285 22.9872 25.4352C23.0992 25.5036 23.217 25.6126 23.2504 25.7508C23.329 26.0707 23.1472 26.318 22.7836 26.4067ZM22.4433 25.0382L22.0637 25.1312L22.1495 25.4832L22.5422 25.3872C22.6585 25.3596 22.6934 25.249 22.6745 25.1705C22.6683 25.1465 22.6573 25.124 22.6423 25.1042C22.6272 25.0845 22.6083 25.068 22.5868 25.0556C22.5652 25.0433 22.5414 25.0354 22.5168 25.0324C22.4922 25.0294 22.4672 25.0314 22.4433 25.0382ZM22.6207 25.7013L22.2251 25.7974L22.3197 26.1828L22.7254 26.0838C22.8461 26.0548 22.881 25.9471 22.8578 25.8512C22.8345 25.7537 22.7487 25.6708 22.6207 25.7013ZM24.9753 25.0178C25.1265 25.3771 24.8982 25.6781 24.5142 25.8395C24.1405 25.9981 23.758 25.9544 23.6067 25.5952L23.1486 24.5103L23.5195 24.3546L23.982 25.4497C24.046 25.5981 24.2117 25.6054 24.3848 25.5312C24.5608 25.457 24.6713 25.3334 24.6088 25.1851L24.1463 24.09L24.5171 23.9329L24.9753 25.0178ZM26.1388 25.0295C25.9279 25.1546 25.6995 25.1807 25.4087 25.1109L25.4668 24.759C25.6865 24.823 25.8159 24.8128 25.9613 24.7255C26.1329 24.6281 26.1911 24.5102 26.1286 24.4012C26.0922 24.3372 25.9904 24.2965 25.8493 24.3576L25.6588 24.4332C25.4188 24.5321 25.1163 24.5205 24.9622 24.2572C24.7978 23.9736 24.9055 23.6551 25.2487 23.453C25.45 23.3392 25.6864 23.3045 25.9119 23.3555L25.8609 23.6973C25.6195 23.6406 25.5047 23.6987 25.4174 23.7496C25.2734 23.834 25.237 23.9358 25.3054 24.0536C25.3534 24.1351 25.4334 24.1409 25.5585 24.0929C25.5963 24.0783 25.701 24.0333 25.7286 24.0202C26.0239 23.8907 26.3322 23.9402 26.479 24.1932C26.6478 24.4783 26.5009 24.8186 26.1388 25.0295ZM27.9799 23.6202L27.6425 23.4384L27.1611 23.8442L27.2891 24.202L26.9706 24.471L26.3802 22.6894L26.6405 22.4698L28.2955 23.3555L27.9799 23.6202ZM26.8848 23.0254L27.0477 23.5199L27.3458 23.2682L26.8848 23.0254ZM29.3208 22.1906L28.0207 22.0815L28.8234 22.7709L28.566 23.0705L27.244 21.9375L27.4418 21.7063L28.7464 21.8139L27.9407 21.1246L28.1996 20.8221L29.523 21.955L29.3208 22.1906Z" fill="white"/>
</g>
<defs>
<clipPath id="clip0_25_1878">
<rect width="39.938" height="30" fill="white" transform="translate(0.514404)"/>
</clipPath>
</defs>
</svg>
