<svg width="67" height="56" viewBox="0 0 67 56" fill="none" xmlns="http://www.w3.org/2000/svg">
<g clip-path="url(#clip0_25_1405)">
<path d="M58.6345 41.6314L49.2501 51.6737C49.2501 51.6737 52.2426 55.2683 57.0218 55.0517C60.3096 54.9024 62.2816 53.6769 63.896 51.823C65.868 49.5573 66.3126 46.2334 66.1978 44.7092C66.0485 42.7372 64.7032 40.1663 63.6565 39.3887C62.6097 38.611 58.6345 41.6314 58.6345 41.6314Z" fill="#D7CCC6"/>
<path d="M50.1163 38.4338C47.0057 41.2016 44.95 47.4852 49.2501 51.6737C51.5519 53.9148 59.0823 54.028 62.6687 49.3358C64.3537 47.1324 65.7055 43.6855 64.7917 40.944C64.4324 39.8677 63.4677 39.095 62.6097 38.3731C58.4852 34.9065 53.9127 35.0558 50.1163 38.4338Z" fill="#F1EDEC"/>
<path d="M57.4302 55.3585L56.792 55.306C56.8051 55.2453 58.134 49.2734 54.249 45.3589C52.5231 43.6198 50.9333 42.8159 49.5224 42.9718C48.0524 43.1326 47.0746 44.4943 47.068 44.5074L46.7661 43.8955C46.8038 43.8364 47.6701 42.5157 49.4518 42.3205C51.0728 42.1449 52.843 43.0112 54.7166 44.8979C58.8575 49.0733 57.4892 55.0993 57.4302 55.3585Z" fill="#979892"/>
<path d="M66.0156 44.9766C65.9713 44.9471 61.6581 41.8939 59.4317 39.9941C57.4302 38.2878 54.7773 35.904 54.7527 35.8794L55.2137 35.5906C55.2383 35.6136 57.7928 37.8793 59.7878 39.5806C61.9944 41.4624 66.1304 44.427 66.1747 44.4566L66.0156 44.9766Z" fill="#979892"/>
<path d="M57.2136 37.666C57.1316 37.753 56.9199 38.3863 56.8379 38.739C56.7903 38.9408 56.8199 39.2541 57.0725 39.2952C57.3547 39.3427 57.4614 39.1803 57.5483 38.9391C57.6353 38.698 57.7895 38.2616 57.7895 38.2616C57.7895 38.2616 58.239 38.1123 58.4605 38.0466C58.7558 37.9597 58.8428 37.8383 58.8493 37.6841C58.8559 37.5298 58.6951 37.2411 58.198 37.3559C57.8912 37.4281 57.3334 37.538 57.2136 37.666Z" fill="#ED520A"/>
<path d="M55.7633 36.4421C55.6928 36.4995 55.3548 37.3215 55.3007 37.4248C55.2449 37.5282 55.2104 37.7923 55.404 37.9039C55.5976 38.0155 55.8092 37.8235 55.8831 37.6595C55.9553 37.4954 56.1669 37.0081 56.1669 37.0081C56.1669 37.0081 56.6837 36.9802 56.8691 36.954C57.0955 36.9228 57.2678 36.8605 57.2546 36.5996C57.2415 36.3387 56.8199 36.3584 56.3851 36.3863C56.1111 36.4027 55.8109 36.4027 55.7633 36.4421Z" fill="#ED520A"/>
<path d="M54.751 35.4938C54.6329 35.548 54.1735 36.0172 54.1128 36.0976C54.0521 36.178 54.0062 36.3519 54.1604 36.4733C54.3146 36.5947 54.5296 36.493 54.6428 36.4126C54.7576 36.3322 54.9709 36.0697 54.9709 36.0697C54.9709 36.0697 55.4139 36.0762 55.5418 36.0828C55.6698 36.0894 55.8371 35.9893 55.8371 35.7875C55.8371 35.5857 55.6025 35.5053 55.4073 35.4987C55.2137 35.4938 54.8249 35.4594 54.751 35.4938Z" fill="#ED520A"/>
<path d="M59.0693 39.2098C58.961 39.2952 58.6952 40.2484 58.6394 40.4403C58.5836 40.6323 58.4934 41.0424 58.7772 41.131C59.0758 41.2245 59.276 41.0916 59.3646 40.7537C59.4466 40.442 59.6336 39.7906 59.6336 39.7906C59.6336 39.7906 60.3506 39.5265 60.5081 39.4658C60.6656 39.4051 60.8477 39.2049 60.7378 38.9588C60.6279 38.7127 60.3145 38.7439 60.1603 38.7997C60.1619 38.8013 59.1743 39.1278 59.0693 39.2098Z" fill="#ED520A"/>
<path d="M60.9199 40.798C60.8444 40.8964 60.5917 41.7774 60.5507 41.9595C60.5097 42.14 60.5114 42.4287 60.7985 42.5026C61.0331 42.5633 61.2217 42.4419 61.2742 42.2204C61.3628 41.8529 61.5564 41.3213 61.5564 41.3213C61.5564 41.3213 62.0667 41.0326 62.2603 40.9325C62.4555 40.8324 62.5424 40.5568 62.421 40.3616C62.2996 40.1663 62.0257 40.1942 61.7566 40.2877C61.4892 40.3829 60.9871 40.711 60.9199 40.798Z" fill="#ED520A"/>
<path d="M62.7557 42.1827C62.6605 42.3254 62.6343 43.1687 62.6343 43.2966C62.6343 43.4246 62.7278 43.7593 63.0297 43.7593C63.2987 43.7593 63.4119 43.4705 63.4119 43.3229C63.4119 43.1752 63.4447 42.6043 63.4447 42.6043C63.4447 42.6043 63.7909 42.4205 63.914 42.3352C64.0813 42.2204 64.27 42.0071 64.1486 41.7791C64.0272 41.551 63.7056 41.6183 63.4972 41.7052C63.3512 41.7692 62.8229 42.0826 62.7557 42.1827Z" fill="#ED520A"/>
<path d="M64.4357 43.546C64.3766 43.6887 64.3733 44.4845 64.3864 44.6994C64.3996 44.9143 64.5817 45.1013 64.8163 45.0948C65.0509 45.0882 65.1592 44.8667 65.151 44.6928C65.1428 44.5189 65.1641 43.948 65.1641 43.948C65.1641 43.948 65.4758 43.7314 65.5595 43.6723C65.6875 43.5854 65.7137 43.377 65.6005 43.2162C65.4857 43.0555 65.2511 43.0079 65.0296 43.1359C64.8081 43.2638 64.4586 43.4886 64.4357 43.546Z" fill="#ED520A"/>
<path d="M65.681 44.4369C65.5744 44.6206 65.6744 45.4573 65.6744 45.5377C65.6744 45.6181 65.7007 45.8937 65.9763 45.8937C66.2175 45.8937 66.2979 45.7461 66.3044 45.6116C66.311 45.477 66.2913 44.7191 66.2913 44.7191C66.2913 44.7191 66.5259 44.6452 66.4258 44.3368C66.3258 44.03 65.7926 44.2466 65.681 44.4369Z" fill="#ED520A"/>
<path d="M56.2769 54.9188C56.185 55.0813 56.2047 55.2945 56.5509 55.4684C56.8987 55.6423 56.9692 55.6522 57.043 55.6571C57.1727 55.6637 57.4696 55.5636 57.6648 55.4553C57.8207 55.3684 58.0127 55.2387 57.8748 54.9861C57.7469 54.7498 57.0513 55.0288 57.0513 55.0288C57.0513 55.0288 56.436 54.6383 56.2769 54.9188Z" fill="#ED520A"/>
<path d="M56.2325 53.4373C56.0406 53.6145 56.1669 53.8787 56.5574 54.1313C56.9052 54.3561 57.1004 54.5218 57.2514 54.5218C57.4023 54.5218 57.9716 54.2347 58.1193 54.1527C58.344 54.0296 58.4162 53.7835 58.2423 53.6096C58.0684 53.4357 57.8223 53.6162 57.6993 53.6818C57.5762 53.7474 57.294 53.8836 57.294 53.8836C57.294 53.8836 56.9249 53.6162 56.8018 53.5292C56.6788 53.4423 56.4212 53.2634 56.2325 53.4373Z" fill="#ED520A"/>
<path d="M56.0456 51.6195C55.8881 51.8558 55.98 52.1035 56.3557 52.3135C56.7314 52.5235 57.2022 52.7105 57.3532 52.7335C57.5041 52.7565 58.098 52.2413 58.2129 52.133C58.3277 52.0248 58.646 51.6852 58.4442 51.4538C58.203 51.1782 57.9454 51.3882 57.7141 51.5473C57.5369 51.6688 57.3302 51.8213 57.3302 51.8213C57.3302 51.8213 56.9332 51.713 56.7019 51.6048C56.4722 51.4965 56.19 51.403 56.0456 51.6195Z" fill="#ED520A"/>
<path d="M56.9823 49.6918C56.9823 49.6918 57.3941 49.2652 57.5467 49.1209C57.6993 48.9765 57.9585 48.8321 58.1537 49.0634C58.349 49.2948 58.1472 49.6426 57.9651 49.8083C57.7829 49.974 57.3219 50.517 57.1907 50.5384C57.0594 50.5597 56.0997 50.3858 55.824 50.2414C55.6616 50.1561 55.404 49.9953 55.5501 49.6705C55.6698 49.4014 55.9405 49.4326 56.1423 49.4752C56.3441 49.5179 56.9823 49.6918 56.9823 49.6918Z" fill="#ED520A"/>
<path d="M56.0013 47.3719C56.0013 47.3719 56.3491 46.6632 56.464 46.4105C56.5804 46.1579 56.7248 45.9266 57.0497 46.0414C57.3745 46.1562 57.2761 46.463 57.1661 46.7567C57.0365 47.1045 56.674 48.0216 56.5148 48.102C56.3212 48.1988 55.3008 48.2316 54.9464 48.2251C54.7872 48.2218 54.6068 48.1086 54.6133 47.892C54.6199 47.6755 54.7544 47.5245 55.1055 47.4655C55.3221 47.4294 56.0013 47.3719 56.0013 47.3719Z" fill="#ED520A"/>
<path d="M54.3967 45.0291C54.3606 45.0505 53.6141 45.3507 53.4271 45.4048C53.1531 45.4836 53.058 45.7592 53.117 45.9545C53.1761 46.1497 53.4419 46.2514 53.7536 46.1563C54.0637 46.0627 55.0037 45.8232 55.0907 45.687C55.1776 45.5509 55.322 44.5813 55.3515 44.3286C55.3811 44.0759 55.3876 43.7577 55.0546 43.7068C54.7215 43.6559 54.5854 43.8807 54.5558 44.1186C54.5378 44.2646 54.3967 45.0291 54.3967 45.0291Z" fill="#ED520A"/>
<path d="M52.3854 43.4066C52.3854 43.4066 52.4428 42.7487 52.4641 42.5534C52.4855 42.3582 52.5576 42.0973 52.8972 42.1203C53.2369 42.1433 53.2008 42.583 53.2008 42.8652C53.2008 43.1473 53.1351 43.884 53.0925 43.9201C53.0498 43.9562 52.5937 44.3105 52.3558 44.4697C52.118 44.6288 51.734 44.7355 51.5897 44.5189C51.4453 44.3023 51.6553 43.9644 51.8866 43.7905C52.118 43.6166 52.3854 43.4066 52.3854 43.4066Z" fill="#ED520A"/>
<path d="M50.3067 41.1934C49.972 41.277 49.9884 41.6265 50.0901 41.9809C50.1918 42.3352 50.2493 42.624 50.2493 42.624C50.2493 42.624 50.0114 42.9931 49.9096 43.1227C49.8079 43.2523 49.4896 43.6363 49.8227 43.9102C50.1557 44.1842 50.4806 43.7002 50.6036 43.5559C50.7234 43.4164 51.1171 42.8914 51.1171 42.8192C51.1171 42.6092 50.9006 41.8365 50.8497 41.6691C50.7989 41.5018 50.6824 41.0998 50.3067 41.1934Z" fill="#ED520A"/>
<path d="M47.9047 41.7462C47.7554 41.848 47.68 42.158 47.8686 42.4255C48.0229 42.6453 48.1361 42.8734 48.1361 42.8734C48.1361 42.8734 47.9343 43.4591 47.8539 43.6477C47.7735 43.8364 47.68 44.2482 48.013 44.3778C48.3461 44.5074 48.5774 44.1465 48.6643 43.8791C48.7513 43.6116 48.9826 43.0112 48.9892 42.8307C48.9941 42.7109 48.6791 42.122 48.5413 41.9202C48.4035 41.7184 48.1295 41.5953 47.9047 41.7462Z" fill="#ED520A"/>
<path d="M47.3552 43.8069C47.3929 43.9791 47.2977 44.4648 47.2026 44.8766C47.1747 44.998 47.1337 45.2703 46.7908 45.1866C46.4938 45.1145 46.6169 44.7388 46.653 44.5501C46.6743 44.4385 46.7613 44.0809 46.7613 44.0809C46.7613 44.0809 46.6038 43.9956 46.6087 43.8134C46.6152 43.5756 46.7383 43.4952 46.9335 43.4804C47.1288 43.4656 47.3256 43.6773 47.3552 43.8069Z" fill="#ED520A"/>
</g>
<path d="M10.41 26.03L1.86 25.97C1.52 25.97 1.3 25.75 1.2 25.31C1.1 24.95 1.05 24.55 1.05 24.11C1.05 23.43 1.04 22.72 1.02 21.98C1.02 21.24 1.01 20.4 0.99 19.46C0.97 18.48 0.95 17.48 0.93 16.46C0.91 15.42 0.9 14.35 0.9 13.25V6.65C0.9 6.47 0.98 6.3 1.14 6.14C1.32 5.96 1.5 5.87 1.68 5.87L5.16 5.9C5.38 5.92 5.64 5.93 5.94 5.93C6.24 5.93 6.81 5.93 7.65 5.93C8.41 5.93 9.08 5.93 9.66 5.93C10.24 5.93 10.74 5.92 11.16 5.9L12.27 5.87C12.89 5.85 13.44 5.84 13.92 5.84C14.42 5.82 14.85 5.81 15.21 5.81C16.69 5.81 18.03 6.11 19.23 6.71C20.43 7.29 21.38 8.12 22.08 9.2C23.06 10.72 23.55 12.59 23.55 14.81C23.55 16.91 23.31 18.67 22.83 20.09C22.35 21.49 21.61 22.63 20.61 23.51C19.59 24.39 18.26 25.04 16.62 25.46C14.98 25.86 12.91 26.05 10.41 26.03ZM10.68 17.42L10.47 22.55C10.57 22.57 10.73 22.58 10.95 22.58C11.07 22.58 11.2 22.58 11.34 22.58C11.5 22.56 11.68 22.54 11.88 22.52C11.94 22.5 11.99 22.49 12.03 22.49C12.09 22.47 12.15 22.45 12.21 22.43C12.23 22.41 12.26 22.4 12.3 22.4C12.36 22.4 12.4 22.39 12.42 22.37C12.74 22.09 13.03 21.59 13.29 20.87C13.55 20.15 13.82 19.1 14.1 17.72C14.18 17.22 14.23 16.72 14.25 16.22C14.29 15.72 14.31 15.22 14.31 14.72V14.15C14.31 13.57 14.26 12.97 14.16 12.35C14.06 11.73 13.93 11.17 13.77 10.67C13.61 10.17 13.44 9.82 13.26 9.62C12.94 9.34 12.66 9.2 12.42 9.2C12.16 9.2 11.93 9.22 11.73 9.26C11.53 9.3 11.39 9.33 11.31 9.35C11.29 9.37 11.17 9.42 10.95 9.5L10.92 13.1C10.92 13.26 10.9 13.46 10.86 13.7C10.84 13.94 10.82 14.22 10.8 14.54L10.77 15.26C10.75 16.24 10.72 16.96 10.68 17.42ZM43.6406 9.14C43.7006 9.14 43.7306 9.19 43.7306 9.29C43.7306 11.41 43.7206 13.26 43.7006 14.84C43.7006 16.42 43.6906 17.81 43.6706 19.01C43.6506 20.19 43.6206 21.27 43.5806 22.25C43.5406 23.21 43.4906 24.16 43.4306 25.1C43.4306 25.36 43.3706 25.56 43.2506 25.7C43.1306 25.84 43.0506 25.95 43.0106 26.03C42.9906 26.05 42.9806 26.06 42.9806 26.06C42.9806 26.08 42.9606 26.11 42.9206 26.15L42.8306 26.21C42.8106 26.19 42.7306 26.16 42.5906 26.12C42.4706 26.1 42.3806 26.09 42.3206 26.09L42.2606 26.15C42.2206 26.19 42.1806 26.21 42.1406 26.21C41.8006 26.29 41.4006 26.34 40.9406 26.36C40.4806 26.38 39.7606 26.39 38.7806 26.39H37.5206C37.0406 26.39 36.6206 26.36 36.2606 26.3C36.1406 26.2 35.9906 25.96 35.8106 25.58C35.7906 25.5 35.7706 25.38 35.7506 25.22C35.7506 25.06 35.7306 24.96 35.6906 24.92C35.6706 24.82 35.6306 24.77 35.5706 24.77C35.5706 24.77 35.5106 24.75 35.3906 24.71V24.86H35.3606C34.1806 26.26 32.4406 26.96 30.1406 26.96C28.7606 26.96 27.6506 26.59 26.8106 25.85C25.9706 25.11 25.4606 24.07 25.2806 22.73C25.2006 22.05 25.1406 21.34 25.1006 20.6C25.0606 19.86 25.0406 19.09 25.0406 18.29C25.0406 17.63 25.0506 16.96 25.0706 16.28C25.1106 15.58 25.1406 14.85 25.1606 14.09C25.1606 13.99 25.1806 13.85 25.2206 13.67C25.2606 13.47 25.2806 13.27 25.2806 13.07C25.2806 12.71 25.2806 12.24 25.2806 11.66C25.3006 11.08 25.3106 10.54 25.3106 10.04C25.3106 9.82 25.3106 9.68 25.3106 9.62C25.3106 9.56 25.3006 9.52 25.2806 9.5C25.2806 9.4 25.2706 9.3 25.2506 9.2C25.2506 9.1 25.2506 9.01 25.2506 8.93C25.2506 8.79 25.3006 8.7 25.4006 8.66C25.5206 8.6 25.7406 8.57 26.0606 8.57H27.5306C28.0306 8.57 28.5206 8.58 29.0006 8.6C29.5006 8.6 30.0006 8.61 30.5006 8.63C31.8006 8.67 32.6106 8.92 32.9306 9.38C32.9906 9.56 33.0206 10 33.0206 10.7C33.0206 11.46 33.0106 12.12 32.9906 12.68C32.9906 13.24 32.9906 13.77 32.9906 14.27V14.84C32.9906 15.28 32.9906 15.63 32.9906 15.89C32.9906 16.15 32.9806 16.4 32.9606 16.64C32.9406 17.38 32.9406 18.09 32.9606 18.77C33.0006 19.45 32.9906 20.06 32.9306 20.6C32.8506 21.4 32.9806 21.97 33.3206 22.31C33.6806 22.65 34.1506 22.66 34.7306 22.34C35.0506 22.16 35.2506 21.96 35.3306 21.74V11.54C35.2706 11.14 35.2406 10.82 35.2406 10.58C35.2206 10.54 35.2106 10.4 35.2106 10.16V9.41C35.2106 9.05 35.3506 8.87 35.6306 8.87C35.7506 8.87 35.8106 8.92 35.8106 9.02V9.05C36.0306 8.97 36.4406 8.91 37.0406 8.87C37.6406 8.81 38.2206 8.78 38.7806 8.78H39.5006L43.2506 8.87C43.3506 8.87 43.4006 8.9 43.4006 8.96C43.4206 8.96 43.4306 8.97 43.4306 8.99V9.14C43.4106 9.14 43.4006 9.17 43.4006 9.23L43.5506 9.2C43.5906 9.16 43.6206 9.14 43.6406 9.14ZM54.2491 33.56C53.6091 33.56 53.1191 33.54 52.7791 33.5C52.4591 33.48 52.1891 33.44 51.9691 33.38C51.7491 33.34 51.4591 33.31 51.0991 33.29C50.2791 33.11 49.6691 32.93 49.2691 32.75C48.8891 32.57 48.5291 32.32 48.1891 32H47.8591L47.8291 31.79H47.5891L47.3791 31.52C47.0791 31.2 46.8191 30.93 46.5991 30.71C46.3991 30.49 46.2391 30.2 46.1191 29.84C46.0191 29.48 45.9691 28.95 45.9691 28.25C45.9691 27.85 46.1391 27.38 46.4791 26.84C46.8391 26.3 47.2691 25.86 47.7691 25.52C46.3491 25.02 45.6691 24.1 45.7291 22.76C45.7691 22.18 46.0391 21.65 46.5391 21.17C47.0391 20.67 47.7191 20.19 48.5791 19.73L49.3591 19.31H49.4791C49.0191 19.21 48.5291 19.03 48.0091 18.77C47.4891 18.51 47.1491 18.28 46.9891 18.08H46.7191V17.84C46.6991 17.84 46.6791 17.84 46.6591 17.84C46.6391 17.82 46.6091 17.81 46.5691 17.81L46.2991 17.45C45.9391 16.99 45.6591 16.4 45.4591 15.68C45.2791 14.96 45.1991 14.23 45.2191 13.49C45.2791 12.37 45.6491 11.42 46.3291 10.64C47.0291 9.86 48.1291 9.17 49.6291 8.57C50.0091 8.35 50.3891 8.21 50.7691 8.15C51.1691 8.09 51.5591 8.04 51.9391 8C52.4391 8 52.9791 8.01 53.5591 8.03C54.1391 8.05 54.7091 8.06 55.2691 8.06H55.4191C55.4991 8.06 55.5391 8.07 55.5391 8.09C55.7191 8.07 56.0491 8.07 56.5291 8.09C56.8091 8.11 57.0391 8.14 57.2191 8.18C57.3991 8.2 57.5891 8.24 57.7891 8.3L58.3591 8.48C58.5791 8.54 58.7091 8.51 58.7491 8.39C58.7891 8.25 58.7991 8.08 58.7791 7.88C58.7791 7.68 58.8091 7.51 58.8691 7.37C59.0291 7.03 59.2091 6.65 59.4091 6.23C59.6291 5.79 59.8691 5.3 60.1291 4.76L60.3391 4.73L61.2391 5C61.3791 5 61.4691 5.02 61.5091 5.06C61.5691 5.14 61.6191 5.19 61.6591 5.21C61.6991 5.23 61.7291 5.26 61.7491 5.3L62.3491 5.54C62.4291 5.5 62.5391 5.52 62.6791 5.6L63.0691 5.75L63.1591 5.84C63.2391 5.84 63.2891 5.85 63.3091 5.87C63.3691 5.93 63.3991 5.96 63.3991 5.96C63.4391 5.92 63.4591 5.93 63.4591 5.99C63.4991 5.99 63.5291 6 63.5491 6.02L63.6391 6.08L64.2991 6.38L64.3891 6.5C64.4691 6.5 64.5091 6.51 64.5091 6.53C64.5691 6.59 64.6191 6.62 64.6591 6.62L64.8091 6.71C64.9291 6.83 64.9491 6.93 64.8691 7.01C64.7291 7.17 64.5991 7.33 64.4791 7.49C64.3591 7.63 64.0491 7.93 63.5491 8.39C63.5091 8.45 63.4491 8.51 63.3691 8.57C63.3091 8.61 63.2591 8.65 63.2191 8.69L62.7691 9.02C62.6691 9.1 62.6191 9.16 62.6191 9.2L62.3491 9.47C62.2891 9.53 62.2091 9.61 62.1091 9.71C62.0091 9.81 61.9191 9.91 61.8391 10.01C62.9191 10.95 63.4091 12.29 63.3091 14.03C63.2691 14.65 63.1591 15.29 62.9791 15.95C62.8191 16.61 62.6391 17.1 62.4391 17.42C62.1791 17.86 61.8191 18.27 61.3591 18.65C60.8991 19.01 60.4291 19.27 59.9491 19.43L59.3491 19.64C59.2891 19.66 59.2291 19.69 59.1691 19.73H58.9891C58.9491 19.75 58.8391 19.79 58.6591 19.85C58.4991 19.89 58.2091 19.96 57.7891 20.06C57.6691 20.08 57.5391 20.09 57.3991 20.09C57.2591 20.07 57.1691 20.06 57.1291 20.06C56.8691 20.06 56.6591 20.06 56.4991 20.06C56.3591 20.04 56.2691 20.04 56.2291 20.06C56.1291 20.08 55.9991 20.08 55.8391 20.06C55.6991 20.02 55.5791 20.01 55.4791 20.03C54.8791 19.97 54.4391 20.01 54.1591 20.15C53.8791 20.27 53.7291 20.43 53.7091 20.63C53.7091 20.83 53.8091 21.02 54.0091 21.2C54.2091 21.36 54.4791 21.45 54.8191 21.47C55.7191 21.57 56.3691 21.66 56.7691 21.74C57.1891 21.8 57.4891 21.86 57.6691 21.92C57.8691 21.96 58.0591 22.01 58.2391 22.07C58.4191 22.11 58.7091 22.16 59.1091 22.22C62.7491 22.76 64.5591 24.51 64.5391 27.47C64.4991 30.31 62.8891 32.18 59.7091 33.08C59.6691 33.08 59.6391 33.06 59.6191 33.02C59.5991 32.98 59.5391 33 59.4391 33.08C59.4191 33.1 59.3691 33.11 59.2891 33.11C59.1691 33.17 58.9891 33.2 58.7491 33.2H58.5391C57.9791 33.2 57.4591 33.27 56.9791 33.41C56.4991 33.57 56.0591 33.62 55.6591 33.56C55.5591 33.54 55.4191 33.53 55.2391 33.53C55.0591 33.55 54.9391 33.56 54.8791 33.56H54.2491ZM54.5191 16.46L55.1191 16.43L55.6591 15.95L55.8091 15.86L55.9891 15.44V15.17C56.0291 15.07 56.0591 14.98 56.0791 14.9C56.1191 14.8 56.1791 14.68 56.2591 14.54V14.42L56.2891 14.21L55.5091 12.29C55.4291 11.95 55.2791 11.75 55.0591 11.69C54.7591 11.63 54.5791 11.58 54.5191 11.54C54.4591 11.5 54.3391 11.48 54.1591 11.48C54.1191 11.48 54.0491 11.5 53.9491 11.54C53.8491 11.56 53.7291 11.59 53.5891 11.63C53.0291 11.99 52.7491 12.5 52.7491 13.16V13.4C52.7491 13.74 52.7691 14.07 52.8091 14.39C52.8691 14.69 52.9391 14.89 53.0191 14.99C53.1191 15.13 53.1591 15.24 53.1391 15.32C53.1191 15.4 53.1091 15.46 53.1091 15.5C53.1091 15.7 53.1991 15.86 53.3791 15.98C53.5791 16.1 53.7791 16.22 53.9791 16.34C54.0191 16.38 54.0791 16.42 54.1591 16.46C54.2391 16.48 54.3591 16.48 54.5191 16.46ZM56.1091 29.18C56.7891 29.04 57.3191 28.83 57.6991 28.55C58.0791 28.29 58.2591 28.03 58.2391 27.77C58.2191 27.53 57.9491 27.37 57.4291 27.29C57.2291 27.25 57.1291 27.22 57.1291 27.2C57.1491 27.18 57.1091 27.17 57.0091 27.17H56.2291C56.2091 27.15 56.1191 27.13 55.9591 27.11C55.7991 27.09 55.6291 27.07 55.4491 27.05C55.2291 27.01 55.1491 26.98 55.2091 26.96C55.2691 26.96 55.2191 26.97 55.0591 26.99C54.7991 26.97 54.6091 26.95 54.4891 26.93C54.3891 26.91 54.2891 26.89 54.1891 26.87C54.1091 26.85 53.9591 26.83 53.7391 26.81C53.4791 26.79 53.1791 26.77 52.8391 26.75C52.5191 26.73 52.3091 26.72 52.2091 26.72C52.0491 26.72 51.9691 26.73 51.9691 26.75C51.9691 26.77 51.9491 26.81 51.9091 26.87L51.7891 27.11C51.6691 27.35 51.6691 27.65 51.7891 28.01C51.9091 28.39 52.0991 28.68 52.3591 28.88C52.6991 29.14 53.1491 29.29 53.7091 29.33C54.2891 29.37 55.0891 29.32 56.1091 29.18Z" fill="black"/>
<path d="M9.888 45.624C8.064 45.624 6.44 45.424 5.016 45.024C3.608 44.624 2.544 43.888 1.824 42.816C1.376 42.144 1.04 41.36 0.816 40.464C0.592 39.568 0.48 38.536 0.48 37.368C0.48 34.36 1.2 32.112 2.64 30.624C3.392 29.856 4.416 29.296 5.712 28.944C7.008 28.576 8.48 28.392 10.128 28.392C10.992 28.392 11.888 28.504 12.816 28.728C13.76 28.952 14.64 29.296 15.456 29.76C16.288 30.208 16.968 30.784 17.496 31.488C17.992 32.128 18.352 32.872 18.576 33.72C18.816 34.568 18.936 35.44 18.936 36.336C18.936 37.568 18.848 38.672 18.672 39.648C18.512 40.624 18.248 41.456 17.88 42.144C17.192 43.408 16.168 44.304 14.808 44.832C13.464 45.36 11.824 45.624 9.888 45.624ZM9.984 42.504C10.144 42.504 10.28 42.416 10.392 42.24C10.52 42.064 10.696 41.872 10.92 41.664C11.128 41.456 11.288 41.136 11.4 40.704C11.512 40.256 11.592 39.752 11.64 39.192C11.688 38.632 11.712 38.096 11.712 37.584V36.24C11.712 35.904 11.696 35.488 11.664 34.992C11.632 34.48 11.56 33.976 11.448 33.48C11.336 32.984 11.16 32.568 10.92 32.232C10.696 31.896 10.384 31.728 9.984 31.728C9.696 31.728 9.456 31.808 9.264 31.968C9.088 32.112 8.944 32.32 8.832 32.592C8.64 32.992 8.512 33.4 8.448 33.816C8.4 34.216 8.376 34.576 8.376 34.896C8.344 35.184 8.32 35.496 8.304 35.832C8.304 36.152 8.304 36.6 8.304 37.176C8.304 37.576 8.304 37.936 8.304 38.256C8.32 38.56 8.344 38.848 8.376 39.12C8.376 39.408 8.416 39.768 8.496 40.2C8.592 40.632 8.704 41.056 8.832 41.472C9.056 42.16 9.44 42.504 9.984 42.504ZM35.0063 31.512C35.0543 31.512 35.0783 31.552 35.0783 31.632C35.0783 33.328 35.0703 34.808 35.0543 36.072C35.0543 37.336 35.0463 38.448 35.0303 39.408C35.0143 40.352 34.9903 41.216 34.9583 42C34.9263 42.768 34.8863 43.528 34.8383 44.28C34.8383 44.488 34.7903 44.648 34.6943 44.76C34.5983 44.872 34.5343 44.96 34.5023 45.024C34.4863 45.04 34.4783 45.048 34.4783 45.048C34.4783 45.064 34.4623 45.088 34.4303 45.12L34.3583 45.168C34.3423 45.152 34.2783 45.128 34.1663 45.096C34.0703 45.08 33.9983 45.072 33.9503 45.072L33.9023 45.12C33.8703 45.152 33.8383 45.168 33.8063 45.168C33.5343 45.232 33.2143 45.272 32.8463 45.288C32.4783 45.304 31.9023 45.312 31.1183 45.312H30.1103C29.7263 45.312 29.3903 45.288 29.1023 45.24C29.0063 45.16 28.8863 44.968 28.7423 44.664C28.7263 44.6 28.7103 44.504 28.6943 44.376C28.6943 44.248 28.6783 44.168 28.6463 44.136C28.6303 44.056 28.5983 44.016 28.5503 44.016C28.5503 44.016 28.5023 44 28.4063 43.968V44.088H28.3823C27.4383 45.208 26.0463 45.768 24.2063 45.768C23.1023 45.768 22.2143 45.472 21.5423 44.88C20.8703 44.288 20.4623 43.456 20.3183 42.384C20.2543 41.84 20.2063 41.272 20.1743 40.68C20.1423 40.088 20.1263 39.472 20.1263 38.832C20.1263 38.304 20.1343 37.768 20.1503 37.224C20.1823 36.664 20.2063 36.08 20.2223 35.472C20.2223 35.392 20.2383 35.28 20.2703 35.136C20.3023 34.976 20.3183 34.816 20.3183 34.656C20.3183 34.368 20.3183 33.992 20.3183 33.528C20.3343 33.064 20.3423 32.632 20.3423 32.232C20.3423 32.056 20.3423 31.944 20.3423 31.896C20.3423 31.848 20.3343 31.816 20.3183 31.8C20.3183 31.72 20.3103 31.64 20.2943 31.56C20.2943 31.48 20.2943 31.408 20.2943 31.344C20.2943 31.232 20.3343 31.16 20.4143 31.128C20.5103 31.08 20.6863 31.056 20.9423 31.056H22.1183C22.5183 31.056 22.9103 31.064 23.2943 31.08C23.6943 31.08 24.0943 31.088 24.4943 31.104C25.5343 31.136 26.1823 31.336 26.4383 31.704C26.4863 31.848 26.5103 32.2 26.5103 32.76C26.5103 33.368 26.5023 33.896 26.4863 34.344C26.4863 34.792 26.4863 35.216 26.4863 35.616V36.072C26.4863 36.424 26.4863 36.704 26.4863 36.912C26.4863 37.12 26.4783 37.32 26.4622 37.512C26.4463 38.104 26.4463 38.672 26.4622 39.216C26.4943 39.76 26.4863 40.248 26.4383 40.68C26.3743 41.32 26.4783 41.776 26.7503 42.048C27.0383 42.32 27.4143 42.328 27.8783 42.072C28.1343 41.928 28.2943 41.768 28.3583 41.592V33.432C28.3103 33.112 28.2863 32.856 28.2863 32.664C28.2703 32.632 28.2623 32.52 28.2623 32.328V31.728C28.2623 31.44 28.3743 31.296 28.5983 31.296C28.6943 31.296 28.7423 31.336 28.7423 31.416V31.44C28.9183 31.376 29.2463 31.328 29.7263 31.296C30.2063 31.248 30.6703 31.224 31.1183 31.224H31.6943L34.6943 31.296C34.7743 31.296 34.8143 31.32 34.8143 31.368C34.8303 31.368 34.8383 31.376 34.8383 31.392V31.512C34.8223 31.512 34.8143 31.536 34.8143 31.584L34.9343 31.56C34.9663 31.528 34.9903 31.512 35.0063 31.512ZM43.9731 45.504C43.3811 45.536 42.8691 45.56 42.4371 45.576C42.0211 45.608 41.6211 45.592 41.2371 45.528C40.8691 45.48 40.4691 45.368 40.0371 45.192C39.0291 44.76 38.2931 44.168 37.8291 43.416C37.3811 42.664 37.1411 41.632 37.1091 40.32H37.1331C37.1491 39.76 37.1571 39.184 37.1571 38.592C37.1731 37.984 37.1891 37.432 37.2051 36.936C37.2211 36.424 37.2291 36.064 37.2291 35.856H36.4131C36.1731 35.856 36.0131 35.72 35.9331 35.448C35.8691 35.16 35.8371 34.792 35.8371 34.344C35.8531 33.896 35.8611 33.424 35.8611 32.928V32.616C35.8931 32.488 35.9091 32.384 35.9091 32.304C35.9091 32.224 35.9091 32.152 35.9091 32.088V31.608L35.9331 31.416L36.0291 31.32L36.2211 31.344H36.8691C37.1091 31.344 37.2211 31.344 37.2051 31.344C37.1891 31.344 37.1251 31.344 37.0131 31.344C36.9171 31.328 36.8451 31.32 36.7971 31.32H37.2051L37.2771 28.44C37.3091 28.36 37.3091 28.264 37.2771 28.152C37.2451 28.04 37.2531 27.944 37.3011 27.864C37.3651 27.768 37.5331 27.72 37.8051 27.72H40.5891C40.7011 27.736 40.8291 27.744 40.9731 27.744C41.1171 27.744 41.2851 27.744 41.4771 27.744H42.0771C42.1571 27.712 42.2131 27.696 42.2451 27.696C42.2931 27.696 42.3411 27.696 42.3891 27.696C42.4531 27.68 42.5091 27.672 42.5571 27.672C42.6051 27.656 42.6531 27.648 42.7011 27.648C43.1811 27.632 43.4211 27.984 43.4211 28.704C43.4211 29.168 43.4051 29.624 43.3731 30.072C43.3411 30.504 43.3091 30.904 43.2771 31.272H44.1171C44.1971 31.272 44.2851 31.272 44.3811 31.272C44.4771 31.272 44.5571 31.28 44.6211 31.296L45.1971 31.32L45.2691 31.368C45.3011 31.384 45.3171 31.408 45.3171 31.44V35.352C45.3171 35.464 45.2451 35.576 45.1011 35.688C44.9731 35.784 44.8131 35.848 44.6211 35.88C44.3651 35.816 44.2131 35.776 44.1651 35.76C44.1171 35.728 44.0531 35.712 43.9731 35.712H43.1571V36.48C43.1571 37.424 43.1571 38.08 43.1571 38.448C43.1571 38.816 43.1651 39.016 43.1811 39.048V39.72H43.2051C43.2691 40.408 43.4131 40.84 43.6371 41.016C43.8771 41.176 44.3491 41.2 45.0531 41.088C45.2771 41.168 45.3891 41.48 45.3891 42.024C45.3891 42.104 45.3891 42.2 45.3891 42.312C45.3891 42.424 45.3891 42.624 45.3891 42.912C45.4051 43.2 45.4211 43.672 45.4371 44.328C45.4051 44.424 45.3971 44.568 45.4131 44.76L45.3891 45.12C45.3251 45.12 45.2771 45.136 45.2451 45.168L45.1251 45.312C45.0931 45.344 45.0691 45.36 45.0531 45.36C44.9891 45.36 44.9011 45.368 44.7891 45.384C44.6771 45.416 44.5331 45.448 44.3571 45.48L43.9731 45.504Z" fill="black"/>
<defs>
<clipPath id="clip0_25_1405">
<rect width="21" height="21" fill="white" transform="translate(46 35)"/>
</clipPath>
</defs>
</svg>
