<svg width="20" height="24" viewBox="0 0 20 24" fill="none" xmlns="http://www.w3.org/2000/svg">
<path d="M20 4.5C20 2.84531 18.7188 1.5 17.1429 1.5H2.85714C1.28125 1.5 0 2.84531 0 4.5V19.5C0 21.1547 1.28125 22.5 2.85714 22.5H17.1429C18.7188 22.5 20 21.1547 20 19.5V4.5ZM11.4286 7.5C11.4286 8.32969 10.7902 9 10 9H5.71429C4.92411 9 4.28571 8.32969 4.28571 7.5C4.28571 6.67031 4.92411 6 5.71429 6H10C10.7902 6 11.4286 6.67031 11.4286 7.5ZM14.2857 10.5C15.0759 10.5 15.7143 11.1703 15.7143 12C15.7143 12.8297 15.0759 13.5 14.2857 13.5H5.71429C4.92411 13.5 4.28571 12.8297 4.28571 12C4.28571 11.1703 4.92411 10.5 5.71429 10.5H14.2857ZM8.57143 16.5C8.57143 17.3297 7.93304 18 7.14286 18H5.71429C4.92411 18 4.28571 17.3297 4.28571 16.5C4.28571 15.6703 4.92411 15 5.71429 15H7.14286C7.93304 15 8.57143 15.6703 8.57143 16.5Z" fill="black"/>
</svg>
