<svg width="17" height="20" viewBox="0 0 17 20" fill="none" xmlns="http://www.w3.org/2000/svg">
<path d="M17 3.75C17 2.37109 15.9109 1.25 14.5714 1.25H2.42857C1.08906 1.25 0 2.37109 0 3.75V16.25C0 17.6289 1.08906 18.75 2.42857 18.75H14.5714C15.9109 18.75 17 17.6289 17 16.25V3.75ZM9.71429 6.25C9.71429 6.94141 9.17165 7.5 8.5 7.5H4.85714C4.18549 7.5 3.64286 6.94141 3.64286 6.25C3.64286 5.55859 4.18549 5 4.85714 5H8.5C9.17165 5 9.71429 5.55859 9.71429 6.25ZM12.1429 8.75C12.8145 8.75 13.3571 9.30859 13.3571 10C13.3571 10.6914 12.8145 11.25 12.1429 11.25H4.85714C4.18549 11.25 3.64286 10.6914 3.64286 10C3.64286 9.30859 4.18549 8.75 4.85714 8.75H12.1429ZM7.28571 13.75C7.28571 14.4414 6.74308 15 6.07143 15H4.85714C4.18549 15 3.64286 14.4414 3.64286 13.75C3.64286 13.0586 4.18549 12.5 4.85714 12.5H6.07143C6.74308 12.5 7.28571 13.0586 7.28571 13.75Z" fill="#FF8A7A"/>
</svg>
