<svg width="70" height="70" viewBox="0 0 70 70" fill="none" xmlns="http://www.w3.org/2000/svg">
<rect width="70" height="70" rx="35" fill="#D9D9D9"/>
<mask id="mask0_688_187" style="mask-type:alpha" maskUnits="userSpaceOnUse" x="0" y="0" width="70" height="70">
<rect width="70" height="70" rx="35" fill="#D9D9D9"/>
</mask>
<g mask="url(#mask0_688_187)">
<path d="M24.5697 59.4492C25.0986 58.2448 25.5788 56.9264 25.8799 56.0393C24.6225 54.4939 23.475 52.8623 22.4456 51.1565L18.9707 45.5983C17.8678 44.1229 17.1845 42.3766 16.9932 40.5446C16.9673 39.9207 17.0871 39.2993 17.3431 38.7298C17.604 38.1632 18.0184 37.6811 18.5394 37.3382C18.7928 37.1652 19.066 37.0231 19.3532 36.915C19.1104 33.6032 19.0561 30.2802 19.1904 26.9622C19.275 26.1914 19.4247 25.4291 19.638 24.6836C20.6093 21.5503 22.7011 18.8848 25.5137 17.1966C27.0395 16.2311 28.6982 15.4936 30.4372 15.0074C31.5521 14.6901 29.5013 11.1663 30.6406 11.0442C36.1663 10.4746 45.1019 15.5201 48.9593 19.6868C51.0607 22.0517 52.2671 25.0779 52.3691 28.2399L52.1494 37.2731C52.6004 37.3855 53.0109 37.622 53.3345 37.9556C53.6581 38.2893 53.8819 38.7069 53.9805 39.1611C54.2653 40.2679 53.9805 41.806 53.0202 43.9137C53.0095 43.9553 52.9901 43.9942 52.9632 44.0276L49 50.538C47.6534 52.965 46.0135 55.2171 44.1172 57.2438C44.3044 57.5042 44.4834 57.7565 44.6543 58.0087C51.3682 67.8639 60.4258 62.7939 70.9564 70.5088L70.6471 70.9238V81.3567H-1V70.639H-0.804688C-0.72037 70.4222 -0.55772 70.245 -0.348957 70.1425C6.4707 66.1875 22.1934 64.8447 24.5697 59.4492Z" fill="white"/>
</g>
</svg>
