<svg width="25" height="25" viewBox="0 0 25 25" fill="none" xmlns="http://www.w3.org/2000/svg">
<g clip-path="url(#clip0_56_788)">
<path d="M21.5332 2.87598L22.124 3.4668C22.583 3.92578 22.583 4.66797 22.124 5.12207L20.7031 6.54785L18.4521 4.29688L19.873 2.87598C20.332 2.41699 21.0742 2.41699 21.5283 2.87598H21.5332ZM10.2441 12.5098L16.7969 5.95215L19.0479 8.20312L12.4902 14.7559C12.3486 14.8975 12.1729 15 11.9824 15.0537L9.12598 15.8691L9.94141 13.0127C9.99512 12.8223 10.0977 12.6465 10.2393 12.5049L10.2441 12.5098ZM18.2178 1.2207L8.58398 10.8496C8.15918 11.2744 7.85156 11.7969 7.69043 12.3682L6.29394 17.251C6.17676 17.6611 6.28906 18.1006 6.5918 18.4033C6.89453 18.7061 7.33398 18.8184 7.74414 18.7012L12.627 17.3047C13.2031 17.1387 13.7256 16.8311 14.1455 16.4111L23.7793 6.78223C25.1514 5.41016 25.1514 3.18359 23.7793 1.81152L23.1885 1.2207C21.8164 -0.151367 19.5898 -0.151367 18.2178 1.2207ZM4.29688 3.125C1.92383 3.125 0 5.04883 0 7.42188V20.7031C0 23.0762 1.92383 25 4.29688 25H17.5781C19.9512 25 21.875 23.0762 21.875 20.7031V15.2344C21.875 14.585 21.3525 14.0625 20.7031 14.0625C20.0537 14.0625 19.5312 14.585 19.5312 15.2344V20.7031C19.5312 21.7822 18.6572 22.6562 17.5781 22.6562H4.29688C3.21777 22.6562 2.34375 21.7822 2.34375 20.7031V7.42188C2.34375 6.34277 3.21777 5.46875 4.29688 5.46875H9.76562C10.415 5.46875 10.9375 4.94629 10.9375 4.29688C10.9375 3.64746 10.415 3.125 9.76562 3.125H4.29688Z" fill="white"/>
</g>
<defs>
<clipPath id="clip0_56_788">
<rect width="25" height="25" fill="white"/>
</clipPath>
</defs>
</svg>
