<svg width="121" height="45" viewBox="0 0 121 45" fill="none" xmlns="http://www.w3.org/2000/svg">
<rect width="121" height="45" rx="5" fill="#0BF89F"/>
<path d="M20 35.5V8H35V10.5H37.5V23H35V25.5H25V35.5H20ZM25 20.5H32.5V13H25V20.5ZM40.0098 35.5V8H45.0098V30.5H55.0098V35.5H40.0098ZM57.5 35.5V28H60V20.5H62.5V13H65V8H70V13H72.5V20.5H75V28H77.5V35.5H72.5V30.5H62.5V35.5H57.5ZM65 25.5H70V20.5H65V25.5ZM77.5098 15.5V8H82.5098V13H85.0098V18H90.0098V13H92.5098V8H97.5098V15.5H95.0098V20.5H92.5098V23H90.0098V35.5H85.0098V23H82.5098V20.5H80.0098V15.5H77.5098Z" fill="#0A0A0A"/>
</svg>
