<svg width="45" height="45" viewBox="0 0 45 45" fill="none" xmlns="http://www.w3.org/2000/svg">
<path d="M22.5 42.6562C11.3813 42.6562 2.34375 33.6187 2.34375 22.5C2.34375 11.3813 11.3813 2.34375 22.5 2.34375C33.6187 2.34375 42.6562 11.3813 42.6562 22.5C42.6562 33.6187 33.6187 42.6562 22.5 42.6562ZM22.5 5.15625C12.9375 5.15625 5.15625 12.9375 5.15625 22.5C5.15625 32.0625 12.9375 39.8438 22.5 39.8438C32.0625 39.8438 39.8438 32.0625 39.8438 22.5C39.8438 12.9375 32.0625 5.15625 22.5 5.15625Z" fill="#ABABAB"/>
<path d="M30 23.9062H15C14.2312 23.9062 13.5938 23.2687 13.5938 22.5C13.5938 21.7312 14.2312 21.0938 15 21.0938H30C30.7687 21.0938 31.4062 21.7312 31.4062 22.5C31.4062 23.2687 30.7687 23.9062 30 23.9062Z" fill="#ABABAB"/>
<path d="M22.5 31.4062C21.7312 31.4062 21.0938 30.7687 21.0938 30V15C21.0938 14.2312 21.7312 13.5938 22.5 13.5938C23.2687 13.5938 23.9062 14.2312 23.9062 15V30C23.9062 30.7687 23.2687 31.4062 22.5 31.4062Z" fill="#ABABAB"/>
</svg>
