<svg width="23" height="23" viewBox="0 0 23 23" fill="none" xmlns="http://www.w3.org/2000/svg">
<circle cx="11.25" cy="11.25" r="11.25" fill="#C0C0C0"/>
<path d="M10.9884 13.0816C11.8554 13.0816 12.5582 12.3788 12.5582 11.5119C12.5582 10.6449 11.8554 9.94209 10.9884 9.94209C10.1215 9.94209 9.41865 10.6449 9.41865 11.5119C9.41865 12.3788 10.1215 13.0816 10.9884 13.0816Z" fill="white"/>
<path d="M15.1745 7.32581H13.5157L12.8669 6.61941C12.6733 6.40488 12.3907 6.2793 12.0977 6.2793H9.87912C9.58609 6.2793 9.30353 6.40488 9.1047 6.61941L8.46109 7.32581H6.80237C6.22679 7.32581 5.75586 7.79674 5.75586 8.37232V14.6514C5.75586 15.227 6.22679 15.6979 6.80237 15.6979H15.1745C15.75 15.6979 16.221 15.227 16.221 14.6514V8.37232C16.221 7.79674 15.75 7.32581 15.1745 7.32581ZM10.9884 14.1281C9.54423 14.1281 8.37214 12.956 8.37214 11.5119C8.37214 10.0677 9.54423 8.89558 10.9884 8.89558C12.4326 8.89558 13.6047 10.0677 13.6047 11.5119C13.6047 12.956 12.4326 14.1281 10.9884 14.1281Z" fill="white"/>
</svg>
