<svg width="19" height="19" viewBox="0 0 19 19" fill="none" xmlns="http://www.w3.org/2000/svg">
<path d="M17.3021 8.65773C17.1832 8.6605 17.065 8.63824 16.9553 8.59276C16.8454 8.54716 16.7464 8.47918 16.6643 8.39303L10.3955 2.13629C10.2361 1.96522 10.1494 1.73896 10.1535 1.50517C10.1577 1.27139 10.2524 1.04833 10.4177 0.882985C10.583 0.71765 10.8061 0.622945 11.0399 0.618818C11.2737 0.614691 11.4999 0.701467 11.671 0.86087L17.9398 7.11761C18.1088 7.2869 18.2036 7.51624 18.2036 7.75532C18.2036 7.99452 18.1088 8.22385 17.9398 8.39303C17.8565 8.47737 17.7571 8.54427 17.6476 8.58975C17.5381 8.63523 17.4206 8.65834 17.3021 8.65773Z" fill="#0A0A0A"/>
<path d="M11.0937 8.59761C10.9752 8.59821 10.8576 8.57511 10.7481 8.52962C10.6387 8.48414 10.5393 8.41724 10.456 8.3329C10.2871 8.16372 10.1921 7.93439 10.1921 7.69519C10.1921 7.45611 10.2871 7.22665 10.456 7.05748L16.7248 0.800729C16.8077 0.715589 16.907 0.64792 17.0165 0.601728C17.126 0.555525 17.2436 0.531725 17.3625 0.531725C17.4814 0.531725 17.5991 0.555525 17.7086 0.601728C17.818 0.64792 17.9173 0.715589 18.0002 0.800729C18.1693 0.969927 18.2641 1.1993 18.2641 1.43844C18.2641 1.67758 18.1693 1.90694 18.0002 2.07615L11.7314 8.3329C11.6485 8.41784 11.5493 8.48511 11.4396 8.53059C11.33 8.57607 11.2124 8.59881 11.0937 8.59761Z" fill="#0A0A0A"/>
<path d="M4.0669 8.63378C3.26254 8.63378 2.47626 8.3953 1.80746 7.94842C1.13866 7.50155 0.617395 6.86636 0.309575 6.12323C0.00176616 5.38011 -0.0787781 4.56238 0.0781463 3.77349C0.235071 2.98458 0.622401 2.25993 1.19116 1.69117C1.75994 1.1224 2.48458 0.735062 3.27349 0.578149C4.06239 0.421225 4.8801 0.501756 5.62324 0.809577C6.36636 1.11739 7.00155 1.63865 7.44843 2.30745C7.89531 2.97625 8.13379 3.76254 8.13379 4.56689C8.13066 5.64453 7.70111 6.6771 6.93911 7.4391C6.17712 8.2011 5.14454 8.63065 4.0669 8.63378ZM4.0669 2.30484C3.61951 2.30484 3.18216 2.4375 2.81016 2.68606C2.43817 2.93461 2.14823 3.2879 1.97703 3.70125C1.80582 4.11458 1.76102 4.56941 1.8483 5.0082C1.93559 5.44699 2.15102 5.85006 2.46738 6.16641C2.78374 6.48278 3.18679 6.69815 3.6256 6.78551C4.06439 6.87274 4.51922 6.82798 4.93255 6.65676C5.3459 6.48554 5.69917 6.19563 5.94774 5.82363C6.19629 5.45164 6.32896 5.01429 6.32896 4.56689C6.32896 3.96696 6.09063 3.3916 5.66642 2.96738C5.2422 2.54316 4.66683 2.30484 4.0669 2.30484Z" fill="#0A0A0A"/>
<path d="M4.0669 18.5C3.26254 18.5 2.47626 18.2615 1.80746 17.8146C1.13866 17.3678 0.617395 16.7326 0.309575 15.9895C0.00176616 15.2464 -0.0787781 14.4287 0.0781463 13.6397C0.235071 12.8509 0.622401 12.1262 1.19116 11.5574C1.75994 10.9886 2.48458 10.6013 3.27349 10.4444C4.06239 10.2875 4.8801 10.368 5.62324 10.6758C6.36636 10.9836 7.00155 11.5049 7.44843 12.1737C7.89531 12.8424 8.13379 13.6288 8.13379 14.4331C8.13066 15.5107 7.70111 16.5433 6.93911 17.3053C6.17712 18.0673 5.14454 18.4969 4.0669 18.5ZM4.0669 12.171C3.61951 12.171 3.18216 12.3038 2.81016 12.5523C2.43817 12.8008 2.14823 13.1542 1.97703 13.5675C1.80582 13.9808 1.76102 14.4356 1.8483 14.8744C1.93559 15.3133 2.15102 15.7163 2.46738 16.0327C2.78374 16.349 3.18679 16.5645 3.6256 16.6517C4.06439 16.739 4.51922 16.6942 4.93255 16.523C5.3459 16.3518 5.69917 16.0619 5.94774 15.6899C6.19629 15.3178 6.32896 14.8806 6.32896 14.4331C6.32896 13.8332 6.09063 13.2578 5.66642 12.8337C5.2422 12.4094 4.66683 12.171 4.0669 12.171Z" fill="#0A0A0A"/>
<path d="M14.198 18.5C13.3937 18.5 12.6074 18.2615 11.9386 17.8146C11.2697 17.3678 10.7485 16.7326 10.4407 15.9895C10.1329 15.2464 10.0523 14.4287 10.2092 13.6397C10.3662 12.8509 10.7536 12.1262 11.3223 11.5574C11.8911 10.9886 12.6157 10.6013 13.4046 10.4444C14.1936 10.2875 15.0113 10.368 15.7544 10.6758C16.4975 10.9836 17.1327 11.5049 17.5796 12.1737C18.0264 12.8424 18.2649 13.6288 18.2649 14.4331C18.2618 15.5107 17.8322 16.5433 17.0702 17.3053C16.3082 18.0673 15.2756 18.4969 14.198 18.5ZM14.198 12.171C13.7507 12.171 13.3133 12.3038 12.9413 12.5523C12.5693 12.8008 12.2794 13.1542 12.1081 13.5675C11.9369 13.9808 11.8922 14.4356 11.9794 14.8744C12.0668 15.3133 12.2821 15.7163 12.5985 16.0327C12.9149 16.349 13.3179 16.5645 13.7567 16.6517C14.1955 16.739 14.6503 16.6942 15.0636 16.523C15.477 16.3518 15.8303 16.0619 16.0789 15.6899C16.3274 15.3178 16.4601 14.8806 16.4601 14.4331C16.4601 13.8332 16.2217 13.2578 15.7976 12.8337C15.3733 12.4094 14.7979 12.171 14.198 12.171Z" fill="#0A0A0A"/>
</svg>
