<svg width="82" height="80" viewBox="0 0 82 80" fill="none" xmlns="http://www.w3.org/2000/svg">
<path d="M77.5301 36.2566C77.0017 36.2689 76.4766 36.17 75.9889 35.9678C75.5006 35.7652 75.0605 35.463 74.6958 35.0801L46.8344 7.2723C46.1258 6.51202 45.7402 5.50639 45.7584 4.46734C45.7771 3.42828 46.198 2.43693 46.9328 1.70205C47.6676 0.967226 48.659 0.546312 49.6981 0.527969C50.7371 0.509627 51.7425 0.895301 52.5029 1.60376L80.3643 29.4116C81.1157 30.164 81.5371 31.1833 81.5371 32.2459C81.5371 33.309 81.1157 34.3282 80.3643 35.0801C79.9943 35.455 79.5525 35.7523 79.0659 35.9545C78.5793 36.1566 78.0568 36.2593 77.5301 36.2566Z" fill="#FAFAFA"/>
<path d="M49.9387 35.9891C49.4119 35.9918 48.8894 35.8891 48.4028 35.687C47.9162 35.4848 47.4744 35.1875 47.1044 34.8126C46.3536 34.0607 45.9316 33.0415 45.9316 31.9784C45.9316 30.9158 46.3536 29.896 47.1044 29.1441L74.9658 1.33621C75.3342 0.957803 75.7754 0.65705 76.2621 0.451752C76.7487 0.246401 77.2717 0.140625 77.8001 0.140625C78.3284 0.140625 78.8514 0.246401 79.3381 0.451752C79.8247 0.65705 80.2659 0.957803 80.6343 1.33621C81.3857 2.0882 81.8071 3.10763 81.8071 4.17048C81.8071 5.23333 81.3857 6.2527 80.6343 7.00475L52.7729 34.8126C52.4045 35.1902 51.9633 35.4891 51.4761 35.6913C50.9889 35.8934 50.4659 35.9945 49.9387 35.9891Z" fill="#FAFAFA"/>
<path d="M18.7068 36.1503C15.1318 36.1503 11.6372 35.0903 8.66476 33.1042C5.6923 31.1181 3.37558 28.2951 2.00748 24.9922C0.639441 21.6894 0.281466 18.0551 0.97891 14.5489C1.67635 11.0426 3.39783 7.82194 5.92568 5.2941C8.45358 2.76625 11.6742 1.04472 15.1805 0.347331C18.6867 -0.350114 22.321 0.0078061 25.6239 1.3759C28.9266 2.74395 31.7497 5.06067 33.7359 8.03312C35.722 11.0056 36.7819 14.5002 36.7819 18.0752C36.768 22.8646 34.8589 27.4539 31.4722 30.8405C28.0856 34.2272 23.4963 36.1364 18.7068 36.1503ZM18.7068 8.02152C16.7184 8.02152 14.7746 8.61115 13.1212 9.71588C11.468 10.8205 10.1793 12.3907 9.41841 14.2278C8.65748 16.0649 8.45839 18.0863 8.84631 20.0365C9.23423 21.9867 10.1917 23.7781 11.5977 25.1841C13.0038 26.5902 14.7952 27.5474 16.7454 27.9357C18.6956 28.3234 20.7171 28.1245 22.5541 27.3635C24.3912 26.6025 25.9613 25.314 27.0661 23.6606C28.1707 22.0074 28.7604 20.0636 28.7604 18.0752C28.7604 15.4087 27.7012 12.8516 25.8158 10.9662C23.9304 9.08073 21.3731 8.02152 18.7068 8.02152Z" fill="#FAFAFA"/>
<path d="M18.7068 79.9998C15.1318 79.9998 11.6372 78.9399 8.66476 76.9537C5.6923 74.9676 3.37558 72.1446 2.00748 68.8418C0.639441 65.5391 0.281466 61.9048 0.97891 58.3984C1.67635 54.8924 3.39783 51.6715 5.92568 49.1437C8.45358 46.6158 11.6742 44.8944 15.1805 44.1971C18.6867 43.4997 22.321 43.8575 25.6239 45.2254C28.9266 46.5934 31.7497 48.9105 33.7359 51.8827C35.722 54.855 36.7819 58.3497 36.7819 61.9246C36.768 66.714 34.8589 71.3034 31.4722 74.6901C28.0856 78.0767 23.4963 79.9859 18.7068 79.9998ZM18.7068 51.871C16.7184 51.871 14.7746 52.4608 13.1212 53.5657C11.468 54.67 10.1793 56.2406 9.41841 58.0775C8.65748 59.9144 8.45839 61.9358 8.84631 63.8861C9.23423 65.8364 10.1917 67.6279 11.5977 69.0338C13.0038 70.4397 14.7952 71.3975 16.7454 71.7852C18.6956 72.1729 20.7171 71.974 22.5541 71.213C24.3912 70.452 25.9613 69.1638 27.0661 67.5103C28.1707 65.8568 28.7604 63.9134 28.7604 61.9246C28.7604 59.2583 27.7012 56.701 25.8158 54.8159C23.9304 52.9304 21.3731 51.871 18.7068 51.871Z" fill="#FAFAFA"/>
<path d="M63.7335 79.9998C60.1585 79.9998 56.6638 78.9399 53.6916 76.9537C50.7188 74.9676 48.4022 72.1446 47.0343 68.8418C45.6663 65.5391 45.308 61.9048 46.0054 58.3984C46.7032 54.8924 48.4247 51.6715 50.9525 49.1437C53.4804 46.6158 56.7007 44.8944 60.2072 44.1971C63.7137 43.4997 67.348 43.8575 70.6507 45.2254C73.9534 46.5934 76.7764 48.9105 78.7626 51.8827C80.7487 54.855 81.8086 58.3497 81.8086 61.9246C81.7947 66.714 79.8856 71.3034 76.4989 74.6901C73.1122 78.0767 68.5228 79.9859 63.7335 79.9998ZM63.7335 51.871C61.7452 51.871 59.8013 52.4608 58.1478 53.5657C56.4948 54.67 55.206 56.2406 54.4451 58.0775C53.6841 59.9144 53.4852 61.9358 53.8729 63.8861C54.2611 65.8364 55.2183 67.6279 56.6243 69.0338C58.0307 70.4397 59.8216 71.3975 61.7719 71.7852C63.7222 72.1729 65.7437 71.974 67.5806 71.213C69.418 70.452 70.9881 69.1638 72.093 67.5103C73.1972 65.8568 73.7871 63.9134 73.7871 61.9246C73.7871 59.2583 72.7277 56.701 70.8427 54.8159C68.9571 52.9304 66.3998 51.871 63.7335 51.871Z" fill="#FAFAFA"/>
</svg>
