<svg width="143" height="45" viewBox="0 0 143 45" fill="none" xmlns="http://www.w3.org/2000/svg">
<rect width="143" height="45" rx="5" fill="#0BF89F"/>
<path d="M20 35.5V8H35V10.5H37.5V23H35V28H37.5V35.5H32.5V30.5H30V25.5H25V35.5H20ZM25 20.5H32.5V13H25V20.5ZM40.0098 35.5V8H55.0098V13H45.0098V18H55.0098V23H45.0098V30.5H55.0098V35.5H40.0098ZM57.5 13V8H77.5V13H70V35.5H65V13H57.5ZM80 35.5V8H95V10.5H97.5V23H95V28H97.5V35.5H92.5V30.5H90V25.5H85V35.5H80ZM85 20.5H92.5V13H85V20.5ZM100.01 15.5V8H105.01V13H107.51V18H112.51V13H115.01V8H120.01V15.5H117.51V20.5H115.01V23H112.51V35.5H107.51V23H105.01V20.5H102.51V15.5H100.01Z" fill="#0A0A0A"/>
</svg>
