<svg width="97" height="19" viewBox="0 0 97 19" fill="none" xmlns="http://www.w3.org/2000/svg">
<path d="M2.98 13.16H15.32V18.32H2.98V13.16ZM13.7 14.44H4.62V17.06H13.7V14.44ZM1.84 1.96H16.38V3.26H1.84V1.96ZM9.16 3.98C12.88 3.98 15 4.86 15 6.54C15 8.22 12.88 9.1 9.16 9.1C5.42 9.1 3.32 8.22 3.32 6.54C3.32 4.86 5.42 3.98 9.16 3.98ZM9.16 5.14C6.54 5.14 5.08 5.64 5.08 6.54C5.08 7.44 6.54 7.94 9.16 7.94C11.76 7.94 13.22 7.44 13.22 6.54C13.22 5.64 11.76 5.14 9.16 5.14ZM8.34 0.219999H9.98V2.8H8.34V0.219999ZM0.98 10.48H17.32V11.78H0.98V10.48ZM8.34 8.7H9.98V11.2H8.34V8.7ZM27.5584 1.62C31.3184 1.62 34.1184 3.62 34.1184 6.62C34.1184 9.64 31.3184 11.62 27.5584 11.62C23.7984 11.62 20.9784 9.64 20.9784 6.62C20.9784 3.62 23.7984 1.62 27.5584 1.62ZM27.5584 2.98C24.6984 2.98 22.5784 4.44 22.5784 6.62C22.5784 8.78 24.6984 10.26 27.5584 10.26C30.4184 10.26 32.5384 8.78 32.5384 6.62C32.5384 4.44 30.4184 2.98 27.5584 2.98ZM19.3984 14.78H35.7784V16.18H19.3984V14.78ZM37.7969 14.96H54.1769V16.34H37.7969V14.96ZM45.1169 11.08H46.7769V15.54H45.1169V11.08ZM39.7769 1.82H52.1569V7.3H41.4769V10.92H39.8369V5.96H50.5169V3.16H39.7769V1.82ZM39.8369 10.22H52.5769V11.58H39.8369V10.22ZM74.9403 0.46H76.6003V18.58H74.9403V0.46ZM67.0603 1.86C69.7403 1.86 71.6603 4.32 71.6603 8.16C71.6603 12.02 69.7403 14.48 67.0603 14.48C64.4003 14.48 62.4803 12.02 62.4803 8.16C62.4803 4.32 64.4003 1.86 67.0603 1.86ZM67.0603 3.36C65.3003 3.36 64.0603 5.24 64.0603 8.16C64.0603 11.1 65.3003 13.02 67.0603 13.02C68.8403 13.02 70.0603 11.1 70.0603 8.16C70.0603 5.24 68.8403 3.36 67.0603 3.36ZM80.2188 9.38H96.5588V10.74H80.2188V9.38ZM87.5588 6.48H89.1988V9.94H87.5588V6.48ZM82.2788 5.96H94.6588V7.32H82.2788V5.96ZM82.2788 1.3H94.5188V2.64H83.9188V6.76H82.2788V1.3ZM88.3588 12.04C92.2188 12.04 94.5588 13.22 94.5588 15.28C94.5588 17.38 92.2188 18.54 88.3588 18.54C84.4987 18.54 82.1587 17.38 82.1587 15.28C82.1587 13.22 84.4987 12.04 88.3588 12.04ZM88.3588 13.32C85.5388 13.32 83.8388 14.04 83.8388 15.28C83.8388 16.54 85.5388 17.24 88.3588 17.24C91.1988 17.24 92.8788 16.54 92.8788 15.28C92.8788 14.04 91.1988 13.32 88.3588 13.32Z" fill="black"/>
</svg>
