<svg width="20" height="20" viewBox="0 0 20 20" fill="none" xmlns="http://www.w3.org/2000/svg">
<circle cx="10" cy="10" r="10" fill="white"/>
<g clip-path="url(#clip0_398_190)">
<path d="M13.3589 4.21953C13.5169 3.84493 13.399 3.40743 13.0749 3.1668C12.7508 2.92618 12.3089 2.94805 12.0062 3.21602L5.14903 9.34102C4.88117 9.58164 4.78475 9.96719 4.91064 10.3063C5.03653 10.6453 5.35796 10.875 5.71421 10.875H8.70082L6.641 15.7805C6.48296 16.1551 6.60082 16.5926 6.92492 16.8332C7.24903 17.0738 7.691 17.052 7.99367 16.784L14.8508 10.659C15.1187 10.4184 15.2151 10.0328 15.0892 9.69375C14.9633 9.35469 14.6446 9.12774 14.2856 9.12774H11.299L13.3589 4.21953Z" fill="#F43630"/>
</g>
<defs>
<clipPath id="clip0_398_190">
<rect width="12" height="14" fill="white" transform="translate(4 3)"/>
</clipPath>
</defs>
</svg>
