<svg width="20" height="20" viewBox="0 0 20 20" fill="none" xmlns="http://www.w3.org/2000/svg">
<g clip-path="url(#clip0_604_202)">
<path d="M12.1875 7.88281C12.1875 7.20313 12.5469 6.58594 12.9648 6.04688C13.457 5.41016 13.75 4.61328 13.75 3.75C13.75 1.67969 12.0703 0 10 0C7.92969 0 6.25 1.67969 6.25 3.75C6.25 4.61328 6.54297 5.41016 7.03516 6.04688C7.45313 6.58594 7.8125 7.20313 7.8125 7.88281C7.8125 9.05078 6.86328 10 5.69531 10H4.375C1.95703 10 0 11.957 0 14.375C0 15.1914 0.523437 15.8867 1.25 16.1445V18.125C1.25 19.1602 2.08984 20 3.125 20H16.875C17.9102 20 18.75 19.1602 18.75 18.125V16.1445C19.4766 15.8867 20 15.1914 20 14.375C20 11.957 18.043 10 15.625 10H14.3047C13.1367 10 12.1875 9.05078 12.1875 7.88281ZM16.25 16.25V17.5H3.75V16.25H16.25Z" fill="black"/>
</g>
<defs>
<clipPath id="clip0_604_202">
<rect width="20" height="20" fill="white"/>
</clipPath>
</defs>
</svg>
