<svg xmlns="http://www.w3.org/2000/svg" width="458" height="486" fill="none"><g filter="url(#a)"><path fill="#fff" d="M430.018 371.968c0-7.035 10.516-12.82 23.982-13.501V0h-18.844v2.616c0 4.014-6.393 7.27-14.276 7.27s-14.278-3.253-14.278-7.27V0h-9.821v2.616c0 4.014-6.394 7.27-14.277 7.27s-14.277-3.253-14.277-7.27V0h-9.822v2.616c0 4.014-6.394 7.27-14.277 7.27s-14.277-3.253-14.277-7.27V0h-9.822v2.616c0 4.014-6.394 7.27-14.277 7.27s-14.277-3.253-14.277-7.27V0h-9.822v2.616c0 4.014-6.394 7.27-14.277 7.27s-14.277-3.253-14.277-7.27V0h-9.822v2.616c0 4.014-6.394 7.27-14.277 7.27s-14.277-3.253-14.277-7.27V0h-9.822v2.616c0 4.014-6.394 7.27-14.277 7.27s-14.277-3.253-14.277-7.27V0h-9.822v2.616c0 4.014-6.394 7.27-14.277 7.27s-14.277-3.253-14.277-7.27V0h-9.822v2.616c0 4.014-6.394 7.27-14.277 7.27s-14.277-3.253-14.277-7.27V0h-9.821v2.616c0 4.014-6.395 7.27-14.278 7.27-7.882 0-14.277-3.253-14.277-7.27V0h-9.821v2.616c0 4.014-6.395 7.27-14.278 7.27-7.882 0-14.276-3.253-14.276-7.27V0H4v358.47c13.466.681 23.982 6.463 23.982 13.501 0 7.035-10.516 12.819-23.982 13.501V478h18.844v-2.617c0-4.013 6.394-7.269 14.276-7.269 7.884 0 14.278 3.253 14.278 7.269V478h9.821v-2.617c0-4.013 6.395-7.269 14.277-7.269 7.883 0 14.278 3.253 14.278 7.269V478h9.821v-2.617c0-4.013 6.394-7.269 14.277-7.269s14.277 3.253 14.277 7.269V478h9.822v-2.617c0-4.013 6.394-7.269 14.277-7.269s14.277 3.253 14.277 7.269V478h9.822v-2.617c0-4.013 6.394-7.269 14.277-7.269s14.277 3.253 14.277 7.269V478h9.822v-2.617c0-4.013 6.394-7.269 14.277-7.269s14.277 3.253 14.277 7.269V478h9.822v-2.617c0-4.013 6.394-7.269 14.277-7.269s14.277 3.253 14.277 7.269V478h9.822v-2.617c0-4.013 6.394-7.269 14.277-7.269s14.277 3.253 14.277 7.269V478h9.822v-2.617c0-4.013 6.394-7.269 14.277-7.269s14.277 3.253 14.277 7.269V478h9.822v-2.617c0-4.013 6.394-7.269 14.277-7.269s14.277 3.253 14.277 7.269V478h9.821v-2.617c0-4.013 6.395-7.269 14.278-7.269s14.276 3.253 14.276 7.269V478H454v-92.528c-13.466-.685-23.982-6.466-23.982-13.504"/><path fill="#4A4A4A" d="M291.525 371.484h-17.861v1.745h17.861zM327.234 371.484h-17.855v1.745h17.855zM398.669 371.484h-17.86v1.745h17.86zM362.949 371.484h-17.855v1.745h17.855zM255.81 371.484h-17.855v1.745h17.855zM430.018 371.968c0-.167.078-.32.089-.484h-13.583v1.745h13.727c-.072-.421-.233-.828-.233-1.261M77.235 371.484h-17.86v1.745h17.86zM220.095 371.484H202.24v1.745h17.855zM28.027 371.968c0 .43-.156.84-.234 1.261h13.733v-1.745H27.938c.01.164.089.32.089.484M112.945 371.484H95.09v1.745h17.855zM148.659 371.484h-17.854v1.745h17.854zM184.385 371.484h-17.86v1.745h17.86zM68.775 398.192h-1.923v49.428h1.923zM76.946 398.192h-2.883v49.428h2.883zM84.152 398.192H82.23v49.428h1.922zM94.079 398.192h-1.922v49.428h1.922zM106.573 398.192h-5.767v49.428h5.767zM113.783 398.192H110.9v49.428h2.883zM124.033 398.192h-2.883v49.428h2.883zM140.21 398.192h-5.766v49.428h5.766zM154.304 398.192h-5.767v49.428h5.767zM161.67 398.192h-1.922v49.428h1.922zM169.681 398.192h-1.923v49.428h1.923zM183.291 398.192h-2.883v49.428h2.883zM194.185 398.192h-2.883v49.428h2.883zM206.518 398.192h-5.767v49.428h5.767zM213.084 398.192h-2.883v49.428h2.883zM223.978 398.192h-2.883v49.428h2.883zM233.744 398.192h-1.922v49.428h1.922zM245.599 398.192h-1.922v49.428h1.922zM256.649 398.192h-2.883v49.428h2.883zM263.054 398.192h-2.883v49.428h2.883zM271.226 398.192h-1.922v49.428h1.922zM278.275 398.192h-1.922v49.428h1.922zM292.364 398.192h-5.767v49.428h5.767zM302.135 398.192h-2.883v49.428h2.883zM325.04 398.192h-1.923v49.428h1.923zM337.211 398.192h-5.766v49.428h5.766zM344.739 398.192h-2.883v49.428h2.883zM360.438 398.192h-2.883v49.428h2.883zM371.165 398.192h-1.922v49.428h1.922zM383.981 398.192h-5.766v49.428h5.766zM391.192 398.192h-2.883v49.428h2.883z"/></g><defs><filter id="a" width="458" height="486" x="0" y="0" color-interpolation-filters="sRGB" filterUnits="userSpaceOnUse"><feFlood flood-opacity="0" result="BackgroundImageFix"/><feColorMatrix in="SourceAlpha" result="hardAlpha" values="0 0 0 0 0 0 0 0 0 0 0 0 0 0 0 0 0 0 127 0"/><feOffset dy="4"/><feGaussianBlur stdDeviation="2"/><feComposite in2="hardAlpha" operator="out"/><feColorMatrix values="0 0 0 0 0 0 0 0 0 0 0 0 0 0 0 0 0 0 0.25 0"/><feBlend in2="BackgroundImageFix" result="effect1_dropShadow_1053_13624"/><feBlend in="SourceGraphic" in2="effect1_dropShadow_1053_13624" result="shape"/></filter></defs></svg>
