<svg width="81" height="80" viewBox="0 0 81 80" fill="none" xmlns="http://www.w3.org/2000/svg">
<path d="M77.1722 7.27273C78.1367 7.27273 79.0616 6.88961 79.7435 6.20766C80.4255 5.52571 80.8086 4.60079 80.8086 3.63636C80.8086 2.67194 80.4255 1.74702 79.7435 1.06507C79.0616 0.383116 78.1367 0 77.1722 0H69.8995C68.9351 0 68.0102 0.383116 67.3282 1.06507C66.6463 1.74702 66.2631 2.67194 66.2631 3.63636V10.9091H58.9904C58.026 10.9091 57.1011 11.2922 56.4191 11.9742C55.7372 12.6561 55.354 13.581 55.354 14.5455V36.3636H51.0486C50.3081 34.238 48.9244 32.3955 47.0895 31.0917C45.2546 29.7879 43.0595 29.0875 40.8086 29.0875C38.5577 29.0875 36.3625 29.7879 34.5277 31.0917C32.6928 32.3955 31.3091 34.238 30.5686 36.3636H26.2631V14.5455C26.2631 13.581 25.88 12.6561 25.1981 11.9742C24.5161 11.2922 23.5912 10.9091 22.6268 10.9091H15.354V3.63636C15.354 2.67194 14.9709 1.74702 14.289 1.06507C13.607 0.383116 12.6821 0 11.7177 0H4.44496C3.48053 0 2.55561 0.383116 1.87366 1.06507C1.19171 1.74702 0.808594 2.67194 0.808594 3.63636C0.808594 4.60079 1.19171 5.52571 1.87366 6.20766C2.55561 6.88961 3.48053 7.27273 4.44496 7.27273H8.08132V21.8182H4.44496C3.48053 21.8182 2.55561 22.2013 1.87366 22.8832C1.19171 23.5652 0.808594 24.4901 0.808594 25.4545C0.808594 26.419 1.19171 27.3439 1.87366 28.0258C2.55561 28.7078 3.48053 29.0909 4.44496 29.0909H11.7177C12.6821 29.0909 13.607 28.7078 14.289 28.0258C14.9709 27.3439 15.354 26.419 15.354 25.4545V18.1818H18.9904V61.8182H15.354V54.5455C15.354 53.581 14.9709 52.6561 14.289 51.9742C13.607 51.2922 12.6821 50.9091 11.7177 50.9091H4.44496C3.48053 50.9091 2.55561 51.2922 1.87366 51.9742C1.19171 52.6561 0.808594 53.581 0.808594 54.5455C0.808594 55.5099 1.19171 56.4348 1.87366 57.1168C2.55561 57.7987 3.48053 58.1818 4.44496 58.1818H8.08132V72.7273H4.44496C3.48053 72.7273 2.55561 73.1104 1.87366 73.7923C1.19171 74.4743 0.808594 75.3992 0.808594 76.3636C0.808594 77.3281 1.19171 78.253 1.87366 78.9349C2.55561 79.6169 3.48053 80 4.44496 80H11.7177C12.6821 80 13.607 79.6169 14.289 78.9349C14.9709 78.253 15.354 77.3281 15.354 76.3636V69.0909H22.6268C23.5912 69.0909 24.5161 68.7078 25.1981 68.0258C25.88 67.3439 26.2631 66.419 26.2631 65.4546V43.6364H30.5686C31.3091 45.762 32.6928 47.6045 34.5277 48.9083C36.3625 50.2121 38.5577 50.9125 40.8086 50.9125C43.0595 50.9125 45.2546 50.2121 47.0895 48.9083C48.9244 47.6045 50.3081 45.762 51.0486 43.6364H55.354V65.4546C55.354 66.419 55.7372 67.3439 56.4191 68.0258C57.1011 68.7078 58.026 69.0909 58.9904 69.0909H66.2631V76.3636C66.2631 77.3281 66.6463 78.253 67.3282 78.9349C68.0102 79.6169 68.9351 80 69.8995 80H77.1722C78.1367 80 79.0616 79.6169 79.7435 78.9349C80.4255 78.253 80.8086 77.3281 80.8086 76.3636C80.8086 75.3992 80.4255 74.4743 79.7435 73.7923C79.0616 73.1104 78.1367 72.7273 77.1722 72.7273H73.5359V58.1818H77.1722C78.1367 58.1818 79.0616 57.7987 79.7435 57.1168C80.4255 56.4348 80.8086 55.5099 80.8086 54.5455C80.8086 53.581 80.4255 52.6561 79.7435 51.9742C79.0616 51.2922 78.1367 50.9091 77.1722 50.9091H69.8995C68.9351 50.9091 68.0102 51.2922 67.3282 51.9742C66.6463 52.6561 66.2631 53.581 66.2631 54.5455V61.8182H62.6268V18.1818H66.2631V25.4545C66.2631 26.419 66.6463 27.3439 67.3282 28.0258C68.0102 28.7078 68.9351 29.0909 69.8995 29.0909H77.1722C78.1367 29.0909 79.0616 28.7078 79.7435 28.0258C80.4255 27.3439 80.8086 26.419 80.8086 25.4545C80.8086 24.4901 80.4255 23.5652 79.7435 22.8832C79.0616 22.2013 78.1367 21.8182 77.1722 21.8182H73.5359V7.27273H77.1722ZM40.8086 43.6364C40.0894 43.6364 39.3863 43.4231 38.7883 43.0235C38.1903 42.624 37.7243 42.056 37.449 41.3916C37.1738 40.7271 37.1018 39.996 37.2421 39.2906C37.3824 38.5852 37.7287 37.9373 38.2373 37.4287C38.7459 36.9202 39.3938 36.5738 40.0992 36.4335C40.8046 36.2932 41.5357 36.3652 42.2002 36.6404C42.8646 36.9157 43.4326 37.3817 43.8321 37.9797C44.2317 38.5777 44.445 39.2808 44.445 40C44.445 40.9644 44.0618 41.8893 43.3799 42.5713C42.6979 43.2533 41.773 43.6364 40.8086 43.6364Z" fill="#FAFAFA"/>
</svg>
