<svg width="18" height="18" viewBox="0 0 18 18" fill="none" xmlns="http://www.w3.org/2000/svg">
<path d="M17.1818 1.63636C17.3988 1.63636 17.6069 1.55016 17.7604 1.39672C17.9138 1.24328 18 1.03518 18 0.818182C18 0.601186 17.9138 0.393079 17.7604 0.23964C17.6069 0.086201 17.3988 0 17.1818 0H15.5455C15.3285 0 15.1204 0.086201 14.9669 0.23964C14.8135 0.393079 14.7273 0.601186 14.7273 0.818182V2.45455H13.0909C12.8739 2.45455 12.6658 2.54075 12.5124 2.69419C12.3589 2.84762 12.2727 3.05573 12.2727 3.27273V8.18182H11.304C11.1374 7.70355 10.8261 7.289 10.4132 6.99564C10.0004 6.70229 9.50646 6.54468 9 6.54468C8.49354 6.54468 7.99964 6.70229 7.58679 6.99564C7.17394 7.289 6.86262 7.70355 6.696 8.18182H5.72727V3.27273C5.72727 3.05573 5.64107 2.84762 5.48763 2.69419C5.33419 2.54075 5.12609 2.45455 4.90909 2.45455H3.27273V0.818182C3.27273 0.601186 3.18653 0.393079 3.03309 0.23964C2.87965 0.086201 2.67154 0 2.45455 0H0.818182C0.601186 0 0.393079 0.086201 0.23964 0.23964C0.086201 0.393079 0 0.601186 0 0.818182C0 1.03518 0.086201 1.24328 0.23964 1.39672C0.393079 1.55016 0.601186 1.63636 0.818182 1.63636H1.63636V4.90909H0.818182C0.601186 4.90909 0.393079 4.99529 0.23964 5.14873C0.086201 5.30217 0 5.51028 0 5.72727C0 5.94427 0.086201 6.15238 0.23964 6.30581C0.393079 6.45925 0.601186 6.54545 0.818182 6.54545H2.45455C2.67154 6.54545 2.87965 6.45925 3.03309 6.30581C3.18653 6.15238 3.27273 5.94427 3.27273 5.72727V4.09091H4.09091V13.9091H3.27273V12.2727C3.27273 12.0557 3.18653 11.8476 3.03309 11.6942C2.87965 11.5407 2.67154 11.4545 2.45455 11.4545H0.818182C0.601186 11.4545 0.393079 11.5407 0.23964 11.6942C0.086201 11.8476 0 12.0557 0 12.2727C0 12.4897 0.086201 12.6978 0.23964 12.8513C0.393079 13.0047 0.601186 13.0909 0.818182 13.0909H1.63636V16.3636H0.818182C0.601186 16.3636 0.393079 16.4498 0.23964 16.6033C0.086201 16.7567 0 16.9648 0 17.1818C0 17.3988 0.086201 17.6069 0.23964 17.7604C0.393079 17.9138 0.601186 18 0.818182 18H2.45455C2.67154 18 2.87965 17.9138 3.03309 17.7604C3.18653 17.6069 3.27273 17.3988 3.27273 17.1818V15.5455H4.90909C5.12609 15.5455 5.33419 15.4593 5.48763 15.3058C5.64107 15.1524 5.72727 14.9443 5.72727 14.7273V9.81818H6.696C6.86262 10.2964 7.17394 10.711 7.58679 11.0044C7.99964 11.2977 8.49354 11.4553 9 11.4553C9.50646 11.4553 10.0004 11.2977 10.4132 11.0044C10.8261 10.711 11.1374 10.2964 11.304 9.81818H12.2727V14.7273C12.2727 14.9443 12.3589 15.1524 12.5124 15.3058C12.6658 15.4593 12.8739 15.5455 13.0909 15.5455H14.7273V17.1818C14.7273 17.3988 14.8135 17.6069 14.9669 17.7604C15.1204 17.9138 15.3285 18 15.5455 18H17.1818C17.3988 18 17.6069 17.9138 17.7604 17.7604C17.9138 17.6069 18 17.3988 18 17.1818C18 16.9648 17.9138 16.7567 17.7604 16.6033C17.6069 16.4498 17.3988 16.3636 17.1818 16.3636H16.3636V13.0909H17.1818C17.3988 13.0909 17.6069 13.0047 17.7604 12.8513C17.9138 12.6978 18 12.4897 18 12.2727C18 12.0557 17.9138 11.8476 17.7604 11.6942C17.6069 11.5407 17.3988 11.4545 17.1818 11.4545H15.5455C15.3285 11.4545 15.1204 11.5407 14.9669 11.6942C14.8135 11.8476 14.7273 12.0557 14.7273 12.2727V13.9091H13.9091V4.09091H14.7273V5.72727C14.7273 5.94427 14.8135 6.15238 14.9669 6.30581C15.1204 6.45925 15.3285 6.54545 15.5455 6.54545H17.1818C17.3988 6.54545 17.6069 6.45925 17.7604 6.30581C17.9138 6.15238 18 5.94427 18 5.72727C18 5.51028 17.9138 5.30217 17.7604 5.14873C17.6069 4.99529 17.3988 4.90909 17.1818 4.90909H16.3636V1.63636H17.1818ZM9 9.81818C8.83818 9.81818 8.67999 9.7702 8.54544 9.68029C8.41089 9.59039 8.30602 9.46261 8.2441 9.3131C8.18217 9.1636 8.16597 8.99909 8.19754 8.84038C8.22911 8.68167 8.30703 8.53588 8.42146 8.42146C8.53588 8.30703 8.68167 8.22911 8.84038 8.19754C8.99909 8.16597 9.1636 8.18217 9.3131 8.2441C9.46261 8.30602 9.59039 8.41089 9.68029 8.54544C9.7702 8.67999 9.81818 8.83818 9.81818 9C9.81818 9.217 9.73198 9.4251 9.57854 9.57854C9.4251 9.73198 9.217 9.81818 9 9.81818Z" fill="#0A0A0A"/>
</svg>
