<svg width="20" height="20" viewBox="0 0 20 20" fill="none" xmlns="http://www.w3.org/2000/svg">
<circle cx="10" cy="10" r="10" fill="black"/>
<g clip-path="url(#clip0_604_200)">
<path d="M5.58847 5.395C5.46087 5.01219 5.04616 4.80711 4.66562 4.93244C4.28509 5.05776 4.07773 5.47475 4.20306 5.85529L5.34238 9.27098H4.89577C4.49245 9.27098 4.1666 9.59682 4.1666 10.0001C4.1666 10.4035 4.49245 10.7293 4.89577 10.7293H5.82773L7.11973 14.6053C7.22226 14.9129 7.51621 15.1157 7.83978 15.1043C8.16334 15.0929 8.44134 14.8673 8.51881 14.5529L9.47584 10.7293H10.524L11.4811 14.5529C11.5585 14.8673 11.8365 15.0929 12.1601 15.1043C12.4837 15.1157 12.7776 14.9129 12.8801 14.6053L14.1721 10.7293H15.1041C15.5074 10.7293 15.8333 10.4035 15.8333 10.0001C15.8333 9.59682 15.5074 9.27098 15.1041 9.27098H14.6575L15.7968 5.85529C15.9244 5.47248 15.7171 5.06004 15.3365 4.93244C14.956 4.80483 14.5413 5.01219 14.4137 5.39272L13.1194 9.27098H11.6611L10.7063 5.44741C10.6266 5.12384 10.3349 4.89598 9.99993 4.89598C9.66497 4.89598 9.37331 5.12384 9.29355 5.44741L8.33652 9.27098H6.87819L5.58847 5.395ZM7.36582 10.7293H7.97194L7.71217 11.7684L7.36582 10.7293ZM9.84043 9.27098L9.99993 8.63068L10.1594 9.27098H9.84043ZM12.0279 10.7293H12.634L12.2877 11.7684L12.0279 10.7293Z" fill="white"/>
</g>
<defs>
<clipPath id="clip0_604_200">
<rect width="11.6667" height="11.6667" fill="white" transform="translate(4.1665 4.16675)"/>
</clipPath>
</defs>
</svg>
