<svg width="30" height="30" viewBox="0 0 30 30" fill="none" xmlns="http://www.w3.org/2000/svg">
<path d="M0 1.95918C0 0.878571 0.878571 0 1.95918 0H11.7551C12.8357 0 13.7143 0.878571 13.7143 1.95918V11.7551C13.7143 12.8357 12.8357 13.7143 11.7551 13.7143H1.95918C0.878571 13.7143 0 12.8357 0 11.7551V1.95918Z" fill="black"/>
<path d="M16.2856 1.95918C16.2856 0.878571 17.1642 0 18.2448 0H28.0407C29.1214 0 29.9999 0.878571 29.9999 1.95918V11.7551C29.9999 12.8357 29.1214 13.7143 28.0407 13.7143H18.2448C17.1642 13.7143 16.2856 12.8357 16.2856 11.7551V1.95918Z" fill="black"/>
<path d="M0 18.2448C0 17.1642 0.878571 16.2856 1.95918 16.2856H11.7551C12.8357 16.2856 13.7143 17.1642 13.7143 18.2448V28.0407C13.7143 29.1214 12.8357 29.9999 11.7551 29.9999H1.95918C0.878571 29.9999 0 29.1214 0 28.0407V18.2448Z" fill="black"/>
<path d="M16.2856 18.2448C16.2856 17.1642 17.1642 16.2856 18.2448 16.2856H28.0407C29.1214 16.2856 29.9999 17.1642 29.9999 18.2448V28.0407C29.9999 29.1214 29.1214 29.9999 28.0407 29.9999H18.2448C17.1642 29.9999 16.2856 29.1214 16.2856 28.0407V18.2448Z" fill="black"/>
</svg>
