<svg width="10" height="11" viewBox="0 0 10 11" fill="none" xmlns="http://www.w3.org/2000/svg">
<g clip-path="url(#clip0_477_9800)">
<path d="M8.75065 2.16667H7.45898C7.36228 1.69642 7.10641 1.27389 6.73451 0.970299C6.3626 0.666704 5.8974 0.500606 5.41732 0.5L4.58398 0.5C4.1039 0.500606 3.6387 0.666704 3.2668 0.970299C2.89489 1.27389 2.63902 1.69642 2.54232 2.16667H1.25065C1.14014 2.16667 1.03416 2.21057 0.956023 2.28871C0.877883 2.36685 0.833984 2.47283 0.833984 2.58333C0.833984 2.69384 0.877883 2.79982 0.956023 2.87796C1.03416 2.9561 1.14014 3 1.25065 3H1.66732V8.41667C1.66798 8.969 1.88769 9.49852 2.27824 9.88908C2.6688 10.2796 3.19832 10.4993 3.75065 10.5H6.25065C6.80298 10.4993 7.3325 10.2796 7.72306 9.88908C8.11362 9.49852 8.33332 8.969 8.33398 8.41667V3H8.75065C8.86116 3 8.96714 2.9561 9.04528 2.87796C9.12342 2.79982 9.16732 2.69384 9.16732 2.58333C9.16732 2.47283 9.12342 2.36685 9.04528 2.28871C8.96714 2.21057 8.86116 2.16667 8.75065 2.16667ZM4.58398 1.33333H5.41732C5.67577 1.33365 5.92779 1.41391 6.13882 1.5631C6.34986 1.7123 6.50957 1.92312 6.59607 2.16667H3.40523C3.49173 1.92312 3.65144 1.7123 3.86248 1.5631C4.07351 1.41391 4.32554 1.33365 4.58398 1.33333ZM7.50065 8.41667C7.50065 8.74819 7.36896 9.06613 7.13453 9.30055C6.90011 9.53497 6.58217 9.66667 6.25065 9.66667H3.75065C3.41913 9.66667 3.10119 9.53497 2.86677 9.30055C2.63235 9.06613 2.50065 8.74819 2.50065 8.41667V3H7.50065V8.41667Z" fill="#4F4F4F"/>
<path d="M4.16667 7.99971C4.27717 7.99971 4.38315 7.95581 4.46129 7.87767C4.53943 7.79953 4.58333 7.69355 4.58333 7.58304V5.08305C4.58333 4.97254 4.53943 4.86656 4.46129 4.78842C4.38315 4.71028 4.27717 4.66638 4.16667 4.66638C4.05616 4.66638 3.95018 4.71028 3.87204 4.78842C3.7939 4.86656 3.75 4.97254 3.75 5.08305V7.58304C3.75 7.69355 3.7939 7.79953 3.87204 7.87767C3.95018 7.95581 4.05616 7.99971 4.16667 7.99971Z" fill="#4F4F4F"/>
<path d="M5.83268 7.99971C5.94319 7.99971 6.04917 7.95581 6.12731 7.87767C6.20545 7.79953 6.24935 7.69355 6.24935 7.58304V5.08305C6.24935 4.97254 6.20545 4.86656 6.12731 4.78842C6.04917 4.71028 5.94319 4.66638 5.83268 4.66638C5.72218 4.66638 5.6162 4.71028 5.53806 4.78842C5.45991 4.86656 5.41602 4.97254 5.41602 5.08305V7.58304C5.41602 7.69355 5.45991 7.79953 5.53806 7.87767C5.6162 7.95581 5.72218 7.99971 5.83268 7.99971Z" fill="#4F4F4F"/>
</g>
<defs>
<clipPath id="clip0_477_9800">
<rect width="10" height="10" fill="white" transform="translate(0 0.5)"/>
</clipPath>
</defs>
</svg>
