<svg width="10" height="11" viewBox="0 0 10 11" fill="none" xmlns="http://www.w3.org/2000/svg">
<path d="M9.52209 0.978314C9.23882 0.695479 8.85489 0.536621 8.45459 0.536621C8.05429 0.536621 7.67036 0.695479 7.38709 0.978314L0.610423 7.75498C0.416361 7.94795 0.262491 8.17749 0.157714 8.43031C0.0529371 8.68313 -0.000665823 8.95422 6.24218e-06 9.2279V10.0833C6.24218e-06 10.1938 0.0439049 10.2998 0.122045 10.3779C0.200185 10.4561 0.306166 10.5 0.416673 10.5H1.27209C1.54574 10.5008 1.81683 10.4472 2.06965 10.3425C2.32248 10.2378 2.55203 10.084 2.74501 9.88998L9.52209 3.1129C9.8048 2.82965 9.96357 2.4458 9.96357 2.04561C9.96357 1.64541 9.8048 1.26157 9.52209 0.978314V0.978314ZM2.15584 9.30081C1.92084 9.53425 1.60332 9.66569 1.27209 9.66665H0.83334V9.2279C0.832918 9.06369 0.865071 8.90103 0.927938 8.74934C0.990805 8.59764 1.08314 8.45992 1.19959 8.34415L6.34251 3.20123L7.30084 4.15956L2.15584 9.30081ZM8.93251 2.52373L7.88834 3.56831L6.93001 2.61206L7.97459 1.56748C8.03751 1.50469 8.11219 1.45491 8.19435 1.42098C8.27652 1.38706 8.36456 1.36964 8.45345 1.36974C8.54234 1.36984 8.63035 1.38744 8.71244 1.42155C8.79453 1.45566 8.86909 1.5056 8.93188 1.56852C8.99467 1.63145 9.04445 1.70612 9.07838 1.78829C9.11231 1.87045 9.12972 1.95849 9.12962 2.04738C9.12953 2.13628 9.11192 2.22428 9.07781 2.30637C9.04371 2.38846 8.99376 2.46303 8.93084 2.52581L8.93251 2.52373Z" fill="#4F4F4F"/>
</svg>
