<svg width="25" height="29" viewBox="0 0 25 29" fill="none" xmlns="http://www.w3.org/2000/svg">
<path d="M2.75104 15.5537L2.00582 15.4691L2.00582 15.4691L2.75104 15.5537ZM3.34729 10.3002L4.0925 10.3848L3.34729 10.3002ZM1.59705 18.1628L1.02594 17.6767L1.02594 17.6767L1.59705 18.1628ZM21.3275 15.4691C21.2808 15.0575 20.9093 14.7617 20.4977 14.8085C20.0861 14.8552 19.7904 15.2267 19.8371 15.6383L21.3275 15.4691ZM21.7363 18.1628L21.1652 18.649L21.1652 18.649L21.7363 18.1628ZM8.64007 4.16488L8.88302 4.87444C9.18631 4.7706 9.39007 4.48546 9.39007 4.16488H8.64007ZM13.3949 2.5446C13.6647 2.85888 14.1382 2.89491 14.4525 2.62508C14.7668 2.35526 14.8028 1.88175 14.533 1.56748L13.3949 2.5446ZM16.369 25.2632C16.5143 24.8753 16.3177 24.4431 15.9299 24.2977C15.542 24.1523 15.1097 24.3489 14.9644 24.7368L16.369 25.2632ZM8.36897 24.7368C8.2236 24.3489 7.79133 24.1523 7.40346 24.2977C7.01559 24.4431 6.819 24.8753 6.96437 25.2632L8.36897 24.7368ZM19.3696 21.5833H3.96375V23.0833H19.3696V21.5833ZM3.49625 15.6383L4.0925 10.3848L2.60207 10.2157L2.00582 15.4691L3.49625 15.6383ZM2.16816 18.649C2.90735 17.7806 3.37119 16.7401 3.49625 15.6383L2.00582 15.4691C1.9161 16.2596 1.58182 17.0237 1.02594 17.6767L2.16816 18.649ZM19.8371 15.6383C19.9621 16.7401 20.426 17.7806 21.1652 18.649L22.3074 17.6767C21.7515 17.0237 21.4172 16.2596 21.3275 15.4691L19.8371 15.6383ZM3.96375 21.5833C3.00398 21.5833 2.3013 21.1061 1.96998 20.5223C1.64607 19.9515 1.65356 19.2535 2.16816 18.649L1.02594 17.6767C0.0778301 18.7905 0.049751 20.1777 0.665409 21.2626C1.27366 22.3345 2.48568 23.0833 3.96375 23.0833V21.5833ZM19.3696 23.0833C20.8477 23.0833 22.0597 22.3345 22.6679 21.2626C23.2836 20.1777 23.2555 18.7905 22.3074 17.6767L21.1652 18.649C21.6798 19.2535 21.6873 19.9515 21.3634 20.5223C21.032 21.1061 20.3294 21.5833 19.3696 21.5833V23.0833ZM9.39007 4.16488V4.02659H7.89007V4.16488H9.39007ZM4.0925 10.3848C4.3759 7.88789 6.25176 5.77535 8.88302 4.87444L8.39713 3.45532C5.31533 4.51049 2.96169 7.04714 2.60207 10.2157L4.0925 10.3848ZM11.6667 0.25C9.58091 0.25 7.89007 1.94084 7.89007 4.02659H9.39007C9.39007 2.76927 10.4093 1.75 11.6667 1.75V0.25ZM11.6667 1.75C12.3577 1.75 12.9762 2.05697 13.3949 2.5446L14.533 1.56748C13.8415 0.762096 12.8135 0.25 11.6667 0.25V1.75ZM14.9644 24.7368C14.4961 25.9863 13.2129 26.9167 11.6667 26.9167V28.4167C13.8138 28.4167 15.6728 27.1209 16.369 25.2632L14.9644 24.7368ZM11.6667 26.9167C10.1204 26.9167 8.83724 25.9863 8.36897 24.7368L6.96437 25.2632C7.66058 27.1209 9.51951 28.4167 11.6667 28.4167V26.9167Z" fill="white"/>
<path d="M23.667 7.66667C23.667 9.87581 21.8761 11.6667 19.667 11.6667C17.4579 11.6667 15.667 9.87581 15.667 7.66667C15.667 5.45753 17.4579 3.66667 19.667 3.66667C21.8761 3.66667 23.667 5.45753 23.667 7.66667Z" fill="white" stroke="white" stroke-linecap="round"/>
</svg>
