<svg width="41" height="41" viewBox="0 0 41 41" fill="none" xmlns="http://www.w3.org/2000/svg">
<g opacity="0.7">
<path fill-rule="evenodd" clip-rule="evenodd" d="M8.44824 20.2805C8.44865 14.6367 12.4357 9.77919 17.9711 8.67852C23.5065 7.57785 29.0486 10.5406 31.208 15.7549C33.3675 20.9692 31.5429 26.9828 26.8501 30.118C22.1573 33.2533 15.9033 32.637 11.9127 28.646C9.69424 26.4273 8.44802 23.4181 8.44824 20.2805Z" stroke="white" stroke-width="2.535" stroke-linecap="round" stroke-linejoin="round"/>
<path d="M14.9467 23.8181C14.4516 24.313 14.4514 25.1155 14.9463 25.6106C15.4412 26.1057 16.2438 26.1058 16.7389 25.6109L14.9467 23.8181ZM21.1751 21.1764C21.6702 20.6815 21.6703 19.8789 21.1755 19.3838C20.6806 18.8888 19.878 18.8886 19.3829 19.3835L21.1751 21.1764ZM19.3819 19.3843C18.8871 19.8795 18.8874 20.682 19.3826 21.1768C19.8778 21.6716 20.6803 21.6713 21.1751 21.1761L19.3819 19.3843ZM25.6097 16.7382C26.1045 16.243 26.1042 15.4405 25.609 14.9457C25.1138 14.4509 24.3113 14.4512 23.8165 14.9464L25.6097 16.7382ZM21.1746 19.3835C20.6795 18.8886 19.877 18.8888 19.3821 19.3838C18.8872 19.8789 18.8873 20.6815 19.3824 21.1764L21.1746 19.3835ZM23.8187 25.6109C24.3138 26.1058 25.1163 26.1057 25.6112 25.6106C26.1061 25.1155 26.1059 24.313 25.6109 23.8181L23.8187 25.6109ZM19.3826 21.1763C19.8775 21.6714 20.68 21.6715 21.1751 21.1767C21.6702 20.6818 21.6703 19.8792 21.1755 19.3841L19.3826 21.1763ZM16.7392 14.9462C16.2443 14.4511 15.4418 14.451 14.9467 14.9459C14.4516 15.4408 14.4514 16.2433 14.9463 16.7384L16.7392 14.9462ZM16.7389 25.6109L21.1751 21.1764L19.3829 19.3835L14.9467 23.8181L16.7389 25.6109ZM21.1751 21.1761L25.6097 16.7382L23.8165 14.9464L19.3819 19.3843L21.1751 21.1761ZM19.3824 21.1764L23.8187 25.6109L25.6109 23.8181L21.1746 19.3835L19.3824 21.1764ZM21.1755 19.3841L16.7392 14.9462L14.9463 16.7384L19.3826 21.1763L21.1755 19.3841Z" fill="white"/>
</g>
</svg>
