<svg width="16" height="16" viewBox="0 0 16 16" fill="none" xmlns="http://www.w3.org/2000/svg">
<path d="M2 6.41638C1.17157 6.41638 0.5 7.08796 0.5 7.91638C0.5 8.74481 1.17157 9.41638 2 9.41638V6.41638ZM7.91598 9.41638C8.7444 9.41638 9.41598 8.74481 9.41598 7.91638C9.41598 7.08796 8.7444 6.41638 7.91598 6.41638V9.41638ZM7.91575 6.41638C7.08732 6.41638 6.41575 7.08796 6.41575 7.91638C6.41575 8.74481 7.08732 9.41638 7.91575 9.41638V6.41638ZM13.8317 9.41638C14.6602 9.41638 15.3317 8.74481 15.3317 7.91638C15.3317 7.08796 14.6602 6.41638 13.8317 6.41638V9.41638ZM9.41595 7.91619C9.41595 7.08776 8.74438 6.41619 7.91595 6.41619C7.08752 6.41619 6.41595 7.08776 6.41595 7.91619H9.41595ZM6.41595 13.8322C6.41595 14.6606 7.08752 15.3322 7.91595 15.3322C8.74438 15.3322 9.41595 14.6606 9.41595 13.8322H6.41595ZM6.41595 7.91598C6.41595 8.7444 7.08752 9.41598 7.91595 9.41598C8.74438 9.41598 9.41595 8.7444 9.41595 7.91598H6.41595ZM9.41595 2C9.41595 1.17157 8.74438 0.5 7.91595 0.5C7.08752 0.5 6.41595 1.17157 6.41595 2H9.41595ZM2 9.41638H7.91598V6.41638H2V9.41638ZM7.91575 9.41638H13.8317V6.41638H7.91575V9.41638ZM7.91595 7.91619C7.91595 7.91619 6.41595 7.91619 6.41595 7.91619C6.41595 7.91619 6.41595 7.91619 6.41595 7.91619C6.41595 7.91619 6.41595 7.91619 6.41595 7.91619C6.41595 7.91619 6.41595 7.91619 6.41595 7.91619C6.41595 7.91619 6.41595 7.91619 6.41595 7.91619C6.41595 7.91619 6.41595 7.9162 6.41595 7.9162C6.41595 7.9162 6.41595 7.9162 6.41595 7.9162C6.41595 7.9162 6.41595 7.91621 6.41595 7.91621C6.41595 7.91621 6.41595 7.91622 6.41595 7.91622C6.41595 7.91622 6.41595 7.91623 6.41595 7.91623C6.41595 7.91624 6.41595 7.91624 6.41595 7.91625C6.41595 7.91625 6.41595 7.91626 6.41595 7.91626C6.41595 7.91627 6.41595 7.91628 6.41595 7.91628C6.41595 7.91629 6.41595 7.9163 6.41595 7.91631C6.41595 7.91632 6.41595 7.91633 6.41595 7.91634C6.41595 7.91635 6.41595 7.91636 6.41595 7.91637C6.41595 7.91638 6.41595 7.91639 6.41595 7.9164C6.41595 7.91642 6.41595 7.91643 6.41595 7.91644C6.41595 7.91646 6.41595 7.91647 6.41595 7.91649C6.41595 7.91651 6.41595 7.91652 6.41595 7.91654C6.41595 7.91656 6.41595 7.91658 6.41595 7.9166C6.41595 7.91661 6.41595 7.91664 6.41595 7.91666C6.41595 7.91668 6.41595 7.9167 6.41595 7.91672C6.41595 7.91675 6.41595 7.91677 6.41595 7.9168C6.41595 7.91682 6.41595 7.91685 6.41595 7.91688C6.41595 7.9169 6.41595 7.91693 6.41595 7.91696C6.41595 7.91699 6.41595 7.91702 6.41595 7.91705C6.41595 7.91709 6.41595 7.91712 6.41595 7.91715C6.41595 7.91719 6.41595 7.91723 6.41595 7.91726C6.41595 7.9173 6.41595 7.91734 6.41595 7.91738C6.41595 7.91742 6.41595 7.91746 6.41595 7.9175C6.41595 7.91754 6.41595 7.91759 6.41595 7.91763C6.41595 7.91768 6.41595 7.91772 6.41595 7.91777C6.41595 7.91782 6.41595 7.91787 6.41595 7.91792C6.41595 7.91797 6.41595 7.91802 6.41595 7.91808C6.41595 7.91813 6.41595 7.91819 6.41595 7.91824C6.41595 7.9183 6.41595 7.91836 6.41595 7.91842C6.41595 7.91848 6.41595 7.91854 6.41595 7.91861C6.41595 7.91867 6.41595 7.91873 6.41595 7.9188C6.41595 7.91887 6.41595 7.91894 6.41595 7.91901C6.41595 7.91908 6.41595 7.91915 6.41595 7.91923C6.41595 7.9193 6.41595 7.91938 6.41595 7.91945C6.41595 7.91953 6.41595 7.91961 6.41595 7.91969C6.41595 7.91977 6.41595 7.91986 6.41595 7.91994C6.41595 7.92003 6.41595 7.92011 6.41595 7.9202C6.41595 7.92029 6.41595 7.92038 6.41595 7.92048C6.41595 7.92057 6.41595 7.92067 6.41595 7.92076C6.41595 7.92086 6.41595 7.92096 6.41595 7.92106C6.41595 7.92116 6.41595 7.92127 6.41595 7.92137C6.41595 7.92148 6.41595 7.92159 6.41595 7.9217C6.41595 7.92181 6.41595 7.92192 6.41595 7.92203C6.41595 7.92215 6.41595 7.92227 6.41595 7.92238C6.41595 7.9225 6.41595 7.92263 6.41595 7.92275C6.41595 7.92287 6.41595 7.923 6.41595 7.92313C6.41595 7.92326 6.41595 7.92339 6.41595 7.92352C6.41595 7.92365 6.41595 7.92379 6.41595 7.92393C6.41595 7.92407 6.41595 7.92421 6.41595 7.92435C6.41595 7.92449 6.41595 7.92464 6.41595 7.92479C6.41595 7.92494 6.41595 7.92509 6.41595 7.92524C6.41595 7.92539 6.41595 7.92555 6.41595 7.92571C6.41595 7.92587 6.41595 7.92603 6.41595 7.92619C6.41595 7.92636 6.41595 7.92652 6.41595 7.92669C6.41595 7.92686 6.41595 7.92703 6.41595 7.92721C6.41595 7.92738 6.41595 7.92756 6.41595 7.92774C6.41595 7.92792 6.41595 7.92811 6.41595 7.92829C6.41595 7.92848 6.41595 7.92867 6.41595 7.92886C6.41595 7.92905 6.41595 7.92925 6.41595 7.92944C6.41595 7.92964 6.41595 7.92984 6.41595 7.93005C6.41595 7.93025 6.41595 7.93046 6.41595 7.93067C6.41595 7.93088 6.41595 7.93109 6.41595 7.93131C6.41595 7.93152 6.41595 7.93174 6.41595 7.93196C6.41595 7.93219 6.41595 7.93241 6.41595 7.93264C6.41595 7.93287 6.41595 7.9331 6.41595 7.93333C6.41595 7.93357 6.41595 7.93381 6.41595 7.93405C6.41595 7.93429 6.41595 7.93453 6.41595 7.93478C6.41595 7.93503 6.41595 7.93528 6.41595 7.93554C6.41595 7.93579 6.41595 7.93605 6.41595 7.93631C6.41595 7.93657 6.41595 7.93684 6.41595 7.9371C6.41595 7.93737 6.41595 7.93764 6.41595 7.93792C6.41595 7.93819 6.41595 7.93847 6.41595 7.93875C6.41595 7.93904 6.41595 7.93932 6.41595 7.93961C6.41595 7.9399 6.41595 7.94019 6.41595 7.94049C6.41595 7.94079 6.41595 7.94109 6.41595 7.94139C6.41595 7.94169 6.41595 7.942 6.41595 7.94231C6.41595 7.94262 6.41595 7.94294 6.41595 7.94326C6.41595 7.94357 6.41595 7.9439 6.41595 7.94422C6.41595 7.94455 6.41595 7.94488 6.41595 7.94521C6.41595 7.94555 6.41595 7.94588 6.41595 7.94622C6.41595 7.94657 6.41595 7.94691 6.41595 7.94726C6.41595 7.94761 6.41595 7.94796 6.41595 7.94832C6.41595 7.94868 6.41595 7.94904 6.41595 7.9494C6.41595 7.94977 6.41595 7.95014 6.41595 7.95051C6.41595 7.95088 6.41595 7.95126 6.41595 7.95164C6.41595 7.95202 6.41595 7.95241 6.41595 7.9528C6.41595 7.95319 6.41595 7.95358 6.41595 7.95398C6.41595 7.95438 6.41595 7.95478 6.41595 7.95518C6.41595 7.95559 6.41595 7.956 6.41595 7.95642C6.41595 7.95683 6.41595 7.95725 6.41595 7.95767C6.41595 7.9581 6.41595 7.95852 6.41595 7.95896C6.41595 7.95939 6.41595 7.95982 6.41595 7.96026C6.41595 7.96071 6.41595 7.96115 6.41595 7.9616C6.41595 7.96205 6.41595 7.9625 6.41595 7.96296C6.41595 7.96342 6.41595 7.96388 6.41595 7.96435C6.41595 7.96482 6.41595 7.96529 6.41595 7.96577C6.41595 7.96625 6.41595 7.96673 6.41595 7.96721C6.41595 7.9677 6.41595 7.96819 6.41595 7.96868C6.41595 7.96918 6.41595 7.96968 6.41595 7.97018C6.41595 7.97069 6.41595 7.9712 6.41595 7.97171C6.41595 7.97223 6.41595 7.97275 6.41595 7.97327C6.41595 7.97379 6.41595 7.97432 6.41595 7.97485C6.41595 7.97539 6.41595 7.97593 6.41595 7.97647C6.41595 7.97701 6.41595 7.97756 6.41595 7.97811C6.41595 7.97867 6.41595 7.97922 6.41595 7.97979C6.41595 7.98035 6.41595 7.98092 6.41595 7.98149C6.41595 7.98206 6.41595 7.98264 6.41595 7.98322C6.41595 7.98381 6.41595 7.98439 6.41595 7.98499C6.41595 7.98558 6.41595 7.98618 6.41595 7.98678C6.41595 7.98739 6.41595 7.98799 6.41595 7.98861C6.41595 7.98922 6.41595 7.98984 6.41595 7.99046C6.41595 7.99109 6.41595 7.99172 6.41595 7.99235C6.41595 7.99299 6.41595 7.99363 6.41595 7.99427C6.41595 7.99492 6.41595 7.99557 6.41595 7.99623C6.41595 7.99688 6.41595 7.99754 6.41595 7.99821C6.41595 7.99888 6.41595 7.99955 6.41595 8.00023C6.41595 8.0009 6.41595 8.00159 6.41595 8.00228C6.41595 8.00296 6.41595 8.00366 6.41595 8.00436C6.41595 8.00506 6.41595 8.00576 6.41595 8.00647C6.41595 8.00719 6.41595 8.0079 6.41595 8.00862C6.41595 8.00935 6.41595 8.01007 6.41595 8.01081C6.41595 8.01154 6.41595 8.01228 6.41595 8.01303C6.41595 8.01377 6.41595 8.01452 6.41595 8.01528C6.41595 8.01603 6.41595 8.0168 6.41595 8.01756C6.41595 8.01833 6.41595 8.01911 6.41595 8.01989C6.41595 8.02067 6.41595 8.02145 6.41595 8.02224C6.41595 8.02303 6.41595 8.02383 6.41595 8.02463C6.41595 8.02544 6.41595 8.02625 6.41595 8.02706C6.41595 8.02788 6.41595 8.0287 6.41595 8.02953C6.41595 8.03035 6.41595 8.03119 6.41595 8.03203C6.41595 8.03287 6.41595 8.03371 6.41595 8.03456C6.41595 8.03541 6.41595 8.03627 6.41595 8.03714C6.41595 8.038 6.41595 8.03887 6.41595 8.03975C6.41595 8.04062 6.41595 8.0415 6.41595 8.04239C6.41595 8.04328 6.41595 8.04418 6.41595 8.04508C6.41595 8.04598 6.41595 8.04689 6.41595 8.0478C6.41595 8.04872 6.41595 8.04964 6.41595 8.05056C6.41595 8.05149 6.41595 8.05242 6.41595 8.05336C6.41595 8.0543 6.41595 8.05525 6.41595 8.0562C6.41595 8.05715 6.41595 8.05811 6.41595 8.05908C6.41595 8.06004 6.41595 8.06101 6.41595 8.06199C6.41595 8.06297 6.41595 8.06396 6.41595 8.06495C6.41595 8.06594 6.41595 8.06694 6.41595 8.06794C6.41595 8.06895 6.41595 8.06996 6.41595 8.07098C6.41595 8.072 6.41595 8.07302 6.41595 8.07405C6.41595 8.07509 6.41595 8.07612 6.41595 8.07717C6.41595 8.07822 6.41595 8.07927 6.41595 8.08033C6.41595 8.08139 6.41595 8.08245 6.41595 8.08352C6.41595 8.0846 6.41595 8.08568 6.41595 8.08676C6.41595 8.08785 6.41595 8.08894 6.41595 8.09004C6.41595 8.09114 6.41595 8.09225 6.41595 8.09336C6.41595 8.09448 6.41595 8.0956 6.41595 8.09673C6.41595 8.09786 6.41595 8.09899 6.41595 8.10013C6.41595 8.10128 6.41595 8.10243 6.41595 8.10358C6.41595 8.10474 6.41595 8.1059 6.41595 8.10708C6.41595 8.10825 6.41595 8.10942 6.41595 8.11061C6.41595 8.1118 6.41595 8.11299 6.41595 8.11419C6.41595 8.11539 6.41595 8.1166 6.41595 8.11781C6.41595 8.11903 6.41595 8.12025 6.41595 8.12148C6.41595 8.12271 6.41595 8.12394 6.41595 8.12519C6.41595 8.12643 6.41595 8.12768 6.41595 8.12894C6.41595 8.1302 6.41595 8.13147 6.41595 8.13274C6.41595 8.13401 6.41595 8.1353 6.41595 8.13658C6.41595 8.13787 6.41595 8.13917 6.41595 8.14047C6.41595 8.14178 6.41595 8.14309 6.41595 8.14441C6.41595 8.14573 6.41595 8.14705 6.41595 8.14839C6.41595 8.14972 6.41595 8.15107 6.41595 8.15241C6.41595 8.15376 6.41595 8.15512 6.41595 8.15649C6.41595 8.15785 6.41595 8.15923 6.41595 8.16061C6.41595 8.16199 6.41595 8.16338 6.41595 8.16477C6.41595 8.16617 6.41595 8.16757 6.41595 8.16899C6.41595 8.1704 6.41595 8.17182 6.41595 8.17325C6.41595 8.17468 6.41595 8.17611 6.41595 8.17756C6.41595 8.179 6.41595 8.18045 6.41595 8.18191C6.41595 8.18337 6.41595 8.18484 6.41595 8.18632C6.41595 8.18779 6.41595 8.18928 6.41595 8.19077C6.41595 8.19226 6.41595 8.19376 6.41595 8.19527C6.41595 8.19678 6.41595 8.19829 6.41595 8.19982C6.41595 8.20134 6.41595 8.20288 6.41595 8.20442C6.41595 8.20596 6.41595 8.20751 6.41595 8.20907C6.41595 8.21063 6.41595 8.21219 6.41595 8.21377C6.41595 8.21534 6.41595 8.21692 6.41595 8.21851C6.41595 8.22011 6.41595 8.22171 6.41595 8.22331C6.41595 8.22492 6.41595 8.22654 6.41595 8.22816C6.41595 8.22979 6.41595 8.23142 6.41595 8.23306C6.41595 8.2347 6.41595 8.23635 6.41595 8.23801C6.41595 8.23967 6.41595 8.24134 6.41595 8.24302C6.41595 8.24469 6.41595 8.24638 6.41595 8.24807C6.41595 8.24976 6.41595 8.25147 6.41595 8.25318C6.41595 8.25489 6.41595 8.25661 6.41595 8.25833C6.41595 8.26006 6.41595 8.2618 6.41595 8.26354C6.41595 8.26529 6.41595 8.26704 6.41595 8.26881C6.41595 8.27057 6.41595 8.27234 6.41595 8.27412C6.41595 8.2759 6.41595 8.27769 6.41595 8.27949C6.41595 8.28129 6.41595 8.2831 6.41595 8.28491C6.41595 8.28673 6.41595 8.28856 6.41595 8.29039C6.41595 8.29222 6.41595 8.29407 6.41595 8.29592C6.41595 8.29777 6.41595 8.29963 6.41595 8.3015C6.41595 8.30337 6.41595 8.30525 6.41595 8.30714C6.41595 8.30903 6.41595 8.31093 6.41595 8.31284C6.41595 8.31474 6.41595 8.31666 6.41595 8.31858C6.41595 8.32051 6.41595 8.32244 6.41595 8.32439C6.41595 8.32633 6.41595 8.32829 6.41595 8.33025C6.41595 8.33221 6.41595 8.33418 6.41595 8.33616C6.41595 8.33814 6.41595 8.34013 6.41595 8.34213C6.41595 8.34413 6.41595 8.34614 6.41595 8.34816C6.41595 8.35018 6.41595 8.35221 6.41595 8.35425C6.41595 8.35628 6.41595 8.35833 6.41595 8.36039C6.41595 8.36244 6.41595 8.36451 6.41595 8.36658C6.41595 8.36866 6.41595 8.37075 6.41595 8.37284C6.41595 8.37493 6.41595 8.37704 6.41595 8.37915C6.41595 8.38127 6.41595 8.38339 6.41595 8.38552C6.41595 8.38766 6.41595 8.3898 6.41595 8.39195C6.41595 8.39411 6.41595 8.39627 6.41595 8.39844C6.41595 8.40061 6.41595 8.4028 6.41595 8.40499C6.41595 8.40718 6.41595 8.40938 6.41595 8.41159C6.41595 8.4138 6.41595 8.41603 6.41595 8.41826C6.41595 8.42049 6.41595 8.42273 6.41595 8.42498C6.41595 8.42723 6.41595 8.42949 6.41595 8.43176C6.41595 8.43404 6.41595 8.43632 6.41595 8.43861C6.41595 8.4409 6.41595 8.4432 6.41595 8.44551C6.41595 8.44782 6.41595 8.45015 6.41595 8.45248C6.41595 8.45481 6.41595 8.45715 6.41595 8.4595C6.41595 8.46186 6.41595 8.46422 6.41595 8.46659C6.41595 8.46896 6.41595 8.47134 6.41595 8.47374C6.41595 8.47613 6.41595 8.47853 6.41595 8.48095C6.41595 8.48336 6.41595 8.48578 6.41595 8.48822C6.41595 8.49065 6.41595 8.4931 6.41595 8.49555C6.41595 8.49801 6.41595 8.50047 6.41595 8.50295C6.41595 8.50542 6.41595 8.50791 6.41595 8.51041C6.41595 8.5129 6.41595 8.51541 6.41595 8.51793C6.41595 8.52045 6.41595 8.52298 6.41595 8.52551C6.41595 8.52805 6.41595 8.5306 6.41595 8.53316C6.41595 8.53572 6.41595 8.53829 6.41595 8.54087C6.41595 8.54346 6.41595 8.54605 6.41595 8.54865C6.41595 8.55125 6.41595 8.55387 6.41595 8.55649C6.41595 8.55912 6.41595 8.56175 6.41595 8.5644C6.41595 8.56704 6.41595 8.5697 6.41595 8.57237C6.41595 8.57503 6.41595 8.57771 6.41595 8.5804C6.41595 8.58309 6.41595 8.58579 6.41595 8.5885C6.41595 8.59121 6.41595 8.59393 6.41595 8.59667C6.41595 8.5994 6.41595 8.60214 6.41595 8.6049C6.41595 8.60765 6.41595 8.61042 6.41595 8.6132C6.41595 8.61597 6.41595 8.61876 6.41595 8.62156C6.41595 8.62436 6.41595 8.62717 6.41595 8.62999C6.41595 8.63281 6.41595 8.63564 6.41595 8.63849C6.41595 8.64133 6.41595 8.64419 6.41595 8.64705C6.41595 8.64992 6.41595 8.6528 6.41595 8.65568C6.41595 8.65857 6.41595 8.66147 6.41595 8.66438C6.41595 8.6673 6.41595 8.67022 6.41595 8.67315C6.41595 8.67609 6.41595 8.67903 6.41595 8.68199C6.41595 8.68494 6.41595 8.68791 6.41595 8.69089C6.41595 8.69387 6.41595 8.69686 6.41595 8.69987C6.41595 8.70287 6.41595 8.70588 6.41595 8.70891C6.41595 8.71193 6.41595 8.71497 6.41595 8.71802C6.41595 8.72107 6.41595 8.72413 6.41595 8.7272C6.41595 8.73027 6.41595 8.73336 6.41595 8.73645C6.41595 8.73955 6.41595 8.74265 6.41595 8.74577C6.41595 8.74889 6.41595 8.75202 6.41595 8.75516C6.41595 8.75831 6.41595 8.76146 6.41595 8.76463C6.41595 8.76779 6.41595 8.77097 6.41595 8.77416C6.41595 8.77735 6.41595 8.78055 6.41595 8.78376C6.41595 8.78698 6.41595 8.7902 6.41595 8.79344C6.41595 8.79668 6.41595 8.79993 6.41595 8.80319C6.41595 8.80645 6.41595 8.80972 6.41595 8.81301C6.41595 8.81629 6.41595 8.81959 6.41595 8.8229C6.41595 8.82621 6.41595 8.82953 6.41595 8.83286C6.41595 8.83619 6.41595 8.83954 6.41595 8.8429C6.41595 8.84625 6.41595 8.84962 6.41595 8.85301C6.41595 8.85639 6.41595 8.85978 6.41595 8.86319C6.41595 8.8666 6.41595 8.87001 6.41595 8.87345C6.41595 8.87688 6.41595 8.88032 6.41595 8.88378C6.41595 8.88723 6.41595 8.8907 6.41595 8.89418C6.41595 8.89766 6.41595 8.90115 6.41595 8.90466C6.41595 8.90816 6.41595 8.91168 6.41595 8.91521C6.41595 8.91874 6.41595 8.92228 6.41595 8.92584C6.41595 8.92939 6.41595 8.93296 6.41595 8.93654C6.41595 8.94012 6.41595 8.94371 6.41595 8.94732C6.41595 8.95093 6.41595 8.95454 6.41595 8.95817C6.41595 8.9618 6.41595 8.96545 6.41595 8.9691C6.41595 8.97276 6.41595 8.97643 6.41595 8.98011C6.41595 8.98379 6.41595 8.98749 6.41595 8.99119C6.41595 8.9949 6.41595 8.99862 6.41595 9.00235C6.41595 9.00608 6.41595 9.00983 6.41595 9.01359C6.41595 9.01735 6.41595 9.02112 6.41595 9.0249C6.41595 9.02868 6.41595 9.03248 6.41595 9.03629C6.41595 9.0401 6.41595 9.04392 6.41595 9.04776C6.41595 9.0516 6.41595 9.05544 6.41595 9.05931C6.41595 9.06317 6.41595 9.06704 6.41595 9.07093C6.41595 9.07482 6.41595 9.07872 6.41595 9.08264C6.41595 9.08655 6.41595 9.09048 6.41595 9.09442C6.41595 9.09836 6.41595 9.10231 6.41595 9.10628C6.41595 9.11025 6.41595 9.11423 6.41595 9.11822C6.41595 9.12221 6.41595 9.12622 6.41595 9.13024C6.41595 9.13426 6.41595 9.13829 6.41595 9.14234C6.41595 9.14639 6.41595 9.15045 6.41595 9.15452C6.41595 9.15859 6.41595 9.16268 6.41595 9.16678C6.41595 9.17088 6.41595 9.17499 6.41595 9.17912C6.41595 9.18325 6.41595 9.18739 6.41595 9.19154C6.41595 9.1957 6.41595 9.19987 6.41595 9.20405C6.41595 9.20823 6.41595 9.21242 6.41595 9.21663C6.41595 9.22084 6.41595 9.22506 6.41595 9.2293C6.41595 9.23353 6.41595 9.23778 6.41595 9.24205C6.41595 9.24631 6.41595 9.25059 6.41595 9.25488C6.41595 9.25917 6.41595 9.26347 6.41595 9.26779C6.41595 9.27211 6.41595 9.27644 6.41595 9.28079C6.41595 9.28513 6.41595 9.28949 6.41595 9.29387C6.41595 9.29824 6.41595 9.30263 6.41595 9.30703C6.41595 9.31143 6.41595 9.31585 6.41595 9.32028C6.41595 9.3247 6.41595 9.32915 6.41595 9.33361C6.41595 9.33806 6.41595 9.34253 6.41595 9.34702C6.41595 9.3515 6.41595 9.356 6.41595 9.36052C6.41595 9.36503 6.41595 9.36956 6.41595 9.3741C6.41595 9.37864 6.41595 9.3832 6.41595 9.38777C6.41595 9.39234 6.41595 9.39692 6.41595 9.40152C6.41595 9.40612 6.41595 9.41073 6.41595 9.41536C6.41595 9.41999 6.41595 9.42463 6.41595 9.42928C6.41595 9.43394 6.41595 9.43861 6.41595 9.44329C6.41595 9.44798 6.41595 9.45268 6.41595 9.45739C6.41595 9.4621 6.41595 9.46683 6.41595 9.47157C6.41595 9.47631 6.41595 9.48107 6.41595 9.48584C6.41595 9.49061 6.41595 9.4954 6.41595 9.5002C6.41595 9.505 6.41595 9.50981 6.41595 9.51464C6.41595 9.51947 6.41595 9.52432 6.41595 9.52917C6.41595 9.53403 6.41595 9.53891 6.41595 9.54379C6.41595 9.54868 6.41595 9.55358 6.41595 9.5585C6.41595 9.56342 6.41595 9.56835 6.41595 9.5733C6.41595 9.57824 6.41595 9.5832 6.41595 9.58818C6.41595 9.59316 6.41595 9.59815 6.41595 9.60315C6.41595 9.60816 6.41595 9.61318 6.41595 9.61822C6.41595 9.62325 6.41595 9.6283 6.41595 9.63337C6.41595 9.63843 6.41595 9.64351 6.41595 9.64861C6.41595 9.6537 6.41595 9.65881 6.41595 9.66394C6.41595 9.66906 6.41595 9.6742 6.41595 9.67936C6.41595 9.68452 6.41595 9.68969 6.41595 9.69487C6.41595 9.70006 6.41595 9.70526 6.41595 9.71047C6.41595 9.71569 6.41595 9.72092 6.41595 9.72617C6.41595 9.73141 6.41595 9.73668 6.41595 9.74195C6.41595 9.74723 6.41595 9.75252 6.41595 9.75783C6.41595 9.76314 6.41595 9.76846 6.41595 9.7738C6.41595 9.77913 6.41595 9.78449 6.41595 9.78986C6.41595 9.79522 6.41595 9.80061 6.41595 9.80601C6.41595 9.81141 6.41595 9.81682 6.41595 9.82225C6.41595 9.82768 6.41595 9.83313 6.41595 9.83859C6.41595 9.84405 6.41595 9.84953 6.41595 9.85502C6.41595 9.86051 6.41595 9.86602 6.41595 9.87155C6.41595 9.87707 6.41595 9.88261 6.41595 9.88816C6.41595 9.89372 6.41595 9.89929 6.41595 9.90487C6.41595 9.91046 6.41595 9.91606 6.41595 9.92168C6.41595 9.9273 6.41595 9.93293 6.41595 9.93858C6.41595 9.94423 6.41595 9.94989 6.41595 9.95558C6.41595 9.96126 6.41595 9.96695 6.41595 9.97267C6.41595 9.97838 6.41595 9.98411 6.41595 9.98985C6.41595 9.99559 6.41595 10.0014 6.41595 10.0071C6.41595 10.0129 6.41595 10.0187 6.41595 10.0245C6.41595 10.0303 6.41595 10.0361 6.41595 10.042C6.41595 10.0478 6.41595 10.0537 6.41595 10.0595C6.41595 10.0654 6.41595 10.0713 6.41595 10.0772C6.41595 10.0831 6.41595 10.089 6.41595 10.095C6.41595 10.1009 6.41595 10.1069 6.41595 10.1128C6.41595 10.1188 6.41595 10.1248 6.41595 10.1308C6.41595 10.1368 6.41595 10.1428 6.41595 10.1488C6.41595 10.1549 6.41595 10.1609 6.41595 10.167C6.41595 10.1731 6.41595 10.1791 6.41595 10.1852C6.41595 10.1913 6.41595 10.1975 6.41595 10.2036C6.41595 10.2097 6.41595 10.2159 6.41595 10.222C6.41595 10.2282 6.41595 10.2344 6.41595 10.2406C6.41595 10.2468 6.41595 10.253 6.41595 10.2592C6.41595 10.2655 6.41595 10.2717 6.41595 10.278C6.41595 10.2842 6.41595 10.2905 6.41595 10.2968C6.41595 10.3031 6.41595 10.3094 6.41595 10.3158C6.41595 10.3221 6.41595 10.3284 6.41595 10.3348C6.41595 10.3412 6.41595 10.3476 6.41595 10.354C6.41595 10.3603 6.41595 10.3668 6.41595 10.3732C6.41595 10.3796 6.41595 10.3861 6.41595 10.3925C6.41595 10.399 6.41595 10.4055 6.41595 10.412C6.41595 10.4185 6.41595 10.425 6.41595 10.4315C6.41595 10.4381 6.41595 10.4446 6.41595 10.4512C6.41595 10.4578 6.41595 10.4643 6.41595 10.4709C6.41595 10.4775 6.41595 10.4842 6.41595 10.4908C6.41595 10.4974 6.41595 10.5041 6.41595 10.5108C6.41595 10.5174 6.41595 10.5241 6.41595 10.5308C6.41595 10.5375 6.41595 10.5442 6.41595 10.551C6.41595 10.5577 6.41595 10.5645 6.41595 10.5712C6.41595 10.578 6.41595 10.5848 6.41595 10.5916C6.41595 10.5984 6.41595 10.6053 6.41595 10.6121C6.41595 10.6189 6.41595 10.6258 6.41595 10.6327C6.41595 10.6396 6.41595 10.6464 6.41595 10.6534C6.41595 10.6603 6.41595 10.6672 6.41595 10.6741C6.41595 10.6811 6.41595 10.6881 6.41595 10.695C6.41595 10.702 6.41595 10.709 6.41595 10.716C6.41595 10.7231 6.41595 10.7301 6.41595 10.7371C6.41595 10.7442 6.41595 10.7513 6.41595 10.7584C6.41595 10.7654 6.41595 10.7725 6.41595 10.7797C6.41595 10.7868 6.41595 10.7939 6.41595 10.8011C6.41595 10.8083 6.41595 10.8154 6.41595 10.8226C6.41595 10.8298 6.41595 10.837 6.41595 10.8443C6.41595 10.8515 6.41595 10.8587 6.41595 10.866C6.41595 10.8733 6.41595 10.8806 6.41595 10.8879C6.41595 10.8952 6.41595 10.9025 6.41595 10.9098C6.41595 10.9171 6.41595 10.9245 6.41595 10.9319C6.41595 10.9392 6.41595 10.9466 6.41595 10.954C6.41595 10.9615 6.41595 10.9689 6.41595 10.9763C6.41595 10.9838 6.41595 10.9912 6.41595 10.9987C6.41595 11.0062 6.41595 11.0137 6.41595 11.0212C6.41595 11.0287 6.41595 11.0363 6.41595 11.0438C6.41595 11.0514 6.41595 11.059 6.41595 11.0666C6.41595 11.0741 6.41595 11.0818 6.41595 11.0894C6.41595 11.097 6.41595 11.1047 6.41595 11.1123C6.41595 11.12 6.41595 11.1277 6.41595 11.1354C6.41595 11.1431 6.41595 11.1508 6.41595 11.1585C6.41595 11.1663 6.41595 11.174 6.41595 11.1818C6.41595 11.1896 6.41595 11.1974 6.41595 11.2052C6.41595 11.213 6.41595 11.2208 6.41595 11.2287C6.41595 11.2365 6.41595 11.2444 6.41595 11.2523C6.41595 11.2602 6.41595 11.2681 6.41595 11.276C6.41595 11.2839 6.41595 11.2919 6.41595 11.2998C6.41595 11.3078 6.41595 11.3158 6.41595 11.3238C6.41595 11.3318 6.41595 11.3398 6.41595 11.3478C6.41595 11.3559 6.41595 11.3639 6.41595 11.372C6.41595 11.3801 6.41595 11.3881 6.41595 11.3963C6.41595 11.4044 6.41595 11.4125 6.41595 11.4207C6.41595 11.4288 6.41595 11.437 6.41595 11.4452C6.41595 11.4533 6.41595 11.4616 6.41595 11.4698C6.41595 11.478 6.41595 11.4863 6.41595 11.4945C6.41595 11.5028 6.41595 11.5111 6.41595 11.5194C6.41595 11.5277 6.41595 11.536 6.41595 11.5443C6.41595 11.5527 6.41595 11.561 6.41595 11.5694C6.41595 11.5778 6.41595 11.5862 6.41595 11.5946C6.41595 11.603 6.41595 11.6115 6.41595 11.6199C6.41595 11.6284 6.41595 11.6368 6.41595 11.6453C6.41595 11.6538 6.41595 11.6623 6.41595 11.6709C6.41595 11.6794 6.41595 11.688 6.41595 11.6965C6.41595 11.7051 6.41595 11.7137 6.41595 11.7223C6.41595 11.7309 6.41595 11.7396 6.41595 11.7482C6.41595 11.7569 6.41595 11.7655 6.41595 11.7742C6.41595 11.7829 6.41595 11.7916 6.41595 11.8003C6.41595 11.8091 6.41595 11.8178 6.41595 11.8266C6.41595 11.8354 6.41595 11.8441 6.41595 11.8529C6.41595 11.8618 6.41595 11.8706 6.41595 11.8794C6.41595 11.8883 6.41595 11.8971 6.41595 11.906C6.41595 11.9149 6.41595 11.9238 6.41595 11.9327C6.41595 11.9417 6.41595 11.9506 6.41595 11.9596C6.41595 11.9685 6.41595 11.9775 6.41595 11.9865C6.41595 11.9955 6.41595 12.0046 6.41595 12.0136C6.41595 12.0227 6.41595 12.0317 6.41595 12.0408C6.41595 12.0499 6.41595 12.059 6.41595 12.0681C6.41595 12.0772 6.41595 12.0864 6.41595 12.0956C6.41595 12.1047 6.41595 12.1139 6.41595 12.1231C6.41595 12.1323 6.41595 12.1415 6.41595 12.1508C6.41595 12.16 6.41595 12.1693 6.41595 12.1786C6.41595 12.1879 6.41595 12.1972 6.41595 12.2065C6.41595 12.2158 6.41595 12.2252 6.41595 12.2346C6.41595 12.2439 6.41595 12.2533 6.41595 12.2627C6.41595 12.2721 6.41595 12.2816 6.41595 12.291C6.41595 12.3004 6.41595 12.3099 6.41595 12.3194C6.41595 12.3289 6.41595 12.3384 6.41595 12.3479C6.41595 12.3575 6.41595 12.367 6.41595 12.3766C6.41595 12.3862 6.41595 12.3958 6.41595 12.4054C6.41595 12.415 6.41595 12.4246 6.41595 12.4343C6.41595 12.4439 6.41595 12.4536 6.41595 12.4633C6.41595 12.473 6.41595 12.4827 6.41595 12.4924C6.41595 12.5022 6.41595 12.5119 6.41595 12.5217C6.41595 12.5315 6.41595 12.5413 6.41595 12.5511C6.41595 12.5609 6.41595 12.5708 6.41595 12.5806C6.41595 12.5905 6.41595 12.6004 6.41595 12.6103C6.41595 12.6202 6.41595 12.6301 6.41595 12.6401C6.41595 12.65 6.41595 12.66 6.41595 12.6699C6.41595 12.6799 6.41595 12.6899 6.41595 12.7C6.41595 12.71 6.41595 12.7201 6.41595 12.7301C6.41595 12.7402 6.41595 12.7503 6.41595 12.7604C6.41595 12.7705 6.41595 12.7806 6.41595 12.7908C6.41595 12.801 6.41595 12.8111 6.41595 12.8213C6.41595 12.8315 6.41595 12.8417 6.41595 12.852C6.41595 12.8622 6.41595 12.8725 6.41595 12.8828C6.41595 12.8931 6.41595 12.9034 6.41595 12.9137C6.41595 12.924 6.41595 12.9344 6.41595 12.9447C6.41595 12.9551 6.41595 12.9655 6.41595 12.9759C6.41595 12.9863 6.41595 12.9967 6.41595 13.0072C6.41595 13.0176 6.41595 13.0281 6.41595 13.0386C6.41595 13.0491 6.41595 13.0596 6.41595 13.0702C6.41595 13.0807 6.41595 13.0913 6.41595 13.1019C6.41595 13.1124 6.41595 13.123 6.41595 13.1337C6.41595 13.1443 6.41595 13.1549 6.41595 13.1656C6.41595 13.1763 6.41595 13.187 6.41595 13.1977C6.41595 13.2084 6.41595 13.2191 6.41595 13.2299C6.41595 13.2406 6.41595 13.2514 6.41595 13.2622C6.41595 13.273 6.41595 13.2838 6.41595 13.2947C6.41595 13.3055 6.41595 13.3164 6.41595 13.3273C6.41595 13.3382 6.41595 13.3491 6.41595 13.36C6.41595 13.3709 6.41595 13.3819 6.41595 13.3929C6.41595 13.4039 6.41595 13.4149 6.41595 13.4259C6.41595 13.4369 6.41595 13.4479 6.41595 13.459C6.41595 13.4701 6.41595 13.4811 6.41595 13.4923C6.41595 13.5034 6.41595 13.5145 6.41595 13.5256C6.41595 13.5368 6.41595 13.548 6.41595 13.5592C6.41595 13.5704 6.41595 13.5816 6.41595 13.5928C6.41595 13.6041 6.41595 13.6153 6.41595 13.6266C6.41595 13.6379 6.41595 13.6492 6.41595 13.6605C6.41595 13.6719 6.41595 13.6832 6.41595 13.6946C6.41595 13.706 6.41595 13.7174 6.41595 13.7288C6.41595 13.7402 6.41595 13.7516 6.41595 13.7631C6.41595 13.7746 6.41595 13.7861 6.41595 13.7976C6.41595 13.8091 6.41595 13.8206 6.41595 13.8322H9.41595C9.41595 13.8206 9.41595 13.8091 9.41595 13.7976C9.41595 13.7861 9.41595 13.7746 9.41595 13.7631C9.41595 13.7516 9.41595 13.7402 9.41595 13.7288C9.41595 13.7174 9.41595 13.706 9.41595 13.6946C9.41595 13.6832 9.41595 13.6719 9.41595 13.6605C9.41595 13.6492 9.41595 13.6379 9.41595 13.6266C9.41595 13.6153 9.41595 13.6041 9.41595 13.5928C9.41595 13.5816 9.41595 13.5704 9.41595 13.5592C9.41595 13.548 9.41595 13.5368 9.41595 13.5256C9.41595 13.5145 9.41595 13.5034 9.41595 13.4923C9.41595 13.4811 9.41595 13.4701 9.41595 13.459C9.41595 13.4479 9.41595 13.4369 9.41595 13.4259C9.41595 13.4149 9.41595 13.4039 9.41595 13.3929C9.41595 13.3819 9.41595 13.3709 9.41595 13.36C9.41595 13.3491 9.41595 13.3382 9.41595 13.3273C9.41595 13.3164 9.41595 13.3055 9.41595 13.2947C9.41595 13.2838 9.41595 13.273 9.41595 13.2622C9.41595 13.2514 9.41595 13.2406 9.41595 13.2299C9.41595 13.2191 9.41595 13.2084 9.41595 13.1977C9.41595 13.187 9.41595 13.1763 9.41595 13.1656C9.41595 13.1549 9.41595 13.1443 9.41595 13.1337C9.41595 13.123 9.41595 13.1124 9.41595 13.1019C9.41595 13.0913 9.41595 13.0807 9.41595 13.0702C9.41595 13.0596 9.41595 13.0491 9.41595 13.0386C9.41595 13.0281 9.41595 13.0176 9.41595 13.0072C9.41595 12.9967 9.41595 12.9863 9.41595 12.9759C9.41595 12.9655 9.41595 12.9551 9.41595 12.9447C9.41595 12.9344 9.41595 12.924 9.41595 12.9137C9.41595 12.9034 9.41595 12.8931 9.41595 12.8828C9.41595 12.8725 9.41595 12.8622 9.41595 12.852C9.41595 12.8417 9.41595 12.8315 9.41595 12.8213C9.41595 12.8111 9.41595 12.801 9.41595 12.7908C9.41595 12.7806 9.41595 12.7705 9.41595 12.7604C9.41595 12.7503 9.41595 12.7402 9.41595 12.7301C9.41595 12.7201 9.41595 12.71 9.41595 12.7C9.41595 12.6899 9.41595 12.6799 9.41595 12.6699C9.41595 12.66 9.41595 12.65 9.41595 12.6401C9.41595 12.6301 9.41595 12.6202 9.41595 12.6103C9.41595 12.6004 9.41595 12.5905 9.41595 12.5806C9.41595 12.5708 9.41595 12.5609 9.41595 12.5511C9.41595 12.5413 9.41595 12.5315 9.41595 12.5217C9.41595 12.5119 9.41595 12.5022 9.41595 12.4924C9.41595 12.4827 9.41595 12.473 9.41595 12.4633C9.41595 12.4536 9.41595 12.4439 9.41595 12.4343C9.41595 12.4246 9.41595 12.415 9.41595 12.4054C9.41595 12.3958 9.41595 12.3862 9.41595 12.3766C9.41595 12.367 9.41595 12.3575 9.41595 12.3479C9.41595 12.3384 9.41595 12.3289 9.41595 12.3194C9.41595 12.3099 9.41595 12.3004 9.41595 12.291C9.41595 12.2816 9.41595 12.2721 9.41595 12.2627C9.41595 12.2533 9.41595 12.2439 9.41595 12.2346C9.41595 12.2252 9.41595 12.2158 9.41595 12.2065C9.41595 12.1972 9.41595 12.1879 9.41595 12.1786C9.41595 12.1693 9.41595 12.16 9.41595 12.1508C9.41595 12.1415 9.41595 12.1323 9.41595 12.1231C9.41595 12.1139 9.41595 12.1047 9.41595 12.0956C9.41595 12.0864 9.41595 12.0772 9.41595 12.0681C9.41595 12.059 9.41595 12.0499 9.41595 12.0408C9.41595 12.0317 9.41595 12.0227 9.41595 12.0136C9.41595 12.0046 9.41595 11.9955 9.41595 11.9865C9.41595 11.9775 9.41595 11.9685 9.41595 11.9596C9.41595 11.9506 9.41595 11.9417 9.41595 11.9327C9.41595 11.9238 9.41595 11.9149 9.41595 11.906C9.41595 11.8971 9.41595 11.8883 9.41595 11.8794C9.41595 11.8706 9.41595 11.8618 9.41595 11.8529C9.41595 11.8441 9.41595 11.8354 9.41595 11.8266C9.41595 11.8178 9.41595 11.8091 9.41595 11.8003C9.41595 11.7916 9.41595 11.7829 9.41595 11.7742C9.41595 11.7655 9.41595 11.7569 9.41595 11.7482C9.41595 11.7396 9.41595 11.7309 9.41595 11.7223C9.41595 11.7137 9.41595 11.7051 9.41595 11.6965C9.41595 11.688 9.41595 11.6794 9.41595 11.6709C9.41595 11.6623 9.41595 11.6538 9.41595 11.6453C9.41595 11.6368 9.41595 11.6284 9.41595 11.6199C9.41595 11.6115 9.41595 11.603 9.41595 11.5946C9.41595 11.5862 9.41595 11.5778 9.41595 11.5694C9.41595 11.561 9.41595 11.5527 9.41595 11.5443C9.41595 11.536 9.41595 11.5277 9.41595 11.5194C9.41595 11.5111 9.41595 11.5028 9.41595 11.4945C9.41595 11.4863 9.41595 11.478 9.41595 11.4698C9.41595 11.4616 9.41595 11.4533 9.41595 11.4452C9.41595 11.437 9.41595 11.4288 9.41595 11.4207C9.41595 11.4125 9.41595 11.4044 9.41595 11.3963C9.41595 11.3881 9.41595 11.3801 9.41595 11.372C9.41595 11.3639 9.41595 11.3559 9.41595 11.3478C9.41595 11.3398 9.41595 11.3318 9.41595 11.3238C9.41595 11.3158 9.41595 11.3078 9.41595 11.2998C9.41595 11.2919 9.41595 11.2839 9.41595 11.276C9.41595 11.2681 9.41595 11.2602 9.41595 11.2523C9.41595 11.2444 9.41595 11.2365 9.41595 11.2287C9.41595 11.2208 9.41595 11.213 9.41595 11.2052C9.41595 11.1974 9.41595 11.1896 9.41595 11.1818C9.41595 11.174 9.41595 11.1663 9.41595 11.1585C9.41595 11.1508 9.41595 11.1431 9.41595 11.1354C9.41595 11.1277 9.41595 11.12 9.41595 11.1123C9.41595 11.1047 9.41595 11.097 9.41595 11.0894C9.41595 11.0818 9.41595 11.0741 9.41595 11.0666C9.41595 11.059 9.41595 11.0514 9.41595 11.0438C9.41595 11.0363 9.41595 11.0287 9.41595 11.0212C9.41595 11.0137 9.41595 11.0062 9.41595 10.9987C9.41595 10.9912 9.41595 10.9838 9.41595 10.9763C9.41595 10.9689 9.41595 10.9615 9.41595 10.954C9.41595 10.9466 9.41595 10.9392 9.41595 10.9319C9.41595 10.9245 9.41595 10.9171 9.41595 10.9098C9.41595 10.9025 9.41595 10.8952 9.41595 10.8879C9.41595 10.8806 9.41595 10.8733 9.41595 10.866C9.41595 10.8587 9.41595 10.8515 9.41595 10.8443C9.41595 10.837 9.41595 10.8298 9.41595 10.8226C9.41595 10.8154 9.41595 10.8083 9.41595 10.8011C9.41595 10.7939 9.41595 10.7868 9.41595 10.7797C9.41595 10.7725 9.41595 10.7654 9.41595 10.7584C9.41595 10.7513 9.41595 10.7442 9.41595 10.7371C9.41595 10.7301 9.41595 10.7231 9.41595 10.716C9.41595 10.709 9.41595 10.702 9.41595 10.695C9.41595 10.6881 9.41595 10.6811 9.41595 10.6741C9.41595 10.6672 9.41595 10.6603 9.41595 10.6534C9.41595 10.6464 9.41595 10.6396 9.41595 10.6327C9.41595 10.6258 9.41595 10.6189 9.41595 10.6121C9.41595 10.6053 9.41595 10.5984 9.41595 10.5916C9.41595 10.5848 9.41595 10.578 9.41595 10.5712C9.41595 10.5645 9.41595 10.5577 9.41595 10.551C9.41595 10.5442 9.41595 10.5375 9.41595 10.5308C9.41595 10.5241 9.41595 10.5174 9.41595 10.5108C9.41595 10.5041 9.41595 10.4974 9.41595 10.4908C9.41595 10.4842 9.41595 10.4775 9.41595 10.4709C9.41595 10.4643 9.41595 10.4578 9.41595 10.4512C9.41595 10.4446 9.41595 10.4381 9.41595 10.4315C9.41595 10.425 9.41595 10.4185 9.41595 10.412C9.41595 10.4055 9.41595 10.399 9.41595 10.3925C9.41595 10.3861 9.41595 10.3796 9.41595 10.3732C9.41595 10.3668 9.41595 10.3603 9.41595 10.354C9.41595 10.3476 9.41595 10.3412 9.41595 10.3348C9.41595 10.3284 9.41595 10.3221 9.41595 10.3158C9.41595 10.3094 9.41595 10.3031 9.41595 10.2968C9.41595 10.2905 9.41595 10.2842 9.41595 10.278C9.41595 10.2717 9.41595 10.2655 9.41595 10.2592C9.41595 10.253 9.41595 10.2468 9.41595 10.2406C9.41595 10.2344 9.41595 10.2282 9.41595 10.222C9.41595 10.2159 9.41595 10.2097 9.41595 10.2036C9.41595 10.1975 9.41595 10.1913 9.41595 10.1852C9.41595 10.1791 9.41595 10.1731 9.41595 10.167C9.41595 10.1609 9.41595 10.1549 9.41595 10.1488C9.41595 10.1428 9.41595 10.1368 9.41595 10.1308C9.41595 10.1248 9.41595 10.1188 9.41595 10.1128C9.41595 10.1069 9.41595 10.1009 9.41595 10.095C9.41595 10.089 9.41595 10.0831 9.41595 10.0772C9.41595 10.0713 9.41595 10.0654 9.41595 10.0595C9.41595 10.0537 9.41595 10.0478 9.41595 10.042C9.41595 10.0361 9.41595 10.0303 9.41595 10.0245C9.41595 10.0187 9.41595 10.0129 9.41595 10.0071C9.41595 10.0014 9.41595 9.99559 9.41595 9.98985C9.41595 9.98411 9.41595 9.97838 9.41595 9.97267C9.41595 9.96695 9.41595 9.96126 9.41595 9.95558C9.41595 9.94989 9.41595 9.94423 9.41595 9.93858C9.41595 9.93293 9.41595 9.9273 9.41595 9.92168C9.41595 9.91606 9.41595 9.91046 9.41595 9.90487C9.41595 9.89929 9.41595 9.89372 9.41595 9.88816C9.41595 9.88261 9.41595 9.87707 9.41595 9.87155C9.41595 9.86602 9.41595 9.86051 9.41595 9.85502C9.41595 9.84953 9.41595 9.84405 9.41595 9.83859C9.41595 9.83313 9.41595 9.82768 9.41595 9.82225C9.41595 9.81682 9.41595 9.81141 9.41595 9.80601C9.41595 9.80061 9.41595 9.79522 9.41595 9.78986C9.41595 9.78449 9.41595 9.77913 9.41595 9.7738C9.41595 9.76846 9.41595 9.76314 9.41595 9.75783C9.41595 9.75252 9.41595 9.74723 9.41595 9.74195C9.41595 9.73668 9.41595 9.73141 9.41595 9.72617C9.41595 9.72092 9.41595 9.71569 9.41595 9.71047C9.41595 9.70526 9.41595 9.70006 9.41595 9.69487C9.41595 9.68969 9.41595 9.68452 9.41595 9.67936C9.41595 9.6742 9.41595 9.66906 9.41595 9.66394C9.41595 9.65881 9.41595 9.6537 9.41595 9.64861C9.41595 9.64351 9.41595 9.63843 9.41595 9.63337C9.41595 9.6283 9.41595 9.62325 9.41595 9.61822C9.41595 9.61318 9.41595 9.60816 9.41595 9.60315C9.41595 9.59815 9.41595 9.59316 9.41595 9.58818C9.41595 9.5832 9.41595 9.57824 9.41595 9.5733C9.41595 9.56835 9.41595 9.56342 9.41595 9.5585C9.41595 9.55358 9.41595 9.54868 9.41595 9.54379C9.41595 9.53891 9.41595 9.53403 9.41595 9.52917C9.41595 9.52432 9.41595 9.51947 9.41595 9.51464C9.41595 9.50981 9.41595 9.505 9.41595 9.5002C9.41595 9.4954 9.41595 9.49061 9.41595 9.48584C9.41595 9.48107 9.41595 9.47631 9.41595 9.47157C9.41595 9.46683 9.41595 9.4621 9.41595 9.45739C9.41595 9.45268 9.41595 9.44798 9.41595 9.44329C9.41595 9.43861 9.41595 9.43394 9.41595 9.42928C9.41595 9.42463 9.41595 9.41999 9.41595 9.41536C9.41595 9.41073 9.41595 9.40612 9.41595 9.40152C9.41595 9.39692 9.41595 9.39234 9.41595 9.38777C9.41595 9.3832 9.41595 9.37864 9.41595 9.3741C9.41595 9.36956 9.41595 9.36503 9.41595 9.36052C9.41595 9.356 9.41595 9.3515 9.41595 9.34702C9.41595 9.34253 9.41595 9.33806 9.41595 9.33361C9.41595 9.32915 9.41595 9.3247 9.41595 9.32028C9.41595 9.31585 9.41595 9.31143 9.41595 9.30703C9.41595 9.30263 9.41595 9.29824 9.41595 9.29387C9.41595 9.28949 9.41595 9.28513 9.41595 9.28079C9.41595 9.27644 9.41595 9.27211 9.41595 9.26779C9.41595 9.26347 9.41595 9.25917 9.41595 9.25488C9.41595 9.25059 9.41595 9.24631 9.41595 9.24205C9.41595 9.23778 9.41595 9.23353 9.41595 9.2293C9.41595 9.22506 9.41595 9.22084 9.41595 9.21663C9.41595 9.21242 9.41595 9.20823 9.41595 9.20405C9.41595 9.19987 9.41595 9.1957 9.41595 9.19154C9.41595 9.18739 9.41595 9.18325 9.41595 9.17912C9.41595 9.17499 9.41595 9.17088 9.41595 9.16678C9.41595 9.16268 9.41595 9.15859 9.41595 9.15452C9.41595 9.15045 9.41595 9.14639 9.41595 9.14234C9.41595 9.13829 9.41595 9.13426 9.41595 9.13024C9.41595 9.12622 9.41595 9.12221 9.41595 9.11822C9.41595 9.11423 9.41595 9.11025 9.41595 9.10628C9.41595 9.10231 9.41595 9.09836 9.41595 9.09442C9.41595 9.09048 9.41595 9.08655 9.41595 9.08264C9.41595 9.07872 9.41595 9.07482 9.41595 9.07093C9.41595 9.06704 9.41595 9.06317 9.41595 9.05931C9.41595 9.05544 9.41595 9.0516 9.41595 9.04776C9.41595 9.04392 9.41595 9.0401 9.41595 9.03629C9.41595 9.03248 9.41595 9.02868 9.41595 9.0249C9.41595 9.02112 9.41595 9.01735 9.41595 9.01359C9.41595 9.00983 9.41595 9.00608 9.41595 9.00235C9.41595 8.99862 9.41595 8.9949 9.41595 8.99119C9.41595 8.98749 9.41595 8.98379 9.41595 8.98011C9.41595 8.97643 9.41595 8.97276 9.41595 8.9691C9.41595 8.96545 9.41595 8.9618 9.41595 8.95817C9.41595 8.95454 9.41595 8.95093 9.41595 8.94732C9.41595 8.94371 9.41595 8.94012 9.41595 8.93654C9.41595 8.93296 9.41595 8.92939 9.41595 8.92584C9.41595 8.92228 9.41595 8.91874 9.41595 8.91521C9.41595 8.91168 9.41595 8.90816 9.41595 8.90466C9.41595 8.90115 9.41595 8.89766 9.41595 8.89418C9.41595 8.8907 9.41595 8.88723 9.41595 8.88378C9.41595 8.88032 9.41595 8.87688 9.41595 8.87345C9.41595 8.87001 9.41595 8.8666 9.41595 8.86319C9.41595 8.85978 9.41595 8.85639 9.41595 8.85301C9.41595 8.84962 9.41595 8.84625 9.41595 8.8429C9.41595 8.83954 9.41595 8.83619 9.41595 8.83286C9.41595 8.82953 9.41595 8.82621 9.41595 8.8229C9.41595 8.81959 9.41595 8.81629 9.41595 8.81301C9.41595 8.80972 9.41595 8.80645 9.41595 8.80319C9.41595 8.79993 9.41595 8.79668 9.41595 8.79344C9.41595 8.7902 9.41595 8.78698 9.41595 8.78376C9.41595 8.78055 9.41595 8.77735 9.41595 8.77416C9.41595 8.77097 9.41595 8.76779 9.41595 8.76463C9.41595 8.76146 9.41595 8.75831 9.41595 8.75516C9.41595 8.75202 9.41595 8.74889 9.41595 8.74577C9.41595 8.74265 9.41595 8.73955 9.41595 8.73645C9.41595 8.73336 9.41595 8.73027 9.41595 8.7272C9.41595 8.72413 9.41595 8.72107 9.41595 8.71802C9.41595 8.71497 9.41595 8.71193 9.41595 8.70891C9.41595 8.70588 9.41595 8.70287 9.41595 8.69987C9.41595 8.69686 9.41595 8.69387 9.41595 8.69089C9.41595 8.68791 9.41595 8.68494 9.41595 8.68199C9.41595 8.67903 9.41595 8.67609 9.41595 8.67315C9.41595 8.67022 9.41595 8.6673 9.41595 8.66438C9.41595 8.66147 9.41595 8.65857 9.41595 8.65568C9.41595 8.6528 9.41595 8.64992 9.41595 8.64705C9.41595 8.64419 9.41595 8.64133 9.41595 8.63849C9.41595 8.63564 9.41595 8.63281 9.41595 8.62999C9.41595 8.62717 9.41595 8.62436 9.41595 8.62156C9.41595 8.61876 9.41595 8.61597 9.41595 8.6132C9.41595 8.61042 9.41595 8.60765 9.41595 8.6049C9.41595 8.60214 9.41595 8.5994 9.41595 8.59667C9.41595 8.59393 9.41595 8.59121 9.41595 8.5885C9.41595 8.58579 9.41595 8.58309 9.41595 8.5804C9.41595 8.57771 9.41595 8.57503 9.41595 8.57237C9.41595 8.5697 9.41595 8.56704 9.41595 8.5644C9.41595 8.56175 9.41595 8.55912 9.41595 8.55649C9.41595 8.55387 9.41595 8.55125 9.41595 8.54865C9.41595 8.54605 9.41595 8.54346 9.41595 8.54087C9.41595 8.53829 9.41595 8.53572 9.41595 8.53316C9.41595 8.5306 9.41595 8.52805 9.41595 8.52551C9.41595 8.52298 9.41595 8.52045 9.41595 8.51793C9.41595 8.51541 9.41595 8.5129 9.41595 8.51041C9.41595 8.50791 9.41595 8.50542 9.41595 8.50295C9.41595 8.50047 9.41595 8.49801 9.41595 8.49555C9.41595 8.4931 9.41595 8.49065 9.41595 8.48822C9.41595 8.48578 9.41595 8.48336 9.41595 8.48095C9.41595 8.47853 9.41595 8.47613 9.41595 8.47374C9.41595 8.47134 9.41595 8.46896 9.41595 8.46659C9.41595 8.46422 9.41595 8.46186 9.41595 8.4595C9.41595 8.45715 9.41595 8.45481 9.41595 8.45248C9.41595 8.45015 9.41595 8.44782 9.41595 8.44551C9.41595 8.4432 9.41595 8.4409 9.41595 8.43861C9.41595 8.43632 9.41595 8.43404 9.41595 8.43176C9.41595 8.42949 9.41595 8.42723 9.41595 8.42498C9.41595 8.42273 9.41595 8.42049 9.41595 8.41826C9.41595 8.41603 9.41595 8.4138 9.41595 8.41159C9.41595 8.40938 9.41595 8.40718 9.41595 8.40499C9.41595 8.4028 9.41595 8.40061 9.41595 8.39844C9.41595 8.39627 9.41595 8.39411 9.41595 8.39195C9.41595 8.3898 9.41595 8.38766 9.41595 8.38552C9.41595 8.38339 9.41595 8.38127 9.41595 8.37915C9.41595 8.37704 9.41595 8.37493 9.41595 8.37284C9.41595 8.37075 9.41595 8.36866 9.41595 8.36658C9.41595 8.36451 9.41595 8.36244 9.41595 8.36039C9.41595 8.35833 9.41595 8.35628 9.41595 8.35425C9.41595 8.35221 9.41595 8.35018 9.41595 8.34816C9.41595 8.34614 9.41595 8.34413 9.41595 8.34213C9.41595 8.34013 9.41595 8.33814 9.41595 8.33616C9.41595 8.33418 9.41595 8.33221 9.41595 8.33025C9.41595 8.32829 9.41595 8.32633 9.41595 8.32439C9.41595 8.32244 9.41595 8.32051 9.41595 8.31858C9.41595 8.31666 9.41595 8.31474 9.41595 8.31284C9.41595 8.31093 9.41595 8.30903 9.41595 8.30714C9.41595 8.30525 9.41595 8.30337 9.41595 8.3015C9.41595 8.29963 9.41595 8.29777 9.41595 8.29592C9.41595 8.29407 9.41595 8.29222 9.41595 8.29039C9.41595 8.28856 9.41595 8.28673 9.41595 8.28491C9.41595 8.2831 9.41595 8.28129 9.41595 8.27949C9.41595 8.27769 9.41595 8.2759 9.41595 8.27412C9.41595 8.27234 9.41595 8.27057 9.41595 8.26881C9.41595 8.26704 9.41595 8.26529 9.41595 8.26354C9.41595 8.2618 9.41595 8.26006 9.41595 8.25833C9.41595 8.25661 9.41595 8.25489 9.41595 8.25318C9.41595 8.25147 9.41595 8.24976 9.41595 8.24807C9.41595 8.24638 9.41595 8.24469 9.41595 8.24302C9.41595 8.24134 9.41595 8.23967 9.41595 8.23801C9.41595 8.23635 9.41595 8.2347 9.41595 8.23306C9.41595 8.23142 9.41595 8.22979 9.41595 8.22816C9.41595 8.22654 9.41595 8.22492 9.41595 8.22331C9.41595 8.22171 9.41595 8.22011 9.41595 8.21851C9.41595 8.21692 9.41595 8.21534 9.41595 8.21377C9.41595 8.21219 9.41595 8.21063 9.41595 8.20907C9.41595 8.20751 9.41595 8.20596 9.41595 8.20442C9.41595 8.20288 9.41595 8.20134 9.41595 8.19982C9.41595 8.19829 9.41595 8.19678 9.41595 8.19527C9.41595 8.19376 9.41595 8.19226 9.41595 8.19077C9.41595 8.18928 9.41595 8.18779 9.41595 8.18632C9.41595 8.18484 9.41595 8.18337 9.41595 8.18191C9.41595 8.18045 9.41595 8.179 9.41595 8.17756C9.41595 8.17611 9.41595 8.17468 9.41595 8.17325C9.41595 8.17182 9.41595 8.1704 9.41595 8.16899C9.41595 8.16757 9.41595 8.16617 9.41595 8.16477C9.41595 8.16338 9.41595 8.16199 9.41595 8.16061C9.41595 8.15923 9.41595 8.15785 9.41595 8.15649C9.41595 8.15512 9.41595 8.15376 9.41595 8.15241C9.41595 8.15107 9.41595 8.14972 9.41595 8.14839C9.41595 8.14705 9.41595 8.14573 9.41595 8.14441C9.41595 8.14309 9.41595 8.14178 9.41595 8.14047C9.41595 8.13917 9.41595 8.13787 9.41595 8.13658C9.41595 8.1353 9.41595 8.13401 9.41595 8.13274C9.41595 8.13147 9.41595 8.1302 9.41595 8.12894C9.41595 8.12768 9.41595 8.12643 9.41595 8.12519C9.41595 8.12394 9.41595 8.12271 9.41595 8.12148C9.41595 8.12025 9.41595 8.11903 9.41595 8.11781C9.41595 8.1166 9.41595 8.11539 9.41595 8.11419C9.41595 8.11299 9.41595 8.1118 9.41595 8.11061C9.41595 8.10942 9.41595 8.10825 9.41595 8.10708C9.41595 8.1059 9.41595 8.10474 9.41595 8.10358C9.41595 8.10243 9.41595 8.10128 9.41595 8.10013C9.41595 8.09899 9.41595 8.09786 9.41595 8.09673C9.41595 8.0956 9.41595 8.09448 9.41595 8.09336C9.41595 8.09225 9.41595 8.09114 9.41595 8.09004C9.41595 8.08894 9.41595 8.08785 9.41595 8.08676C9.41595 8.08568 9.41595 8.0846 9.41595 8.08352C9.41595 8.08245 9.41595 8.08139 9.41595 8.08033C9.41595 8.07927 9.41595 8.07822 9.41595 8.07717C9.41595 8.07612 9.41595 8.07509 9.41595 8.07405C9.41595 8.07302 9.41595 8.072 9.41595 8.07098C9.41595 8.06996 9.41595 8.06895 9.41595 8.06794C9.41595 8.06694 9.41595 8.06594 9.41595 8.06495C9.41595 8.06396 9.41595 8.06297 9.41595 8.06199C9.41595 8.06101 9.41595 8.06004 9.41595 8.05908C9.41595 8.05811 9.41595 8.05715 9.41595 8.0562C9.41595 8.05525 9.41595 8.0543 9.41595 8.05336C9.41595 8.05242 9.41595 8.05149 9.41595 8.05056C9.41595 8.04964 9.41595 8.04872 9.41595 8.0478C9.41595 8.04689 9.41595 8.04598 9.41595 8.04508C9.41595 8.04418 9.41595 8.04328 9.41595 8.04239C9.41595 8.0415 9.41595 8.04062 9.41595 8.03975C9.41595 8.03887 9.41595 8.038 9.41595 8.03714C9.41595 8.03627 9.41595 8.03541 9.41595 8.03456C9.41595 8.03371 9.41595 8.03287 9.41595 8.03203C9.41595 8.03119 9.41595 8.03035 9.41595 8.02953C9.41595 8.0287 9.41595 8.02788 9.41595 8.02706C9.41595 8.02625 9.41595 8.02544 9.41595 8.02463C9.41595 8.02383 9.41595 8.02303 9.41595 8.02224C9.41595 8.02145 9.41595 8.02067 9.41595 8.01989C9.41595 8.01911 9.41595 8.01833 9.41595 8.01756C9.41595 8.0168 9.41595 8.01603 9.41595 8.01528C9.41595 8.01452 9.41595 8.01377 9.41595 8.01303C9.41595 8.01228 9.41595 8.01154 9.41595 8.01081C9.41595 8.01007 9.41595 8.00935 9.41595 8.00862C9.41595 8.0079 9.41595 8.00719 9.41595 8.00647C9.41595 8.00576 9.41595 8.00506 9.41595 8.00436C9.41595 8.00366 9.41595 8.00296 9.41595 8.00228C9.41595 8.00159 9.41595 8.0009 9.41595 8.00023C9.41595 7.99955 9.41595 7.99888 9.41595 7.99821C9.41595 7.99754 9.41595 7.99688 9.41595 7.99623C9.41595 7.99557 9.41595 7.99492 9.41595 7.99427C9.41595 7.99363 9.41595 7.99299 9.41595 7.99235C9.41595 7.99172 9.41595 7.99109 9.41595 7.99046C9.41595 7.98984 9.41595 7.98922 9.41595 7.98861C9.41595 7.98799 9.41595 7.98739 9.41595 7.98678C9.41595 7.98618 9.41595 7.98558 9.41595 7.98499C9.41595 7.98439 9.41595 7.98381 9.41595 7.98322C9.41595 7.98264 9.41595 7.98206 9.41595 7.98149C9.41595 7.98092 9.41595 7.98035 9.41595 7.97979C9.41595 7.97922 9.41595 7.97867 9.41595 7.97811C9.41595 7.97756 9.41595 7.97701 9.41595 7.97647C9.41595 7.97593 9.41595 7.97539 9.41595 7.97485C9.41595 7.97432 9.41595 7.97379 9.41595 7.97327C9.41595 7.97275 9.41595 7.97223 9.41595 7.97171C9.41595 7.9712 9.41595 7.97069 9.41595 7.97018C9.41595 7.96968 9.41595 7.96918 9.41595 7.96868C9.41595 7.96819 9.41595 7.9677 9.41595 7.96721C9.41595 7.96673 9.41595 7.96625 9.41595 7.96577C9.41595 7.96529 9.41595 7.96482 9.41595 7.96435C9.41595 7.96388 9.41595 7.96342 9.41595 7.96296C9.41595 7.9625 9.41595 7.96205 9.41595 7.9616C9.41595 7.96115 9.41595 7.96071 9.41595 7.96026C9.41595 7.95982 9.41595 7.95939 9.41595 7.95896C9.41595 7.95852 9.41595 7.9581 9.41595 7.95767C9.41595 7.95725 9.41595 7.95683 9.41595 7.95642C9.41595 7.956 9.41595 7.95559 9.41595 7.95518C9.41595 7.95478 9.41595 7.95438 9.41595 7.95398C9.41595 7.95358 9.41595 7.95319 9.41595 7.9528C9.41595 7.95241 9.41595 7.95202 9.41595 7.95164C9.41595 7.95126 9.41595 7.95088 9.41595 7.95051C9.41595 7.95014 9.41595 7.94977 9.41595 7.9494C9.41595 7.94904 9.41595 7.94868 9.41595 7.94832C9.41595 7.94796 9.41595 7.94761 9.41595 7.94726C9.41595 7.94691 9.41595 7.94657 9.41595 7.94622C9.41595 7.94588 9.41595 7.94555 9.41595 7.94521C9.41595 7.94488 9.41595 7.94455 9.41595 7.94422C9.41595 7.9439 9.41595 7.94357 9.41595 7.94326C9.41595 7.94294 9.41595 7.94262 9.41595 7.94231C9.41595 7.942 9.41595 7.94169 9.41595 7.94139C9.41595 7.94109 9.41595 7.94079 9.41595 7.94049C9.41595 7.94019 9.41595 7.9399 9.41595 7.93961C9.41595 7.93932 9.41595 7.93904 9.41595 7.93875C9.41595 7.93847 9.41595 7.93819 9.41595 7.93792C9.41595 7.93764 9.41595 7.93737 9.41595 7.9371C9.41595 7.93684 9.41595 7.93657 9.41595 7.93631C9.41595 7.93605 9.41595 7.93579 9.41595 7.93554C9.41595 7.93528 9.41595 7.93503 9.41595 7.93478C9.41595 7.93453 9.41595 7.93429 9.41595 7.93405C9.41595 7.93381 9.41595 7.93357 9.41595 7.93333C9.41595 7.9331 9.41595 7.93287 9.41595 7.93264C9.41595 7.93241 9.41595 7.93219 9.41595 7.93196C9.41595 7.93174 9.41595 7.93152 9.41595 7.93131C9.41595 7.93109 9.41595 7.93088 9.41595 7.93067C9.41595 7.93046 9.41595 7.93025 9.41595 7.93005C9.41595 7.92984 9.41595 7.92964 9.41595 7.92944C9.41595 7.92925 9.41595 7.92905 9.41595 7.92886C9.41595 7.92867 9.41595 7.92848 9.41595 7.92829C9.41595 7.92811 9.41595 7.92792 9.41595 7.92774C9.41595 7.92756 9.41595 7.92738 9.41595 7.92721C9.41595 7.92703 9.41595 7.92686 9.41595 7.92669C9.41595 7.92652 9.41595 7.92636 9.41595 7.92619C9.41595 7.92603 9.41595 7.92587 9.41595 7.92571C9.41595 7.92555 9.41595 7.92539 9.41595 7.92524C9.41595 7.92509 9.41595 7.92494 9.41595 7.92479C9.41595 7.92464 9.41595 7.92449 9.41595 7.92435C9.41595 7.92421 9.41595 7.92407 9.41595 7.92393C9.41595 7.92379 9.41595 7.92365 9.41595 7.92352C9.41595 7.92339 9.41595 7.92326 9.41595 7.92313C9.41595 7.923 9.41595 7.92287 9.41595 7.92275C9.41595 7.92263 9.41595 7.9225 9.41595 7.92238C9.41595 7.92227 9.41595 7.92215 9.41595 7.92203C9.41595 7.92192 9.41595 7.92181 9.41595 7.9217C9.41595 7.92159 9.41595 7.92148 9.41595 7.92137C9.41595 7.92127 9.41595 7.92116 9.41595 7.92106C9.41595 7.92096 9.41595 7.92086 9.41595 7.92076C9.41595 7.92067 9.41595 7.92057 9.41595 7.92048C9.41595 7.92038 9.41595 7.92029 9.41595 7.9202C9.41595 7.92011 9.41595 7.92003 9.41595 7.91994C9.41595 7.91986 9.41595 7.91977 9.41595 7.91969C9.41595 7.91961 9.41595 7.91953 9.41595 7.91945C9.41595 7.91938 9.41595 7.9193 9.41595 7.91923C9.41595 7.91915 9.41595 7.91908 9.41595 7.91901C9.41595 7.91894 9.41595 7.91887 9.41595 7.9188C9.41595 7.91873 9.41595 7.91867 9.41595 7.91861C9.41595 7.91854 9.41595 7.91848 9.41595 7.91842C9.41595 7.91836 9.41595 7.9183 9.41595 7.91824C9.41595 7.91819 9.41595 7.91813 9.41595 7.91808C9.41595 7.91802 9.41595 7.91797 9.41595 7.91792C9.41595 7.91787 9.41595 7.91782 9.41595 7.91777C9.41595 7.91772 9.41595 7.91768 9.41595 7.91763C9.41595 7.91759 9.41595 7.91754 9.41595 7.9175C9.41595 7.91746 9.41595 7.91742 9.41595 7.91738C9.41595 7.91734 9.41595 7.9173 9.41595 7.91726C9.41595 7.91723 9.41595 7.91719 9.41595 7.91715C9.41595 7.91712 9.41595 7.91709 9.41595 7.91705C9.41595 7.91702 9.41595 7.91699 9.41595 7.91696C9.41595 7.91693 9.41595 7.9169 9.41595 7.91688C9.41595 7.91685 9.41595 7.91682 9.41595 7.9168C9.41595 7.91677 9.41595 7.91675 9.41595 7.91672C9.41595 7.9167 9.41595 7.91668 9.41595 7.91666C9.41595 7.91664 9.41595 7.91661 9.41595 7.9166C9.41595 7.91658 9.41595 7.91656 9.41595 7.91654C9.41595 7.91652 9.41595 7.91651 9.41595 7.91649C9.41595 7.91647 9.41595 7.91646 9.41595 7.91644C9.41595 7.91643 9.41595 7.91642 9.41595 7.9164C9.41595 7.91639 9.41595 7.91638 9.41595 7.91637C9.41595 7.91636 9.41595 7.91635 9.41595 7.91634C9.41595 7.91633 9.41595 7.91632 9.41595 7.91631C9.41595 7.9163 9.41595 7.91629 9.41595 7.91628C9.41595 7.91628 9.41595 7.91627 9.41595 7.91626C9.41595 7.91626 9.41595 7.91625 9.41595 7.91625C9.41595 7.91624 9.41595 7.91624 9.41595 7.91623C9.41595 7.91623 9.41595 7.91622 9.41595 7.91622C9.41595 7.91622 9.41595 7.91621 9.41595 7.91621C9.41595 7.91621 9.41595 7.9162 9.41595 7.9162C9.41595 7.9162 9.41595 7.9162 9.41595 7.9162C9.41595 7.9162 9.41595 7.91619 9.41595 7.91619C9.41595 7.91619 9.41595 7.91619 9.41595 7.91619C9.41595 7.91619 9.41595 7.91619 9.41595 7.91619C9.41595 7.91619 9.41595 7.91619 9.41595 7.91619C9.41595 7.91619 9.41595 7.91619 9.41595 7.91619C9.41595 7.91619 7.91595 7.91619 7.91595 7.91619ZM9.41595 7.91598V2H6.41595V7.91598H9.41595Z" fill="#CE0A9C"/>
</svg>
