<svg width="342" height="332" viewBox="0 0 342 332" fill="none" xmlns="http://www.w3.org/2000/svg">
<path fill-rule="evenodd" clip-rule="evenodd" d="M170.88 0C76.4689 0 0 76.1642 0 170.2C0 245.514 48.9147 309.126 116.839 331.678C125.383 333.167 128.587 328.061 128.587 323.593C128.587 319.551 128.374 306.147 128.374 291.893C85.4403 299.765 74.3328 281.468 70.9152 271.895C68.9929 267.002 60.6623 251.896 53.4001 247.854C47.4193 244.662 38.8749 236.791 53.1862 236.578C66.643 236.366 76.2551 248.918 79.459 254.024C94.8387 279.766 119.402 272.533 129.228 268.065C130.723 257.002 135.209 249.556 140.122 245.301C102.101 241.046 62.3714 226.366 62.3714 161.265C62.3714 142.755 68.9929 127.437 79.8866 115.523C78.1774 111.268 72.1967 93.8228 81.5951 70.4199C81.5951 70.4199 95.9064 65.9524 128.587 87.866C142.257 84.036 156.782 82.1216 171.307 82.1216C185.832 82.1216 200.357 84.036 214.027 87.866C246.708 65.7393 261.02 70.4199 261.02 70.4199C270.418 93.8228 264.437 111.268 262.728 115.523C273.622 127.437 280.243 142.542 280.243 161.265C280.243 226.579 240.3 241.046 202.28 245.301C208.473 250.62 213.813 260.832 213.813 276.788C213.813 299.552 213.6 317.849 213.6 323.593C213.6 328.061 216.804 333.38 225.348 331.678C292.845 309.126 341.76 245.301 341.76 170.2C341.76 76.1642 265.291 0 170.88 0Z" fill="white"/>
</svg>
