<svg width="64" height="64" viewBox="0 0 64 64" fill="none" xmlns="http://www.w3.org/2000/svg">
<g clip-path="url(#clip0_656_9)">
<mask id="mask0_656_9" style="mask-type:luminance" maskUnits="userSpaceOnUse" x="1" y="0" width="63" height="64">
<path d="M62.8182 26.1818H33V38.5455H50.1637C48.5637 46.4 41.8727 50.9091 33 50.9091C22.5273 50.9091 14.0909 42.4727 14.0909 32C14.0909 21.5273 22.5273 13.0909 33 13.0909C37.5091 13.0909 41.5818 14.6909 44.7818 17.3091L54.0909 8C48.4182 3.05455 41.1455 0 33 0C15.2546 0 1 14.2546 1 32C1 49.7455 15.2546 64 33 64C49 64 63.5455 52.3637 63.5455 32C63.5455 30.1091 63.2546 28.0727 62.8182 26.1818Z" fill="white"/>
</mask>
<g mask="url(#mask0_656_9)">
<path d="M-1.90918 50.909V13.0908L22.8181 31.9999L-1.90918 50.909Z" fill="#FBBC05"/>
</g>
<mask id="mask1_656_9" style="mask-type:luminance" maskUnits="userSpaceOnUse" x="1" y="0" width="63" height="64">
<path d="M62.8182 26.1818H33V38.5455H50.1637C48.5637 46.4 41.8727 50.9091 33 50.9091C22.5273 50.9091 14.0909 42.4727 14.0909 32C14.0909 21.5273 22.5273 13.0909 33 13.0909C37.5091 13.0909 41.5818 14.6909 44.7818 17.3091L54.0909 8C48.4182 3.05455 41.1455 0 33 0C15.2546 0 1 14.2546 1 32C1 49.7455 15.2546 64 33 64C49 64 63.5455 52.3637 63.5455 32C63.5455 30.1091 63.2546 28.0727 62.8182 26.1818Z" fill="white"/>
</mask>
<g mask="url(#mask1_656_9)">
<path d="M-1.90918 13.0908L22.8181 31.9999L32.9999 23.1272L67.909 17.4545V-2.90918H-1.90918V13.0908Z" fill="#EA4335"/>
</g>
<mask id="mask2_656_9" style="mask-type:luminance" maskUnits="userSpaceOnUse" x="1" y="0" width="63" height="64">
<path d="M62.8182 26.1818H33V38.5455H50.1637C48.5637 46.4 41.8727 50.9091 33 50.9091C22.5273 50.9091 14.0909 42.4727 14.0909 32C14.0909 21.5273 22.5273 13.0909 33 13.0909C37.5091 13.0909 41.5818 14.6909 44.7818 17.3091L54.0909 8C48.4182 3.05455 41.1455 0 33 0C15.2546 0 1 14.2546 1 32C1 49.7455 15.2546 64 33 64C49 64 63.5455 52.3637 63.5455 32C63.5455 30.1091 63.2546 28.0727 62.8182 26.1818Z" fill="white"/>
</mask>
<g mask="url(#mask2_656_9)">
<path d="M-1.90918 50.909L41.7272 17.4545L53.2181 18.909L67.909 -2.90918V66.909H-1.90918V50.909Z" fill="#34A853"/>
</g>
<mask id="mask3_656_9" style="mask-type:luminance" maskUnits="userSpaceOnUse" x="1" y="0" width="63" height="64">
<path d="M62.8182 26.1818H33V38.5455H50.1637C48.5637 46.4 41.8727 50.9091 33 50.9091C22.5273 50.9091 14.0909 42.4727 14.0909 32C14.0909 21.5273 22.5273 13.0909 33 13.0909C37.5091 13.0909 41.5818 14.6909 44.7818 17.3091L54.0909 8C48.4182 3.05455 41.1455 0 33 0C15.2546 0 1 14.2546 1 32C1 49.7455 15.2546 64 33 64C49 64 63.5455 52.3637 63.5455 32C63.5455 30.1091 63.2546 28.0727 62.8182 26.1818Z" fill="white"/>
</mask>
<g mask="url(#mask3_656_9)">
<path d="M67.9091 66.909L22.8182 31.9999L17 27.6363L67.9091 13.0908V66.909Z" fill="#4285F4"/>
</g>
</g>
<defs>
<clipPath id="clip0_656_9">
<rect width="64" height="64" fill="white"/>
</clipPath>
</defs>
</svg>
