<svg width="21" height="23" viewBox="0 0 21 23" fill="none" xmlns="http://www.w3.org/2000/svg">
<path fill-rule="evenodd" clip-rule="evenodd" d="M5.9094 1.8749L11.4739 1.8749C12.6609 1.88181 13.7967 2.39041 14.6315 3.28881C15.4662 4.18721 15.9315 5.40181 15.925 6.6654V12.4844C15.9315 13.748 15.4662 14.9626 14.6315 15.861C13.7967 16.7594 12.6609 17.268 11.4739 17.2749H5.9094C4.72238 17.268 3.58657 16.7594 2.75182 15.861C1.91708 14.9626 1.45179 13.748 1.45831 12.4844L1.45831 6.66678C1.45144 5.40294 1.91658 4.18799 2.75136 3.28929C3.58614 2.3906 4.72216 1.88181 5.9094 1.8749Z" stroke="#F5F5F7" stroke-width="2" stroke-linecap="round" stroke-linejoin="round"/>
<path d="M7.48649 21.125H13.6477C16.9397 21.085 19.5782 18.2123 19.5416 14.7079V8.29075" stroke="#F5F5F7" stroke-width="2" stroke-linecap="round" stroke-linejoin="round"/>
</svg>
