<svg width="24" height="24" viewBox="0 0 24 24" fill="none" xmlns="http://www.w3.org/2000/svg">
<path d="M2.10059 10.3917C1.27216 10.3917 0.600586 11.0633 0.600586 11.8917C0.600586 12.7201 1.27216 13.3917 2.10059 13.3917V10.3917ZM11.8923 13.3917C12.7207 13.3917 13.3923 12.7201 13.3923 11.8917C13.3923 11.0633 12.7207 10.3917 11.8923 10.3917V13.3917ZM11.8923 10.3917C11.0638 10.3917 10.3923 11.0633 10.3923 11.8917C10.3923 12.7201 11.0638 13.3917 11.8923 13.3917V10.3917ZM21.6839 13.3917C22.5123 13.3917 23.1839 12.7201 23.1839 11.8917C23.1839 11.0633 22.5123 10.3917 21.6839 10.3917V13.3917ZM13.3923 11.8917C13.3923 11.0633 12.7207 10.3917 11.8923 10.3917C11.0638 10.3917 10.3923 11.0633 10.3923 11.8917H13.3923ZM10.3923 21.6834C10.3923 22.5118 11.0638 23.1834 11.8923 23.1834C12.7207 23.1834 13.3923 22.5118 13.3923 21.6834H10.3923ZM10.3923 11.8917C10.3923 12.7201 11.0638 13.3917 11.8923 13.3917C12.7207 13.3917 13.3923 12.7201 13.3923 11.8917H10.3923ZM13.3923 2.10004C13.3923 1.27161 12.7207 0.600037 11.8923 0.600037C11.0638 0.600037 10.3923 1.27161 10.3923 2.10004H13.3923ZM2.10059 13.3917H11.8923V10.3917H2.10059V13.3917ZM11.8923 13.3917H21.6839V10.3917H11.8923V13.3917ZM11.8923 11.8917H10.3923C10.3923 11.8917 10.3923 11.8917 10.3923 11.8917C10.3923 11.8917 10.3923 11.8917 10.3923 11.8917C10.3923 11.8917 10.3923 11.8917 10.3923 11.8917C10.3923 11.8917 10.3923 11.8917 10.3923 11.8917C10.3923 11.8917 10.3923 11.8917 10.3923 11.8917C10.3923 11.8917 10.3923 11.8917 10.3923 11.8917C10.3923 11.8917 10.3923 11.8918 10.3923 11.8918C10.3923 11.8918 10.3923 11.8918 10.3923 11.8918C10.3923 11.8918 10.3923 11.8918 10.3923 11.8918C10.3923 11.8918 10.3923 11.8918 10.3923 11.8918C10.3923 11.8918 10.3923 11.8919 10.3923 11.8919C10.3923 11.8919 10.3923 11.8919 10.3923 11.8919C10.3923 11.8919 10.3923 11.8919 10.3923 11.892C10.3923 11.892 10.3923 11.892 10.3923 11.892C10.3923 11.892 10.3923 11.892 10.3923 11.8921C10.3923 11.8921 10.3923 11.8921 10.3923 11.8921C10.3923 11.8922 10.3923 11.8922 10.3923 11.8922C10.3923 11.8922 10.3923 11.8923 10.3923 11.8923C10.3923 11.8923 10.3923 11.8923 10.3923 11.8924C10.3923 11.8924 10.3923 11.8924 10.3923 11.8925C10.3923 11.8925 10.3923 11.8926 10.3923 11.8926C10.3923 11.8926 10.3923 11.8927 10.3923 11.8927C10.3923 11.8928 10.3923 11.8928 10.3923 11.8928C10.3923 11.8929 10.3923 11.8929 10.3923 11.893C10.3923 11.893 10.3923 11.8931 10.3923 11.8931C10.3923 11.8932 10.3923 11.8932 10.3923 11.8933C10.3923 11.8934 10.3923 11.8934 10.3923 11.8935C10.3923 11.8935 10.3923 11.8936 10.3923 11.8937C10.3923 11.8937 10.3923 11.8938 10.3923 11.8939C10.3923 11.8939 10.3923 11.894 10.3923 11.8941C10.3923 11.8942 10.3923 11.8942 10.3923 11.8943C10.3923 11.8944 10.3923 11.8945 10.3923 11.8946C10.3923 11.8947 10.3923 11.8947 10.3923 11.8948C10.3923 11.8949 10.3923 11.895 10.3923 11.8951C10.3923 11.8952 10.3923 11.8953 10.3923 11.8954C10.3923 11.8955 10.3923 11.8956 10.3923 11.8957C10.3923 11.8958 10.3923 11.8959 10.3923 11.896C10.3923 11.8961 10.3923 11.8963 10.3923 11.8964C10.3923 11.8965 10.3923 11.8966 10.3923 11.8967C10.3923 11.8969 10.3923 11.897 10.3923 11.8971C10.3923 11.8972 10.3923 11.8974 10.3923 11.8975C10.3923 11.8976 10.3923 11.8978 10.3923 11.8979C10.3923 11.8981 10.3923 11.8982 10.3923 11.8984C10.3923 11.8985 10.3923 11.8987 10.3923 11.8988C10.3923 11.899 10.3923 11.8991 10.3923 11.8993C10.3923 11.8994 10.3923 11.8996 10.3923 11.8998C10.3923 11.8999 10.3923 11.9001 10.3923 11.9003C10.3923 11.9005 10.3923 11.9006 10.3923 11.9008C10.3923 11.901 10.3923 11.9012 10.3923 11.9014C10.3923 11.9016 10.3923 11.9018 10.3923 11.902C10.3923 11.9022 10.3923 11.9024 10.3923 11.9026C10.3923 11.9028 10.3923 11.903 10.3923 11.9032C10.3923 11.9034 10.3923 11.9036 10.3923 11.9038C10.3923 11.9041 10.3923 11.9043 10.3923 11.9045C10.3923 11.9047 10.3923 11.905 10.3923 11.9052C10.3923 11.9055 10.3923 11.9057 10.3923 11.9059C10.3923 11.9062 10.3923 11.9064 10.3923 11.9067C10.3923 11.9069 10.3923 11.9072 10.3923 11.9075C10.3923 11.9077 10.3923 11.908 10.3923 11.9083C10.3923 11.9085 10.3923 11.9088 10.3923 11.9091C10.3923 11.9094 10.3923 11.9097 10.3923 11.9099C10.3923 11.9102 10.3923 11.9105 10.3923 11.9108C10.3923 11.9111 10.3923 11.9114 10.3923 11.9117C10.3923 11.912 10.3923 11.9124 10.3923 11.9127C10.3923 11.913 10.3923 11.9133 10.3923 11.9136C10.3923 11.914 10.3923 11.9143 10.3923 11.9146C10.3923 11.915 10.3923 11.9153 10.3923 11.9157C10.3923 11.916 10.3923 11.9164 10.3923 11.9167C10.3923 11.9171 10.3923 11.9174 10.3923 11.9178C10.3923 11.9182 10.3923 11.9186 10.3923 11.9189C10.3923 11.9193 10.3923 11.9197 10.3923 11.9201C10.3923 11.9205 10.3923 11.9209 10.3923 11.9213C10.3923 11.9217 10.3923 11.9221 10.3923 11.9225C10.3923 11.9229 10.3923 11.9233 10.3923 11.9237C10.3923 11.9242 10.3923 11.9246 10.3923 11.925C10.3923 11.9254 10.3923 11.9259 10.3923 11.9263C10.3923 11.9268 10.3923 11.9272 10.3923 11.9277C10.3923 11.9281 10.3923 11.9286 10.3923 11.9291C10.3923 11.9295 10.3923 11.93 10.3923 11.9305C10.3923 11.931 10.3923 11.9314 10.3923 11.9319C10.3923 11.9324 10.3923 11.9329 10.3923 11.9334C10.3923 11.9339 10.3923 11.9344 10.3923 11.9349C10.3923 11.9355 10.3923 11.936 10.3923 11.9365C10.3923 11.937 10.3923 11.9376 10.3923 11.9381C10.3923 11.9386 10.3923 11.9392 10.3923 11.9397C10.3923 11.9403 10.3923 11.9409 10.3923 11.9414C10.3923 11.942 10.3923 11.9426 10.3923 11.9431C10.3923 11.9437 10.3923 11.9443 10.3923 11.9449C10.3923 11.9455 10.3923 11.9461 10.3923 11.9467C10.3923 11.9473 10.3923 11.9479 10.3923 11.9485C10.3923 11.9491 10.3923 11.9498 10.3923 11.9504C10.3923 11.951 10.3923 11.9517 10.3923 11.9523C10.3923 11.9529 10.3923 11.9536 10.3923 11.9543C10.3923 11.9549 10.3923 11.9556 10.3923 11.9562C10.3923 11.9569 10.3923 11.9576 10.3923 11.9583C10.3923 11.959 10.3923 11.9597 10.3923 11.9604C10.3923 11.9611 10.3923 11.9618 10.3923 11.9625C10.3923 11.9632 10.3923 11.9639 10.3923 11.9647C10.3923 11.9654 10.3923 11.9661 10.3923 11.9669C10.3923 11.9676 10.3923 11.9684 10.3923 11.9691C10.3923 11.9699 10.3923 11.9706 10.3923 11.9714C10.3923 11.9722 10.3923 11.973 10.3923 11.9738C10.3923 11.9746 10.3923 11.9754 10.3923 11.9762C10.3923 11.977 10.3923 11.9778 10.3923 11.9786C10.3923 11.9794 10.3923 11.9802 10.3923 11.9811C10.3923 11.9819 10.3923 11.9828 10.3923 11.9836C10.3923 11.9845 10.3923 11.9853 10.3923 11.9862C10.3923 11.987 10.3923 11.9879 10.3923 11.9888C10.3923 11.9897 10.3923 11.9906 10.3923 11.9915C10.3923 11.9924 10.3923 11.9933 10.3923 11.9942C10.3923 11.9951 10.3923 11.996 10.3923 11.997C10.3923 11.9979 10.3923 11.9988 10.3923 11.9998C10.3923 12.0007 10.3923 12.0017 10.3923 12.0027C10.3923 12.0036 10.3923 12.0046 10.3923 12.0056C10.3923 12.0066 10.3923 12.0075 10.3923 12.0085C10.3923 12.0095 10.3923 12.0106 10.3923 12.0116C10.3923 12.0126 10.3923 12.0136 10.3923 12.0146C10.3923 12.0157 10.3923 12.0167 10.3923 12.0178C10.3923 12.0188 10.3923 12.0199 10.3923 12.0209C10.3923 12.022 10.3923 12.0231 10.3923 12.0242C10.3923 12.0253 10.3923 12.0264 10.3923 12.0275C10.3923 12.0286 10.3923 12.0297 10.3923 12.0308C10.3923 12.0319 10.3923 12.0331 10.3923 12.0342C10.3923 12.0353 10.3923 12.0365 10.3923 12.0376C10.3923 12.0388 10.3923 12.04 10.3923 12.0411C10.3923 12.0423 10.3923 12.0435 10.3923 12.0447C10.3923 12.0459 10.3923 12.0471 10.3923 12.0483C10.3923 12.0495 10.3923 12.0508 10.3923 12.052C10.3923 12.0532 10.3923 12.0545 10.3923 12.0557C10.3923 12.057 10.3923 12.0582 10.3923 12.0595C10.3923 12.0608 10.3923 12.062 10.3923 12.0633C10.3923 12.0646 10.3923 12.0659 10.3923 12.0672C10.3923 12.0685 10.3923 12.0699 10.3923 12.0712C10.3923 12.0725 10.3923 12.0739 10.3923 12.0752C10.3923 12.0766 10.3923 12.0779 10.3923 12.0793C10.3923 12.0807 10.3923 12.082 10.3923 12.0834C10.3923 12.0848 10.3923 12.0862 10.3923 12.0876C10.3923 12.089 10.3923 12.0905 10.3923 12.0919C10.3923 12.0933 10.3923 12.0948 10.3923 12.0962C10.3923 12.0977 10.3923 12.0991 10.3923 12.1006C10.3923 12.1021 10.3923 12.1035 10.3923 12.105C10.3923 12.1065 10.3923 12.108 10.3923 12.1095C10.3923 12.1111 10.3923 12.1126 10.3923 12.1141C10.3923 12.1156 10.3923 12.1172 10.3923 12.1187C10.3923 12.1203 10.3923 12.1219 10.3923 12.1234C10.3923 12.125 10.3923 12.1266 10.3923 12.1282C10.3923 12.1298 10.3923 12.1314 10.3923 12.133C10.3923 12.1347 10.3923 12.1363 10.3923 12.1379C10.3923 12.1396 10.3923 12.1412 10.3923 12.1429C10.3923 12.1445 10.3923 12.1462 10.3923 12.1479C10.3923 12.1496 10.3923 12.1513 10.3923 12.153C10.3923 12.1547 10.3923 12.1564 10.3923 12.1581C10.3923 12.1599 10.3923 12.1616 10.3923 12.1634C10.3923 12.1651 10.3923 12.1669 10.3923 12.1687C10.3923 12.1704 10.3923 12.1722 10.3923 12.174C10.3923 12.1758 10.3923 12.1776 10.3923 12.1795C10.3923 12.1813 10.3923 12.1831 10.3923 12.185C10.3923 12.1868 10.3923 12.1887 10.3923 12.1905C10.3923 12.1924 10.3923 12.1943 10.3923 12.1962C10.3923 12.1981 10.3923 12.2 10.3923 12.2019C10.3923 12.2038 10.3923 12.2057 10.3923 12.2076C10.3923 12.2096 10.3923 12.2115 10.3923 12.2135C10.3923 12.2155 10.3923 12.2174 10.3923 12.2194C10.3923 12.2214 10.3923 12.2234 10.3923 12.2254C10.3923 12.2274 10.3923 12.2294 10.3923 12.2315C10.3923 12.2335 10.3923 12.2356 10.3923 12.2376C10.3923 12.2397 10.3923 12.2418 10.3923 12.2438C10.3923 12.2459 10.3923 12.248 10.3923 12.2501C10.3923 12.2522 10.3923 12.2544 10.3923 12.2565C10.3923 12.2586 10.3923 12.2608 10.3923 12.2629C10.3923 12.2651 10.3923 12.2673 10.3923 12.2694C10.3923 12.2716 10.3923 12.2738 10.3923 12.276C10.3923 12.2782 10.3923 12.2805 10.3923 12.2827C10.3923 12.2849 10.3923 12.2872 10.3923 12.2894C10.3923 12.2917 10.3923 12.294 10.3923 12.2962C10.3923 12.2985 10.3923 12.3008 10.3923 12.3031C10.3923 12.3055 10.3923 12.3078 10.3923 12.3101C10.3923 12.3125 10.3923 12.3148 10.3923 12.3172C10.3923 12.3195 10.3923 12.3219 10.3923 12.3243C10.3923 12.3267 10.3923 12.3291 10.3923 12.3315C10.3923 12.3339 10.3923 12.3364 10.3923 12.3388C10.3923 12.3412 10.3923 12.3437 10.3923 12.3462C10.3923 12.3486 10.3923 12.3511 10.3923 12.3536C10.3923 12.3561 10.3923 12.3586 10.3923 12.3611C10.3923 12.3637 10.3923 12.3662 10.3923 12.3688C10.3923 12.3713 10.3923 12.3739 10.3923 12.3765C10.3923 12.379 10.3923 12.3816 10.3923 12.3842C10.3923 12.3868 10.3923 12.3895 10.3923 12.3921C10.3923 12.3947 10.3923 12.3974 10.3923 12.4C10.3923 12.4027 10.3923 12.4054 10.3923 12.4081C10.3923 12.4108 10.3923 12.4135 10.3923 12.4162C10.3923 12.4189 10.3923 12.4216 10.3923 12.4244C10.3923 12.4271 10.3923 12.4299 10.3923 12.4326C10.3923 12.4354 10.3923 12.4382 10.3923 12.441C10.3923 12.4438 10.3923 12.4466 10.3923 12.4495C10.3923 12.4523 10.3923 12.4551 10.3923 12.458C10.3923 12.4609 10.3923 12.4637 10.3923 12.4666C10.3923 12.4695 10.3923 12.4724 10.3923 12.4753C10.3923 12.4783 10.3923 12.4812 10.3923 12.4841C10.3923 12.4871 10.3923 12.49 10.3923 12.493C10.3923 12.496 10.3923 12.499 10.3923 12.502C10.3923 12.505 10.3923 12.508 10.3923 12.5111C10.3923 12.5141 10.3923 12.5171 10.3923 12.5202C10.3923 12.5233 10.3923 12.5264 10.3923 12.5295C10.3923 12.5325 10.3923 12.5357 10.3923 12.5388C10.3923 12.5419 10.3923 12.5451 10.3923 12.5482C10.3923 12.5514 10.3923 12.5545 10.3923 12.5577C10.3923 12.5609 10.3923 12.5641 10.3923 12.5673C10.3923 12.5705 10.3923 12.5738 10.3923 12.577C10.3923 12.5803 10.3923 12.5835 10.3923 12.5868C10.3923 12.5901 10.3923 12.5934 10.3923 12.5967C10.3923 12.6 10.3923 12.6033 10.3923 12.6067C10.3923 12.61 10.3923 12.6134 10.3923 12.6167C10.3923 12.6201 10.3923 12.6235 10.3923 12.6269C10.3923 12.6303 10.3923 12.6337 10.3923 12.6372C10.3923 12.6406 10.3923 12.6441 10.3923 12.6475C10.3923 12.651 10.3923 12.6545 10.3923 12.658C10.3923 12.6615 10.3923 12.665 10.3923 12.6685C10.3923 12.672 10.3923 12.6756 10.3923 12.6792C10.3923 12.6827 10.3923 12.6863 10.3923 12.6899C10.3923 12.6935 10.3923 12.6971 10.3923 12.7007C10.3923 12.7044 10.3923 12.708 10.3923 12.7117C10.3923 12.7153 10.3923 12.719 10.3923 12.7227C10.3923 12.7264 10.3923 12.7301 10.3923 12.7338C10.3923 12.7375 10.3923 12.7413 10.3923 12.745C10.3923 12.7488 10.3923 12.7526 10.3923 12.7564C10.3923 12.7602 10.3923 12.764 10.3923 12.7678C10.3923 12.7716 10.3923 12.7755 10.3923 12.7793C10.3923 12.7832 10.3923 12.7871 10.3923 12.791C10.3923 12.7949 10.3923 12.7988 10.3923 12.8027C10.3923 12.8066 10.3923 12.8106 10.3923 12.8145C10.3923 12.8185 10.3923 12.8225 10.3923 12.8265C10.3923 12.8304 10.3923 12.8345 10.3923 12.8385C10.3923 12.8425 10.3923 12.8466 10.3923 12.8506C10.3923 12.8547 10.3923 12.8588 10.3923 12.8629C10.3923 12.867 10.3923 12.8711 10.3923 12.8752C10.3923 12.8793 10.3923 12.8835 10.3923 12.8877C10.3923 12.8918 10.3923 12.896 10.3923 12.9002C10.3923 12.9044 10.3923 12.9086 10.3923 12.9129C10.3923 12.9171 10.3923 12.9214 10.3923 12.9256C10.3923 12.9299 10.3923 12.9342 10.3923 12.9385C10.3923 12.9428 10.3923 12.9471 10.3923 12.9515C10.3923 12.9558 10.3923 12.9602 10.3923 12.9646C10.3923 12.9689 10.3923 12.9733 10.3923 12.9778C10.3923 12.9822 10.3923 12.9866 10.3923 12.9911C10.3923 12.9955 10.3923 13 10.3923 13.0045C10.3923 13.009 10.3923 13.0135 10.3923 13.018C10.3923 13.0225 10.3923 13.027 10.3923 13.0316C10.3923 13.0362 10.3923 13.0407 10.3923 13.0453C10.3923 13.0499 10.3923 13.0545 10.3923 13.0592C10.3923 13.0638 10.3923 13.0685 10.3923 13.0731C10.3923 13.0778 10.3923 13.0825 10.3923 13.0872C10.3923 13.0919 10.3923 13.0966 10.3923 13.1014C10.3923 13.1061 10.3923 13.1109 10.3923 13.1157C10.3923 13.1204 10.3923 13.1252 10.3923 13.1301C10.3923 13.1349 10.3923 13.1397 10.3923 13.1446C10.3923 13.1494 10.3923 13.1543 10.3923 13.1592C10.3923 13.1641 10.3923 13.169 10.3923 13.1739C10.3923 13.1789 10.3923 13.1838 10.3923 13.1888C10.3923 13.1938 10.3923 13.1987 10.3923 13.2038C10.3923 13.2088 10.3923 13.2138 10.3923 13.2188C10.3923 13.2239 10.3923 13.2289 10.3923 13.234C10.3923 13.2391 10.3923 13.2442 10.3923 13.2493C10.3923 13.2545 10.3923 13.2596 10.3923 13.2648C10.3923 13.2699 10.3923 13.2751 10.3923 13.2803C10.3923 13.2855 10.3923 13.2907 10.3923 13.296C10.3923 13.3012 10.3923 13.3065 10.3923 13.3118C10.3923 13.317 10.3923 13.3223 10.3923 13.3277C10.3923 13.333 10.3923 13.3383 10.3923 13.3437C10.3923 13.349 10.3923 13.3544 10.3923 13.3598C10.3923 13.3652 10.3923 13.3706 10.3923 13.376C10.3923 13.3815 10.3923 13.3869 10.3923 13.3924C10.3923 13.3979 10.3923 13.4034 10.3923 13.4089C10.3923 13.4144 10.3923 13.42 10.3923 13.4255C10.3923 13.4311 10.3923 13.4367 10.3923 13.4423C10.3923 13.4479 10.3923 13.4535 10.3923 13.4591C10.3923 13.4647 10.3923 13.4704 10.3923 13.4761C10.3923 13.4818 10.3923 13.4875 10.3923 13.4932C10.3923 13.4989 10.3923 13.5046 10.3923 13.5104C10.3923 13.5162 10.3923 13.5219 10.3923 13.5277C10.3923 13.5335 10.3923 13.5394 10.3923 13.5452C10.3923 13.5511 10.3923 13.5569 10.3923 13.5628C10.3923 13.5687 10.3923 13.5746 10.3923 13.5805C10.3923 13.5864 10.3923 13.5924 10.3923 13.5984C10.3923 13.6043 10.3923 13.6103 10.3923 13.6163C10.3923 13.6223 10.3923 13.6284 10.3923 13.6344C10.3923 13.6405 10.3923 13.6465 10.3923 13.6526C10.3923 13.6587 10.3923 13.6648 10.3923 13.671C10.3923 13.6771 10.3923 13.6833 10.3923 13.6894C10.3923 13.6956 10.3923 13.7018 10.3923 13.708C10.3923 13.7143 10.3923 13.7205 10.3923 13.7268C10.3923 13.733 10.3923 13.7393 10.3923 13.7456C10.3923 13.7519 10.3923 13.7582 10.3923 13.7646C10.3923 13.7709 10.3923 13.7773 10.3923 13.7837C10.3923 13.7901 10.3923 13.7965 10.3923 13.8029C10.3923 13.8094 10.3923 13.8158 10.3923 13.8223C10.3923 13.8288 10.3923 13.8353 10.3923 13.8418C10.3923 13.8483 10.3923 13.8549 10.3923 13.8615C10.3923 13.868 10.3923 13.8746 10.3923 13.8812C10.3923 13.8878 10.3923 13.8945 10.3923 13.9011C10.3923 13.9078 10.3923 13.9144 10.3923 13.9211C10.3923 13.9278 10.3923 13.9346 10.3923 13.9413C10.3923 13.948 10.3923 13.9548 10.3923 13.9616C10.3923 13.9684 10.3923 13.9752 10.3923 13.982C10.3923 13.9888 10.3923 13.9957 10.3923 14.0026C10.3923 14.0095 10.3923 14.0163 10.3923 14.0233C10.3923 14.0302 10.3923 14.0371 10.3923 14.0441C10.3923 14.0511 10.3923 14.0581 10.3923 14.0651C10.3923 14.0721 10.3923 14.0791 10.3923 14.0862C10.3923 14.0932 10.3923 14.1003 10.3923 14.1074C10.3923 14.1145 10.3923 14.1216 10.3923 14.1288C10.3923 14.1359 10.3923 14.1431 10.3923 14.1503C10.3923 14.1575 10.3923 14.1647 10.3923 14.1719C10.3923 14.1792 10.3923 14.1864 10.3923 14.1937C10.3923 14.201 10.3923 14.2083 10.3923 14.2156C10.3923 14.223 10.3923 14.2303 10.3923 14.2377C10.3923 14.2451 10.3923 14.2525 10.3923 14.2599C10.3923 14.2673 10.3923 14.2748 10.3923 14.2822C10.3923 14.2897 10.3923 14.2972 10.3923 14.3047C10.3923 14.3122 10.3923 14.3198 10.3923 14.3274C10.3923 14.3349 10.3923 14.3425 10.3923 14.3501C10.3923 14.3577 10.3923 14.3654 10.3923 14.373C10.3923 14.3807 10.3923 14.3884 10.3923 14.3961C10.3923 14.4038 10.3923 14.4115 10.3923 14.4193C10.3923 14.427 10.3923 14.4348 10.3923 14.4426C10.3923 14.4504 10.3923 14.4582 10.3923 14.4661C10.3923 14.4739 10.3923 14.4818 10.3923 14.4897C10.3923 14.4976 10.3923 14.5055 10.3923 14.5134C10.3923 14.5214 10.3923 14.5294 10.3923 14.5373C10.3923 14.5453 10.3923 14.5534 10.3923 14.5614C10.3923 14.5694 10.3923 14.5775 10.3923 14.5856C10.3923 14.5937 10.3923 14.6018 10.3923 14.6099C10.3923 14.6181 10.3923 14.6262 10.3923 14.6344C10.3923 14.6426 10.3923 14.6508 10.3923 14.6591C10.3923 14.6673 10.3923 14.6756 10.3923 14.6838C10.3923 14.6921 10.3923 14.7004 10.3923 14.7088C10.3923 14.7171 10.3923 14.7255 10.3923 14.7338C10.3923 14.7422 10.3923 14.7506 10.3923 14.7591C10.3923 14.7675 10.3923 14.776 10.3923 14.7844C10.3923 14.7929 10.3923 14.8014 10.3923 14.81C10.3923 14.8185 10.3923 14.8271 10.3923 14.8356C10.3923 14.8442 10.3923 14.8528 10.3923 14.8615C10.3923 14.8701 10.3923 14.8788 10.3923 14.8874C10.3923 14.8961 10.3923 14.9048 10.3923 14.9136C10.3923 14.9223 10.3923 14.9311 10.3923 14.9398C10.3923 14.9486 10.3923 14.9574 10.3923 14.9663C10.3923 14.9751 10.3923 14.984 10.3923 14.9929C10.3923 15.0017 10.3923 15.0107 10.3923 15.0196C10.3923 15.0285 10.3923 15.0375 10.3923 15.0465C10.3923 15.0555 10.3923 15.0645 10.3923 15.0735C10.3923 15.0826 10.3923 15.0916 10.3923 15.1007C10.3923 15.1098 10.3923 15.1189 10.3923 15.1281C10.3923 15.1372 10.3923 15.1464 10.3923 15.1556C10.3923 15.1648 10.3923 15.174 10.3923 15.1832C10.3923 15.1925 10.3923 15.2017 10.3923 15.211C10.3923 15.2203 10.3923 15.2297 10.3923 15.239C10.3923 15.2484 10.3923 15.2577 10.3923 15.2671C10.3923 15.2765 10.3923 15.286 10.3923 15.2954C10.3923 15.3049 10.3923 15.3144 10.3923 15.3239C10.3923 15.3334 10.3923 15.3429 10.3923 15.3525C10.3923 15.362 10.3923 15.3716 10.3923 15.3812C10.3923 15.3908 10.3923 15.4005 10.3923 15.4102C10.3923 15.4198 10.3923 15.4295 10.3923 15.4392C10.3923 15.4489 10.3923 15.4587 10.3923 15.4685C10.3923 15.4782 10.3923 15.488 10.3923 15.4979C10.3923 15.5077 10.3923 15.5175 10.3923 15.5274C10.3923 15.5373 10.3923 15.5472 10.3923 15.5571C10.3923 15.5671 10.3923 15.577 10.3923 15.587C10.3923 15.597 10.3923 15.607 10.3923 15.6171C10.3923 15.6271 10.3923 15.6372 10.3923 15.6473C10.3923 15.6574 10.3923 15.6675 10.3923 15.6776C10.3923 15.6878 10.3923 15.698 10.3923 15.7082C10.3923 15.7184 10.3923 15.7286 10.3923 15.7389C10.3923 15.7491 10.3923 15.7594 10.3923 15.7697C10.3923 15.78 10.3923 15.7904 10.3923 15.8007C10.3923 15.8111 10.3923 15.8215 10.3923 15.8319C10.3923 15.8424 10.3923 15.8528 10.3923 15.8633C10.3923 15.8738 10.3923 15.8843 10.3923 15.8948C10.3923 15.9053 10.3923 15.9159 10.3923 15.9265C10.3923 15.9371 10.3923 15.9477 10.3923 15.9584C10.3923 15.969 10.3923 15.9797 10.3923 15.9904C10.3923 16.0011 10.3923 16.0118 10.3923 16.0226C10.3923 16.0333 10.3923 16.0441 10.3923 16.0549C10.3923 16.0657 10.3923 16.0766 10.3923 16.0874C10.3923 16.0983 10.3923 16.1092 10.3923 16.1201C10.3923 16.1311 10.3923 16.142 10.3923 16.153C10.3923 16.164 10.3923 16.175 10.3923 16.186C10.3923 16.1971 10.3923 16.2081 10.3923 16.2192C10.3923 16.2303 10.3923 16.2415 10.3923 16.2526C10.3923 16.2638 10.3923 16.2749 10.3923 16.2862C10.3923 16.2974 10.3923 16.3086 10.3923 16.3199C10.3923 16.3311 10.3923 16.3424 10.3923 16.3538C10.3923 16.3651 10.3923 16.3764 10.3923 16.3878C10.3923 16.3992 10.3923 16.4106 10.3923 16.4221C10.3923 16.4335 10.3923 16.445 10.3923 16.4565C10.3923 16.468 10.3923 16.4795 10.3923 16.491C10.3923 16.5026 10.3923 16.5142 10.3923 16.5258C10.3923 16.5374 10.3923 16.5491 10.3923 16.5607C10.3923 16.5724 10.3923 16.5841 10.3923 16.5958C10.3923 16.6076 10.3923 16.6193 10.3923 16.6311C10.3923 16.6429 10.3923 16.6547 10.3923 16.6666C10.3923 16.6784 10.3923 16.6903 10.3923 16.7022C10.3923 16.7141 10.3923 16.7261 10.3923 16.738C10.3923 16.75 10.3923 16.762 10.3923 16.774C10.3923 16.786 10.3923 16.7981 10.3923 16.8102C10.3923 16.8223 10.3923 16.8344 10.3923 16.8465C10.3923 16.8587 10.3923 16.8708 10.3923 16.883C10.3923 16.8952 10.3923 16.9075 10.3923 16.9197C10.3923 16.932 10.3923 16.9443 10.3923 16.9566C10.3923 16.9689 10.3923 16.9813 10.3923 16.9937C10.3923 17.0061 10.3923 17.0185 10.3923 17.0309C10.3923 17.0434 10.3923 17.0558 10.3923 17.0683C10.3923 17.0808 10.3923 17.0934 10.3923 17.1059C10.3923 17.1185 10.3923 17.1311 10.3923 17.1437C10.3923 17.1564 10.3923 17.169 10.3923 17.1817C10.3923 17.1944 10.3923 17.2071 10.3923 17.2198C10.3923 17.2326 10.3923 17.2454 10.3923 17.2582C10.3923 17.271 10.3923 17.2838 10.3923 17.2967C10.3923 17.3096 10.3923 17.3225 10.3923 17.3354C10.3923 17.3483 10.3923 17.3613 10.3923 17.3743C10.3923 17.3873 10.3923 17.4003 10.3923 17.4133C10.3923 17.4264 10.3923 17.4395 10.3923 17.4526C10.3923 17.4657 10.3923 17.4789 10.3923 17.492C10.3923 17.5052 10.3923 17.5184 10.3923 17.5317C10.3923 17.5449 10.3923 17.5582 10.3923 17.5715C10.3923 17.5848 10.3923 17.5981 10.3923 17.6115C10.3923 17.6248 10.3923 17.6382 10.3923 17.6517C10.3923 17.6651 10.3923 17.6785 10.3923 17.692C10.3923 17.7055 10.3923 17.719 10.3923 17.7326C10.3923 17.7461 10.3923 17.7597 10.3923 17.7733C10.3923 17.787 10.3923 17.8006 10.3923 17.8143C10.3923 17.828 10.3923 17.8417 10.3923 17.8554C10.3923 17.8691 10.3923 17.8829 10.3923 17.8967C10.3923 17.9105 10.3923 17.9244 10.3923 17.9382C10.3923 17.9521 10.3923 17.966 10.3923 17.9799C10.3923 17.9939 10.3923 18.0078 10.3923 18.0218C10.3923 18.0358 10.3923 18.0498 10.3923 18.0639C10.3923 18.078 10.3923 18.0921 10.3923 18.1062C10.3923 18.1203 10.3923 18.1345 10.3923 18.1487C10.3923 18.1628 10.3923 18.1771 10.3923 18.1913C10.3923 18.2056 10.3923 18.2199 10.3923 18.2342C10.3923 18.2485 10.3923 18.2628 10.3923 18.2772C10.3923 18.2916 10.3923 18.306 10.3923 18.3205C10.3923 18.3349 10.3923 18.3494 10.3923 18.3639C10.3923 18.3784 10.3923 18.393 10.3923 18.4075C10.3923 18.4221 10.3923 18.4367 10.3923 18.4514C10.3923 18.466 10.3923 18.4807 10.3923 18.4954C10.3923 18.5101 10.3923 18.5248 10.3923 18.5396C10.3923 18.5544 10.3923 18.5692 10.3923 18.584C10.3923 18.5989 10.3923 18.6137 10.3923 18.6286C10.3923 18.6435 10.3923 18.6585 10.3923 18.6734C10.3923 18.6884 10.3923 18.7034 10.3923 18.7185C10.3923 18.7335 10.3923 18.7486 10.3923 18.7637C10.3923 18.7788 10.3923 18.7939 10.3923 18.8091C10.3923 18.8242 10.3923 18.8395 10.3923 18.8547C10.3923 18.8699 10.3923 18.8852 10.3923 18.9005C10.3923 18.9158 10.3923 18.9311 10.3923 18.9465C10.3923 18.9619 10.3923 18.9773 10.3923 18.9927C10.3923 19.0082 10.3923 19.0236 10.3923 19.0391C10.3923 19.0546 10.3923 19.0702 10.3923 19.0857C10.3923 19.1013 10.3923 19.1169 10.3923 19.1326C10.3923 19.1482 10.3923 19.1639 10.3923 19.1796C10.3923 19.1953 10.3923 19.211 10.3923 19.2268C10.3923 19.2426 10.3923 19.2584 10.3923 19.2742C10.3923 19.2901 10.3923 19.3059 10.3923 19.3218C10.3923 19.3378 10.3923 19.3537 10.3923 19.3697C10.3923 19.3857 10.3923 19.4017 10.3923 19.4177C10.3923 19.4338 10.3923 19.4499 10.3923 19.466C10.3923 19.4821 10.3923 19.4982 10.3923 19.5144C10.3923 19.5306 10.3923 19.5468 10.3923 19.5631C10.3923 19.5793 10.3923 19.5956 10.3923 19.6119C10.3923 19.6283 10.3923 19.6446 10.3923 19.661C10.3923 19.6774 10.3923 19.6938 10.3923 19.7103C10.3923 19.7267 10.3923 19.7432 10.3923 19.7598C10.3923 19.7763 10.3923 19.7929 10.3923 19.8095C10.3923 19.8261 10.3923 19.8427 10.3923 19.8594C10.3923 19.876 10.3923 19.8927 10.3923 19.9095C10.3923 19.9262 10.3923 19.943 10.3923 19.9598C10.3923 19.9766 10.3923 19.9934 10.3923 20.0103C10.3923 20.0272 10.3923 20.0441 10.3923 20.0611C10.3923 20.078 10.3923 20.095 10.3923 20.112C10.3923 20.129 10.3923 20.1461 10.3923 20.1632C10.3923 20.1803 10.3923 20.1974 10.3923 20.2146C10.3923 20.2317 10.3923 20.2489 10.3923 20.2661C10.3923 20.2834 10.3923 20.3006 10.3923 20.3179C10.3923 20.3352 10.3923 20.3526 10.3923 20.37C10.3923 20.3873 10.3923 20.4047 10.3923 20.4222C10.3923 20.4396 10.3923 20.4571 10.3923 20.4746C10.3923 20.4921 10.3923 20.5097 10.3923 20.5273C10.3923 20.5449 10.3923 20.5625 10.3923 20.5801C10.3923 20.5978 10.3923 20.6155 10.3923 20.6332C10.3923 20.651 10.3923 20.6687 10.3923 20.6865C10.3923 20.7043 10.3923 20.7222 10.3923 20.7401C10.3923 20.7579 10.3923 20.7758 10.3923 20.7938C10.3923 20.8117 10.3923 20.8297 10.3923 20.8477C10.3923 20.8658 10.3923 20.8838 10.3923 20.9019C10.3923 20.92 10.3923 20.9381 10.3923 20.9563C10.3923 20.9745 10.3923 20.9927 10.3923 21.0109C10.3923 21.0291 10.3923 21.0474 10.3923 21.0657C10.3923 21.084 10.3923 21.1024 10.3923 21.1208C10.3923 21.1392 10.3923 21.1576 10.3923 21.176C10.3923 21.1945 10.3923 21.213 10.3923 21.2315C10.3923 21.2501 10.3923 21.2686 10.3923 21.2872C10.3923 21.3058 10.3923 21.3245 10.3923 21.3432C10.3923 21.3618 10.3923 21.3805 10.3923 21.3993C10.3923 21.4181 10.3923 21.4368 10.3923 21.4557C10.3923 21.4745 10.3923 21.4934 10.3923 21.5123C10.3923 21.5312 10.3923 21.5501 10.3923 21.5691C10.3923 21.588 10.3923 21.6071 10.3923 21.6261C10.3923 21.6452 10.3923 21.6642 10.3923 21.6834H13.3923C13.3923 21.6642 13.3923 21.6452 13.3923 21.6261C13.3923 21.6071 13.3923 21.588 13.3923 21.5691C13.3923 21.5501 13.3923 21.5312 13.3923 21.5123C13.3923 21.4934 13.3923 21.4745 13.3923 21.4557C13.3923 21.4368 13.3923 21.4181 13.3923 21.3993C13.3923 21.3805 13.3923 21.3618 13.3923 21.3432C13.3923 21.3245 13.3923 21.3058 13.3923 21.2872C13.3923 21.2686 13.3923 21.2501 13.3923 21.2315C13.3923 21.213 13.3923 21.1945 13.3923 21.176C13.3923 21.1576 13.3923 21.1392 13.3923 21.1208C13.3923 21.1024 13.3923 21.084 13.3923 21.0657C13.3923 21.0474 13.3923 21.0291 13.3923 21.0109C13.3923 20.9927 13.3923 20.9745 13.3923 20.9563C13.3923 20.9381 13.3923 20.92 13.3923 20.9019C13.3923 20.8838 13.3923 20.8658 13.3923 20.8477C13.3923 20.8297 13.3923 20.8117 13.3923 20.7938C13.3923 20.7758 13.3923 20.7579 13.3923 20.7401C13.3923 20.7222 13.3923 20.7043 13.3923 20.6865C13.3923 20.6687 13.3923 20.651 13.3923 20.6332C13.3923 20.6155 13.3923 20.5978 13.3923 20.5801C13.3923 20.5625 13.3923 20.5449 13.3923 20.5273C13.3923 20.5097 13.3923 20.4921 13.3923 20.4746C13.3923 20.4571 13.3923 20.4396 13.3923 20.4222C13.3923 20.4047 13.3923 20.3873 13.3923 20.37C13.3923 20.3526 13.3923 20.3352 13.3923 20.3179C13.3923 20.3006 13.3923 20.2834 13.3923 20.2661C13.3923 20.2489 13.3923 20.2317 13.3923 20.2146C13.3923 20.1974 13.3923 20.1803 13.3923 20.1632C13.3923 20.1461 13.3923 20.129 13.3923 20.112C13.3923 20.095 13.3923 20.078 13.3923 20.0611C13.3923 20.0441 13.3923 20.0272 13.3923 20.0103C13.3923 19.9934 13.3923 19.9766 13.3923 19.9598C13.3923 19.943 13.3923 19.9262 13.3923 19.9095C13.3923 19.8927 13.3923 19.876 13.3923 19.8594C13.3923 19.8427 13.3923 19.8261 13.3923 19.8095C13.3923 19.7929 13.3923 19.7763 13.3923 19.7598C13.3923 19.7432 13.3923 19.7267 13.3923 19.7103C13.3923 19.6938 13.3923 19.6774 13.3923 19.661C13.3923 19.6446 13.3923 19.6283 13.3923 19.6119C13.3923 19.5956 13.3923 19.5793 13.3923 19.5631C13.3923 19.5468 13.3923 19.5306 13.3923 19.5144C13.3923 19.4982 13.3923 19.4821 13.3923 19.466C13.3923 19.4499 13.3923 19.4338 13.3923 19.4177C13.3923 19.4017 13.3923 19.3857 13.3923 19.3697C13.3923 19.3537 13.3923 19.3378 13.3923 19.3218C13.3923 19.3059 13.3923 19.2901 13.3923 19.2742C13.3923 19.2584 13.3923 19.2426 13.3923 19.2268C13.3923 19.211 13.3923 19.1953 13.3923 19.1796C13.3923 19.1639 13.3923 19.1482 13.3923 19.1326C13.3923 19.1169 13.3923 19.1013 13.3923 19.0857C13.3923 19.0702 13.3923 19.0546 13.3923 19.0391C13.3923 19.0236 13.3923 19.0082 13.3923 18.9927C13.3923 18.9773 13.3923 18.9619 13.3923 18.9465C13.3923 18.9311 13.3923 18.9158 13.3923 18.9005C13.3923 18.8852 13.3923 18.8699 13.3923 18.8547C13.3923 18.8395 13.3923 18.8242 13.3923 18.8091C13.3923 18.7939 13.3923 18.7788 13.3923 18.7637C13.3923 18.7486 13.3923 18.7335 13.3923 18.7185C13.3923 18.7034 13.3923 18.6884 13.3923 18.6734C13.3923 18.6585 13.3923 18.6435 13.3923 18.6286C13.3923 18.6137 13.3923 18.5989 13.3923 18.584C13.3923 18.5692 13.3923 18.5544 13.3923 18.5396C13.3923 18.5248 13.3923 18.5101 13.3923 18.4954C13.3923 18.4807 13.3923 18.466 13.3923 18.4514C13.3923 18.4367 13.3923 18.4221 13.3923 18.4075C13.3923 18.393 13.3923 18.3784 13.3923 18.3639C13.3923 18.3494 13.3923 18.3349 13.3923 18.3205C13.3923 18.306 13.3923 18.2916 13.3923 18.2772C13.3923 18.2628 13.3923 18.2485 13.3923 18.2342C13.3923 18.2199 13.3923 18.2056 13.3923 18.1913C13.3923 18.1771 13.3923 18.1628 13.3923 18.1487C13.3923 18.1345 13.3923 18.1203 13.3923 18.1062C13.3923 18.0921 13.3923 18.078 13.3923 18.0639C13.3923 18.0498 13.3923 18.0358 13.3923 18.0218C13.3923 18.0078 13.3923 17.9939 13.3923 17.9799C13.3923 17.966 13.3923 17.9521 13.3923 17.9382C13.3923 17.9244 13.3923 17.9105 13.3923 17.8967C13.3923 17.8829 13.3923 17.8691 13.3923 17.8554C13.3923 17.8417 13.3923 17.828 13.3923 17.8143C13.3923 17.8006 13.3923 17.787 13.3923 17.7733C13.3923 17.7597 13.3923 17.7461 13.3923 17.7326C13.3923 17.719 13.3923 17.7055 13.3923 17.692C13.3923 17.6785 13.3923 17.6651 13.3923 17.6517C13.3923 17.6382 13.3923 17.6248 13.3923 17.6115C13.3923 17.5981 13.3923 17.5848 13.3923 17.5715C13.3923 17.5582 13.3923 17.5449 13.3923 17.5317C13.3923 17.5184 13.3923 17.5052 13.3923 17.492C13.3923 17.4789 13.3923 17.4657 13.3923 17.4526C13.3923 17.4395 13.3923 17.4264 13.3923 17.4133C13.3923 17.4003 13.3923 17.3873 13.3923 17.3743C13.3923 17.3613 13.3923 17.3483 13.3923 17.3354C13.3923 17.3225 13.3923 17.3096 13.3923 17.2967C13.3923 17.2838 13.3923 17.271 13.3923 17.2582C13.3923 17.2454 13.3923 17.2326 13.3923 17.2198C13.3923 17.2071 13.3923 17.1944 13.3923 17.1817C13.3923 17.169 13.3923 17.1564 13.3923 17.1437C13.3923 17.1311 13.3923 17.1185 13.3923 17.1059C13.3923 17.0934 13.3923 17.0808 13.3923 17.0683C13.3923 17.0558 13.3923 17.0434 13.3923 17.0309C13.3923 17.0185 13.3923 17.0061 13.3923 16.9937C13.3923 16.9813 13.3923 16.9689 13.3923 16.9566C13.3923 16.9443 13.3923 16.932 13.3923 16.9197C13.3923 16.9075 13.3923 16.8952 13.3923 16.883C13.3923 16.8708 13.3923 16.8587 13.3923 16.8465C13.3923 16.8344 13.3923 16.8223 13.3923 16.8102C13.3923 16.7981 13.3923 16.786 13.3923 16.774C13.3923 16.762 13.3923 16.75 13.3923 16.738C13.3923 16.7261 13.3923 16.7141 13.3923 16.7022C13.3923 16.6903 13.3923 16.6784 13.3923 16.6666C13.3923 16.6547 13.3923 16.6429 13.3923 16.6311C13.3923 16.6193 13.3923 16.6076 13.3923 16.5958C13.3923 16.5841 13.3923 16.5724 13.3923 16.5607C13.3923 16.5491 13.3923 16.5374 13.3923 16.5258C13.3923 16.5142 13.3923 16.5026 13.3923 16.491C13.3923 16.4795 13.3923 16.468 13.3923 16.4565C13.3923 16.445 13.3923 16.4335 13.3923 16.4221C13.3923 16.4106 13.3923 16.3992 13.3923 16.3878C13.3923 16.3764 13.3923 16.3651 13.3923 16.3538C13.3923 16.3424 13.3923 16.3311 13.3923 16.3199C13.3923 16.3086 13.3923 16.2974 13.3923 16.2862C13.3923 16.2749 13.3923 16.2638 13.3923 16.2526C13.3923 16.2415 13.3923 16.2303 13.3923 16.2192C13.3923 16.2081 13.3923 16.1971 13.3923 16.186C13.3923 16.175 13.3923 16.164 13.3923 16.153C13.3923 16.142 13.3923 16.1311 13.3923 16.1201C13.3923 16.1092 13.3923 16.0983 13.3923 16.0874C13.3923 16.0766 13.3923 16.0657 13.3923 16.0549C13.3923 16.0441 13.3923 16.0333 13.3923 16.0226C13.3923 16.0118 13.3923 16.0011 13.3923 15.9904C13.3923 15.9797 13.3923 15.969 13.3923 15.9584C13.3923 15.9477 13.3923 15.9371 13.3923 15.9265C13.3923 15.9159 13.3923 15.9053 13.3923 15.8948C13.3923 15.8843 13.3923 15.8738 13.3923 15.8633C13.3923 15.8528 13.3923 15.8424 13.3923 15.8319C13.3923 15.8215 13.3923 15.8111 13.3923 15.8007C13.3923 15.7904 13.3923 15.78 13.3923 15.7697C13.3923 15.7594 13.3923 15.7491 13.3923 15.7389C13.3923 15.7286 13.3923 15.7184 13.3923 15.7082C13.3923 15.698 13.3923 15.6878 13.3923 15.6776C13.3923 15.6675 13.3923 15.6574 13.3923 15.6473C13.3923 15.6372 13.3923 15.6271 13.3923 15.6171C13.3923 15.607 13.3923 15.597 13.3923 15.587C13.3923 15.577 13.3923 15.5671 13.3923 15.5571C13.3923 15.5472 13.3923 15.5373 13.3923 15.5274C13.3923 15.5175 13.3923 15.5077 13.3923 15.4979C13.3923 15.488 13.3923 15.4782 13.3923 15.4685C13.3923 15.4587 13.3923 15.4489 13.3923 15.4392C13.3923 15.4295 13.3923 15.4198 13.3923 15.4102C13.3923 15.4005 13.3923 15.3908 13.3923 15.3812C13.3923 15.3716 13.3923 15.362 13.3923 15.3525C13.3923 15.3429 13.3923 15.3334 13.3923 15.3239C13.3923 15.3144 13.3923 15.3049 13.3923 15.2954C13.3923 15.286 13.3923 15.2765 13.3923 15.2671C13.3923 15.2577 13.3923 15.2484 13.3923 15.239C13.3923 15.2297 13.3923 15.2203 13.3923 15.211C13.3923 15.2017 13.3923 15.1925 13.3923 15.1832C13.3923 15.174 13.3923 15.1648 13.3923 15.1556C13.3923 15.1464 13.3923 15.1372 13.3923 15.1281C13.3923 15.1189 13.3923 15.1098 13.3923 15.1007C13.3923 15.0916 13.3923 15.0826 13.3923 15.0735C13.3923 15.0645 13.3923 15.0555 13.3923 15.0465C13.3923 15.0375 13.3923 15.0285 13.3923 15.0196C13.3923 15.0107 13.3923 15.0017 13.3923 14.9929C13.3923 14.984 13.3923 14.9751 13.3923 14.9663C13.3923 14.9574 13.3923 14.9486 13.3923 14.9398C13.3923 14.9311 13.3923 14.9223 13.3923 14.9136C13.3923 14.9048 13.3923 14.8961 13.3923 14.8874C13.3923 14.8788 13.3923 14.8701 13.3923 14.8615C13.3923 14.8528 13.3923 14.8442 13.3923 14.8356C13.3923 14.8271 13.3923 14.8185 13.3923 14.81C13.3923 14.8014 13.3923 14.7929 13.3923 14.7844C13.3923 14.776 13.3923 14.7675 13.3923 14.7591C13.3923 14.7506 13.3923 14.7422 13.3923 14.7338C13.3923 14.7255 13.3923 14.7171 13.3923 14.7088C13.3923 14.7004 13.3923 14.6921 13.3923 14.6838C13.3923 14.6756 13.3923 14.6673 13.3923 14.6591C13.3923 14.6508 13.3923 14.6426 13.3923 14.6344C13.3923 14.6262 13.3923 14.6181 13.3923 14.6099C13.3923 14.6018 13.3923 14.5937 13.3923 14.5856C13.3923 14.5775 13.3923 14.5694 13.3923 14.5614C13.3923 14.5534 13.3923 14.5453 13.3923 14.5373C13.3923 14.5294 13.3923 14.5214 13.3923 14.5134C13.3923 14.5055 13.3923 14.4976 13.3923 14.4897C13.3923 14.4818 13.3923 14.4739 13.3923 14.4661C13.3923 14.4582 13.3923 14.4504 13.3923 14.4426C13.3923 14.4348 13.3923 14.427 13.3923 14.4193C13.3923 14.4115 13.3923 14.4038 13.3923 14.3961C13.3923 14.3884 13.3923 14.3807 13.3923 14.373C13.3923 14.3654 13.3923 14.3577 13.3923 14.3501C13.3923 14.3425 13.3923 14.3349 13.3923 14.3274C13.3923 14.3198 13.3923 14.3122 13.3923 14.3047C13.3923 14.2972 13.3923 14.2897 13.3923 14.2822C13.3923 14.2748 13.3923 14.2673 13.3923 14.2599C13.3923 14.2525 13.3923 14.2451 13.3923 14.2377C13.3923 14.2303 13.3923 14.223 13.3923 14.2156C13.3923 14.2083 13.3923 14.201 13.3923 14.1937C13.3923 14.1864 13.3923 14.1792 13.3923 14.1719C13.3923 14.1647 13.3923 14.1575 13.3923 14.1503C13.3923 14.1431 13.3923 14.1359 13.3923 14.1288C13.3923 14.1216 13.3923 14.1145 13.3923 14.1074C13.3923 14.1003 13.3923 14.0932 13.3923 14.0862C13.3923 14.0791 13.3923 14.0721 13.3923 14.0651C13.3923 14.0581 13.3923 14.0511 13.3923 14.0441C13.3923 14.0371 13.3923 14.0302 13.3923 14.0233C13.3923 14.0163 13.3923 14.0095 13.3923 14.0026C13.3923 13.9957 13.3923 13.9888 13.3923 13.982C13.3923 13.9752 13.3923 13.9684 13.3923 13.9616C13.3923 13.9548 13.3923 13.948 13.3923 13.9413C13.3923 13.9346 13.3923 13.9278 13.3923 13.9211C13.3923 13.9144 13.3923 13.9078 13.3923 13.9011C13.3923 13.8945 13.3923 13.8878 13.3923 13.8812C13.3923 13.8746 13.3923 13.868 13.3923 13.8615C13.3923 13.8549 13.3923 13.8483 13.3923 13.8418C13.3923 13.8353 13.3923 13.8288 13.3923 13.8223C13.3923 13.8158 13.3923 13.8094 13.3923 13.8029C13.3923 13.7965 13.3923 13.7901 13.3923 13.7837C13.3923 13.7773 13.3923 13.7709 13.3923 13.7646C13.3923 13.7582 13.3923 13.7519 13.3923 13.7456C13.3923 13.7393 13.3923 13.733 13.3923 13.7268C13.3923 13.7205 13.3923 13.7143 13.3923 13.708C13.3923 13.7018 13.3923 13.6956 13.3923 13.6894C13.3923 13.6833 13.3923 13.6771 13.3923 13.671C13.3923 13.6648 13.3923 13.6587 13.3923 13.6526C13.3923 13.6465 13.3923 13.6405 13.3923 13.6344C13.3923 13.6284 13.3923 13.6223 13.3923 13.6163C13.3923 13.6103 13.3923 13.6043 13.3923 13.5984C13.3923 13.5924 13.3923 13.5864 13.3923 13.5805C13.3923 13.5746 13.3923 13.5687 13.3923 13.5628C13.3923 13.5569 13.3923 13.5511 13.3923 13.5452C13.3923 13.5394 13.3923 13.5335 13.3923 13.5277C13.3923 13.5219 13.3923 13.5162 13.3923 13.5104C13.3923 13.5046 13.3923 13.4989 13.3923 13.4932C13.3923 13.4875 13.3923 13.4818 13.3923 13.4761C13.3923 13.4704 13.3923 13.4647 13.3923 13.4591C13.3923 13.4535 13.3923 13.4479 13.3923 13.4423C13.3923 13.4367 13.3923 13.4311 13.3923 13.4255C13.3923 13.42 13.3923 13.4144 13.3923 13.4089C13.3923 13.4034 13.3923 13.3979 13.3923 13.3924C13.3923 13.3869 13.3923 13.3815 13.3923 13.376C13.3923 13.3706 13.3923 13.3652 13.3923 13.3598C13.3923 13.3544 13.3923 13.349 13.3923 13.3437C13.3923 13.3383 13.3923 13.333 13.3923 13.3277C13.3923 13.3223 13.3923 13.317 13.3923 13.3118C13.3923 13.3065 13.3923 13.3012 13.3923 13.296C13.3923 13.2907 13.3923 13.2855 13.3923 13.2803C13.3923 13.2751 13.3923 13.2699 13.3923 13.2648C13.3923 13.2596 13.3923 13.2545 13.3923 13.2493C13.3923 13.2442 13.3923 13.2391 13.3923 13.234C13.3923 13.2289 13.3923 13.2239 13.3923 13.2188C13.3923 13.2138 13.3923 13.2088 13.3923 13.2038C13.3923 13.1987 13.3923 13.1938 13.3923 13.1888C13.3923 13.1838 13.3923 13.1789 13.3923 13.1739C13.3923 13.169 13.3923 13.1641 13.3923 13.1592C13.3923 13.1543 13.3923 13.1494 13.3923 13.1446C13.3923 13.1397 13.3923 13.1349 13.3923 13.1301C13.3923 13.1252 13.3923 13.1204 13.3923 13.1157C13.3923 13.1109 13.3923 13.1061 13.3923 13.1014C13.3923 13.0966 13.3923 13.0919 13.3923 13.0872C13.3923 13.0825 13.3923 13.0778 13.3923 13.0731C13.3923 13.0685 13.3923 13.0638 13.3923 13.0592C13.3923 13.0545 13.3923 13.0499 13.3923 13.0453C13.3923 13.0407 13.3923 13.0362 13.3923 13.0316C13.3923 13.027 13.3923 13.0225 13.3923 13.018C13.3923 13.0135 13.3923 13.009 13.3923 13.0045C13.3923 13 13.3923 12.9955 13.3923 12.9911C13.3923 12.9866 13.3923 12.9822 13.3923 12.9778C13.3923 12.9733 13.3923 12.9689 13.3923 12.9646C13.3923 12.9602 13.3923 12.9558 13.3923 12.9515C13.3923 12.9471 13.3923 12.9428 13.3923 12.9385C13.3923 12.9342 13.3923 12.9299 13.3923 12.9256C13.3923 12.9214 13.3923 12.9171 13.3923 12.9129C13.3923 12.9086 13.3923 12.9044 13.3923 12.9002C13.3923 12.896 13.3923 12.8918 13.3923 12.8877C13.3923 12.8835 13.3923 12.8793 13.3923 12.8752C13.3923 12.8711 13.3923 12.867 13.3923 12.8629C13.3923 12.8588 13.3923 12.8547 13.3923 12.8506C13.3923 12.8466 13.3923 12.8425 13.3923 12.8385C13.3923 12.8345 13.3923 12.8304 13.3923 12.8265C13.3923 12.8225 13.3923 12.8185 13.3923 12.8145C13.3923 12.8106 13.3923 12.8066 13.3923 12.8027C13.3923 12.7988 13.3923 12.7949 13.3923 12.791C13.3923 12.7871 13.3923 12.7832 13.3923 12.7793C13.3923 12.7755 13.3923 12.7716 13.3923 12.7678C13.3923 12.764 13.3923 12.7602 13.3923 12.7564C13.3923 12.7526 13.3923 12.7488 13.3923 12.745C13.3923 12.7413 13.3923 12.7375 13.3923 12.7338C13.3923 12.7301 13.3923 12.7264 13.3923 12.7227C13.3923 12.719 13.3923 12.7153 13.3923 12.7117C13.3923 12.708 13.3923 12.7044 13.3923 12.7007C13.3923 12.6971 13.3923 12.6935 13.3923 12.6899C13.3923 12.6863 13.3923 12.6827 13.3923 12.6792C13.3923 12.6756 13.3923 12.672 13.3923 12.6685C13.3923 12.665 13.3923 12.6615 13.3923 12.658C13.3923 12.6545 13.3923 12.651 13.3923 12.6475C13.3923 12.6441 13.3923 12.6406 13.3923 12.6372C13.3923 12.6337 13.3923 12.6303 13.3923 12.6269C13.3923 12.6235 13.3923 12.6201 13.3923 12.6167C13.3923 12.6134 13.3923 12.61 13.3923 12.6067C13.3923 12.6033 13.3923 12.6 13.3923 12.5967C13.3923 12.5934 13.3923 12.5901 13.3923 12.5868C13.3923 12.5835 13.3923 12.5803 13.3923 12.577C13.3923 12.5738 13.3923 12.5705 13.3923 12.5673C13.3923 12.5641 13.3923 12.5609 13.3923 12.5577C13.3923 12.5545 13.3923 12.5514 13.3923 12.5482C13.3923 12.5451 13.3923 12.5419 13.3923 12.5388C13.3923 12.5357 13.3923 12.5325 13.3923 12.5295C13.3923 12.5264 13.3923 12.5233 13.3923 12.5202C13.3923 12.5171 13.3923 12.5141 13.3923 12.5111C13.3923 12.508 13.3923 12.505 13.3923 12.502C13.3923 12.499 13.3923 12.496 13.3923 12.493C13.3923 12.49 13.3923 12.4871 13.3923 12.4841C13.3923 12.4812 13.3923 12.4783 13.3923 12.4753C13.3923 12.4724 13.3923 12.4695 13.3923 12.4666C13.3923 12.4637 13.3923 12.4609 13.3923 12.458C13.3923 12.4551 13.3923 12.4523 13.3923 12.4495C13.3923 12.4466 13.3923 12.4438 13.3923 12.441C13.3923 12.4382 13.3923 12.4354 13.3923 12.4326C13.3923 12.4299 13.3923 12.4271 13.3923 12.4244C13.3923 12.4216 13.3923 12.4189 13.3923 12.4162C13.3923 12.4135 13.3923 12.4108 13.3923 12.4081C13.3923 12.4054 13.3923 12.4027 13.3923 12.4C13.3923 12.3974 13.3923 12.3947 13.3923 12.3921C13.3923 12.3895 13.3923 12.3868 13.3923 12.3842C13.3923 12.3816 13.3923 12.379 13.3923 12.3765C13.3923 12.3739 13.3923 12.3713 13.3923 12.3688C13.3923 12.3662 13.3923 12.3637 13.3923 12.3611C13.3923 12.3586 13.3923 12.3561 13.3923 12.3536C13.3923 12.3511 13.3923 12.3486 13.3923 12.3462C13.3923 12.3437 13.3923 12.3412 13.3923 12.3388C13.3923 12.3364 13.3923 12.3339 13.3923 12.3315C13.3923 12.3291 13.3923 12.3267 13.3923 12.3243C13.3923 12.3219 13.3923 12.3195 13.3923 12.3172C13.3923 12.3148 13.3923 12.3125 13.3923 12.3101C13.3923 12.3078 13.3923 12.3055 13.3923 12.3031C13.3923 12.3008 13.3923 12.2985 13.3923 12.2962C13.3923 12.294 13.3923 12.2917 13.3923 12.2894C13.3923 12.2872 13.3923 12.2849 13.3923 12.2827C13.3923 12.2805 13.3923 12.2782 13.3923 12.276C13.3923 12.2738 13.3923 12.2716 13.3923 12.2694C13.3923 12.2673 13.3923 12.2651 13.3923 12.2629C13.3923 12.2608 13.3923 12.2586 13.3923 12.2565C13.3923 12.2544 13.3923 12.2522 13.3923 12.2501C13.3923 12.248 13.3923 12.2459 13.3923 12.2438C13.3923 12.2418 13.3923 12.2397 13.3923 12.2376C13.3923 12.2356 13.3923 12.2335 13.3923 12.2315C13.3923 12.2294 13.3923 12.2274 13.3923 12.2254C13.3923 12.2234 13.3923 12.2214 13.3923 12.2194C13.3923 12.2174 13.3923 12.2155 13.3923 12.2135C13.3923 12.2115 13.3923 12.2096 13.3923 12.2076C13.3923 12.2057 13.3923 12.2038 13.3923 12.2019C13.3923 12.2 13.3923 12.1981 13.3923 12.1962C13.3923 12.1943 13.3923 12.1924 13.3923 12.1905C13.3923 12.1887 13.3923 12.1868 13.3923 12.185C13.3923 12.1831 13.3923 12.1813 13.3923 12.1795C13.3923 12.1776 13.3923 12.1758 13.3923 12.174C13.3923 12.1722 13.3923 12.1704 13.3923 12.1687C13.3923 12.1669 13.3923 12.1651 13.3923 12.1634C13.3923 12.1616 13.3923 12.1599 13.3923 12.1581C13.3923 12.1564 13.3923 12.1547 13.3923 12.153C13.3923 12.1513 13.3923 12.1496 13.3923 12.1479C13.3923 12.1462 13.3923 12.1445 13.3923 12.1429C13.3923 12.1412 13.3923 12.1396 13.3923 12.1379C13.3923 12.1363 13.3923 12.1347 13.3923 12.133C13.3923 12.1314 13.3923 12.1298 13.3923 12.1282C13.3923 12.1266 13.3923 12.125 13.3923 12.1234C13.3923 12.1219 13.3923 12.1203 13.3923 12.1187C13.3923 12.1172 13.3923 12.1156 13.3923 12.1141C13.3923 12.1126 13.3923 12.1111 13.3923 12.1095C13.3923 12.108 13.3923 12.1065 13.3923 12.105C13.3923 12.1035 13.3923 12.1021 13.3923 12.1006C13.3923 12.0991 13.3923 12.0977 13.3923 12.0962C13.3923 12.0948 13.3923 12.0933 13.3923 12.0919C13.3923 12.0905 13.3923 12.089 13.3923 12.0876C13.3923 12.0862 13.3923 12.0848 13.3923 12.0834C13.3923 12.082 13.3923 12.0807 13.3923 12.0793C13.3923 12.0779 13.3923 12.0766 13.3923 12.0752C13.3923 12.0739 13.3923 12.0725 13.3923 12.0712C13.3923 12.0699 13.3923 12.0685 13.3923 12.0672C13.3923 12.0659 13.3923 12.0646 13.3923 12.0633C13.3923 12.062 13.3923 12.0608 13.3923 12.0595C13.3923 12.0582 13.3923 12.057 13.3923 12.0557C13.3923 12.0545 13.3923 12.0532 13.3923 12.052C13.3923 12.0508 13.3923 12.0495 13.3923 12.0483C13.3923 12.0471 13.3923 12.0459 13.3923 12.0447C13.3923 12.0435 13.3923 12.0423 13.3923 12.0411C13.3923 12.04 13.3923 12.0388 13.3923 12.0376C13.3923 12.0365 13.3923 12.0353 13.3923 12.0342C13.3923 12.0331 13.3923 12.0319 13.3923 12.0308C13.3923 12.0297 13.3923 12.0286 13.3923 12.0275C13.3923 12.0264 13.3923 12.0253 13.3923 12.0242C13.3923 12.0231 13.3923 12.022 13.3923 12.0209C13.3923 12.0199 13.3923 12.0188 13.3923 12.0178C13.3923 12.0167 13.3923 12.0157 13.3923 12.0146C13.3923 12.0136 13.3923 12.0126 13.3923 12.0116C13.3923 12.0106 13.3923 12.0095 13.3923 12.0085C13.3923 12.0075 13.3923 12.0066 13.3923 12.0056C13.3923 12.0046 13.3923 12.0036 13.3923 12.0027C13.3923 12.0017 13.3923 12.0007 13.3923 11.9998C13.3923 11.9988 13.3923 11.9979 13.3923 11.997C13.3923 11.996 13.3923 11.9951 13.3923 11.9942C13.3923 11.9933 13.3923 11.9924 13.3923 11.9915C13.3923 11.9906 13.3923 11.9897 13.3923 11.9888C13.3923 11.9879 13.3923 11.987 13.3923 11.9862C13.3923 11.9853 13.3923 11.9845 13.3923 11.9836C13.3923 11.9828 13.3923 11.9819 13.3923 11.9811C13.3923 11.9802 13.3923 11.9794 13.3923 11.9786C13.3923 11.9778 13.3923 11.977 13.3923 11.9762C13.3923 11.9754 13.3923 11.9746 13.3923 11.9738C13.3923 11.973 13.3923 11.9722 13.3923 11.9714C13.3923 11.9706 13.3923 11.9699 13.3923 11.9691C13.3923 11.9684 13.3923 11.9676 13.3923 11.9669C13.3923 11.9661 13.3923 11.9654 13.3923 11.9647C13.3923 11.9639 13.3923 11.9632 13.3923 11.9625C13.3923 11.9618 13.3923 11.9611 13.3923 11.9604C13.3923 11.9597 13.3923 11.959 13.3923 11.9583C13.3923 11.9576 13.3923 11.9569 13.3923 11.9562C13.3923 11.9556 13.3923 11.9549 13.3923 11.9543C13.3923 11.9536 13.3923 11.9529 13.3923 11.9523C13.3923 11.9517 13.3923 11.951 13.3923 11.9504C13.3923 11.9498 13.3923 11.9491 13.3923 11.9485C13.3923 11.9479 13.3923 11.9473 13.3923 11.9467C13.3923 11.9461 13.3923 11.9455 13.3923 11.9449C13.3923 11.9443 13.3923 11.9437 13.3923 11.9431C13.3923 11.9426 13.3923 11.942 13.3923 11.9414C13.3923 11.9409 13.3923 11.9403 13.3923 11.9397C13.3923 11.9392 13.3923 11.9386 13.3923 11.9381C13.3923 11.9376 13.3923 11.937 13.3923 11.9365C13.3923 11.936 13.3923 11.9355 13.3923 11.9349C13.3923 11.9344 13.3923 11.9339 13.3923 11.9334C13.3923 11.9329 13.3923 11.9324 13.3923 11.9319C13.3923 11.9314 13.3923 11.931 13.3923 11.9305C13.3923 11.93 13.3923 11.9295 13.3923 11.9291C13.3923 11.9286 13.3923 11.9281 13.3923 11.9277C13.3923 11.9272 13.3923 11.9268 13.3923 11.9263C13.3923 11.9259 13.3923 11.9254 13.3923 11.925C13.3923 11.9246 13.3923 11.9242 13.3923 11.9237C13.3923 11.9233 13.3923 11.9229 13.3923 11.9225C13.3923 11.9221 13.3923 11.9217 13.3923 11.9213C13.3923 11.9209 13.3923 11.9205 13.3923 11.9201C13.3923 11.9197 13.3923 11.9193 13.3923 11.9189C13.3923 11.9186 13.3923 11.9182 13.3923 11.9178C13.3923 11.9174 13.3923 11.9171 13.3923 11.9167C13.3923 11.9164 13.3923 11.916 13.3923 11.9157C13.3923 11.9153 13.3923 11.915 13.3923 11.9146C13.3923 11.9143 13.3923 11.914 13.3923 11.9136C13.3923 11.9133 13.3923 11.913 13.3923 11.9127C13.3923 11.9124 13.3923 11.912 13.3923 11.9117C13.3923 11.9114 13.3923 11.9111 13.3923 11.9108C13.3923 11.9105 13.3923 11.9102 13.3923 11.9099C13.3923 11.9097 13.3923 11.9094 13.3923 11.9091C13.3923 11.9088 13.3923 11.9085 13.3923 11.9083C13.3923 11.908 13.3923 11.9077 13.3923 11.9075C13.3923 11.9072 13.3923 11.9069 13.3923 11.9067C13.3923 11.9064 13.3923 11.9062 13.3923 11.9059C13.3923 11.9057 13.3923 11.9055 13.3923 11.9052C13.3923 11.905 13.3923 11.9047 13.3923 11.9045C13.3923 11.9043 13.3923 11.9041 13.3923 11.9038C13.3923 11.9036 13.3923 11.9034 13.3923 11.9032C13.3923 11.903 13.3923 11.9028 13.3923 11.9026C13.3923 11.9024 13.3923 11.9022 13.3923 11.902C13.3923 11.9018 13.3923 11.9016 13.3923 11.9014C13.3923 11.9012 13.3923 11.901 13.3923 11.9008C13.3923 11.9006 13.3923 11.9005 13.3923 11.9003C13.3923 11.9001 13.3923 11.8999 13.3923 11.8998C13.3923 11.8996 13.3923 11.8994 13.3923 11.8993C13.3923 11.8991 13.3923 11.899 13.3923 11.8988C13.3923 11.8987 13.3923 11.8985 13.3923 11.8984C13.3923 11.8982 13.3923 11.8981 13.3923 11.8979C13.3923 11.8978 13.3923 11.8976 13.3923 11.8975C13.3923 11.8974 13.3923 11.8972 13.3923 11.8971C13.3923 11.897 13.3923 11.8969 13.3923 11.8967C13.3923 11.8966 13.3923 11.8965 13.3923 11.8964C13.3923 11.8963 13.3923 11.8961 13.3923 11.896C13.3923 11.8959 13.3923 11.8958 13.3923 11.8957C13.3923 11.8956 13.3923 11.8955 13.3923 11.8954C13.3923 11.8953 13.3923 11.8952 13.3923 11.8951C13.3923 11.895 13.3923 11.8949 13.3923 11.8948C13.3923 11.8947 13.3923 11.8947 13.3923 11.8946C13.3923 11.8945 13.3923 11.8944 13.3923 11.8943C13.3923 11.8942 13.3923 11.8942 13.3923 11.8941C13.3923 11.894 13.3923 11.8939 13.3923 11.8939C13.3923 11.8938 13.3923 11.8937 13.3923 11.8937C13.3923 11.8936 13.3923 11.8935 13.3923 11.8935C13.3923 11.8934 13.3923 11.8934 13.3923 11.8933C13.3923 11.8932 13.3923 11.8932 13.3923 11.8931C13.3923 11.8931 13.3923 11.893 13.3923 11.893C13.3923 11.8929 13.3923 11.8929 13.3923 11.8928C13.3923 11.8928 13.3923 11.8928 13.3923 11.8927C13.3923 11.8927 13.3923 11.8926 13.3923 11.8926C13.3923 11.8926 13.3923 11.8925 13.3923 11.8925C13.3923 11.8924 13.3923 11.8924 13.3923 11.8924C13.3923 11.8923 13.3923 11.8923 13.3923 11.8923C13.3923 11.8923 13.3923 11.8922 13.3923 11.8922C13.3923 11.8922 13.3923 11.8922 13.3923 11.8921C13.3923 11.8921 13.3923 11.8921 13.3923 11.8921C13.3923 11.892 13.3923 11.892 13.3923 11.892C13.3923 11.892 13.3923 11.892 13.3923 11.892C13.3923 11.8919 13.3923 11.8919 13.3923 11.8919C13.3923 11.8919 13.3923 11.8919 13.3923 11.8919C13.3923 11.8919 13.3923 11.8918 13.3923 11.8918C13.3923 11.8918 13.3923 11.8918 13.3923 11.8918C13.3923 11.8918 13.3923 11.8918 13.3923 11.8918C13.3923 11.8918 13.3923 11.8918 13.3923 11.8918C13.3923 11.8918 13.3923 11.8917 13.3923 11.8917C13.3923 11.8917 13.3923 11.8917 13.3923 11.8917C13.3923 11.8917 13.3923 11.8917 13.3923 11.8917C13.3923 11.8917 13.3923 11.8917 13.3923 11.8917C13.3923 11.8917 13.3923 11.8917 13.3923 11.8917C13.3923 11.8917 13.3923 11.8917 13.3923 11.8917C13.3923 11.8917 13.3923 11.8917 13.3923 11.8917H11.8923ZM13.3923 11.8917V2.10004H10.3923V11.8917H13.3923Z" fill="#CE0A9C"/>
</svg>
