<svg width="34" height="34" viewBox="0 0 34 34" fill="none" xmlns="http://www.w3.org/2000/svg">
<path d="M21.201 11.8683C21.5897 11.7251 21.7887 11.2939 21.6455 10.9052C21.5023 10.5166 21.0711 10.3176 20.6825 10.4607L21.201 11.8683ZM7.28488 16.1956L7.53594 16.9023L7.54414 16.8993L7.28488 16.1956ZM6.65624 16.9982L5.90994 16.9237L5.90994 16.9237L6.65624 16.9982ZM7.11399 17.9091L6.72831 18.5524C6.77123 18.5781 6.81662 18.5995 6.8638 18.6162L7.11399 17.9091ZM13.2899 20.8901C13.6804 21.0283 14.109 20.8238 14.2471 20.4333C14.3853 20.0428 14.1808 19.6142 13.7903 19.4761L13.2899 20.8901ZM21.6825 11.2815C21.7472 10.8724 21.4679 10.4883 21.0587 10.4237C20.6496 10.3591 20.2655 10.6384 20.2009 11.0475L21.6825 11.2815ZM18.6712 25.5404L17.9303 25.4234L17.929 25.432L18.6712 25.5404ZM18.0066 26.3135L18.2252 27.0309L18.2252 27.0309L18.0066 26.3135ZM17.0238 26.0422L16.3792 26.4255C16.4048 26.4685 16.4346 26.5089 16.4682 26.546L17.0238 26.0422ZM14.1848 19.7998C13.9731 19.4438 13.5128 19.3267 13.1568 19.5384C12.8008 19.7501 12.6838 20.2104 12.8955 20.5664L14.1848 19.7998ZM21.5215 11.6403C21.7843 11.3201 21.7377 10.8475 21.4175 10.5848C21.0973 10.322 20.6248 10.3685 20.362 10.6887L21.5215 11.6403ZM12.9604 19.7073C12.6976 20.0275 12.7441 20.5001 13.0643 20.7628C13.3845 21.0256 13.8571 20.9791 14.1199 20.6589L12.9604 19.7073ZM20.6825 10.4607L7.02562 15.4918L7.54414 16.8993L21.201 11.8683L20.6825 10.4607ZM7.03383 15.4888C6.41308 15.7093 5.97531 16.2682 5.90994 16.9237L7.40254 17.0726C7.4103 16.9948 7.46225 16.9285 7.53592 16.9023L7.03383 15.4888ZM5.90994 16.9237C5.84457 17.5793 6.16333 18.2136 6.72831 18.5524L7.49966 17.2659C7.43261 17.2257 7.39478 17.1504 7.40254 17.0726L5.90994 16.9237ZM6.8638 18.6162L13.2899 20.8901L13.7903 19.4761L7.36418 17.2021L6.8638 18.6162ZM20.2009 11.0475L17.9303 25.4234L19.412 25.6574L21.6825 11.2815L20.2009 11.0475ZM17.929 25.432C17.9177 25.5094 17.8628 25.5733 17.788 25.596L18.2252 27.0309C18.8553 26.839 19.3181 26.3006 19.4133 25.6487L17.929 25.432ZM17.788 25.596C17.7132 25.6188 17.632 25.5964 17.5795 25.5385L16.4682 26.546C16.9106 27.034 17.595 27.2229 18.2252 27.0309L17.788 25.596ZM17.6685 25.6589L14.1848 19.7998L12.8955 20.5664L16.3792 26.4255L17.6685 25.6589ZM20.362 10.6887L12.9604 19.7073L14.1199 20.6589L21.5215 11.6403L20.362 10.6887Z" fill="white"/>
</svg>
