<svg width="24" height="24" viewBox="0 0 24 24" fill="none" xmlns="http://www.w3.org/2000/svg">
<g clip-path="url(#clip0_471_3714)">
<path d="M22.5555 13.6619L20.6555 6.82593C20.0986 4.82327 18.8882 3.06422 17.2168 1.8284C15.5454 0.592587 13.5089 -0.049079 11.4309 0.00540109C9.35299 0.0598812 7.35288 0.807381 5.74853 2.12908C4.14419 3.45078 3.02767 5.27084 2.57647 7.29993L1.10547 13.9149C0.942986 14.6459 0.946742 15.404 1.11646 16.1333C1.28618 16.8625 1.61753 17.5444 2.08605 18.1285C2.55457 18.7126 3.14829 19.184 3.82338 19.5079C4.49847 19.8318 5.23769 20 5.98647 19.9999H7.10047C7.32998 21.1302 7.9432 22.1464 8.83621 22.8763C9.72922 23.6062 10.8471 24.0049 12.0005 24.0049C13.1538 24.0049 14.2717 23.6062 15.1647 22.8763C16.0577 22.1464 16.671 21.1302 16.9005 19.9999H17.7385C18.5093 20 19.2697 19.8218 19.9602 19.4794C20.6508 19.1369 21.2528 18.6394 21.7193 18.0258C22.1858 17.4122 22.504 16.699 22.6493 15.942C22.7945 15.185 22.7627 14.4046 22.5565 13.6619H22.5555ZM12.0005 21.9999C11.3822 21.9974 10.7798 21.8039 10.2758 21.4458C9.7717 21.0878 9.39055 20.5828 9.18447 19.9999H14.8165C14.6104 20.5828 14.2292 21.0878 13.7252 21.4458C13.2211 21.8039 12.6187 21.9974 12.0005 21.9999V21.9999ZM20.1265 16.8149C19.8478 17.1846 19.4868 17.4842 19.0721 17.6899C18.6574 17.8956 18.2004 18.0018 17.7375 17.9999H5.98647C5.53725 17.9999 5.09379 17.8989 4.68881 17.7045C4.28383 17.5101 3.92768 17.2273 3.64663 16.8768C3.36559 16.5264 3.16683 16.1173 3.06503 15.6798C2.96323 15.2423 2.96099 14.7874 3.05847 14.3489L4.52847 7.73293C4.88282 6.13914 5.75978 4.70954 7.01993 3.67138C8.28007 2.63323 9.85109 2.04611 11.4832 2.00335C13.1154 1.96059 14.715 2.46465 16.0278 3.4354C17.3406 4.40615 18.2912 5.78788 18.7285 7.36093L20.6285 14.1969C20.754 14.6423 20.774 15.1108 20.6869 15.5653C20.5997 16.0197 20.4079 16.4476 20.1265 16.8149V16.8149Z" fill="#B1B1B1"/>
</g>
<defs>
<clipPath id="clip0_471_3714">
<rect width="24" height="24" fill="white"/>
</clipPath>
</defs>
</svg>
