<svg width="15" height="19" viewBox="0 0 15 19" fill="none" xmlns="http://www.w3.org/2000/svg">
<path d="M2.14677 0.5C0.95861 0.5 -0.00537109 1.50781 -0.00537109 2.75V16.25C-0.00537109 17.4922 0.95861 18.5 2.14677 18.5H3.58154C4.7697 18.5 5.73368 17.4922 5.73368 16.25V2.75C5.73368 1.50781 4.7697 0.5 3.58154 0.5H2.14677ZM10.7554 0.5C9.56719 0.5 8.60321 1.50781 8.60321 2.75V16.25C8.60321 17.4922 9.56719 18.5 10.7554 18.5H12.1901C13.3783 18.5 14.3423 17.4922 14.3423 16.25V2.75C14.3423 1.50781 13.3783 0.5 12.1901 0.5H10.7554Z" fill="#919191"/>
</svg>
