<svg width="16" height="19" viewBox="0 0 16 19" fill="none" xmlns="http://www.w3.org/2000/svg">
<path d="M3.32174 18.1522C2.89587 18.5224 2.29966 18.6068 1.7931 18.3584C1.28654 18.11 0.968262 17.5804 0.968262 16.9993V2.00201C0.968262 1.42087 1.29102 0.891276 1.7931 0.642884C2.29517 0.394492 2.89139 0.474165 3.32174 0.849096L11.9287 8.34773L12.4443 8.79764V2.00201C12.4443 1.17247 13.0853 0.502284 13.8788 0.502284C14.6722 0.502284 15.3133 1.17247 15.3133 2.00201V16.9993C15.3133 17.8288 14.6722 18.499 13.8788 18.499C13.0853 18.499 12.4443 17.8288 12.4443 16.9993V10.2036L11.9287 10.6536L3.32174 18.1522Z" fill="#919191"/>
</svg>
