<svg width="15" height="19" viewBox="0 0 15 19" fill="none" xmlns="http://www.w3.org/2000/svg">
<path d="M12.0152 18.1522C12.4411 18.5224 13.0373 18.6068 13.5439 18.3584C14.0504 18.11 14.3687 17.5804 14.3687 16.9993V2.00201C14.3687 1.42087 14.0459 0.891276 13.5439 0.642884C13.0418 0.394492 12.4456 0.474165 12.0152 0.849096L3.40821 8.34772L2.89268 8.79764V2.00201C2.89268 1.17247 2.25164 0.502284 1.45818 0.502284C0.664724 0.502284 0.0236816 1.17247 0.0236816 2.00201V16.9993C0.0236816 17.8288 0.664724 18.499 1.45818 18.499C2.25164 18.499 2.89268 17.8288 2.89268 16.9993V10.2036L3.40821 10.6536L12.0152 18.1522Z" fill="#919191"/>
</svg>
