<svg width="20" height="18" viewBox="0 0 20 18" fill="none" xmlns="http://www.w3.org/2000/svg">
<path fill-rule="evenodd" clip-rule="evenodd" d="M1.91244 8.38472C2.98508 8.38472 3.84192 8.35132 3.84192 7.41681L3.83674 6.92585C3.83674 6.92585 3.57117 5.53425 5.7022 5.53425L14.3312 5.58617V7.57143C14.7497 7.93485 15.4285 7.93485 15.8469 7.57143L19.1801 4.66859C19.5973 4.30291 19.5973 3.71151 19.1801 3.34809L15.8469 0.272565C15.4285 -0.0908549 14.7497 -0.0908549 14.3312 0.272565V2.35489C14.1227 2.30185 5.97165 2.27137 5.97165 2.27137C1.16421 2.27137 0.112305 5.01282 0.112305 6.11663V7.28025C0.112305 8.21475 0.839802 8.38472 1.91244 8.38472Z" fill="#919191"/>
<path fill-rule="evenodd" clip-rule="evenodd" d="M17.6427 9.55945C16.5701 9.55945 15.607 9.67862 15.607 10.6131L15.6096 11.6932C15.5513 12.0962 14.774 12.3591 13.634 12.3591H5.16304L5.16045 10.5996C4.74331 10.2362 4.06449 10.2362 3.64477 10.5996L0.312853 13.5024C-0.104284 13.8681 -0.104284 14.4595 0.312853 14.8229L3.64477 17.7258C4.06449 18.0915 4.74331 18.0915 5.16045 17.7258L5.16304 15.6367H13.634C18.4415 15.6367 19.4934 12.8806 19.4934 11.7756V10.612C19.4934 9.67862 18.7154 9.55945 17.6427 9.55945Z" fill="#919191"/>
</svg>
