<svg width="20" height="20" viewBox="0 0 20 20" fill="none" xmlns="http://www.w3.org/2000/svg">
<g clip-path="url(#clip0_25_4662)">
<path d="M19.9769 9.29604C19.8097 6.77003 18.6972 4.42511 16.8439 2.69312C14.9858 0.956404 12.5552 0 9.99989 0C7.44455 0 5.01389 0.956443 3.15573 2.6932C1.30257 4.42519 0.190146 6.77014 0.0231934 9.29619C0.0219043 9.31615 0.0212402 9.33611 0.0212402 9.35608V11.8355C0.0212402 12.3366 0.427411 12.7427 0.928387 12.7427C1.42932 12.7427 1.83553 12.3366 1.83553 11.8355V9.38678C2.13143 5.13804 5.71197 1.81433 9.99985 1.81433C14.2876 1.81433 17.8683 5.138 18.1644 9.38666V11.8355C18.1644 12.3366 18.5706 12.7427 19.0716 12.7427C19.5725 12.7427 19.9787 12.3366 19.9787 11.8355V9.35596C19.9788 9.33596 19.9781 9.316 19.9769 9.29604Z" fill="#0A0A0A"/>
<path d="M19.9768 9.29604C19.8097 6.77003 18.6971 4.42511 16.8439 2.69312C14.9858 0.956443 12.5552 0 10 0V1.81433C14.2877 1.81441 17.8683 5.138 18.1645 9.38666V11.8355C18.1645 12.3366 18.5706 12.7427 19.0716 12.7427C19.5726 12.7427 19.9788 12.3366 19.9788 11.8355V9.35596C19.9788 9.33596 19.9781 9.316 19.9768 9.29604Z" fill="#0A0A0A"/>
<path d="M5.67025 11.3044C5.55732 10.9319 4.98453 10.9284 4.57512 10.9284H0.946453C0.445439 10.9284 0.0393066 11.3346 0.0393066 11.8356L0.0393066 18.4881C0.0393066 18.9891 0.821449 20 1.32242 20L4.57512 20C4.98453 20 5.53934 19.9379 5.65231 19.5653C6.02485 19.4524 6.08703 18.8974 6.08703 18.4881V12.4403C6.08711 12.0309 6.04279 11.4172 5.67025 11.3044Z" fill="#0A0A0A"/>
<path d="M19.0717 10.9283H15.4431C15.0336 10.9283 14.4609 10.9318 14.3479 11.3043C13.9754 11.4172 13.9312 12.0308 13.9312 12.4403V18.4881C13.9312 18.8975 13.9754 19.4523 14.3479 19.5652C14.4608 19.9377 15.0336 20 15.4431 20L18.2609 20C18.7619 20 19.9789 18.9891 19.9789 18.4881V11.8355C19.9789 11.3345 19.5726 10.9283 19.0717 10.9283Z" fill="#0A0A0A"/>
</g>
<defs>
<clipPath id="clip0_25_4662">
<rect width="20" height="20" fill="white"/>
</clipPath>
</defs>
</svg>
