<svg width="20" height="19" viewBox="0 0 20 19" fill="none" xmlns="http://www.w3.org/2000/svg">
<path fill-rule="evenodd" clip-rule="evenodd" d="M1.9122 8.63472C2.98483 8.63472 3.84168 8.60132 3.84168 7.66681L3.8365 7.17585C3.8365 7.17585 3.57093 5.78425 5.70195 5.78425L14.331 5.83617V7.82143C14.7494 8.18485 15.4282 8.18485 15.8467 7.82143L19.1799 4.91859C19.597 4.55291 19.597 3.96151 19.1799 3.59809L15.8467 0.522565C15.4282 0.159145 14.7494 0.159145 14.331 0.522565V2.60489C14.1224 2.55185 5.97141 2.52137 5.97141 2.52137C1.16397 2.52137 0.112061 5.26282 0.112061 6.36663V7.53025C0.112061 8.46475 0.839558 8.63472 1.9122 8.63472Z" fill="#1E1E1E"/>
<path fill-rule="evenodd" clip-rule="evenodd" d="M17.6427 9.80942C16.5701 9.80942 15.607 9.92859 15.607 10.8631L15.6096 11.9432C15.5513 12.3461 14.774 12.6091 13.634 12.6091H5.16304L5.16045 10.8496C4.74331 10.4861 4.06449 10.4861 3.64477 10.8496L0.312853 13.7524C-0.104284 14.1181 -0.104284 14.7095 0.312853 15.0729L3.64477 17.9757C4.06449 18.3414 4.74331 18.3414 5.16045 17.9757L5.16304 15.8866H13.634C18.4415 15.8866 19.4934 13.1305 19.4934 12.0256V10.862C19.4934 9.92859 18.7154 9.80942 17.6427 9.80942Z" fill="#1E1E1E"/>
</svg>
