<svg width="18" height="18" viewBox="0 0 18 18" fill="none" xmlns="http://www.w3.org/2000/svg">
<g clip-path="url(#clip0_69_488)">
<path d="M10.8299 5.68405L2.78613 14.2917C2.78613 14.2917 5.35113 17.3728 9.44754 17.1872C12.2657 17.0592 13.956 16.0087 15.3397 14.4197C17.03 12.4776 17.4111 9.62858 17.3127 8.32218C17.1847 6.63186 16.0316 4.42827 15.1344 3.76171C14.2372 3.09514 10.8299 5.68405 10.8299 5.68405Z" fill="#D7CCC6"/>
<path d="M3.52842 2.94329C0.862167 5.31563 -0.899865 10.7016 2.78592 14.2917C4.75889 16.2127 11.2136 16.3097 14.2876 12.2878C15.7319 10.3992 16.8906 7.44469 16.1073 5.09485C15.7994 4.17235 14.9725 3.51 14.237 2.89125C10.7017 -0.0801513 6.78248 0.0478175 3.52842 2.94329Z" fill="#F1EDEC"/>
<path d="M9.79688 17.4501L9.24984 17.4051C9.2611 17.3531 10.4002 12.2344 7.07016 8.87905C5.59078 7.38842 4.22813 6.69936 3.01875 6.83295C1.75875 6.97077 0.920625 8.13795 0.915 8.1492L0.65625 7.62467C0.688594 7.57405 1.43109 6.44202 2.95828 6.27467C4.34766 6.1242 5.865 6.8667 7.47094 8.48389C11.0203 12.0628 9.8475 17.228 9.79688 17.4501Z" fill="#979892"/>
<path d="M17.1559 8.55141C17.1179 8.5261 13.4209 5.90907 11.5126 4.28063C9.79695 2.81813 7.52305 0.77485 7.50195 0.753756L7.89711 0.506256C7.9182 0.525944 10.1077 2.46797 11.8177 3.92626C13.7091 5.53922 17.2543 8.08032 17.2923 8.10563L17.1559 8.55141Z" fill="#979892"/>
<path d="M9.61171 2.28515C9.54139 2.35968 9.35999 2.90249 9.28968 3.20484C9.24889 3.37781 9.27421 3.6464 9.49077 3.68156C9.73264 3.72234 9.82405 3.58312 9.89858 3.3764C9.97311 3.16968 10.1053 2.79562 10.1053 2.79562C10.1053 2.79562 10.4906 2.66765 10.6805 2.6114C10.9336 2.53687 11.0081 2.43281 11.0137 2.30062C11.0194 2.16843 10.8816 1.92093 10.4555 2.01937C10.1925 2.08124 9.71436 2.17546 9.61171 2.28515Z" fill="#ED520A"/>
<path d="M8.36859 1.2361C8.30812 1.28532 8.01843 1.98985 7.97202 2.07845C7.92421 2.16704 7.89468 2.39345 8.06062 2.48907C8.22656 2.5847 8.40796 2.42016 8.47124 2.27954C8.53312 2.13891 8.71452 1.72126 8.71452 1.72126C8.71452 1.72126 9.15749 1.69735 9.3164 1.67485C9.51046 1.64813 9.65812 1.5947 9.64687 1.3711C9.63562 1.14751 9.27421 1.16438 8.90156 1.18829C8.66671 1.20235 8.40937 1.20235 8.36859 1.2361Z" fill="#ED520A"/>
<path d="M7.501 0.423283C7.39975 0.469689 7.006 0.871877 6.95397 0.940783C6.90193 1.00969 6.86256 1.15875 6.99475 1.26281C7.12693 1.36688 7.31115 1.27969 7.40818 1.21078C7.50662 1.14188 7.68943 0.916877 7.68943 0.916877C7.68943 0.916877 8.06912 0.922502 8.17881 0.928127C8.2885 0.933752 8.43193 0.84797 8.43193 0.675002C8.43193 0.502033 8.23084 0.433127 8.0635 0.427502C7.89756 0.423283 7.56428 0.393752 7.501 0.423283Z" fill="#ED520A"/>
<path d="M11.2023 3.60844C11.1095 3.68156 10.8817 4.49859 10.8339 4.66313C10.786 4.82766 10.7087 5.17922 10.952 5.25516C11.2079 5.33531 11.3795 5.22141 11.4554 4.93172C11.5257 4.66453 11.686 4.10625 11.686 4.10625C11.686 4.10625 12.3006 3.87984 12.4356 3.82781C12.5706 3.77578 12.7267 3.60422 12.6324 3.39328C12.5382 3.18234 12.2696 3.20906 12.1374 3.25688C12.1389 3.25828 11.2923 3.53813 11.2023 3.60844Z" fill="#ED520A"/>
<path d="M12.7888 4.96969C12.7242 5.05407 12.5076 5.80922 12.4724 5.96532C12.4373 6.12001 12.4387 6.36751 12.6848 6.43079C12.8859 6.48282 13.0476 6.37876 13.0926 6.18891C13.1685 5.87391 13.3345 5.41829 13.3345 5.41829C13.3345 5.41829 13.7718 5.17079 13.9378 5.08501C14.1051 4.99922 14.1796 4.76297 14.0756 4.59563C13.9715 4.42829 13.7367 4.45219 13.506 4.53235C13.2768 4.61391 12.8465 4.89516 12.7888 4.96969Z" fill="#ED520A"/>
<path d="M14.3619 6.15657C14.2803 6.27892 14.2578 7.00173 14.2578 7.11142C14.2578 7.2211 14.338 7.50798 14.5967 7.50798C14.8273 7.50798 14.9244 7.26048 14.9244 7.13392C14.9244 7.00735 14.9525 6.51798 14.9525 6.51798C14.9525 6.51798 15.2492 6.36048 15.3547 6.28735C15.4981 6.18892 15.6598 6.0061 15.5558 5.81064C15.4517 5.61517 15.1761 5.67282 14.9975 5.74735C14.8723 5.8022 14.4195 6.07079 14.3619 6.15657Z" fill="#ED520A"/>
<path d="M15.8025 7.32515C15.7519 7.44749 15.7491 8.12952 15.7603 8.31374C15.7716 8.49796 15.9276 8.65827 16.1287 8.65264C16.3298 8.64702 16.4226 8.45718 16.4156 8.30811C16.4086 8.15905 16.4269 7.66968 16.4269 7.66968C16.4269 7.66968 16.6941 7.48405 16.7658 7.43343C16.8755 7.3589 16.898 7.1803 16.8009 7.04249C16.7025 6.90468 16.5014 6.8639 16.3116 6.97358C16.1217 7.08327 15.8222 7.27593 15.8025 7.32515Z" fill="#ED520A"/>
<path d="M16.8693 8.08876C16.7779 8.24626 16.8637 8.96344 16.8637 9.03235C16.8637 9.10126 16.8862 9.33751 17.1224 9.33751C17.3291 9.33751 17.398 9.21094 17.4037 9.09563C17.4093 8.98032 17.3924 8.33063 17.3924 8.33063C17.3924 8.33063 17.5935 8.26735 17.5077 8.00297C17.4219 7.74001 16.9649 7.92563 16.8693 8.08876Z" fill="#ED520A"/>
<path d="M8.80875 17.0733C8.73 17.2125 8.74688 17.3953 9.04359 17.5444C9.34172 17.6934 9.40219 17.7019 9.46547 17.7061C9.57656 17.7117 9.83109 17.6259 9.99844 17.5331C10.132 17.4586 10.2966 17.3475 10.1784 17.1309C10.0688 16.9284 9.4725 17.1675 9.4725 17.1675C9.4725 17.1675 8.94516 16.8328 8.80875 17.0733Z" fill="#ED520A"/>
<path d="M8.77106 15.8034C8.60653 15.9553 8.71481 16.1817 9.04949 16.3983C9.34762 16.5909 9.51496 16.733 9.64434 16.733C9.77371 16.733 10.2617 16.4869 10.3882 16.4166C10.5809 16.3111 10.6428 16.1001 10.4937 15.9511C10.3447 15.802 10.1337 15.9567 10.0282 16.013C9.92278 16.0692 9.6809 16.1859 9.6809 16.1859C9.6809 16.1859 9.36449 15.9567 9.25903 15.8822C9.15356 15.8076 8.93278 15.6544 8.77106 15.8034Z" fill="#ED520A"/>
<path d="M8.6109 14.2453C8.4759 14.4478 8.55465 14.6601 8.87668 14.8401C9.19871 15.0201 9.6023 15.1805 9.73168 15.2001C9.86105 15.2198 10.3701 14.7783 10.4686 14.6855C10.567 14.5926 10.8398 14.3016 10.6668 14.1033C10.4601 13.867 10.2393 14.047 10.0411 14.1834C9.88918 14.2875 9.71199 14.4183 9.71199 14.4183C9.71199 14.4183 9.37168 14.3255 9.1734 14.2326C8.97652 14.1398 8.73465 14.0597 8.6109 14.2453Z" fill="#ED520A"/>
<path d="M9.41314 12.593C9.41314 12.593 9.76611 12.2273 9.89689 12.1036C10.0277 11.9798 10.2499 11.8561 10.4172 12.0544C10.5845 12.2527 10.4116 12.5508 10.2555 12.6928C10.0994 12.8348 9.70423 13.3003 9.59173 13.3186C9.47923 13.3369 8.65658 13.1878 8.42033 13.0641C8.28111 12.9909 8.06033 12.8531 8.18548 12.5747C8.28814 12.3441 8.52017 12.3708 8.69314 12.4073C8.86611 12.4439 9.41314 12.593 9.41314 12.593Z" fill="#ED520A"/>
<path d="M8.57265 10.6045C8.57265 10.6045 8.87077 9.99702 8.96921 9.78046C9.06906 9.56389 9.19281 9.36561 9.47124 9.46405C9.74968 9.56249 9.6653 9.82546 9.57109 10.0772C9.45999 10.3753 9.14921 11.1614 9.0128 11.2303C8.84687 11.3133 7.97218 11.3414 7.66843 11.3358C7.53202 11.333 7.37734 11.2359 7.38296 11.0503C7.38859 10.8647 7.5039 10.7353 7.80484 10.6847C7.99046 10.6537 8.57265 10.6045 8.57265 10.6045Z" fill="#ED520A"/>
<path d="M7.19721 8.59642C7.16627 8.6147 6.52643 8.87204 6.36612 8.91845C6.13127 8.98595 6.04971 9.2222 6.10033 9.38954C6.15096 9.55689 6.37877 9.64407 6.64596 9.56251C6.91174 9.48235 7.71752 9.27704 7.79205 9.16032C7.86658 9.0436 7.99033 8.21251 8.01565 7.99595C8.04096 7.77939 8.04658 7.50657 7.76111 7.46298C7.47565 7.41939 7.35893 7.61204 7.33362 7.81595C7.31815 7.9411 7.19721 8.59642 7.19721 8.59642Z" fill="#ED520A"/>
<path d="M5.47269 7.20561C5.47269 7.20561 5.52191 6.64171 5.54019 6.47436C5.55847 6.30702 5.62035 6.08343 5.91144 6.10311C6.20253 6.1228 6.1716 6.49968 6.1716 6.74155C6.1716 6.98343 6.11535 7.61483 6.07878 7.64577C6.04222 7.67671 5.65128 7.98046 5.44738 8.11686C5.24347 8.25327 4.91441 8.34468 4.79066 8.15905C4.66691 7.97343 4.84691 7.68374 5.04519 7.53468C5.24347 7.38561 5.47269 7.20561 5.47269 7.20561Z" fill="#ED520A"/>
<path d="M3.69122 5.3086C3.40435 5.38032 3.41841 5.67985 3.5056 5.9836C3.59279 6.28735 3.64201 6.53485 3.64201 6.53485C3.64201 6.53485 3.4381 6.85125 3.35091 6.96235C3.26372 7.07344 2.99091 7.4025 3.27638 7.63735C3.56185 7.87219 3.84029 7.45735 3.94576 7.3336C4.04841 7.21407 4.38591 6.76407 4.38591 6.70219C4.38591 6.52219 4.20029 5.85985 4.15669 5.71641C4.1131 5.57297 4.01326 5.22844 3.69122 5.3086Z" fill="#ED520A"/>
<path d="M1.63283 5.78251C1.50487 5.8697 1.44018 6.13548 1.6019 6.3647C1.73408 6.55314 1.83112 6.74861 1.83112 6.74861C1.83112 6.74861 1.65815 7.25064 1.58924 7.41236C1.52033 7.57408 1.44018 7.92704 1.72565 8.03814C2.01112 8.14923 2.2094 7.83986 2.28393 7.61064C2.35846 7.38142 2.55674 6.86673 2.56237 6.71204C2.56658 6.60939 2.29658 6.10454 2.17846 5.93158C2.06033 5.75861 1.82549 5.65314 1.63283 5.78251Z" fill="#ED520A"/>
<path d="M1.16164 7.54875C1.19398 7.69641 1.11242 8.11266 1.03085 8.46563C1.00695 8.56969 0.971791 8.80313 0.677885 8.73141C0.423354 8.66953 0.528823 8.3475 0.55976 8.18578C0.578041 8.09016 0.652573 7.7836 0.652573 7.7836C0.652573 7.7836 0.517573 7.71047 0.521791 7.55438C0.527416 7.35047 0.632885 7.28156 0.800229 7.26891C0.967573 7.25625 1.13632 7.43766 1.16164 7.54875Z" fill="#ED520A"/>
</g>
<defs>
<clipPath id="clip0_69_488">
<rect width="18" height="18" fill="white"/>
</clipPath>
</defs>
</svg>
