<svg width="24" height="25" viewBox="0 0 24 25" fill="none" xmlns="http://www.w3.org/2000/svg">
<path d="M12 18.5L7.8 20.3C7.13333 20.5833 6.5 20.5293 5.9 20.138C5.3 19.7467 5 19.1923 5 18.475V5.5C5 4.95 5.196 4.47933 5.588 4.088C5.98 3.69667 6.45067 3.50067 7 3.5H17C17.55 3.5 18.021 3.696 18.413 4.088C18.805 4.48 19.0007 4.95067 19 5.5V18.475C19 19.1917 18.7 19.746 18.1 20.138C17.5 20.53 16.8667 20.584 16.2 20.3L12 18.5ZM12 16.3L17 18.45V5.5H7V18.45L12 16.3ZM12 5.5H7H17H12Z" fill="#858585"/>
</svg>
