<svg width="82" height="80" viewBox="0 0 82 80" fill="none" xmlns="http://www.w3.org/2000/svg">
<path d="M76.8982 36.2566C76.3699 36.2689 75.8447 36.17 75.357 35.9678C74.8688 35.7652 74.4287 35.463 74.064 35.0801L46.2025 7.2723C45.494 6.51202 45.1084 5.50639 45.1266 4.46734C45.1453 3.42828 45.5662 2.43693 46.3009 1.70205C47.0357 0.967226 48.0272 0.546312 49.0662 0.527969C50.1053 0.509627 51.1106 0.895301 51.8711 1.60376L79.7325 29.4116C80.4838 30.164 80.9052 31.1833 80.9052 32.2459C80.9052 33.309 80.4838 34.3282 79.7325 35.0801C79.3624 35.455 78.9207 35.7523 78.4341 35.9545C77.9474 36.1566 77.425 36.2593 76.8982 36.2566Z" fill="#FAFAFA"/>
<path d="M49.3068 35.9891C48.7801 35.9918 48.2576 35.8891 47.771 35.687C47.2843 35.4848 46.8426 35.1875 46.4726 34.8126C45.7217 34.0607 45.2998 33.0415 45.2998 31.9784C45.2998 30.9158 45.7217 29.896 46.4726 29.1441L74.334 1.33621C74.7024 0.957803 75.1436 0.65705 75.6302 0.451752C76.1169 0.246401 76.6399 0.140625 77.1682 0.140625C77.6966 0.140625 78.2196 0.246401 78.7062 0.451752C79.1929 0.65705 79.634 0.957803 80.0025 1.33621C80.7538 2.0882 81.1752 3.10763 81.1752 4.17048C81.1752 5.23333 80.7538 6.2527 80.0025 7.00475L52.1411 34.8126C51.7726 35.1902 51.3314 35.4891 50.8443 35.6913C50.3571 35.8934 49.8341 35.9945 49.3068 35.9891Z" fill="#FAFAFA"/>
<path d="M18.0752 36.1503C14.5002 36.1503 11.0056 35.0903 8.03316 33.1042C5.06071 31.1181 2.74399 28.2951 1.37589 24.9922C0.00784961 21.6894 -0.350126 18.0551 0.347318 14.5489C1.04476 11.0426 2.76624 7.82194 5.29408 5.2941C7.82199 2.76625 11.0426 1.04472 14.5489 0.347331C18.0551 -0.350114 21.6894 0.0078061 24.9923 1.3759C28.295 2.74395 31.1181 5.06067 33.1043 8.03312C35.0904 11.0056 36.1503 14.5002 36.1503 18.0752C36.1364 22.8646 34.2273 27.4539 30.8406 30.8405C27.454 34.2272 22.8647 36.1364 18.0752 36.1503ZM18.0752 8.02152C16.0868 8.02152 14.143 8.61115 12.4897 9.71588C10.8364 10.8205 9.54774 12.3907 8.78681 14.2278C8.02589 16.0649 7.8268 18.0863 8.21472 20.0365C8.60264 21.9867 9.56014 23.7781 10.9662 25.1841C12.3722 26.5902 14.1636 27.5474 16.1138 27.9357C18.064 28.3234 20.0855 28.1245 21.9225 27.3635C23.7596 26.6025 25.3298 25.314 26.4345 23.6606C27.5392 22.0074 28.1288 20.0636 28.1288 18.0752C28.1288 15.4087 27.0696 12.8516 25.1842 10.9662C23.2988 9.08073 20.7416 8.02152 18.0752 8.02152Z" fill="#FAFAFA"/>
<path d="M18.0752 79.9998C14.5002 79.9998 11.0056 78.9399 8.03316 76.9537C5.06071 74.9676 2.74399 72.1446 1.37589 68.8418C0.00784961 65.5391 -0.350126 61.9048 0.347318 58.3984C1.04476 54.8924 2.76624 51.6715 5.29408 49.1437C7.82199 46.6158 11.0426 44.8944 14.5489 44.1971C18.0551 43.4997 21.6894 43.8575 24.9923 45.2254C28.295 46.5934 31.1181 48.9105 33.1043 51.8827C35.0904 54.855 36.1503 58.3497 36.1503 61.9246C36.1364 66.714 34.2273 71.3034 30.8406 74.6901C27.454 78.0767 22.8647 79.9859 18.0752 79.9998ZM18.0752 51.871C16.0868 51.871 14.143 52.4608 12.4897 53.5657C10.8364 54.67 9.54774 56.2406 8.78681 58.0775C8.02589 59.9144 7.8268 61.9358 8.21472 63.8861C8.60264 65.8364 9.56014 67.6279 10.9662 69.0338C12.3722 70.4397 14.1636 71.3975 16.1138 71.7852C18.064 72.1729 20.0855 71.974 21.9225 71.213C23.7596 70.452 25.3298 69.1638 26.4345 67.5103C27.5392 65.8568 28.1288 63.9134 28.1288 61.9246C28.1288 59.2583 27.0696 56.701 25.1842 54.8159C23.2988 52.9304 20.7416 51.871 18.0752 51.871Z" fill="#FAFAFA"/>
<path d="M63.1016 79.9998C59.5267 79.9998 56.032 78.9399 53.0598 76.9537C50.087 74.9676 47.7704 72.1446 46.4024 68.8418C45.0345 65.5391 44.6762 61.9048 45.3735 58.3984C46.0714 54.8924 47.7928 51.6715 50.3207 49.1437C52.8485 46.6158 56.0689 44.8944 59.5754 44.1971C63.0818 43.4997 66.7161 43.8575 70.0189 45.2254C73.3216 46.5934 76.1446 48.9105 78.1307 51.8827C80.1169 54.855 81.1768 58.3497 81.1768 61.9246C81.1629 66.714 79.2538 71.3034 75.8671 74.6901C72.4804 78.0767 67.891 79.9859 63.1016 79.9998ZM63.1016 51.871C61.1134 51.871 59.1695 52.4608 57.516 53.5657C55.863 54.67 54.5742 56.2406 53.8132 58.0775C53.0523 59.9144 52.8533 61.9358 53.241 63.8861C53.6293 65.8364 54.5865 67.6279 55.9924 69.0338C57.3989 70.4397 59.1898 71.3975 61.1401 71.7852C63.0904 72.1729 65.1118 71.974 66.9487 71.213C68.7862 70.452 70.3563 69.1638 71.4611 67.5103C72.5654 65.8568 73.1553 63.9134 73.1553 61.9246C73.1553 59.2583 72.0959 56.701 70.2108 54.8159C68.3252 52.9304 65.768 51.871 63.1016 51.871Z" fill="#FAFAFA"/>
</svg>
