<svg width="80" height="80" viewBox="0 0 80 80" fill="none" xmlns="http://www.w3.org/2000/svg">
<path d="M76.3636 7.27273C77.3281 7.27273 78.253 6.88961 78.9349 6.20766C79.6169 5.52571 80 4.60079 80 3.63636C80 2.67194 79.6169 1.74702 78.9349 1.06507C78.253 0.383116 77.3281 0 76.3636 0H69.0909C68.1265 0 67.2016 0.383116 66.5196 1.06507C65.8377 1.74702 65.4545 2.67194 65.4545 3.63636V10.9091H58.1818C57.2174 10.9091 56.2925 11.2922 55.6105 11.9742C54.9286 12.6561 54.5455 13.581 54.5455 14.5455V36.3636H50.24C49.4995 34.238 48.1158 32.3955 46.2809 31.0917C44.4461 29.7879 42.2509 29.0875 40 29.0875C37.7491 29.0875 35.5539 29.7879 33.7191 31.0917C31.8842 32.3955 30.5005 34.238 29.76 36.3636H25.4545V14.5455C25.4545 13.581 25.0714 12.6561 24.3895 11.9742C23.7075 11.2922 22.7826 10.9091 21.8182 10.9091H14.5455V3.63636C14.5455 2.67194 14.1623 1.74702 13.4804 1.06507C12.7984 0.383116 11.8735 0 10.9091 0H3.63636C2.67194 0 1.74702 0.383116 1.06507 1.06507C0.383116 1.74702 0 2.67194 0 3.63636C0 4.60079 0.383116 5.52571 1.06507 6.20766C1.74702 6.88961 2.67194 7.27273 3.63636 7.27273H7.27273V21.8182H3.63636C2.67194 21.8182 1.74702 22.2013 1.06507 22.8832C0.383116 23.5652 0 24.4901 0 25.4545C0 26.419 0.383116 27.3439 1.06507 28.0258C1.74702 28.7078 2.67194 29.0909 3.63636 29.0909H10.9091C11.8735 29.0909 12.7984 28.7078 13.4804 28.0258C14.1623 27.3439 14.5455 26.419 14.5455 25.4545V18.1818H18.1818V61.8182H14.5455V54.5455C14.5455 53.581 14.1623 52.6561 13.4804 51.9742C12.7984 51.2922 11.8735 50.9091 10.9091 50.9091H3.63636C2.67194 50.9091 1.74702 51.2922 1.06507 51.9742C0.383116 52.6561 0 53.581 0 54.5455C0 55.5099 0.383116 56.4348 1.06507 57.1168C1.74702 57.7987 2.67194 58.1818 3.63636 58.1818H7.27273V72.7273H3.63636C2.67194 72.7273 1.74702 73.1104 1.06507 73.7923C0.383116 74.4743 0 75.3992 0 76.3636C0 77.3281 0.383116 78.253 1.06507 78.9349C1.74702 79.6169 2.67194 80 3.63636 80H10.9091C11.8735 80 12.7984 79.6169 13.4804 78.9349C14.1623 78.253 14.5455 77.3281 14.5455 76.3636V69.0909H21.8182C22.7826 69.0909 23.7075 68.7078 24.3895 68.0258C25.0714 67.3439 25.4545 66.419 25.4545 65.4545V43.6364H29.76C30.5005 45.762 31.8842 47.6045 33.7191 48.9083C35.5539 50.2121 37.7491 50.9125 40 50.9125C42.2509 50.9125 44.4461 50.2121 46.2809 48.9083C48.1158 47.6045 49.4995 45.762 50.24 43.6364H54.5455V65.4545C54.5455 66.419 54.9286 67.3439 55.6105 68.0258C56.2925 68.7078 57.2174 69.0909 58.1818 69.0909H65.4545V76.3636C65.4545 77.3281 65.8377 78.253 66.5196 78.9349C67.2016 79.6169 68.1265 80 69.0909 80H76.3636C77.3281 80 78.253 79.6169 78.9349 78.9349C79.6169 78.253 80 77.3281 80 76.3636C80 75.3992 79.6169 74.4743 78.9349 73.7923C78.253 73.1104 77.3281 72.7273 76.3636 72.7273H72.7273V58.1818H76.3636C77.3281 58.1818 78.253 57.7987 78.9349 57.1168C79.6169 56.4348 80 55.5099 80 54.5455C80 53.581 79.6169 52.6561 78.9349 51.9742C78.253 51.2922 77.3281 50.9091 76.3636 50.9091H69.0909C68.1265 50.9091 67.2016 51.2922 66.5196 51.9742C65.8377 52.6561 65.4545 53.581 65.4545 54.5455V61.8182H61.8182V18.1818H65.4545V25.4545C65.4545 26.419 65.8377 27.3439 66.5196 28.0258C67.2016 28.7078 68.1265 29.0909 69.0909 29.0909H76.3636C77.3281 29.0909 78.253 28.7078 78.9349 28.0258C79.6169 27.3439 80 26.419 80 25.4545C80 24.4901 79.6169 23.5652 78.9349 22.8832C78.253 22.2013 77.3281 21.8182 76.3636 21.8182H72.7273V7.27273H76.3636ZM40 43.6364C39.2808 43.6364 38.5777 43.4231 37.9797 43.0235C37.3817 42.624 36.9157 42.056 36.6404 41.3916C36.3652 40.7271 36.2932 39.996 36.4335 39.2906C36.5738 38.5852 36.9202 37.9373 37.4287 37.4287C37.9373 36.9202 38.5852 36.5738 39.2906 36.4335C39.996 36.2932 40.7271 36.3652 41.3916 36.6404C42.056 36.9157 42.624 37.3817 43.0235 37.9797C43.4231 38.5777 43.6364 39.2808 43.6364 40C43.6364 40.9644 43.2532 41.8893 42.5713 42.5713C41.8893 43.2532 40.9644 43.6364 40 43.6364Z" fill="#0BF89F"/>
</svg>
