<svg width="58" height="50" viewBox="0 0 58 50" fill="none" xmlns="http://www.w3.org/2000/svg">
<path d="M17.0701 3.66071L15.9095 7.14286H7.57303C3.63357 7.14286 0.430664 10.346 0.430664 14.2857V42.8571C0.430664 46.7969 3.63357 50 7.57303 50H50.4272C54.3666 50 57.5696 46.7969 57.5696 42.8571V14.2857C57.5696 10.346 54.3666 7.14286 50.4272 7.14286H42.0907L40.9301 3.66071C40.2047 1.47321 38.1624 0 35.8523 0H22.1479C19.8378 0 17.7955 1.47321 17.0701 3.66071ZM29.0001 17.8571C31.8415 17.8571 34.5665 18.986 36.5757 20.9953C38.5849 23.0046 39.7136 25.7298 39.7136 28.5714C39.7136 31.413 38.5849 34.1383 36.5757 36.1476C34.5665 38.1569 31.8415 39.2857 29.0001 39.2857C26.1587 39.2857 23.4337 38.1569 21.4245 36.1476C19.4153 34.1383 18.2866 31.413 18.2866 28.5714C18.2866 25.7298 19.4153 23.0046 21.4245 20.9953C23.4337 18.986 26.1587 17.8571 29.0001 17.8571Z" fill="#515151"/>
</svg>
