<svg width="24" height="24" viewBox="0 0 24 24" fill="none" xmlns="http://www.w3.org/2000/svg">
<path d="M23.3493 0.262625C23.8227 0.590682 24.0712 1.15775 23.9821 1.72482L20.9821 21.2208C20.9117 21.6754 20.6352 22.0737 20.232 22.2987C19.8289 22.5236 19.3461 22.5518 18.9195 22.3737L13.3132 20.0445L10.1022 23.5172C9.68501 23.9718 9.02875 24.1217 8.45218 23.8968C7.87561 23.6718 7.5006 23.1141 7.5006 22.4955V18.5776C7.5006 18.3901 7.57092 18.212 7.69748 18.0714L15.5539 9.50446C15.8257 9.20921 15.8164 8.75461 15.5351 8.47342C15.2538 8.19223 14.7992 8.17349 14.5038 8.44062L4.96931 16.9092L0.830189 14.8377C0.333306 14.5893 0.014551 14.0926 0.000488236 13.5396C-0.0135745 12.9865 0.277055 12.471 0.755187 12.1945L21.7555 0.197013C22.2571 -0.0888649 22.8758 -0.0607457 23.3493 0.262625Z" fill="#B1B1B1"/>
</svg>
