<svg width="19" height="19" viewBox="0 0 19 19" fill="none" xmlns="http://www.w3.org/2000/svg">
<path d="M5.70141 13.4381C6.6331 13.4381 7.38899 14.1939 7.38899 15.1256V15.6882L9.93793 13.7756C10.2297 13.5576 10.5848 13.4381 10.9505 13.4381H15.8269C16.1362 13.4381 16.3894 13.1849 16.3894 12.8755V2.7501C16.3894 2.44071 16.1362 2.18757 15.8269 2.18757H2.32627C2.01688 2.18757 1.76374 2.44071 1.76374 2.7501V12.8755C1.76374 13.1849 2.01688 13.4381 2.32627 13.4381H5.70141ZM7.38899 17.7976L7.38196 17.8047L7.20265 17.9383L6.60145 18.3883C6.4327 18.5148 6.20417 18.5359 6.0108 18.441C5.81744 18.3461 5.70141 18.1527 5.70141 17.9383V17.1894V16.9644V16.9538V16.8132V15.1256H4.01384H2.32627C1.0852 15.1256 0.0761719 14.1166 0.0761719 12.8755V2.7501C0.0761719 1.50903 1.0852 0.5 2.32627 0.5H15.8269C17.0679 0.5 18.0769 1.50903 18.0769 2.7501V12.8755C18.0769 14.1166 17.0679 15.1256 15.8269 15.1256H10.9505L7.38899 17.7976Z" fill="#919191"/>
</svg>
