<svg width="40" height="40" viewBox="0 0 40 40" fill="none" xmlns="http://www.w3.org/2000/svg">
<circle cx="20" cy="20" r="20" fill="#FAFAFA"/>
<mask id="mask0_1348_643" style="mask-type:alpha" maskUnits="userSpaceOnUse" x="13" y="16" width="15" height="15">
<path d="M13.3252 17.6427H16.0082L22.3498 16.0166L27.3092 16.9922V30.0006H13L13.3252 17.6427Z" fill="#D9D9D9"/>
</mask>
<g mask="url(#mask0_1348_643)">
<path d="M20.114 21.8715C21.1921 21.8715 22.2261 21.4432 22.9884 20.6808C23.7508 19.9185 24.1791 18.8845 24.1791 17.8063C24.1791 16.7282 23.7508 15.6942 22.9884 14.9319C22.2261 14.1695 21.1921 13.7412 20.114 13.7412C19.0358 13.7412 18.0018 14.1695 17.2395 14.9319C16.4771 15.6942 16.0488 16.7282 16.0488 17.8063C16.0488 18.8845 16.4771 19.9185 17.2395 20.6808C18.0018 21.4432 19.0358 21.8715 20.114 21.8715ZM18.6626 23.3959C15.5344 23.3959 13 25.9302 13 29.0585C13 29.5793 13.4224 30.0017 13.9432 30.0017H26.2847C26.8055 30.0017 27.2279 29.5793 27.2279 29.0585C27.2279 25.9302 24.6936 23.3959 21.5653 23.3959H18.6626Z" fill="#2E2E2E"/>
</g>
<path d="M18.3658 12.6824L19.5853 12.4385L21.1301 13.9832L22.0244 16.0158L17.7153 17.0727L17.3901 14.9589L18.3658 12.6824Z" fill="#1E80BA"/>
<path d="M22.7563 13.0898H23.2442L23.732 14.3907L22.7563 14.2281V13.0898Z" fill="#1E80BA"/>
<path d="M22.5125 15.8538L24.0572 15.1221L27.0654 14.7969L27.3906 14.9595L26.4963 16.0164L24.545 16.3416H22.6751L22.5125 15.8538Z" fill="#1E80BA"/>
<path d="M27.4981 14.7373C27.3761 14.5423 27.1184 14.46 26.8258 14.5226C26.4575 14.6012 24.7224 14.7159 24.2 14.7256L24.1389 14.4976C23.6396 12.6342 21.7173 11.5244 19.8538 12.0237L19.5423 12.1072C19.3652 11.9665 19.1261 11.9084 18.8909 11.9715C18.6557 12.0345 18.4776 12.2043 18.3946 12.4147L18.0831 12.4981C16.2196 12.9974 15.1097 14.9197 15.6091 16.7831L15.8678 17.7488C15.8959 17.8535 16.0035 17.9157 16.1082 17.8876L22.1845 16.2595C23.2361 16.7125 24.4006 16.8046 25.4716 16.5176C26.2981 16.2961 27.0109 15.8632 27.4272 15.3298C27.5808 15.1332 27.6073 14.9117 27.4981 14.7373ZM22.9011 13.1547C23.2229 13.4602 23.4823 13.8375 23.6515 14.2703C23.2773 14.3498 22.901 14.1224 22.8009 13.7487C22.7454 13.5418 22.7842 13.3266 22.9011 13.1547ZM16.1962 17.4575L16.1264 17.1967L16.6353 17.0603C16.74 17.0323 16.8022 16.9246 16.7741 16.8199C16.7461 16.7151 16.6384 16.653 16.5337 16.681L16.0247 16.8174L15.9883 16.6816C15.571 15.1239 16.4201 13.5202 17.9017 12.968C17.6647 13.3031 17.4851 13.6766 17.3659 14.0852C17.113 14.9523 17.1294 15.9765 17.4133 17.1314L16.1962 17.4575ZM17.7926 17.0298C17.5271 15.9462 17.51 14.9933 17.7428 14.1951C17.903 13.646 18.1843 13.1676 18.5786 12.7719L19.4571 12.5365C20.3988 12.947 21.1694 14.1349 21.6936 15.9845L17.7926 17.0298ZM22.0728 15.883C21.7493 14.7396 21.3333 13.8318 20.8346 13.1831C20.5795 12.8511 20.3019 12.5862 20.0056 12.3902C20.9353 12.1574 21.8772 12.3727 22.5984 12.9019C22.4005 13.1718 22.3326 13.5181 22.4216 13.8503C22.5794 14.4394 23.1825 14.7924 23.772 14.6451L23.8212 14.8289L22.1216 15.8698L22.0728 15.883ZM27.1178 15.0882C26.7528 15.5558 26.1158 15.9385 25.37 16.1383C24.4833 16.376 23.5258 16.331 22.6359 16.0153L24.1008 15.118C24.566 15.1235 26.5301 14.9872 26.9078 14.9066C27.0576 14.8746 27.1452 14.9135 27.1653 14.9456C27.1825 14.9731 27.1639 15.0291 27.1178 15.0882Z" fill="#1E1E1E"/>
</svg>
