<svg width="16" height="18" viewBox="0 0 16 18" fill="none" xmlns="http://www.w3.org/2000/svg">
<path d="M14.625 0C14.0625 0 10.125 1.125 10.125 6.1875V10.125C10.125 11.366 11.134 12.375 12.375 12.375H13.5V16.875C13.5 17.4973 14.0027 18 14.625 18C15.2473 18 15.75 17.4973 15.75 16.875V12.375V8.4375V1.125C15.75 0.502734 15.2473 0 14.625 0ZM2.25 0.5625C2.25 0.274219 2.03555 0.0351562 1.74727 0.00351563C1.45898 -0.028125 1.20234 0.161719 1.13906 0.439453L0.0738281 5.23125C0.0246094 5.45273 0 5.67773 0 5.90273C0 7.51641 1.23398 8.8418 2.8125 8.98594V16.875C2.8125 17.4973 3.31523 18 3.9375 18C4.55977 18 5.0625 17.4973 5.0625 16.875V8.98594C6.64102 8.8418 7.875 7.51641 7.875 5.90273C7.875 5.67773 7.85039 5.45273 7.80117 5.23125L6.73594 0.439453C6.67266 0.158203 6.40898 -0.028125 6.12422 0.00351563C5.83945 0.0351562 5.625 0.274219 5.625 0.5625V5.28047C5.625 5.47031 5.47031 5.625 5.28047 5.625C5.10117 5.625 4.95352 5.48789 4.93594 5.30859L4.49648 0.513281C4.47188 0.221484 4.2293 0 3.9375 0C3.6457 0 3.40313 0.221484 3.37852 0.513281L2.94258 5.30859C2.925 5.48789 2.77734 5.625 2.59805 5.625C2.4082 5.625 2.25352 5.47031 2.25352 5.28047L2.25 0.5625ZM3.94805 5.90625H3.9375H3.92695L3.9375 5.88164L3.94805 5.90625Z" fill="black"/>
</svg>
