<svg width="13" height="18" viewBox="0 0 13 18" fill="none" xmlns="http://www.w3.org/2000/svg">
<path d="M2.8125 3.375V9C2.8125 10.8633 4.32422 12.375 6.1875 12.375C8.05078 12.375 9.5625 10.8633 9.5625 9H6.75C6.44063 9 6.1875 8.74687 6.1875 8.4375C6.1875 8.12813 6.44063 7.875 6.75 7.875H9.5625V6.75H6.75C6.44063 6.75 6.1875 6.49687 6.1875 6.1875C6.1875 5.87813 6.44063 5.625 6.75 5.625H9.5625V4.5H6.75C6.44063 4.5 6.1875 4.24687 6.1875 3.9375C6.1875 3.62812 6.44063 3.375 6.75 3.375H9.5625C9.5625 1.51172 8.05078 0 6.1875 0C4.32422 0 2.8125 1.51172 2.8125 3.375ZM10.6875 8.4375V9C10.6875 11.4855 8.67305 13.5 6.1875 13.5C3.70195 13.5 1.6875 11.4855 1.6875 9V7.59375C1.6875 7.12617 1.31133 6.75 0.84375 6.75C0.376172 6.75 0 7.12617 0 7.59375V9C0 12.1324 2.32734 14.7199 5.34375 15.1312V16.3125H3.65625C3.18867 16.3125 2.8125 16.6887 2.8125 17.1562C2.8125 17.6238 3.18867 18 3.65625 18H6.1875H8.71875C9.18633 18 9.5625 17.6238 9.5625 17.1562C9.5625 16.6887 9.18633 16.3125 8.71875 16.3125H7.03125V15.1312C10.0477 14.7199 12.375 12.1324 12.375 9V7.59375C12.375 7.12617 11.9988 6.75 11.5312 6.75C11.0637 6.75 10.6875 7.12617 10.6875 7.59375V8.4375Z" fill="black"/>
</svg>
