<svg width="24" height="25" viewBox="0 0 24 25" fill="none" xmlns="http://www.w3.org/2000/svg">
<path d="M21 8.49995C21.5333 8.49995 22 8.69995 22.4 9.09995C22.8 9.49995 23 9.96661 23 10.4999V12.4999C23 12.6166 22.9833 12.7416 22.95 12.8749C22.9167 13.0083 22.8833 13.1333 22.85 13.2499L19.85 20.2999C19.7 20.6333 19.45 20.9166 19.1 21.1499C18.75 21.3833 18.3833 21.4999 18 21.4999H7V8.49995L13 2.54995C13.25 2.29995 13.546 2.15428 13.888 2.11295C14.23 2.07161 14.559 2.13395 14.875 2.29995C15.191 2.46595 15.4243 2.69928 15.575 2.99995C15.7257 3.30061 15.759 3.60895 15.675 3.92495L14.55 8.49995H21ZM9 9.34995V19.4999H18L21 12.4999V10.4999H12L13.35 4.99995L9 9.34995ZM4 21.4999C3.45 21.4999 2.97933 21.3043 2.588 20.9129C2.19667 20.5216 2.00067 20.0506 2 19.4999V10.4999C2 9.94995 2.196 9.47928 2.588 9.08795C2.98 8.69661 3.45067 8.50061 4 8.49995H7V10.4999H4V19.4999H7V21.4999H4Z" fill="#858585"/>
</svg>
