<svg width="22" height="19" viewBox="0 0 22 19" fill="none" xmlns="http://www.w3.org/2000/svg">
<path d="M9.29477 18.0102L9.19186 17.9155L1.97997 11.2181C0.716249 10.045 0 8.39842 0 6.67367V6.53782C0 3.6399 2.05819 1.15361 4.90671 0.61025C6.52857 0.297406 8.18746 0.671996 9.50882 1.6023C9.87929 1.86574 10.2251 2.17035 10.5379 2.52025C10.7108 2.32266 10.896 2.14154 11.0936 1.97277C11.2459 1.84105 11.4023 1.71755 11.567 1.6023C12.8884 0.671996 14.5473 0.297406 16.1691 0.606134C19.0176 1.14949 21.0758 3.6399 21.0758 6.53782V6.67367C21.0758 8.39842 20.3596 10.045 19.0958 11.2181L11.884 17.9155L11.7811 18.0102C11.4435 18.323 10.9989 18.5 10.5379 18.5C10.0769 18.5 9.63231 18.3271 9.29477 18.0102ZM9.84225 4.70604C9.82578 4.69369 9.81343 4.67722 9.80108 4.66076L9.06837 3.83749L9.06425 3.83337C8.11337 2.76723 6.67675 2.2815 5.27719 2.54906C3.35896 2.91542 1.97586 4.58666 1.97586 6.53782V6.67367C1.97586 7.84683 2.46571 8.9706 3.32603 9.76918L10.5379 16.4665L17.7498 9.76918C18.6101 8.9706 19.1 7.84683 19.1 6.67367V6.53782C19.1 4.59078 17.7169 2.91542 15.8028 2.54906C14.4032 2.2815 12.9625 2.77135 12.0157 3.83337C12.0157 3.83337 12.0157 3.83337 12.0116 3.83749C12.0075 3.8416 12.0116 3.83749 12.0075 3.8416L11.2747 4.66488C11.2624 4.68134 11.2459 4.69369 11.2336 4.71016C11.0483 4.89539 10.7972 4.9983 10.5379 4.9983C10.2786 4.9983 10.0275 4.89539 9.84225 4.71016V4.70604Z" fill="#919191"/>
</svg>
