<svg width="24" height="24" viewBox="0 0 24 24" fill="none" xmlns="http://www.w3.org/2000/svg">
<path fill-rule="evenodd" clip-rule="evenodd" d="M20.1048 7.93929C20.6075 7.93929 21.0535 8.12332 21.4334 8.49138C21.8111 8.86145 22 9.29587 22 9.78549V11.641C22 11.7523 21.981 11.8729 21.9524 11.9935C21.9349 12.0728 21.914 12.1451 21.8938 12.2147C21.8809 12.2592 21.8683 12.3026 21.8571 12.346L19 18.8866C18.8571 19.1927 18.619 19.4618 18.2857 19.6752C17.9524 19.8885 17.6 19.9999 17.2381 19.9999H6.80951V7.89331L12.4762 2.41926C12.7143 2.18733 13 2.04817 13.3238 2.01106C13.6476 1.97395 13.9619 2.02961 14.2667 2.18733C14.5714 2.34504 14.7905 2.55842 14.9333 2.83674C15.0762 3.11507 15.1048 3.39339 15.0286 3.69026L13.9619 7.93929H20.1048ZM4.80951 7.93929H3.90476C3.38095 7.93929 2.93333 8.12484 2.5619 8.48666C2.19048 8.84848 2 9.28451 2 9.79477V18.1444C2 18.6546 2.19048 19.0907 2.5619 19.4525C2.93333 19.8143 3.38095 19.9999 3.90476 19.9999H4.80951V7.93929ZM21.4334 8.49138C21.435 8.49289 21.4365 8.49441 21.4381 8.49594L21.4287 8.4868C21.4303 8.48833 21.4318 8.48985 21.4334 8.49138Z" fill="#4BAFFF"/>
</svg>
