<svg width="22" height="19" viewBox="0 0 22 19" fill="none" xmlns="http://www.w3.org/2000/svg">
<path d="M1.95684 11.1166L9.38542 18.0519C9.69375 18.3397 10.1007 18.5 10.5242 18.5C10.9476 18.5 11.3546 18.3397 11.6629 18.0519L19.0915 11.1166C20.3413 9.95322 21.0483 8.32115 21.0483 6.61508V6.37665C21.0483 3.50305 18.9723 1.05289 16.1398 0.580128C14.2652 0.267691 12.3577 0.880231 11.0175 2.22042L10.5242 2.71374L10.0309 2.22042C8.69066 0.880231 6.78316 0.267691 4.90854 0.580128C2.07606 1.05289 0 3.50305 0 6.37665V6.61508C0 8.32115 0.707093 9.95322 1.95684 11.1166Z" fill="#C30452"/>
</svg>
