<svg width="18" height="18" viewBox="0 0 18 18" fill="none" xmlns="http://www.w3.org/2000/svg">
<path fill-rule="evenodd" clip-rule="evenodd" d="M9.50185 1.93015C10.3778 1.07751 11.5544 0.60411 12.7768 0.612412C13.9992 0.620714 15.1692 1.11005 16.0335 1.97451C16.8978 2.83897 17.387 4.00902 17.3951 5.23143C17.4032 6.45385 16.9296 7.63029 16.0768 8.50615L16.0659 8.51615L13.8009 10.7812C13.3295 11.2527 12.7622 11.6174 12.1375 11.8504C11.5128 12.0834 10.8452 12.1794 10.1802 12.1318C9.51513 12.0842 8.86809 11.8941 8.28295 11.5745C7.69781 11.2548 7.18826 10.813 6.78885 10.2792C6.71711 10.1874 6.6644 10.0822 6.63383 9.96983C6.60327 9.85744 6.59545 9.74007 6.61083 9.62461C6.62622 9.50916 6.6645 9.39793 6.72344 9.29746C6.78237 9.197 6.86077 9.10931 6.95404 9.03954C7.04731 8.96977 7.15358 8.91932 7.2666 8.89116C7.37962 8.863 7.49713 8.85768 7.61223 8.87553C7.72733 8.89338 7.83772 8.93402 7.9369 8.99509C8.03609 9.05616 8.12209 9.13641 8.18985 9.23115C8.43894 9.56426 8.75678 9.83989 9.12179 10.0393C9.4868 10.2388 9.89045 10.3574 10.3053 10.3871C10.7202 10.4167 11.1366 10.3568 11.5263 10.2114C11.916 10.066 12.2699 9.8384 12.5639 9.54415L14.8229 7.28415C15.3498 6.73692 15.641 6.00474 15.6338 5.24505C15.6266 4.48536 15.3216 3.75884 14.7843 3.2217C14.247 2.68456 13.5204 2.37971 12.7608 2.37268C12.0011 2.36566 11.269 2.65703 10.7219 3.18415L9.42785 4.47115C9.262 4.62769 9.04159 4.71328 8.81356 4.70971C8.58554 4.70614 8.36791 4.61369 8.20704 4.45204C8.04618 4.29039 7.95478 4.07232 7.95231 3.84427C7.94985 3.61623 8.03651 3.39624 8.19385 3.23115L9.50185 1.93015ZM5.86185 6.15015C6.80323 5.79892 7.83306 5.76205 8.79715 6.04508C9.76123 6.3281 10.6077 6.91579 11.2099 7.72015C11.2788 7.81214 11.3289 7.91681 11.3574 8.02818C11.3859 8.13956 11.3922 8.25545 11.3759 8.36925C11.3596 8.48305 11.3211 8.59252 11.2625 8.69142C11.2039 8.79032 11.1263 8.87671 11.0344 8.94565C10.9424 9.0146 10.8377 9.06474 10.7263 9.09324C10.6149 9.12173 10.4991 9.12801 10.3853 9.11171C10.2715 9.09541 10.162 9.05686 10.0631 8.99826C9.96418 8.93965 9.87779 8.86214 9.80885 8.77015C9.55983 8.43713 9.2421 8.16157 8.87722 7.96213C8.51234 7.7627 8.10883 7.64407 7.69407 7.61429C7.27931 7.58451 6.863 7.64427 6.47337 7.78953C6.08374 7.93478 5.7299 8.16213 5.43585 8.45615L3.17585 10.7162C2.65386 11.2642 2.36684 11.9947 2.37607 12.7515C2.38529 13.5083 2.69004 14.2316 3.22524 14.7668C3.76044 15.302 4.48367 15.6067 5.24049 15.6159C5.99732 15.6252 6.72776 15.3381 7.27585 14.8162L8.56185 13.5312C8.64307 13.4499 8.73951 13.3854 8.84566 13.3414C8.95181 13.2973 9.06559 13.2747 9.1805 13.2746C9.29541 13.2746 9.40921 13.2971 9.51539 13.3411C9.62157 13.385 9.71806 13.4494 9.79935 13.5307C9.88064 13.6119 9.94513 13.7083 9.98915 13.8145C10.0332 13.9206 10.0558 14.0344 10.0559 14.1493C10.0559 14.2642 10.0334 14.378 9.98942 14.4842C9.94549 14.5904 9.88107 14.6869 9.79985 14.7682L8.50785 16.0592L8.49785 16.0692C7.62199 16.9219 6.44555 17.3955 5.22313 17.3874C4.00072 17.3793 2.83067 16.8901 1.96621 16.0258C1.10175 15.1615 0.612413 13.9915 0.604111 12.7691C0.59581 11.5467 1.06921 10.3701 1.92185 9.49415L1.93285 9.48415L4.19785 7.21915C4.66906 6.74738 5.23621 6.38246 5.86085 6.14915" fill="#3B3B3B"/>
</svg>
