<svg width="21" height="18" viewBox="0 0 21 18" fill="none" xmlns="http://www.w3.org/2000/svg">
<path d="M5.99021 1.31786L5.57238 2.57143H2.57125C1.15304 2.57143 0 3.72455 0 5.14286V15.4286C0 16.8469 1.15304 18 2.57125 18H17.9987C19.417 18 20.57 16.8469 20.57 15.4286V5.14286C20.57 3.72455 19.417 2.57143 17.9987 2.57143H14.9976L14.5798 1.31786C14.3186 0.530357 13.5834 0 12.7518 0H7.81821C6.98657 0 6.25135 0.530357 5.99021 1.31786ZM10.285 6.42857C11.3079 6.42857 12.2889 6.83495 13.0122 7.5583C13.7355 8.28166 14.1419 9.26274 14.1419 10.2857C14.1419 11.3087 13.7355 12.2898 13.0122 13.0131C12.2889 13.7365 11.3079 14.1429 10.285 14.1429C9.26209 14.1429 8.28108 13.7365 7.55778 13.0131C6.83447 12.2898 6.42812 11.3087 6.42812 10.2857C6.42812 9.26274 6.83447 8.28166 7.55778 7.5583C8.28108 6.83495 9.26209 6.42857 10.285 6.42857Z" fill="black"/>
</svg>
