<svg width="53" height="24" viewBox="0 0 53 24" fill="none" xmlns="http://www.w3.org/2000/svg">
<rect width="53" height="24" rx="12" fill="#E3E4E6"/>
<g clip-path="url(#clip0_471_5073)">
<path d="M20.8908 9.86296C20.7544 9.42889 20.482 9.05024 20.1138 8.78298C19.7455 8.51573 19.3011 8.37407 18.8461 8.37896H15.9335L15.0488 5.62163C14.9097 5.1876 14.6363 4.80897 14.2681 4.54034C13.8999 4.27171 13.4559 4.12695 13.0001 4.12695C12.5444 4.12695 12.1003 4.27171 11.7321 4.54034C11.364 4.80897 11.0906 5.1876 10.9515 5.62163L10.0668 8.37896H7.15413C6.70062 8.37961 6.25892 8.52355 5.89212 8.79023C5.52531 9.05691 5.25216 9.43269 5.11168 9.86389C4.9712 10.2951 4.97057 10.7596 5.1099 11.1912C5.24922 11.6228 5.52137 11.9993 5.88746 12.267L8.25813 14.0003L7.3568 16.7916C7.21114 17.2246 7.20929 17.693 7.35153 18.127C7.49378 18.5611 7.77249 18.9375 8.14613 19.2003C8.51336 19.4715 8.95839 19.6168 9.4149 19.6145C9.87141 19.6122 10.315 19.4625 10.6795 19.1876L13.0001 17.4796L15.3215 19.1856C15.688 19.4553 16.1307 19.6017 16.5857 19.6039C17.0408 19.6062 17.4848 19.464 17.854 19.198C18.2232 18.9319 18.4985 18.5557 18.6403 18.1233C18.7822 17.6909 18.7833 17.2247 18.6435 16.7916L17.7421 14.0003L20.1155 12.267C20.4857 12.0027 20.7611 11.6262 20.9007 11.1932C21.0404 10.7602 21.0369 10.2938 20.8908 9.86296ZM19.3288 11.1903L16.5661 13.2096C16.4527 13.2924 16.3682 13.4089 16.3249 13.5425C16.2815 13.6761 16.2815 13.82 16.3248 13.9536L17.3748 17.2003C17.4279 17.365 17.4275 17.5422 17.3735 17.7066C17.3195 17.871 17.2148 18.0141 17.0744 18.1152C16.934 18.2163 16.7652 18.2704 16.5921 18.2695C16.4191 18.2686 16.2508 18.2129 16.1115 18.1103L13.3948 16.1103C13.2804 16.0262 13.1421 15.9809 13.0001 15.9809C12.8582 15.9809 12.7199 16.0262 12.6055 16.1103L9.8888 18.1103C9.74952 18.2142 9.58075 18.2711 9.40697 18.2727C9.23319 18.2743 9.06342 18.2205 8.92228 18.1191C8.78114 18.0177 8.67596 17.874 8.62199 17.7088C8.56802 17.5436 8.56807 17.3655 8.62213 17.2003L9.67546 13.9536C9.71874 13.82 9.71871 13.6761 9.67537 13.5425C9.63203 13.4089 9.5476 13.2924 9.43413 13.2096L6.67146 11.1903C6.53233 11.0884 6.42895 10.9452 6.37609 10.7811C6.32323 10.6169 6.32359 10.4403 6.37712 10.2764C6.43065 10.1124 6.53461 9.96963 6.67416 9.86833C6.8137 9.76703 6.98169 9.71242 7.15413 9.7123H10.5541C10.6953 9.71229 10.8328 9.66749 10.9468 9.58435C11.0609 9.5012 11.1456 9.384 11.1888 9.24963L12.2221 6.02896C12.2752 5.86415 12.3791 5.72042 12.5191 5.61846C12.659 5.5165 12.8277 5.46157 13.0008 5.46157C13.1739 5.46157 13.3426 5.5165 13.4825 5.61846C13.6225 5.72042 13.7264 5.86415 13.7795 6.02896L14.8128 9.24963C14.856 9.384 14.9407 9.5012 15.0548 9.58435C15.1688 9.66749 15.3063 9.71229 15.4475 9.7123H18.8475C19.0199 9.71242 19.1879 9.76703 19.3274 9.86833C19.467 9.96963 19.5709 10.1124 19.6245 10.2764C19.678 10.4403 19.6784 10.6169 19.6255 10.7811C19.5726 10.9452 19.4693 11.0884 19.3301 11.1903H19.3288Z" fill="#F1A140"/>
<path d="M11 9L12 5.5L14 5L15.5 9H19.5L20.5 11L17 14L18 18L16.5 19L13 17L9.5 19L8 17.5L9 13.5L6 11L6.5 9.5L11 9Z" fill="#F1A140"/>
</g>
<defs>
<clipPath id="clip0_471_5073">
<rect width="16" height="16" fill="white" transform="translate(5 4)"/>
</clipPath>
</defs>
</svg>




