<svg width="14" height="14" viewBox="0 0 14 14" fill="none" xmlns="http://www.w3.org/2000/svg">
<path fill-rule="evenodd" clip-rule="evenodd" d="M8.47167 2.22016C8.7739 2.3135 9.06279 2.4335 9.33834 2.58016L10.5603 1.84683C10.6878 1.7704 10.8371 1.73874 10.9845 1.75685C11.132 1.77497 11.2692 1.84183 11.3743 1.94683L12.053 2.6255C12.158 2.73063 12.2249 2.86783 12.243 3.0153C12.2611 3.16277 12.2294 3.31207 12.153 3.4395L11.4197 4.6615C11.5663 4.93705 11.6863 5.22594 11.7797 5.52816L13.1617 5.87416C13.3058 5.91028 13.4338 5.99353 13.5252 6.11069C13.6167 6.22785 13.6663 6.37221 13.6663 6.52083V7.4795C13.6663 7.62812 13.6167 7.77247 13.5252 7.88963C13.4338 8.0068 13.3058 8.09005 13.1617 8.12616L11.7797 8.47216C11.6863 8.77439 11.5663 9.06327 11.4197 9.33883L12.153 10.5608C12.2294 10.6883 12.2611 10.8376 12.243 10.985C12.2249 11.1325 12.158 11.2697 12.053 11.3748L11.3743 12.0535C11.2692 12.1585 11.132 12.2254 10.9845 12.2435C10.8371 12.2616 10.6878 12.2299 10.5603 12.1535L9.33834 11.4202C9.06279 11.5668 8.7739 11.6868 8.47167 11.7802L8.12567 13.1622C8.08956 13.3063 8.00631 13.4343 7.88915 13.5257C7.77198 13.6172 7.62763 13.6668 7.47901 13.6668H6.52034C6.37172 13.6668 6.22737 13.6172 6.1102 13.5257C5.99304 13.4343 5.90979 13.3063 5.87367 13.1622L5.52767 11.7802C5.22814 11.6876 4.93797 11.5671 4.66101 11.4202L3.43901 12.1535C3.31159 12.2299 3.16229 12.2616 3.01481 12.2435C2.86734 12.2254 2.73014 12.1585 2.62501 12.0535L1.94634 11.3748C1.84135 11.2697 1.77448 11.1325 1.75636 10.985C1.73825 10.8376 1.76992 10.6883 1.84634 10.5608L2.57967 9.33883C2.43277 9.06187 2.31224 8.7717 2.21967 8.47216L0.837674 8.12616C0.693621 8.09008 0.56574 8.00692 0.474316 7.8899C0.382892 7.77287 0.33316 7.62867 0.333008 7.48016V6.5215C0.333012 6.37288 0.382676 6.22852 0.474111 6.11136C0.565547 5.99419 0.69351 5.91094 0.837674 5.87483L2.21967 5.52883C2.31301 5.22661 2.43301 4.93772 2.57967 4.66216L1.84634 3.44016C1.76992 3.31274 1.73825 3.16344 1.75636 3.01597C1.77448 2.86849 1.84135 2.7313 1.94634 2.62616L2.62501 1.94683C2.73014 1.84183 2.86734 1.77497 3.01481 1.75685C3.16229 1.73874 3.31159 1.7704 3.43901 1.84683L4.66101 2.58016C4.93656 2.4335 5.22545 2.3135 5.52767 2.22016L5.87367 0.838163C5.90976 0.694109 5.99291 0.566228 6.10994 0.474805C6.22697 0.383381 6.37117 0.333649 6.51967 0.333496H7.47834C7.62696 0.3335 7.77132 0.383164 7.88848 0.4746C8.00564 0.566035 8.08889 0.693998 8.12501 0.838163L8.47167 2.22016ZM6.99967 9.66683C7.70692 9.66683 8.3852 9.38588 8.88529 8.88578C9.38539 8.38568 9.66634 7.70741 9.66634 7.00016C9.66634 6.29292 9.38539 5.61464 8.88529 5.11454C8.3852 4.61445 7.70692 4.3335 6.99967 4.3335C6.29243 4.3335 5.61415 4.61445 5.11406 5.11454C4.61396 5.61464 4.33301 6.29292 4.33301 7.00016C4.33301 7.70741 4.61396 8.38568 5.11406 8.88578C5.61415 9.38588 6.29243 9.66683 6.99967 9.66683Z" fill="white"/>
</svg>
