<svg width="20" height="20" viewBox="0 0 20 20" fill="none" xmlns="http://www.w3.org/2000/svg">
<path d="M16.2515 8.12381C16.2515 9.91652 15.6696 11.5725 14.6893 12.9161L19.6338 17.8646C20.1221 18.3528 20.1221 19.1456 19.6338 19.6338C19.1456 20.1221 18.3528 20.1221 17.8646 19.6338L12.92 14.6853C11.5764 15.6696 9.92042 16.2476 8.12772 16.2476C3.64009 16.2476 0.00390625 12.6114 0.00390625 8.12381C0.00390625 3.63619 3.64009 0 8.12772 0C12.6153 0 16.2515 3.63619 16.2515 8.12381ZM8.12772 13.748C8.86629 13.748 9.59764 13.6025 10.28 13.3199C10.9624 13.0372 11.5824 12.623 12.1046 12.1007C12.6269 11.5784 13.0411 10.9584 13.3238 10.2761C13.6064 9.59373 13.7519 8.86239 13.7519 8.12381C13.7519 7.38523 13.6064 6.65389 13.3238 5.97153C13.0411 5.28917 12.6269 4.66917 12.1046 4.14692C11.5824 3.62466 10.9624 3.21039 10.28 2.92775C9.59764 2.64511 8.86629 2.49963 8.12772 2.49963C7.38914 2.49963 6.65779 2.64511 5.97544 2.92775C5.29308 3.21039 4.67308 3.62466 4.15082 4.14692C3.62857 4.66917 3.2143 5.28917 2.93165 5.97153C2.64901 6.65389 2.50354 7.38523 2.50354 8.12381C2.50354 8.86239 2.64901 9.59373 2.93165 10.2761C3.2143 10.9584 3.62857 11.5784 4.15082 12.1007C4.67308 12.623 5.29308 13.0372 5.97544 13.3199C6.65779 13.6025 7.38914 13.748 8.12772 13.748Z" fill="#515151"/>
</svg>
