<svg width="17" height="18" viewBox="0 0 17 18" fill="none" xmlns="http://www.w3.org/2000/svg">
<path d="M16.9218 5.85818C17.0343 6.16409 16.9394 6.50518 16.6968 6.72319L15.1742 8.10862C15.2129 8.40047 15.234 8.69936 15.234 9.00176C15.234 9.30416 15.2129 9.60305 15.1742 9.8949L16.6968 11.2803C16.9394 11.4983 17.0343 11.8394 16.9218 12.1453C16.7671 12.5638 16.5807 12.9646 16.3662 13.3514L16.201 13.6363C15.9689 14.0231 15.7087 14.3887 15.4239 14.7333C15.2164 14.9865 14.8718 15.0709 14.5624 14.9725L12.6038 14.3501C12.1326 14.7122 11.6122 15.0147 11.0566 15.2432L10.6171 17.251C10.5467 17.571 10.3006 17.8242 9.9771 17.8769C9.49185 17.9578 8.99254 18 8.48267 18C7.97281 18 7.47349 17.9578 6.98824 17.8769C6.66474 17.8242 6.4186 17.571 6.34827 17.251L5.90873 15.2432C5.35315 15.0147 4.83274 14.7122 4.36155 14.3501L2.40648 14.976C2.09705 15.0744 1.75245 14.9865 1.54499 14.7369C1.26017 14.3923 0.99996 14.0266 0.767884 13.6398L0.602617 13.355C0.388122 12.9682 0.201757 12.5673 0.0470397 12.1489C-0.0654823 11.8429 0.0294581 11.5019 0.272084 11.2838L1.79465 9.89842C1.75597 9.60305 1.73487 9.30416 1.73487 9.00176C1.73487 8.69936 1.75597 8.40047 1.79465 8.10862L0.272084 6.72319C0.0294581 6.50518 -0.0654823 6.16409 0.0470397 5.85818C0.201757 5.43973 0.388122 5.03888 0.602617 4.65208L0.767884 4.36726C0.99996 3.98047 1.26017 3.61477 1.54499 3.27017C1.75245 3.017 2.09705 2.9326 2.40648 3.03106L4.36507 3.65345C4.83626 3.29127 5.35667 2.98887 5.91225 2.7603L6.35179 0.752491C6.42211 0.432506 6.66825 0.179332 6.99176 0.126587C7.47701 0.0421957 7.97632 0 8.48619 0C8.99605 0 9.49537 0.0421957 9.98062 0.123071C10.3041 0.175816 10.5503 0.42899 10.6206 0.748974L11.0601 2.75679C11.6157 2.98535 12.1361 3.28775 12.6073 3.64993L14.5659 3.02754C14.8753 2.92909 15.2199 3.017 15.4274 3.26665C15.7122 3.61125 15.9724 3.97695 16.2045 4.36374L16.3698 4.64856C16.5843 5.03536 16.7706 5.43622 16.9253 5.85466L16.9218 5.85818ZM8.48619 11.8148C9.23225 11.8148 9.94777 11.5184 10.4753 10.9909C11.0029 10.4633 11.2992 9.74783 11.2992 9.00176C11.2992 8.25569 11.0029 7.54018 10.4753 7.01263C9.94777 6.48508 9.23225 6.18871 8.48619 6.18871C7.74012 6.18871 7.02461 6.48508 6.49706 7.01263C5.96951 7.54018 5.67314 8.25569 5.67314 9.00176C5.67314 9.74783 5.96951 10.4633 6.49706 10.9909C7.02461 11.5184 7.74012 11.8148 8.48619 11.8148Z" fill="#919191"/>
</svg>
