<svg width="19" height="17" viewBox="0 0 19 17" fill="none" xmlns="http://www.w3.org/2000/svg">
<path d="M17.95 9.30714C18.3964 8.86071 18.3964 8.13571 17.95 7.68929L13.3786 3.11786C12.9321 2.67143 12.2071 2.67143 11.7607 3.11786C11.3143 3.56429 11.3143 4.28929 11.7607 4.73571L14.3821 7.35714H6.85714C6.225 7.35714 5.71429 7.86786 5.71429 8.5C5.71429 9.13214 6.225 9.64286 6.85714 9.64286H14.3821L11.7607 12.2643C11.3143 12.7107 11.3143 13.4357 11.7607 13.8821C12.2071 14.3286 12.9321 14.3286 13.3786 13.8821L17.95 9.31072V9.30714ZM5.71429 2.78571C6.34643 2.78571 6.85714 2.275 6.85714 1.64286C6.85714 1.01071 6.34643 0.5 5.71429 0.5H3.42857C1.53571 0.5 0 2.03571 0 3.92857V13.0714C0 14.9643 1.53571 16.5 3.42857 16.5H5.71429C6.34643 16.5 6.85714 15.9893 6.85714 15.3571C6.85714 14.725 6.34643 14.2143 5.71429 14.2143H3.42857C2.79643 14.2143 2.28571 13.7036 2.28571 13.0714V3.92857C2.28571 3.29643 2.79643 2.78571 3.42857 2.78571H5.71429Z" fill="#F50000"/>
</svg>
