<svg width="78" height="43" viewBox="0 0 78 43" fill="none" xmlns="http://www.w3.org/2000/svg">
<g filter="url(#filter0_d_25_1396)">
<path d="M74 43C74 33.7174 70.3125 24.815 63.7487 18.2513C57.185 11.6875 48.2826 8 39 8C29.7174 8 20.815 11.6875 14.2513 18.2513C7.68749 24.815 4 33.7174 4 43L39 43H74Z" fill="white"/>
</g>
<path d="M66 43C66 39.5856 65.3275 36.2047 64.0209 33.0502C62.7142 29.8958 60.7991 27.0295 58.3848 24.6152C55.9705 22.2009 53.1042 20.2858 49.9498 18.9791C46.7953 17.6725 43.4144 17 40 17C36.5856 17 33.2047 17.6725 30.0502 18.9791C26.8958 20.2858 24.0295 22.2009 21.6152 24.6152C19.2009 27.0295 17.2858 29.8958 15.9791 33.0502C14.6725 36.2047 14 39.5856 14 43H18.5424C18.5424 40.1821 19.0974 37.3919 20.1758 34.7885C21.2541 32.1852 22.8347 29.8197 24.8272 27.8272C26.8197 25.8347 29.1852 24.2541 31.7885 23.1758C34.3919 22.0974 37.1821 21.5424 40 21.5424C42.8179 21.5424 45.6081 22.0974 48.2115 23.1758C50.8148 24.2541 53.1803 25.8347 55.1728 27.8272C57.1653 29.8197 58.7459 32.1852 59.8242 34.7885C60.9026 37.3919 61.4576 40.1821 61.4576 43H66Z" fill="url(#paint0_linear_25_1396)"/>
<path d="M40.4182 32.2929C39.9106 31.9024 39.0862 31.9024 38.5786 32.2929L33.3808 36.2913C33.0072 36.5787 32.8976 37.0066 33.1006 37.3815C33.3037 37.7563 33.7747 38 34.3026 38H44.6983C45.2221 38 45.6972 37.7563 45.9003 37.3815C46.1033 37.0066 45.9896 36.5787 45.6201 36.2913L40.4223 32.2929H40.4182Z" fill="#A1A1A1"/>
<defs>
<filter id="filter0_d_25_1396" x="0" y="0" width="78" height="43" filterUnits="userSpaceOnUse" color-interpolation-filters="sRGB">
<feFlood flood-opacity="0" result="BackgroundImageFix"/>
<feColorMatrix in="SourceAlpha" type="matrix" values="0 0 0 0 0 0 0 0 0 0 0 0 0 0 0 0 0 0 127 0" result="hardAlpha"/>
<feOffset dy="-4"/>
<feGaussianBlur stdDeviation="2"/>
<feComposite in2="hardAlpha" operator="out"/>
<feColorMatrix type="matrix" values="0 0 0 0 0 0 0 0 0 0 0 0 0 0 0 0 0 0 0.25 0"/>
<feBlend mode="normal" in2="BackgroundImageFix" result="effect1_dropShadow_25_1396"/>
<feBlend mode="normal" in="SourceGraphic" in2="effect1_dropShadow_25_1396" result="shape"/>
</filter>
<linearGradient id="paint0_linear_25_1396" x1="40" y1="17" x2="40" y2="69" gradientUnits="userSpaceOnUse">
<stop stop-color="white"/>
<stop offset="0.0001" stop-color="#999999"/>
<stop offset="0.575" stop-color="white"/>
<stop offset="0.995" stop-color="#999999"/>
</linearGradient>
</defs>
</svg>
