<svg width="12" height="12" viewBox="0 0 12 12" fill="none" xmlns="http://www.w3.org/2000/svg">
<g clip-path="url(#clip0_549_5940)">
<path d="M9.66656 7.33362C9.28851 7.33393 8.91622 7.42622 8.58181 7.60253C8.2474 7.77884 7.9609 8.03388 7.74706 8.34562L4.49256 6.87612C4.72371 6.31794 4.72461 5.69097 4.49506 5.13212L7.74506 3.65512C8.06199 4.1135 8.53272 4.44311 9.07185 4.58415C9.61099 4.72519 10.1828 4.66833 10.6836 4.42387C11.1844 4.17942 11.581 3.76357 11.8015 3.25176C12.0219 2.73994 12.0517 2.16606 11.8852 1.63421C11.7188 1.10236 11.3673 0.647772 10.8944 0.352901C10.4215 0.0580307 9.85865 -0.05759 9.30783 0.0270118C8.75701 0.111614 8.25476 0.390834 7.89218 0.814025C7.52959 1.23722 7.33069 1.77635 7.33156 2.33362C7.33368 2.46552 7.34706 2.597 7.37156 2.72662L3.91656 4.29662C3.58473 3.98573 3.16931 3.77854 2.72134 3.7005C2.27338 3.62247 1.81237 3.67698 1.39496 3.85735C0.977553 4.03772 0.62192 4.33609 0.371756 4.71581C0.121591 5.09552 -0.0122094 5.54004 -0.0132085 5.99475C-0.0142075 6.44946 0.117639 6.89456 0.366132 7.27537C0.614626 7.65618 0.968944 7.95611 1.38556 8.13831C1.80217 8.32051 2.26293 8.37705 2.71124 8.30099C3.15954 8.22492 3.57586 8.01955 3.90906 7.71012L7.37306 9.27413C7.349 9.40363 7.33578 9.53492 7.33356 9.66663C7.33346 10.1282 7.47024 10.5794 7.72661 10.9632C7.98299 11.3471 8.34742 11.6462 8.77384 11.8229C9.20025 11.9996 9.66948 12.0458 10.1222 11.9558C10.5749 11.8658 10.9907 11.6435 11.3171 11.3172C11.6435 10.9908 11.8657 10.5749 11.9557 10.1222C12.0458 9.66954 11.9995 9.20031 11.8228 8.7739C11.6462 8.34749 11.347 7.98305 10.9632 7.72668C10.5794 7.47031 10.1281 7.33353 9.66656 7.33362V7.33362ZM9.66656 1.00012C9.93032 1.00002 10.1882 1.07815 10.4075 1.22462C10.6269 1.37108 10.7979 1.57931 10.8989 1.82297C10.9999 2.06663 11.0264 2.33476 10.975 2.59347C10.9236 2.85218 10.7966 3.08983 10.6102 3.27637C10.4237 3.46292 10.1861 3.58997 9.92739 3.64146C9.66871 3.69296 9.40056 3.66658 9.15687 3.56567C8.91317 3.46475 8.70488 3.29383 8.55833 3.07453C8.41178 2.85523 8.33356 2.59739 8.33356 2.33362C8.33382 1.98013 8.47433 1.64117 8.72425 1.39117C8.97416 1.14116 9.31306 1.00052 9.66656 1.00012V1.00012ZM2.33356 7.33362C2.0698 7.33372 1.81193 7.2556 1.59257 7.10913C1.37321 6.96267 1.20221 6.75444 1.10121 6.51078C1.0002 6.26712 0.973723 5.99898 1.02512 5.74028C1.07652 5.48157 1.20348 5.24392 1.38995 5.05737C1.57643 4.87083 1.81403 4.74378 2.07272 4.69228C2.33141 4.64079 2.59956 4.66717 2.84325 4.76808C3.08695 4.869 3.29524 5.03992 3.44179 5.25922C3.58834 5.47852 3.66656 5.73636 3.66656 6.00012C3.66616 6.35358 3.52561 6.69246 3.27572 6.94244C3.02584 7.19242 2.68702 7.33309 2.33356 7.33362ZM9.66656 11.0001C9.40282 11.0001 9.145 10.9219 8.9257 10.7754C8.70641 10.6289 8.53549 10.4206 8.43456 10.1769C8.33364 9.93327 8.30723 9.66515 8.35868 9.40647C8.41013 9.1478 8.53714 8.91019 8.72363 8.7237C8.91012 8.5372 9.14773 8.4102 9.40641 8.35875C9.66508 8.30729 9.9332 8.3337 10.1769 8.43463C10.4205 8.53556 10.6288 8.70648 10.7753 8.92577C10.9218 9.14506 11.0001 9.40288 11.0001 9.66663C10.9998 10.0202 10.8592 10.3592 10.6092 10.6093C10.3592 10.8593 10.0201 10.9999 9.66656 11.0001V11.0001Z" fill="#6B7280"/>
</g>
<defs>
<clipPath id="clip0_549_5940">
<rect width="12" height="12" fill="white"/>
</clipPath>
</defs>
</svg>
