<svg width="13" height="13" viewBox="0 0 13 13" fill="none" xmlns="http://www.w3.org/2000/svg">
<g clip-path="url(#clip0_549_5942)">
<path d="M12.3354 4.1827C12.0814 3.88998 11.7675 3.65527 11.4149 3.49443C11.0623 3.3336 10.6792 3.25041 10.2917 3.25049H8.13096L8.31296 2.14495C8.37736 1.75563 8.29966 1.35614 8.09405 1.01933C7.88844 0.682526 7.56861 0.43085 7.1929 0.31021C6.81719 0.189569 6.41063 0.208002 6.04737 0.362147C5.68412 0.516291 5.38837 0.795876 5.21408 1.14991L4.17733 3.25049H2.70833C1.9903 3.25135 1.30193 3.53697 0.794202 4.04469C0.286478 4.55242 0.00086009 5.24079 0 5.95882L0 8.66716C0.00086009 9.38519 0.286478 10.0736 0.794202 10.5813C1.30193 11.089 1.9903 11.3746 2.70833 11.3755H9.9125C10.5644 11.3728 11.1936 11.1362 11.6858 10.7088C12.178 10.2813 12.5004 9.6914 12.5943 9.04632L12.9762 6.33799C13.0299 5.9538 13.0006 5.56255 12.89 5.1907C12.7795 4.81886 12.5903 4.4751 12.3354 4.1827ZM1.08333 8.66716V5.95882C1.08333 5.52785 1.25454 5.11452 1.55928 4.80977C1.86403 4.50503 2.27736 4.33382 2.70833 4.33382H3.79167V10.2922H2.70833C2.27736 10.2922 1.86403 10.121 1.55928 9.81621C1.25454 9.51146 1.08333 9.09813 1.08333 8.66716ZM11.901 6.18578L11.5185 8.89412C11.4626 9.28086 11.2698 9.63469 10.975 9.89126C10.6803 10.1478 10.3033 10.2901 9.9125 10.2922H4.875V4.18974C4.92605 4.14527 4.96831 4.09162 4.99958 4.03157L6.18529 1.62928C6.22976 1.54908 6.29262 1.48057 6.36872 1.42938C6.44481 1.3782 6.53196 1.34581 6.62301 1.33486C6.71407 1.32392 6.80641 1.33473 6.89247 1.36642C6.97853 1.39812 7.05583 1.44977 7.11804 1.51716C7.17126 1.57904 7.21016 1.65191 7.23198 1.73056C7.2538 1.80921 7.25799 1.8917 7.24425 1.97216L6.95825 3.70549C6.9457 3.78294 6.95012 3.86219 6.97121 3.93776C6.9923 4.01333 7.02955 4.08342 7.0804 4.14317C7.13124 4.20293 7.19446 4.25092 7.26568 4.28384C7.3369 4.31676 7.41442 4.33381 7.49288 4.33382H10.2917C10.5243 4.33379 10.7541 4.38369 10.9658 4.48015C11.1774 4.57661 11.3659 4.71738 11.5185 4.89295C11.671 5.06852 11.7841 5.27479 11.8501 5.49783C11.9161 5.72087 11.9334 5.95547 11.901 6.18578Z" fill="black"/>
</g>
<defs>
<clipPath id="clip0_549_5942">
<rect width="13" height="13" fill="white"/>
</clipPath>
</defs>
</svg>
