<svg width="1440" height="1024" viewBox="0 0 1440 1024" fill="none" xmlns="http://www.w3.org/2000/svg">
<g clip-path="url(#clip0_952_6473)">
<rect width="1440" height="1024" fill="#F7F3E9"/>
<path d="M-3.77825 683.87C-2.53307 680.287 2.53307 680.287 3.77825 683.87L14.1334 713.66C14.6827 715.24 16.1575 716.312 17.8302 716.346L49.3625 716.988C53.1542 717.066 54.7197 721.884 51.6976 724.175L26.5651 743.229C25.2319 744.24 24.6686 745.974 25.1531 747.575L34.286 777.763C35.3842 781.393 31.2856 784.37 28.1726 782.204L2.28472 764.19C0.911455 763.234 -0.911456 763.234 -2.28472 764.19L-28.1726 782.204C-31.2856 784.37 -35.3842 781.393 -34.286 777.763L-25.1531 747.575C-24.6686 745.974 -25.2319 744.24 -26.5651 743.229L-51.6976 724.175C-54.7197 721.884 -53.1542 717.066 -49.3625 716.988L-17.8302 716.346C-16.1575 716.312 -14.6827 715.24 -14.1334 713.66L-3.77825 683.87Z" fill="#F6C085"/>
<path d="M262.222 321.87C263.467 318.287 268.533 318.287 269.778 321.87L274.491 335.427C275.04 337.007 276.515 338.078 278.187 338.112L292.537 338.405C296.329 338.482 297.894 343.3 294.872 345.592L283.435 354.263C282.102 355.273 281.538 357.007 282.023 358.608L286.179 372.346C287.277 375.976 283.179 378.954 280.066 376.788L268.285 368.59C266.911 367.634 265.089 367.634 263.715 368.59L251.934 376.788C248.821 378.954 244.723 375.976 245.821 372.346L249.977 358.608C250.462 357.007 249.898 355.273 248.565 354.263L237.128 345.592C234.106 343.3 235.671 338.482 239.463 338.405L253.813 338.112C255.485 338.078 256.96 337.007 257.509 335.427L262.222 321.87Z" fill="#D9D9D9"/>
<path d="M1122.22 771.87C1123.47 768.287 1128.53 768.287 1129.78 771.87L1134.49 785.427C1135.04 787.007 1136.51 788.078 1138.19 788.112L1152.54 788.405C1156.33 788.482 1157.89 793.3 1154.87 795.592L1143.43 804.263C1142.1 805.273 1141.54 807.007 1142.02 808.608L1146.18 822.346C1147.28 825.976 1143.18 828.954 1140.07 826.788L1128.28 818.59C1126.91 817.634 1125.09 817.634 1123.72 818.59L1111.93 826.788C1108.82 828.954 1104.72 825.976 1105.82 822.346L1109.98 808.608C1110.46 807.007 1109.9 805.273 1108.57 804.263L1097.13 795.592C1094.11 793.3 1095.67 788.482 1099.46 788.405L1113.81 788.112C1115.49 788.078 1116.96 787.007 1117.51 785.427L1122.22 771.87Z" fill="#E3E4E6"/>
<path d="M1359.22 86.8696C1360.47 83.2873 1365.53 83.2873 1366.78 86.8695L1371.49 100.427C1372.04 102.007 1373.51 103.078 1375.19 103.112L1389.54 103.405C1393.33 103.482 1394.89 108.3 1391.87 110.592L1380.43 119.263C1379.1 120.273 1378.54 122.007 1379.02 123.608L1383.18 137.346C1384.28 140.976 1380.18 143.954 1377.07 141.788L1365.28 133.59C1363.91 132.634 1362.09 132.634 1360.72 133.59L1348.93 141.788C1345.82 143.954 1341.72 140.976 1342.82 137.346L1346.98 123.608C1347.46 122.007 1346.9 120.273 1345.57 119.263L1334.13 110.592C1331.11 108.3 1332.67 103.482 1336.46 103.405L1350.81 103.112C1352.49 103.078 1353.96 102.007 1354.51 100.427L1359.22 86.8696Z" fill="#F6C085"/>
<path d="M1168.22 201.87C1169.47 198.287 1174.53 198.287 1175.78 201.87L1180.49 215.427C1181.04 217.007 1182.51 218.078 1184.19 218.112L1198.54 218.405C1202.33 218.482 1203.89 223.3 1200.87 225.592L1189.43 234.263C1188.1 235.273 1187.54 237.007 1188.02 238.608L1192.18 252.346C1193.28 255.976 1189.18 258.954 1186.07 256.788L1174.28 248.59C1172.91 247.634 1171.09 247.634 1169.72 248.59L1157.93 256.788C1154.82 258.954 1150.72 255.976 1151.82 252.346L1155.98 238.608C1156.46 237.007 1155.9 235.273 1154.57 234.263L1143.13 225.592C1140.11 223.3 1141.67 218.482 1145.46 218.405L1159.81 218.112C1161.49 218.078 1162.96 217.007 1163.51 215.427L1168.22 201.87Z" fill="#F6C085"/>
<path d="M292.222 735.87C293.467 732.287 298.533 732.287 299.778 735.87L302.14 742.663C302.689 744.243 304.164 745.314 305.836 745.349L313.027 745.495C316.818 745.572 318.384 750.39 315.362 752.682L309.631 757.027C308.298 758.037 307.734 759.771 308.219 761.372L310.301 768.256C311.399 771.886 307.301 774.864 304.188 772.698L298.285 768.59C296.911 767.634 295.089 767.634 293.715 768.59L287.812 772.698C284.699 774.864 280.601 771.886 281.699 768.256L283.781 761.372C284.266 759.771 283.702 758.037 282.369 757.027L276.638 752.682C273.616 750.39 275.182 745.572 278.973 745.495L286.164 745.349C287.836 745.314 289.311 744.243 289.86 742.663L292.222 735.87Z" fill="#F6C085"/>
<path d="M1373.22 913.87C1374.47 910.287 1379.53 910.287 1380.78 913.87L1385.49 927.427C1386.04 929.007 1387.51 930.078 1389.19 930.112L1403.54 930.405C1407.33 930.482 1408.89 935.3 1405.87 937.592L1394.43 946.263C1393.1 947.273 1392.54 949.007 1393.02 950.608L1397.18 964.346C1398.28 967.976 1394.18 970.954 1391.07 968.788L1379.28 960.59C1377.91 959.634 1376.09 959.634 1374.72 960.59L1362.93 968.788C1359.82 970.954 1355.72 967.976 1356.82 964.346L1360.98 950.608C1361.46 949.007 1360.9 947.273 1359.57 946.263L1348.13 937.592C1345.11 935.3 1346.67 930.482 1350.46 930.405L1364.81 930.112C1366.49 930.078 1367.96 929.007 1368.51 927.427L1373.22 913.87Z" fill="#F6C085"/>
<path d="M1276.23 547.971C1275.71 547.971 1275.17 547.942 1274.64 547.871C1271.74 547.497 1269.67 544.793 1270.04 541.845C1270.41 538.897 1273.07 536.811 1275.96 537.171C1278.44 537.502 1282.44 532.511 1283.95 530.642L1289.98 523.12C1288.54 521.323 1287.21 519.396 1286.01 517.253C1281.26 508.825 1280.01 498.974 1282.64 490.935C1285.45 482.335 1292.78 476.496 1300.39 476.727C1307.1 476.928 1313.25 482.019 1315.79 488.951C1316.56 486.535 1317.7 484.262 1319.31 482.249C1324.19 476.18 1332.27 474.282 1338.97 477.661C1344.94 480.653 1349.29 487.628 1350.05 495.393C1350.77 502.642 1348.47 509.099 1346.42 513.241C1344.84 516.433 1342.97 519.238 1341.02 521.869L1348.03 529.65C1349.78 531.591 1351.44 533.432 1353.16 534.597C1354.39 535.416 1355.59 535.79 1356.37 535.589C1359.2 534.856 1362.09 536.581 1362.83 539.472C1363.56 542.348 1361.85 545.296 1359.01 546.044C1355.27 547.022 1351.13 546.159 1347.32 543.614C1344.5 541.715 1342.22 539.184 1340.22 536.955L1334.31 530.383C1332.53 532.468 1330.62 534.482 1328.41 536.222C1323.68 539.961 1318.61 541.557 1313.76 540.824C1308.85 540.09 1304.88 537.07 1301.24 534.05C1299.99 533.015 1298.73 531.965 1297.49 530.858L1292.16 537.487C1289.15 541.241 1283.71 548 1276.25 548L1276.23 547.971ZM1304.18 522.473C1305.4 523.581 1306.66 524.63 1307.91 525.666C1310.51 527.823 1313.04 529.793 1315.28 530.124C1317.84 530.512 1320.53 528.758 1321.9 527.665C1323.71 526.241 1325.42 524.343 1327.07 522.329L1325.59 520.676C1322.87 517.656 1319.79 514.247 1317.59 509.818C1316.8 508.221 1316.13 506.467 1315.64 504.597C1315.14 506.093 1314.56 507.445 1314 508.581C1311.93 512.795 1309.14 516.261 1306.68 519.338L1304.18 522.459V522.473ZM1299.93 487.498C1297.07 487.498 1293.97 490.418 1292.68 494.344C1291.02 499.449 1291.98 506.165 1295.2 511.889C1295.72 512.809 1296.27 513.686 1296.88 514.535L1298.49 512.536C1300.81 509.645 1303 506.913 1304.54 503.792C1306.07 500.671 1306.72 497.45 1306.35 494.703C1305.8 490.561 1302.61 487.584 1300.08 487.498C1300.03 487.498 1299.99 487.498 1299.95 487.498H1299.93ZM1332 486.779C1330.35 486.779 1328.68 487.584 1327.5 489.051C1324.64 492.603 1324.44 499.737 1327.03 504.943C1328.57 508.049 1330.92 510.638 1333.39 513.399L1333.69 513.729C1334.89 512.004 1336 510.235 1336.92 508.365C1338.93 504.31 1339.83 500.082 1339.47 496.443C1339.07 492.402 1336.91 488.649 1334.24 487.297C1333.53 486.937 1332.77 486.765 1332 486.765V486.779Z" fill="#F6C085"/>
<path d="M119.021 190.982C118.684 190.982 118.337 190.963 117.991 190.917C116.122 190.678 114.79 188.951 115.027 187.068C115.264 185.184 116.979 183.852 118.848 184.081C120.444 184.293 123.024 181.105 124 179.91L127.893 175.105C126.963 173.956 126.106 172.725 125.331 171.356C122.267 165.972 121.456 159.678 123.152 154.542C124.966 149.048 129.699 145.317 134.605 145.464C138.936 145.593 142.902 148.845 144.544 153.274C145.036 151.73 145.775 150.279 146.814 148.992C149.96 145.115 155.176 143.902 159.498 146.061C163.346 147.973 166.155 152.429 166.647 157.39C167.112 162.021 165.626 166.146 164.304 168.793C163.282 170.832 162.079 172.624 160.82 174.305L165.343 179.276C166.474 180.516 167.541 181.693 168.653 182.437C169.446 182.96 170.221 183.199 170.723 183.071C172.547 182.602 174.416 183.705 174.89 185.552C175.364 187.389 174.261 189.273 172.428 189.75C170.012 190.375 167.34 189.824 164.887 188.198C163.063 186.985 161.595 185.368 160.301 183.944L156.489 179.745C155.34 181.077 154.109 182.363 152.687 183.475C149.632 185.864 146.358 186.884 143.231 186.415C140.067 185.947 137.504 184.017 135.152 182.088C134.349 181.426 133.538 180.755 132.735 180.048L129.298 184.284C127.356 186.682 123.845 191 119.03 191L119.021 190.982ZM137.048 174.691C137.842 175.399 138.653 176.069 139.456 176.731C141.134 178.109 142.766 179.368 144.216 179.579C145.866 179.827 147.598 178.706 148.483 178.008C149.65 177.099 150.753 175.886 151.82 174.599L150.863 173.543C149.112 171.613 147.124 169.436 145.702 166.606C145.191 165.586 144.763 164.465 144.444 163.271C144.124 164.226 143.75 165.09 143.386 165.816C142.054 168.508 140.249 170.722 138.662 172.688L137.048 174.682V174.691ZM134.313 152.346C132.462 152.346 130.465 154.211 129.635 156.72C128.559 159.981 129.179 164.272 131.258 167.929C131.596 168.517 131.951 169.077 132.343 169.619L133.383 168.342C134.878 166.496 136.292 164.75 137.286 162.756C138.27 160.762 138.69 158.704 138.453 156.949C138.097 154.303 136.036 152.401 134.404 152.346C134.377 152.346 134.349 152.346 134.322 152.346H134.313ZM155.003 151.887C153.936 151.887 152.86 152.401 152.094 153.338C150.252 155.608 150.124 160.165 151.793 163.491C152.787 165.476 154.301 167.13 155.896 168.894L156.088 169.105C156.863 168.002 157.583 166.872 158.176 165.678C159.471 163.087 160.054 160.386 159.817 158.061C159.562 155.479 158.167 153.081 156.443 152.217C155.987 151.988 155.495 151.877 155.003 151.877V151.887Z" fill="#F6C085"/>
<path d="M567.758 155.978C567.359 155.978 566.949 155.956 566.539 155.901C564.327 155.616 562.752 153.55 563.032 151.298C563.313 149.046 565.341 147.453 567.553 147.728C569.442 147.98 572.495 144.168 573.65 142.74L578.257 136.995C577.157 135.622 576.142 134.149 575.225 132.513C571.6 126.075 570.639 118.55 572.646 112.409C574.794 105.839 580.394 101.379 586.199 101.555C591.324 101.709 596.018 105.598 597.96 110.893C598.543 109.047 599.417 107.312 600.647 105.774C604.37 101.138 610.542 99.6874 615.656 102.269C620.21 104.554 623.533 109.882 624.116 115.814C624.666 121.351 622.907 126.284 621.342 129.448C620.134 131.886 618.71 134.029 617.221 136.039L622.573 141.982C623.911 143.465 625.173 144.872 626.489 145.761C627.428 146.388 628.345 146.673 628.939 146.519C631.097 145.959 633.309 147.277 633.87 149.486C634.431 151.683 633.125 153.935 630.957 154.506C628.097 155.253 624.936 154.594 622.033 152.649C619.875 151.199 618.138 149.266 616.606 147.563L612.095 142.543C610.736 144.135 609.279 145.673 607.596 147.003C603.981 149.859 600.107 151.078 596.406 150.518C592.662 149.958 589.63 147.651 586.846 145.344C585.897 144.553 584.936 143.751 583.987 142.905L579.919 147.969C577.621 150.837 573.466 156 567.769 156L567.758 155.978ZM589.091 136.5C590.029 137.346 590.99 138.148 591.939 138.939C593.925 140.587 595.856 142.092 597.572 142.345C599.525 142.641 601.575 141.301 602.622 140.466C604.003 139.379 605.308 137.929 606.571 136.391L605.438 135.127C603.366 132.82 601.014 130.217 599.331 126.833C598.726 125.614 598.219 124.273 597.841 122.845C597.464 123.988 597.021 125.02 596.59 125.888C595.014 129.107 592.878 131.755 591.001 134.106L589.091 136.489V136.5ZM585.854 109.783C583.663 109.783 581.3 112.013 580.318 115.012C579.045 118.912 579.779 124.043 582.239 128.415C582.638 129.118 583.059 129.788 583.523 130.436L584.753 128.909C586.523 126.701 588.195 124.614 589.371 122.23C590.537 119.846 591.033 117.385 590.752 115.287C590.332 112.123 587.893 109.849 585.961 109.783C585.929 109.783 585.897 109.783 585.864 109.783H585.854ZM610.337 109.234C609.074 109.234 607.801 109.849 606.894 110.97C604.715 113.683 604.564 119.132 606.538 123.109C607.714 125.482 609.506 127.459 611.394 129.568L611.621 129.821C612.538 128.503 613.39 127.152 614.091 125.723C615.624 122.626 616.314 119.396 616.034 116.616C615.732 113.529 614.081 110.662 612.041 109.629C611.502 109.355 610.919 109.223 610.337 109.223V109.234Z" fill="#FBE1C0"/>
<path d="M386.758 942.978C386.359 942.978 385.949 942.956 385.539 942.901C383.327 942.616 381.752 940.55 382.032 938.298C382.313 936.046 384.341 934.453 386.553 934.728C388.442 934.98 391.495 931.168 392.65 929.74L397.257 923.995C396.157 922.622 395.142 921.149 394.225 919.513C390.6 913.075 389.639 905.55 391.646 899.409C393.794 892.839 399.394 888.379 405.199 888.555C410.324 888.709 415.018 892.598 416.96 897.893C417.543 896.047 418.417 894.312 419.647 892.774C423.37 888.138 429.542 886.687 434.656 889.269C439.21 891.554 442.533 896.882 443.116 902.814C443.666 908.351 441.907 913.284 440.342 916.448C439.134 918.886 437.71 921.029 436.221 923.039L441.573 928.982C442.911 930.465 444.173 931.872 445.489 932.761C446.428 933.388 447.345 933.673 447.939 933.519C450.097 932.959 452.309 934.277 452.87 936.486C453.431 938.683 452.125 940.935 449.957 941.506C447.097 942.253 443.936 941.594 441.033 939.649C438.875 938.199 437.138 936.266 435.606 934.563L431.095 929.543C429.736 931.135 428.279 932.673 426.596 934.003C422.981 936.859 419.107 938.078 415.406 937.518C411.662 936.958 408.63 934.651 405.846 932.344C404.897 931.553 403.936 930.751 402.987 929.905L398.919 934.969C396.621 937.837 392.466 943 386.769 943L386.758 942.978ZM408.091 923.5C409.029 924.346 409.99 925.148 410.939 925.939C412.925 927.587 414.856 929.092 416.572 929.345C418.525 929.641 420.575 928.301 421.622 927.466C423.003 926.379 424.308 924.929 425.571 923.391L424.438 922.127C422.366 919.82 420.014 917.217 418.331 913.833C417.726 912.614 417.219 911.273 416.841 909.845C416.464 910.988 416.021 912.02 415.59 912.888C414.014 916.107 411.878 918.755 410.001 921.106L408.091 923.489V923.5ZM404.854 896.783C402.663 896.783 400.3 899.013 399.318 902.012C398.045 905.912 398.779 911.043 401.239 915.415C401.638 916.118 402.059 916.788 402.523 917.436L403.753 915.909C405.523 913.701 407.195 911.614 408.371 909.23C409.537 906.846 410.033 904.385 409.752 902.287C409.332 899.123 406.893 896.849 404.961 896.783C404.929 896.783 404.897 896.783 404.864 896.783H404.854ZM429.337 896.234C428.074 896.234 426.801 896.849 425.894 897.97C423.715 900.683 423.564 906.132 425.538 910.109C426.714 912.482 428.506 914.459 430.394 916.568L430.621 916.821C431.538 915.503 432.39 914.152 433.091 912.723C434.624 909.626 435.314 906.396 435.034 903.616C434.732 900.529 433.081 897.662 431.041 896.629C430.502 896.355 429.919 896.223 429.337 896.223V896.234Z" fill="#E3E4E6"/>
</g>
<defs>
<clipPath id="clip0_952_6473">
<rect width="1440" height="1024" fill="white"/>
</clipPath>
</defs>
</svg>
