<svg width="108" height="102" viewBox="0 0 108 102" fill="none" xmlns="http://www.w3.org/2000/svg">
<path d="M50.2217 2.86955C51.4669 -0.712692 56.5331 -0.712691 57.7783 2.86955L68.1334 32.66C68.6827 34.2403 70.1575 35.3118 71.8302 35.3459L103.363 35.9885C107.154 36.0657 108.72 40.8839 105.698 43.1751L80.5651 62.2292C79.2319 63.24 78.6686 64.9737 79.1531 66.575L88.286 96.7626C89.3842 100.393 85.2856 103.37 82.1726 101.204L56.2847 83.1898C54.9115 82.2342 53.0885 82.2342 51.7153 83.1898L25.8274 101.204C22.7144 103.37 18.6158 100.393 19.714 96.7626L28.8469 66.575C29.3314 64.9737 28.7681 63.24 27.4349 62.2292L2.30239 43.1751C-0.719737 40.8839 0.845785 36.0657 4.63748 35.9885L36.1698 35.3459C37.8425 35.3118 39.3173 34.2403 39.8666 32.66L50.2217 2.86955Z" fill="#D9D9D9"/>
</svg>
