<svg width="63" height="63" viewBox="0 0 63 63" fill="none" xmlns="http://www.w3.org/2000/svg">
<g clip-path="url(#clip0_386_16002)">
<path d="M31.32 62.64C48.6176 62.64 62.64 48.6176 62.64 31.32C62.64 14.0224 48.6176 0 31.32 0C14.0224 0 0 14.0224 0 31.32C0 48.6176 14.0224 62.64 31.32 62.64Z" fill="#4BAFFF"/>
</g>
<g clip-path="url(#clip1_386_16002)">
<path d="M46.2 23.9001C45.05 23.9001 43.99 24.4501 43.53 25.5101C42.44 24.4501 40.86 23.9001 39.42 23.9001C38.65 23.9001 37.92 23.9901 37.23 24.1501L36.05 15.8801C35.88 14.1301 34.33 13.1201 33.03 13.0101H32.94C32.78 13.0101 32.6 12.9901 32.42 13.0101C31.1 13.0601 29.49 13.7001 29.12 15.3701L25.69 24.9301L22.25 15.3701C21.82 13.4701 19.81 12.9001 18.43 13.0101C17.14 13.1201 15.59 14.1301 15.41 15.8801L13 32.9001H13.02C13.02 32.9801 12.99 33.0601 13 33.1401C13.25 38.1501 19.44 39.8001 25.51 39.8501H25.69H25.86C26.13 39.8501 26.4 39.8501 26.66 39.8301C29.24 39.7601 31.64 39.3501 32.93 38.9501C33.95 42.1601 36.46 43.2301 39.38 43.2301C41.13 43.2301 42.51 42.6601 43.52 41.6501V42.3101C43.52 43.6001 42.46 44.9001 40.01 44.9001C38.95 44.9001 38.03 44.7601 37.19 44.6401C36.21 44.5001 35.26 45.1001 34.92 46.0201C34.55 47.0301 34.98 48.2601 35.84 48.7801C36.79 49.3301 38.94 49.6101 40.01 49.5601C47.74 49.2401 49.06 45.3401 49.06 42.1801V26.7801C49.06 24.8801 47.71 23.9101 46.19 23.9101L46.2 23.9001ZM23.27 35.6801C23.03 35.6501 18.25 35.3201 17.86 31.7401L19.76 17.8601L22.66 26.8501C22.88 27.8001 24.53 28.2301 25.62 28.2501V28.3101L25.65 28.2601C25.78 28.2601 25.94 28.2601 26.09 28.2401C27.17 28.1601 28.6 27.7301 28.81 26.8501L31.65 18.0701L31.94 20.1901L33.53 31.7401C33.42 32.6801 33.02 33.3901 32.47 33.9301C31.6 34.8101 30.36 35.2401 29.42 35.4601C29.42 35.4601 29.4 35.4601 29.39 35.4601C28.6 35.5901 27.79 35.6901 26.4 35.7701C26.33 35.7701 26.27 35.7701 26.2 35.7701C25.96 35.7701 25.73 35.7701 25.55 35.7701C24.65 35.7701 23.28 35.6501 23.27 35.6501V35.6801ZM43.3 36.0901C43.3 37.9301 41.81 38.5601 40.83 38.5601C39.85 38.5601 38.39 37.9001 38.39 35.9501V31.4401C38.39 29.4901 39.83 28.8301 40.83 28.8301C41.83 28.8301 43.3 29.4601 43.3 31.3001V36.1001V36.0901Z" fill="white"/>
</g>
<defs>
<clipPath id="clip0_386_16002">
<rect width="62.65" height="62.65" fill="white"/>
</clipPath>
<clipPath id="clip1_386_16002">
<rect width="36.07" height="36.57" fill="white" transform="translate(13 13)"/>
</clipPath>
</defs>
</svg>
