<svg width="123" height="34" viewBox="0 0 123 34" fill="none" xmlns="http://www.w3.org/2000/svg">
<path d="M5.10505 23.0233C5.10505 24.6005 4.27784 25.3892 2.62343 25.3892C1.81985 25.3892 1.18172 25.1891 0.709034 24.7889C0.236345 24.3887 0 23.8001 0 23.0233V7.94515C0 5.30853 0.697217 3.32519 2.09165 1.99511C3.48608 0.665038 5.8259 0 9.11109 0C11.5454 0 13.4539 0.647382 14.8365 1.94215C16.2192 3.23691 16.9105 5.3203 16.9105 8.19233C16.9105 10.6877 16.2546 12.5945 14.9429 13.9128C13.6312 15.2311 11.7818 15.8903 9.3947 15.8903C8.04754 15.8903 7.07261 15.9903 6.46994 16.1904C5.86726 16.3905 5.4891 16.7554 5.33548 17.2851C5.18186 17.8148 5.10505 18.5858 5.10505 19.598V23.0233ZM4.78598 12.8182C5.06959 12.5828 5.34139 12.3768 5.60137 12.2002C5.86135 12.0237 6.20996 11.8824 6.64719 11.7765C7.08443 11.6705 7.66938 11.6176 8.40205 11.6176C9.41834 11.6176 10.2219 11.5293 10.8128 11.3527C11.4036 11.1762 11.8231 10.8407 12.0713 10.3463C12.3195 9.85198 12.4435 9.13397 12.4435 8.19233C12.4435 6.94465 12.2958 6.03243 12.0004 5.45567C11.705 4.87891 11.2914 4.50225 10.7596 4.32569C10.2278 4.14913 9.58378 4.06085 8.82747 4.06085C7.45667 4.06085 6.49357 4.30803 5.93816 4.8024C5.38275 5.29676 5.10505 6.15602 5.10505 7.38016C5.10505 8.25118 5.08141 9.2046 5.03414 10.2404C4.98687 11.2762 4.90415 12.1355 4.78598 12.8182Z" fill="#F1A140"/>
<path d="M25.8446 25.3891C24.2847 25.3891 22.9139 25.0713 21.7322 24.4356C20.5505 23.8 19.6346 22.9055 18.9847 21.7519C18.3347 20.5984 18.0098 19.2566 18.0098 17.7264V9.46346C18.0098 7.86266 18.8606 7.06226 20.5623 7.06226C22.264 7.06226 23.1148 7.86266 23.1148 9.46346V17.6558C23.1148 18.7622 23.3512 19.6215 23.8238 20.2335C24.2965 20.8456 24.9701 21.1516 25.8446 21.1516C26.7191 21.1516 27.3926 20.8456 27.8653 20.2335C28.338 19.6215 28.5744 18.7622 28.5744 17.6558V9.46346C28.5744 7.86266 29.4252 7.06226 31.1269 7.06226C32.8286 7.06226 33.6794 7.86266 33.6794 9.46346V17.7264C33.6794 19.2566 33.3544 20.5984 32.7045 21.7519C32.0545 22.9055 31.1446 23.8 29.9747 24.4356C28.8048 25.0713 27.4281 25.3891 25.8446 25.3891Z" fill="#F1A140"/>
<path d="M41.5132 23.2645C41.5132 24.6828 40.686 25.3891 39.0316 25.3891C38.2281 25.3891 37.5899 25.2066 37.1172 24.8476C36.6445 24.4886 36.4082 23.959 36.4082 23.2586V3.43105C36.4082 2.67185 36.6032 2.06566 36.9932 1.62427C37.3831 1.18287 38.039 0.959229 38.9607 0.959229C39.8825 0.959229 40.5383 1.18287 40.9283 1.62427C41.3183 2.06566 41.5132 2.67185 41.5132 3.43105V23.2645Z" fill="#F1A140"/>
<path d="M50.1636 23.2645C50.1636 24.6828 49.3364 25.3891 47.682 25.3891C46.8784 25.3891 46.2403 25.2066 45.7676 24.8476C45.2949 24.4886 45.0586 23.959 45.0586 23.2586V3.43105C45.0586 2.67185 45.2536 2.06566 45.6435 1.62427C46.0335 1.18287 46.6894 0.959229 47.6111 0.959229C48.5329 0.959229 49.1887 1.18287 49.5787 1.62427C49.9687 2.06566 50.1636 2.67185 50.1636 3.43105V23.2645Z" fill="#F1A140"/>
<path d="M68.9177 27.2608C68.9177 29.2618 67.9724 30.7566 66.0816 31.7454C64.1909 32.7341 61.4847 33.2285 57.9632 33.2285C56.1433 33.2285 54.8139 32.9989 53.9749 32.5399C53.1358 32.0808 52.7163 31.3687 52.7163 30.4035C52.7163 29.7208 52.9054 29.2677 53.2835 29.044C53.6617 28.8204 54.1698 28.7086 54.808 28.7086C55.2807 28.7086 55.6824 28.738 56.0133 28.7968C56.3442 28.8557 56.7046 28.9146 57.0946 28.9734C57.4846 29.0323 57.975 29.0617 58.5659 29.0617C60.433 29.0617 61.7742 28.9204 62.5896 28.6379C63.405 28.3555 63.8127 27.7787 63.8127 26.9077C63.8127 26.1779 63.5173 25.5894 62.9264 25.1421C62.3355 24.6948 61.5911 24.4712 60.693 24.4712C55.257 24.4712 52.5391 21.5874 52.5391 15.8198C52.5391 12.8771 53.2245 10.6996 54.5953 9.2871C55.9661 7.87463 58.0104 7.1684 60.7284 7.1684C62.5246 7.1684 64.0136 7.47443 65.1953 8.0865C65.7625 5.9678 66.9679 4.90845 68.8114 4.90845C69.7095 4.90845 70.4008 5.13797 70.8853 5.59703C71.3698 6.05608 71.6121 6.72112 71.6121 7.59214C71.6121 8.39254 71.3757 8.9693 70.903 9.32242C70.4304 9.67553 69.6741 9.85209 68.6341 9.85209C68.1851 9.85209 67.7715 9.8874 67.3933 9.95803C68.4096 11.3705 68.9177 13.3362 68.9177 15.8551C68.9177 17.4323 68.6873 18.7389 68.2264 19.7747C67.7656 20.8105 66.9206 21.6698 65.6916 22.3525C66.8734 22.7762 67.7065 23.4295 68.191 24.3123C68.6755 25.195 68.9177 26.1779 68.9177 27.2608ZM57.6441 15.8198C57.6441 18.7624 58.6722 20.2337 60.7284 20.2337C62.7846 20.2337 63.8127 18.7624 63.8127 15.8198C63.8127 14.2896 63.5586 13.1714 63.0505 12.4652C62.5424 11.7589 61.7683 11.4058 60.7284 11.4058C59.6885 11.4058 58.944 11.7589 58.424 12.4652C57.9041 13.1714 57.6441 14.2896 57.6441 15.8198Z" fill="#F1A140"/>
<path d="M79.5546 25.3891C77.0257 25.3891 75.0286 24.6711 73.5632 23.2351C72.0979 21.799 71.3652 19.4802 71.3652 16.2786C71.3652 13.077 72.0979 10.7288 73.5632 9.30457C75.0286 7.88033 77.0257 7.16821 79.5546 7.16821C82.0835 7.16821 84.0806 7.88033 85.5459 9.30457C87.0113 10.7288 87.7439 13.0535 87.7439 16.2786C87.7439 19.5038 87.0113 21.799 85.5459 23.2351C84.0806 24.6711 82.0835 25.3891 79.5546 25.3891ZM79.5546 21.1517C80.2163 21.1517 80.7718 21.0163 81.2208 20.7456C81.6699 20.4749 82.0185 19.9864 82.2666 19.2801C82.5148 18.5739 82.6389 17.5734 82.6389 16.2786C82.6389 14.9839 82.5148 13.9834 82.2666 13.2771C82.0185 12.5709 81.6699 12.0824 81.2208 11.8117C80.7718 11.541 80.2163 11.4056 79.5546 11.4056C78.8928 11.4056 78.3669 11.541 77.9061 11.8117C77.4452 12.0824 77.0907 12.5709 76.8425 13.2771C76.5944 13.9834 76.4703 14.9839 76.4703 16.2786C76.4703 17.5734 76.5944 18.5739 76.8425 19.2801C77.0907 19.9864 77.4452 20.4749 77.9061 20.7456C78.3669 21.0163 78.9164 21.1517 79.5546 21.1517Z" fill="#F1A140"/>
<path d="M86.6138 29.988C86.3945 29.988 86.1693 29.976 85.944 29.9461C84.729 29.7903 83.8637 28.6637 84.0178 27.4353C84.1719 26.2069 85.2862 25.3381 86.5012 25.4879C87.5384 25.6257 89.2158 23.5464 89.8499 22.7674L92.3808 19.6335C91.7762 18.8845 91.2191 18.0815 90.7153 17.1887C88.7238 13.6773 88.1963 9.57264 89.2987 6.22301C90.4782 2.63968 93.5543 0.206858 96.743 0.302732C99.5584 0.386623 102.137 2.50786 103.203 5.39609C103.524 4.3894 104.004 3.44264 104.679 2.60373C106.724 0.0750295 110.114 -0.715939 112.924 0.692225C115.425 1.9386 117.25 4.84481 117.571 8.08059C117.873 11.1006 116.907 13.7911 116.047 15.5169C115.383 16.8472 114.601 18.0156 113.783 19.1122L116.723 22.354C117.458 23.1629 118.151 23.9299 118.874 24.4153C119.39 24.7568 119.894 24.9126 120.22 24.8287C121.405 24.5231 122.62 25.2422 122.929 26.4466C123.237 27.6451 122.52 28.8735 121.328 29.1851C119.758 29.5925 118.021 29.233 116.427 28.1724C115.241 27.3814 114.287 26.3268 113.445 25.398L110.968 22.6596C110.221 23.5284 109.421 24.3673 108.496 25.0924C106.511 26.6504 104.383 27.3155 102.35 27.0099C100.293 26.7043 98.6278 25.4459 97.0987 24.1876C96.5771 23.7561 96.0496 23.3187 95.528 22.8573L93.2935 25.6197C92.0311 27.1837 89.7492 30 86.6197 30L86.6138 29.988ZM98.3315 19.3639C98.8471 19.8253 99.3746 20.2627 99.8962 20.6941C100.987 21.593 102.048 22.4139 102.99 22.5517C104.063 22.7135 105.189 21.9825 105.764 21.5271C106.523 20.9338 107.24 20.1429 107.933 19.304L107.311 18.6148C106.173 17.3565 104.881 15.9363 103.956 14.0907C103.624 13.4256 103.346 12.6946 103.138 11.9156C102.931 12.5388 102.688 13.102 102.451 13.5754C101.585 15.3311 100.412 16.7752 99.3806 18.0576L98.3315 19.3579V19.3639ZM96.5534 4.79088C95.3502 4.79088 94.0522 6.00729 93.5128 7.64316C92.8134 9.77038 93.2165 12.5687 94.5678 14.9536C94.7871 15.3371 95.0183 15.7026 95.2731 16.0562L95.9488 15.2233C96.9209 14.0188 97.8395 12.8803 98.4856 11.58C99.1257 10.2797 99.3983 8.93747 99.2442 7.79296C99.0131 6.06721 97.6736 4.82683 96.6126 4.79088C96.5949 4.79088 96.5771 4.79088 96.5593 4.79088H96.5534ZM110.002 4.49127C109.308 4.49127 108.609 4.82683 108.111 5.43804C106.914 6.9181 106.831 9.89023 107.915 12.0594C108.561 13.3537 109.545 14.4323 110.583 15.5828L110.707 15.7206C111.211 15.0016 111.679 14.2645 112.064 13.4855C112.906 11.7957 113.285 10.034 113.131 8.51802C112.965 6.83421 112.058 5.27025 110.938 4.70699C110.642 4.55718 110.322 4.48528 110.002 4.48528V4.49127Z" fill="#F1A140"/>
</svg>
