<svg width="88" height="88" viewBox="0 0 88 88" fill="none" xmlns="http://www.w3.org/2000/svg">
<circle cx="44" cy="44" r="44" fill="#F1A140"/>
<path d="M60.6667 40.6667H47.3333V27.3333C47.3333 26.4493 46.9821 25.6014 46.357 24.9763C45.7319 24.3512 44.8841 24 44 24C43.1159 24 42.2681 24.3512 41.643 24.9763C41.0179 25.6014 40.6667 26.4493 40.6667 27.3333V40.6667H27.3333C26.4493 40.6667 25.6014 41.0179 24.9763 41.643C24.3512 42.2681 24 43.1159 24 44C24 44.8841 24.3512 45.7319 24.9763 46.357C25.6014 46.9821 26.4493 47.3333 27.3333 47.3333H40.6667V60.6667C40.6667 61.5507 41.0179 62.3986 41.643 63.0237C42.2681 63.6488 43.1159 64 44 64C44.8841 64 45.7319 63.6488 46.357 63.0237C46.9821 62.3986 47.3333 61.5507 47.3333 60.6667V47.3333H60.6667C61.5507 47.3333 62.3986 46.9821 63.0237 46.357C63.6488 45.7319 64 44.8841 64 44C64 43.1159 63.6488 42.2681 63.0237 41.643C62.3986 41.0179 61.5507 40.6667 60.6667 40.6667Z" fill="white"/>
</svg>
