<svg width="18" height="18" viewBox="0 0 18 18" fill="none" xmlns="http://www.w3.org/2000/svg">
<path d="M14.5001 11.0007C13.9331 11.0011 13.3746 11.1396 12.873 11.404C12.3714 11.6685 11.9416 12.0511 11.6209 12.5187L6.73913 10.3144C7.08586 9.47715 7.08721 8.5367 6.74288 7.69843L11.6179 5.48293C12.0933 6.1705 12.7994 6.6649 13.6081 6.87646C14.4168 7.08803 15.2745 7.00273 16.0257 6.63606C16.7769 6.26938 17.3718 5.6456 17.7025 4.87788C18.0332 4.11016 18.0778 3.24933 17.8281 2.45156C17.5785 1.65379 17.0512 0.971902 16.3419 0.529596C15.6326 0.0872902 14.7883 -0.0861409 13.962 0.0407618C13.1358 0.167664 12.3824 0.586495 11.8386 1.22128C11.2947 1.85607 10.9963 2.66476 10.9976 3.50068C11.0008 3.69853 11.0209 3.89575 11.0576 4.09018L5.87513 6.44518C5.37738 5.97884 4.75426 5.66806 4.08231 5.551C3.41036 5.43395 2.71885 5.51572 2.09273 5.78627C1.46662 6.05683 0.933171 6.50438 0.557924 7.07395C0.182677 7.64352 -0.0180242 8.3103 -0.0195228 8.99237C-0.0210214 9.67443 0.176748 10.3421 0.549488 10.9133C0.922229 11.4845 1.45371 11.9344 2.07862 12.2077C2.70354 12.481 3.39469 12.5658 4.06715 12.4517C4.7396 12.3376 5.36409 12.0296 5.86388 11.5654L11.0599 13.9114C11.0238 14.1057 11.004 14.3026 11.0006 14.5002C11.0005 15.1925 11.2057 15.8694 11.5902 16.4451C11.9748 17.0208 12.5214 17.4696 13.161 17.7346C13.8007 17.9996 14.5045 18.069 15.1836 17.934C15.8626 17.7989 16.4864 17.4655 16.9759 16.976C17.4655 16.4864 17.7989 15.8627 17.9339 15.1836C18.0689 14.5046 17.9996 13.8007 17.7345 13.1611C17.4695 12.5215 17.0208 11.9748 16.445 11.5903C15.8693 11.2057 15.1925 11.0005 14.5001 11.0007ZM14.5001 1.50043C14.8958 1.50028 15.2826 1.61747 15.6116 1.83717C15.9406 2.05687 16.1971 2.36921 16.3487 2.7347C16.5002 3.10018 16.5399 3.50239 16.4628 3.89045C16.3857 4.27851 16.1952 4.63499 15.9155 4.9148C15.6358 5.19462 15.2794 5.3852 14.8914 5.46244C14.5034 5.53968 14.1011 5.50011 13.7356 5.34874C13.37 5.19737 13.0576 4.94099 12.8378 4.61204C12.618 4.28308 12.5006 3.89632 12.5006 3.50068C12.501 2.97043 12.7118 2.46201 13.0867 2.08699C13.4615 1.71198 13.9699 1.50103 14.5001 1.50043ZM3.50063 11.0007C3.10498 11.0008 2.71818 10.8836 2.38914 10.6639C2.06011 10.4442 1.80361 10.1319 1.6521 9.76641C1.50059 9.40093 1.46087 8.99872 1.53797 8.61066C1.61507 8.2226 1.80551 7.86612 2.08522 7.58631C2.36493 7.30649 2.72134 7.11591 3.10937 7.03867C3.4974 6.96143 3.89962 7.001 4.26517 7.15237C4.63071 7.30374 4.94315 7.56012 5.16297 7.88907C5.3828 8.21803 5.50013 8.60479 5.50013 9.00043C5.49953 9.53062 5.2887 10.0389 4.91388 10.4139C4.53905 10.7889 4.03081 10.9999 3.50063 11.0007ZM14.5001 16.5004C14.1045 16.5004 13.7178 16.3831 13.3888 16.1633C13.0599 15.9435 12.8035 15.6311 12.6521 15.2656C12.5007 14.9001 12.4611 14.498 12.5383 14.11C12.6155 13.7219 12.806 13.3655 13.0857 13.0858C13.3655 12.8061 13.7219 12.6155 14.1099 12.5384C14.4979 12.4612 14.9001 12.5008 15.2656 12.6522C15.6311 12.8036 15.9435 13.06 16.1633 13.3889C16.3831 13.7178 16.5004 14.1046 16.5004 14.5002C16.5 15.0306 16.2891 15.5391 15.9141 15.9141C15.539 16.2892 15.0305 16.5 14.5001 16.5004Z" fill="#777777"/>
</svg>
