<svg width="124" height="124" viewBox="0 0 124 124" fill="none" xmlns="http://www.w3.org/2000/svg">
<circle cx="62" cy="62" r="62" fill="#8992B5"/>
<g clip-path="url(#clip0_331_12108)">
<path d="M80.0884 43.9134C78.9553 42.782 77.4195 42.1466 75.8184 42.1466C74.2172 42.1466 72.6814 42.782 71.5484 43.9134L44.4417 71.02C43.6654 71.7919 43.05 72.7101 42.6309 73.7214C42.2117 74.7327 41.9973 75.817 42 76.9117V80.3334C42 80.7754 42.1756 81.1993 42.4882 81.5119C42.8007 81.8245 43.2247 82 43.6667 82H47.0884C48.183 82.0031 49.2673 81.7891 50.2786 81.3702C51.2899 80.9514 52.2081 80.3361 52.98 79.56L80.0884 52.4517C81.2192 51.3187 81.8543 49.7833 81.8543 48.1825C81.8543 46.5818 81.2192 45.0464 80.0884 43.9134ZM50.6234 77.2034C49.6834 78.1371 48.4133 78.6629 47.0884 78.6667H45.3334V76.9117C45.3317 76.2549 45.4603 75.6042 45.7118 74.9975C45.9632 74.3907 46.3326 73.8398 46.7984 73.3767L67.37 52.805L71.2034 56.6384L50.6234 77.2034ZM77.73 50.095L73.5534 54.2734L69.72 50.4484L73.8984 46.27C74.1501 46.0189 74.4488 45.8198 74.7774 45.6841C75.1061 45.5483 75.4582 45.4787 75.8138 45.4791C76.1694 45.4795 76.5214 45.5499 76.8497 45.6863C77.1781 45.8227 77.4764 46.0225 77.7275 46.2742C77.9787 46.5259 78.1778 46.8246 78.3135 47.1533C78.4492 47.4819 78.5189 47.8341 78.5185 48.1897C78.5181 48.5452 78.4477 48.8972 78.3113 49.2256C78.1748 49.554 77.9751 49.8522 77.7234 50.1034L77.73 50.095Z" fill="white"/>
</g>
<defs>
<clipPath id="clip0_331_12108">
<rect width="40" height="40" fill="white" transform="translate(42 42)"/>
</clipPath>
</defs>
</svg>
