<svg width="80" height="74" viewBox="0 0 80 74" fill="none" xmlns="http://www.w3.org/2000/svg">
<path d="M74 3.87556C72.1261 2.30865 69.9302 1.17352 67.5683 0.550773C65.2063 -0.0719786 62.7362 -0.167079 60.3333 0.272224L47.5933 2.58556C44.652 3.1257 41.9776 4.63898 40 6.88222C38.0172 4.6351 35.3352 3.12148 32.3867 2.58556L19.6667 0.272224C17.2639 -0.167464 14.7938 -0.0736093 12.4313 0.547143C10.0687 1.1679 7.87155 2.30037 5.99522 3.8644C4.11889 5.42844 2.60929 7.38579 1.57327 9.59791C0.53726 11.81 0.000162708 14.2229 0 16.6656L0 52.6422C0.00019152 56.5449 1.36992 60.3237 3.87044 63.3201C6.37097 66.3165 9.8437 68.3403 13.6833 69.0389L34.6367 72.8489C38.1832 73.4933 41.8168 73.4933 45.3633 72.8489L66.3333 69.0389C70.1699 68.3368 73.6388 66.3115 76.136 63.3155C78.6332 60.3194 80.0005 56.5425 80 52.6422V16.6656C80.0015 14.2237 79.4646 11.8116 78.4276 9.60087C77.3905 7.39018 75.8788 5.43534 74 3.87556ZM36.6667 66.4256C36.3867 66.3856 36.1067 66.3389 35.8267 66.2889L14.8767 62.4822C12.5725 62.063 10.4886 60.8484 8.98829 59.0502C7.48794 57.252 6.66631 54.9842 6.66667 52.6422V16.6656C6.66667 14.0134 7.72024 11.4699 9.5956 9.59449C11.471 7.71913 14.0145 6.66556 16.6667 6.66556C17.2703 6.667 17.8726 6.72165 18.4667 6.82889L31.2 9.16222C32.732 9.44257 34.1176 10.2505 35.1161 11.4457C36.1147 12.6409 36.6633 14.1481 36.6667 15.7056V66.4256ZM73.3333 52.6422C73.3337 54.9842 72.5121 57.252 71.0117 59.0502C69.5114 60.8484 67.4275 62.063 65.1233 62.4822L44.1733 66.2889C43.8933 66.3389 43.6133 66.3856 43.3333 66.4256V15.7056C43.3331 14.1443 43.8808 12.6324 44.8811 11.4336C45.8813 10.2348 47.2706 9.42503 48.8067 9.14556L61.5433 6.81222C62.9857 6.54979 64.4682 6.60773 65.8857 6.98192C67.3032 7.35612 68.6211 8.03742 69.7461 8.97758C70.871 9.91773 71.7755 11.0937 72.3954 12.4223C73.0153 13.7509 73.3355 15.1995 73.3333 16.6656V52.6422Z" fill="#F7F3E9"/>
</svg>
