<svg width="80" height="80" viewBox="0 0 80 80" fill="none" xmlns="http://www.w3.org/2000/svg">
<path d="M40 0C32.0888 0 24.3552 2.34596 17.7772 6.74122C11.1992 11.1365 6.07234 17.3836 3.04484 24.6927C0.0173314 32.0017 -0.774802 40.0444 0.768607 47.8036C2.31202 55.5629 6.12165 62.6902 11.7157 68.2843C17.3098 73.8784 24.4372 77.688 32.1964 79.2314C39.9556 80.7748 47.9983 79.9827 55.3074 76.9552C62.6164 73.9277 68.8635 68.8008 73.2588 62.2228C77.6541 55.6448 80 47.9113 80 40C79.9885 29.3949 75.7706 19.2274 68.2716 11.7284C60.7727 4.22943 50.6052 0.0114703 40 0V0ZM71.91 30.4L42.2167 36.1733C41.7494 35.4521 41.3392 34.6953 40.99 33.91L29.8567 8.24333C34.0715 6.8924 38.5133 6.39551 42.9225 6.7817C47.3316 7.1679 51.6194 8.42945 55.5352 10.4925C59.4509 12.5556 62.9159 15.3789 65.7276 18.7971C68.5392 22.2153 70.641 26.1598 71.91 30.4V30.4ZM40 73.3333C32.6237 73.3361 25.4551 70.8908 19.6181 66.381C13.7811 61.8712 9.60568 55.5518 7.7466 48.4136C5.88752 41.2755 6.44987 33.7222 9.34547 26.938C12.2411 20.1539 17.3062 14.5224 23.7467 10.9267L34.8734 36.5633C36.4566 40.2073 38.9426 43.3874 42.0967 45.8033L64.2733 62.7767C61.1669 66.1059 57.4092 68.761 53.2335 70.577C49.0579 72.393 44.5535 73.3312 40 73.3333V73.3333ZM68.3334 57.4833L47.9167 41.8567L73.1867 36.9467C73.2767 37.9467 73.34 38.97 73.34 40C73.3371 46.1811 71.6027 52.2377 68.3334 57.4833Z" fill="#F7F3E9"/>
</svg>
