<svg width="20" height="20" viewBox="0 0 20 20" fill="none" xmlns="http://www.w3.org/2000/svg">
<path d="M19.7557 0.244355C19.5994 0.0881291 19.3875 0.000366211 19.1665 0.000366211C18.9455 0.000366211 18.7336 0.0881291 18.5773 0.244355L9.99982 8.82186L1.42232 0.244355C1.26605 0.0881291 1.05413 0.000366211 0.833155 0.000366211C0.612185 0.000366211 0.400262 0.0881291 0.243989 0.244355V0.244355C0.0877628 0.400628 0 0.612551 0 0.833522C0 1.05449 0.0877628 1.26642 0.243989 1.42269L8.82149 10.0002L0.243989 18.5777C0.0877628 18.734 0 18.9459 0 19.1669C0 19.3878 0.0877628 19.5997 0.243989 19.756V19.756C0.400262 19.9122 0.612185 20 0.833155 20C1.05413 20 1.26605 19.9122 1.42232 19.756L9.99982 11.1785L18.5773 19.756C18.7336 19.9122 18.9455 20 19.1665 20C19.3875 20 19.5994 19.9122 19.7557 19.756C19.9119 19.5997 19.9996 19.3878 19.9996 19.1669C19.9996 18.9459 19.9119 18.734 19.7557 18.5777L11.1782 10.0002L19.7557 1.42269C19.9119 1.26642 19.9996 1.05449 19.9996 0.833522C19.9996 0.612551 19.9119 0.400628 19.7557 0.244355V0.244355Z" fill="#4F4F4F"/>
</svg>
