<svg width="61" height="80" viewBox="0 0 61 80" fill="none" xmlns="http://www.w3.org/2000/svg">
<path d="M49.9977 7.62777C45.929 3.99291 40.9462 1.53638 35.5854 0.522537C30.2246 -0.491304 24.6889 -0.0240678 19.5739 1.87396C14.4588 3.77199 9.95825 7.02896 6.55643 11.2943C3.15461 15.5597 0.98036 20.672 0.267665 26.0811C-0.372402 30.8239 0.139504 35.6511 1.76006 40.1542C3.38062 44.6573 6.06213 48.7038 9.57767 51.9511C11.7517 53.8576 13.5059 56.1948 14.7293 58.8148C15.9526 61.4348 16.6184 64.2803 16.6843 67.1711V67.7078C16.6879 70.9688 17.9849 74.0953 20.2908 76.4013C22.5968 78.7072 25.7233 80.0042 28.9843 80.0078H31.051C34.3121 80.0042 37.4386 78.7072 39.7445 76.4013C42.0504 74.0953 43.3475 70.9688 43.351 67.7078V65.8778C43.4009 63.3226 44.0022 60.8085 45.1137 58.5072C46.2252 56.206 47.8207 54.172 49.791 52.5444C52.9863 49.7459 55.5505 46.3004 57.3136 42.436C59.0767 38.5717 59.9986 34.3768 60.0182 30.1293C60.0377 25.8818 59.1545 21.6787 57.4269 17.7983C55.6994 13.9179 53.1671 10.4489 49.9977 7.6211V7.62777ZM31.051 73.3411H28.9843C27.4908 73.3393 26.059 72.7453 25.0029 71.6892C23.9468 70.6331 23.3528 69.2013 23.351 67.7078C23.351 67.7078 23.3277 66.8411 23.3243 66.6744H36.6843V67.7078C36.6826 69.2013 36.0885 70.6331 35.0324 71.6892C33.9763 72.7453 32.5445 73.3393 31.051 73.3411V73.3411ZM45.3843 47.5378C41.5891 50.8296 38.8482 55.1669 37.5043 60.0078H33.351V36.0611C35.294 35.3742 36.9774 34.1037 38.1707 32.4234C39.3641 30.7432 40.0091 28.7353 40.0177 26.6744C40.0177 25.7904 39.6665 24.9425 39.0414 24.3174C38.4162 23.6923 37.5684 23.3411 36.6843 23.3411C35.8003 23.3411 34.9524 23.6923 34.3273 24.3174C33.7022 24.9425 33.351 25.7904 33.351 26.6744C33.351 27.5585 32.9998 28.4063 32.3747 29.0315C31.7496 29.6566 30.9017 30.0078 30.0177 30.0078C29.1336 30.0078 28.2858 29.6566 27.6606 29.0315C27.0355 28.4063 26.6843 27.5585 26.6843 26.6744C26.6843 25.7904 26.3331 24.9425 25.708 24.3174C25.0829 23.6923 24.2351 23.3411 23.351 23.3411C22.4669 23.3411 21.6191 23.6923 20.994 24.3174C20.3689 24.9425 20.0177 25.7904 20.0177 26.6744C20.0262 28.7353 20.6713 30.7432 21.8646 32.4234C23.058 34.1037 24.7413 35.3742 26.6843 36.0611V60.0078H22.2777C20.7743 55.0385 17.9547 50.5684 14.1177 47.0711C10.8608 44.0364 8.54008 40.1334 7.42923 35.8227C6.31838 31.512 6.46381 26.9735 7.84836 22.7427C9.23292 18.512 11.7988 14.7656 15.2432 11.9456C18.6876 9.12569 22.8669 7.34988 27.2877 6.82777C28.2041 6.72546 29.1255 6.67427 30.0477 6.67443C35.7729 6.65741 41.2999 8.76985 45.5543 12.6011C48.02 14.7998 49.9901 17.4974 51.3342 20.5152C52.6782 23.533 53.3654 26.802 53.3503 30.1055C53.3352 33.409 52.618 36.6716 51.2464 39.677C49.8748 42.6823 47.88 45.3618 45.3943 47.5378H45.3843Z" fill="#F7F3E9"/>
</svg>
