<svg width="5" height="4" viewBox="0 0 5 4" fill="none" xmlns="http://www.w3.org/2000/svg">
<mask id="path-1-inside-1_186_9144" fill="white">
<path d="M2.5 2.54564L4.44453 4.41419e-08L5 0.727179L2.5 4L-1.4306e-07 0.727179L0.555468 2.14138e-07L2.5 2.54564Z"/>
</mask>
<path d="M2.5 2.54564L4.44453 4.41419e-08L5 0.727179L2.5 4L-1.4306e-07 0.727179L0.555468 2.14138e-07L2.5 2.54564Z" fill="white"/>
<path d="M2.5 2.54564L0.910641 3.7597C1.28901 4.25503 1.87669 4.54564 2.5 4.54564C3.12331 4.54564 3.71099 4.25503 4.08936 3.7597L2.5 2.54564ZM4.44453 4.41419e-08L6.03389 -1.21406C5.65552 -1.70939 5.06785 -2 4.44453 -2C3.82122 -2 3.23354 -1.70939 2.85517 -1.21406L4.44453 4.41419e-08ZM5 0.727179L6.58936 1.94124C7.13688 1.22446 7.13688 0.229896 6.58936 -0.48688L5 0.727179ZM2.5 4L0.910641 5.21406C1.28901 5.70939 1.87669 6 2.5 6C3.12331 6 3.71099 5.70939 4.08936 5.21406L2.5 4ZM-1.4306e-07 0.727179L-1.58936 -0.48688C-2.13688 0.229896 -2.13688 1.22446 -1.58936 1.94124L-1.4306e-07 0.727179ZM0.555468 2.14138e-07L2.14483 -1.21406C1.76646 -1.70939 1.17878 -2 0.555468 -2C-0.0678447 -2 -0.655521 -1.70939 -1.03389 -1.21406L0.555468 2.14138e-07ZM4.08936 3.7597L6.03389 1.21406L2.85517 -1.21406L0.910641 1.33158L4.08936 3.7597ZM2.85517 1.21406L3.41064 1.94124L6.58936 -0.48688L6.03389 -1.21406L2.85517 1.21406ZM3.41064 -0.48688L0.910641 2.78594L4.08936 5.21406L6.58936 1.94124L3.41064 -0.48688ZM4.08936 2.78594L1.58936 -0.48688L-1.58936 1.94124L0.910641 5.21406L4.08936 2.78594ZM1.58936 1.94124L2.14483 1.21406L-1.03389 -1.21406L-1.58936 -0.48688L1.58936 1.94124ZM-1.03389 1.21406L0.910641 3.7597L4.08936 1.33158L2.14483 -1.21406L-1.03389 1.21406Z" fill="white" mask="url(#path-1-inside-1_186_9144)"/>
</svg>
