<svg width="13" height="15" viewBox="0 0 13 15" fill="none" xmlns="http://www.w3.org/2000/svg">
<path fill-rule="evenodd" clip-rule="evenodd" d="M10.9963 7.35105e-08C11.3662 -0.000116994 11.7225 0.139595 11.9938 0.391128C12.265 0.642662 12.4312 0.987426 12.4589 1.35631L12.4626 1.46628V13.1965C12.4627 13.5665 12.323 13.9228 12.0714 14.194C11.8199 14.4652 11.4751 14.6314 11.1063 14.6591L10.9963 14.6628H2.19861C1.82868 14.6629 1.47238 14.5232 1.20114 14.2717C0.929888 14.0201 0.763738 13.6754 0.735994 13.3065L0.732328 13.1965V12.4634C0.545466 12.4632 0.365734 12.3916 0.229857 12.2634C0.0939797 12.1351 0.012212 11.9598 0.00126103 11.7732C-0.00968998 11.5867 0.0510022 11.403 0.170937 11.2597C0.290872 11.1164 0.460996 11.0243 0.646551 11.0022L0.732328 10.9971V9.53083C0.545466 9.53062 0.365734 9.45907 0.229857 9.33079C0.0939797 9.20251 0.012212 9.02719 0.00126103 8.84065C-0.00968998 8.65411 0.0510022 8.47043 0.170937 8.32713C0.290872 8.18384 0.460996 8.09175 0.646551 8.06968L0.732328 8.06454V6.59826C0.545466 6.59806 0.365734 6.5265 0.229857 6.39823C0.0939797 6.26995 0.012212 6.09463 0.00126103 5.90809C-0.00968998 5.72155 0.0510022 5.53786 0.170937 5.39457C0.290872 5.25128 0.460996 5.15919 0.646551 5.13712L0.732328 5.13198V3.6657C0.545466 3.66549 0.365734 3.59394 0.229857 3.46567C0.0939797 3.33739 0.012212 3.16207 0.00126103 2.97553C-0.00968998 2.78899 0.0510022 2.6053 0.170937 2.46201C0.290872 2.31871 0.460996 2.22662 0.646551 2.20455L0.732328 2.19942V1.46628C0.732211 1.09636 0.871923 0.740056 1.12346 0.468808C1.37499 0.19756 1.71975 0.0314102 2.08864 0.00366586L2.19861 7.35105e-08H10.9963ZM10.9963 1.46628H2.19861V13.1965H10.9963V1.46628ZM9.16344 2.93256C9.43682 2.93257 9.70039 3.03441 9.90276 3.21821C10.1051 3.402 10.2318 3.65459 10.258 3.9267L10.2632 4.03227V5.49855C10.2631 5.77193 10.1613 6.0355 9.97751 6.23787C9.79371 6.44023 9.54113 6.56689 9.26902 6.59313L9.16344 6.59826H4.03146C3.75809 6.59825 3.49452 6.49642 3.29215 6.31262C3.08978 6.12882 2.96313 5.87624 2.93688 5.60413L2.93175 5.49855V4.03227C2.93176 3.7589 3.0336 3.49533 3.2174 3.29296C3.40119 3.09059 3.65378 2.96394 3.92589 2.93769L4.03146 2.93256H9.16344ZM8.79687 4.39884H4.39803V5.13198H8.79687V4.39884Z" fill="#729ECB"/>
</svg>
