<svg width="27" height="30" viewBox="0 0 27 30" fill="none" xmlns="http://www.w3.org/2000/svg">
<path d="M3.375 26.5714H8.4375V18C8.4375 17.5143 8.5995 17.1074 8.9235 16.7794C9.2475 16.4514 9.648 16.2869 10.125 16.2857H16.875C17.3531 16.2857 17.7542 16.4503 18.0782 16.7794C18.4022 17.1086 18.5636 17.5154 18.5625 18V26.5714H23.625V11.1429L13.5 3.42857L3.375 11.1429V26.5714ZM0 26.5714V11.1429C0 10.6 0.119812 10.0857 0.359437 9.6C0.599062 9.11428 0.92925 8.71428 1.35 8.4L11.475 0.685714C12.0656 0.228572 12.7406 0 13.5 0C14.2594 0 14.9344 0.228572 15.525 0.685714L25.65 8.4C26.0719 8.71428 26.4026 9.11428 26.6422 9.6C26.8819 10.0857 27.0011 10.6 27 11.1429V26.5714C27 27.5143 26.6692 28.3217 26.0077 28.9937C25.3462 29.6657 24.552 30.0011 23.625 30H16.875C16.3969 30 15.9964 29.8354 15.6735 29.5063C15.3506 29.1771 15.1886 28.7703 15.1875 28.2857V19.7143H11.8125V28.2857C11.8125 28.7714 11.6505 29.1789 11.3265 29.508C11.0025 29.8371 10.602 30.0011 10.125 30H3.375C2.44687 30 1.65262 29.6646 0.992249 28.9937C0.331875 28.3229 0.001125 27.5154 0 26.5714Z" fill="white"/>
</svg>
