<svg width="11" height="11" viewBox="0 0 11 11" fill="none" xmlns="http://www.w3.org/2000/svg">
<path fill-rule="evenodd" clip-rule="evenodd" d="M3.95322 0.119201C4.01032 0.176285 4.04917 0.249049 4.06484 0.328255C4.0805 0.407461 4.07228 0.489536 4.04121 0.56406C3.7933 1.16016 3.66592 1.79947 3.66642 2.44507C3.66642 3.7416 4.18146 4.98502 5.09825 5.90181C6.01503 6.81859 7.25846 7.33363 8.55498 7.33363C9.20058 7.33413 9.83989 7.20675 10.436 6.95884C10.5105 6.92783 10.5925 6.91962 10.6716 6.93526C10.7507 6.9509 10.8235 6.98969 10.8805 7.0467C10.9376 7.10372 10.9765 7.17639 10.9922 7.25552C11.0079 7.33464 10.9998 7.41665 10.9688 7.49115C10.5356 8.53051 9.80436 9.41835 8.86732 10.0428C7.93028 10.6672 6.82936 11.0003 5.70332 11.0001C2.55346 11.0001 0 8.44714 0 5.29673C0 2.92415 1.44864 0.890508 3.5089 0.0312072C3.58336 0.000256901 3.66532 -0.0079027 3.74442 0.00776163C3.82351 0.023426 3.89618 0.0622096 3.95322 0.119201Z" fill="white"/>
</svg>
