<svg width="13" height="15" viewBox="0 0 13 15" fill="none" xmlns="http://www.w3.org/2000/svg">
<path d="M10.8438 6.31875V5.87813C10.8438 3.46 8.95379 1.5 6.62504 1.5C4.29629 1.5 2.40629 3.46 2.40629 5.87813V6.31875C2.40704 6.84472 2.25694 7.35988 1.97379 7.80313L1.28129 8.88125C0.649414 9.86563 1.13191 11.2038 2.23129 11.515C5.10397 12.3285 8.14611 12.3285 11.0188 11.515C12.1182 11.2038 12.6007 9.86562 11.9688 8.88187L11.2763 7.80375C10.9929 7.36057 10.8426 6.84541 10.8432 6.31938L10.8438 6.31875Z" stroke="white" stroke-width="1.5"/>
<path d="M3.8125 12.125C4.22187 13.2175 5.32625 14 6.625 14C7.92375 14 9.02813 13.2175 9.4375 12.125" stroke="white" stroke-width="1.5" stroke-linecap="round"/>
<circle cx="10.375" cy="3.25" r="2.25" fill="#B83A9B"/>
</svg>
