<svg width="29" height="17" viewBox="0 0 29 17" fill="none" xmlns="http://www.w3.org/2000/svg">
<path d="M8.36364 16V14.75C8.36364 13.0924 9.01014 11.5027 10.1609 10.3306C11.3117 9.15848 12.8725 8.5 14.5 8.5M14.5 8.5C16.1275 8.5 17.6883 9.15848 18.8391 10.3306C19.9899 11.5027 20.6364 13.0924 20.6364 14.75V16M14.5 8.5C15.4765 8.5 16.413 8.10491 17.1034 7.40165C17.7939 6.69839 18.1818 5.74456 18.1818 4.75C18.1818 3.75544 17.7939 2.80161 17.1034 2.09835C16.413 1.39509 15.4765 1 14.5 1C13.5235 1 12.587 1.39509 11.8966 2.09835C11.2061 2.80161 10.8182 3.75544 10.8182 4.75C10.8182 5.74456 11.2061 6.69839 11.8966 7.40165C12.587 8.10491 13.5235 8.5 14.5 8.5ZM1 16V14.75C1 13.7554 1.3879 12.8016 2.07838 12.0983C2.76885 11.3951 3.70534 11 4.68182 11M4.68182 11C5.3328 11 5.95713 10.7366 6.41744 10.2678C6.87776 9.79893 7.13636 9.16304 7.13636 8.5C7.13636 7.83696 6.87776 7.20107 6.41744 6.73223C5.95713 6.26339 5.3328 6 4.68182 6C4.03083 6 3.40651 6.26339 2.94619 6.73223C2.48588 7.20107 2.22727 7.83696 2.22727 8.5C2.22727 9.16304 2.48588 9.79893 2.94619 10.2678C3.40651 10.7366 4.03083 11 4.68182 11ZM28 16V14.75C28 13.7554 27.6121 12.8016 26.9216 12.0983C26.2311 11.3951 25.2947 11 24.3182 11M24.3182 11C24.9692 11 25.5935 10.7366 26.0538 10.2678C26.5141 9.79893 26.7727 9.16304 26.7727 8.5C26.7727 7.83696 26.5141 7.20107 26.0538 6.73223C25.5935 6.26339 24.9692 6 24.3182 6C23.6672 6 23.0429 6.26339 22.5826 6.73223C22.1222 7.20107 21.8636 7.83696 21.8636 8.5C21.8636 9.16304 22.1222 9.79893 22.5826 10.2678C23.0429 10.7366 23.6672 11 24.3182 11Z" stroke="white" stroke-width="2" stroke-linecap="round" stroke-linejoin="round"/>
</svg>
