<svg width="49" height="49" viewBox="0 0 49 49" fill="none" xmlns="http://www.w3.org/2000/svg">
<circle cx="24.5" cy="24.5" r="24" stroke="#F43630"/>
<path d="M15.7812 9.67969C16.5365 9.8099 17.2005 9.90104 17.7734 9.95312C18.3724 10.0052 18.8672 10.0443 19.2578 10.0703C19.7266 10.0964 20.1302 10.1094 20.4688 10.1094C20.8073 10.1094 21.2891 10.0833 21.9141 10.0312C22.4349 9.97917 23.112 9.91406 23.9453 9.83594C24.8047 9.75781 25.8594 9.6276 27.1094 9.44531C26.7448 9.54948 26.4062 9.84896 26.0938 10.3438C25.8073 10.8125 25.5469 11.3203 25.3125 11.8672C25.026 12.5182 24.7786 13.2344 24.5703 14.0156C24.388 14.7188 24.1536 15.6823 23.8672 16.9062C23.6068 18.1302 23.3464 19.4583 23.0859 20.8906C22.8516 22.3229 22.6693 23.7812 22.5391 25.2656C22.4089 26.724 22.3828 28.0651 22.4609 29.2891C22.5651 30.513 22.8125 31.5286 23.2031 32.3359C23.5938 33.1172 24.1927 33.5339 25 33.5859C26.224 33.6901 27.2396 33.7031 28.0469 33.625C28.8802 33.5208 29.5573 33.3776 30.0781 33.1953C30.599 33.013 31.0026 32.8047 31.2891 32.5703C31.5755 32.3099 31.7969 32.0625 31.9531 31.8281C32.3698 31.2292 32.7995 30.4609 33.2422 29.5234C33.6849 28.5859 34.0755 27.6875 34.4141 26.8281C34.7786 25.9688 35.0781 25.2396 35.3125 24.6406C35.5469 24.0417 35.6641 23.7552 35.6641 23.7812C35.6641 23.8333 35.651 24.1328 35.625 24.6797C35.625 25.2005 35.612 25.8385 35.5859 26.5938C35.5859 27.3229 35.5729 28.0911 35.5469 28.8984C35.5469 29.7057 35.5339 30.3958 35.5078 30.9688C35.4818 31.4375 35.4557 31.9583 35.4297 32.5312C35.4036 33.026 35.3776 33.612 35.3516 34.2891C35.3516 34.9661 35.3255 35.7083 35.2734 36.5156C34.1797 36.4375 33.138 36.3854 32.1484 36.3594C31.1589 36.3333 30.2865 36.3203 29.5312 36.3203C28.6458 36.3203 27.8255 36.3333 27.0703 36.3594C26.263 36.3854 25.3255 36.4245 24.2578 36.4766C23.3464 36.5286 22.2135 36.5938 20.8594 36.6719C19.5052 36.724 17.9427 36.8021 16.1719 36.9062C16.3802 36.5417 16.5495 36.2031 16.6797 35.8906C16.8359 35.5781 16.9531 35.3177 17.0312 35.1094C17.1354 34.849 17.2005 34.6276 17.2266 34.4453C17.3828 33.612 17.513 32.5573 17.6172 31.2812C17.7214 29.9792 17.7995 28.599 17.8516 27.1406C17.9297 25.6823 17.9688 24.1979 17.9688 22.6875C17.9948 21.151 17.9948 19.7318 17.9688 18.4297C17.9427 17.1276 17.8906 15.9948 17.8125 15.0312C17.7604 14.0677 17.6823 13.4036 17.5781 13.0391C17.4479 12.6224 17.2917 12.2057 17.1094 11.7891C16.9531 11.4245 16.7578 11.0599 16.5234 10.6953C16.3151 10.3047 16.0677 9.96615 15.7812 9.67969Z" fill="#F43630"/>
</svg>
