<svg width="12" height="24" viewBox="0 0 12 24" fill="none" xmlns="http://www.w3.org/2000/svg">
<path d="M1.507 15.5333L9.157 23.1833C9.46927 23.4937 9.89169 23.668 10.332 23.668C10.7723 23.668 11.1947 23.4937 11.507 23.1833C11.6632 23.0284 11.7872 22.844 11.8718 22.6409C11.9564 22.4378 12 22.22 12 22C12 21.78 11.9564 21.5621 11.8718 21.359C11.7872 21.1559 11.6632 20.9716 11.507 20.8166L3.84034 13.1833C3.68412 13.0284 3.56013 12.844 3.47552 12.6409C3.3909 12.4378 3.34734 12.22 3.34734 12C3.34734 11.78 3.3909 11.5621 3.47552 11.359C3.56013 11.1559 3.68412 10.9716 3.84034 10.8166L11.507 3.18331C11.8208 2.87168 11.998 2.44814 11.9996 2.00587C12.0012 1.5636 11.827 1.13882 11.5153 0.824978C11.2037 0.511138 10.7802 0.333945 10.3379 0.332382C9.89562 0.330819 9.47084 0.505015 9.157 0.816644L1.507 8.46664C0.570667 9.40415 0.0447342 10.675 0.0447341 12C0.044734 13.325 0.570666 14.5958 1.507 15.5333Z" fill="#F1A140"/>
</svg>
