<svg width="12" height="24" viewBox="0 0 12 24" fill="none" xmlns="http://www.w3.org/2000/svg">
<path d="M10.493 8.46669L2.843 0.816685C2.53073 0.506267 2.10831 0.332031 1.668 0.332031C1.22769 0.332031 0.805268 0.506267 0.492997 0.816685C0.336783 0.971624 0.212793 1.15596 0.128179 1.35906C0.0435641 1.56216 0 1.78 0 2.00002C0 2.22004 0.0435641 2.43788 0.128179 2.64098C0.212793 2.84408 0.336783 3.02841 0.492997 3.18335L8.15967 10.8167C8.31588 10.9716 8.43987 11.156 8.52448 11.3591C8.6091 11.5622 8.65266 11.78 8.65266 12C8.65266 12.22 8.6091 12.4379 8.52448 12.641C8.43987 12.8441 8.31588 13.0284 8.15967 13.1834L0.492997 20.8167C0.179158 21.1283 0.00196653 21.5519 0.000403722 21.9941C-0.00115908 22.4364 0.173036 22.8612 0.484665 23.175C0.796295 23.4889 1.21983 23.6661 1.6621 23.6676C2.10438 23.6692 2.52916 23.495 2.843 23.1834L10.493 15.5334C11.4293 14.5959 11.9553 13.325 11.9553 12C11.9553 10.675 11.4293 9.40419 10.493 8.46669Z" fill="#F1A140"/>
</svg>
