<svg width="35" height="35" viewBox="0 0 35 35" fill="none" xmlns="http://www.w3.org/2000/svg">
<path d="M4.21079 34.6127C3.27519 34.6127 2.47425 34.2796 1.80799 33.6133C1.14173 32.9471 0.808594 32.1461 0.808594 31.2105V7.39514C0.808594 6.45954 1.14173 5.6586 1.80799 4.99234C2.47425 4.32608 3.27519 3.99294 4.21079 3.99294H15.3105C15.8775 3.99294 16.3028 4.17014 16.5863 4.52454C16.8698 4.87893 17.0116 5.26877 17.0116 5.69404C17.0116 6.11932 16.8627 6.50915 16.565 6.86355C16.2673 7.21795 15.835 7.39514 15.2679 7.39514H4.21079V31.2105H28.0262V20.1109C28.0262 19.5438 28.2034 19.1186 28.5578 18.835C28.9122 18.5515 29.302 18.4098 29.7273 18.4098C30.1526 18.4098 30.5424 18.5515 30.8968 18.835C31.2512 19.1186 31.4284 19.5438 31.4284 20.1109V31.2105C31.4284 32.1461 31.0953 32.9471 30.429 33.6133C29.7627 34.2796 28.9618 34.6127 28.0262 34.6127H4.21079ZM11.0152 22.705V18.5799C11.0152 18.1262 11.1002 17.6939 11.2704 17.2828C11.4405 16.8717 11.6815 16.5102 11.9933 16.1983L26.6228 1.56888C26.963 1.22866 27.3457 0.973493 27.771 0.803383C28.1963 0.633273 28.6216 0.548218 29.0468 0.548218C29.5005 0.548218 29.9328 0.633273 30.3439 0.803383C30.755 0.973493 31.1307 1.22866 31.4709 1.56888L33.8525 3.99294C34.1643 4.33316 34.4053 4.70882 34.5754 5.11992C34.7455 5.53102 34.8306 5.94921 34.8306 6.37448C34.8306 6.79976 34.7526 7.21795 34.5967 7.62904C34.4408 8.04014 34.1927 8.4158 33.8525 8.75602L19.223 23.3855C18.9111 23.6973 18.5496 23.9454 18.1385 24.1297C17.7274 24.314 17.2951 24.4061 16.8415 24.4061H12.7163C12.2343 24.4061 11.8303 24.2431 11.5043 23.9171C11.1782 23.591 11.0152 23.187 11.0152 22.705ZM14.4174 21.0039H16.7989L26.6653 11.1376L25.4745 9.94679L24.2412 8.75602L14.4174 18.5799V21.0039Z" fill="white"/>
</svg>
