<svg width="14" height="15" viewBox="0 0 14 15" fill="none" xmlns="http://www.w3.org/2000/svg">
<g clip-path="url(#clip0_478_907)">
<path d="M13.3309 1.16964C12.9343 0.773671 12.3968 0.55127 11.8364 0.55127C11.276 0.55127 10.7385 0.773671 10.3419 1.16964L0.854592 10.657C0.582905 10.9271 0.367487 11.2485 0.220799 11.6024C0.0741119 11.9564 -0.000932153 12.3359 8.73905e-06 12.7191V13.9166C8.73905e-06 14.0714 0.0614669 14.2197 0.170863 14.3291C0.280259 14.4385 0.428632 14.5 0.583342 14.5H1.78093C2.16404 14.5011 2.54356 14.4261 2.89752 14.2795C3.25148 14.133 3.57284 13.9176 3.84301 13.646L13.3309 4.15806C13.7267 3.7615 13.949 3.22412 13.949 2.66385C13.949 2.10358 13.7267 1.56619 13.3309 1.16964ZM3.01818 12.8211C2.68918 13.148 2.24465 13.332 1.78093 13.3333H1.16668V12.7191C1.16609 12.4892 1.2111 12.2614 1.29911 12.0491C1.38713 11.8367 1.51639 11.6439 1.67943 11.4818L8.87951 4.28172L10.2212 5.62339L3.01818 12.8211ZM12.5055 3.33322L11.0437 4.79564L9.70201 3.45689L11.1644 1.99447C11.2525 1.90657 11.3571 1.83688 11.4721 1.78938C11.5871 1.74188 11.7104 1.7175 11.8348 1.71764C11.9593 1.71777 12.0825 1.74242 12.1974 1.79017C12.3123 1.83792 12.4167 1.90784 12.5046 1.99593C12.5925 2.08403 12.6622 2.18857 12.7097 2.3036C12.7572 2.41863 12.7816 2.54189 12.7815 2.66634C12.7813 2.79079 12.7567 2.91399 12.7089 3.02892C12.6612 3.14384 12.5913 3.24824 12.5032 3.33614L12.5055 3.33322Z" fill="#4F4F4F"/>
</g>
<defs>
<clipPath id="clip0_478_907">
<rect width="14" height="14" fill="white" transform="translate(0 0.5)"/>
</clipPath>
</defs>
</svg>
