<svg width="14" height="14" viewBox="0 0 14 14" fill="none" xmlns="http://www.w3.org/2000/svg">
<path d="M9.91602 1.75004H12.2493C12.4041 1.75004 12.5524 1.8115 12.6618 1.9209C12.7712 2.03029 12.8327 2.17866 12.8327 2.33337V11.6667C12.8327 11.8214 12.7712 11.9698 12.6618 12.0792C12.5524 12.1886 12.4041 12.25 12.2493 12.25H1.74935C1.59464 12.25 1.44627 12.1886 1.33687 12.0792C1.22747 11.9698 1.16602 11.8214 1.16602 11.6667V2.33337C1.16602 2.17866 1.22747 2.03029 1.33687 1.9209C1.44627 1.8115 1.59464 1.75004 1.74935 1.75004H4.08268V0.583374H5.24935V1.75004H8.74935V0.583374H9.91602V1.75004ZM8.74935 2.91671H5.24935V4.08337H4.08268V2.91671H2.33268V5.25004H11.666V2.91671H9.91602V4.08337H8.74935V2.91671ZM11.666 6.41671H2.33268V11.0834H11.666V6.41671Z" fill="#4F4F4F"/>
</svg>
