<svg width="12" height="12" viewBox="0 0 12 12" fill="none" xmlns="http://www.w3.org/2000/svg">
<g clip-path="url(#clip0_478_922)">
<path d="M9.5 1.50012H6.236C6.15867 1.50063 6.08224 1.48353 6.0125 1.45012L4.4345 0.658122C4.2262 0.554395 3.9967 0.500315 3.764 0.500122H2.5C1.8372 0.500916 1.20178 0.764563 0.73311 1.23323C0.264441 1.7019 0.000793929 2.33732 0 3.00012L0 9.00012C0.000793929 9.66292 0.264441 10.2983 0.73311 10.767C1.20178 11.2357 1.8372 11.4993 2.5 11.5001H9.5C10.1628 11.4993 10.7982 11.2357 11.2669 10.767C11.7356 10.2983 11.9992 9.66292 12 9.00012V4.00012C11.9992 3.33732 11.7356 2.7019 11.2669 2.23323C10.7982 1.76456 10.1628 1.50092 9.5 1.50012ZM2.5 1.50012H3.764C3.84133 1.49961 3.91776 1.51671 3.9875 1.55012L5.5655 2.33962C5.77359 2.44421 6.0031 2.49915 6.236 2.50012H9.5C9.79902 2.50061 10.0911 2.59046 10.3387 2.75813C10.5862 2.9258 10.7781 3.16364 10.8895 3.44112L1 3.49712V3.00012C1 2.6023 1.15804 2.22077 1.43934 1.93946C1.72064 1.65816 2.10218 1.50012 2.5 1.50012ZM9.5 10.5001H2.5C2.10218 10.5001 1.72064 10.3421 1.43934 10.0608C1.15804 9.77948 1 9.39795 1 9.00012V4.49712L11 4.44062V9.00012C11 9.39795 10.842 9.77948 10.5607 10.0608C10.2794 10.3421 9.89782 10.5001 9.5 10.5001Z" fill="#374957"/>
</g>
<defs>
<clipPath id="clip0_478_922">
<rect width="12" height="12" fill="white"/>
</clipPath>
</defs>
</svg>
