<svg width="12" height="12" viewBox="0 0 12 12" fill="none" xmlns="http://www.w3.org/2000/svg">
<g clip-path="url(#clip0_478_932)">
<path d="M4.5 11.9997H0.5C0.367392 11.9997 0.240215 11.9471 0.146447 11.8533C0.0526784 11.7595 0 11.6324 0 11.4998C0 11.3671 0.0526784 11.24 0.146447 11.1462C0.240215 11.0524 0.367392 10.9998 0.5 10.9998H4.5C4.63261 10.9998 4.75979 11.0524 4.85355 11.1462C4.94732 11.24 5 11.3671 5 11.4998C5 11.6324 4.94732 11.7595 4.85355 11.8533C4.75979 11.9471 4.63261 11.9997 4.5 11.9997Z" fill="#374957"/>
<path d="M3.5 10H0.5C0.367392 10 0.240215 9.94733 0.146447 9.85356C0.0526784 9.75979 0 9.63261 0 9.5C0 9.36739 0.0526784 9.24022 0.146447 9.14645C0.240215 9.05268 0.367392 9 0.5 9H3.5C3.63261 9 3.75979 9.05268 3.85355 9.14645C3.94732 9.24022 4 9.36739 4 9.5C4 9.63261 3.94732 9.75979 3.85355 9.85356C3.75979 9.94733 3.63261 10 3.5 10Z" fill="#374957"/>
<path d="M2.5 8.00025H0.5C0.367392 8.00025 0.240215 7.94757 0.146447 7.8538C0.0526784 7.76003 0 7.63286 0 7.50025C0 7.36764 0.0526784 7.24046 0.146447 7.14669C0.240215 7.05292 0.367392 7.00024 0.5 7.00024H2.5C2.63261 7.00024 2.75979 7.05292 2.85355 7.14669C2.94732 7.24046 3 7.36764 3 7.50025C3 7.63286 2.94732 7.76003 2.85355 7.8538C2.75979 7.94757 2.63261 8.00025 2.5 8.00025Z" fill="#374957"/>
<path d="M6.50096 11.9773C6.36835 11.9832 6.23883 11.9362 6.14089 11.8466C6.04295 11.757 5.98461 11.6322 5.97871 11.4996C5.97281 11.367 6.01983 11.2374 6.10942 11.1395C6.19902 11.0416 6.32385 10.9832 6.45646 10.9773C7.40269 10.8907 8.30466 10.5363 9.05672 9.9556C9.80879 9.37488 10.3798 8.59188 10.7029 7.69832C11.026 6.80476 11.0878 5.83764 10.8811 4.91022C10.6743 3.9828 10.2076 3.13349 9.53559 2.46176C8.86355 1.79004 8.01403 1.32371 7.08652 1.1174C6.15901 0.911085 5.19191 0.97333 4.2985 1.29684C3.40509 1.62036 2.62235 2.19174 2.04198 2.94408C1.4616 3.69641 1.10761 4.59854 1.02147 5.54481C1.00953 5.67689 0.945618 5.79882 0.843786 5.88377C0.741954 5.96873 0.610545 6.00975 0.478467 5.99781C0.34639 5.98588 0.224463 5.92196 0.139509 5.82013C0.0545549 5.7183 0.0135332 5.58689 0.0254679 5.45481C0.164912 3.91647 0.892269 2.49116 2.05613 1.4756C3.21999 0.460029 4.73068 -0.0675546 6.27374 0.00266924C7.81679 0.0728931 9.27332 0.735513 10.3401 1.8526C11.4069 2.96968 12.0018 4.45516 12.001 5.99981C12.0086 7.49898 11.4517 8.94611 10.4409 10.0533C9.43014 11.1605 8.03962 11.8467 6.54596 11.9753C6.53096 11.9768 6.51546 11.9773 6.50096 11.9773Z" fill="#374957"/>
<path d="M6 3C5.86739 3 5.74021 3.05268 5.64645 3.14645C5.55268 3.24021 5.5 3.36739 5.5 3.5V6C5.50003 6.1326 5.55273 6.25975 5.6465 6.3535L7.1465 7.8535C7.2408 7.94458 7.3671 7.99498 7.4982 7.99384C7.6293 7.9927 7.7547 7.94011 7.84741 7.84741C7.94011 7.75471 7.9927 7.6293 7.99384 7.4982C7.99498 7.3671 7.94458 7.2408 7.8535 7.1465L6.5 5.793V3.5C6.5 3.36739 6.44732 3.24021 6.35355 3.14645C6.25978 3.05268 6.13261 3 6 3Z" fill="#374957"/>
</g>
<defs>
<clipPath id="clip0_478_932">
<rect width="12" height="12" fill="white"/>
</clipPath>
</defs>
</svg>
