<svg width="16" height="13" viewBox="0 0 16 13" fill="none" xmlns="http://www.w3.org/2000/svg">
<path d="M1.04905 12.9948C0.961037 12.9948 0.870641 12.9896 0.780246 12.9766C0.29259 12.9091 -0.0547165 12.421 0.00713257 11.8887C0.0689816 11.3563 0.516199 10.9798 1.00385 11.0448C1.42015 11.1045 2.09335 10.2034 2.34788 9.86589L3.36363 8.50786C3.121 8.18328 2.89739 7.83534 2.69519 7.44844C1.89591 5.92683 1.68419 4.14815 2.12665 2.69664C2.60004 1.14386 3.83464 0.0896383 5.11444 0.131184C6.24437 0.167537 7.27916 1.08674 7.70734 2.33831C7.8358 1.90207 8.02848 1.49181 8.29966 1.12828C9.12035 0.0325128 10.481 -0.31024 11.6086 0.299964C12.6124 0.84006 13.3451 2.09942 13.4736 3.50159C13.5949 4.81028 13.2072 5.97616 12.8622 6.72399C12.5958 7.30043 12.2818 7.80677 11.9535 8.28195L13.1334 9.68672C13.4284 10.0373 13.7067 10.3696 13.9969 10.58C14.2039 10.728 14.4061 10.7955 14.5369 10.7591C15.0127 10.6267 15.5003 10.9383 15.624 11.4602C15.7477 11.9795 15.4599 12.5118 14.9817 12.6469C14.3514 12.8234 13.6544 12.6676 13.0145 12.208C12.5387 11.8653 12.1557 11.4083 11.8179 11.0058L10.8236 9.81915C10.5239 10.1957 10.2027 10.5592 9.83162 10.8734C9.03472 11.5485 8.18073 11.8367 7.36479 11.7043C6.53935 11.5719 5.8709 11.0266 5.25717 10.4813C5.04783 10.2943 4.83612 10.1048 4.62679 9.90484L3.72997 11.1019C3.22329 11.7796 2.30744 13 1.05143 13L1.04905 12.9948ZM5.75196 8.39101C5.95892 8.59095 6.17063 8.7805 6.37997 8.96746C6.81767 9.35695 7.24348 9.71269 7.62171 9.77241C8.05227 9.84252 8.50424 9.52573 8.73499 9.32839C9.03948 9.07132 9.32731 8.72857 9.60563 8.36505L9.35586 8.06643C8.89913 7.52115 8.38054 6.90575 8.00945 6.10599C7.87624 5.81777 7.76443 5.50098 7.68118 5.16342C7.59792 5.43347 7.50039 5.67755 7.40523 5.88268C7.05793 6.64349 6.58692 7.26927 6.17301 7.82495L5.75196 8.38842V8.39101ZM5.03832 2.07605C4.55542 2.07605 4.03446 2.60316 3.81799 3.31204C3.53729 4.23383 3.69905 5.44645 4.24142 6.4799C4.32943 6.64609 4.42221 6.80448 4.52449 6.95768L4.79568 6.59675C5.1858 6.07483 5.55452 5.58148 5.81381 5.01801C6.07072 4.45455 6.18015 3.8729 6.1183 3.37695C6.02552 2.62913 5.48791 2.09163 5.0621 2.07605C5.05497 2.07605 5.04783 2.07605 5.0407 2.07605H5.03832ZM10.4358 1.94622C10.1575 1.94622 9.87682 2.09163 9.677 2.35648C9.19648 2.99785 9.16317 4.28577 9.5985 5.22574C9.85779 5.78661 10.2527 6.254 10.669 6.75255L10.7189 6.81227C10.9211 6.50068 11.109 6.18129 11.2637 5.84373C11.6015 5.11149 11.7537 4.34808 11.6919 3.69114C11.6252 2.96149 11.2613 2.28378 10.8117 2.03969C10.6928 1.97478 10.5643 1.94362 10.4358 1.94362V1.94622Z" fill="#F1A140"/>
</svg>
