<svg width="17" height="13" viewBox="0 0 17 13" fill="none" xmlns="http://www.w3.org/2000/svg">
<path d="M1.12229 12.9948C1.02813 12.9948 0.931423 12.9896 0.834717 12.9766C0.313016 12.9091 -0.0585364 12.421 0.00763051 11.8886C0.0737974 11.3563 0.552236 10.9798 1.07394 11.0448C1.51929 11.1045 2.23949 10.2034 2.5118 9.86589L3.59846 8.50786C3.33888 8.18328 3.09966 7.83534 2.88335 7.44844C2.02827 5.92683 1.80177 4.14815 2.27512 2.69664C2.78155 1.14386 4.10235 0.0896383 5.47149 0.131184C6.68031 0.167537 7.78734 1.08674 8.24541 2.33831C8.38284 1.90207 8.58897 1.49181 8.87909 1.12828C9.75707 0.0325128 11.2127 -0.31024 12.419 0.299964C13.493 0.84006 14.2768 2.09942 14.4142 3.50159C14.544 4.81028 14.1292 5.97616 13.7602 6.72399C13.4751 7.30043 13.1392 7.80677 12.788 8.28195L14.0503 9.68672C14.3659 10.0373 14.6636 10.3696 14.9741 10.58C15.1955 10.728 15.4118 10.7955 15.5518 10.7591C16.0607 10.6267 16.5824 10.9383 16.7148 11.4602C16.8471 11.9795 16.5392 12.5118 16.0277 12.6469C15.3533 12.8234 14.6076 12.6676 13.923 12.208C13.4141 11.8653 13.0043 11.4083 12.643 11.0058L11.5792 9.81915C11.2586 10.1957 10.915 10.5592 10.518 10.8734C9.66546 11.5485 8.75185 11.8367 7.87895 11.7043C6.99588 11.5719 6.28077 11.0266 5.62419 10.4813C5.40024 10.2943 5.17374 10.1048 4.94979 9.90484L3.99037 11.1019C3.44831 11.7796 2.46853 13 1.12483 13L1.12229 12.9948ZM6.15352 8.39101C6.37493 8.59095 6.60142 8.7805 6.82537 8.96746C7.29363 9.35695 7.74916 9.71269 8.1538 9.77241C8.61442 9.84252 9.09795 9.52573 9.3448 9.32839C9.67055 9.07132 9.97848 8.72857 10.2762 8.36505L10.009 8.06643C9.5204 7.52115 8.96561 6.90575 8.56861 6.10599C8.4261 5.81777 8.30649 5.50098 8.21742 5.16342C8.12835 5.43347 8.02401 5.67755 7.92221 5.88268C7.55066 6.64349 7.04678 7.26927 6.60397 7.82495L6.15352 8.38842V8.39101ZM5.39006 2.07605C4.87345 2.07605 4.31612 2.60316 4.08453 3.31204C3.78424 4.23383 3.95729 5.44645 4.53752 6.4799C4.63168 6.64609 4.73093 6.80448 4.84036 6.95768L5.13048 6.59675C5.54784 6.07483 5.9423 5.58148 6.21969 5.01801C6.49454 4.45455 6.6116 3.8729 6.54543 3.37695C6.44618 2.62913 5.87104 2.09163 5.4155 2.07605C5.40787 2.07605 5.40024 2.07605 5.3926 2.07605H5.39006ZM11.1644 1.94622C10.8666 1.94622 10.5663 2.09163 10.3526 2.35648C9.83851 2.99785 9.80288 4.28577 10.2686 5.22574C10.546 5.78661 10.9684 6.254 11.4138 6.75255L11.4672 6.81227C11.6835 6.50068 11.8846 6.18129 12.05 5.84373C12.4114 5.11149 12.5743 4.34808 12.5081 3.69114C12.4368 2.96149 12.0475 2.28378 11.5665 2.0397C11.4392 1.97478 11.3018 1.94362 11.1644 1.94362V1.94622Z" fill="#8992B5"/>
</svg>
