<svg width="40" height="40" viewBox="0 0 40 40" fill="none" xmlns="http://www.w3.org/2000/svg">
<g clip-path="url(#clip0_331_8004)">
<path d="M3.33333 23.3339C5.17428 23.3339 6.66667 21.8415 6.66667 20.0006C6.66667 18.1596 5.17428 16.6672 3.33333 16.6672C1.49238 16.6672 0 18.1596 0 20.0006C0 21.8415 1.49238 23.3339 3.33333 23.3339Z" fill="#6A718B"/>
<path d="M19.9993 23.3339C21.8403 23.3339 23.3327 21.8415 23.3327 20.0006C23.3327 18.1596 21.8403 16.6672 19.9993 16.6672C18.1584 16.6672 16.666 18.1596 16.666 20.0006C16.666 21.8415 18.1584 23.3339 19.9993 23.3339Z" fill="#6A718B"/>
<path d="M36.6673 23.3339C38.5083 23.3339 40.0007 21.8415 40.0007 20.0006C40.0007 18.1596 38.5083 16.6672 36.6673 16.6672C34.8264 16.6672 33.334 18.1596 33.334 20.0006C33.334 21.8415 34.8264 23.3339 36.6673 23.3339Z" fill="#6A718B"/>
</g>
<defs>
<clipPath id="clip0_331_8004">
<rect width="40" height="40" fill="white"/>
</clipPath>
</defs>
</svg>
