<svg width="32" height="32" viewBox="0 0 32 32" fill="none" xmlns="http://www.w3.org/2000/svg">
<g clip-path="url(#clip0_331_8538)">
<path d="M30.364 10.2951C29.7388 9.5746 28.966 8.99683 28.0981 8.60094C27.2302 8.20504 26.2873 8.00026 25.3333 8.00046H20.0147L20.4627 5.27913C20.6212 4.32081 20.4299 3.33744 19.9238 2.50838C19.4177 1.67932 18.6304 1.05981 17.7056 0.762852C16.7808 0.46589 15.78 0.511264 14.8858 0.890696C13.9917 1.27013 13.2637 1.95834 12.8347 2.8298L10.2827 8.00046H6.66667C4.89921 8.00258 3.20474 8.70564 1.95496 9.95542C0.705176 11.2052 0.00211714 12.8997 0 14.6671L0 21.3338C0.00211714 23.1013 0.705176 24.7957 1.95496 26.0455C3.20474 27.2953 4.89921 27.9983 6.66667 28.0005H24.4C26.0046 27.9939 27.5536 27.4115 28.7651 26.3593C29.9766 25.3071 30.7701 23.855 31.0013 22.2671L31.9413 15.6005C32.0737 14.6548 32.0014 13.6917 31.7293 12.7764C31.4571 11.8611 30.9915 11.0149 30.364 10.2951ZM2.66667 21.3338V14.6671C2.66667 13.6063 3.08809 12.5888 3.83824 11.8387C4.58839 11.0886 5.6058 10.6671 6.66667 10.6671H9.33333V25.3338H6.66667C5.6058 25.3338 4.58839 24.9124 3.83824 24.1622C3.08809 23.4121 2.66667 22.3947 2.66667 21.3338ZM29.2947 15.2258L28.3533 21.8925C28.2157 22.8444 27.741 23.7154 27.0155 24.347C26.29 24.9785 25.3619 25.3287 24.4 25.3338H12V10.3125C12.1257 10.203 12.2297 10.0709 12.3067 9.92313L15.2253 4.0098C15.3348 3.81237 15.4895 3.64373 15.6768 3.51774C15.8641 3.39176 16.0787 3.31202 16.3028 3.28507C16.5269 3.25813 16.7542 3.28476 16.9661 3.36277C17.1779 3.44077 17.3682 3.56793 17.5213 3.7338C17.6523 3.88612 17.7481 4.06549 17.8018 4.25909C17.8555 4.45269 17.8658 4.65575 17.832 4.8538L17.128 9.12046C17.0971 9.3111 17.108 9.50618 17.1599 9.6922C17.2118 9.87822 17.3035 10.0507 17.4287 10.1978C17.5538 10.3449 17.7094 10.4631 17.8847 10.5441C18.0601 10.6251 18.2509 10.6671 18.444 10.6671H25.3333C25.9059 10.6671 26.4718 10.7899 26.9927 11.0273C27.5137 11.2648 27.9777 11.6113 28.3532 12.0434C28.7287 12.4756 29.0071 12.9834 29.1695 13.5324C29.332 14.0814 29.3746 14.6589 29.2947 15.2258Z" fill="#6A718B"/>
</g>
<defs>
<clipPath id="clip0_331_8538">
<rect width="32" height="32" fill="white"/>
</clipPath>
</defs>
</svg>
