<svg width="13" height="13" viewBox="0 0 13 13" fill="none" xmlns="http://www.w3.org/2000/svg">
<g clip-path="url(#clip0_331_13338)">
<path d="M12.3354 4.18245C12.0814 3.88974 11.7675 3.65502 11.4149 3.49419C11.0623 3.33335 10.6792 3.25016 10.2917 3.25025H8.13096L8.31296 2.1447C8.37736 1.75539 8.29966 1.35589 8.09405 1.01909C7.88844 0.682281 7.56861 0.430606 7.1929 0.309966C6.81719 0.189325 6.41062 0.207758 6.04737 0.361903C5.68412 0.516047 5.38837 0.795631 5.21408 1.14966L4.17733 3.25025H2.70833C1.9903 3.25111 1.30193 3.53672 0.794202 4.04445C0.286478 4.55217 0.00086009 5.24055 0 5.95858L0 8.66691C0.00086009 9.38494 0.286478 10.0733 0.794202 10.581C1.30193 11.0888 1.9903 11.3744 2.70833 11.3752H9.9125C10.5644 11.3726 11.1936 11.136 11.6858 10.7085C12.178 10.2811 12.5004 9.69116 12.5943 9.04608L12.9762 6.33775C13.0299 5.95356 13.0006 5.5623 12.89 5.19046C12.7795 4.81861 12.5903 4.47485 12.3354 4.18245ZM1.08333 8.66691V5.95858C1.08333 5.5276 1.25454 5.11428 1.55928 4.80953C1.86403 4.50478 2.27736 4.33358 2.70833 4.33358H3.79167V10.2919H2.70833C2.27736 10.2919 1.86403 10.1207 1.55928 9.81596C1.25454 9.51121 1.08333 9.09789 1.08333 8.66691ZM11.901 6.18554L11.5185 8.89387C11.4626 9.28061 11.2698 9.63445 10.975 9.89101C10.6803 10.1476 10.3033 10.2898 9.9125 10.2919H4.875V4.1895C4.92605 4.14502 4.96831 4.09137 4.99958 4.03133L6.18529 1.62904C6.22976 1.54883 6.29262 1.48032 6.36872 1.42914C6.44481 1.37796 6.53196 1.34556 6.62301 1.33462C6.71407 1.32367 6.80641 1.33449 6.89247 1.36618C6.97853 1.39787 7.05583 1.44953 7.11804 1.51691C7.17126 1.5788 7.21016 1.65166 7.23198 1.73031C7.2538 1.80896 7.25799 1.89146 7.24425 1.97191L6.95825 3.70525C6.9457 3.78269 6.95012 3.86194 6.97121 3.93751C6.9923 4.01309 7.02955 4.08317 7.0804 4.14293C7.13124 4.20268 7.19446 4.25068 7.26568 4.2836C7.3369 4.31652 7.41442 4.33357 7.49288 4.33358H10.2917C10.5243 4.33355 10.7541 4.38345 10.9658 4.47991C11.1774 4.57637 11.3659 4.71714 11.5185 4.89271C11.671 5.06827 11.7841 5.27455 11.8501 5.49758C11.9161 5.72062 11.9334 5.95522 11.901 6.18554Z" fill="black"/>
</g>
<defs>
<clipPath id="clip0_331_13338">
<rect width="13" height="13" fill="white"/>
</clipPath>
</defs>
</svg>
